G04 #@! TF.GenerationSoftware,KiCad,Pcbnew,(5.0.0-rc2-dev-733-g23a9fcd91)*
G04 #@! TF.CreationDate,2018-06-09T19:11:19-04:00*
G04 #@! TF.ProjectId,100plus-2,313030706C75732D322E6B696361645F,rev?*
G04 #@! TF.SameCoordinates,Original*
G04 #@! TF.FileFunction,Soldermask,Bot*
G04 #@! TF.FilePolarity,Negative*
%FSLAX45Y45*%
G04 Gerber Fmt 4.5, Leading zero omitted, Abs format (unit mm)*
G04 Created by KiCad (PCBNEW (5.0.0-rc2-dev-733-g23a9fcd91)) date 06/09/18 19:11:19*
%MOMM*%
%LPD*%
G01*
G04 APERTURE LIST*
%ADD10C,2.650000*%
%ADD11C,2.650000*%
%ADD12C,4.387800*%
%ADD13C,2.150000*%
%ADD14R,1.400000X1.395000*%
%ADD15O,1.400000X8.400000*%
%ADD16R,1.600000X1.300000*%
%ADD17C,3.448000*%
%ADD18R,0.700000X1.550000*%
%ADD19R,1.000000X1.550000*%
%ADD20O,1.400000X2.500000*%
%ADD21C,1.050000*%
%ADD22O,1.400000X2.000000*%
%ADD23C,1.184860*%
%ADD24C,1.388060*%
%ADD25C,1.385520*%
%ADD26R,1.050000X1.960000*%
%ADD27C,0.950000*%
%ADD28C,0.100000*%
%ADD29C,1.400000*%
%ADD30C,6.400000*%
%ADD31C,2.082800*%
G04 APERTURE END LIST*
D10*
X15253875Y-16189750D03*
D11*
X15251875Y-16218750D02*
X15255875Y-16160750D01*
D10*
X15255875Y-16160750D03*
X14686375Y-16341750D03*
D11*
X14620875Y-16414750D02*
X14751875Y-16268750D01*
D12*
X15001875Y-16668750D03*
D10*
X14751875Y-16268750D03*
D13*
X14493875Y-16668750D03*
X15509875Y-16668750D03*
D14*
X12701000Y-8927750D03*
X12701000Y-8750250D03*
D13*
X26463625Y-9048750D03*
X25447625Y-9048750D03*
D10*
X25705625Y-8648750D03*
D12*
X25955625Y-9048750D03*
D10*
X25640125Y-8721750D03*
D11*
X25574625Y-8794750D02*
X25705625Y-8648750D01*
D10*
X26209625Y-8540750D03*
X26207625Y-8569750D03*
D11*
X26205625Y-8598750D02*
X26209625Y-8540750D01*
D10*
X10967625Y-8569750D03*
D11*
X10965625Y-8598750D02*
X10969625Y-8540750D01*
D10*
X10969625Y-8540750D03*
X10400125Y-8721750D03*
D11*
X10334625Y-8794750D02*
X10465625Y-8648750D01*
D12*
X10715625Y-9048750D03*
D10*
X10465625Y-8648750D03*
D13*
X10207625Y-9048750D03*
X11223625Y-9048750D03*
D15*
X9553000Y-18775000D03*
X9543000Y-14492000D03*
X9548000Y-13037000D03*
X9543000Y-15994000D03*
X9527000Y-8759000D03*
X9537000Y-17361000D03*
X9543000Y-11626000D03*
X9543000Y-10217000D03*
D10*
X39542625Y-10474750D03*
D11*
X39540625Y-10503750D02*
X39544625Y-10445750D01*
D10*
X39544625Y-10445750D03*
X38975125Y-10626750D03*
D11*
X38909625Y-10699750D02*
X39040625Y-10553750D01*
D12*
X39290625Y-10953750D03*
D10*
X39040625Y-10553750D03*
D13*
X38782625Y-10953750D03*
X39798625Y-10953750D03*
X30273625Y-10953750D03*
X29257625Y-10953750D03*
D10*
X29515625Y-10553750D03*
D12*
X29765625Y-10953750D03*
D10*
X29450125Y-10626750D03*
D11*
X29384625Y-10699750D02*
X29515625Y-10553750D01*
D10*
X30019625Y-10445750D03*
X30017625Y-10474750D03*
D11*
X30015625Y-10503750D02*
X30019625Y-10445750D01*
D10*
X26207625Y-10474750D03*
D11*
X26205625Y-10503750D02*
X26209625Y-10445750D01*
D10*
X26209625Y-10445750D03*
X25640125Y-10626750D03*
D11*
X25574625Y-10699750D02*
X25705625Y-10553750D01*
D12*
X25955625Y-10953750D03*
D10*
X25705625Y-10553750D03*
D13*
X25447625Y-10953750D03*
X26463625Y-10953750D03*
D10*
X11443875Y-12379750D03*
D11*
X11441875Y-12408750D02*
X11445875Y-12350750D01*
D10*
X11445875Y-12350750D03*
X10876375Y-12531750D03*
D11*
X10810875Y-12604750D02*
X10941875Y-12458750D01*
D12*
X11191875Y-12858750D03*
D10*
X10941875Y-12458750D03*
D13*
X10683875Y-12858750D03*
X11699875Y-12858750D03*
D14*
X11587000Y-8735000D03*
X11587000Y-8912500D03*
D10*
X8586375Y-14284750D03*
D11*
X8584375Y-14313750D02*
X8588375Y-14255750D01*
D10*
X8588375Y-14255750D03*
X8018875Y-14436750D03*
D11*
X7953375Y-14509750D02*
X8084375Y-14363750D01*
D12*
X8334375Y-14763750D03*
D10*
X8084375Y-14363750D03*
D13*
X7826375Y-14763750D03*
X8842375Y-14763750D03*
D15*
X40476000Y-8791000D03*
X40492000Y-10249000D03*
X40492000Y-11658000D03*
D16*
X11700000Y-15235000D03*
X11700000Y-15565000D03*
D10*
X11682000Y-14300625D03*
D11*
X11680000Y-14329625D02*
X11684000Y-14271625D01*
D10*
X11684000Y-14271625D03*
X11114500Y-14452625D03*
D11*
X11049000Y-14525625D02*
X11180000Y-14379625D01*
D12*
X11430000Y-14779625D03*
D10*
X11180000Y-14379625D03*
D13*
X10922000Y-14779625D03*
X11938000Y-14779625D03*
D12*
X37388800Y-15589250D03*
X35001200Y-15589250D03*
D17*
X37388800Y-14065250D03*
X35001200Y-14065250D03*
D13*
X36703000Y-14763750D03*
X35687000Y-14763750D03*
D10*
X35945000Y-14363750D03*
D12*
X36195000Y-14763750D03*
D10*
X35879500Y-14436750D03*
D11*
X35814000Y-14509750D02*
X35945000Y-14363750D01*
D10*
X36449000Y-14255750D03*
X36447000Y-14284750D03*
D11*
X36445000Y-14313750D02*
X36449000Y-14255750D01*
D16*
X32900000Y-13335000D03*
X32900000Y-13665000D03*
D15*
X40486000Y-17393000D03*
D16*
X25018000Y-8347000D03*
X25018000Y-8677000D03*
X25282000Y-8346000D03*
X25282000Y-8676000D03*
X6776250Y-9865000D03*
X6776250Y-9535000D03*
X8676250Y-9535000D03*
X8676250Y-9865000D03*
X11000000Y-9865000D03*
X11000000Y-9535000D03*
X13900000Y-9535000D03*
X13900000Y-9865000D03*
X15800000Y-9865000D03*
X15800000Y-9535000D03*
X17700000Y-9535000D03*
X17700000Y-9865000D03*
X19600000Y-9865000D03*
X19600000Y-9535000D03*
X22500000Y-9535000D03*
X22500000Y-9865000D03*
X23173000Y-9862000D03*
X23173000Y-9532000D03*
X26300000Y-9865000D03*
X26300000Y-9535000D03*
X28200000Y-9865000D03*
X28200000Y-9535000D03*
X31100000Y-9535000D03*
X31100000Y-9865000D03*
X33000000Y-9865000D03*
X33000000Y-9535000D03*
X34900000Y-9535000D03*
X34900000Y-9865000D03*
X36800000Y-9865000D03*
X36800000Y-9535000D03*
X39600000Y-9535000D03*
X39600000Y-9865000D03*
X42023750Y-9865000D03*
X42023750Y-9535000D03*
X43923750Y-9535000D03*
X43923750Y-9865000D03*
X45823750Y-9865000D03*
X45823750Y-9535000D03*
X47723750Y-9535000D03*
X47723750Y-9865000D03*
X6776250Y-11765000D03*
X6776250Y-11435000D03*
X8676250Y-11265000D03*
X8676250Y-11595000D03*
X11100000Y-11765000D03*
X11100000Y-11435000D03*
X13000000Y-11435000D03*
X13000000Y-11765000D03*
X14900000Y-11765000D03*
X14900000Y-11435000D03*
X16800000Y-11435000D03*
X16800000Y-11765000D03*
X18700000Y-11765000D03*
X18700000Y-11435000D03*
X20600000Y-11435000D03*
X20600000Y-11765000D03*
X22500000Y-11765000D03*
X22500000Y-11435000D03*
X24400000Y-11435000D03*
X24400000Y-11765000D03*
X26300000Y-11435000D03*
X26300000Y-11765000D03*
X28200000Y-11435000D03*
X28200000Y-11765000D03*
X30100000Y-11765000D03*
X30100000Y-11435000D03*
X32000000Y-11435000D03*
X32000000Y-11765000D03*
X33900000Y-11765000D03*
X33900000Y-11435000D03*
X36200000Y-11435000D03*
X36200000Y-11765000D03*
X38300000Y-11465000D03*
X38300000Y-11135000D03*
X39600000Y-11435000D03*
X39600000Y-11765000D03*
X42023750Y-11765000D03*
X42023750Y-11435000D03*
X43923750Y-11435000D03*
X43923750Y-11765000D03*
X45823750Y-11435000D03*
X45823750Y-11765000D03*
X47723750Y-11435000D03*
X47723750Y-11765000D03*
X6776250Y-13665000D03*
X6776250Y-13335000D03*
X8676250Y-13335000D03*
X8676250Y-13665000D03*
X11600000Y-13665000D03*
X11600000Y-13335000D03*
X13900000Y-13335000D03*
X13900000Y-13665000D03*
X15800000Y-13665000D03*
X15800000Y-13335000D03*
X17700000Y-13335000D03*
X17700000Y-13665000D03*
X19600000Y-13665000D03*
X19600000Y-13335000D03*
X21500000Y-13335000D03*
X21500000Y-13665000D03*
X23400000Y-13665000D03*
X23400000Y-13335000D03*
X25300000Y-13335000D03*
X25300000Y-13665000D03*
X27200000Y-13665000D03*
X27200000Y-13335000D03*
X29100000Y-13335000D03*
X29100000Y-13665000D03*
X31000000Y-13665000D03*
X31000000Y-13335000D03*
X34900000Y-13665000D03*
X34900000Y-13335000D03*
X37497000Y-13326000D03*
X37497000Y-13656000D03*
X39600000Y-13665000D03*
X39600000Y-13335000D03*
X42023750Y-13335000D03*
X42023750Y-13665000D03*
X43923750Y-13665000D03*
X43923750Y-13335000D03*
X45823750Y-13335000D03*
X45823750Y-13665000D03*
X48023750Y-13565000D03*
X48023750Y-13235000D03*
X6776250Y-15235000D03*
X6776250Y-15565000D03*
X8676250Y-15565000D03*
X8676250Y-15235000D03*
X14400000Y-15565000D03*
X14400000Y-15235000D03*
X16300000Y-15235000D03*
X16300000Y-15565000D03*
X18200000Y-15565000D03*
X18200000Y-15235000D03*
X20100000Y-15235000D03*
X20100000Y-15565000D03*
X22000000Y-15565000D03*
X22000000Y-15235000D03*
X23900000Y-15235000D03*
X23900000Y-15565000D03*
X25800000Y-15565000D03*
X25800000Y-15235000D03*
X27700000Y-15565000D03*
X27700000Y-15235000D03*
X29600000Y-15565000D03*
X29600000Y-15235000D03*
X31500000Y-15235000D03*
X31500000Y-15565000D03*
X33400000Y-15565000D03*
X33400000Y-15235000D03*
X36500000Y-15235000D03*
X36500000Y-15565000D03*
X39600000Y-15565000D03*
X39600000Y-15235000D03*
X42023750Y-15235000D03*
X42023750Y-15565000D03*
X43923750Y-15565000D03*
X43923750Y-15235000D03*
X45823750Y-15235000D03*
X45823750Y-15565000D03*
X47723750Y-15565000D03*
X47723750Y-15235000D03*
X6776250Y-17465000D03*
X6776250Y-17135000D03*
X8676250Y-17465000D03*
X8676250Y-17135000D03*
X11300000Y-17465000D03*
X11300000Y-17135000D03*
X12300000Y-17135000D03*
X12300000Y-17465000D03*
X15300000Y-17465000D03*
X15300000Y-17135000D03*
X17200000Y-17135000D03*
X17200000Y-17465000D03*
X19100000Y-17135000D03*
X19100000Y-17465000D03*
X21100000Y-17465000D03*
X21100000Y-17135000D03*
X22900000Y-17135000D03*
X22900000Y-17465000D03*
X24800000Y-17135000D03*
X24800000Y-17465000D03*
X26700000Y-17135000D03*
X26700000Y-17465000D03*
X28600000Y-17135000D03*
X28600000Y-17465000D03*
X30600000Y-17135000D03*
X30600000Y-17465000D03*
X32500000Y-17135000D03*
X32500000Y-17465000D03*
X35100000Y-17465000D03*
X35100000Y-17135000D03*
X37700000Y-17465000D03*
X37700000Y-17135000D03*
X39600000Y-17135000D03*
X39600000Y-17465000D03*
X42023750Y-17135000D03*
X42023750Y-17465000D03*
X43923750Y-17135000D03*
X43923750Y-17465000D03*
X45823750Y-17135000D03*
X45823750Y-17465000D03*
X47873750Y-17365000D03*
X47873750Y-17035000D03*
X6726250Y-19365000D03*
X6726250Y-19035000D03*
X8626250Y-19365000D03*
X8626250Y-19035000D03*
X11500000Y-19035000D03*
X11500000Y-19365000D03*
X16300000Y-19035000D03*
X16300000Y-19365000D03*
X20600000Y-19365000D03*
X20600000Y-19035000D03*
X25000000Y-19365000D03*
X25000000Y-19035000D03*
X28800000Y-19365000D03*
X28800000Y-19035000D03*
X32500000Y-19035000D03*
X32500000Y-19365000D03*
X35800000Y-19365000D03*
X35800000Y-19035000D03*
X37700000Y-19365000D03*
X37700000Y-19035000D03*
X39600000Y-19365000D03*
X39600000Y-19035000D03*
X42923750Y-19365000D03*
X42923750Y-19035000D03*
X44523750Y-19365000D03*
X44523750Y-19035000D03*
X45823750Y-19035000D03*
X45823750Y-19365000D03*
X47723750Y-19365000D03*
X47723750Y-19035000D03*
D18*
X12119375Y-8126375D03*
D19*
X12464375Y-8126375D03*
X12384375Y-8126375D03*
X11904375Y-8126375D03*
D20*
X11712375Y-8059875D03*
D21*
X11855375Y-8009875D03*
D20*
X12576375Y-8059875D03*
D22*
X11712375Y-7641875D03*
X12576375Y-7641875D03*
D19*
X11824375Y-8126375D03*
D21*
X12433375Y-8009875D03*
D18*
X12169375Y-8126375D03*
X12219375Y-8126375D03*
X12269375Y-8126375D03*
X12319375Y-8126375D03*
X12069375Y-8126375D03*
X12019375Y-8126375D03*
X11969375Y-8126375D03*
D13*
X6937375Y-9048750D03*
X5921375Y-9048750D03*
D10*
X6179375Y-8648750D03*
D12*
X6429375Y-9048750D03*
D10*
X6113875Y-8721750D03*
D11*
X6048375Y-8794750D02*
X6179375Y-8648750D01*
D10*
X6683375Y-8540750D03*
X6681375Y-8569750D03*
D11*
X6679375Y-8598750D02*
X6683375Y-8540750D01*
D13*
X8842375Y-9048750D03*
X7826375Y-9048750D03*
D10*
X8084375Y-8648750D03*
D12*
X8334375Y-9048750D03*
D10*
X8018875Y-8721750D03*
D11*
X7953375Y-8794750D02*
X8084375Y-8648750D01*
D10*
X8588375Y-8540750D03*
X8586375Y-8569750D03*
D11*
X8584375Y-8598750D02*
X8588375Y-8540750D01*
D13*
X14081125Y-9048750D03*
X13065125Y-9048750D03*
D10*
X13323125Y-8648750D03*
D12*
X13573125Y-9048750D03*
D10*
X13257625Y-8721750D03*
D11*
X13192125Y-8794750D02*
X13323125Y-8648750D01*
D10*
X13827125Y-8540750D03*
X13825125Y-8569750D03*
D11*
X13823125Y-8598750D02*
X13827125Y-8540750D01*
D13*
X15986125Y-9048750D03*
X14970125Y-9048750D03*
D10*
X15228125Y-8648750D03*
D12*
X15478125Y-9048750D03*
D10*
X15162625Y-8721750D03*
D11*
X15097125Y-8794750D02*
X15228125Y-8648750D01*
D10*
X15732125Y-8540750D03*
X15730125Y-8569750D03*
D11*
X15728125Y-8598750D02*
X15732125Y-8540750D01*
D10*
X17635125Y-8569750D03*
D11*
X17633125Y-8598750D02*
X17637125Y-8540750D01*
D10*
X17637125Y-8540750D03*
X17067625Y-8721750D03*
D11*
X17002125Y-8794750D02*
X17133125Y-8648750D01*
D12*
X17383125Y-9048750D03*
D10*
X17133125Y-8648750D03*
D13*
X16875125Y-9048750D03*
X17891125Y-9048750D03*
D10*
X19540125Y-8569750D03*
D11*
X19538125Y-8598750D02*
X19542125Y-8540750D01*
D10*
X19542125Y-8540750D03*
X18972625Y-8721750D03*
D11*
X18907125Y-8794750D02*
X19038125Y-8648750D01*
D12*
X19288125Y-9048750D03*
D10*
X19038125Y-8648750D03*
D13*
X18780125Y-9048750D03*
X19796125Y-9048750D03*
X22653625Y-9048750D03*
X21637625Y-9048750D03*
D10*
X21895625Y-8648750D03*
D12*
X22145625Y-9048750D03*
D10*
X21830125Y-8721750D03*
D11*
X21764625Y-8794750D02*
X21895625Y-8648750D01*
D10*
X22399625Y-8540750D03*
X22397625Y-8569750D03*
D11*
X22395625Y-8598750D02*
X22399625Y-8540750D01*
D10*
X24302625Y-8569750D03*
D11*
X24300625Y-8598750D02*
X24304625Y-8540750D01*
D10*
X24304625Y-8540750D03*
X23735125Y-8721750D03*
D11*
X23669625Y-8794750D02*
X23800625Y-8648750D01*
D12*
X24050625Y-9048750D03*
D10*
X23800625Y-8648750D03*
D13*
X23542625Y-9048750D03*
X24558625Y-9048750D03*
X28368625Y-9048750D03*
X27352625Y-9048750D03*
D10*
X27610625Y-8648750D03*
D12*
X27860625Y-9048750D03*
D10*
X27545125Y-8721750D03*
D11*
X27479625Y-8794750D02*
X27610625Y-8648750D01*
D10*
X28114625Y-8540750D03*
X28112625Y-8569750D03*
D11*
X28110625Y-8598750D02*
X28114625Y-8540750D01*
D10*
X30970125Y-8569750D03*
D11*
X30968125Y-8598750D02*
X30972125Y-8540750D01*
D10*
X30972125Y-8540750D03*
X30402625Y-8721750D03*
D11*
X30337125Y-8794750D02*
X30468125Y-8648750D01*
D12*
X30718125Y-9048750D03*
D10*
X30468125Y-8648750D03*
D13*
X30210125Y-9048750D03*
X31226125Y-9048750D03*
X33131125Y-9048750D03*
X32115125Y-9048750D03*
D10*
X32373125Y-8648750D03*
D12*
X32623125Y-9048750D03*
D10*
X32307625Y-8721750D03*
D11*
X32242125Y-8794750D02*
X32373125Y-8648750D01*
D10*
X32877125Y-8540750D03*
X32875125Y-8569750D03*
D11*
X32873125Y-8598750D02*
X32877125Y-8540750D01*
D10*
X34780125Y-8569750D03*
D11*
X34778125Y-8598750D02*
X34782125Y-8540750D01*
D10*
X34782125Y-8540750D03*
X34212625Y-8721750D03*
D11*
X34147125Y-8794750D02*
X34278125Y-8648750D01*
D12*
X34528125Y-9048750D03*
D10*
X34278125Y-8648750D03*
D13*
X34020125Y-9048750D03*
X35036125Y-9048750D03*
D10*
X36685125Y-8569750D03*
D11*
X36683125Y-8598750D02*
X36687125Y-8540750D01*
D10*
X36687125Y-8540750D03*
X36117625Y-8721750D03*
D11*
X36052125Y-8794750D02*
X36183125Y-8648750D01*
D12*
X36433125Y-9048750D03*
D10*
X36183125Y-8648750D03*
D13*
X35925125Y-9048750D03*
X36941125Y-9048750D03*
X39798625Y-9048750D03*
X38782625Y-9048750D03*
D10*
X39040625Y-8648750D03*
D12*
X39290625Y-9048750D03*
D10*
X38975125Y-8721750D03*
D11*
X38909625Y-8794750D02*
X39040625Y-8648750D01*
D10*
X39544625Y-8540750D03*
X39542625Y-8569750D03*
D11*
X39540625Y-8598750D02*
X39544625Y-8540750D01*
D13*
X42179875Y-9048750D03*
X41163875Y-9048750D03*
D10*
X41421875Y-8648750D03*
D12*
X41671875Y-9048750D03*
D10*
X41356375Y-8721750D03*
D11*
X41290875Y-8794750D02*
X41421875Y-8648750D01*
D10*
X41925875Y-8540750D03*
X41923875Y-8569750D03*
D11*
X41921875Y-8598750D02*
X41925875Y-8540750D01*
D13*
X44084875Y-9048750D03*
X43068875Y-9048750D03*
D10*
X43326875Y-8648750D03*
D12*
X43576875Y-9048750D03*
D10*
X43261375Y-8721750D03*
D11*
X43195875Y-8794750D02*
X43326875Y-8648750D01*
D10*
X43830875Y-8540750D03*
X43828875Y-8569750D03*
D11*
X43826875Y-8598750D02*
X43830875Y-8540750D01*
D10*
X45733875Y-8569750D03*
D11*
X45731875Y-8598750D02*
X45735875Y-8540750D01*
D10*
X45735875Y-8540750D03*
X45166375Y-8721750D03*
D11*
X45100875Y-8794750D02*
X45231875Y-8648750D01*
D12*
X45481875Y-9048750D03*
D10*
X45231875Y-8648750D03*
D13*
X44973875Y-9048750D03*
X45989875Y-9048750D03*
D10*
X47638875Y-8569750D03*
D11*
X47636875Y-8598750D02*
X47640875Y-8540750D01*
D10*
X47640875Y-8540750D03*
X47071375Y-8721750D03*
D11*
X47005875Y-8794750D02*
X47136875Y-8648750D01*
D12*
X47386875Y-9048750D03*
D10*
X47136875Y-8648750D03*
D13*
X46878875Y-9048750D03*
X47894875Y-9048750D03*
D10*
X6681375Y-10474750D03*
D11*
X6679375Y-10503750D02*
X6683375Y-10445750D01*
D10*
X6683375Y-10445750D03*
X6113875Y-10626750D03*
D11*
X6048375Y-10699750D02*
X6179375Y-10553750D01*
D12*
X6429375Y-10953750D03*
D10*
X6179375Y-10553750D03*
D13*
X5921375Y-10953750D03*
X6937375Y-10953750D03*
X8842375Y-10953750D03*
X7826375Y-10953750D03*
D10*
X8084375Y-10553750D03*
D12*
X8334375Y-10953750D03*
D10*
X8018875Y-10626750D03*
D11*
X7953375Y-10699750D02*
X8084375Y-10553750D01*
D10*
X8588375Y-10445750D03*
X8586375Y-10474750D03*
D11*
X8584375Y-10503750D02*
X8588375Y-10445750D01*
D10*
X10967625Y-10474750D03*
D11*
X10965625Y-10503750D02*
X10969625Y-10445750D01*
D10*
X10969625Y-10445750D03*
X10400125Y-10626750D03*
D11*
X10334625Y-10699750D02*
X10465625Y-10553750D01*
D12*
X10715625Y-10953750D03*
D10*
X10465625Y-10553750D03*
D13*
X10207625Y-10953750D03*
X11223625Y-10953750D03*
X13128625Y-10953750D03*
X12112625Y-10953750D03*
D10*
X12370625Y-10553750D03*
D12*
X12620625Y-10953750D03*
D10*
X12305125Y-10626750D03*
D11*
X12239625Y-10699750D02*
X12370625Y-10553750D01*
D10*
X12874625Y-10445750D03*
X12872625Y-10474750D03*
D11*
X12870625Y-10503750D02*
X12874625Y-10445750D01*
D13*
X15033625Y-10953750D03*
X14017625Y-10953750D03*
D10*
X14275625Y-10553750D03*
D12*
X14525625Y-10953750D03*
D10*
X14210125Y-10626750D03*
D11*
X14144625Y-10699750D02*
X14275625Y-10553750D01*
D10*
X14779625Y-10445750D03*
X14777625Y-10474750D03*
D11*
X14775625Y-10503750D02*
X14779625Y-10445750D01*
D10*
X16682625Y-10474750D03*
D11*
X16680625Y-10503750D02*
X16684625Y-10445750D01*
D10*
X16684625Y-10445750D03*
X16115125Y-10626750D03*
D11*
X16049625Y-10699750D02*
X16180625Y-10553750D01*
D12*
X16430625Y-10953750D03*
D10*
X16180625Y-10553750D03*
D13*
X15922625Y-10953750D03*
X16938625Y-10953750D03*
D10*
X18587625Y-10474750D03*
D11*
X18585625Y-10503750D02*
X18589625Y-10445750D01*
D10*
X18589625Y-10445750D03*
X18020125Y-10626750D03*
D11*
X17954625Y-10699750D02*
X18085625Y-10553750D01*
D12*
X18335625Y-10953750D03*
D10*
X18085625Y-10553750D03*
D13*
X17827625Y-10953750D03*
X18843625Y-10953750D03*
X20748625Y-10953750D03*
X19732625Y-10953750D03*
D10*
X19990625Y-10553750D03*
D12*
X20240625Y-10953750D03*
D10*
X19925125Y-10626750D03*
D11*
X19859625Y-10699750D02*
X19990625Y-10553750D01*
D10*
X20494625Y-10445750D03*
X20492625Y-10474750D03*
D11*
X20490625Y-10503750D02*
X20494625Y-10445750D01*
D10*
X22397625Y-10474750D03*
D11*
X22395625Y-10503750D02*
X22399625Y-10445750D01*
D10*
X22399625Y-10445750D03*
X21830125Y-10626750D03*
D11*
X21764625Y-10699750D02*
X21895625Y-10553750D01*
D12*
X22145625Y-10953750D03*
D10*
X21895625Y-10553750D03*
D13*
X21637625Y-10953750D03*
X22653625Y-10953750D03*
X24558625Y-10953750D03*
X23542625Y-10953750D03*
D10*
X23800625Y-10553750D03*
D12*
X24050625Y-10953750D03*
D10*
X23735125Y-10626750D03*
D11*
X23669625Y-10699750D02*
X23800625Y-10553750D01*
D10*
X24304625Y-10445750D03*
X24302625Y-10474750D03*
D11*
X24300625Y-10503750D02*
X24304625Y-10445750D01*
D10*
X28112625Y-10474750D03*
D11*
X28110625Y-10503750D02*
X28114625Y-10445750D01*
D10*
X28114625Y-10445750D03*
X27545125Y-10626750D03*
D11*
X27479625Y-10699750D02*
X27610625Y-10553750D01*
D12*
X27860625Y-10953750D03*
D10*
X27610625Y-10553750D03*
D13*
X27352625Y-10953750D03*
X28368625Y-10953750D03*
D10*
X31922625Y-10474750D03*
D11*
X31920625Y-10503750D02*
X31924625Y-10445750D01*
D10*
X31924625Y-10445750D03*
X31355125Y-10626750D03*
D11*
X31289625Y-10699750D02*
X31420625Y-10553750D01*
D12*
X31670625Y-10953750D03*
D10*
X31420625Y-10553750D03*
D13*
X31162625Y-10953750D03*
X32178625Y-10953750D03*
X34083625Y-10953750D03*
X33067625Y-10953750D03*
D10*
X33325625Y-10553750D03*
D12*
X33575625Y-10953750D03*
D10*
X33260125Y-10626750D03*
D11*
X33194625Y-10699750D02*
X33325625Y-10553750D01*
D10*
X33829625Y-10445750D03*
X33827625Y-10474750D03*
D11*
X33825625Y-10503750D02*
X33829625Y-10445750D01*
D13*
X35988625Y-10953750D03*
X34972625Y-10953750D03*
D10*
X35230625Y-10553750D03*
D12*
X35480625Y-10953750D03*
D10*
X35165125Y-10626750D03*
D11*
X35099625Y-10699750D02*
X35230625Y-10553750D01*
D10*
X35734625Y-10445750D03*
X35732625Y-10474750D03*
D11*
X35730625Y-10503750D02*
X35734625Y-10445750D01*
D13*
X37893625Y-10953750D03*
X36877625Y-10953750D03*
D10*
X37135625Y-10553750D03*
D12*
X37385625Y-10953750D03*
D10*
X37070125Y-10626750D03*
D11*
X37004625Y-10699750D02*
X37135625Y-10553750D01*
D10*
X37639625Y-10445750D03*
X37637625Y-10474750D03*
D11*
X37635625Y-10503750D02*
X37639625Y-10445750D01*
D10*
X41923875Y-10474750D03*
D11*
X41921875Y-10503750D02*
X41925875Y-10445750D01*
D10*
X41925875Y-10445750D03*
X41356375Y-10626750D03*
D11*
X41290875Y-10699750D02*
X41421875Y-10553750D01*
D12*
X41671875Y-10953750D03*
D10*
X41421875Y-10553750D03*
D13*
X41163875Y-10953750D03*
X42179875Y-10953750D03*
X44084875Y-10953750D03*
X43068875Y-10953750D03*
D10*
X43326875Y-10553750D03*
D12*
X43576875Y-10953750D03*
D10*
X43261375Y-10626750D03*
D11*
X43195875Y-10699750D02*
X43326875Y-10553750D01*
D10*
X43830875Y-10445750D03*
X43828875Y-10474750D03*
D11*
X43826875Y-10503750D02*
X43830875Y-10445750D01*
D13*
X45989875Y-10953750D03*
X44973875Y-10953750D03*
D10*
X45231875Y-10553750D03*
D12*
X45481875Y-10953750D03*
D10*
X45166375Y-10626750D03*
D11*
X45100875Y-10699750D02*
X45231875Y-10553750D01*
D10*
X45735875Y-10445750D03*
X45733875Y-10474750D03*
D11*
X45731875Y-10503750D02*
X45735875Y-10445750D01*
D13*
X47894875Y-10953750D03*
X46878875Y-10953750D03*
D10*
X47136875Y-10553750D03*
D12*
X47386875Y-10953750D03*
D10*
X47071375Y-10626750D03*
D11*
X47005875Y-10699750D02*
X47136875Y-10553750D01*
D10*
X47640875Y-10445750D03*
X47638875Y-10474750D03*
D11*
X47636875Y-10503750D02*
X47640875Y-10445750D01*
D10*
X6681375Y-12379750D03*
D11*
X6679375Y-12408750D02*
X6683375Y-12350750D01*
D10*
X6683375Y-12350750D03*
X6113875Y-12531750D03*
D11*
X6048375Y-12604750D02*
X6179375Y-12458750D01*
D12*
X6429375Y-12858750D03*
D10*
X6179375Y-12458750D03*
D13*
X5921375Y-12858750D03*
X6937375Y-12858750D03*
X8842375Y-12858750D03*
X7826375Y-12858750D03*
D10*
X8084375Y-12458750D03*
D12*
X8334375Y-12858750D03*
D10*
X8018875Y-12531750D03*
D11*
X7953375Y-12604750D02*
X8084375Y-12458750D01*
D10*
X8588375Y-12350750D03*
X8586375Y-12379750D03*
D11*
X8584375Y-12408750D02*
X8588375Y-12350750D01*
D13*
X14081125Y-12858750D03*
X13065125Y-12858750D03*
D10*
X13323125Y-12458750D03*
D12*
X13573125Y-12858750D03*
D10*
X13257625Y-12531750D03*
D11*
X13192125Y-12604750D02*
X13323125Y-12458750D01*
D10*
X13827125Y-12350750D03*
X13825125Y-12379750D03*
D11*
X13823125Y-12408750D02*
X13827125Y-12350750D01*
D13*
X15986125Y-12858750D03*
X14970125Y-12858750D03*
D10*
X15228125Y-12458750D03*
D12*
X15478125Y-12858750D03*
D10*
X15162625Y-12531750D03*
D11*
X15097125Y-12604750D02*
X15228125Y-12458750D01*
D10*
X15732125Y-12350750D03*
X15730125Y-12379750D03*
D11*
X15728125Y-12408750D02*
X15732125Y-12350750D01*
D10*
X17635125Y-12379750D03*
D11*
X17633125Y-12408750D02*
X17637125Y-12350750D01*
D10*
X17637125Y-12350750D03*
X17067625Y-12531750D03*
D11*
X17002125Y-12604750D02*
X17133125Y-12458750D01*
D12*
X17383125Y-12858750D03*
D10*
X17133125Y-12458750D03*
D13*
X16875125Y-12858750D03*
X17891125Y-12858750D03*
D10*
X19540125Y-12379750D03*
D11*
X19538125Y-12408750D02*
X19542125Y-12350750D01*
D10*
X19542125Y-12350750D03*
X18972625Y-12531750D03*
D11*
X18907125Y-12604750D02*
X19038125Y-12458750D01*
D12*
X19288125Y-12858750D03*
D10*
X19038125Y-12458750D03*
D13*
X18780125Y-12858750D03*
X19796125Y-12858750D03*
X21701125Y-12858750D03*
X20685125Y-12858750D03*
D10*
X20943125Y-12458750D03*
D12*
X21193125Y-12858750D03*
D10*
X20877625Y-12531750D03*
D11*
X20812125Y-12604750D02*
X20943125Y-12458750D01*
D10*
X21447125Y-12350750D03*
X21445125Y-12379750D03*
D11*
X21443125Y-12408750D02*
X21447125Y-12350750D01*
D13*
X23606125Y-12858750D03*
X22590125Y-12858750D03*
D10*
X22848125Y-12458750D03*
D12*
X23098125Y-12858750D03*
D10*
X22782625Y-12531750D03*
D11*
X22717125Y-12604750D02*
X22848125Y-12458750D01*
D10*
X23352125Y-12350750D03*
X23350125Y-12379750D03*
D11*
X23348125Y-12408750D02*
X23352125Y-12350750D01*
D13*
X25511125Y-12858750D03*
X24495125Y-12858750D03*
D10*
X24753125Y-12458750D03*
D12*
X25003125Y-12858750D03*
D10*
X24687625Y-12531750D03*
D11*
X24622125Y-12604750D02*
X24753125Y-12458750D01*
D10*
X25257125Y-12350750D03*
X25255125Y-12379750D03*
D11*
X25253125Y-12408750D02*
X25257125Y-12350750D01*
D10*
X27160125Y-12379750D03*
D11*
X27158125Y-12408750D02*
X27162125Y-12350750D01*
D10*
X27162125Y-12350750D03*
X26592625Y-12531750D03*
D11*
X26527125Y-12604750D02*
X26658125Y-12458750D01*
D12*
X26908125Y-12858750D03*
D10*
X26658125Y-12458750D03*
D13*
X26400125Y-12858750D03*
X27416125Y-12858750D03*
D10*
X29065125Y-12379750D03*
D11*
X29063125Y-12408750D02*
X29067125Y-12350750D01*
D10*
X29067125Y-12350750D03*
X28497625Y-12531750D03*
D11*
X28432125Y-12604750D02*
X28563125Y-12458750D01*
D12*
X28813125Y-12858750D03*
D10*
X28563125Y-12458750D03*
D13*
X28305125Y-12858750D03*
X29321125Y-12858750D03*
X31226125Y-12858750D03*
X30210125Y-12858750D03*
D10*
X30468125Y-12458750D03*
D12*
X30718125Y-12858750D03*
D10*
X30402625Y-12531750D03*
D11*
X30337125Y-12604750D02*
X30468125Y-12458750D01*
D10*
X30972125Y-12350750D03*
X30970125Y-12379750D03*
D11*
X30968125Y-12408750D02*
X30972125Y-12350750D01*
D13*
X33131125Y-12858750D03*
X32115125Y-12858750D03*
D10*
X32373125Y-12458750D03*
D12*
X32623125Y-12858750D03*
D10*
X32307625Y-12531750D03*
D11*
X32242125Y-12604750D02*
X32373125Y-12458750D01*
D10*
X32877125Y-12350750D03*
X32875125Y-12379750D03*
D11*
X32873125Y-12408750D02*
X32877125Y-12350750D01*
D10*
X34780125Y-12379750D03*
D11*
X34778125Y-12408750D02*
X34782125Y-12350750D01*
D10*
X34782125Y-12350750D03*
X34212625Y-12531750D03*
D11*
X34147125Y-12604750D02*
X34278125Y-12458750D01*
D12*
X34528125Y-12858750D03*
D10*
X34278125Y-12458750D03*
D13*
X34020125Y-12858750D03*
X35036125Y-12858750D03*
D10*
X37161375Y-12379750D03*
D11*
X37159375Y-12408750D02*
X37163375Y-12350750D01*
D10*
X37163375Y-12350750D03*
X36593875Y-12531750D03*
D11*
X36528375Y-12604750D02*
X36659375Y-12458750D01*
D12*
X36909375Y-12858750D03*
D10*
X36659375Y-12458750D03*
D13*
X36401375Y-12858750D03*
X37417375Y-12858750D03*
D10*
X39542625Y-12379750D03*
D11*
X39540625Y-12408750D02*
X39544625Y-12350750D01*
D10*
X39544625Y-12350750D03*
X38975125Y-12531750D03*
D11*
X38909625Y-12604750D02*
X39040625Y-12458750D01*
D12*
X39290625Y-12858750D03*
D10*
X39040625Y-12458750D03*
D13*
X38782625Y-12858750D03*
X39798625Y-12858750D03*
X42179875Y-12858750D03*
X41163875Y-12858750D03*
D10*
X41421875Y-12458750D03*
D12*
X41671875Y-12858750D03*
D10*
X41356375Y-12531750D03*
D11*
X41290875Y-12604750D02*
X41421875Y-12458750D01*
D10*
X41925875Y-12350750D03*
X41923875Y-12379750D03*
D11*
X41921875Y-12408750D02*
X41925875Y-12350750D01*
D13*
X44084875Y-12858750D03*
X43068875Y-12858750D03*
D10*
X43326875Y-12458750D03*
D12*
X43576875Y-12858750D03*
D10*
X43261375Y-12531750D03*
D11*
X43195875Y-12604750D02*
X43326875Y-12458750D01*
D10*
X43830875Y-12350750D03*
X43828875Y-12379750D03*
D11*
X43826875Y-12408750D02*
X43830875Y-12350750D01*
D10*
X45733875Y-12379750D03*
D11*
X45731875Y-12408750D02*
X45735875Y-12350750D01*
D10*
X45735875Y-12350750D03*
X45166375Y-12531750D03*
D11*
X45100875Y-12604750D02*
X45231875Y-12458750D01*
D12*
X45481875Y-12858750D03*
D10*
X45231875Y-12458750D03*
D13*
X44973875Y-12858750D03*
X45989875Y-12858750D03*
X47894875Y-12858750D03*
X46878875Y-12858750D03*
D10*
X47136875Y-12458750D03*
D12*
X47386875Y-12858750D03*
D10*
X47071375Y-12531750D03*
D11*
X47005875Y-12604750D02*
X47136875Y-12458750D01*
D10*
X47640875Y-12350750D03*
X47638875Y-12379750D03*
D11*
X47636875Y-12408750D02*
X47640875Y-12350750D01*
D12*
X46561375Y-12617450D03*
X46561375Y-15005050D03*
D17*
X48085375Y-12617450D03*
X48085375Y-15005050D03*
D13*
X47386875Y-13303250D03*
X47386875Y-14319250D03*
D10*
X46986875Y-14061250D03*
D12*
X47386875Y-13811250D03*
D10*
X47059875Y-14126750D03*
D11*
X47132875Y-14192250D02*
X46986875Y-14061250D01*
D10*
X46878875Y-13557250D03*
X46907875Y-13559250D03*
D11*
X46936875Y-13561250D02*
X46878875Y-13557250D01*
D13*
X6937375Y-14763750D03*
X5921375Y-14763750D03*
D10*
X6179375Y-14363750D03*
D12*
X6429375Y-14763750D03*
D10*
X6113875Y-14436750D03*
D11*
X6048375Y-14509750D02*
X6179375Y-14363750D01*
D10*
X6683375Y-14255750D03*
X6681375Y-14284750D03*
D11*
X6679375Y-14313750D02*
X6683375Y-14255750D01*
D10*
X14301375Y-14284750D03*
D11*
X14299375Y-14313750D02*
X14303375Y-14255750D01*
D10*
X14303375Y-14255750D03*
X13733875Y-14436750D03*
D11*
X13668375Y-14509750D02*
X13799375Y-14363750D01*
D12*
X14049375Y-14763750D03*
D10*
X13799375Y-14363750D03*
D13*
X13541375Y-14763750D03*
X14557375Y-14763750D03*
X16462375Y-14763750D03*
X15446375Y-14763750D03*
D10*
X15704375Y-14363750D03*
D12*
X15954375Y-14763750D03*
D10*
X15638875Y-14436750D03*
D11*
X15573375Y-14509750D02*
X15704375Y-14363750D01*
D10*
X16208375Y-14255750D03*
X16206375Y-14284750D03*
D11*
X16204375Y-14313750D02*
X16208375Y-14255750D01*
D13*
X18367375Y-14763750D03*
X17351375Y-14763750D03*
D10*
X17609375Y-14363750D03*
D12*
X17859375Y-14763750D03*
D10*
X17543875Y-14436750D03*
D11*
X17478375Y-14509750D02*
X17609375Y-14363750D01*
D10*
X18113375Y-14255750D03*
X18111375Y-14284750D03*
D11*
X18109375Y-14313750D02*
X18113375Y-14255750D01*
D10*
X20016375Y-14284750D03*
D11*
X20014375Y-14313750D02*
X20018375Y-14255750D01*
D10*
X20018375Y-14255750D03*
X19448875Y-14436750D03*
D11*
X19383375Y-14509750D02*
X19514375Y-14363750D01*
D12*
X19764375Y-14763750D03*
D10*
X19514375Y-14363750D03*
D13*
X19256375Y-14763750D03*
X20272375Y-14763750D03*
X22177375Y-14763750D03*
X21161375Y-14763750D03*
D10*
X21419375Y-14363750D03*
D12*
X21669375Y-14763750D03*
D10*
X21353875Y-14436750D03*
D11*
X21288375Y-14509750D02*
X21419375Y-14363750D01*
D10*
X21923375Y-14255750D03*
X21921375Y-14284750D03*
D11*
X21919375Y-14313750D02*
X21923375Y-14255750D01*
D13*
X24082375Y-14763750D03*
X23066375Y-14763750D03*
D10*
X23324375Y-14363750D03*
D12*
X23574375Y-14763750D03*
D10*
X23258875Y-14436750D03*
D11*
X23193375Y-14509750D02*
X23324375Y-14363750D01*
D10*
X23828375Y-14255750D03*
X23826375Y-14284750D03*
D11*
X23824375Y-14313750D02*
X23828375Y-14255750D01*
D13*
X25987375Y-14763750D03*
X24971375Y-14763750D03*
D10*
X25229375Y-14363750D03*
D12*
X25479375Y-14763750D03*
D10*
X25163875Y-14436750D03*
D11*
X25098375Y-14509750D02*
X25229375Y-14363750D01*
D10*
X25733375Y-14255750D03*
X25731375Y-14284750D03*
D11*
X25729375Y-14313750D02*
X25733375Y-14255750D01*
D10*
X27636375Y-14284750D03*
D11*
X27634375Y-14313750D02*
X27638375Y-14255750D01*
D10*
X27638375Y-14255750D03*
X27068875Y-14436750D03*
D11*
X27003375Y-14509750D02*
X27134375Y-14363750D01*
D12*
X27384375Y-14763750D03*
D10*
X27134375Y-14363750D03*
D13*
X26876375Y-14763750D03*
X27892375Y-14763750D03*
D10*
X29541375Y-14284750D03*
D11*
X29539375Y-14313750D02*
X29543375Y-14255750D01*
D10*
X29543375Y-14255750D03*
X28973875Y-14436750D03*
D11*
X28908375Y-14509750D02*
X29039375Y-14363750D01*
D12*
X29289375Y-14763750D03*
D10*
X29039375Y-14363750D03*
D13*
X28781375Y-14763750D03*
X29797375Y-14763750D03*
X31702375Y-14763750D03*
X30686375Y-14763750D03*
D10*
X30944375Y-14363750D03*
D12*
X31194375Y-14763750D03*
D10*
X30878875Y-14436750D03*
D11*
X30813375Y-14509750D02*
X30944375Y-14363750D01*
D10*
X31448375Y-14255750D03*
X31446375Y-14284750D03*
D11*
X31444375Y-14313750D02*
X31448375Y-14255750D01*
D10*
X33351375Y-14284750D03*
D11*
X33349375Y-14313750D02*
X33353375Y-14255750D01*
D10*
X33353375Y-14255750D03*
X32783875Y-14436750D03*
D11*
X32718375Y-14509750D02*
X32849375Y-14363750D01*
D12*
X33099375Y-14763750D03*
D10*
X32849375Y-14363750D03*
D13*
X32591375Y-14763750D03*
X33607375Y-14763750D03*
X39798625Y-14763750D03*
X38782625Y-14763750D03*
D10*
X39040625Y-14363750D03*
D12*
X39290625Y-14763750D03*
D10*
X38975125Y-14436750D03*
D11*
X38909625Y-14509750D02*
X39040625Y-14363750D01*
D10*
X39544625Y-14255750D03*
X39542625Y-14284750D03*
D11*
X39540625Y-14313750D02*
X39544625Y-14255750D01*
D10*
X41923875Y-14284750D03*
D11*
X41921875Y-14313750D02*
X41925875Y-14255750D01*
D10*
X41925875Y-14255750D03*
X41356375Y-14436750D03*
D11*
X41290875Y-14509750D02*
X41421875Y-14363750D01*
D12*
X41671875Y-14763750D03*
D10*
X41421875Y-14363750D03*
D13*
X41163875Y-14763750D03*
X42179875Y-14763750D03*
X44084875Y-14763750D03*
X43068875Y-14763750D03*
D10*
X43326875Y-14363750D03*
D12*
X43576875Y-14763750D03*
D10*
X43261375Y-14436750D03*
D11*
X43195875Y-14509750D02*
X43326875Y-14363750D01*
D10*
X43830875Y-14255750D03*
X43828875Y-14284750D03*
D11*
X43826875Y-14313750D02*
X43830875Y-14255750D01*
D10*
X45733875Y-14284750D03*
D11*
X45731875Y-14313750D02*
X45735875Y-14255750D01*
D10*
X45735875Y-14255750D03*
X45166375Y-14436750D03*
D11*
X45100875Y-14509750D02*
X45231875Y-14363750D01*
D12*
X45481875Y-14763750D03*
D10*
X45231875Y-14363750D03*
D13*
X44973875Y-14763750D03*
X45989875Y-14763750D03*
X47894875Y-14763750D03*
X46878875Y-14763750D03*
D10*
X47136875Y-14363750D03*
D12*
X47386875Y-14763750D03*
D10*
X47071375Y-14436750D03*
D11*
X47005875Y-14509750D02*
X47136875Y-14363750D01*
D10*
X47640875Y-14255750D03*
X47638875Y-14284750D03*
D11*
X47636875Y-14313750D02*
X47640875Y-14255750D01*
D10*
X6681375Y-16189750D03*
D11*
X6679375Y-16218750D02*
X6683375Y-16160750D01*
D10*
X6683375Y-16160750D03*
X6113875Y-16341750D03*
D11*
X6048375Y-16414750D02*
X6179375Y-16268750D01*
D12*
X6429375Y-16668750D03*
D10*
X6179375Y-16268750D03*
D13*
X5921375Y-16668750D03*
X6937375Y-16668750D03*
X8842375Y-16668750D03*
X7826375Y-16668750D03*
D10*
X8084375Y-16268750D03*
D12*
X8334375Y-16668750D03*
D10*
X8018875Y-16341750D03*
D11*
X7953375Y-16414750D02*
X8084375Y-16268750D01*
D10*
X8588375Y-16160750D03*
X8586375Y-16189750D03*
D11*
X8584375Y-16218750D02*
X8588375Y-16160750D01*
D10*
X11205750Y-16189750D03*
D11*
X11203750Y-16218750D02*
X11207750Y-16160750D01*
D10*
X11207750Y-16160750D03*
X10638250Y-16341750D03*
D11*
X10572750Y-16414750D02*
X10703750Y-16268750D01*
D12*
X10953750Y-16668750D03*
D10*
X10703750Y-16268750D03*
D13*
X10445750Y-16668750D03*
X11461750Y-16668750D03*
D10*
X12158250Y-16189750D03*
D11*
X12156250Y-16218750D02*
X12160250Y-16160750D01*
D10*
X12160250Y-16160750D03*
X11590750Y-16341750D03*
D11*
X11525250Y-16414750D02*
X11656250Y-16268750D01*
D12*
X11906250Y-16668750D03*
D10*
X11656250Y-16268750D03*
D13*
X11398250Y-16668750D03*
X12414250Y-16668750D03*
D17*
X10712450Y-15970250D03*
X13100050Y-15970250D03*
D12*
X10712450Y-17494250D03*
X13100050Y-17494250D03*
D10*
X17158875Y-16189750D03*
D11*
X17156875Y-16218750D02*
X17160875Y-16160750D01*
D10*
X17160875Y-16160750D03*
X16591375Y-16341750D03*
D11*
X16525875Y-16414750D02*
X16656875Y-16268750D01*
D12*
X16906875Y-16668750D03*
D10*
X16656875Y-16268750D03*
D13*
X16398875Y-16668750D03*
X17414875Y-16668750D03*
X19319875Y-16668750D03*
X18303875Y-16668750D03*
D10*
X18561875Y-16268750D03*
D12*
X18811875Y-16668750D03*
D10*
X18496375Y-16341750D03*
D11*
X18430875Y-16414750D02*
X18561875Y-16268750D01*
D10*
X19065875Y-16160750D03*
X19063875Y-16189750D03*
D11*
X19061875Y-16218750D02*
X19065875Y-16160750D01*
D10*
X20968875Y-16189750D03*
D11*
X20966875Y-16218750D02*
X20970875Y-16160750D01*
D10*
X20970875Y-16160750D03*
X20401375Y-16341750D03*
D11*
X20335875Y-16414750D02*
X20466875Y-16268750D01*
D12*
X20716875Y-16668750D03*
D10*
X20466875Y-16268750D03*
D13*
X20208875Y-16668750D03*
X21224875Y-16668750D03*
X23129875Y-16668750D03*
X22113875Y-16668750D03*
D10*
X22371875Y-16268750D03*
D12*
X22621875Y-16668750D03*
D10*
X22306375Y-16341750D03*
D11*
X22240875Y-16414750D02*
X22371875Y-16268750D01*
D10*
X22875875Y-16160750D03*
X22873875Y-16189750D03*
D11*
X22871875Y-16218750D02*
X22875875Y-16160750D01*
D10*
X24778875Y-16189750D03*
D11*
X24776875Y-16218750D02*
X24780875Y-16160750D01*
D10*
X24780875Y-16160750D03*
X24211375Y-16341750D03*
D11*
X24145875Y-16414750D02*
X24276875Y-16268750D01*
D12*
X24526875Y-16668750D03*
D10*
X24276875Y-16268750D03*
D13*
X24018875Y-16668750D03*
X25034875Y-16668750D03*
X26939875Y-16668750D03*
X25923875Y-16668750D03*
D10*
X26181875Y-16268750D03*
D12*
X26431875Y-16668750D03*
D10*
X26116375Y-16341750D03*
D11*
X26050875Y-16414750D02*
X26181875Y-16268750D01*
D10*
X26685875Y-16160750D03*
X26683875Y-16189750D03*
D11*
X26681875Y-16218750D02*
X26685875Y-16160750D01*
D10*
X28588875Y-16189750D03*
D11*
X28586875Y-16218750D02*
X28590875Y-16160750D01*
D10*
X28590875Y-16160750D03*
X28021375Y-16341750D03*
D11*
X27955875Y-16414750D02*
X28086875Y-16268750D01*
D12*
X28336875Y-16668750D03*
D10*
X28086875Y-16268750D03*
D13*
X27828875Y-16668750D03*
X28844875Y-16668750D03*
X30749875Y-16668750D03*
X29733875Y-16668750D03*
D10*
X29991875Y-16268750D03*
D12*
X30241875Y-16668750D03*
D10*
X29926375Y-16341750D03*
D11*
X29860875Y-16414750D02*
X29991875Y-16268750D01*
D10*
X30495875Y-16160750D03*
X30493875Y-16189750D03*
D11*
X30491875Y-16218750D02*
X30495875Y-16160750D01*
D13*
X32654875Y-16668750D03*
X31638875Y-16668750D03*
D10*
X31896875Y-16268750D03*
D12*
X32146875Y-16668750D03*
D10*
X31831375Y-16341750D03*
D11*
X31765875Y-16414750D02*
X31896875Y-16268750D01*
D10*
X32400875Y-16160750D03*
X32398875Y-16189750D03*
D11*
X32396875Y-16218750D02*
X32400875Y-16160750D01*
D10*
X35018250Y-16189750D03*
D11*
X35016250Y-16218750D02*
X35020250Y-16160750D01*
D10*
X35020250Y-16160750D03*
X34450750Y-16341750D03*
D11*
X34385250Y-16414750D02*
X34516250Y-16268750D01*
D12*
X34766250Y-16668750D03*
D10*
X34516250Y-16268750D03*
D13*
X34258250Y-16668750D03*
X35274250Y-16668750D03*
D10*
X37637625Y-16189750D03*
D11*
X37635625Y-16218750D02*
X37639625Y-16160750D01*
D10*
X37639625Y-16160750D03*
X37070125Y-16341750D03*
D11*
X37004625Y-16414750D02*
X37135625Y-16268750D01*
D12*
X37385625Y-16668750D03*
D10*
X37135625Y-16268750D03*
D13*
X36877625Y-16668750D03*
X37893625Y-16668750D03*
X39798625Y-16668750D03*
X38782625Y-16668750D03*
D10*
X39040625Y-16268750D03*
D12*
X39290625Y-16668750D03*
D10*
X38975125Y-16341750D03*
D11*
X38909625Y-16414750D02*
X39040625Y-16268750D01*
D10*
X39544625Y-16160750D03*
X39542625Y-16189750D03*
D11*
X39540625Y-16218750D02*
X39544625Y-16160750D01*
D10*
X41923875Y-16189750D03*
D11*
X41921875Y-16218750D02*
X41925875Y-16160750D01*
D10*
X41925875Y-16160750D03*
X41356375Y-16341750D03*
D11*
X41290875Y-16414750D02*
X41421875Y-16268750D01*
D12*
X41671875Y-16668750D03*
D10*
X41421875Y-16268750D03*
D13*
X41163875Y-16668750D03*
X42179875Y-16668750D03*
X44084875Y-16668750D03*
X43068875Y-16668750D03*
D10*
X43326875Y-16268750D03*
D12*
X43576875Y-16668750D03*
D10*
X43261375Y-16341750D03*
D11*
X43195875Y-16414750D02*
X43326875Y-16268750D01*
D10*
X43830875Y-16160750D03*
X43828875Y-16189750D03*
D11*
X43826875Y-16218750D02*
X43830875Y-16160750D01*
D10*
X45733875Y-16189750D03*
D11*
X45731875Y-16218750D02*
X45735875Y-16160750D01*
D10*
X45735875Y-16160750D03*
X45166375Y-16341750D03*
D11*
X45100875Y-16414750D02*
X45231875Y-16268750D01*
D12*
X45481875Y-16668750D03*
D10*
X45231875Y-16268750D03*
D13*
X44973875Y-16668750D03*
X45989875Y-16668750D03*
D10*
X47638875Y-16189750D03*
D11*
X47636875Y-16218750D02*
X47640875Y-16160750D01*
D10*
X47640875Y-16160750D03*
X47071375Y-16341750D03*
D11*
X47005875Y-16414750D02*
X47136875Y-16268750D01*
D12*
X47386875Y-16668750D03*
D10*
X47136875Y-16268750D03*
D13*
X46878875Y-16668750D03*
X47894875Y-16668750D03*
D10*
X13348875Y-16189750D03*
D11*
X13346875Y-16218750D02*
X13350875Y-16160750D01*
D10*
X13350875Y-16160750D03*
X12781375Y-16341750D03*
D11*
X12715875Y-16414750D02*
X12846875Y-16268750D01*
D12*
X13096875Y-16668750D03*
D10*
X12846875Y-16268750D03*
D13*
X12588875Y-16668750D03*
X13604875Y-16668750D03*
D10*
X46907875Y-17369250D03*
D11*
X46936875Y-17371250D02*
X46878875Y-17367250D01*
D10*
X46878875Y-17367250D03*
X47059875Y-17936750D03*
D11*
X47132875Y-18002250D02*
X46986875Y-17871250D01*
D12*
X47386875Y-17621250D03*
D10*
X46986875Y-17871250D03*
D13*
X47386875Y-18129250D03*
X47386875Y-17113250D03*
D17*
X48085375Y-18815050D03*
X48085375Y-16427450D03*
D12*
X46561375Y-18815050D03*
X46561375Y-16427450D03*
D10*
X24302625Y-18094750D03*
D11*
X24300625Y-18123750D02*
X24304625Y-18065750D01*
D10*
X24304625Y-18065750D03*
X23735125Y-18246750D03*
D11*
X23669625Y-18319750D02*
X23800625Y-18173750D01*
D12*
X24050625Y-18573750D03*
D10*
X23800625Y-18173750D03*
D13*
X23542625Y-18573750D03*
X24558625Y-18573750D03*
D17*
X18335625Y-17875250D03*
X29765625Y-17875250D03*
D12*
X18335625Y-19399250D03*
X29765625Y-19399250D03*
D13*
X6937375Y-18573750D03*
X5921375Y-18573750D03*
D10*
X6179375Y-18173750D03*
D12*
X6429375Y-18573750D03*
D10*
X6113875Y-18246750D03*
D11*
X6048375Y-18319750D02*
X6179375Y-18173750D01*
D10*
X6683375Y-18065750D03*
X6681375Y-18094750D03*
D11*
X6679375Y-18123750D02*
X6683375Y-18065750D01*
D13*
X8842375Y-18573750D03*
X7826375Y-18573750D03*
D10*
X8084375Y-18173750D03*
D12*
X8334375Y-18573750D03*
D10*
X8018875Y-18246750D03*
D11*
X7953375Y-18319750D02*
X8084375Y-18173750D01*
D10*
X8588375Y-18065750D03*
X8586375Y-18094750D03*
D11*
X8584375Y-18123750D02*
X8588375Y-18065750D01*
D10*
X11443875Y-18094750D03*
D11*
X11441875Y-18123750D02*
X11445875Y-18065750D01*
D10*
X11445875Y-18065750D03*
X10876375Y-18246750D03*
D11*
X10810875Y-18319750D02*
X10941875Y-18173750D01*
D12*
X11191875Y-18573750D03*
D10*
X10941875Y-18173750D03*
D13*
X10683875Y-18573750D03*
X11699875Y-18573750D03*
X16462375Y-18573750D03*
X15446375Y-18573750D03*
D10*
X15704375Y-18173750D03*
D12*
X15954375Y-18573750D03*
D10*
X15638875Y-18246750D03*
D11*
X15573375Y-18319750D02*
X15704375Y-18173750D01*
D10*
X16208375Y-18065750D03*
X16206375Y-18094750D03*
D11*
X16204375Y-18123750D02*
X16208375Y-18065750D01*
D10*
X20492625Y-18094750D03*
D11*
X20490625Y-18123750D02*
X20494625Y-18065750D01*
D10*
X20494625Y-18065750D03*
X19925125Y-18246750D03*
D11*
X19859625Y-18319750D02*
X19990625Y-18173750D01*
D12*
X20240625Y-18573750D03*
D10*
X19990625Y-18173750D03*
D13*
X19732625Y-18573750D03*
X20748625Y-18573750D03*
D17*
X18335625Y-17875250D03*
X22145625Y-17875250D03*
D12*
X18335625Y-19399250D03*
X22145625Y-19399250D03*
D10*
X26207625Y-18094750D03*
D11*
X26205625Y-18123750D02*
X26209625Y-18065750D01*
D10*
X26209625Y-18065750D03*
X25640125Y-18246750D03*
D11*
X25574625Y-18319750D02*
X25705625Y-18173750D01*
D12*
X25955625Y-18573750D03*
D10*
X25705625Y-18173750D03*
D13*
X25447625Y-18573750D03*
X26463625Y-18573750D03*
D17*
X24050625Y-17875250D03*
X27860625Y-17875250D03*
D12*
X24050625Y-19399250D03*
X27860625Y-19399250D03*
D10*
X30017625Y-18094750D03*
D11*
X30015625Y-18123750D02*
X30019625Y-18065750D01*
D10*
X30019625Y-18065750D03*
X29450125Y-18246750D03*
D11*
X29384625Y-18319750D02*
X29515625Y-18173750D01*
D12*
X29765625Y-18573750D03*
D10*
X29515625Y-18173750D03*
D13*
X29257625Y-18573750D03*
X30273625Y-18573750D03*
D10*
X32398875Y-18094750D03*
D11*
X32396875Y-18123750D02*
X32400875Y-18065750D01*
D10*
X32400875Y-18065750D03*
X31831375Y-18246750D03*
D11*
X31765875Y-18319750D02*
X31896875Y-18173750D01*
D12*
X32146875Y-18573750D03*
D10*
X31896875Y-18173750D03*
D13*
X31638875Y-18573750D03*
X32654875Y-18573750D03*
D10*
X35732625Y-18094750D03*
D11*
X35730625Y-18123750D02*
X35734625Y-18065750D01*
D10*
X35734625Y-18065750D03*
X35165125Y-18246750D03*
D11*
X35099625Y-18319750D02*
X35230625Y-18173750D01*
D12*
X35480625Y-18573750D03*
D10*
X35230625Y-18173750D03*
D13*
X34972625Y-18573750D03*
X35988625Y-18573750D03*
D10*
X37637625Y-18094750D03*
D11*
X37635625Y-18123750D02*
X37639625Y-18065750D01*
D10*
X37639625Y-18065750D03*
X37070125Y-18246750D03*
D11*
X37004625Y-18319750D02*
X37135625Y-18173750D01*
D12*
X37385625Y-18573750D03*
D10*
X37135625Y-18173750D03*
D13*
X36877625Y-18573750D03*
X37893625Y-18573750D03*
D10*
X39542625Y-18094750D03*
D11*
X39540625Y-18123750D02*
X39544625Y-18065750D01*
D10*
X39544625Y-18065750D03*
X38975125Y-18246750D03*
D11*
X38909625Y-18319750D02*
X39040625Y-18173750D01*
D12*
X39290625Y-18573750D03*
D10*
X39040625Y-18173750D03*
D13*
X38782625Y-18573750D03*
X39798625Y-18573750D03*
D10*
X41923875Y-18094750D03*
D11*
X41921875Y-18123750D02*
X41925875Y-18065750D01*
D10*
X41925875Y-18065750D03*
X41356375Y-18246750D03*
D11*
X41290875Y-18319750D02*
X41421875Y-18173750D01*
D12*
X41671875Y-18573750D03*
D10*
X41421875Y-18173750D03*
D13*
X41163875Y-18573750D03*
X42179875Y-18573750D03*
D10*
X43828875Y-18094750D03*
D11*
X43826875Y-18123750D02*
X43830875Y-18065750D01*
D10*
X43830875Y-18065750D03*
X43261375Y-18246750D03*
D11*
X43195875Y-18319750D02*
X43326875Y-18173750D01*
D12*
X43576875Y-18573750D03*
D10*
X43326875Y-18173750D03*
D13*
X43068875Y-18573750D03*
X44084875Y-18573750D03*
X45989875Y-18573750D03*
X44973875Y-18573750D03*
D10*
X45231875Y-18173750D03*
D12*
X45481875Y-18573750D03*
D10*
X45166375Y-18246750D03*
D11*
X45100875Y-18319750D02*
X45231875Y-18173750D01*
D10*
X45735875Y-18065750D03*
X45733875Y-18094750D03*
D11*
X45731875Y-18123750D02*
X45735875Y-18065750D01*
D10*
X47638875Y-18094750D03*
D11*
X47636875Y-18123750D02*
X47640875Y-18065750D01*
D10*
X47640875Y-18065750D03*
X47071375Y-18246750D03*
D11*
X47005875Y-18319750D02*
X47136875Y-18173750D01*
D12*
X47386875Y-18573750D03*
D10*
X47136875Y-18173750D03*
D13*
X46878875Y-18573750D03*
X47894875Y-18573750D03*
D17*
X27860625Y-17875250D03*
D12*
X27860625Y-19399250D03*
X29765625Y-19399250D03*
X25955625Y-19399250D03*
D17*
X29765625Y-17875250D03*
X25955625Y-17875250D03*
D13*
X28368625Y-18573750D03*
X27352625Y-18573750D03*
D10*
X27610625Y-18173750D03*
D12*
X27860625Y-18573750D03*
D10*
X27545125Y-18246750D03*
D11*
X27479625Y-18319750D02*
X27610625Y-18173750D01*
D10*
X28114625Y-18065750D03*
X28112625Y-18094750D03*
D11*
X28110625Y-18123750D02*
X28114625Y-18065750D01*
D10*
X42876375Y-18094750D03*
D11*
X42874375Y-18123750D02*
X42878375Y-18065750D01*
D10*
X42878375Y-18065750D03*
X42308875Y-18246750D03*
D11*
X42243375Y-18319750D02*
X42374375Y-18173750D01*
D12*
X42624375Y-18573750D03*
D10*
X42374375Y-18173750D03*
D13*
X42116375Y-18573750D03*
X43132375Y-18573750D03*
D17*
X41430575Y-17875250D03*
X43818175Y-17875250D03*
D12*
X41430575Y-19399250D03*
X43818175Y-19399250D03*
D23*
X27043000Y-10329000D03*
X27043000Y-10202000D03*
X26916000Y-10329000D03*
X26916000Y-10202000D03*
X26789000Y-10329000D03*
X26789000Y-10202000D03*
D24*
X27170000Y-10265500D03*
D25*
X26662000Y-10163900D03*
X26662000Y-10367100D03*
D26*
X24588000Y-8345000D03*
X24683000Y-8345000D03*
X24778000Y-8345000D03*
X24778000Y-8615000D03*
X24588000Y-8615000D03*
D12*
X35721925Y-11779250D03*
X33334325Y-11779250D03*
D17*
X35721925Y-10255250D03*
X33334325Y-10255250D03*
D13*
X35036125Y-10953750D03*
X34020125Y-10953750D03*
D10*
X34278125Y-10553750D03*
D12*
X34528125Y-10953750D03*
D10*
X34212625Y-10626750D03*
D11*
X34147125Y-10699750D02*
X34278125Y-10553750D01*
D10*
X34782125Y-10445750D03*
X34780125Y-10474750D03*
D11*
X34778125Y-10503750D02*
X34782125Y-10445750D01*
D10*
X36685125Y-10474750D03*
D11*
X36683125Y-10503750D02*
X36687125Y-10445750D01*
D10*
X36687125Y-10445750D03*
X36117625Y-10626750D03*
D11*
X36052125Y-10699750D02*
X36183125Y-10553750D01*
D12*
X36433125Y-10953750D03*
D10*
X36183125Y-10553750D03*
D13*
X35925125Y-10953750D03*
X36941125Y-10953750D03*
D17*
X35239325Y-10255250D03*
X37626925Y-10255250D03*
D12*
X35239325Y-11779250D03*
X37626925Y-11779250D03*
D27*
X24933792Y-10515894D03*
D28*
G36*
X24900204Y-10616656D02*
X24833029Y-10549481D01*
X24967379Y-10415131D01*
X25034554Y-10482306D01*
X24900204Y-10616656D01*
X24900204Y-10616656D01*
G37*
D27*
X24877223Y-10459325D03*
D28*
G36*
X24843636Y-10560088D02*
X24776461Y-10492913D01*
X24910811Y-10358562D01*
X24977986Y-10425737D01*
X24843636Y-10560088D01*
X24843636Y-10560088D01*
G37*
D27*
X24820655Y-10402757D03*
D28*
G36*
X24787067Y-10503519D02*
X24719892Y-10436344D01*
X24854242Y-10301994D01*
X24921417Y-10369169D01*
X24787067Y-10503519D01*
X24787067Y-10503519D01*
G37*
D27*
X24764086Y-10346188D03*
D28*
G36*
X24730499Y-10446951D02*
X24663323Y-10379776D01*
X24797674Y-10245425D01*
X24864849Y-10312600D01*
X24730499Y-10446951D01*
X24730499Y-10446951D01*
G37*
D27*
X24707518Y-10289619D03*
D28*
G36*
X24673930Y-10390382D02*
X24606755Y-10323207D01*
X24741105Y-10188857D01*
X24808280Y-10256032D01*
X24673930Y-10390382D01*
X24673930Y-10390382D01*
G37*
D27*
X24650949Y-10233051D03*
D28*
G36*
X24617361Y-10333814D02*
X24550186Y-10266639D01*
X24684537Y-10132288D01*
X24751712Y-10199463D01*
X24617361Y-10333814D01*
X24617361Y-10333814D01*
G37*
D27*
X24594381Y-10176482D03*
D28*
G36*
X24560793Y-10277245D02*
X24493618Y-10210070D01*
X24627968Y-10075720D01*
X24695143Y-10142895D01*
X24560793Y-10277245D01*
X24560793Y-10277245D01*
G37*
D27*
X24537812Y-10119914D03*
D28*
G36*
X24504224Y-10220677D02*
X24437049Y-10153501D01*
X24571400Y-10019151D01*
X24638575Y-10086326D01*
X24504224Y-10220677D01*
X24504224Y-10220677D01*
G37*
D27*
X24481243Y-10063345D03*
D28*
G36*
X24447656Y-10164108D02*
X24380481Y-10096933D01*
X24514831Y-9962583D01*
X24582006Y-10029758D01*
X24447656Y-10164108D01*
X24447656Y-10164108D01*
G37*
D27*
X24424675Y-10006777D03*
D28*
G36*
X24391087Y-10107539D02*
X24323912Y-10040364D01*
X24458263Y-9906014D01*
X24525438Y-9973189D01*
X24391087Y-10107539D01*
X24391087Y-10107539D01*
G37*
D27*
X24368106Y-9950208D03*
D28*
G36*
X24334519Y-10050971D02*
X24267344Y-9983796D01*
X24401694Y-9849446D01*
X24468869Y-9916621D01*
X24334519Y-10050971D01*
X24334519Y-10050971D01*
G37*
D27*
X24368106Y-9709792D03*
D28*
G36*
X24267344Y-9676204D02*
X24334519Y-9609029D01*
X24468869Y-9743379D01*
X24401694Y-9810555D01*
X24267344Y-9676204D01*
X24267344Y-9676204D01*
G37*
D27*
X24424675Y-9653223D03*
D28*
G36*
X24323912Y-9619636D02*
X24391087Y-9552461D01*
X24525438Y-9686811D01*
X24458263Y-9753986D01*
X24323912Y-9619636D01*
X24323912Y-9619636D01*
G37*
D27*
X24481243Y-9596655D03*
D28*
G36*
X24380481Y-9563067D02*
X24447656Y-9495892D01*
X24582006Y-9630242D01*
X24514831Y-9697418D01*
X24380481Y-9563067D01*
X24380481Y-9563067D01*
G37*
D27*
X24537812Y-9540086D03*
D28*
G36*
X24437049Y-9506499D02*
X24504224Y-9439324D01*
X24638575Y-9573674D01*
X24571400Y-9640849D01*
X24437049Y-9506499D01*
X24437049Y-9506499D01*
G37*
D27*
X24594381Y-9483518D03*
D28*
G36*
X24493618Y-9449930D02*
X24560793Y-9382755D01*
X24695143Y-9517105D01*
X24627968Y-9584280D01*
X24493618Y-9449930D01*
X24493618Y-9449930D01*
G37*
D27*
X24650949Y-9426949D03*
D28*
G36*
X24550186Y-9393362D02*
X24617361Y-9326186D01*
X24751712Y-9460537D01*
X24684537Y-9527712D01*
X24550186Y-9393362D01*
X24550186Y-9393362D01*
G37*
D27*
X24707518Y-9370381D03*
D28*
G36*
X24606755Y-9336793D02*
X24673930Y-9269618D01*
X24808280Y-9403968D01*
X24741105Y-9471143D01*
X24606755Y-9336793D01*
X24606755Y-9336793D01*
G37*
D27*
X24764086Y-9313812D03*
D28*
G36*
X24663323Y-9280224D02*
X24730499Y-9213049D01*
X24864849Y-9347400D01*
X24797674Y-9414575D01*
X24663323Y-9280224D01*
X24663323Y-9280224D01*
G37*
D27*
X24820655Y-9257244D03*
D28*
G36*
X24719892Y-9223656D02*
X24787067Y-9156481D01*
X24921417Y-9290831D01*
X24854242Y-9358006D01*
X24719892Y-9223656D01*
X24719892Y-9223656D01*
G37*
D27*
X24877223Y-9200675D03*
D28*
G36*
X24776461Y-9167087D02*
X24843636Y-9099912D01*
X24977986Y-9234263D01*
X24910811Y-9301438D01*
X24776461Y-9167087D01*
X24776461Y-9167087D01*
G37*
D27*
X24933792Y-9144106D03*
D28*
G36*
X24833029Y-9110519D02*
X24900204Y-9043344D01*
X25034554Y-9177694D01*
X24967379Y-9244869D01*
X24833029Y-9110519D01*
X24833029Y-9110519D01*
G37*
D27*
X25174208Y-9144106D03*
D28*
G36*
X25140621Y-9244869D02*
X25073445Y-9177694D01*
X25207796Y-9043344D01*
X25274971Y-9110519D01*
X25140621Y-9244869D01*
X25140621Y-9244869D01*
G37*
D27*
X25230777Y-9200675D03*
D28*
G36*
X25197189Y-9301438D02*
X25130014Y-9234263D01*
X25264364Y-9099912D01*
X25331539Y-9167087D01*
X25197189Y-9301438D01*
X25197189Y-9301438D01*
G37*
D27*
X25287345Y-9257244D03*
D28*
G36*
X25253758Y-9358006D02*
X25186582Y-9290831D01*
X25320933Y-9156481D01*
X25388108Y-9223656D01*
X25253758Y-9358006D01*
X25253758Y-9358006D01*
G37*
D27*
X25343914Y-9313812D03*
D28*
G36*
X25310326Y-9414575D02*
X25243151Y-9347400D01*
X25377501Y-9213049D01*
X25444676Y-9280224D01*
X25310326Y-9414575D01*
X25310326Y-9414575D01*
G37*
D27*
X25400482Y-9370381D03*
D28*
G36*
X25366895Y-9471143D02*
X25299720Y-9403968D01*
X25434070Y-9269618D01*
X25501245Y-9336793D01*
X25366895Y-9471143D01*
X25366895Y-9471143D01*
G37*
D27*
X25457051Y-9426949D03*
D28*
G36*
X25423463Y-9527712D02*
X25356288Y-9460537D01*
X25490638Y-9326186D01*
X25557814Y-9393362D01*
X25423463Y-9527712D01*
X25423463Y-9527712D01*
G37*
D27*
X25513619Y-9483518D03*
D28*
G36*
X25480032Y-9584280D02*
X25412857Y-9517105D01*
X25547207Y-9382755D01*
X25614382Y-9449930D01*
X25480032Y-9584280D01*
X25480032Y-9584280D01*
G37*
D27*
X25570188Y-9540086D03*
D28*
G36*
X25536600Y-9640849D02*
X25469425Y-9573674D01*
X25603776Y-9439324D01*
X25670951Y-9506499D01*
X25536600Y-9640849D01*
X25536600Y-9640849D01*
G37*
D27*
X25626756Y-9596655D03*
D28*
G36*
X25593169Y-9697418D02*
X25525994Y-9630242D01*
X25660344Y-9495892D01*
X25727519Y-9563067D01*
X25593169Y-9697418D01*
X25593169Y-9697418D01*
G37*
D27*
X25683325Y-9653223D03*
D28*
G36*
X25649737Y-9753986D02*
X25582562Y-9686811D01*
X25716913Y-9552461D01*
X25784088Y-9619636D01*
X25649737Y-9753986D01*
X25649737Y-9753986D01*
G37*
D27*
X25739894Y-9709792D03*
D28*
G36*
X25706306Y-9810555D02*
X25639131Y-9743379D01*
X25773481Y-9609029D01*
X25840656Y-9676204D01*
X25706306Y-9810555D01*
X25706306Y-9810555D01*
G37*
D27*
X25739894Y-9950208D03*
D28*
G36*
X25639131Y-9916621D02*
X25706306Y-9849446D01*
X25840656Y-9983796D01*
X25773481Y-10050971D01*
X25639131Y-9916621D01*
X25639131Y-9916621D01*
G37*
D27*
X25683325Y-10006777D03*
D28*
G36*
X25582562Y-9973189D02*
X25649737Y-9906014D01*
X25784088Y-10040364D01*
X25716913Y-10107539D01*
X25582562Y-9973189D01*
X25582562Y-9973189D01*
G37*
D27*
X25626756Y-10063345D03*
D28*
G36*
X25525994Y-10029758D02*
X25593169Y-9962583D01*
X25727519Y-10096933D01*
X25660344Y-10164108D01*
X25525994Y-10029758D01*
X25525994Y-10029758D01*
G37*
D27*
X25570188Y-10119914D03*
D28*
G36*
X25469425Y-10086326D02*
X25536600Y-10019151D01*
X25670951Y-10153501D01*
X25603776Y-10220677D01*
X25469425Y-10086326D01*
X25469425Y-10086326D01*
G37*
D27*
X25513619Y-10176482D03*
D28*
G36*
X25412857Y-10142895D02*
X25480032Y-10075720D01*
X25614382Y-10210070D01*
X25547207Y-10277245D01*
X25412857Y-10142895D01*
X25412857Y-10142895D01*
G37*
D27*
X25457051Y-10233051D03*
D28*
G36*
X25356288Y-10199463D02*
X25423463Y-10132288D01*
X25557814Y-10266639D01*
X25490638Y-10333814D01*
X25356288Y-10199463D01*
X25356288Y-10199463D01*
G37*
D27*
X25400482Y-10289619D03*
D28*
G36*
X25299720Y-10256032D02*
X25366895Y-10188857D01*
X25501245Y-10323207D01*
X25434070Y-10390382D01*
X25299720Y-10256032D01*
X25299720Y-10256032D01*
G37*
D27*
X25343914Y-10346188D03*
D28*
G36*
X25243151Y-10312600D02*
X25310326Y-10245425D01*
X25444676Y-10379776D01*
X25377501Y-10446951D01*
X25243151Y-10312600D01*
X25243151Y-10312600D01*
G37*
D27*
X25287345Y-10402757D03*
D28*
G36*
X25186582Y-10369169D02*
X25253758Y-10301994D01*
X25388108Y-10436344D01*
X25320933Y-10503519D01*
X25186582Y-10369169D01*
X25186582Y-10369169D01*
G37*
D27*
X25230777Y-10459325D03*
D28*
G36*
X25130014Y-10425737D02*
X25197189Y-10358562D01*
X25331539Y-10492913D01*
X25264364Y-10560088D01*
X25130014Y-10425737D01*
X25130014Y-10425737D01*
G37*
D27*
X25174208Y-10515894D03*
D28*
G36*
X25073445Y-10482306D02*
X25140621Y-10415131D01*
X25274971Y-10549481D01*
X25207796Y-10616656D01*
X25073445Y-10482306D01*
X25073445Y-10482306D01*
G37*
D15*
X40492000Y-14524000D03*
X40502000Y-18807000D03*
X40492000Y-16026000D03*
X40497000Y-13069000D03*
D16*
X13924000Y-19356000D03*
X13924000Y-19026000D03*
D10*
X13825125Y-18094750D03*
D11*
X13823125Y-18123750D02*
X13827125Y-18065750D01*
D10*
X13827125Y-18065750D03*
X13257625Y-18246750D03*
D11*
X13192125Y-18319750D02*
X13323125Y-18173750D01*
D12*
X13573125Y-18573750D03*
D10*
X13323125Y-18173750D03*
D13*
X13065125Y-18573750D03*
X14081125Y-18573750D03*
D29*
X12019375Y-8985625D03*
X12269375Y-8985625D03*
X12144375Y-8985625D03*
X12019375Y-8635625D03*
X12269375Y-8635625D03*
X12144375Y-8635625D03*
D30*
X12144375Y-8810625D03*
D29*
X20591875Y-8985625D03*
X20841875Y-8985625D03*
X20716875Y-8985625D03*
X20591875Y-8635625D03*
X20841875Y-8635625D03*
X20716875Y-8635625D03*
D30*
X20716875Y-8810625D03*
D29*
X29164375Y-8985625D03*
X29414375Y-8985625D03*
X29289375Y-8985625D03*
X29164375Y-8635625D03*
X29414375Y-8635625D03*
X29289375Y-8635625D03*
D30*
X29289375Y-8810625D03*
D29*
X37736875Y-8985625D03*
X37986875Y-8985625D03*
X37861875Y-8985625D03*
X37736875Y-8635625D03*
X37986875Y-8635625D03*
X37861875Y-8635625D03*
D30*
X37861875Y-8810625D03*
D29*
X33926875Y-18748750D03*
X34176875Y-18748750D03*
X34051875Y-18748750D03*
X33926875Y-18398750D03*
X34176875Y-18398750D03*
X34051875Y-18398750D03*
D30*
X34051875Y-18573750D03*
D29*
X17258125Y-18748750D03*
X17508125Y-18748750D03*
X17383125Y-18748750D03*
X17258125Y-18398750D03*
X17508125Y-18398750D03*
X17383125Y-18398750D03*
D30*
X17383125Y-18573750D03*
D29*
X7256875Y-15891250D03*
X7506875Y-15891250D03*
X7381875Y-15891250D03*
X7256875Y-15541250D03*
X7506875Y-15541250D03*
X7381875Y-15541250D03*
D30*
X7381875Y-15716250D03*
D29*
X7256875Y-12081250D03*
X7506875Y-12081250D03*
X7381875Y-12081250D03*
X7256875Y-11731250D03*
X7506875Y-11731250D03*
X7381875Y-11731250D03*
D30*
X7381875Y-11906250D03*
D29*
X42499375Y-12081250D03*
X42749375Y-12081250D03*
X42624375Y-12081250D03*
X42499375Y-11731250D03*
X42749375Y-11731250D03*
X42624375Y-11731250D03*
D30*
X42624375Y-11906250D03*
D29*
X46309375Y-12081250D03*
X46559375Y-12081250D03*
X46434375Y-12081250D03*
X46309375Y-11731250D03*
X46559375Y-11731250D03*
X46434375Y-11731250D03*
D30*
X46434375Y-11906250D03*
D29*
X44404375Y-15891250D03*
X44654375Y-15891250D03*
X44529375Y-15891250D03*
X44404375Y-15541250D03*
X44654375Y-15541250D03*
X44529375Y-15541250D03*
D30*
X44529375Y-15716250D03*
D29*
X25932000Y-13869000D03*
X26182000Y-13869000D03*
X26057000Y-13869000D03*
X25932000Y-13519000D03*
X26182000Y-13519000D03*
X26057000Y-13519000D03*
D30*
X26057000Y-13694000D03*
D29*
X38213125Y-13986250D03*
X38463125Y-13986250D03*
X38338125Y-13986250D03*
X38213125Y-13636250D03*
X38463125Y-13636250D03*
X38338125Y-13636250D03*
D30*
X38338125Y-13811250D03*
D29*
X12495625Y-13986250D03*
X12745625Y-13986250D03*
X12620625Y-13986250D03*
X12495625Y-13636250D03*
X12745625Y-13636250D03*
X12620625Y-13636250D03*
D30*
X12620625Y-13811250D03*
D31*
X44338875Y-8255000D03*
X44338875Y-8509000D03*
X44338875Y-8763000D03*
X44338875Y-9017000D03*
X44338875Y-9271000D03*
X44338875Y-9525000D03*
X44338875Y-9779000D03*
X44338875Y-10033000D03*
X44338875Y-10287000D03*
X44338875Y-10541000D03*
X44338875Y-10795000D03*
X44338875Y-11049000D03*
X42814875Y-11049000D03*
X42814875Y-10795000D03*
X42814875Y-10541000D03*
X42814875Y-10287000D03*
X42814875Y-10033000D03*
X42814875Y-9779000D03*
X42814875Y-9525000D03*
X42814875Y-9271000D03*
X42814875Y-9017000D03*
X42814875Y-8763000D03*
X42814875Y-8509000D03*
X42814875Y-8255000D03*
D13*
X11461796Y-18573828D03*
X10445796Y-18573828D03*
D10*
X10703796Y-18173828D03*
D12*
X10953796Y-18573828D03*
D10*
X10638296Y-18246828D03*
D11*
X10572796Y-18319828D02*
X10703796Y-18173828D01*
D10*
X11207796Y-18065828D03*
X11205796Y-18094828D03*
D11*
X11203796Y-18123828D02*
X11207796Y-18065828D01*
D10*
X13587056Y-18094828D03*
D11*
X13585056Y-18123828D02*
X13589056Y-18065828D01*
D10*
X13589056Y-18065828D03*
X13019556Y-18246828D03*
D11*
X12954056Y-18319828D02*
X13085056Y-18173828D01*
D12*
X13335056Y-18573828D03*
D10*
X13085056Y-18173828D03*
D13*
X12827056Y-18573828D03*
X13843056Y-18573828D03*
D10*
X15968316Y-18094828D03*
D11*
X15966316Y-18123828D02*
X15970316Y-18065828D01*
D10*
X15970316Y-18065828D03*
X15400816Y-18246828D03*
D11*
X15335316Y-18319828D02*
X15466316Y-18173828D01*
D12*
X15716316Y-18573828D03*
D10*
X15466316Y-18173828D03*
D13*
X15208316Y-18573828D03*
X16224316Y-18573828D03*
D10*
X23112096Y-18094828D03*
D11*
X23110096Y-18123828D02*
X23114096Y-18065828D01*
D10*
X23114096Y-18065828D03*
X22544596Y-18246828D03*
D11*
X22479096Y-18319828D02*
X22610096Y-18173828D01*
D12*
X22860096Y-18573828D03*
D10*
X22610096Y-18173828D03*
D13*
X22352096Y-18573828D03*
X23368096Y-18573828D03*
D17*
X17860106Y-17875328D03*
X27860086Y-17875328D03*
D12*
X17860106Y-19399328D03*
X27860086Y-19399328D03*
D13*
X30511876Y-18573828D03*
X29495876Y-18573828D03*
D10*
X29753876Y-18173828D03*
D12*
X30003876Y-18573828D03*
D10*
X29688376Y-18246828D03*
D11*
X29622876Y-18319828D02*
X29753876Y-18173828D01*
D10*
X30257876Y-18065828D03*
X30255876Y-18094828D03*
D11*
X30253876Y-18123828D02*
X30257876Y-18065828D01*
D10*
X32637136Y-18094828D03*
D11*
X32635136Y-18123828D02*
X32639136Y-18065828D01*
D10*
X32639136Y-18065828D03*
X32069636Y-18246828D03*
D11*
X32004136Y-18319828D02*
X32135136Y-18173828D01*
D12*
X32385136Y-18573828D03*
D10*
X32135136Y-18173828D03*
D13*
X31877136Y-18573828D03*
X32893136Y-18573828D03*
M02*
