G04 #@! TF.GenerationSoftware,KiCad,Pcbnew,(5.0.0-rc2-dev-733-g23a9fcd91)*
G04 #@! TF.CreationDate,2018-06-09T19:11:19-04:00*
G04 #@! TF.ProjectId,100plus-2,313030706C75732D322E6B696361645F,rev?*
G04 #@! TF.SameCoordinates,Original*
G04 #@! TF.FileFunction,Legend,Bot*
G04 #@! TF.FilePolarity,Positive*
%FSLAX45Y45*%
G04 Gerber Fmt 4.5, Leading zero omitted, Abs format (unit mm)*
G04 Created by KiCad (PCBNEW (5.0.0-rc2-dev-733-g23a9fcd91)) date 06/09/18 19:11:19*
%MOMM*%
%LPD*%
G01*
G04 APERTURE LIST*
%ADD10C,0.120000*%
%ADD11C,0.127000*%
%ADD12C,0.150000*%
G04 APERTURE END LIST*
D10*
X11800000Y-15625000D02*
X11800000Y-15235000D01*
X11600000Y-15625000D02*
X11600000Y-15235000D01*
X11800000Y-15625000D02*
X11600000Y-15625000D01*
X33000000Y-13725000D02*
X33000000Y-13335000D01*
X32800000Y-13725000D02*
X32800000Y-13335000D01*
X33000000Y-13725000D02*
X32800000Y-13725000D01*
X25118000Y-8737000D02*
X25118000Y-8347000D01*
X24918000Y-8737000D02*
X24918000Y-8347000D01*
X25118000Y-8737000D02*
X24918000Y-8737000D01*
X25382000Y-8736000D02*
X25382000Y-8346000D01*
X25182000Y-8736000D02*
X25182000Y-8346000D01*
X25382000Y-8736000D02*
X25182000Y-8736000D01*
X6876250Y-9925000D02*
X6676250Y-9925000D01*
X6676250Y-9925000D02*
X6676250Y-9535000D01*
X6876250Y-9925000D02*
X6876250Y-9535000D01*
X8776250Y-9925000D02*
X8776250Y-9535000D01*
X8576250Y-9925000D02*
X8576250Y-9535000D01*
X8776250Y-9925000D02*
X8576250Y-9925000D01*
X11100000Y-9925000D02*
X10900000Y-9925000D01*
X10900000Y-9925000D02*
X10900000Y-9535000D01*
X11100000Y-9925000D02*
X11100000Y-9535000D01*
X14000000Y-9925000D02*
X14000000Y-9535000D01*
X13800000Y-9925000D02*
X13800000Y-9535000D01*
X14000000Y-9925000D02*
X13800000Y-9925000D01*
X15900000Y-9925000D02*
X15700000Y-9925000D01*
X15700000Y-9925000D02*
X15700000Y-9535000D01*
X15900000Y-9925000D02*
X15900000Y-9535000D01*
X17800000Y-9925000D02*
X17800000Y-9535000D01*
X17600000Y-9925000D02*
X17600000Y-9535000D01*
X17800000Y-9925000D02*
X17600000Y-9925000D01*
X19700000Y-9925000D02*
X19500000Y-9925000D01*
X19500000Y-9925000D02*
X19500000Y-9535000D01*
X19700000Y-9925000D02*
X19700000Y-9535000D01*
X22600000Y-9925000D02*
X22600000Y-9535000D01*
X22400000Y-9925000D02*
X22400000Y-9535000D01*
X22600000Y-9925000D02*
X22400000Y-9925000D01*
X23273000Y-9922000D02*
X23073000Y-9922000D01*
X23073000Y-9922000D02*
X23073000Y-9532000D01*
X23273000Y-9922000D02*
X23273000Y-9532000D01*
X26400000Y-9925000D02*
X26200000Y-9925000D01*
X26200000Y-9925000D02*
X26200000Y-9535000D01*
X26400000Y-9925000D02*
X26400000Y-9535000D01*
X28300000Y-9925000D02*
X28100000Y-9925000D01*
X28100000Y-9925000D02*
X28100000Y-9535000D01*
X28300000Y-9925000D02*
X28300000Y-9535000D01*
X31200000Y-9925000D02*
X31200000Y-9535000D01*
X31000000Y-9925000D02*
X31000000Y-9535000D01*
X31200000Y-9925000D02*
X31000000Y-9925000D01*
X33100000Y-9925000D02*
X32900000Y-9925000D01*
X32900000Y-9925000D02*
X32900000Y-9535000D01*
X33100000Y-9925000D02*
X33100000Y-9535000D01*
X35000000Y-9925000D02*
X35000000Y-9535000D01*
X34800000Y-9925000D02*
X34800000Y-9535000D01*
X35000000Y-9925000D02*
X34800000Y-9925000D01*
X36900000Y-9925000D02*
X36700000Y-9925000D01*
X36700000Y-9925000D02*
X36700000Y-9535000D01*
X36900000Y-9925000D02*
X36900000Y-9535000D01*
X39700000Y-9925000D02*
X39700000Y-9535000D01*
X39500000Y-9925000D02*
X39500000Y-9535000D01*
X39700000Y-9925000D02*
X39500000Y-9925000D01*
X42123750Y-9925000D02*
X41923750Y-9925000D01*
X41923750Y-9925000D02*
X41923750Y-9535000D01*
X42123750Y-9925000D02*
X42123750Y-9535000D01*
X44023750Y-9925000D02*
X44023750Y-9535000D01*
X43823750Y-9925000D02*
X43823750Y-9535000D01*
X44023750Y-9925000D02*
X43823750Y-9925000D01*
X45923750Y-9925000D02*
X45723750Y-9925000D01*
X45723750Y-9925000D02*
X45723750Y-9535000D01*
X45923750Y-9925000D02*
X45923750Y-9535000D01*
X47823750Y-9925000D02*
X47823750Y-9535000D01*
X47623750Y-9925000D02*
X47623750Y-9535000D01*
X47823750Y-9925000D02*
X47623750Y-9925000D01*
X6876250Y-11825000D02*
X6676250Y-11825000D01*
X6676250Y-11825000D02*
X6676250Y-11435000D01*
X6876250Y-11825000D02*
X6876250Y-11435000D01*
X8776250Y-11655000D02*
X8776250Y-11265000D01*
X8576250Y-11655000D02*
X8576250Y-11265000D01*
X8776250Y-11655000D02*
X8576250Y-11655000D01*
X11200000Y-11825000D02*
X11000000Y-11825000D01*
X11000000Y-11825000D02*
X11000000Y-11435000D01*
X11200000Y-11825000D02*
X11200000Y-11435000D01*
X13100000Y-11825000D02*
X13100000Y-11435000D01*
X12900000Y-11825000D02*
X12900000Y-11435000D01*
X13100000Y-11825000D02*
X12900000Y-11825000D01*
X15000000Y-11825000D02*
X14800000Y-11825000D01*
X14800000Y-11825000D02*
X14800000Y-11435000D01*
X15000000Y-11825000D02*
X15000000Y-11435000D01*
X16900000Y-11825000D02*
X16900000Y-11435000D01*
X16700000Y-11825000D02*
X16700000Y-11435000D01*
X16900000Y-11825000D02*
X16700000Y-11825000D01*
X18800000Y-11825000D02*
X18600000Y-11825000D01*
X18600000Y-11825000D02*
X18600000Y-11435000D01*
X18800000Y-11825000D02*
X18800000Y-11435000D01*
X20700000Y-11825000D02*
X20700000Y-11435000D01*
X20500000Y-11825000D02*
X20500000Y-11435000D01*
X20700000Y-11825000D02*
X20500000Y-11825000D01*
X22600000Y-11825000D02*
X22400000Y-11825000D01*
X22400000Y-11825000D02*
X22400000Y-11435000D01*
X22600000Y-11825000D02*
X22600000Y-11435000D01*
X24500000Y-11825000D02*
X24500000Y-11435000D01*
X24300000Y-11825000D02*
X24300000Y-11435000D01*
X24500000Y-11825000D02*
X24300000Y-11825000D01*
X26400000Y-11825000D02*
X26400000Y-11435000D01*
X26200000Y-11825000D02*
X26200000Y-11435000D01*
X26400000Y-11825000D02*
X26200000Y-11825000D01*
X28300000Y-11825000D02*
X28300000Y-11435000D01*
X28100000Y-11825000D02*
X28100000Y-11435000D01*
X28300000Y-11825000D02*
X28100000Y-11825000D01*
X30200000Y-11825000D02*
X30000000Y-11825000D01*
X30000000Y-11825000D02*
X30000000Y-11435000D01*
X30200000Y-11825000D02*
X30200000Y-11435000D01*
X32100000Y-11825000D02*
X32100000Y-11435000D01*
X31900000Y-11825000D02*
X31900000Y-11435000D01*
X32100000Y-11825000D02*
X31900000Y-11825000D01*
X34000000Y-11825000D02*
X33800000Y-11825000D01*
X33800000Y-11825000D02*
X33800000Y-11435000D01*
X34000000Y-11825000D02*
X34000000Y-11435000D01*
X36300000Y-11825000D02*
X36300000Y-11435000D01*
X36100000Y-11825000D02*
X36100000Y-11435000D01*
X36300000Y-11825000D02*
X36100000Y-11825000D01*
X38400000Y-11525000D02*
X38200000Y-11525000D01*
X38200000Y-11525000D02*
X38200000Y-11135000D01*
X38400000Y-11525000D02*
X38400000Y-11135000D01*
X39700000Y-11825000D02*
X39700000Y-11435000D01*
X39500000Y-11825000D02*
X39500000Y-11435000D01*
X39700000Y-11825000D02*
X39500000Y-11825000D01*
X42123750Y-11825000D02*
X41923750Y-11825000D01*
X41923750Y-11825000D02*
X41923750Y-11435000D01*
X42123750Y-11825000D02*
X42123750Y-11435000D01*
X44023750Y-11825000D02*
X44023750Y-11435000D01*
X43823750Y-11825000D02*
X43823750Y-11435000D01*
X44023750Y-11825000D02*
X43823750Y-11825000D01*
X45923750Y-11825000D02*
X45923750Y-11435000D01*
X45723750Y-11825000D02*
X45723750Y-11435000D01*
X45923750Y-11825000D02*
X45723750Y-11825000D01*
X47823750Y-11825000D02*
X47823750Y-11435000D01*
X47623750Y-11825000D02*
X47623750Y-11435000D01*
X47823750Y-11825000D02*
X47623750Y-11825000D01*
X6876250Y-13725000D02*
X6676250Y-13725000D01*
X6676250Y-13725000D02*
X6676250Y-13335000D01*
X6876250Y-13725000D02*
X6876250Y-13335000D01*
X8776250Y-13725000D02*
X8776250Y-13335000D01*
X8576250Y-13725000D02*
X8576250Y-13335000D01*
X8776250Y-13725000D02*
X8576250Y-13725000D01*
X11700000Y-13725000D02*
X11500000Y-13725000D01*
X11500000Y-13725000D02*
X11500000Y-13335000D01*
X11700000Y-13725000D02*
X11700000Y-13335000D01*
X14000000Y-13725000D02*
X14000000Y-13335000D01*
X13800000Y-13725000D02*
X13800000Y-13335000D01*
X14000000Y-13725000D02*
X13800000Y-13725000D01*
X15900000Y-13725000D02*
X15700000Y-13725000D01*
X15700000Y-13725000D02*
X15700000Y-13335000D01*
X15900000Y-13725000D02*
X15900000Y-13335000D01*
X17800000Y-13725000D02*
X17800000Y-13335000D01*
X17600000Y-13725000D02*
X17600000Y-13335000D01*
X17800000Y-13725000D02*
X17600000Y-13725000D01*
X19700000Y-13725000D02*
X19500000Y-13725000D01*
X19500000Y-13725000D02*
X19500000Y-13335000D01*
X19700000Y-13725000D02*
X19700000Y-13335000D01*
X21600000Y-13725000D02*
X21600000Y-13335000D01*
X21400000Y-13725000D02*
X21400000Y-13335000D01*
X21600000Y-13725000D02*
X21400000Y-13725000D01*
X23500000Y-13725000D02*
X23300000Y-13725000D01*
X23300000Y-13725000D02*
X23300000Y-13335000D01*
X23500000Y-13725000D02*
X23500000Y-13335000D01*
X25400000Y-13725000D02*
X25400000Y-13335000D01*
X25200000Y-13725000D02*
X25200000Y-13335000D01*
X25400000Y-13725000D02*
X25200000Y-13725000D01*
X27300000Y-13725000D02*
X27100000Y-13725000D01*
X27100000Y-13725000D02*
X27100000Y-13335000D01*
X27300000Y-13725000D02*
X27300000Y-13335000D01*
X29200000Y-13725000D02*
X29200000Y-13335000D01*
X29000000Y-13725000D02*
X29000000Y-13335000D01*
X29200000Y-13725000D02*
X29000000Y-13725000D01*
X31100000Y-13725000D02*
X30900000Y-13725000D01*
X30900000Y-13725000D02*
X30900000Y-13335000D01*
X31100000Y-13725000D02*
X31100000Y-13335000D01*
X35000000Y-13725000D02*
X34800000Y-13725000D01*
X34800000Y-13725000D02*
X34800000Y-13335000D01*
X35000000Y-13725000D02*
X35000000Y-13335000D01*
X37597000Y-13716000D02*
X37597000Y-13326000D01*
X37397000Y-13716000D02*
X37397000Y-13326000D01*
X37597000Y-13716000D02*
X37397000Y-13716000D01*
X39700000Y-13725000D02*
X39500000Y-13725000D01*
X39500000Y-13725000D02*
X39500000Y-13335000D01*
X39700000Y-13725000D02*
X39700000Y-13335000D01*
X42123750Y-13725000D02*
X42123750Y-13335000D01*
X41923750Y-13725000D02*
X41923750Y-13335000D01*
X42123750Y-13725000D02*
X41923750Y-13725000D01*
X44023750Y-13725000D02*
X43823750Y-13725000D01*
X43823750Y-13725000D02*
X43823750Y-13335000D01*
X44023750Y-13725000D02*
X44023750Y-13335000D01*
X45923750Y-13725000D02*
X45923750Y-13335000D01*
X45723750Y-13725000D02*
X45723750Y-13335000D01*
X45923750Y-13725000D02*
X45723750Y-13725000D01*
X48123750Y-13625000D02*
X47923750Y-13625000D01*
X47923750Y-13625000D02*
X47923750Y-13235000D01*
X48123750Y-13625000D02*
X48123750Y-13235000D01*
X6876250Y-15625000D02*
X6876250Y-15235000D01*
X6676250Y-15625000D02*
X6676250Y-15235000D01*
X6876250Y-15625000D02*
X6676250Y-15625000D01*
X8776250Y-15625000D02*
X8576250Y-15625000D01*
X8576250Y-15625000D02*
X8576250Y-15235000D01*
X8776250Y-15625000D02*
X8776250Y-15235000D01*
X14500000Y-15625000D02*
X14300000Y-15625000D01*
X14300000Y-15625000D02*
X14300000Y-15235000D01*
X14500000Y-15625000D02*
X14500000Y-15235000D01*
X16400000Y-15625000D02*
X16400000Y-15235000D01*
X16200000Y-15625000D02*
X16200000Y-15235000D01*
X16400000Y-15625000D02*
X16200000Y-15625000D01*
X18300000Y-15625000D02*
X18100000Y-15625000D01*
X18100000Y-15625000D02*
X18100000Y-15235000D01*
X18300000Y-15625000D02*
X18300000Y-15235000D01*
X20200000Y-15625000D02*
X20200000Y-15235000D01*
X20000000Y-15625000D02*
X20000000Y-15235000D01*
X20200000Y-15625000D02*
X20000000Y-15625000D01*
X22100000Y-15625000D02*
X21900000Y-15625000D01*
X21900000Y-15625000D02*
X21900000Y-15235000D01*
X22100000Y-15625000D02*
X22100000Y-15235000D01*
X24000000Y-15625000D02*
X24000000Y-15235000D01*
X23800000Y-15625000D02*
X23800000Y-15235000D01*
X24000000Y-15625000D02*
X23800000Y-15625000D01*
X25900000Y-15625000D02*
X25700000Y-15625000D01*
X25700000Y-15625000D02*
X25700000Y-15235000D01*
X25900000Y-15625000D02*
X25900000Y-15235000D01*
X27800000Y-15625000D02*
X27600000Y-15625000D01*
X27600000Y-15625000D02*
X27600000Y-15235000D01*
X27800000Y-15625000D02*
X27800000Y-15235000D01*
X29700000Y-15625000D02*
X29500000Y-15625000D01*
X29500000Y-15625000D02*
X29500000Y-15235000D01*
X29700000Y-15625000D02*
X29700000Y-15235000D01*
X31600000Y-15625000D02*
X31600000Y-15235000D01*
X31400000Y-15625000D02*
X31400000Y-15235000D01*
X31600000Y-15625000D02*
X31400000Y-15625000D01*
X33500000Y-15625000D02*
X33300000Y-15625000D01*
X33300000Y-15625000D02*
X33300000Y-15235000D01*
X33500000Y-15625000D02*
X33500000Y-15235000D01*
X36600000Y-15625000D02*
X36600000Y-15235000D01*
X36400000Y-15625000D02*
X36400000Y-15235000D01*
X36600000Y-15625000D02*
X36400000Y-15625000D01*
X39700000Y-15625000D02*
X39500000Y-15625000D01*
X39500000Y-15625000D02*
X39500000Y-15235000D01*
X39700000Y-15625000D02*
X39700000Y-15235000D01*
X42123750Y-15625000D02*
X42123750Y-15235000D01*
X41923750Y-15625000D02*
X41923750Y-15235000D01*
X42123750Y-15625000D02*
X41923750Y-15625000D01*
X44023750Y-15625000D02*
X43823750Y-15625000D01*
X43823750Y-15625000D02*
X43823750Y-15235000D01*
X44023750Y-15625000D02*
X44023750Y-15235000D01*
X45923750Y-15625000D02*
X45923750Y-15235000D01*
X45723750Y-15625000D02*
X45723750Y-15235000D01*
X45923750Y-15625000D02*
X45723750Y-15625000D01*
X47823750Y-15625000D02*
X47623750Y-15625000D01*
X47623750Y-15625000D02*
X47623750Y-15235000D01*
X47823750Y-15625000D02*
X47823750Y-15235000D01*
X6876250Y-17525000D02*
X6676250Y-17525000D01*
X6676250Y-17525000D02*
X6676250Y-17135000D01*
X6876250Y-17525000D02*
X6876250Y-17135000D01*
X8776250Y-17525000D02*
X8576250Y-17525000D01*
X8576250Y-17525000D02*
X8576250Y-17135000D01*
X8776250Y-17525000D02*
X8776250Y-17135000D01*
X11400000Y-17525000D02*
X11200000Y-17525000D01*
X11200000Y-17525000D02*
X11200000Y-17135000D01*
X11400000Y-17525000D02*
X11400000Y-17135000D01*
X12400000Y-17525000D02*
X12400000Y-17135000D01*
X12200000Y-17525000D02*
X12200000Y-17135000D01*
X12400000Y-17525000D02*
X12200000Y-17525000D01*
X15400000Y-17525000D02*
X15200000Y-17525000D01*
X15200000Y-17525000D02*
X15200000Y-17135000D01*
X15400000Y-17525000D02*
X15400000Y-17135000D01*
X17300000Y-17525000D02*
X17300000Y-17135000D01*
X17100000Y-17525000D02*
X17100000Y-17135000D01*
X17300000Y-17525000D02*
X17100000Y-17525000D01*
X19200000Y-17525000D02*
X19200000Y-17135000D01*
X19000000Y-17525000D02*
X19000000Y-17135000D01*
X19200000Y-17525000D02*
X19000000Y-17525000D01*
X21200000Y-17525000D02*
X21000000Y-17525000D01*
X21000000Y-17525000D02*
X21000000Y-17135000D01*
X21200000Y-17525000D02*
X21200000Y-17135000D01*
X23000000Y-17525000D02*
X23000000Y-17135000D01*
X22800000Y-17525000D02*
X22800000Y-17135000D01*
X23000000Y-17525000D02*
X22800000Y-17525000D01*
X24900000Y-17525000D02*
X24900000Y-17135000D01*
X24700000Y-17525000D02*
X24700000Y-17135000D01*
X24900000Y-17525000D02*
X24700000Y-17525000D01*
X26800000Y-17525000D02*
X26800000Y-17135000D01*
X26600000Y-17525000D02*
X26600000Y-17135000D01*
X26800000Y-17525000D02*
X26600000Y-17525000D01*
X28700000Y-17525000D02*
X28700000Y-17135000D01*
X28500000Y-17525000D02*
X28500000Y-17135000D01*
X28700000Y-17525000D02*
X28500000Y-17525000D01*
X30700000Y-17525000D02*
X30700000Y-17135000D01*
X30500000Y-17525000D02*
X30500000Y-17135000D01*
X30700000Y-17525000D02*
X30500000Y-17525000D01*
X32600000Y-17525000D02*
X32600000Y-17135000D01*
X32400000Y-17525000D02*
X32400000Y-17135000D01*
X32600000Y-17525000D02*
X32400000Y-17525000D01*
X35200000Y-17525000D02*
X35000000Y-17525000D01*
X35000000Y-17525000D02*
X35000000Y-17135000D01*
X35200000Y-17525000D02*
X35200000Y-17135000D01*
X37800000Y-17525000D02*
X37600000Y-17525000D01*
X37600000Y-17525000D02*
X37600000Y-17135000D01*
X37800000Y-17525000D02*
X37800000Y-17135000D01*
X39700000Y-17525000D02*
X39700000Y-17135000D01*
X39500000Y-17525000D02*
X39500000Y-17135000D01*
X39700000Y-17525000D02*
X39500000Y-17525000D01*
X42123750Y-17525000D02*
X42123750Y-17135000D01*
X41923750Y-17525000D02*
X41923750Y-17135000D01*
X42123750Y-17525000D02*
X41923750Y-17525000D01*
X44023750Y-17525000D02*
X44023750Y-17135000D01*
X43823750Y-17525000D02*
X43823750Y-17135000D01*
X44023750Y-17525000D02*
X43823750Y-17525000D01*
X45923750Y-17525000D02*
X45923750Y-17135000D01*
X45723750Y-17525000D02*
X45723750Y-17135000D01*
X45923750Y-17525000D02*
X45723750Y-17525000D01*
X47973750Y-17425000D02*
X47773750Y-17425000D01*
X47773750Y-17425000D02*
X47773750Y-17035000D01*
X47973750Y-17425000D02*
X47973750Y-17035000D01*
X6826250Y-19425000D02*
X6626250Y-19425000D01*
X6626250Y-19425000D02*
X6626250Y-19035000D01*
X6826250Y-19425000D02*
X6826250Y-19035000D01*
X8726250Y-19425000D02*
X8526250Y-19425000D01*
X8526250Y-19425000D02*
X8526250Y-19035000D01*
X8726250Y-19425000D02*
X8726250Y-19035000D01*
X11600000Y-19425000D02*
X11600000Y-19035000D01*
X11400000Y-19425000D02*
X11400000Y-19035000D01*
X11600000Y-19425000D02*
X11400000Y-19425000D01*
X16400000Y-19425000D02*
X16400000Y-19035000D01*
X16200000Y-19425000D02*
X16200000Y-19035000D01*
X16400000Y-19425000D02*
X16200000Y-19425000D01*
X20700000Y-19425000D02*
X20500000Y-19425000D01*
X20500000Y-19425000D02*
X20500000Y-19035000D01*
X20700000Y-19425000D02*
X20700000Y-19035000D01*
X25100000Y-19425000D02*
X24900000Y-19425000D01*
X24900000Y-19425000D02*
X24900000Y-19035000D01*
X25100000Y-19425000D02*
X25100000Y-19035000D01*
X28900000Y-19425000D02*
X28700000Y-19425000D01*
X28700000Y-19425000D02*
X28700000Y-19035000D01*
X28900000Y-19425000D02*
X28900000Y-19035000D01*
X32600000Y-19425000D02*
X32600000Y-19035000D01*
X32400000Y-19425000D02*
X32400000Y-19035000D01*
X32600000Y-19425000D02*
X32400000Y-19425000D01*
X35900000Y-19425000D02*
X35700000Y-19425000D01*
X35700000Y-19425000D02*
X35700000Y-19035000D01*
X35900000Y-19425000D02*
X35900000Y-19035000D01*
X37800000Y-19425000D02*
X37600000Y-19425000D01*
X37600000Y-19425000D02*
X37600000Y-19035000D01*
X37800000Y-19425000D02*
X37800000Y-19035000D01*
X39700000Y-19425000D02*
X39500000Y-19425000D01*
X39500000Y-19425000D02*
X39500000Y-19035000D01*
X39700000Y-19425000D02*
X39700000Y-19035000D01*
X43023750Y-19425000D02*
X42823750Y-19425000D01*
X42823750Y-19425000D02*
X42823750Y-19035000D01*
X43023750Y-19425000D02*
X43023750Y-19035000D01*
X44623750Y-19425000D02*
X44423750Y-19425000D01*
X44423750Y-19425000D02*
X44423750Y-19035000D01*
X44623750Y-19425000D02*
X44623750Y-19035000D01*
X45923750Y-19425000D02*
X45923750Y-19035000D01*
X45723750Y-19425000D02*
X45723750Y-19035000D01*
X45923750Y-19425000D02*
X45723750Y-19425000D01*
X47823750Y-19425000D02*
X47623750Y-19425000D01*
X47623750Y-19425000D02*
X47623750Y-19035000D01*
X47823750Y-19425000D02*
X47823750Y-19035000D01*
D11*
X26655650Y-10456000D02*
X27124280Y-10456000D01*
X26655650Y-10075000D02*
X27124280Y-10075000D01*
X27242390Y-10337890D02*
X27124280Y-10456000D01*
X27242390Y-10193110D02*
X27124280Y-10075000D01*
X27242390Y-10193110D02*
G75*
G02X27242390Y-10337890I-72390J-72390D01*
G01*
X26560400Y-10170250D02*
X26560400Y-10360750D01*
X26655650Y-10456000D02*
G75*
G02X26560400Y-10360750I0J95250D01*
G01*
X26560400Y-10170250D02*
G75*
G02X26655650Y-10075000I95250J0D01*
G01*
D10*
X24844000Y-8390000D02*
X24844000Y-8570000D01*
X24522000Y-8570000D02*
X24522000Y-8325000D01*
D12*
X25054000Y-10561856D02*
X25013341Y-10521197D01*
X25785855Y-9830000D02*
X25738126Y-9782270D01*
X25054000Y-9098145D02*
X25101730Y-9145874D01*
X24322144Y-9830000D02*
X24369874Y-9877730D01*
X25054000Y-10561856D02*
X25101730Y-10514126D01*
X24322144Y-9830000D02*
X24369874Y-9782270D01*
X25054000Y-9098145D02*
X25006270Y-9145874D01*
X25785855Y-9830000D02*
X25738126Y-9877730D01*
X25013341Y-10521197D02*
X24923185Y-10611353D01*
D10*
X14024000Y-19416000D02*
X13824000Y-19416000D01*
X13824000Y-19416000D02*
X13824000Y-19026000D01*
X14024000Y-19416000D02*
X14024000Y-19026000D01*
M02*
