G04 #@! TF.FileFunction,Copper,L2,Bot,Signal*
%FSLAX46Y46*%
G04 Gerber Fmt 4.6, Leading zero omitted, Abs format (unit mm)*
G04 Created by KiCad (PCBNEW 4.0.7) date 05/14/18 18:10:09*
%MOMM*%
%LPD*%
G01*
G04 APERTURE LIST*
%ADD10C,0.100000*%
%ADD11C,2.250000*%
%ADD12C,2.250000*%
%ADD13R,1.500000X1.250000*%
%ADD14R,0.750000X1.200000*%
%ADD15R,1.200000X0.750000*%
%ADD16C,0.784860*%
%ADD17R,0.300000X1.150000*%
%ADD18R,0.600000X1.150000*%
%ADD19O,1.000000X2.100000*%
%ADD20O,1.000000X1.600000*%
%ADD21R,0.900000X1.200000*%
%ADD22R,0.650000X1.560000*%
%ADD23C,0.600000*%
%ADD24C,0.258000*%
G04 APERTURE END LIST*
D10*
D11*
X707350000Y-276487500D02*
X707390000Y-275907500D01*
D12*
X707390000Y-275907500D03*
D11*
X701040000Y-278447500D02*
X702350002Y-276987500D01*
D12*
X702350000Y-276987500D03*
D11*
X597812500Y-276487500D02*
X597852500Y-275907500D01*
D12*
X597852500Y-275907500D03*
D11*
X591502500Y-278447500D02*
X592812502Y-276987500D01*
D12*
X592812500Y-276987500D03*
D11*
X578762500Y-276487500D02*
X578802500Y-275907500D01*
D12*
X578802500Y-275907500D03*
D11*
X572452500Y-278447500D02*
X573762502Y-276987500D01*
D12*
X573762500Y-276987500D03*
D10*
G36*
X427273654Y-261873759D02*
X427061522Y-261661627D01*
X428122182Y-260600967D01*
X428334314Y-260813099D01*
X427273654Y-261873759D01*
X427273654Y-261873759D01*
G37*
G36*
X426920101Y-261520206D02*
X426707969Y-261308074D01*
X427768629Y-260247414D01*
X427980761Y-260459546D01*
X426920101Y-261520206D01*
X426920101Y-261520206D01*
G37*
G36*
X426566548Y-261166652D02*
X426354416Y-260954520D01*
X427415076Y-259893860D01*
X427627208Y-260105992D01*
X426566548Y-261166652D01*
X426566548Y-261166652D01*
G37*
G36*
X426212994Y-260813099D02*
X426000862Y-260600967D01*
X427061522Y-259540307D01*
X427273654Y-259752439D01*
X426212994Y-260813099D01*
X426212994Y-260813099D01*
G37*
G36*
X425859441Y-260459545D02*
X425647309Y-260247413D01*
X426707969Y-259186753D01*
X426920101Y-259398885D01*
X425859441Y-260459545D01*
X425859441Y-260459545D01*
G37*
G36*
X425505888Y-260105992D02*
X425293756Y-259893860D01*
X426354416Y-258833200D01*
X426566548Y-259045332D01*
X425505888Y-260105992D01*
X425505888Y-260105992D01*
G37*
G36*
X425152334Y-259752439D02*
X424940202Y-259540307D01*
X426000862Y-258479647D01*
X426212994Y-258691779D01*
X425152334Y-259752439D01*
X425152334Y-259752439D01*
G37*
G36*
X424798781Y-259398885D02*
X424586649Y-259186753D01*
X425647309Y-258126093D01*
X425859441Y-258338225D01*
X424798781Y-259398885D01*
X424798781Y-259398885D01*
G37*
G36*
X424445227Y-259045332D02*
X424233095Y-258833200D01*
X425293755Y-257772540D01*
X425505887Y-257984672D01*
X424445227Y-259045332D01*
X424445227Y-259045332D01*
G37*
G36*
X424091674Y-258691778D02*
X423879542Y-258479646D01*
X424940202Y-257418986D01*
X425152334Y-257631118D01*
X424091674Y-258691778D01*
X424091674Y-258691778D01*
G37*
G36*
X423738121Y-258338225D02*
X423525989Y-258126093D01*
X424586649Y-257065433D01*
X424798781Y-257277565D01*
X423738121Y-258338225D01*
X423738121Y-258338225D01*
G37*
G36*
X423384567Y-257984672D02*
X423172435Y-257772540D01*
X424233095Y-256711880D01*
X424445227Y-256924012D01*
X423384567Y-257984672D01*
X423384567Y-257984672D01*
G37*
G36*
X423031014Y-257631118D02*
X422818882Y-257418986D01*
X423879542Y-256358326D01*
X424091674Y-256570458D01*
X423031014Y-257631118D01*
X423031014Y-257631118D01*
G37*
G36*
X422677460Y-257277565D02*
X422465328Y-257065433D01*
X423525988Y-256004773D01*
X423738120Y-256216905D01*
X422677460Y-257277565D01*
X422677460Y-257277565D01*
G37*
G36*
X422323907Y-256924011D02*
X422111775Y-256711879D01*
X423172435Y-255651219D01*
X423384567Y-255863351D01*
X422323907Y-256924011D01*
X422323907Y-256924011D01*
G37*
G36*
X421970354Y-256570458D02*
X421758222Y-256358326D01*
X422818882Y-255297666D01*
X423031014Y-255509798D01*
X421970354Y-256570458D01*
X421970354Y-256570458D01*
G37*
G36*
X421616800Y-256216905D02*
X421404668Y-256004773D01*
X422465328Y-254944113D01*
X422677460Y-255156245D01*
X421616800Y-256216905D01*
X421616800Y-256216905D01*
G37*
G36*
X421263247Y-255863351D02*
X421051115Y-255651219D01*
X422111775Y-254590559D01*
X422323907Y-254802691D01*
X421263247Y-255863351D01*
X421263247Y-255863351D01*
G37*
G36*
X420909693Y-255509798D02*
X420697561Y-255297666D01*
X421758221Y-254237006D01*
X421970353Y-254449138D01*
X420909693Y-255509798D01*
X420909693Y-255509798D01*
G37*
G36*
X420556140Y-255156244D02*
X420344008Y-254944112D01*
X421404668Y-253883452D01*
X421616800Y-254095584D01*
X420556140Y-255156244D01*
X420556140Y-255156244D01*
G37*
G36*
X420202587Y-254802691D02*
X419990455Y-254590559D01*
X421051115Y-253529899D01*
X421263247Y-253742031D01*
X420202587Y-254802691D01*
X420202587Y-254802691D01*
G37*
G36*
X419849033Y-254449138D02*
X419636901Y-254237006D01*
X420697561Y-253176346D01*
X420909693Y-253388478D01*
X419849033Y-254449138D01*
X419849033Y-254449138D01*
G37*
G36*
X419495480Y-254095584D02*
X419283348Y-253883452D01*
X420344008Y-252822792D01*
X420556140Y-253034924D01*
X419495480Y-254095584D01*
X419495480Y-254095584D01*
G37*
G36*
X419141926Y-253742031D02*
X418929794Y-253529899D01*
X419990454Y-252469239D01*
X420202586Y-252681371D01*
X419141926Y-253742031D01*
X419141926Y-253742031D01*
G37*
G36*
X418788373Y-253388478D02*
X418576241Y-253176346D01*
X419636901Y-252115686D01*
X419849033Y-252327818D01*
X418788373Y-253388478D01*
X418788373Y-253388478D01*
G37*
G36*
X418576241Y-249923654D02*
X418788373Y-249711522D01*
X419849033Y-250772182D01*
X419636901Y-250984314D01*
X418576241Y-249923654D01*
X418576241Y-249923654D01*
G37*
G36*
X418929794Y-249570101D02*
X419141926Y-249357969D01*
X420202586Y-250418629D01*
X419990454Y-250630761D01*
X418929794Y-249570101D01*
X418929794Y-249570101D01*
G37*
G36*
X419283348Y-249216548D02*
X419495480Y-249004416D01*
X420556140Y-250065076D01*
X420344008Y-250277208D01*
X419283348Y-249216548D01*
X419283348Y-249216548D01*
G37*
G36*
X419636901Y-248862994D02*
X419849033Y-248650862D01*
X420909693Y-249711522D01*
X420697561Y-249923654D01*
X419636901Y-248862994D01*
X419636901Y-248862994D01*
G37*
G36*
X419990455Y-248509441D02*
X420202587Y-248297309D01*
X421263247Y-249357969D01*
X421051115Y-249570101D01*
X419990455Y-248509441D01*
X419990455Y-248509441D01*
G37*
G36*
X420344008Y-248155888D02*
X420556140Y-247943756D01*
X421616800Y-249004416D01*
X421404668Y-249216548D01*
X420344008Y-248155888D01*
X420344008Y-248155888D01*
G37*
G36*
X420697561Y-247802334D02*
X420909693Y-247590202D01*
X421970353Y-248650862D01*
X421758221Y-248862994D01*
X420697561Y-247802334D01*
X420697561Y-247802334D01*
G37*
G36*
X421051115Y-247448781D02*
X421263247Y-247236649D01*
X422323907Y-248297309D01*
X422111775Y-248509441D01*
X421051115Y-247448781D01*
X421051115Y-247448781D01*
G37*
G36*
X421404668Y-247095227D02*
X421616800Y-246883095D01*
X422677460Y-247943755D01*
X422465328Y-248155887D01*
X421404668Y-247095227D01*
X421404668Y-247095227D01*
G37*
G36*
X421758222Y-246741674D02*
X421970354Y-246529542D01*
X423031014Y-247590202D01*
X422818882Y-247802334D01*
X421758222Y-246741674D01*
X421758222Y-246741674D01*
G37*
G36*
X422111775Y-246388121D02*
X422323907Y-246175989D01*
X423384567Y-247236649D01*
X423172435Y-247448781D01*
X422111775Y-246388121D01*
X422111775Y-246388121D01*
G37*
G36*
X422465328Y-246034567D02*
X422677460Y-245822435D01*
X423738120Y-246883095D01*
X423525988Y-247095227D01*
X422465328Y-246034567D01*
X422465328Y-246034567D01*
G37*
G36*
X422818882Y-245681014D02*
X423031014Y-245468882D01*
X424091674Y-246529542D01*
X423879542Y-246741674D01*
X422818882Y-245681014D01*
X422818882Y-245681014D01*
G37*
G36*
X423172435Y-245327460D02*
X423384567Y-245115328D01*
X424445227Y-246175988D01*
X424233095Y-246388120D01*
X423172435Y-245327460D01*
X423172435Y-245327460D01*
G37*
G36*
X423525989Y-244973907D02*
X423738121Y-244761775D01*
X424798781Y-245822435D01*
X424586649Y-246034567D01*
X423525989Y-244973907D01*
X423525989Y-244973907D01*
G37*
G36*
X423879542Y-244620354D02*
X424091674Y-244408222D01*
X425152334Y-245468882D01*
X424940202Y-245681014D01*
X423879542Y-244620354D01*
X423879542Y-244620354D01*
G37*
G36*
X424233095Y-244266800D02*
X424445227Y-244054668D01*
X425505887Y-245115328D01*
X425293755Y-245327460D01*
X424233095Y-244266800D01*
X424233095Y-244266800D01*
G37*
G36*
X424586649Y-243913247D02*
X424798781Y-243701115D01*
X425859441Y-244761775D01*
X425647309Y-244973907D01*
X424586649Y-243913247D01*
X424586649Y-243913247D01*
G37*
G36*
X424940202Y-243559693D02*
X425152334Y-243347561D01*
X426212994Y-244408221D01*
X426000862Y-244620353D01*
X424940202Y-243559693D01*
X424940202Y-243559693D01*
G37*
G36*
X425293756Y-243206140D02*
X425505888Y-242994008D01*
X426566548Y-244054668D01*
X426354416Y-244266800D01*
X425293756Y-243206140D01*
X425293756Y-243206140D01*
G37*
G36*
X425647309Y-242852587D02*
X425859441Y-242640455D01*
X426920101Y-243701115D01*
X426707969Y-243913247D01*
X425647309Y-242852587D01*
X425647309Y-242852587D01*
G37*
G36*
X426000862Y-242499033D02*
X426212994Y-242286901D01*
X427273654Y-243347561D01*
X427061522Y-243559693D01*
X426000862Y-242499033D01*
X426000862Y-242499033D01*
G37*
G36*
X426354416Y-242145480D02*
X426566548Y-241933348D01*
X427627208Y-242994008D01*
X427415076Y-243206140D01*
X426354416Y-242145480D01*
X426354416Y-242145480D01*
G37*
G36*
X426707969Y-241791926D02*
X426920101Y-241579794D01*
X427980761Y-242640454D01*
X427768629Y-242852586D01*
X426707969Y-241791926D01*
X426707969Y-241791926D01*
G37*
G36*
X427061522Y-241438373D02*
X427273654Y-241226241D01*
X428334314Y-242286901D01*
X428122182Y-242499033D01*
X427061522Y-241438373D01*
X427061522Y-241438373D01*
G37*
G36*
X429677818Y-242499033D02*
X429465686Y-242286901D01*
X430526346Y-241226241D01*
X430738478Y-241438373D01*
X429677818Y-242499033D01*
X429677818Y-242499033D01*
G37*
G36*
X430031371Y-242852586D02*
X429819239Y-242640454D01*
X430879899Y-241579794D01*
X431092031Y-241791926D01*
X430031371Y-242852586D01*
X430031371Y-242852586D01*
G37*
G36*
X430384924Y-243206140D02*
X430172792Y-242994008D01*
X431233452Y-241933348D01*
X431445584Y-242145480D01*
X430384924Y-243206140D01*
X430384924Y-243206140D01*
G37*
G36*
X430738478Y-243559693D02*
X430526346Y-243347561D01*
X431587006Y-242286901D01*
X431799138Y-242499033D01*
X430738478Y-243559693D01*
X430738478Y-243559693D01*
G37*
G36*
X431092031Y-243913247D02*
X430879899Y-243701115D01*
X431940559Y-242640455D01*
X432152691Y-242852587D01*
X431092031Y-243913247D01*
X431092031Y-243913247D01*
G37*
G36*
X431445584Y-244266800D02*
X431233452Y-244054668D01*
X432294112Y-242994008D01*
X432506244Y-243206140D01*
X431445584Y-244266800D01*
X431445584Y-244266800D01*
G37*
G36*
X431799138Y-244620353D02*
X431587006Y-244408221D01*
X432647666Y-243347561D01*
X432859798Y-243559693D01*
X431799138Y-244620353D01*
X431799138Y-244620353D01*
G37*
G36*
X432152691Y-244973907D02*
X431940559Y-244761775D01*
X433001219Y-243701115D01*
X433213351Y-243913247D01*
X432152691Y-244973907D01*
X432152691Y-244973907D01*
G37*
G36*
X432506245Y-245327460D02*
X432294113Y-245115328D01*
X433354773Y-244054668D01*
X433566905Y-244266800D01*
X432506245Y-245327460D01*
X432506245Y-245327460D01*
G37*
G36*
X432859798Y-245681014D02*
X432647666Y-245468882D01*
X433708326Y-244408222D01*
X433920458Y-244620354D01*
X432859798Y-245681014D01*
X432859798Y-245681014D01*
G37*
G36*
X433213351Y-246034567D02*
X433001219Y-245822435D01*
X434061879Y-244761775D01*
X434274011Y-244973907D01*
X433213351Y-246034567D01*
X433213351Y-246034567D01*
G37*
G36*
X433566905Y-246388120D02*
X433354773Y-246175988D01*
X434415433Y-245115328D01*
X434627565Y-245327460D01*
X433566905Y-246388120D01*
X433566905Y-246388120D01*
G37*
G36*
X433920458Y-246741674D02*
X433708326Y-246529542D01*
X434768986Y-245468882D01*
X434981118Y-245681014D01*
X433920458Y-246741674D01*
X433920458Y-246741674D01*
G37*
G36*
X434274012Y-247095227D02*
X434061880Y-246883095D01*
X435122540Y-245822435D01*
X435334672Y-246034567D01*
X434274012Y-247095227D01*
X434274012Y-247095227D01*
G37*
G36*
X434627565Y-247448781D02*
X434415433Y-247236649D01*
X435476093Y-246175989D01*
X435688225Y-246388121D01*
X434627565Y-247448781D01*
X434627565Y-247448781D01*
G37*
G36*
X434981118Y-247802334D02*
X434768986Y-247590202D01*
X435829646Y-246529542D01*
X436041778Y-246741674D01*
X434981118Y-247802334D01*
X434981118Y-247802334D01*
G37*
G36*
X435334672Y-248155887D02*
X435122540Y-247943755D01*
X436183200Y-246883095D01*
X436395332Y-247095227D01*
X435334672Y-248155887D01*
X435334672Y-248155887D01*
G37*
G36*
X435688225Y-248509441D02*
X435476093Y-248297309D01*
X436536753Y-247236649D01*
X436748885Y-247448781D01*
X435688225Y-248509441D01*
X435688225Y-248509441D01*
G37*
G36*
X436041779Y-248862994D02*
X435829647Y-248650862D01*
X436890307Y-247590202D01*
X437102439Y-247802334D01*
X436041779Y-248862994D01*
X436041779Y-248862994D01*
G37*
G36*
X436395332Y-249216548D02*
X436183200Y-249004416D01*
X437243860Y-247943756D01*
X437455992Y-248155888D01*
X436395332Y-249216548D01*
X436395332Y-249216548D01*
G37*
G36*
X436748885Y-249570101D02*
X436536753Y-249357969D01*
X437597413Y-248297309D01*
X437809545Y-248509441D01*
X436748885Y-249570101D01*
X436748885Y-249570101D01*
G37*
G36*
X437102439Y-249923654D02*
X436890307Y-249711522D01*
X437950967Y-248650862D01*
X438163099Y-248862994D01*
X437102439Y-249923654D01*
X437102439Y-249923654D01*
G37*
G36*
X437455992Y-250277208D02*
X437243860Y-250065076D01*
X438304520Y-249004416D01*
X438516652Y-249216548D01*
X437455992Y-250277208D01*
X437455992Y-250277208D01*
G37*
G36*
X437809546Y-250630761D02*
X437597414Y-250418629D01*
X438658074Y-249357969D01*
X438870206Y-249570101D01*
X437809546Y-250630761D01*
X437809546Y-250630761D01*
G37*
G36*
X438163099Y-250984314D02*
X437950967Y-250772182D01*
X439011627Y-249711522D01*
X439223759Y-249923654D01*
X438163099Y-250984314D01*
X438163099Y-250984314D01*
G37*
G36*
X437950967Y-252327818D02*
X438163099Y-252115686D01*
X439223759Y-253176346D01*
X439011627Y-253388478D01*
X437950967Y-252327818D01*
X437950967Y-252327818D01*
G37*
G36*
X437597414Y-252681371D02*
X437809546Y-252469239D01*
X438870206Y-253529899D01*
X438658074Y-253742031D01*
X437597414Y-252681371D01*
X437597414Y-252681371D01*
G37*
G36*
X437243860Y-253034924D02*
X437455992Y-252822792D01*
X438516652Y-253883452D01*
X438304520Y-254095584D01*
X437243860Y-253034924D01*
X437243860Y-253034924D01*
G37*
G36*
X436890307Y-253388478D02*
X437102439Y-253176346D01*
X438163099Y-254237006D01*
X437950967Y-254449138D01*
X436890307Y-253388478D01*
X436890307Y-253388478D01*
G37*
G36*
X436536753Y-253742031D02*
X436748885Y-253529899D01*
X437809545Y-254590559D01*
X437597413Y-254802691D01*
X436536753Y-253742031D01*
X436536753Y-253742031D01*
G37*
G36*
X436183200Y-254095584D02*
X436395332Y-253883452D01*
X437455992Y-254944112D01*
X437243860Y-255156244D01*
X436183200Y-254095584D01*
X436183200Y-254095584D01*
G37*
G36*
X435829647Y-254449138D02*
X436041779Y-254237006D01*
X437102439Y-255297666D01*
X436890307Y-255509798D01*
X435829647Y-254449138D01*
X435829647Y-254449138D01*
G37*
G36*
X435476093Y-254802691D02*
X435688225Y-254590559D01*
X436748885Y-255651219D01*
X436536753Y-255863351D01*
X435476093Y-254802691D01*
X435476093Y-254802691D01*
G37*
G36*
X435122540Y-255156245D02*
X435334672Y-254944113D01*
X436395332Y-256004773D01*
X436183200Y-256216905D01*
X435122540Y-255156245D01*
X435122540Y-255156245D01*
G37*
G36*
X434768986Y-255509798D02*
X434981118Y-255297666D01*
X436041778Y-256358326D01*
X435829646Y-256570458D01*
X434768986Y-255509798D01*
X434768986Y-255509798D01*
G37*
G36*
X434415433Y-255863351D02*
X434627565Y-255651219D01*
X435688225Y-256711879D01*
X435476093Y-256924011D01*
X434415433Y-255863351D01*
X434415433Y-255863351D01*
G37*
G36*
X434061880Y-256216905D02*
X434274012Y-256004773D01*
X435334672Y-257065433D01*
X435122540Y-257277565D01*
X434061880Y-256216905D01*
X434061880Y-256216905D01*
G37*
G36*
X433708326Y-256570458D02*
X433920458Y-256358326D01*
X434981118Y-257418986D01*
X434768986Y-257631118D01*
X433708326Y-256570458D01*
X433708326Y-256570458D01*
G37*
G36*
X433354773Y-256924012D02*
X433566905Y-256711880D01*
X434627565Y-257772540D01*
X434415433Y-257984672D01*
X433354773Y-256924012D01*
X433354773Y-256924012D01*
G37*
G36*
X433001219Y-257277565D02*
X433213351Y-257065433D01*
X434274011Y-258126093D01*
X434061879Y-258338225D01*
X433001219Y-257277565D01*
X433001219Y-257277565D01*
G37*
G36*
X432647666Y-257631118D02*
X432859798Y-257418986D01*
X433920458Y-258479646D01*
X433708326Y-258691778D01*
X432647666Y-257631118D01*
X432647666Y-257631118D01*
G37*
G36*
X432294113Y-257984672D02*
X432506245Y-257772540D01*
X433566905Y-258833200D01*
X433354773Y-259045332D01*
X432294113Y-257984672D01*
X432294113Y-257984672D01*
G37*
G36*
X431940559Y-258338225D02*
X432152691Y-258126093D01*
X433213351Y-259186753D01*
X433001219Y-259398885D01*
X431940559Y-258338225D01*
X431940559Y-258338225D01*
G37*
G36*
X431587006Y-258691779D02*
X431799138Y-258479647D01*
X432859798Y-259540307D01*
X432647666Y-259752439D01*
X431587006Y-258691779D01*
X431587006Y-258691779D01*
G37*
G36*
X431233452Y-259045332D02*
X431445584Y-258833200D01*
X432506244Y-259893860D01*
X432294112Y-260105992D01*
X431233452Y-259045332D01*
X431233452Y-259045332D01*
G37*
G36*
X430879899Y-259398885D02*
X431092031Y-259186753D01*
X432152691Y-260247413D01*
X431940559Y-260459545D01*
X430879899Y-259398885D01*
X430879899Y-259398885D01*
G37*
G36*
X430526346Y-259752439D02*
X430738478Y-259540307D01*
X431799138Y-260600967D01*
X431587006Y-260813099D01*
X430526346Y-259752439D01*
X430526346Y-259752439D01*
G37*
G36*
X430172792Y-260105992D02*
X430384924Y-259893860D01*
X431445584Y-260954520D01*
X431233452Y-261166652D01*
X430172792Y-260105992D01*
X430172792Y-260105992D01*
G37*
G36*
X429819239Y-260459546D02*
X430031371Y-260247414D01*
X431092031Y-261308074D01*
X430879899Y-261520206D01*
X429819239Y-260459546D01*
X429819239Y-260459546D01*
G37*
G36*
X429465686Y-260813099D02*
X429677818Y-260600967D01*
X430738478Y-261661627D01*
X430526346Y-261873759D01*
X429465686Y-260813099D01*
X429465686Y-260813099D01*
G37*
D11*
X397787500Y-219337500D02*
X397827500Y-218757500D01*
D12*
X397827500Y-218757500D03*
D11*
X391477500Y-221297500D02*
X392787502Y-219837500D01*
D12*
X392787500Y-219837500D03*
D11*
X447793750Y-257437500D02*
X447833750Y-256857500D01*
D12*
X447833750Y-256857500D03*
D11*
X441483750Y-259397500D02*
X442793752Y-257937500D01*
D12*
X442793750Y-257937500D03*
D11*
X397787500Y-238387500D02*
X397827500Y-237807500D01*
D12*
X397827500Y-237807500D03*
D11*
X391477500Y-240347500D02*
X392787502Y-238887500D01*
D12*
X392787500Y-238887500D03*
D11*
X445412500Y-238387500D02*
X445452500Y-237807500D01*
D12*
X445452500Y-237807500D03*
D11*
X439102500Y-240347500D02*
X440412502Y-238887500D01*
D12*
X440412500Y-238887500D03*
D13*
X406050000Y-234080000D03*
X403550000Y-234080000D03*
D14*
X428660000Y-269720000D03*
X428660000Y-271620000D03*
X422820000Y-269690000D03*
X422820000Y-271590000D03*
D15*
X440450000Y-256890000D03*
X438550000Y-256890000D03*
X414790000Y-254450000D03*
X412890000Y-254450000D03*
X457940000Y-251740000D03*
X456040000Y-251740000D03*
D10*
G36*
X436902931Y-264562601D02*
X436372601Y-265092931D01*
X435524073Y-264244403D01*
X436054403Y-263714073D01*
X436902931Y-264562601D01*
X436902931Y-264562601D01*
G37*
G36*
X435559429Y-263219099D02*
X435029099Y-263749429D01*
X434180571Y-262900901D01*
X434710901Y-262370571D01*
X435559429Y-263219099D01*
X435559429Y-263219099D01*
G37*
D15*
X403850000Y-244920000D03*
X405750000Y-244920000D03*
X464420000Y-251750000D03*
X466320000Y-251750000D03*
D10*
G36*
X433760850Y-236568820D02*
X434291180Y-237099150D01*
X433442652Y-237947678D01*
X432912322Y-237417348D01*
X433760850Y-236568820D01*
X433760850Y-236568820D01*
G37*
G36*
X432417348Y-237912322D02*
X432947678Y-238442652D01*
X432099150Y-239291180D01*
X431568820Y-238760850D01*
X432417348Y-237912322D01*
X432417348Y-237912322D01*
G37*
D14*
X425020000Y-234810000D03*
X425020000Y-236710000D03*
D16*
X432820000Y-271720000D03*
X431550000Y-271720000D03*
X432820000Y-272990000D03*
X431550000Y-272990000D03*
X432820000Y-274260000D03*
X431550000Y-274260000D03*
D17*
X404562500Y-216995000D03*
D18*
X408012500Y-216995000D03*
X407212500Y-216995000D03*
X402412500Y-216995000D03*
D19*
X400492500Y-216330000D03*
X409132500Y-216330000D03*
D20*
X400492500Y-212150000D03*
X409132500Y-212150000D03*
D18*
X401612500Y-216995000D03*
D17*
X405062500Y-216995000D03*
X405562500Y-216995000D03*
X406062500Y-216995000D03*
X406562500Y-216995000D03*
X404062500Y-216995000D03*
X403562500Y-216995000D03*
X403062500Y-216995000D03*
D11*
X416837500Y-219337500D02*
X416877500Y-218757500D01*
D12*
X416877500Y-218757500D03*
D11*
X410527500Y-221297500D02*
X411837502Y-219837500D01*
D12*
X411837500Y-219837500D03*
D11*
X440650000Y-219337500D02*
X440690000Y-218757500D01*
D12*
X440690000Y-218757500D03*
D11*
X434340000Y-221297500D02*
X435650002Y-219837500D01*
D12*
X435650000Y-219837500D03*
D11*
X459700000Y-219337500D02*
X459740000Y-218757500D01*
D12*
X459740000Y-218757500D03*
D11*
X453390000Y-221297500D02*
X454700002Y-219837500D01*
D12*
X454700000Y-219837500D03*
D11*
X478750000Y-219337500D02*
X478790000Y-218757500D01*
D12*
X478790000Y-218757500D03*
D11*
X472440000Y-221297500D02*
X473750002Y-219837500D01*
D12*
X473750000Y-219837500D03*
D11*
X497800000Y-219337500D02*
X497840000Y-218757500D01*
D12*
X497840000Y-218757500D03*
D11*
X491490000Y-221297500D02*
X492800002Y-219837500D01*
D12*
X492800000Y-219837500D03*
D11*
X516850000Y-219337500D02*
X516890000Y-218757500D01*
D12*
X516890000Y-218757500D03*
D11*
X510540000Y-221297500D02*
X511850002Y-219837500D01*
D12*
X511850000Y-219837500D03*
D11*
X535900000Y-219337500D02*
X535940000Y-218757500D01*
D12*
X535940000Y-218757500D03*
D11*
X529590000Y-221297500D02*
X530900002Y-219837500D01*
D12*
X530900000Y-219837500D03*
D11*
X554950000Y-219337500D02*
X554990000Y-218757500D01*
D12*
X554990000Y-218757500D03*
D11*
X548640000Y-221297500D02*
X549950002Y-219837500D01*
D12*
X549950000Y-219837500D03*
D11*
X574000000Y-219337500D02*
X574040000Y-218757500D01*
D12*
X574040000Y-218757500D03*
D11*
X567690000Y-221297500D02*
X569000002Y-219837500D01*
D12*
X569000000Y-219837500D03*
D11*
X593050000Y-219337500D02*
X593090000Y-218757500D01*
D12*
X593090000Y-218757500D03*
D11*
X586740000Y-221297500D02*
X588050002Y-219837500D01*
D12*
X588050000Y-219837500D03*
D11*
X612100000Y-219337500D02*
X612140000Y-218757500D01*
D12*
X612140000Y-218757500D03*
D11*
X605790000Y-221297500D02*
X607100002Y-219837500D01*
D12*
X607100000Y-219837500D03*
D11*
X631150000Y-219337500D02*
X631190000Y-218757500D01*
D12*
X631190000Y-218757500D03*
D11*
X624840000Y-221297500D02*
X626150002Y-219837500D01*
D12*
X626150000Y-219837500D03*
D11*
X650200000Y-219337500D02*
X650240000Y-218757500D01*
D12*
X650240000Y-218757500D03*
D11*
X643890000Y-221297500D02*
X645200002Y-219837500D01*
D12*
X645200000Y-219837500D03*
D11*
X669250000Y-219337500D02*
X669290000Y-218757500D01*
D12*
X669290000Y-218757500D03*
D11*
X662940000Y-221297500D02*
X664250002Y-219837500D01*
D12*
X664250000Y-219837500D03*
D11*
X688300000Y-219337500D02*
X688340000Y-218757500D01*
D12*
X688340000Y-218757500D03*
D11*
X681990000Y-221297500D02*
X683300002Y-219837500D01*
D12*
X683300000Y-219837500D03*
D11*
X707350000Y-219337500D02*
X707390000Y-218757500D01*
D12*
X707390000Y-218757500D03*
D11*
X701040000Y-221297500D02*
X702350002Y-219837500D01*
D12*
X702350000Y-219837500D03*
D11*
X697825000Y-219337500D02*
X697865000Y-218757500D01*
D12*
X697865000Y-218757500D03*
D11*
X691515000Y-221297500D02*
X692825002Y-219837500D01*
D12*
X692825000Y-219837500D03*
D11*
X416837500Y-238387500D02*
X416877500Y-237807500D01*
D12*
X416877500Y-237807500D03*
D11*
X410527500Y-240347500D02*
X411837502Y-238887500D01*
D12*
X411837500Y-238887500D03*
D11*
X469225000Y-238387500D02*
X469265000Y-237807500D01*
D12*
X469265000Y-237807500D03*
D11*
X462915000Y-240347500D02*
X464225002Y-238887500D01*
D12*
X464225000Y-238887500D03*
D11*
X488275000Y-238387500D02*
X488315000Y-237807500D01*
D12*
X488315000Y-237807500D03*
D11*
X481965000Y-240347500D02*
X483275002Y-238887500D01*
D12*
X483275000Y-238887500D03*
D11*
X507325000Y-238387500D02*
X507365000Y-237807500D01*
D12*
X507365000Y-237807500D03*
D11*
X501015000Y-240347500D02*
X502325002Y-238887500D01*
D12*
X502325000Y-238887500D03*
D11*
X526375000Y-238387500D02*
X526415000Y-237807500D01*
D12*
X526415000Y-237807500D03*
D11*
X520065000Y-240347500D02*
X521375002Y-238887500D01*
D12*
X521375000Y-238887500D03*
D11*
X545425000Y-238387500D02*
X545465000Y-237807500D01*
D12*
X545465000Y-237807500D03*
D11*
X539115000Y-240347500D02*
X540425002Y-238887500D01*
D12*
X540425000Y-238887500D03*
D11*
X564475000Y-238387500D02*
X564515000Y-237807500D01*
D12*
X564515000Y-237807500D03*
D11*
X558165000Y-240347500D02*
X559475002Y-238887500D01*
D12*
X559475000Y-238887500D03*
D11*
X583525000Y-238387500D02*
X583565000Y-237807500D01*
D12*
X583565000Y-237807500D03*
D11*
X577215000Y-240347500D02*
X578525002Y-238887500D01*
D12*
X578525000Y-238887500D03*
D11*
X602575000Y-238387500D02*
X602615000Y-237807500D01*
D12*
X602615000Y-237807500D03*
D11*
X596265000Y-240347500D02*
X597575002Y-238887500D01*
D12*
X597575000Y-238887500D03*
D11*
X621625000Y-238387500D02*
X621665000Y-237807500D01*
D12*
X621665000Y-237807500D03*
D11*
X615315000Y-240347500D02*
X616625002Y-238887500D01*
D12*
X616625000Y-238887500D03*
D11*
X640675000Y-238387500D02*
X640715000Y-237807500D01*
D12*
X640715000Y-237807500D03*
D11*
X634365000Y-240347500D02*
X635675002Y-238887500D01*
D12*
X635675000Y-238887500D03*
D11*
X659725000Y-238387500D02*
X659765000Y-237807500D01*
D12*
X659765000Y-237807500D03*
D11*
X653415000Y-240347500D02*
X654725002Y-238887500D01*
D12*
X654725000Y-238887500D03*
D11*
X678775000Y-238387500D02*
X678815000Y-237807500D01*
D12*
X678815000Y-237807500D03*
D11*
X672465000Y-240347500D02*
X673775002Y-238887500D01*
D12*
X673775000Y-238887500D03*
D11*
X702587500Y-238387500D02*
X702627500Y-237807500D01*
D12*
X702627500Y-237807500D03*
D11*
X696277500Y-240347500D02*
X697587502Y-238887500D01*
D12*
X697587500Y-238887500D03*
D11*
X726400000Y-238387500D02*
X726440000Y-237807500D01*
D12*
X726440000Y-237807500D03*
D11*
X720090000Y-240347500D02*
X721400002Y-238887500D01*
D12*
X721400000Y-238887500D03*
D11*
X397787500Y-257437500D02*
X397827500Y-256857500D01*
D12*
X397827500Y-256857500D03*
D11*
X391477500Y-259397500D02*
X392787502Y-257937500D01*
D12*
X392787500Y-257937500D03*
D11*
X473987500Y-257437500D02*
X474027500Y-256857500D01*
D12*
X474027500Y-256857500D03*
D11*
X467677500Y-259397500D02*
X468987502Y-257937500D01*
D12*
X468987500Y-257937500D03*
D11*
X493037500Y-257437500D02*
X493077500Y-256857500D01*
D12*
X493077500Y-256857500D03*
D11*
X486727500Y-259397500D02*
X488037502Y-257937500D01*
D12*
X488037500Y-257937500D03*
D11*
X512087500Y-257437500D02*
X512127500Y-256857500D01*
D12*
X512127500Y-256857500D03*
D11*
X505777500Y-259397500D02*
X507087502Y-257937500D01*
D12*
X507087500Y-257937500D03*
D11*
X531137500Y-257437500D02*
X531177500Y-256857500D01*
D12*
X531177500Y-256857500D03*
D11*
X524827500Y-259397500D02*
X526137502Y-257937500D01*
D12*
X526137500Y-257937500D03*
D11*
X550187500Y-257437500D02*
X550227500Y-256857500D01*
D12*
X550227500Y-256857500D03*
D11*
X543877500Y-259397500D02*
X545187502Y-257937500D01*
D12*
X545187500Y-257937500D03*
D11*
X569237500Y-257437500D02*
X569277500Y-256857500D01*
D12*
X569277500Y-256857500D03*
D11*
X562927500Y-259397500D02*
X564237502Y-257937500D01*
D12*
X564237500Y-257937500D03*
D11*
X588287500Y-257437500D02*
X588327500Y-256857500D01*
D12*
X588327500Y-256857500D03*
D11*
X581977500Y-259397500D02*
X583287502Y-257937500D01*
D12*
X583287500Y-257937500D03*
D11*
X607337500Y-257437500D02*
X607377500Y-256857500D01*
D12*
X607377500Y-256857500D03*
D11*
X601027500Y-259397500D02*
X602337502Y-257937500D01*
D12*
X602337500Y-257937500D03*
D11*
X626387500Y-257437500D02*
X626427500Y-256857500D01*
D12*
X626427500Y-256857500D03*
D11*
X620077500Y-259397500D02*
X621387502Y-257937500D01*
D12*
X621387500Y-257937500D03*
D11*
X645437500Y-257437500D02*
X645477500Y-256857500D01*
D12*
X645477500Y-256857500D03*
D11*
X639127500Y-259397500D02*
X640437502Y-257937500D01*
D12*
X640437500Y-257937500D03*
D11*
X726400000Y-257437500D02*
X726440000Y-256857500D01*
D12*
X726440000Y-256857500D03*
D11*
X720090000Y-259397500D02*
X721400002Y-257937500D01*
D12*
X721400000Y-257937500D03*
D11*
X416837500Y-276487500D02*
X416877500Y-275907500D01*
D12*
X416877500Y-275907500D03*
D11*
X410527500Y-278447500D02*
X411837502Y-276987500D01*
D12*
X411837500Y-276987500D03*
D11*
X483512500Y-276487500D02*
X483552500Y-275907500D01*
D12*
X483552500Y-275907500D03*
D11*
X477202500Y-278447500D02*
X478512502Y-276987500D01*
D12*
X478512500Y-276987500D03*
D11*
X502562500Y-276487500D02*
X502602500Y-275907500D01*
D12*
X502602500Y-275907500D03*
D11*
X496252500Y-278447500D02*
X497562502Y-276987500D01*
D12*
X497562500Y-276987500D03*
D11*
X521612500Y-276487500D02*
X521652500Y-275907500D01*
D12*
X521652500Y-275907500D03*
D11*
X515302500Y-278447500D02*
X516612502Y-276987500D01*
D12*
X516612500Y-276987500D03*
D11*
X540662500Y-276487500D02*
X540702500Y-275907500D01*
D12*
X540702500Y-275907500D03*
D11*
X534352500Y-278447500D02*
X535662502Y-276987500D01*
D12*
X535662500Y-276987500D03*
D11*
X559712500Y-276487500D02*
X559752500Y-275907500D01*
D12*
X559752500Y-275907500D03*
D11*
X553402500Y-278447500D02*
X554712502Y-276987500D01*
D12*
X554712500Y-276987500D03*
D11*
X616862500Y-276487500D02*
X616902500Y-275907500D01*
D12*
X616902500Y-275907500D03*
D11*
X610552500Y-278447500D02*
X611862502Y-276987500D01*
D12*
X611862500Y-276987500D03*
D11*
X635912500Y-276487500D02*
X635952500Y-275907500D01*
D12*
X635952500Y-275907500D03*
D11*
X629602500Y-278447500D02*
X630912502Y-276987500D01*
D12*
X630912500Y-276987500D03*
D11*
X654962500Y-276487500D02*
X655002500Y-275907500D01*
D12*
X655002500Y-275907500D03*
D11*
X648652500Y-278447500D02*
X649962502Y-276987500D01*
D12*
X649962500Y-276987500D03*
D11*
X726400000Y-276487500D02*
X726440000Y-275907500D01*
D12*
X726440000Y-275907500D03*
D11*
X720090000Y-278447500D02*
X721400002Y-276987500D01*
D12*
X721400000Y-276987500D03*
D11*
X397787500Y-295537500D02*
X397827500Y-294957500D01*
D12*
X397827500Y-294957500D03*
D11*
X391477500Y-297497500D02*
X392787502Y-296037500D01*
D12*
X392787500Y-296037500D03*
D11*
X416837500Y-295537500D02*
X416877500Y-294957500D01*
D12*
X416877500Y-294957500D03*
D11*
X410527500Y-297497500D02*
X411837502Y-296037500D01*
D12*
X411837500Y-296037500D03*
D11*
X445412500Y-295537500D02*
X445452500Y-294957500D01*
D12*
X445452500Y-294957500D03*
D11*
X439102500Y-297497500D02*
X440412502Y-296037500D01*
D12*
X440412500Y-296037500D03*
D21*
X406910000Y-222140000D03*
X406910000Y-224340000D03*
X403040000Y-222170000D03*
X403040000Y-224370000D03*
D22*
X403900000Y-228370000D03*
X404850000Y-228370000D03*
X405800000Y-228370000D03*
X405800000Y-231070000D03*
X403900000Y-231070000D03*
D11*
X416837500Y-257437500D02*
X416877500Y-256857500D01*
D12*
X416877500Y-256857500D03*
D11*
X410527500Y-259397500D02*
X411837502Y-257937500D01*
D12*
X411837500Y-257937500D03*
D11*
X664487500Y-257437500D02*
X664527500Y-256857500D01*
D12*
X664527500Y-256857500D03*
D11*
X658177500Y-259397500D02*
X659487502Y-257937500D01*
D12*
X659487500Y-257937500D03*
D11*
X695443750Y-257437500D02*
X695483750Y-256857500D01*
D12*
X695483750Y-256857500D03*
D11*
X689133750Y-259397500D02*
X690443752Y-257937500D01*
D12*
X690443750Y-257937500D03*
D11*
X397787500Y-276487500D02*
X397827500Y-275907500D01*
D12*
X397827500Y-275907500D03*
D11*
X391477500Y-278447500D02*
X392787502Y-276987500D01*
D12*
X392787500Y-276987500D03*
D11*
X452556250Y-276487500D02*
X452596250Y-275907500D01*
D12*
X452596250Y-275907500D03*
D11*
X446246250Y-278447500D02*
X447556252Y-276987500D01*
D12*
X447556250Y-276987500D03*
D11*
X681156250Y-276487500D02*
X681196250Y-275907500D01*
D12*
X681196250Y-275907500D03*
D11*
X674846250Y-278447500D02*
X676156252Y-276987500D01*
D12*
X676156250Y-276987500D03*
D11*
X493037500Y-295537500D02*
X493077500Y-294957500D01*
D12*
X493077500Y-294957500D03*
D11*
X486727500Y-297497500D02*
X488037502Y-296037500D01*
D12*
X488037500Y-296037500D03*
D11*
X535900000Y-295537500D02*
X535940000Y-294957500D01*
D12*
X535940000Y-294957500D03*
D11*
X529590000Y-297497500D02*
X530900002Y-296037500D01*
D12*
X530900000Y-296037500D03*
D11*
X707350000Y-295537500D02*
X707390000Y-294957500D01*
D12*
X707390000Y-294957500D03*
D11*
X701040000Y-297497500D02*
X702350002Y-296037500D01*
D12*
X702350000Y-296037500D03*
D11*
X726400000Y-295537500D02*
X726440000Y-294957500D01*
D12*
X726440000Y-294957500D03*
D11*
X720090000Y-297497500D02*
X721400002Y-296037500D01*
D12*
X721400000Y-296037500D03*
D11*
X593050000Y-295537500D02*
X593090000Y-294957500D01*
D12*
X593090000Y-294957500D03*
D11*
X586740000Y-297497500D02*
X588050002Y-296037500D01*
D12*
X588050000Y-296037500D03*
D11*
X654962500Y-295537500D02*
X655002500Y-294957500D01*
D12*
X655002500Y-294957500D03*
D11*
X648652500Y-297497500D02*
X649962502Y-296037500D01*
D12*
X649962500Y-296037500D03*
D11*
X688300000Y-295537500D02*
X688340000Y-294957500D01*
D12*
X688340000Y-294957500D03*
D11*
X681990000Y-297497500D02*
X683300002Y-296037500D01*
D12*
X683300000Y-296037500D03*
D11*
X574000000Y-295537500D02*
X574040000Y-294957500D01*
D12*
X574040000Y-294957500D03*
D11*
X567690000Y-297497500D02*
X569000002Y-296037500D01*
D12*
X569000000Y-296037500D03*
D11*
X612100000Y-295537500D02*
X612140000Y-294957500D01*
D12*
X612140000Y-294957500D03*
D11*
X605790000Y-297497500D02*
X607100002Y-296037500D01*
D12*
X607100000Y-296037500D03*
D11*
X631150000Y-295537500D02*
X631190000Y-294957500D01*
D12*
X631190000Y-294957500D03*
D11*
X624840000Y-297497500D02*
X626150002Y-296037500D01*
D12*
X626150000Y-296037500D03*
D23*
X407240000Y-219610000D03*
X402580000Y-220000000D03*
X458310000Y-271570000D03*
X441970000Y-263560000D03*
X445570000Y-244130000D03*
X442410000Y-240270000D03*
X537560000Y-290790000D03*
X414220000Y-221000000D03*
X409910000Y-218240000D03*
X413590000Y-268640000D03*
X410850000Y-272500000D03*
X410527500Y-244470000D03*
X410640000Y-248730000D03*
X433700000Y-255270000D03*
X431700000Y-257260000D03*
X426120000Y-255650000D03*
X422690000Y-253060000D03*
X435960000Y-250180000D03*
X432780000Y-246960000D03*
X429400000Y-243910000D03*
X429400000Y-243910000D03*
X425920000Y-245690000D03*
X422600000Y-248960000D03*
X428110000Y-257000000D03*
X459530000Y-251750000D03*
X462570000Y-251730000D03*
X431240000Y-254770000D03*
X428656486Y-266083514D03*
X431130000Y-255940000D03*
X429710000Y-266380000D03*
X405060000Y-220010000D03*
X405520000Y-247620000D03*
X404760000Y-221600000D03*
X405120000Y-248750000D03*
X426600000Y-264370000D03*
X426850000Y-258220000D03*
D24*
X408012500Y-216995000D02*
X408012500Y-217270000D01*
X408012500Y-217270000D02*
X410527500Y-219785000D01*
X410527500Y-219785000D02*
X410527500Y-221297500D01*
X413000000Y-221000000D02*
X414220000Y-221000000D01*
X411837500Y-219837500D02*
X413000000Y-221000000D01*
X410240000Y-218240000D02*
X409910000Y-218240000D01*
X411837500Y-219837500D02*
X410240000Y-218240000D01*
X411837500Y-276987500D02*
X411837500Y-273487500D01*
X411837500Y-273487500D02*
X410850000Y-272500000D01*
X435758936Y-255580509D02*
X435157896Y-254979469D01*
X433990531Y-254979469D02*
X433700000Y-255270000D01*
X435157896Y-254979469D02*
X433990531Y-254979469D01*
X431700000Y-257684264D02*
X431700000Y-257260000D01*
X431700000Y-257885534D02*
X431700000Y-257684264D01*
X432576955Y-258762489D02*
X431700000Y-257885534D01*
X425695736Y-255650000D02*
X426120000Y-255650000D01*
X424800000Y-255650000D02*
X425695736Y-255650000D01*
X423455278Y-256994722D02*
X424800000Y-255650000D01*
X422488148Y-252858148D02*
X422690000Y-253060000D01*
X420520784Y-252858148D02*
X422488148Y-252858148D01*
X419919744Y-253459188D02*
X420520784Y-252858148D01*
X441483750Y-259397500D02*
X440450000Y-258363750D01*
X440450000Y-258363750D02*
X440450000Y-256890000D01*
X431550000Y-274260000D02*
X432419239Y-275129239D01*
X445965260Y-276987500D02*
X447556250Y-276987500D01*
X432419239Y-275129239D02*
X432419239Y-275905246D01*
X433501493Y-276987500D02*
X445965260Y-276987500D01*
X432419239Y-275905246D02*
X433501493Y-276987500D01*
X435960000Y-250180000D02*
X436950061Y-250180000D01*
X437279216Y-250241852D02*
X437880256Y-249640812D01*
X436950061Y-250180000D02*
X437011913Y-250241852D01*
X437011913Y-250241852D02*
X437279216Y-250241852D01*
X432780000Y-246960000D02*
X433490000Y-246960000D01*
X433490000Y-246960000D02*
X434344722Y-246105278D01*
X429400000Y-243910000D02*
X429468932Y-243910000D01*
X429468932Y-243910000D02*
X430809188Y-242569744D01*
X425920000Y-245690000D02*
X425920000Y-245034466D01*
X425920000Y-245034466D02*
X425223045Y-244337511D01*
X422600000Y-248960000D02*
X422600000Y-248785534D01*
X422600000Y-248785534D02*
X421687511Y-247873045D01*
X426990812Y-260530256D02*
X428110000Y-259411068D01*
X428110000Y-259411068D02*
X428110000Y-257000000D01*
X426990812Y-260530256D02*
X426100675Y-261420393D01*
X426100675Y-261750675D02*
X428050000Y-263700000D01*
X426100675Y-261420393D02*
X426100675Y-261750675D01*
X428660000Y-268862000D02*
X428660000Y-269720000D01*
X428050000Y-263700000D02*
X428050000Y-268252000D01*
X428050000Y-268252000D02*
X428660000Y-268862000D01*
X406050000Y-234080000D02*
X406050000Y-233197000D01*
X406050000Y-233197000D02*
X404850000Y-231997000D01*
X404850000Y-231997000D02*
X404850000Y-229408000D01*
X404850000Y-229408000D02*
X404850000Y-228370000D01*
X403040000Y-224370000D02*
X403748000Y-224370000D01*
X403748000Y-224370000D02*
X404850000Y-225472000D01*
X404850000Y-225472000D02*
X404850000Y-225692000D01*
X404850000Y-228370000D02*
X404850000Y-225692000D01*
X404850000Y-225692000D02*
X406202000Y-224340000D01*
X406202000Y-224340000D02*
X406910000Y-224340000D01*
X401612500Y-216995000D02*
X401612500Y-216462500D01*
X401612500Y-216462500D02*
X401281510Y-216131510D01*
X401281510Y-216131510D02*
X401281510Y-214408490D01*
X401281510Y-214408490D02*
X402250000Y-213440000D01*
X402250000Y-213440000D02*
X407426501Y-213440000D01*
X407426501Y-213440000D02*
X408316501Y-214330000D01*
X408316501Y-214330000D02*
X408316501Y-216124721D01*
X408316501Y-216124721D02*
X408012500Y-216428722D01*
X408012500Y-216428722D02*
X408012500Y-216995000D01*
X457940000Y-251740000D02*
X459520000Y-251740000D01*
X459520000Y-251740000D02*
X459530000Y-251750000D01*
X464420000Y-251750000D02*
X462590000Y-251750000D01*
X462590000Y-251750000D02*
X462570000Y-251730000D01*
X437824798Y-257660000D02*
X439455000Y-257660000D01*
X439455000Y-257660000D02*
X440225000Y-256890000D01*
X440225000Y-256890000D02*
X440450000Y-256890000D01*
X435758936Y-255580509D02*
X437486436Y-257308009D01*
X437486436Y-257308009D02*
X437486436Y-257321638D01*
X437486436Y-257321638D02*
X437824798Y-257660000D01*
X432576955Y-258762489D02*
X434518010Y-260703544D01*
X434518010Y-260703544D02*
X434518010Y-261768956D01*
X436213502Y-263773172D02*
X436213502Y-264403502D01*
X434518010Y-261768956D02*
X436213502Y-263464448D01*
X436213502Y-263464448D02*
X436213502Y-263773172D01*
X422820000Y-268832000D02*
X422338585Y-268350585D01*
X422338585Y-259830000D02*
X422338585Y-259970000D01*
X422338585Y-258227367D02*
X422338585Y-259830000D01*
X422820000Y-269690000D02*
X422820000Y-268832000D01*
X422338585Y-258111415D02*
X422338585Y-258227367D01*
X423455278Y-256994722D02*
X422338585Y-258111415D01*
X422338585Y-268350585D02*
X422338585Y-259830000D01*
X414790000Y-254450000D02*
X418928932Y-254450000D01*
X418928932Y-254450000D02*
X419919744Y-253459188D01*
X431730000Y-236830000D02*
X433173502Y-236830000D01*
X433173502Y-236830000D02*
X433601751Y-237258249D01*
X430938102Y-237621898D02*
X431730000Y-236830000D01*
X430938102Y-240386947D02*
X430938102Y-237621898D01*
X430809188Y-242569744D02*
X431474685Y-241904247D01*
X431474685Y-241904247D02*
X431474685Y-240923530D01*
X431474685Y-240923530D02*
X430938102Y-240386947D01*
X423830000Y-240430000D02*
X423830000Y-240240000D01*
X423830000Y-236225000D02*
X425020000Y-235035000D01*
X423830000Y-242944466D02*
X423830000Y-240430000D01*
X425020000Y-235035000D02*
X425020000Y-234810000D01*
X423830000Y-240430000D02*
X423830000Y-236225000D01*
X421687511Y-247873045D02*
X420276457Y-246461991D01*
X420276457Y-246461991D02*
X405616991Y-246461991D01*
X405616991Y-246461991D02*
X404075000Y-244920000D01*
X404075000Y-244920000D02*
X403850000Y-244920000D01*
X425223045Y-244337511D02*
X423830000Y-242944466D01*
X427006676Y-253899317D02*
X431040000Y-257932641D01*
X431040000Y-257932641D02*
X432223402Y-259116043D01*
X427006676Y-251120000D02*
X427006676Y-253899317D01*
X427006676Y-251120000D02*
X427490000Y-251603324D01*
X427490000Y-251603324D02*
X427490000Y-255580000D01*
X426960000Y-257220000D02*
X427490000Y-257750000D01*
X427490000Y-255580000D02*
X426960000Y-256110000D01*
X426960000Y-256110000D02*
X426960000Y-257220000D01*
X427490000Y-257750000D02*
X427490000Y-259323961D01*
X427490000Y-259323961D02*
X426637258Y-260176703D01*
X428660000Y-271620000D02*
X431450000Y-271620000D01*
X431450000Y-271620000D02*
X431550000Y-271720000D01*
X425682665Y-261131296D02*
X426637258Y-260176703D01*
X425682665Y-261923820D02*
X425682665Y-261131296D01*
X428210000Y-249916676D02*
X427006676Y-251120000D01*
X427006676Y-251120000D02*
X426300000Y-251826676D01*
X429496676Y-248630000D02*
X428210000Y-249916676D01*
X436112489Y-255226955D02*
X435065534Y-254180000D01*
X435065534Y-254180000D02*
X432473324Y-254180000D01*
X432473324Y-254180000D02*
X428210000Y-249916676D01*
X435030000Y-251040000D02*
X437188175Y-251040000D01*
X437188175Y-251040000D02*
X438233810Y-249994365D01*
X434585405Y-250595405D02*
X435030000Y-251040000D01*
X434575405Y-250595405D02*
X434585405Y-250595405D01*
X434575405Y-250595405D02*
X433720000Y-249740000D01*
X435806676Y-251826676D02*
X436130000Y-251826676D01*
X436130000Y-251826676D02*
X438282813Y-251826676D01*
X432940000Y-250550000D02*
X434216676Y-251826676D01*
X434216676Y-251826676D02*
X436130000Y-251826676D01*
X432940000Y-248217107D02*
X432527107Y-248630000D01*
X434698276Y-246458831D02*
X432940000Y-248217107D01*
X432940000Y-248217107D02*
X432940000Y-250550000D01*
X434698276Y-246458831D02*
X433720000Y-247437107D01*
X433720000Y-247437107D02*
X433720000Y-249740000D01*
X452630023Y-252271990D02*
X453293144Y-252935112D01*
X438282813Y-251826676D02*
X438728127Y-252271990D01*
X453293144Y-252935112D02*
X467704888Y-252935112D01*
X438728127Y-252271990D02*
X452630023Y-252271990D01*
X467704888Y-252935112D02*
X468190000Y-252450000D01*
X468190000Y-252280000D02*
X467660000Y-251750000D01*
X468190000Y-252450000D02*
X468190000Y-252280000D01*
X467660000Y-251750000D02*
X466320000Y-251750000D01*
X432527107Y-248630000D02*
X430360000Y-248630000D01*
X430360000Y-248630000D02*
X430210000Y-248630000D01*
X431162742Y-242923297D02*
X430561702Y-243524337D01*
X430561702Y-243524337D02*
X430561702Y-248428298D01*
X430561702Y-248428298D02*
X430360000Y-248630000D01*
X430210000Y-248630000D02*
X429496676Y-248630000D01*
X425576598Y-243983957D02*
X426177638Y-244584997D01*
X426177638Y-244584997D02*
X426177638Y-244597638D01*
X426177638Y-244597638D02*
X430210000Y-248630000D01*
X426400000Y-251826676D02*
X426300000Y-251826676D01*
X426300000Y-251826676D02*
X420845149Y-251826676D01*
X426400000Y-251826676D02*
X426400000Y-253342893D01*
X426400000Y-253342893D02*
X423101724Y-256641169D01*
X422041064Y-247519491D02*
X422642104Y-248120531D01*
X422642104Y-248120531D02*
X422693855Y-248120531D01*
X422693855Y-248120531D02*
X426400000Y-251826676D01*
X420845149Y-251826676D02*
X419566190Y-253105635D01*
X428660000Y-271620000D02*
X428660000Y-271395000D01*
X427458845Y-263700000D02*
X425682665Y-261923820D01*
X428660000Y-271395000D02*
X427438010Y-270173010D01*
X427438010Y-270173010D02*
X427438010Y-264361990D01*
X427438010Y-264361990D02*
X427458845Y-264341155D01*
X427458845Y-264341155D02*
X427458845Y-263700000D01*
X437632770Y-250595405D02*
X438233810Y-249994365D01*
X403550000Y-234080000D02*
X399462278Y-234080000D01*
X399462278Y-234080000D02*
X396376156Y-237166122D01*
X396376156Y-238975600D02*
X397199400Y-239798844D01*
X397199400Y-239798844D02*
X400403844Y-239798844D01*
X396376156Y-237166122D02*
X396376156Y-238975600D01*
X400403844Y-239798844D02*
X405525000Y-244920000D01*
X405525000Y-244920000D02*
X405750000Y-244920000D01*
X403550000Y-234080000D02*
X403550000Y-231420000D01*
X403550000Y-231420000D02*
X403900000Y-231070000D01*
X456040000Y-251740000D02*
X439030000Y-251740000D01*
X439030000Y-251740000D02*
X438650000Y-251360000D01*
X438650000Y-251360000D02*
X438130061Y-251360000D01*
X438130061Y-251360000D02*
X437632770Y-250862709D01*
X437632770Y-250862709D02*
X437632770Y-250595405D01*
X436112489Y-255226955D02*
X437775534Y-256890000D01*
X437775534Y-256890000D02*
X438550000Y-256890000D01*
X434100000Y-260992641D02*
X434100000Y-262290000D01*
X434100000Y-262290000D02*
X434870000Y-263060000D01*
X432223402Y-259116043D02*
X434100000Y-260992641D01*
X422820000Y-271365000D02*
X422820000Y-271590000D01*
X421810000Y-270355000D02*
X422820000Y-271365000D01*
X421810000Y-260290000D02*
X421810000Y-270355000D01*
X421810000Y-257932893D02*
X421810000Y-260290000D01*
X421810000Y-260290000D02*
X421810000Y-260420000D01*
X423101724Y-256641169D02*
X421810000Y-257932893D01*
X419566190Y-253105635D02*
X418994337Y-253677488D01*
X418994337Y-253677488D02*
X413887512Y-253677488D01*
X413887512Y-253677488D02*
X413115000Y-254450000D01*
X413115000Y-254450000D02*
X412890000Y-254450000D01*
X431162742Y-242923297D02*
X431892695Y-242193344D01*
X431892695Y-242193344D02*
X431892695Y-240732695D01*
X431892695Y-240732695D02*
X432258249Y-240367141D01*
X432258249Y-240367141D02*
X432258249Y-238601751D01*
X425020000Y-236710000D02*
X425020000Y-237568000D01*
X425020000Y-237568000D02*
X424248010Y-238339990D01*
X424248010Y-238339990D02*
X424248010Y-242655369D01*
X424248010Y-242655369D02*
X425576598Y-243983957D01*
X406237000Y-246040000D02*
X420561573Y-246040000D01*
X420561573Y-246040000D02*
X422041064Y-247519491D01*
X405750000Y-244920000D02*
X405750000Y-245553000D01*
X405750000Y-245553000D02*
X406237000Y-246040000D01*
X431412893Y-254770000D02*
X431240000Y-254770000D01*
X433991169Y-257348276D02*
X431412893Y-254770000D01*
X428656486Y-266083514D02*
X428656486Y-266507778D01*
X428656486Y-266507778D02*
X431598708Y-269450000D01*
X431598708Y-269450000D02*
X432770000Y-269450000D01*
X432770000Y-269450000D02*
X433212429Y-269892429D01*
X433212429Y-269892429D02*
X433212429Y-271327571D01*
X433212429Y-271327571D02*
X432820000Y-271720000D01*
X433637615Y-257701829D02*
X431875786Y-255940000D01*
X431875786Y-255940000D02*
X431554264Y-255940000D01*
X431554264Y-255940000D02*
X431130000Y-255940000D01*
X429740000Y-266846113D02*
X429740000Y-266410000D01*
X429740000Y-266410000D02*
X429710000Y-266380000D01*
X429740000Y-266846113D02*
X431790000Y-268896113D01*
X431790000Y-268896113D02*
X432894959Y-268896113D01*
X434480000Y-270481154D02*
X434480000Y-272600000D01*
X432894959Y-268896113D02*
X434480000Y-270481154D01*
X434480000Y-272600000D02*
X433212429Y-273867571D01*
X433212429Y-273867571D02*
X432820000Y-274260000D01*
X405060000Y-219585736D02*
X405060000Y-220010000D01*
X405060000Y-218390000D02*
X405060000Y-219585736D01*
X405240000Y-218210000D02*
X405060000Y-218390000D01*
X419987359Y-246880000D02*
X406280000Y-246880000D01*
X405520000Y-247620000D02*
X405819999Y-247320001D01*
X405839999Y-247320001D02*
X406280000Y-246880000D01*
X405819999Y-247320001D02*
X405839999Y-247320001D01*
X405240000Y-218210000D02*
X405562500Y-217887500D01*
X405562500Y-217887500D02*
X405562500Y-216995000D01*
X404944500Y-218210000D02*
X405240000Y-218210000D01*
X404562500Y-216995000D02*
X404562500Y-217828000D01*
X404562500Y-217828000D02*
X404944500Y-218210000D01*
X421333957Y-248226598D02*
X419987359Y-246880000D01*
X404460001Y-221300001D02*
X404760000Y-221600000D01*
X404062500Y-220902500D02*
X404460001Y-221300001D01*
X404062500Y-216995000D02*
X404062500Y-220902500D01*
X419710252Y-247310000D02*
X407300000Y-247310000D01*
X405120000Y-248750000D02*
X405544264Y-248750000D01*
X405544264Y-248750000D02*
X406984264Y-247310000D01*
X406984264Y-247310000D02*
X407300000Y-247310000D01*
X404870000Y-215930000D02*
X405062500Y-216122500D01*
X405062500Y-216122500D02*
X405062500Y-216995000D01*
X404294500Y-215930000D02*
X404870000Y-215930000D01*
X404062500Y-216995000D02*
X404062500Y-216162000D01*
X404062500Y-216162000D02*
X404294500Y-215930000D01*
X420980404Y-248580152D02*
X419710252Y-247310000D01*
X406562500Y-216995000D02*
X406562500Y-218267500D01*
X406562500Y-218267500D02*
X406090000Y-218740000D01*
X406090000Y-218740000D02*
X406090000Y-220117500D01*
X406090000Y-220117500D02*
X406562500Y-220590000D01*
X406562500Y-220590000D02*
X406562500Y-220980778D01*
X406562500Y-220980778D02*
X406910000Y-221328278D01*
X406910000Y-221328278D02*
X406910000Y-222140000D01*
X403562500Y-216995000D02*
X403562500Y-221647500D01*
X403562500Y-221647500D02*
X403040000Y-222170000D01*
X407212500Y-216995000D02*
X407212500Y-217828000D01*
X407212500Y-217828000D02*
X408093499Y-218708999D01*
X408093499Y-218708999D02*
X408093499Y-225038501D01*
X408093499Y-225038501D02*
X405800000Y-227332000D01*
X405800000Y-227332000D02*
X405800000Y-228370000D01*
X402412500Y-216995000D02*
X402412500Y-217828000D01*
X402412500Y-217828000D02*
X401910000Y-218330500D01*
X401910000Y-218330500D02*
X401909500Y-218330500D01*
X401909500Y-218330500D02*
X401531501Y-218708499D01*
X401531501Y-218708499D02*
X401531501Y-224963501D01*
X401531501Y-224963501D02*
X403900000Y-227332000D01*
X403900000Y-227332000D02*
X403900000Y-228370000D01*
X406490000Y-214380000D02*
X407088499Y-214978499D01*
X407088499Y-216870999D02*
X407212500Y-216995000D01*
X407088499Y-214978499D02*
X407088499Y-216870999D01*
X403270000Y-214380000D02*
X406490000Y-214380000D01*
X402536501Y-215113499D02*
X403270000Y-214380000D01*
X402536501Y-216870999D02*
X402536501Y-215113499D01*
X402412500Y-216995000D02*
X402536501Y-216870999D01*
X407758328Y-212678328D02*
X414310000Y-219230000D01*
X417660000Y-223540000D02*
X417660000Y-223802722D01*
X414310000Y-219230000D02*
X414310000Y-220218278D01*
X414310000Y-220218278D02*
X417631722Y-223540000D01*
X417631722Y-223540000D02*
X417660000Y-223540000D01*
X397827500Y-218757500D02*
X397827500Y-215682500D01*
X401920000Y-212678328D02*
X407758328Y-212678328D01*
X397827500Y-215682500D02*
X399860000Y-213650000D01*
X399860000Y-213650000D02*
X400948328Y-213650000D01*
X400948328Y-213650000D02*
X401920000Y-212678328D01*
X417660000Y-223802722D02*
X417670000Y-223812722D01*
X417670000Y-223812722D02*
X417670000Y-224200000D01*
X417670000Y-224200000D02*
X421141990Y-227671990D01*
X421141990Y-244499097D02*
X423101724Y-246458831D01*
X421141990Y-227671990D02*
X421141990Y-244499097D01*
X421560000Y-223440000D02*
X421560000Y-244210000D01*
X421560000Y-244210000D02*
X423455278Y-246105278D01*
X416877500Y-218757500D02*
X421560000Y-223440000D01*
X439450000Y-230470000D02*
X440690000Y-229230000D01*
X440690000Y-229230000D02*
X440690000Y-218757500D01*
X424180000Y-230470000D02*
X439450000Y-230470000D01*
X422070000Y-232580000D02*
X424180000Y-230470000D01*
X422070000Y-244012893D02*
X422070000Y-232580000D01*
X423808831Y-245751724D02*
X422070000Y-244012893D01*
X424162385Y-245398171D02*
X422490000Y-243725786D01*
X422488010Y-232951990D02*
X424540000Y-230900000D01*
X440160000Y-230480000D02*
X458350000Y-230480000D01*
X422490000Y-243725786D02*
X422490000Y-241610000D01*
X422490000Y-241610000D02*
X422488010Y-241608010D01*
X422488010Y-241608010D02*
X422488010Y-232951990D01*
X424540000Y-230900000D02*
X439740000Y-230900000D01*
X439740000Y-230900000D02*
X440160000Y-230480000D01*
X458350000Y-230480000D02*
X459740000Y-229090000D01*
X459740000Y-229090000D02*
X459740000Y-218757500D01*
X477210000Y-230430000D02*
X478790000Y-228850000D01*
X478790000Y-228850000D02*
X478790000Y-218757500D01*
X458991155Y-230430000D02*
X477210000Y-230430000D01*
X440333145Y-230898010D02*
X458523145Y-230898010D01*
X458523145Y-230898010D02*
X458991155Y-230430000D01*
X424791990Y-231318010D02*
X439913145Y-231318010D01*
X439913145Y-231318010D02*
X440333145Y-230898010D01*
X422940000Y-233170000D02*
X424791990Y-231318010D01*
X422940000Y-243468680D02*
X422940000Y-233170000D01*
X424515938Y-245044618D02*
X422940000Y-243468680D01*
X496870000Y-230400000D02*
X497840000Y-229430000D01*
X497840000Y-229430000D02*
X497840000Y-218757500D01*
X477860000Y-230400000D02*
X496870000Y-230400000D01*
X477411990Y-230848010D02*
X477860000Y-230400000D01*
X459201990Y-230848010D02*
X477411990Y-230848010D01*
X440560000Y-231380000D02*
X458670000Y-231380000D01*
X458670000Y-231380000D02*
X459201990Y-230848010D01*
X440110000Y-231830000D02*
X440560000Y-231380000D01*
X425110000Y-231830000D02*
X440110000Y-231830000D01*
X423358010Y-233581990D02*
X425110000Y-231830000D01*
X423358010Y-243179583D02*
X423358010Y-233581990D01*
X424869491Y-244691064D02*
X423358010Y-243179583D01*
X425328010Y-242321156D02*
X425328010Y-239610000D01*
X427823980Y-237114030D02*
X425328010Y-239610000D01*
X427823980Y-235150566D02*
X427823980Y-237114030D01*
X430170000Y-232666020D02*
X440725135Y-232666020D01*
X430170000Y-232666020D02*
X427823981Y-235012039D01*
X427823981Y-235012039D02*
X427823980Y-235150566D01*
X426283705Y-243276851D02*
X425328010Y-242321156D01*
X497216290Y-231236020D02*
X497540000Y-230912309D01*
X515868845Y-230912309D02*
X516381154Y-230400000D01*
X440725135Y-232666020D02*
X441143145Y-232248010D01*
X441143145Y-232248010D02*
X459153145Y-232248010D01*
X459153145Y-232248010D02*
X459717124Y-231684030D01*
X516381154Y-230400000D02*
X534870000Y-230400000D01*
X535940000Y-229330000D02*
X535940000Y-218757500D01*
X459717124Y-231684030D02*
X477877125Y-231684030D01*
X477877125Y-231684030D02*
X478325135Y-231236020D01*
X497540000Y-230912309D02*
X515868845Y-230912309D01*
X478325135Y-231236020D02*
X497216290Y-231236020D01*
X534870000Y-230400000D02*
X535940000Y-229330000D01*
X478498279Y-231654030D02*
X478050270Y-232102040D01*
X478050270Y-232102040D02*
X460017960Y-232102040D01*
X554990000Y-218757500D02*
X554990000Y-228810000D01*
X425746020Y-239843980D02*
X425746020Y-242032059D01*
X516041989Y-231330319D02*
X497713146Y-231330319D01*
X554990000Y-228810000D02*
X553470000Y-230330000D01*
X428241990Y-235323711D02*
X428241990Y-237348010D01*
X553470000Y-230330000D02*
X535531155Y-230330000D01*
X535531155Y-230330000D02*
X535043145Y-230818010D01*
X441316289Y-232666020D02*
X440898279Y-233084030D01*
X516620000Y-230860000D02*
X516550000Y-230860000D01*
X535043145Y-230818010D02*
X516661990Y-230818010D01*
X516550000Y-230860000D02*
X516440000Y-230970000D01*
X516661990Y-230818010D02*
X516620000Y-230860000D01*
X460017960Y-232102040D02*
X459453980Y-232666020D01*
X516440000Y-230970000D02*
X516402308Y-230970000D01*
X516402308Y-230970000D02*
X516041989Y-231330319D01*
X497713146Y-231330319D02*
X497389435Y-231654030D01*
X430420000Y-233145701D02*
X428241990Y-235323711D01*
X497389435Y-231654030D02*
X478498279Y-231654030D01*
X459453980Y-232666020D02*
X441316289Y-232666020D01*
X440898279Y-233084030D02*
X430420000Y-233084030D01*
X430420000Y-233084030D02*
X430420000Y-233145701D01*
X428241990Y-237348010D02*
X425746020Y-239843980D01*
X425746020Y-242032059D02*
X426637258Y-242923297D01*
X426990812Y-242569744D02*
X426164030Y-241742962D01*
X430596856Y-233560000D02*
X441013464Y-233560000D01*
X426164030Y-241742962D02*
X426164030Y-240150000D01*
X573000000Y-230150000D02*
X574040000Y-229110000D01*
X516301671Y-231748329D02*
X516813980Y-231236020D01*
X498073269Y-232096731D02*
X498421671Y-231748329D01*
X426164030Y-240150000D02*
X426230000Y-240150000D01*
X441013464Y-233560000D02*
X441489433Y-233084030D01*
X426230000Y-240150000D02*
X428660000Y-237720000D01*
X428660000Y-237720000D02*
X428660000Y-235496856D01*
X535652310Y-230800000D02*
X553591154Y-230800000D01*
X478646733Y-232096731D02*
X498073269Y-232096731D01*
X428660000Y-235496856D02*
X430596856Y-233560000D01*
X478223417Y-232520049D02*
X478646733Y-232096731D01*
X441489433Y-233084030D02*
X459627125Y-233084030D01*
X516813980Y-231236020D02*
X535216290Y-231236020D01*
X460191104Y-232520050D02*
X478223417Y-232520049D01*
X459627125Y-233084030D02*
X460191104Y-232520050D01*
X498421671Y-231748329D02*
X516301671Y-231748329D01*
X535216290Y-231236020D02*
X535652310Y-230800000D01*
X553591154Y-230800000D02*
X554241154Y-230150000D01*
X554241154Y-230150000D02*
X573000000Y-230150000D01*
X574040000Y-229110000D02*
X574040000Y-218757500D01*
X427344365Y-242216190D02*
X426743325Y-241615150D01*
X426743325Y-241615150D02*
X426743325Y-240556675D01*
X478880000Y-232520000D02*
X498336339Y-232520000D01*
X459877960Y-233502040D02*
X460441942Y-232938058D01*
X573173145Y-230568010D02*
X573661155Y-230080000D01*
X426743325Y-240556675D02*
X429170000Y-238130000D01*
X441186609Y-233978010D02*
X441662579Y-233502040D01*
X429170000Y-238130000D02*
X429170000Y-235578010D01*
X478461942Y-232938058D02*
X478880000Y-232520000D01*
X429170000Y-235578010D02*
X430770000Y-233978010D01*
X591390000Y-230080000D02*
X593130000Y-228340000D01*
X430770000Y-233978010D02*
X441186609Y-233978010D01*
X441662579Y-233502040D02*
X459877960Y-233502040D01*
X460441942Y-232938058D02*
X478461942Y-232938058D01*
X593130000Y-228340000D02*
X593090000Y-228300000D01*
X498336339Y-232520000D02*
X498690000Y-232166339D01*
X498690000Y-232166339D02*
X516474816Y-232166339D01*
X516474816Y-232166339D02*
X516987125Y-231654030D01*
X516987125Y-231654030D02*
X535389435Y-231654030D01*
X553702308Y-231280000D02*
X554414298Y-230568010D01*
X535389435Y-231654030D02*
X535763465Y-231280000D01*
X535763465Y-231280000D02*
X553702308Y-231280000D01*
X554414298Y-230568010D02*
X573173145Y-230568010D01*
X573661155Y-230080000D02*
X591390000Y-230080000D01*
X593090000Y-228300000D02*
X593090000Y-218757500D01*
X460615086Y-233356068D02*
X478635087Y-233356068D01*
X427697918Y-241862637D02*
X427697918Y-241012082D01*
X478635087Y-233356068D02*
X479053144Y-232938010D01*
X573346290Y-230986020D02*
X573710000Y-230622309D01*
X441805773Y-233950000D02*
X460021154Y-233950000D01*
X516647961Y-232584349D02*
X517042310Y-232190000D01*
X498509484Y-232938010D02*
X498863145Y-232584349D01*
X427697918Y-241012082D02*
X429600000Y-239110000D01*
X430962826Y-234396020D02*
X441359754Y-234396020D01*
X429600000Y-239110000D02*
X429600000Y-235758846D01*
X517042310Y-232190000D02*
X535570000Y-232190000D01*
X612140000Y-228660000D02*
X612140000Y-218757500D01*
X429600000Y-235758846D02*
X430962826Y-234396020D01*
X441359754Y-234396020D02*
X441805773Y-233950000D01*
X460021154Y-233950000D02*
X460615086Y-233356068D01*
X536061990Y-231698010D02*
X554041990Y-231698010D01*
X479053144Y-232938010D02*
X498509484Y-232938010D01*
X592150000Y-230100000D02*
X610700000Y-230100000D01*
X498863145Y-232584349D02*
X516647961Y-232584349D01*
X535570000Y-232190000D02*
X536061990Y-231698010D01*
X554041990Y-231698010D02*
X554753980Y-230986020D01*
X554753980Y-230986020D02*
X573346290Y-230986020D01*
X573710000Y-230622309D02*
X591627691Y-230622309D01*
X591627691Y-230622309D02*
X592150000Y-230100000D01*
X610700000Y-230100000D02*
X612140000Y-228660000D01*
X430102082Y-241862637D02*
X430102082Y-235847918D01*
X499036290Y-233002359D02*
X516821106Y-233002359D01*
X441926930Y-234420000D02*
X460260000Y-234420000D01*
X430102082Y-235847918D02*
X431135970Y-234814030D01*
X431135970Y-234814030D02*
X441532901Y-234814029D01*
X610711155Y-230680000D02*
X611201155Y-230190000D01*
X517215454Y-232608010D02*
X535743145Y-232608010D01*
X479453980Y-233356020D02*
X498682629Y-233356020D01*
X441532901Y-234814029D02*
X441926930Y-234420000D01*
X554215135Y-232116020D02*
X554927124Y-231404030D01*
X460260000Y-234420000D02*
X460900000Y-233780000D01*
X460900000Y-233780000D02*
X479030000Y-233780000D01*
X573909681Y-231040319D02*
X592079681Y-231040319D01*
X535743145Y-232608010D02*
X536235134Y-232116020D01*
X479030000Y-233780000D02*
X479453980Y-233356020D01*
X554927124Y-231404030D02*
X573545970Y-231404030D01*
X536235134Y-232116020D02*
X554215135Y-232116020D01*
X498682629Y-233356020D02*
X499036290Y-233002359D01*
X516821106Y-233002359D02*
X517215454Y-232608010D01*
X573545970Y-231404030D02*
X573909681Y-231040319D01*
X592079681Y-231040319D02*
X592440000Y-230680000D01*
X592440000Y-230680000D02*
X610711155Y-230680000D01*
X611201155Y-230190000D02*
X629860000Y-230190000D01*
X631190000Y-228860000D02*
X631190000Y-218757500D01*
X629860000Y-230190000D02*
X631190000Y-228860000D01*
X430455635Y-242216190D02*
X431056675Y-241615150D01*
X555267960Y-231822040D02*
X573719115Y-231822040D01*
X431056675Y-241615150D02*
X431056675Y-241096675D01*
X592711990Y-231098010D02*
X610884300Y-231098010D01*
X431056675Y-241096675D02*
X430520092Y-240560092D01*
X479203145Y-234198010D02*
X479627125Y-233774030D01*
X430520092Y-240560092D02*
X430520092Y-236099908D01*
X430520092Y-236099908D02*
X431340000Y-235280000D01*
X649390000Y-230240000D02*
X650240000Y-229390000D01*
X516994253Y-233420368D02*
X517388601Y-233026020D01*
X498865970Y-233774030D02*
X499219631Y-233420369D01*
X630401155Y-230240000D02*
X649390000Y-230240000D01*
X431340000Y-235280000D02*
X441770000Y-235280000D01*
X630033145Y-230608010D02*
X630401155Y-230240000D01*
X441770000Y-235280000D02*
X442211990Y-234838010D01*
X442211990Y-234838010D02*
X460433145Y-234838010D01*
X460433145Y-234838010D02*
X461073144Y-234198010D01*
X479627125Y-233774030D02*
X498865970Y-233774030D01*
X461073144Y-234198010D02*
X479203145Y-234198010D01*
X611374300Y-230608010D02*
X630033145Y-230608010D01*
X499219631Y-233420369D02*
X516994253Y-233420368D01*
X517388601Y-233026020D02*
X536033980Y-233026020D01*
X610884300Y-231098010D02*
X611374300Y-230608010D01*
X536033980Y-233026020D02*
X536525970Y-232534030D01*
X536525970Y-232534030D02*
X554555970Y-232534030D01*
X554555970Y-232534030D02*
X555267960Y-231822040D01*
X573719115Y-231822040D02*
X574082825Y-231458329D01*
X574082825Y-231458329D02*
X592351671Y-231458329D01*
X592351671Y-231458329D02*
X592711990Y-231098010D01*
X650240000Y-229390000D02*
X650240000Y-218757500D01*
X667870000Y-230340000D02*
X669032901Y-229177099D01*
X431516295Y-243276851D02*
X432840000Y-241953146D01*
X592524816Y-231876339D02*
X592885135Y-231516020D01*
X555580000Y-232260000D02*
X573872310Y-232260000D01*
X432840000Y-241953146D02*
X432840000Y-240348010D01*
X432840000Y-240348010D02*
X437490000Y-235698010D01*
X669032901Y-229177099D02*
X669042901Y-229177099D01*
X437490000Y-235698010D02*
X441943145Y-235698010D01*
X649691990Y-230658010D02*
X650010000Y-230340000D01*
X441943145Y-235698010D02*
X442331155Y-235310000D01*
X479937960Y-234192040D02*
X499039115Y-234192040D01*
X442331155Y-235310000D02*
X460600000Y-235310000D01*
X460600000Y-235310000D02*
X461293980Y-234616020D01*
X461293980Y-234616020D02*
X479513980Y-234616020D01*
X517155774Y-233850000D02*
X517167398Y-233838377D01*
X517167398Y-233838377D02*
X517555775Y-233450000D01*
X499381154Y-233850000D02*
X517155774Y-233850000D01*
X536342040Y-233450000D02*
X536840000Y-232952040D01*
X479513980Y-234616020D02*
X479937960Y-234192040D01*
X499039115Y-234192040D02*
X499381154Y-233850000D01*
X573872310Y-232260000D02*
X574255971Y-231876339D01*
X517555775Y-233450000D02*
X536342040Y-233450000D01*
X536840000Y-232952040D02*
X554887960Y-232952040D01*
X630574300Y-230658010D02*
X649691990Y-230658010D01*
X554887960Y-232952040D02*
X555580000Y-232260000D01*
X630206290Y-231026020D02*
X630574300Y-230658010D01*
X611547445Y-231026020D02*
X630206290Y-231026020D01*
X574255971Y-231876339D02*
X592524816Y-231876339D01*
X592885135Y-231516020D02*
X611057445Y-231516020D01*
X650010000Y-230340000D02*
X667870000Y-230340000D01*
X611057445Y-231516020D02*
X611547445Y-231026020D01*
X669042901Y-229177099D02*
X669250000Y-228970000D01*
X669250000Y-228970000D02*
X669250000Y-219337500D01*
X438280000Y-236534030D02*
X442307125Y-236534030D01*
X433676020Y-242531339D02*
X433676020Y-241138010D01*
X433676020Y-241138010D02*
X438280000Y-236534030D01*
X499840000Y-235050000D02*
X500203980Y-234686020D01*
X668144300Y-231248010D02*
X668461154Y-230931155D01*
X555341990Y-233808010D02*
X556000000Y-233150000D01*
X432223402Y-243983957D02*
X433676020Y-242531339D01*
X442673145Y-236168010D02*
X460961990Y-236168010D01*
X500203980Y-234686020D02*
X517502064Y-234686020D01*
X556000000Y-233150000D02*
X574164619Y-233150000D01*
X538610000Y-233830000D02*
X538631990Y-233808010D01*
X517902064Y-234286020D02*
X537023980Y-234286020D01*
X593299681Y-232450319D02*
X611359681Y-232450319D01*
X461677960Y-235452040D02*
X479860270Y-235452040D01*
X442307125Y-236534030D02*
X442673145Y-236168010D01*
X631435970Y-231494030D02*
X650217125Y-231494030D01*
X460961990Y-236168010D02*
X461677960Y-235452040D01*
X479860270Y-235452040D02*
X480262310Y-235050000D01*
X631050000Y-231880000D02*
X631435970Y-231494030D01*
X537023980Y-234286020D02*
X537480000Y-233830000D01*
X697865000Y-229005000D02*
X697865000Y-218757500D01*
X480262310Y-235050000D02*
X499840000Y-235050000D01*
X517502064Y-234686020D02*
X517902064Y-234286020D01*
X537480000Y-233830000D02*
X538610000Y-233830000D01*
X538631990Y-233808010D02*
X555341990Y-233808010D01*
X574164619Y-233150000D02*
X574602260Y-232712359D01*
X574602260Y-232712359D02*
X593037641Y-232712359D01*
X593037641Y-232712359D02*
X593299681Y-232450319D01*
X611359681Y-232450319D02*
X611930000Y-231880000D01*
X650217125Y-231494030D02*
X650463145Y-231248010D01*
X611930000Y-231880000D02*
X631050000Y-231880000D01*
X650463145Y-231248010D02*
X668144300Y-231248010D01*
X668461154Y-230931155D02*
X680812413Y-230931155D01*
X680812413Y-230931155D02*
X682516759Y-232635501D01*
X682516759Y-232635501D02*
X684154499Y-232635501D01*
X684154499Y-232635501D02*
X685810000Y-230980000D01*
X685810000Y-230980000D02*
X695890000Y-230980000D01*
X695890000Y-230980000D02*
X697865000Y-229005000D01*
X707390000Y-218757500D02*
X705799010Y-218757500D01*
X705799010Y-218757500D02*
X704674011Y-217632501D01*
X704674011Y-217632501D02*
X698989999Y-217632501D01*
X698989999Y-217632501D02*
X697865000Y-218757500D01*
X418967278Y-244160000D02*
X417970000Y-243162722D01*
X420310000Y-245070000D02*
X419400000Y-244160000D01*
X419400000Y-244160000D02*
X418967278Y-244160000D01*
X422394618Y-247165938D02*
X420310000Y-245081320D01*
X420310000Y-245081320D02*
X420310000Y-245070000D01*
X417970000Y-243162722D02*
X417970000Y-242400000D01*
X417970000Y-242400000D02*
X415870000Y-240300000D01*
X415870000Y-240300000D02*
X415857499Y-240300000D01*
X415857499Y-240300000D02*
X412240000Y-236682501D01*
X412240000Y-236682501D02*
X398952499Y-236682501D01*
X398952499Y-236682501D02*
X397827500Y-237807500D01*
X422748171Y-246812385D02*
X420723980Y-244788194D01*
X420723980Y-244788194D02*
X420723980Y-241653980D01*
X420723980Y-241653980D02*
X418002499Y-238932499D01*
X418002499Y-238932499D02*
X416877500Y-237807500D01*
X438453144Y-236952040D02*
X443006050Y-236952040D01*
X443006050Y-236952040D02*
X443861510Y-237807500D01*
X443861510Y-237807500D02*
X445452500Y-237807500D01*
X434094030Y-241311154D02*
X438453144Y-236952040D01*
X432576955Y-244337511D02*
X433177995Y-243736471D01*
X433177995Y-243736471D02*
X433177995Y-243620518D01*
X433177995Y-243620518D02*
X434094030Y-242704484D01*
X434094030Y-242704484D02*
X434094030Y-241311154D01*
X432930509Y-244691064D02*
X433531549Y-244090024D01*
X433531549Y-244090024D02*
X433531549Y-243988451D01*
X434512040Y-243007960D02*
X434512040Y-241607960D01*
X435460000Y-240660000D02*
X435460000Y-240650000D01*
X448832278Y-245450000D02*
X467985000Y-245450000D01*
X467985000Y-245450000D02*
X469265000Y-244170000D01*
X433531549Y-243988451D02*
X434512040Y-243007960D01*
X434512040Y-241607960D02*
X435460000Y-240660000D01*
X435460000Y-240650000D02*
X438680000Y-237430000D01*
X438680000Y-237430000D02*
X442580000Y-237430000D01*
X442580000Y-237430000D02*
X443770000Y-238620000D01*
X443770000Y-238620000D02*
X443770000Y-240387722D01*
X443770000Y-240387722D02*
X448832278Y-245450000D01*
X469265000Y-244170000D02*
X469265000Y-237807500D01*
X488315000Y-237807500D02*
X488315000Y-244420000D01*
X437617614Y-240860000D02*
X436020000Y-240860000D01*
X488315000Y-244420000D02*
X487175000Y-245560000D01*
X435108680Y-243220000D02*
X433284062Y-245044618D01*
X487175000Y-245560000D02*
X468466154Y-245560000D01*
X436020000Y-240860000D02*
X435108680Y-241771320D01*
X468466154Y-245560000D02*
X468146155Y-245879999D01*
X442470000Y-245710000D02*
X442467614Y-245710000D01*
X468146155Y-245879999D02*
X442639999Y-245879999D01*
X442639999Y-245879999D02*
X442470000Y-245710000D01*
X442467614Y-245710000D02*
X437617614Y-240860000D01*
X435108680Y-241771320D02*
X435108680Y-243220000D01*
X468319299Y-246298008D02*
X468567307Y-246050000D01*
X433637615Y-245398171D02*
X435345786Y-243690000D01*
X438480000Y-243940000D02*
X438500000Y-243940000D01*
X438368499Y-244051501D02*
X438480000Y-243940000D01*
X436912278Y-243690000D02*
X437273779Y-244051501D01*
X435345786Y-243690000D02*
X436912278Y-243690000D01*
X437273779Y-244051501D02*
X438368499Y-244051501D01*
X442286460Y-246120000D02*
X442288845Y-246120000D01*
X438500000Y-243940000D02*
X438860000Y-243580000D01*
X438860000Y-243580000D02*
X439746460Y-243580000D01*
X439746460Y-243580000D02*
X442286460Y-246120000D01*
X442288845Y-246120000D02*
X442466853Y-246298008D01*
X507365000Y-244700000D02*
X507365000Y-237807500D01*
X442466853Y-246298008D02*
X468319299Y-246298008D01*
X506415000Y-245650000D02*
X507365000Y-244700000D01*
X487580000Y-246050000D02*
X487980000Y-245650000D01*
X468567307Y-246050000D02*
X487580000Y-246050000D01*
X487980000Y-245650000D02*
X506415000Y-245650000D01*
X433991169Y-245751724D02*
X434592209Y-245150684D01*
X434592209Y-245150684D02*
X434592209Y-245147791D01*
X435600000Y-244140000D02*
X436771124Y-244140000D01*
X434592209Y-245147791D02*
X435600000Y-244140000D01*
X442355306Y-246780000D02*
X468620000Y-246780000D01*
X438930000Y-244170000D02*
X439745306Y-244170000D01*
X436771124Y-244140000D02*
X437100634Y-244469511D01*
X437100634Y-244469511D02*
X438630489Y-244469511D01*
X525308846Y-245736154D02*
X526415000Y-244630000D01*
X506920000Y-245736154D02*
X525308846Y-245736154D01*
X438630489Y-244469511D02*
X438930000Y-244170000D01*
X488153144Y-246068010D02*
X506588145Y-246068010D01*
X439745306Y-244170000D02*
X442355306Y-246780000D01*
X468620000Y-246780000D02*
X468931990Y-246468010D01*
X468931990Y-246468010D02*
X487753144Y-246468010D01*
X487753144Y-246468010D02*
X488153144Y-246068010D01*
X506588145Y-246068010D02*
X506920000Y-245736154D01*
X526415000Y-244630000D02*
X526415000Y-237807500D01*
X441510000Y-247241154D02*
X468884866Y-247241154D01*
X468884866Y-247241154D02*
X469240000Y-246886020D01*
X469240000Y-246886020D02*
X487953980Y-246886020D01*
X487953980Y-246886020D02*
X488353980Y-246486020D01*
X488353980Y-246486020D02*
X507013980Y-246486020D01*
X507013980Y-246486020D02*
X507110000Y-246390000D01*
X507110000Y-246390000D02*
X507110000Y-246370000D01*
X507110000Y-246370000D02*
X507325836Y-246154164D01*
X507325836Y-246154164D02*
X525481991Y-246154164D01*
X544430000Y-245690000D02*
X545465000Y-244655000D01*
X525481991Y-246154164D02*
X525946154Y-245690000D01*
X525946154Y-245690000D02*
X544430000Y-245690000D01*
X545465000Y-244655000D02*
X545465000Y-237807500D01*
X439588846Y-245320000D02*
X441510000Y-247241154D01*
X436540000Y-245320000D02*
X439588846Y-245320000D01*
X435652869Y-246207131D02*
X436540000Y-245320000D01*
X435051829Y-246812385D02*
X435652869Y-246211345D01*
X435652869Y-246211345D02*
X435652869Y-246207131D01*
X435405382Y-247165938D02*
X436006422Y-246564898D01*
X469012617Y-247710000D02*
X469418587Y-247304030D01*
X507270000Y-246910000D02*
X507530000Y-246650000D01*
X436006422Y-246564898D02*
X436006422Y-246553578D01*
X469418587Y-247304030D02*
X488127125Y-247304030D01*
X436820000Y-245740000D02*
X439417692Y-245740000D01*
X436006422Y-246553578D02*
X436820000Y-245740000D01*
X441387692Y-247710000D02*
X469012617Y-247710000D01*
X544921154Y-245790000D02*
X563670000Y-245790000D01*
X439417692Y-245740000D02*
X441387692Y-247710000D01*
X507530000Y-246650000D02*
X525668010Y-246650000D01*
X488127125Y-247304030D02*
X488521155Y-246910000D01*
X488521155Y-246910000D02*
X507270000Y-246910000D01*
X525668010Y-246650000D02*
X526210000Y-246108010D01*
X526210000Y-246108010D02*
X544603145Y-246108010D01*
X544603145Y-246108010D02*
X544921154Y-245790000D01*
X563670000Y-245790000D02*
X564515000Y-244945000D01*
X564515000Y-244945000D02*
X564515000Y-237807500D01*
X437068427Y-246210000D02*
X439296538Y-246210000D01*
X435758936Y-247519491D02*
X437068427Y-246210000D01*
X564100000Y-245970000D02*
X582350000Y-245970000D01*
X582350000Y-245970000D02*
X583565000Y-244755000D01*
X439296538Y-246210000D02*
X441256538Y-248170000D01*
X441256538Y-248170000D02*
X469143771Y-248170000D01*
X507698010Y-247370000D02*
X508000000Y-247068010D01*
X469143771Y-248170000D02*
X469591731Y-247722040D01*
X469591731Y-247722040D02*
X488507960Y-247722040D01*
X525841155Y-247068010D02*
X526383144Y-246526020D01*
X488507960Y-247722040D02*
X488860000Y-247370000D01*
X526383144Y-246526020D02*
X545033980Y-246526020D01*
X488860000Y-247370000D02*
X507698010Y-247370000D01*
X508000000Y-247068010D02*
X525841155Y-247068010D01*
X545033980Y-246526020D02*
X545280000Y-246280000D01*
X583565000Y-244755000D02*
X583565000Y-237807500D01*
X545280000Y-246280000D02*
X563790000Y-246280000D01*
X563790000Y-246280000D02*
X564100000Y-245970000D01*
X601610000Y-245970000D02*
X602615000Y-244965000D01*
X602615000Y-244965000D02*
X602615000Y-237807500D01*
X582941155Y-245970000D02*
X601610000Y-245970000D01*
X564273145Y-246388010D02*
X582523145Y-246388010D01*
X582523145Y-246388010D02*
X582941155Y-245970000D01*
X545285970Y-246944030D02*
X545531990Y-246698010D01*
X545531990Y-246698010D02*
X563963145Y-246698010D01*
X563963145Y-246698010D02*
X564273145Y-246388010D01*
X526053980Y-247486020D02*
X526595970Y-246944030D01*
X526595970Y-246944030D02*
X545285970Y-246944030D01*
X508024866Y-247821154D02*
X508360000Y-247486020D01*
X508360000Y-247486020D02*
X526053980Y-247486020D01*
X489000000Y-247821154D02*
X508024866Y-247821154D01*
X469471990Y-248588010D02*
X469919950Y-248140050D01*
X469919950Y-248140050D02*
X488681105Y-248140050D01*
X488681105Y-248140050D02*
X489000000Y-247821154D01*
X442071990Y-248588010D02*
X469471990Y-248588010D01*
X441085384Y-248590000D02*
X442070000Y-248590000D01*
X442070000Y-248590000D02*
X442071990Y-248588010D01*
X437361990Y-246628010D02*
X439123394Y-246628010D01*
X439123394Y-246628010D02*
X441085384Y-248590000D01*
X436717995Y-247272005D02*
X437361990Y-246628010D01*
X436112489Y-247873045D02*
X436713529Y-247272005D01*
X436713529Y-247272005D02*
X436717995Y-247272005D01*
X489200836Y-248239164D02*
X508198011Y-248239164D01*
X462650000Y-249006020D02*
X469645135Y-249006020D01*
X508480000Y-247957174D02*
X526262826Y-247957174D01*
X620810000Y-245940000D02*
X621665000Y-245085000D01*
X469645135Y-249006020D02*
X470071154Y-248580000D01*
X564446290Y-246806020D02*
X582696290Y-246806020D01*
X470071154Y-248580000D02*
X488860000Y-248580000D01*
X488860000Y-248580000D02*
X489200836Y-248239164D01*
X621665000Y-245085000D02*
X621665000Y-237807500D01*
X583114300Y-246388010D02*
X601841990Y-246388010D01*
X508198011Y-248239164D02*
X508480000Y-247957174D01*
X526857960Y-247362040D02*
X545459115Y-247362040D01*
X526262826Y-247957174D02*
X526857960Y-247362040D01*
X545459115Y-247362040D02*
X545705135Y-247116020D01*
X545705135Y-247116020D02*
X564136290Y-247116020D01*
X564136290Y-247116020D02*
X564446290Y-246806020D01*
X582696290Y-246806020D02*
X583114300Y-246388010D01*
X601841990Y-246388010D02*
X602290000Y-245940000D01*
X602290000Y-245940000D02*
X620810000Y-245940000D01*
X462650000Y-249006020D02*
X462826020Y-249006020D01*
X452680000Y-249006020D02*
X462650000Y-249006020D01*
X442633980Y-249006020D02*
X452680000Y-249006020D01*
X438820000Y-247090000D02*
X440738010Y-249008010D01*
X440738010Y-249008010D02*
X442631990Y-249008010D01*
X442631990Y-249008010D02*
X442633980Y-249006020D01*
X437602641Y-247090000D02*
X438820000Y-247090000D01*
X436466043Y-248226598D02*
X437602641Y-247090000D01*
X436819596Y-248580152D02*
X437420636Y-247979112D01*
X564309435Y-247534030D02*
X564583465Y-247260000D01*
X489492826Y-248657174D02*
X508652826Y-248657174D01*
X489151990Y-248998010D02*
X489492826Y-248657174D01*
X440564865Y-249426020D02*
X447813980Y-249426020D01*
X437420636Y-247979112D02*
X437430888Y-247979112D01*
X527100000Y-247800000D02*
X545784030Y-247800000D01*
X437430888Y-247979112D02*
X437860000Y-247550000D01*
X583353980Y-246806020D02*
X602063980Y-246806020D01*
X470261990Y-248998010D02*
X489151990Y-248998010D01*
X437860000Y-247550000D02*
X438688846Y-247550000D01*
X438688846Y-247550000D02*
X440564865Y-249426020D01*
X447813980Y-249426020D02*
X447815970Y-249424030D01*
X526460000Y-248440000D02*
X527100000Y-247800000D01*
X447815970Y-249424030D02*
X469835970Y-249424030D01*
X469835970Y-249424030D02*
X470261990Y-248998010D01*
X508652826Y-248657174D02*
X508870000Y-248440000D01*
X508870000Y-248440000D02*
X526460000Y-248440000D01*
X545784030Y-247800000D02*
X546050000Y-247534030D01*
X546050000Y-247534030D02*
X564309435Y-247534030D01*
X564583465Y-247260000D02*
X582900000Y-247260000D01*
X582900000Y-247260000D02*
X583353980Y-246806020D01*
X602063980Y-246806020D02*
X602500000Y-246370000D01*
X621120000Y-246370000D02*
X621570000Y-245920000D01*
X640715000Y-244945000D02*
X640715000Y-237807500D01*
X602500000Y-246370000D02*
X621120000Y-246370000D01*
X621570000Y-245920000D02*
X639740000Y-245920000D01*
X639740000Y-245920000D02*
X640715000Y-244945000D01*
X444200000Y-249844030D02*
X470007124Y-249844030D01*
X583527125Y-247224030D02*
X602237125Y-247224030D01*
X527290000Y-248240000D02*
X546370000Y-248240000D01*
X470007124Y-249844030D02*
X470435134Y-249416020D01*
X546490000Y-248120000D02*
X546500000Y-248120000D01*
X470435134Y-249416020D02*
X489433980Y-249416020D01*
X489433980Y-249416020D02*
X489700000Y-249150000D01*
X583073145Y-247678010D02*
X583527125Y-247224030D01*
X640581154Y-245670000D02*
X658740000Y-245670000D01*
X546667960Y-247952040D02*
X564482580Y-247952040D01*
X489700000Y-249150000D02*
X508830000Y-249150000D01*
X602237125Y-247224030D02*
X602650000Y-246811154D01*
X621890000Y-246338010D02*
X639913145Y-246338010D01*
X546500000Y-248120000D02*
X546667960Y-247952040D01*
X508830000Y-249150000D02*
X509120000Y-248860000D01*
X621416856Y-246811154D02*
X621890000Y-246338010D01*
X509120000Y-248860000D02*
X526670000Y-248860000D01*
X564756610Y-247678010D02*
X583073145Y-247678010D01*
X546370000Y-248240000D02*
X546490000Y-248120000D01*
X526670000Y-248860000D02*
X527290000Y-248240000D01*
X564482580Y-247952040D02*
X564756610Y-247678010D01*
X602650000Y-246811154D02*
X621416856Y-246811154D01*
X639913145Y-246338010D02*
X640581154Y-245670000D01*
X658740000Y-245670000D02*
X659765000Y-244645000D01*
X659765000Y-244645000D02*
X659765000Y-237807500D01*
X444200000Y-249844030D02*
X444240000Y-249844030D01*
X440391720Y-249844030D02*
X444200000Y-249844030D01*
X438136854Y-247970000D02*
X438517693Y-247970000D01*
X438517693Y-247970000D02*
X440391720Y-249844030D01*
X437173149Y-248933705D02*
X438136854Y-247970000D01*
X678010000Y-245830000D02*
X678815000Y-245025000D01*
X678815000Y-245025000D02*
X678815000Y-237807500D01*
X659330000Y-245830000D02*
X678010000Y-245830000D01*
X659070000Y-246090000D02*
X659330000Y-245830000D01*
X640820000Y-246090000D02*
X659070000Y-246090000D01*
X640153980Y-246756020D02*
X640820000Y-246090000D01*
X622063145Y-246756020D02*
X640153980Y-246756020D01*
X602900836Y-247229164D02*
X621590001Y-247229164D01*
X621590001Y-247229164D02*
X622063145Y-246756020D01*
X583860000Y-247700000D02*
X602430000Y-247700000D01*
X602430000Y-247700000D02*
X602900836Y-247229164D01*
X565083980Y-248096020D02*
X583463980Y-248096020D01*
X583463980Y-248096020D02*
X583860000Y-247700000D01*
X546849950Y-248370050D02*
X564809950Y-248370050D01*
X564809950Y-248370050D02*
X565083980Y-248096020D01*
X527463145Y-248658010D02*
X546561990Y-248658010D01*
X546561990Y-248658010D02*
X546849950Y-248370050D01*
X509293145Y-249278010D02*
X526843145Y-249278010D01*
X526843145Y-249278010D02*
X527463145Y-248658010D01*
X489873145Y-249568010D02*
X509003145Y-249568010D01*
X509003145Y-249568010D02*
X509293145Y-249278010D01*
X470317960Y-250262040D02*
X470745970Y-249834030D01*
X470745970Y-249834030D02*
X489607125Y-249834030D01*
X489607125Y-249834030D02*
X489873145Y-249568010D01*
X444150000Y-250262040D02*
X444322040Y-250262040D01*
X440218575Y-250262040D02*
X444150000Y-250262040D01*
X444150000Y-250262040D02*
X470317960Y-250262040D01*
X437526703Y-249287258D02*
X438098555Y-248715406D01*
X438098555Y-248715406D02*
X438671945Y-248715406D01*
X438671945Y-248715406D02*
X440218575Y-250262040D01*
X438587363Y-250347918D02*
X438919494Y-250680049D01*
X438919494Y-250680049D02*
X444495185Y-250680050D01*
X659691990Y-246248010D02*
X678183145Y-246248010D01*
X678183145Y-246248010D02*
X678531155Y-245900000D01*
X444495185Y-250680050D02*
X470579950Y-250680050D01*
X583637125Y-248514030D02*
X584033144Y-248118010D01*
X602603145Y-248118010D02*
X603073980Y-247647174D01*
X640230835Y-247270319D02*
X640911154Y-246590000D01*
X470579950Y-250680050D02*
X471007960Y-250252040D01*
X603073980Y-247647174D02*
X621763146Y-247647174D01*
X471007960Y-250252040D02*
X489917960Y-250252040D01*
X489917960Y-250252040D02*
X490183980Y-249986020D01*
X509176290Y-249986020D02*
X509466290Y-249696020D01*
X490183980Y-249986020D02*
X509176290Y-249986020D01*
X509466290Y-249696020D02*
X527016290Y-249696020D01*
X678531155Y-245900000D02*
X701710000Y-245900000D01*
X527016290Y-249696020D02*
X527632310Y-249080000D01*
X527632310Y-249080000D02*
X546731155Y-249079999D01*
X546731155Y-249079999D02*
X547023094Y-248788060D01*
X547023094Y-248788060D02*
X565061940Y-248788060D01*
X565061940Y-248788060D02*
X565335970Y-248514030D01*
X565335970Y-248514030D02*
X583637125Y-248514030D01*
X584033144Y-248118010D02*
X602603145Y-248118010D01*
X621763146Y-247647174D02*
X622140000Y-247270319D01*
X622140000Y-247270319D02*
X640230835Y-247270319D01*
X701710000Y-245900000D02*
X702627500Y-244982500D01*
X640911154Y-246590000D02*
X659350000Y-246590000D01*
X659350000Y-246590000D02*
X659691990Y-246248010D01*
X702627500Y-244982500D02*
X702627500Y-237807500D01*
X439188403Y-253353122D02*
X443346878Y-253353122D01*
X659613145Y-247008010D02*
X659955135Y-246666020D01*
X546961992Y-249498008D02*
X547253930Y-249206070D01*
X438587363Y-252752082D02*
X439188403Y-253353122D01*
X443346878Y-253353122D02*
X444010000Y-252690000D01*
X468498032Y-253353122D02*
X471131154Y-250720000D01*
X659955135Y-246666020D02*
X678433980Y-246666020D01*
X527941992Y-249498008D02*
X546961992Y-249498008D01*
X444010000Y-252690000D02*
X452456878Y-252690000D01*
X471131154Y-250720000D02*
X490074607Y-250720000D01*
X490390577Y-250404030D02*
X509349435Y-250404030D01*
X452456878Y-252690000D02*
X453120000Y-253353122D01*
X509639435Y-250114030D02*
X527325970Y-250114030D01*
X453120000Y-253353122D02*
X468498032Y-253353122D01*
X490074607Y-250720000D02*
X490390577Y-250404030D01*
X584430000Y-248630000D02*
X602790000Y-248630000D01*
X509349435Y-250404030D02*
X509639435Y-250114030D01*
X640501671Y-247688329D02*
X641181990Y-247008010D01*
X527325970Y-250114030D02*
X527941992Y-249498008D01*
X547253930Y-249206070D02*
X565235085Y-249206070D01*
X702551154Y-245650000D02*
X725490000Y-245650000D01*
X678433980Y-246666020D02*
X678781990Y-246318010D01*
X565235085Y-249206070D02*
X565509115Y-248932040D01*
X565509115Y-248932040D02*
X584127960Y-248932040D01*
X622511671Y-247688329D02*
X640501671Y-247688329D01*
X584127960Y-248932040D02*
X584430000Y-248630000D01*
X602790000Y-248630000D02*
X603270000Y-248150000D01*
X603270000Y-248150000D02*
X622050000Y-248150000D01*
X726440000Y-244700000D02*
X726440000Y-237807500D01*
X622050000Y-248150000D02*
X622511671Y-247688329D01*
X701883145Y-246318010D02*
X702551154Y-245650000D01*
X641181990Y-247008010D02*
X659613145Y-247008010D01*
X678781990Y-246318010D02*
X701883145Y-246318010D01*
X725490000Y-245650000D02*
X726440000Y-244700000D01*
X420626851Y-248933705D02*
X419425136Y-247731990D01*
X418025700Y-247731990D02*
X415069730Y-250687960D01*
X419425136Y-247731990D02*
X418025700Y-247731990D01*
X409752040Y-250687960D02*
X405870000Y-254570000D01*
X415069730Y-250687960D02*
X409752040Y-250687960D01*
X405870000Y-254570000D02*
X400115000Y-254570000D01*
X400115000Y-254570000D02*
X397827500Y-256857500D01*
X419212637Y-252752082D02*
X418900505Y-252752082D01*
X418900505Y-252752082D02*
X418772587Y-252880000D01*
X418772587Y-252880000D02*
X410710000Y-252880000D01*
X410710000Y-252880000D02*
X408030000Y-255560000D01*
X408030000Y-255560000D02*
X408030000Y-256530000D01*
X408030000Y-256530000D02*
X408830000Y-257330000D01*
X408830000Y-257330000D02*
X410240000Y-257330000D01*
X410240000Y-257330000D02*
X411290000Y-256280000D01*
X411290000Y-256280000D02*
X412770000Y-256280000D01*
X412770000Y-256280000D02*
X413347500Y-256857500D01*
X413347500Y-256857500D02*
X416877500Y-256857500D01*
X447833750Y-256857500D02*
X447833750Y-262776194D01*
X437580000Y-260330000D02*
X437580000Y-258382640D01*
X437581320Y-258381320D02*
X437581320Y-258110000D01*
X447833750Y-262776194D02*
X445989944Y-264620000D01*
X440467652Y-260468680D02*
X439681320Y-260468680D01*
X445989944Y-264620000D02*
X444618972Y-264620000D01*
X444618972Y-264620000D02*
X440467652Y-260468680D01*
X439681320Y-260468680D02*
X439376501Y-260773499D01*
X439376501Y-260773499D02*
X438023499Y-260773499D01*
X438023499Y-260773499D02*
X437580000Y-260330000D01*
X437580000Y-258382640D02*
X437581320Y-258381320D01*
X437581320Y-258110000D02*
X435405382Y-255934062D01*
X472750000Y-265720000D02*
X473987500Y-264482500D01*
X473987500Y-264482500D02*
X473987500Y-257437500D01*
X442273528Y-265720000D02*
X472750000Y-265720000D01*
X437161990Y-258397776D02*
X437161990Y-260608462D01*
X437161990Y-260608462D02*
X442273528Y-265720000D01*
X435051829Y-256287615D02*
X437161990Y-258397776D01*
X491640000Y-265860000D02*
X493077500Y-264422500D01*
X493077500Y-264422500D02*
X493077500Y-256857500D01*
X473350000Y-265860000D02*
X491640000Y-265860000D01*
X473071990Y-266138010D02*
X473350000Y-265860000D01*
X437792374Y-261830000D02*
X442100383Y-266138010D01*
X442100383Y-266138010D02*
X473071990Y-266138010D01*
X436743980Y-258686873D02*
X436743980Y-260781607D01*
X436743980Y-260781607D02*
X437792374Y-261830000D01*
X434698276Y-256641169D02*
X436743980Y-258686873D01*
X511300000Y-265710000D02*
X512127500Y-264882500D01*
X512127500Y-264882500D02*
X512127500Y-256857500D01*
X492381155Y-265710000D02*
X511300000Y-265710000D01*
X473781990Y-266278010D02*
X491813145Y-266278010D01*
X491813145Y-266278010D02*
X492381155Y-265710000D01*
X436325970Y-260954752D02*
X441927238Y-266556020D01*
X441927238Y-266556020D02*
X473503980Y-266556020D01*
X473503980Y-266556020D02*
X473781990Y-266278010D01*
X436325970Y-258975970D02*
X436325970Y-260954752D01*
X434344722Y-256994722D02*
X436325970Y-258975970D01*
X433284062Y-258055382D02*
X433930000Y-258701320D01*
X473677125Y-266974030D02*
X473951155Y-266700000D01*
X511473145Y-266128010D02*
X512121154Y-265480000D01*
X433930000Y-258701320D02*
X433930000Y-258710000D01*
X435907960Y-261127897D02*
X441754093Y-266974030D01*
X433930000Y-258710000D02*
X434220000Y-259000000D01*
X434220000Y-259000000D02*
X435520000Y-259000000D01*
X435907960Y-259387960D02*
X435907960Y-261127897D01*
X492621990Y-266128010D02*
X511473145Y-266128010D01*
X435520000Y-259000000D02*
X435907960Y-259387960D01*
X441754093Y-266974030D02*
X473677125Y-266974030D01*
X530280000Y-265480000D02*
X531177500Y-264582500D01*
X473951155Y-266700000D02*
X492050000Y-266700000D01*
X512121154Y-265480000D02*
X530280000Y-265480000D01*
X492050000Y-266700000D02*
X492621990Y-266128010D01*
X531177500Y-264582500D02*
X531177500Y-256857500D01*
X432930509Y-258408936D02*
X434021573Y-259500000D01*
X435489950Y-259949950D02*
X435489950Y-261301042D01*
X434021573Y-259500000D02*
X435040000Y-259500000D01*
X435489950Y-261301042D02*
X441580948Y-267392040D01*
X530453145Y-265898010D02*
X530981154Y-265370000D01*
X435040000Y-259500000D02*
X435489950Y-259949950D01*
X473867960Y-267392040D02*
X474141990Y-267118010D01*
X441580948Y-267392040D02*
X473867960Y-267392040D01*
X474141990Y-267118010D02*
X492223145Y-267118010D01*
X549320000Y-265370000D02*
X550187500Y-264502500D01*
X492223145Y-267118010D02*
X492740000Y-266601154D01*
X530981154Y-265370000D02*
X549320000Y-265370000D01*
X492740000Y-266601154D02*
X511756856Y-266601154D01*
X511756856Y-266601154D02*
X512460000Y-265898010D01*
X512460000Y-265898010D02*
X530453145Y-265898010D01*
X550187500Y-264502500D02*
X550187500Y-257437500D01*
X531180000Y-265830000D02*
X533940000Y-265830000D01*
X530693981Y-266316019D02*
X531180000Y-265830000D01*
X431869848Y-259469596D02*
X433240000Y-260839748D01*
X433240000Y-260839748D02*
X433240000Y-263460000D01*
X435660000Y-265880000D02*
X439450000Y-265880000D01*
X433240000Y-263460000D02*
X435660000Y-265880000D01*
X511930001Y-267019164D02*
X512633144Y-266316020D01*
X549591990Y-265788010D02*
X550100000Y-265280000D01*
X439450000Y-265880000D02*
X441380050Y-267810050D01*
X441380050Y-267810050D02*
X474041105Y-267810050D01*
X550100000Y-265280000D02*
X568210000Y-265280000D01*
X474041105Y-267810050D02*
X474315135Y-267536020D01*
X474315135Y-267536020D02*
X492493980Y-267536020D01*
X512633144Y-266316020D02*
X530693981Y-266316019D01*
X492880000Y-267052308D02*
X492913144Y-267019164D01*
X492493980Y-267536020D02*
X492880000Y-267150000D01*
X492880000Y-267150000D02*
X492880000Y-267052308D01*
X568210000Y-265280000D02*
X569237500Y-264252500D01*
X492913144Y-267019164D02*
X511930001Y-267019164D01*
X533940000Y-265830000D02*
X533981990Y-265788010D01*
X533981990Y-265788010D02*
X549591990Y-265788010D01*
X569237500Y-264252500D02*
X569237500Y-257437500D01*
X431516295Y-259823149D02*
X432821990Y-261128844D01*
X568960000Y-265310000D02*
X587610000Y-265310000D01*
X512192826Y-267437174D02*
X512895972Y-266734028D01*
X435486855Y-266298010D02*
X439276856Y-266298010D01*
X432821990Y-261128844D02*
X432821990Y-263633145D01*
X439276856Y-266298010D02*
X441206905Y-268228060D01*
X432821990Y-263633145D02*
X435486855Y-266298010D01*
X531353144Y-266248010D02*
X549741990Y-266248010D01*
X530867126Y-266734028D02*
X531353144Y-266248010D01*
X441206905Y-268228060D02*
X474251940Y-268228060D01*
X550291990Y-265698010D02*
X568571990Y-265698010D01*
X493632826Y-267437174D02*
X512192826Y-267437174D01*
X474251940Y-268228060D02*
X474525970Y-267954030D01*
X474525970Y-267954030D02*
X493115970Y-267954030D01*
X493115970Y-267954030D02*
X493632826Y-267437174D01*
X512895972Y-266734028D02*
X530867126Y-266734028D01*
X588287500Y-264632500D02*
X588287500Y-257437500D01*
X549741990Y-266248010D02*
X550291990Y-265698010D01*
X568571990Y-265698010D02*
X568960000Y-265310000D01*
X587610000Y-265310000D02*
X588287500Y-264632500D01*
X436466043Y-254873402D02*
X437486670Y-255894029D01*
X437486670Y-255894029D02*
X444415971Y-255894029D01*
X444415971Y-255894029D02*
X445085673Y-255224327D01*
X445085673Y-255224327D02*
X451309711Y-255224327D01*
X451309711Y-255224327D02*
X451993393Y-255908009D01*
X451993393Y-255908009D02*
X469671991Y-255908009D01*
X469671991Y-255908009D02*
X470900000Y-254680000D01*
X470900000Y-254680000D02*
X470900000Y-254567492D01*
X606540050Y-253290050D02*
X607377500Y-254127500D01*
X470900000Y-254567492D02*
X472177442Y-253290050D01*
X472177442Y-253290050D02*
X606540050Y-253290050D01*
X607377500Y-254127500D02*
X607377500Y-256857500D01*
X626427500Y-256857500D02*
X626427500Y-253527500D01*
X451482855Y-254806317D02*
X444899432Y-254806317D01*
X626427500Y-253527500D02*
X625772040Y-252872040D01*
X625772040Y-252872040D02*
X472004298Y-252872040D01*
X472004298Y-252872040D02*
X469386338Y-255490000D01*
X469386338Y-255490000D02*
X452166538Y-255490000D01*
X452166538Y-255490000D02*
X451482855Y-254806317D01*
X444899432Y-254806317D02*
X444229730Y-255476019D01*
X444229730Y-255476019D02*
X437775767Y-255476019D01*
X437775767Y-255476019D02*
X436819596Y-254519848D01*
X444553144Y-253970297D02*
X443916290Y-254607151D01*
X443916290Y-254607151D02*
X438386810Y-254607151D01*
X438386810Y-254607151D02*
X438353961Y-254640000D01*
X437526703Y-253812742D02*
X438353961Y-254640000D01*
X452498846Y-254640000D02*
X468310000Y-254640000D01*
X444553144Y-253970297D02*
X451829143Y-253970297D01*
X469084004Y-254607150D02*
X471655134Y-252036020D01*
X663056020Y-252036020D02*
X664487500Y-253467500D01*
X451829143Y-253970297D02*
X452498846Y-254640000D01*
X468310000Y-254640000D02*
X468342850Y-254607150D01*
X468342850Y-254607150D02*
X469084004Y-254607150D01*
X471655134Y-252036020D02*
X663056020Y-252036020D01*
X664487500Y-253467500D02*
X664487500Y-257437500D01*
X726440000Y-256857500D02*
X726440000Y-253390000D01*
X565712722Y-251200000D02*
X565682722Y-251170000D01*
X726440000Y-253390000D02*
X724250000Y-251200000D01*
X724250000Y-251200000D02*
X694870000Y-251200000D01*
X443520022Y-253771132D02*
X438899307Y-253771132D01*
X694870000Y-251200000D02*
X694311990Y-250641990D01*
X694311990Y-250641990D02*
X678878010Y-250641990D01*
X678878010Y-250641990D02*
X678320000Y-251200000D01*
X678320000Y-251200000D02*
X565712722Y-251200000D01*
X565682722Y-251170000D02*
X471272308Y-251170000D01*
X471272308Y-251170000D02*
X468671177Y-253771132D01*
X468671177Y-253771132D02*
X452946855Y-253771131D01*
X452946855Y-253771131D02*
X452283734Y-253108010D01*
X444183144Y-253108010D02*
X443520022Y-253771132D01*
X452283734Y-253108010D02*
X444183144Y-253108010D01*
X438899307Y-253771132D02*
X438233810Y-253105635D01*
X419212637Y-250347918D02*
X417200555Y-252360000D01*
X417200555Y-252360000D02*
X410550000Y-252360000D01*
X410550000Y-252360000D02*
X407390000Y-255520000D01*
X407390000Y-255520000D02*
X407390000Y-266420000D01*
X407390000Y-266420000D02*
X416877500Y-275907500D01*
X425264655Y-260135093D02*
X425264655Y-265494655D01*
X483552500Y-283147500D02*
X483552500Y-275907500D01*
X482230000Y-284470000D02*
X483552500Y-283147500D01*
X466250000Y-284470000D02*
X482230000Y-284470000D01*
X463170000Y-281390000D02*
X466250000Y-284470000D01*
X458040000Y-284470000D02*
X461120000Y-281390000D01*
X443736856Y-284898010D02*
X452001990Y-284898010D01*
X441126856Y-282288010D02*
X443736856Y-284898010D01*
X426600000Y-274221155D02*
X434666855Y-282288010D01*
X434666855Y-282288010D02*
X441126856Y-282288010D01*
X452430000Y-284470000D02*
X458040000Y-284470000D01*
X425264655Y-265494655D02*
X426600000Y-266830000D01*
X461120000Y-281390000D02*
X463170000Y-281390000D01*
X452001990Y-284898010D02*
X452430000Y-284470000D01*
X425930152Y-259469596D02*
X425264655Y-260135093D01*
X426600000Y-266830000D02*
X426600000Y-274221155D01*
X424428635Y-259556899D02*
X424428635Y-265873145D01*
X482931990Y-285008010D02*
X502063145Y-285008010D01*
X462800000Y-282250000D02*
X465858010Y-285308010D01*
X502063145Y-285008010D02*
X502451155Y-284620000D01*
X458401990Y-285308010D02*
X461460000Y-282250000D01*
X453323144Y-285308010D02*
X458401990Y-285308010D01*
X452897124Y-285734030D02*
X453323144Y-285308010D01*
X440870003Y-283213465D02*
X443390568Y-285734030D01*
X461460000Y-282250000D02*
X462800000Y-282250000D01*
X434410000Y-283213465D02*
X440870003Y-283213465D01*
X425763980Y-274567445D02*
X434410000Y-283213465D01*
X425763980Y-267205134D02*
X425763980Y-274567445D01*
X424428635Y-265873145D02*
X425165490Y-266610000D01*
X482631990Y-285308010D02*
X482931990Y-285008010D01*
X465858010Y-285308010D02*
X482631990Y-285308010D01*
X425165490Y-266610000D02*
X425168846Y-266610000D01*
X520770000Y-284620000D02*
X521652500Y-283737500D01*
X443390568Y-285734030D02*
X452897124Y-285734030D01*
X425168846Y-266610000D02*
X425763980Y-267205134D01*
X502451155Y-284620000D02*
X520770000Y-284620000D01*
X425223045Y-258762489D02*
X424428635Y-259556899D01*
X521652500Y-283737500D02*
X521652500Y-275907500D01*
X423592615Y-258978705D02*
X423592615Y-266219435D01*
X558130000Y-284690000D02*
X559752500Y-283067500D01*
X539721155Y-284690000D02*
X558130000Y-284690000D01*
X521390000Y-285182308D02*
X539228847Y-285182308D01*
X539228847Y-285182308D02*
X539721155Y-284690000D01*
X465506855Y-286144030D02*
X483057125Y-286144030D01*
X463042826Y-283680000D02*
X465506855Y-286144030D01*
X502435971Y-285844029D02*
X502799681Y-285480319D01*
X461331154Y-283680000D02*
X463042826Y-283680000D01*
X458867125Y-286144030D02*
X461331154Y-283680000D01*
X453695970Y-286144030D02*
X458867125Y-286144030D01*
X559752500Y-283067500D02*
X559752500Y-275907500D01*
X453269950Y-286570050D02*
X453695970Y-286144030D01*
X502799681Y-285480319D02*
X521091990Y-285480319D01*
X434066597Y-284216597D02*
X440643403Y-284216597D01*
X521091990Y-285480319D02*
X521390000Y-285182308D01*
X425830000Y-275980000D02*
X434066597Y-284216597D01*
X423592615Y-266219435D02*
X424863180Y-267490000D01*
X425830000Y-275970000D02*
X425830000Y-275980000D01*
X424927960Y-267551422D02*
X424927960Y-275067960D01*
X424863180Y-267490000D02*
X424866538Y-267490000D01*
X424927960Y-275067960D02*
X425830000Y-275970000D01*
X424866538Y-267490000D02*
X424927960Y-267551422D01*
X440643403Y-284216597D02*
X442996855Y-286570050D01*
X442996855Y-286570050D02*
X453269950Y-286570050D01*
X483357125Y-285844030D02*
X502435971Y-285844029D01*
X424515938Y-258055382D02*
X423592615Y-258978705D01*
X483057125Y-286144030D02*
X483357125Y-285844030D01*
X423808831Y-257348276D02*
X422756595Y-258400512D01*
X433840000Y-285190000D02*
X440070000Y-285190000D01*
X454131990Y-287038010D02*
X459263145Y-287038010D01*
X521701990Y-286368010D02*
X522051672Y-286018328D01*
X424051990Y-275401990D02*
X433840000Y-285190000D01*
X483760000Y-286990000D02*
X484069952Y-286680048D01*
X568263144Y-284168010D02*
X574196856Y-284168010D01*
X422756595Y-258400512D02*
X422756595Y-266565725D01*
X459263145Y-287038010D02*
X459508010Y-286793144D01*
X422756595Y-266565725D02*
X424051990Y-267861120D01*
X442318010Y-287438010D02*
X453731990Y-287438010D01*
X424051990Y-267861120D02*
X424051990Y-275401990D01*
X440070000Y-285190000D02*
X442318010Y-287438010D01*
X453731990Y-287438010D02*
X454131990Y-287038010D01*
X459508010Y-286793144D02*
X461601154Y-284700000D01*
X461601154Y-284700000D02*
X462830000Y-284700000D01*
X462830000Y-284700000D02*
X465120000Y-286990000D01*
X465120000Y-286990000D02*
X483760000Y-286990000D01*
X522051672Y-286018328D02*
X539575137Y-286018328D01*
X484069952Y-286680048D02*
X484087914Y-286698010D01*
X577733145Y-285198010D02*
X578181154Y-284750000D01*
X484087914Y-286698010D02*
X502764298Y-286698010D01*
X502764298Y-286698010D02*
X503094298Y-286368010D01*
X539950000Y-285643464D02*
X558695123Y-285643464D01*
X503094298Y-286368010D02*
X521701990Y-286368010D01*
X539575137Y-286018328D02*
X539950000Y-285643464D01*
X558695123Y-285643464D02*
X559140577Y-285198010D01*
X559140577Y-285198010D02*
X567233145Y-285198010D01*
X574196856Y-284168010D02*
X575226856Y-285198010D01*
X567233145Y-285198010D02*
X568263144Y-284168010D01*
X597852500Y-283287500D02*
X597852500Y-275907500D01*
X575226856Y-285198010D02*
X577733145Y-285198010D01*
X578181154Y-284750000D02*
X596390000Y-284750000D01*
X596390000Y-284750000D02*
X597852500Y-283287500D01*
X427697918Y-262087918D02*
X430640000Y-265030000D01*
X430640000Y-265030000D02*
X430670000Y-265030000D01*
X427697918Y-261237363D02*
X427697918Y-262087918D01*
X430670000Y-265030000D02*
X430969999Y-265329999D01*
X430969999Y-265329999D02*
X430989999Y-265329999D01*
X430989999Y-265329999D02*
X434114029Y-268454029D01*
X434114029Y-268454029D02*
X438302875Y-268454029D01*
X438302875Y-268454029D02*
X440182875Y-270334030D01*
X440182875Y-270334030D02*
X634394030Y-270334030D01*
X634394030Y-270334030D02*
X635952500Y-271892500D01*
X635952500Y-271892500D02*
X635952500Y-275907500D01*
X430455635Y-260883810D02*
X431533980Y-261962155D01*
X679850000Y-271670000D02*
X681196250Y-273016250D01*
X431533980Y-261962155D02*
X431533980Y-264253980D01*
X431533980Y-264253980D02*
X431640000Y-264360000D01*
X431640000Y-264360000D02*
X431650000Y-264360000D01*
X431650000Y-264360000D02*
X434908010Y-267618010D01*
X678998846Y-271670000D02*
X679850000Y-271670000D01*
X434908010Y-267618010D02*
X438698010Y-267618010D01*
X681196250Y-273016250D02*
X681196250Y-275907500D01*
X438698010Y-267618010D02*
X439170000Y-268090000D01*
X439170000Y-268090000D02*
X439197692Y-268090000D01*
X439197692Y-268090000D02*
X440605701Y-269498010D01*
X440605701Y-269498010D02*
X676826856Y-269498010D01*
X676826856Y-269498010D02*
X678998846Y-271670000D01*
X431162742Y-260176703D02*
X432370000Y-261383961D01*
X435357691Y-266760000D02*
X437820000Y-266760000D01*
X708620000Y-268960000D02*
X724430000Y-268960000D01*
X432370000Y-261383961D02*
X432370000Y-263772309D01*
X706769499Y-267109499D02*
X708620000Y-268960000D01*
X432370000Y-263772309D02*
X435357691Y-266760000D01*
X437820000Y-266760000D02*
X437830000Y-266750000D01*
X437830000Y-266750000D02*
X439040000Y-266750000D01*
X440936070Y-268646070D02*
X678598938Y-268646070D01*
X439040000Y-266750000D02*
X440936070Y-268646070D01*
X678598938Y-268646070D02*
X680135509Y-267109499D01*
X680135509Y-267109499D02*
X706769499Y-267109499D01*
X724430000Y-268960000D02*
X726440000Y-270970000D01*
X726440000Y-270970000D02*
X726440000Y-275907500D01*
X418360000Y-249393325D02*
X418166675Y-249393325D01*
X418166675Y-249393325D02*
X415618010Y-251941990D01*
X415618010Y-251941990D02*
X410376855Y-251941990D01*
X410376855Y-251941990D02*
X406971990Y-255346855D01*
X406971990Y-255346855D02*
X406971990Y-285051990D01*
X406971990Y-285051990D02*
X416877500Y-294957500D01*
X418965150Y-249393325D02*
X418360000Y-249393325D01*
X419566190Y-249994365D02*
X418965150Y-249393325D01*
X418740000Y-274513463D02*
X431886537Y-287660000D01*
X431886537Y-287660000D02*
X431990000Y-287763463D01*
X433920000Y-288350000D02*
X432576537Y-288350000D01*
X432576537Y-288350000D02*
X431886537Y-287660000D01*
X434450000Y-288880000D02*
X433920000Y-288350000D01*
X434450000Y-289570000D02*
X434450000Y-288880000D01*
X436337541Y-291457541D02*
X434450000Y-289570000D01*
X440990000Y-290500000D02*
X440032459Y-291457541D01*
X440032459Y-291457541D02*
X436337541Y-291457541D01*
X458158846Y-290500000D02*
X440990000Y-290500000D01*
X464021154Y-292180000D02*
X459838846Y-292180000D01*
X459838846Y-292180000D02*
X458158846Y-290500000D01*
X489940990Y-290230000D02*
X465971154Y-290230000D01*
X465971154Y-290230000D02*
X464021154Y-292180000D01*
X493077500Y-294957500D02*
X493077500Y-293366510D01*
X493077500Y-293366510D02*
X489940990Y-290230000D01*
X416128694Y-260350000D02*
X415433293Y-259654599D01*
X418740000Y-268700000D02*
X418740000Y-274513463D01*
X418783980Y-257690000D02*
X418783980Y-258263711D01*
X417520000Y-264310000D02*
X418730000Y-265520000D01*
X418783980Y-258263711D02*
X416697691Y-260350000D01*
X416697691Y-260350000D02*
X416128694Y-260350000D01*
X415433293Y-259654599D02*
X413241707Y-259654599D01*
X413241707Y-259654599D02*
X412054599Y-260841707D01*
X412054599Y-260841707D02*
X412054599Y-263033293D01*
X418730000Y-265520000D02*
X418730000Y-268690000D01*
X412054599Y-263033293D02*
X413331306Y-264310000D01*
X413331306Y-264310000D02*
X417520000Y-264310000D01*
X418730000Y-268690000D02*
X418740000Y-268700000D01*
X418783980Y-257690000D02*
X418783980Y-257870000D01*
X418783980Y-256357022D02*
X418783980Y-257690000D01*
X420626851Y-254166295D02*
X418783980Y-256009166D01*
X418783980Y-256009166D02*
X418783980Y-256357022D01*
X593090000Y-294957500D02*
X594680990Y-294957500D01*
X594680990Y-294957500D02*
X595398490Y-294240000D01*
X610750000Y-294957500D02*
X612140000Y-294957500D01*
X595398490Y-294240000D02*
X608340000Y-294240000D01*
X608340000Y-294240000D02*
X609057500Y-294957500D01*
X609057500Y-294957500D02*
X610750000Y-294957500D01*
X535940000Y-294957500D02*
X537530990Y-294957500D01*
X537530990Y-294957500D02*
X537864991Y-294623499D01*
X537864991Y-294623499D02*
X549313499Y-294623499D01*
X549313499Y-294623499D02*
X550030000Y-295340000D01*
X550030000Y-295340000D02*
X553423499Y-295340000D01*
X553423499Y-295340000D02*
X554140000Y-294623499D01*
X554140000Y-294623499D02*
X570013499Y-294623499D01*
X570013499Y-294623499D02*
X570347500Y-294957500D01*
X570347500Y-294957500D02*
X574040000Y-294957500D01*
X574040000Y-294957500D02*
X575952500Y-294957500D01*
X588970000Y-294540000D02*
X589387500Y-294957500D01*
X591630000Y-294957500D02*
X593090000Y-294957500D01*
X575952500Y-294957500D02*
X576370000Y-294540000D01*
X576370000Y-294540000D02*
X588970000Y-294540000D01*
X589387500Y-294957500D02*
X591630000Y-294957500D01*
X417176856Y-263193040D02*
X419273980Y-265290164D01*
X419201990Y-258436855D02*
X416931990Y-260706855D01*
X419201990Y-257940000D02*
X419201990Y-258436855D01*
X464490000Y-291120000D02*
X464490000Y-291060000D01*
X465865970Y-289684030D02*
X504515970Y-289684030D01*
X416931990Y-260706855D02*
X416931990Y-262948175D01*
X504515970Y-289684030D02*
X505289950Y-288910050D01*
X416931990Y-262948175D02*
X417176856Y-263193040D01*
X432675700Y-287858010D02*
X434186856Y-287858010D01*
X439630469Y-291039531D02*
X440591990Y-290078010D01*
X419273980Y-265290164D02*
X419273980Y-274456289D01*
X419273980Y-274456289D02*
X432675700Y-287858010D01*
X463970000Y-291640000D02*
X464490000Y-291120000D01*
X505289950Y-288910050D02*
X531940050Y-288910050D01*
X436728574Y-291039531D02*
X439630469Y-291039531D01*
X434186856Y-287858010D02*
X434991990Y-288663144D01*
X434991990Y-288663144D02*
X434991990Y-289302946D01*
X531940050Y-288910050D02*
X533730000Y-290700000D01*
X434991990Y-289302946D02*
X436728574Y-291039531D01*
X440591990Y-290078010D02*
X458328010Y-290078010D01*
X458328010Y-290078010D02*
X459890000Y-291640000D01*
X459890000Y-291640000D02*
X463970000Y-291640000D01*
X464490000Y-291060000D02*
X465865970Y-289684030D01*
X533730000Y-290700000D02*
X534540000Y-290700000D01*
X534540000Y-290700000D02*
X535940000Y-292100000D01*
X535940000Y-292100000D02*
X535940000Y-294957500D01*
X419201990Y-257940000D02*
X419201990Y-258130000D01*
X419201990Y-256530167D02*
X419201990Y-257940000D01*
X420980404Y-254519848D02*
X419201990Y-256298262D01*
X419201990Y-256298262D02*
X419201990Y-256530167D01*
X574871403Y-289266019D02*
X587940000Y-289266019D01*
X590150000Y-287896019D02*
X589310000Y-287896019D01*
X589310000Y-287896019D02*
X587940000Y-289266019D01*
X593060836Y-287910000D02*
X590163981Y-287910000D01*
X590163981Y-287910000D02*
X590150000Y-287896019D01*
X566390000Y-289266019D02*
X568138599Y-289266019D01*
X568138599Y-289266019D02*
X568742578Y-288662040D01*
X568742578Y-288662040D02*
X568767960Y-288662040D01*
X610103980Y-289266020D02*
X629926020Y-289266020D01*
X594440836Y-289290000D02*
X610080000Y-289290000D01*
X568767960Y-288662040D02*
X569350000Y-288080000D01*
X569350000Y-288080000D02*
X573685384Y-288080000D01*
X573685384Y-288080000D02*
X574871403Y-289266019D01*
X629926020Y-289266020D02*
X631190000Y-290530000D01*
X593060836Y-287910000D02*
X594440836Y-289290000D01*
X610080000Y-289290000D02*
X610103980Y-289266020D01*
X631190000Y-290530000D02*
X631190000Y-294957500D01*
X566390000Y-289266019D02*
X566616019Y-289266019D01*
X533136855Y-289266019D02*
X566390000Y-289266019D01*
X440390000Y-289641154D02*
X441028846Y-289641154D01*
X504123980Y-289266020D02*
X504897960Y-288492040D01*
X441028846Y-289641154D02*
X441047692Y-289660000D01*
X458610000Y-289660000D02*
X460070000Y-291120000D01*
X441047692Y-289660000D02*
X458610000Y-289660000D01*
X460070000Y-291120000D02*
X463272309Y-291120000D01*
X463272309Y-291120000D02*
X465126289Y-289266020D01*
X465126289Y-289266020D02*
X504123980Y-289266020D01*
X504897960Y-288492040D02*
X532362876Y-288492040D01*
X532362876Y-288492040D02*
X533136855Y-289266019D01*
X440390000Y-289641154D02*
X440415134Y-289616020D01*
X435469230Y-289189031D02*
X436901719Y-290621521D01*
X436901719Y-290621521D02*
X439409634Y-290621521D01*
X439409634Y-290621521D02*
X440390000Y-289641154D01*
X435410000Y-288490000D02*
X435410000Y-289129801D01*
X435410000Y-289129801D02*
X435469230Y-289189031D01*
X434360000Y-287440000D02*
X435410000Y-288490000D01*
X419693980Y-274285135D02*
X432848845Y-287440000D01*
X432848845Y-287440000D02*
X434360000Y-287440000D01*
X419693980Y-273713980D02*
X419693980Y-274285135D01*
X421333957Y-254873402D02*
X420727359Y-255480000D01*
X420727359Y-255480000D02*
X420727359Y-255595953D01*
X420727359Y-255595953D02*
X419620000Y-256703312D01*
X419620000Y-256703312D02*
X419620000Y-258610000D01*
X419691990Y-265117020D02*
X419691990Y-273711990D01*
X419620000Y-258610000D02*
X417350000Y-260880000D01*
X417350000Y-260880000D02*
X417350000Y-262775030D01*
X417350000Y-262775030D02*
X419691990Y-265117020D01*
X419691990Y-273711990D02*
X419693980Y-273713980D01*
X655002500Y-294957500D02*
X655002500Y-290812500D01*
X484162875Y-288834030D02*
X464967125Y-288834030D01*
X653038010Y-288848010D02*
X594590000Y-288848010D01*
X435887239Y-288297239D02*
X434570000Y-286980000D01*
X655002500Y-290812500D02*
X653038010Y-288848010D01*
X594590000Y-288848010D02*
X593160000Y-287418010D01*
X589143144Y-287418010D02*
X587713145Y-288848009D01*
X593160000Y-287418010D02*
X589143144Y-287418010D01*
X587713145Y-288848009D02*
X575044548Y-288848010D01*
X575044548Y-288848010D02*
X573810568Y-287614030D01*
X420080000Y-258918846D02*
X420080000Y-256834466D01*
X464967125Y-288834030D02*
X463179634Y-290621521D01*
X568778010Y-288033145D02*
X568778010Y-288035454D01*
X503903145Y-288848010D02*
X484176855Y-288848010D01*
X573810568Y-287614030D02*
X569197124Y-287614030D01*
X440241990Y-289198010D02*
X439236489Y-290203511D01*
X569197124Y-287614030D02*
X568778010Y-288033145D01*
X568778010Y-288035454D02*
X567965454Y-288848010D01*
X420111990Y-274111990D02*
X420111990Y-273561990D01*
X567965454Y-288848010D02*
X533310000Y-288848010D01*
X533310000Y-288848010D02*
X532536020Y-288074030D01*
X532536020Y-288074030D02*
X504677124Y-288074030D01*
X458896856Y-289198010D02*
X440241990Y-289198010D01*
X420111990Y-273561990D02*
X420110000Y-273560000D01*
X434570000Y-286980000D02*
X432980000Y-286980000D01*
X504677124Y-288074030D02*
X503903145Y-288848010D01*
X484176855Y-288848010D02*
X484162875Y-288834030D01*
X463179634Y-290621521D02*
X460320366Y-290621521D01*
X460320366Y-290621521D02*
X458896856Y-289198010D01*
X439236489Y-290203511D02*
X437074864Y-290203511D01*
X437074864Y-290203511D02*
X435887239Y-289015886D01*
X435887239Y-289015886D02*
X435887239Y-288297239D01*
X432980000Y-286980000D02*
X420111990Y-274111990D01*
X420110000Y-273560000D02*
X420110000Y-264943876D01*
X420110000Y-264943876D02*
X417835489Y-262669365D01*
X420080000Y-256834466D02*
X421687511Y-255226955D01*
X417835489Y-262669365D02*
X417835489Y-261163356D01*
X417835489Y-261163356D02*
X420080000Y-258918846D01*
X463006489Y-290203511D02*
X460493511Y-290203511D01*
X688340000Y-294957500D02*
X688340000Y-290180000D01*
X573983712Y-287196020D02*
X569023980Y-287196020D01*
X688340000Y-290180000D02*
X686600000Y-288440000D01*
X686600000Y-288440000D02*
X681230000Y-288440000D01*
X568360000Y-287852308D02*
X568360000Y-287862309D01*
X681230000Y-288440000D02*
X681220000Y-288430000D01*
X504503980Y-287656020D02*
X503730000Y-288430000D01*
X575217692Y-288430000D02*
X573983712Y-287196020D01*
X681220000Y-288430000D02*
X594790000Y-288430000D01*
X588970000Y-287000000D02*
X587540000Y-288430000D01*
X420555970Y-257181555D02*
X421440024Y-256297502D01*
X567792309Y-288430000D02*
X533500000Y-288430000D01*
X436305249Y-288842741D02*
X436305249Y-287945249D01*
X569023980Y-287196020D02*
X568393980Y-287826020D01*
X434840000Y-286480000D02*
X433217692Y-286480000D01*
X420075970Y-259514030D02*
X420555970Y-259514030D01*
X594790000Y-288430000D02*
X593360000Y-287000000D01*
X484336020Y-288416020D02*
X464793980Y-288416020D01*
X568393980Y-287826020D02*
X568386288Y-287826020D01*
X418253499Y-261336501D02*
X420075970Y-259514030D01*
X593360000Y-287000000D02*
X588970000Y-287000000D01*
X587540000Y-288430000D02*
X575217692Y-288430000D01*
X568360000Y-287862309D02*
X567792309Y-288430000D01*
X459070000Y-288780000D02*
X439950000Y-288780000D01*
X568386288Y-287826020D02*
X568360000Y-287852308D01*
X419470000Y-263710000D02*
X419467278Y-263710000D01*
X420555970Y-259514030D02*
X420555970Y-257181555D01*
X484350000Y-288430000D02*
X484336020Y-288416020D01*
X533500000Y-288430000D02*
X532726020Y-287656020D01*
X532726020Y-287656020D02*
X504503980Y-287656020D01*
X503730000Y-288430000D02*
X484350000Y-288430000D01*
X464793980Y-288416020D02*
X463006489Y-290203511D01*
X460493511Y-290203511D02*
X459070000Y-288780000D01*
X433217692Y-286480000D02*
X420530000Y-273792308D01*
X420530000Y-273792308D02*
X420530000Y-264770000D01*
X439950000Y-288780000D02*
X438944499Y-289785501D01*
X438944499Y-289785501D02*
X437248009Y-289785501D01*
X437248009Y-289785501D02*
X436305249Y-288842741D01*
X436305249Y-287945249D02*
X434840000Y-286480000D01*
X420530000Y-264770000D02*
X419470000Y-263710000D01*
X419467278Y-263710000D02*
X418253499Y-262496221D01*
X418253499Y-262496221D02*
X418253499Y-261336501D01*
X421440024Y-256297502D02*
X421440024Y-256181549D01*
X421440024Y-256181549D02*
X422041064Y-255580509D01*
X588560000Y-286090000D02*
X593710000Y-286090000D01*
X422748171Y-256287615D02*
X421395786Y-257640000D01*
X464858010Y-287408010D02*
X483589165Y-287408010D01*
X533890000Y-287580000D02*
X567460000Y-287580000D01*
X421395786Y-257640000D02*
X421395786Y-257755952D01*
X433668845Y-285610000D02*
X439800000Y-285610000D01*
X460410000Y-286510000D02*
X461730000Y-285190000D01*
X593710000Y-286090000D02*
X595200000Y-287580000D01*
X568040000Y-286990000D02*
X568040000Y-286960000D01*
X595200000Y-287580000D02*
X723120000Y-287580000D01*
X587160000Y-287490000D02*
X588560000Y-286090000D01*
X421395786Y-257755952D02*
X421391990Y-257759748D01*
X421391990Y-257759748D02*
X421391990Y-273471990D01*
X462640000Y-285190000D02*
X464858010Y-287408010D01*
X726440000Y-290900000D02*
X726440000Y-294957500D01*
X421391990Y-273471990D02*
X433520000Y-285600000D01*
X433520000Y-285600000D02*
X433658845Y-285600000D01*
X433658845Y-285600000D02*
X433668845Y-285610000D01*
X567460000Y-287580000D02*
X567460000Y-287570000D01*
X442046020Y-287856020D02*
X459073980Y-287856020D01*
X439800000Y-285610000D02*
X442046020Y-287856020D01*
X461730000Y-285190000D02*
X462640000Y-285190000D01*
X459073980Y-287856020D02*
X460410000Y-286520000D01*
X460410000Y-286520000D02*
X460410000Y-286510000D01*
X483589165Y-287408010D02*
X483761155Y-287580000D01*
X574330000Y-286360000D02*
X575550000Y-287580000D01*
X723120000Y-287580000D02*
X726440000Y-290900000D01*
X483761155Y-287580000D02*
X503150000Y-287580000D01*
X503150000Y-287580000D02*
X503910000Y-286820000D01*
X567460000Y-287570000D02*
X568040000Y-286990000D01*
X503910000Y-286820000D02*
X533130000Y-286820000D01*
X533130000Y-286820000D02*
X533890000Y-287580000D01*
X568040000Y-286960000D02*
X568640000Y-286360000D01*
X568640000Y-286360000D02*
X574330000Y-286360000D01*
X575550000Y-287580000D02*
X587160000Y-287580000D01*
X587160000Y-287580000D02*
X587160000Y-287490000D01*
X516890000Y-218757500D02*
X516890000Y-229300000D01*
X516890000Y-229300000D02*
X515770000Y-230420000D01*
X429900000Y-232248010D02*
X429900000Y-232344865D01*
X515770000Y-230420000D02*
X497441155Y-230420000D01*
X424910000Y-239390000D02*
X424910000Y-242610252D01*
X459543980Y-231266020D02*
X458980000Y-231830000D01*
X497441155Y-230420000D02*
X497043145Y-230818010D01*
X497043145Y-230818010D02*
X478151990Y-230818010D01*
X478151990Y-230818010D02*
X477703980Y-231266020D01*
X477703980Y-231266020D02*
X459543980Y-231266020D01*
X458980000Y-231830000D02*
X440970000Y-231830000D01*
X440970000Y-231830000D02*
X440551990Y-232248010D01*
X440551990Y-232248010D02*
X429900000Y-232248010D01*
X427370000Y-236930000D02*
X424910000Y-239390000D01*
X429900000Y-232344865D02*
X427370000Y-234874866D01*
X427370000Y-234874866D02*
X427370000Y-236930000D01*
X424910000Y-242610252D02*
X425930152Y-243630404D01*
X437960000Y-236116020D02*
X442133980Y-236116020D01*
X433258010Y-242093145D02*
X433258010Y-240810000D01*
X433258010Y-240810000D02*
X433266020Y-240810000D01*
X433266020Y-240810000D02*
X437960000Y-236116020D01*
X431869848Y-243630404D02*
X433258009Y-242242243D01*
X684257241Y-229009499D02*
X685600000Y-230352258D01*
X592960000Y-232032309D02*
X611132310Y-232032309D01*
X650043980Y-231076020D02*
X650290000Y-230830000D01*
X574045455Y-232678010D02*
X574429116Y-232294349D01*
X433258009Y-242242243D02*
X433258010Y-242093145D01*
X499863145Y-234268010D02*
X517328919Y-234268010D01*
X611720589Y-231444030D02*
X630705970Y-231444030D01*
X536641990Y-233868010D02*
X537120000Y-233390000D01*
X537120000Y-233390000D02*
X555150000Y-233390000D01*
X517728919Y-233868010D02*
X536641990Y-233868010D01*
X685600000Y-230352258D02*
X686757742Y-230352258D01*
X611132310Y-232032309D02*
X611720589Y-231444030D01*
X630705970Y-231444030D02*
X630940000Y-231210000D01*
X442133980Y-236116020D02*
X442500000Y-235750000D01*
X480111105Y-234610050D02*
X499521105Y-234610050D01*
X574429116Y-232294349D02*
X592697961Y-232294349D01*
X442500000Y-235750000D02*
X460751154Y-235750000D01*
X517328919Y-234268010D02*
X517728919Y-233868010D01*
X499521105Y-234610050D02*
X499863145Y-234268010D01*
X460751154Y-235750000D02*
X461467124Y-235034030D01*
X461467124Y-235034030D02*
X479687125Y-235034030D01*
X479687125Y-235034030D02*
X480111105Y-234610050D01*
X630940000Y-231200000D02*
X631063980Y-231076020D01*
X555150000Y-233390000D02*
X555861990Y-232678010D01*
X630940000Y-231210000D02*
X630940000Y-231200000D01*
X682516759Y-229009499D02*
X684257241Y-229009499D01*
X555861990Y-232678010D02*
X574045455Y-232678010D01*
X592697961Y-232294349D02*
X592960000Y-232032309D01*
X650290000Y-230830000D02*
X667971155Y-230830000D01*
X631063980Y-231076020D02*
X650043980Y-231076020D01*
X667971155Y-230830000D02*
X668288010Y-230513145D01*
X668288010Y-230513145D02*
X681013113Y-230513145D01*
X686757742Y-230352258D02*
X688340000Y-228770000D01*
X681013113Y-230513145D02*
X682516759Y-229009499D01*
X688340000Y-228770000D02*
X688340000Y-218757500D01*
X437173149Y-254166295D02*
X437930000Y-254923146D01*
X444726288Y-254388307D02*
X444056586Y-255058009D01*
X444056586Y-255058009D02*
X438064863Y-255058009D01*
X438064863Y-255058009D02*
X437930000Y-254923146D01*
X451655999Y-254388307D02*
X452337692Y-255070000D01*
X644014030Y-252454030D02*
X645437500Y-253877500D01*
X444726288Y-254388307D02*
X451655999Y-254388307D01*
X452337692Y-255070000D02*
X469215184Y-255070000D01*
X469215184Y-255070000D02*
X471831154Y-252454030D01*
X471831154Y-252454030D02*
X644014030Y-252454030D01*
X645437500Y-253877500D02*
X645437500Y-257437500D01*
X444380000Y-253552287D02*
X445920000Y-253552287D01*
X445920000Y-253552287D02*
X446157713Y-253552287D01*
X452639141Y-254189141D02*
X452002287Y-253552287D01*
X452002287Y-253552287D02*
X445920000Y-253552287D01*
X468910859Y-254189141D02*
X452639141Y-254189141D01*
X446157713Y-253552287D02*
X446183980Y-253526020D01*
X438610210Y-254189142D02*
X443743145Y-254189142D01*
X443743145Y-254189142D02*
X444380000Y-253552287D01*
X437880256Y-253459188D02*
X438610210Y-254189142D01*
X693940000Y-251060000D02*
X695500000Y-252620000D01*
X468910859Y-254189141D02*
X471481990Y-251618010D01*
X471481990Y-251618010D02*
X678493145Y-251618010D01*
X678493145Y-251618010D02*
X679051155Y-251060000D01*
X679051155Y-251060000D02*
X693940000Y-251060000D01*
X695500000Y-252620000D02*
X695483750Y-252636250D01*
X695483750Y-252636250D02*
X695483750Y-256857500D01*
X420273297Y-249287258D02*
X419136039Y-248150000D01*
X419136039Y-248150000D02*
X418198845Y-248150000D01*
X418198845Y-248150000D02*
X415242875Y-251105970D01*
X415242875Y-251105970D02*
X409972875Y-251105970D01*
X409972875Y-251105970D02*
X408710000Y-252368846D01*
X408710000Y-252368846D02*
X406135970Y-254942875D01*
X406135970Y-254942875D02*
X406135970Y-267599030D01*
X406135970Y-267599030D02*
X397827500Y-275907500D01*
X426600000Y-264370000D02*
X426600000Y-264794264D01*
X426600000Y-264794264D02*
X427020000Y-265214264D01*
X427020000Y-265214264D02*
X427020000Y-266590000D01*
X426283705Y-259823149D02*
X426884745Y-259222109D01*
X426884745Y-259222109D02*
X426884745Y-258254745D01*
X426884745Y-258254745D02*
X426850000Y-258220000D01*
X451680000Y-284480000D02*
X452596250Y-283563750D01*
X427020000Y-274050000D02*
X434840000Y-281870000D01*
X441300000Y-281870000D02*
X443910000Y-284480000D01*
X434840000Y-281870000D02*
X441300000Y-281870000D01*
X443910000Y-284480000D02*
X451680000Y-284480000D01*
X452596250Y-283563750D02*
X452596250Y-275907500D01*
X427020000Y-266590000D02*
X427020000Y-274050000D01*
X424846645Y-259845996D02*
X424846645Y-265700000D01*
X482701154Y-284590000D02*
X501890000Y-284590000D01*
X502602500Y-283877500D02*
X502602500Y-275907500D01*
X466076856Y-284888010D02*
X482403145Y-284888010D01*
X461293145Y-281808010D02*
X462996856Y-281808010D01*
X458213145Y-284888010D02*
X461293145Y-281808010D01*
X453570000Y-284890000D02*
X453571990Y-284888010D01*
X443563712Y-285316020D02*
X452723980Y-285316020D01*
X426181990Y-274394300D02*
X434493711Y-282706020D01*
X434493711Y-282706020D02*
X440953712Y-282706020D01*
X462996856Y-281808010D02*
X466076856Y-284888010D01*
X453571990Y-284888010D02*
X458213145Y-284888010D01*
X426181990Y-267031990D02*
X426181990Y-274394300D01*
X501890000Y-284590000D02*
X502602500Y-283877500D01*
X424850000Y-265700000D02*
X426181990Y-267031990D01*
X453150000Y-284890000D02*
X453570000Y-284890000D01*
X440953712Y-282706020D02*
X443563712Y-285316020D01*
X482403145Y-284888010D02*
X482701154Y-284590000D01*
X425576598Y-259116043D02*
X424846645Y-259845996D01*
X452723980Y-285316020D02*
X453150000Y-284890000D01*
X424846645Y-265700000D02*
X424850000Y-265700000D01*
X424010625Y-259267802D02*
X424010625Y-266046290D01*
X539150000Y-284670000D02*
X540702500Y-283117500D01*
X502236290Y-285426020D02*
X502600000Y-285062309D01*
X465680000Y-285726020D02*
X482883980Y-285726020D01*
X462743980Y-282790000D02*
X465680000Y-285726020D01*
X461630000Y-282790000D02*
X462743980Y-282790000D01*
X453070269Y-286152040D02*
X453496288Y-285726020D01*
X482883980Y-285726020D02*
X483183980Y-285426020D01*
X443170000Y-286152040D02*
X453070269Y-286152040D01*
X434305381Y-283700000D02*
X440717960Y-283700000D01*
X521311154Y-284670000D02*
X539150000Y-284670000D01*
X425345970Y-267378278D02*
X425345970Y-274740589D01*
X458693980Y-285726020D02*
X461630000Y-282790000D01*
X424995702Y-267028010D02*
X425345970Y-267378278D01*
X424992345Y-267028010D02*
X424995702Y-267028010D01*
X502600000Y-285062309D02*
X520918845Y-285062309D01*
X520918845Y-285062309D02*
X521311154Y-284670000D01*
X483183980Y-285426020D02*
X502236290Y-285426020D01*
X424869491Y-258408936D02*
X424010625Y-259267802D01*
X440717960Y-283700000D02*
X443170000Y-286152040D01*
X425345970Y-274740589D02*
X434305381Y-283700000D01*
X424010625Y-266046290D02*
X424992345Y-267028010D01*
X540702500Y-283117500D02*
X540702500Y-275907500D01*
X453496288Y-285726020D02*
X458693980Y-285726020D01*
X423174605Y-258689609D02*
X423174605Y-266392580D01*
X424162385Y-257701829D02*
X423174605Y-258689609D01*
X453830000Y-286620000D02*
X459090000Y-286620000D01*
X423174605Y-266392580D02*
X424470000Y-267687975D01*
X465333710Y-286562040D02*
X483427960Y-286562040D01*
X496262038Y-286262038D02*
X496280000Y-286280000D01*
X424470000Y-267687975D02*
X424470000Y-275211154D01*
X424470000Y-275211154D02*
X433893452Y-284634607D01*
X558530000Y-285130000D02*
X558880000Y-284780000D01*
X433893452Y-284634607D02*
X440470260Y-284634607D01*
X575400000Y-284780000D02*
X577560000Y-284780000D01*
X577560000Y-284780000D02*
X578802500Y-283537500D01*
X440470260Y-284634607D02*
X442855653Y-287020000D01*
X461611990Y-284098010D02*
X462869683Y-284098010D01*
X568090000Y-283750000D02*
X574370000Y-283750000D01*
X442855653Y-287020000D02*
X453430000Y-287020000D01*
X502591153Y-286280000D02*
X502921153Y-285950000D01*
X462869683Y-284098010D02*
X465333710Y-286562040D01*
X453430000Y-287020000D02*
X453830000Y-286620000D01*
X459090000Y-286620000D02*
X461611990Y-284098010D01*
X483427960Y-286562040D02*
X483727962Y-286262038D01*
X496280000Y-286280000D02*
X502591153Y-286280000D01*
X483727962Y-286262038D02*
X496262038Y-286262038D01*
X502921153Y-285950000D02*
X521440000Y-285950000D01*
X521440000Y-285950000D02*
X521789682Y-285600318D01*
X539872310Y-285130000D02*
X558530000Y-285130000D01*
X521789682Y-285600318D02*
X539401992Y-285600318D01*
X567060000Y-284780000D02*
X568090000Y-283750000D01*
X539401992Y-285600318D02*
X539872310Y-285130000D01*
X558880000Y-284780000D02*
X567060000Y-284780000D01*
X578802500Y-283537500D02*
X578802500Y-275907500D01*
X574370000Y-283750000D02*
X575400000Y-284780000D01*
X430520000Y-265930000D02*
X430520000Y-265528829D01*
X430520000Y-265528829D02*
X426743325Y-261752154D01*
X426743325Y-261752154D02*
X426743325Y-261484850D01*
X426743325Y-261484850D02*
X427344365Y-260883810D01*
X430520000Y-265930000D02*
X433480000Y-268890000D01*
X437030000Y-268880000D02*
X438137693Y-268880000D01*
X468030000Y-270780000D02*
X615040000Y-270780000D01*
X433480000Y-268890000D02*
X437020000Y-268890000D01*
X437020000Y-268890000D02*
X437030000Y-268880000D01*
X460300000Y-275170000D02*
X463640000Y-275170000D01*
X438137693Y-268880000D02*
X440027693Y-270770000D01*
X460175401Y-275015401D02*
X460175401Y-275045401D01*
X463640000Y-275170000D02*
X468030000Y-270780000D01*
X440027693Y-270770000D02*
X452870000Y-270770000D01*
X460175401Y-275045401D02*
X460300000Y-275170000D01*
X452870000Y-270770000D02*
X452880000Y-270780000D01*
X452880000Y-270780000D02*
X455940000Y-270780000D01*
X455940000Y-270780000D02*
X460175401Y-275015401D01*
X615040000Y-270780000D02*
X616902500Y-272642500D01*
X616902500Y-272642500D02*
X616902500Y-275907500D01*
X655002500Y-275907500D02*
X655002500Y-271632500D01*
X655002500Y-271632500D02*
X653286020Y-269916020D01*
X653286020Y-269916020D02*
X440356020Y-269916020D01*
X440356020Y-269916020D02*
X438476019Y-268036019D01*
X438476019Y-268036019D02*
X434724864Y-268036019D01*
X434724864Y-268036019D02*
X430924719Y-264235874D01*
X430924719Y-264235874D02*
X430924719Y-262060000D01*
X430924719Y-262060000D02*
X430102082Y-261237363D01*
X707390000Y-275907500D02*
X707390000Y-273750000D01*
X704400000Y-273030000D02*
X706670000Y-273030000D01*
X706670000Y-273030000D02*
X707390000Y-273750000D01*
X703000000Y-271630000D02*
X704400000Y-273030000D01*
X679040000Y-271120000D02*
X703000000Y-271120000D01*
X703000000Y-271120000D02*
X703000000Y-271630000D01*
X430809188Y-260530256D02*
X431410228Y-261131296D01*
X431410228Y-261131296D02*
X431421296Y-261131296D01*
X431421296Y-261131296D02*
X431951990Y-261661990D01*
X431951990Y-261661990D02*
X431951990Y-263945454D01*
X435206536Y-267200000D02*
X438898846Y-267200000D01*
X677000000Y-269080000D02*
X679040000Y-271120000D01*
X431951990Y-263945454D02*
X435206536Y-267200000D01*
X438898846Y-267200000D02*
X440778846Y-269080000D01*
X440778846Y-269080000D02*
X677000000Y-269080000D01*
X410146020Y-251523980D02*
X406553980Y-255116020D01*
X406553980Y-255116020D02*
X406553980Y-286231020D01*
X406553980Y-286231020D02*
X398952499Y-293832501D01*
X398952499Y-293832501D02*
X397827500Y-294957500D01*
X418133980Y-248806020D02*
X415416020Y-251523980D01*
X415416020Y-251523980D02*
X410146020Y-251523980D01*
X419084952Y-248806020D02*
X418133980Y-248806020D01*
X419919744Y-249640812D02*
X419084952Y-248806020D01*
X413068563Y-259236589D02*
X411636589Y-260668562D01*
X420273297Y-253812742D02*
X418365970Y-255720069D01*
X411636589Y-260668562D02*
X411636589Y-263206438D01*
X418365970Y-255720069D02*
X418365970Y-257908474D01*
X418365970Y-257908474D02*
X417037855Y-259236589D01*
X441190000Y-290990000D02*
X443670000Y-290990000D01*
X434010000Y-289031154D02*
X434010000Y-289800000D01*
X418980000Y-275490000D02*
X418990000Y-275490000D01*
X417037855Y-259236589D02*
X413068563Y-259236589D01*
X411636589Y-263206438D02*
X413158161Y-264728010D01*
X443670000Y-290990000D02*
X445452500Y-292772500D01*
X413158161Y-264728010D02*
X417346856Y-264728010D01*
X418311990Y-274821990D02*
X418980000Y-275490000D01*
X417346856Y-264728010D02*
X418311990Y-265693144D01*
X418990000Y-275490000D02*
X432290000Y-288790000D01*
X418311990Y-265693144D02*
X418311990Y-274821990D01*
X432290000Y-288790000D02*
X433768846Y-288790000D01*
X433768846Y-288790000D02*
X434010000Y-289031154D01*
X434010000Y-289800000D02*
X436120000Y-291910000D01*
X436120000Y-291910000D02*
X440270000Y-291910000D01*
X440270000Y-291910000D02*
X441190000Y-290990000D01*
X445452500Y-292772500D02*
X445452500Y-294957500D01*
X707350000Y-295537500D02*
X707350000Y-289700000D01*
X568843144Y-286778010D02*
X567940000Y-287681154D01*
X705648010Y-287998010D02*
X595026855Y-287998010D01*
X707350000Y-289700000D02*
X705648010Y-287998010D01*
X567633145Y-287998010D02*
X533716856Y-287998010D01*
X433495700Y-286028010D02*
X433487690Y-286020000D01*
X595026855Y-287998010D02*
X593536856Y-286508010D01*
X464601990Y-287998010D02*
X462814499Y-289785501D01*
X593536856Y-286508010D02*
X588829999Y-286508010D01*
X588829999Y-286508010D02*
X587340000Y-287998009D01*
X587340000Y-287998009D02*
X575376855Y-287998009D01*
X575376855Y-287998009D02*
X574156856Y-286778010D01*
X441630000Y-288140000D02*
X439518010Y-286028010D01*
X567940000Y-287691155D02*
X567633145Y-287998010D01*
X567940000Y-287681154D02*
X567940000Y-287691155D01*
X574156856Y-286778010D02*
X568843144Y-286778010D01*
X462814499Y-289785501D02*
X460758596Y-289785501D01*
X441872875Y-288274030D02*
X441738845Y-288140000D01*
X439518010Y-286028010D02*
X433495700Y-286028010D01*
X533716856Y-287998010D02*
X532956856Y-287238010D01*
X532956856Y-287238010D02*
X504281990Y-287238010D01*
X504281990Y-287238010D02*
X503521990Y-287998010D01*
X503521990Y-287998010D02*
X464601990Y-287998010D01*
X433348846Y-286020000D02*
X420973980Y-273645135D01*
X460758596Y-289785501D02*
X459247125Y-288274030D01*
X441738845Y-288140000D02*
X441630000Y-288140000D01*
X459247125Y-288274030D02*
X441872875Y-288274030D01*
X433487690Y-286020000D02*
X433348846Y-286020000D01*
X420973980Y-273645135D02*
X420973980Y-257354700D01*
X420973980Y-257354700D02*
X422394618Y-255934062D01*
M02*
