G04 #@! TF.FileFunction,Legend,Bot*
%FSLAX46Y46*%
G04 Gerber Fmt 4.6, Leading zero omitted, Abs format (unit mm)*
G04 Created by KiCad (PCBNEW 4.0.7) date 05/14/18 18:10:09*
%MOMM*%
%LPD*%
G01*
G04 APERTURE LIST*
%ADD10C,0.100000*%
%ADD11C,0.150000*%
%ADD12C,0.120000*%
%ADD13C,0.127000*%
G04 APERTURE END LIST*
D10*
D11*
X428900000Y-261696982D02*
X428387348Y-261184330D01*
X439046982Y-251550000D02*
X438481297Y-250984315D01*
X428900000Y-241403018D02*
X429465685Y-241968703D01*
X418753018Y-251550000D02*
X419318703Y-252115685D01*
X428900000Y-261696982D02*
X429465685Y-261131297D01*
X418753018Y-251550000D02*
X419318703Y-250984315D01*
X428900000Y-241403018D02*
X428334315Y-241968703D01*
X439046982Y-251550000D02*
X438481297Y-252115685D01*
X428387348Y-261184330D02*
X427485786Y-262085891D01*
D12*
X404300000Y-233230000D02*
X405300000Y-233230000D01*
X405300000Y-234930000D02*
X404300000Y-234930000D01*
X428060000Y-270320000D02*
X428060000Y-271020000D01*
X429260000Y-271020000D02*
X429260000Y-270320000D01*
X422220000Y-270290000D02*
X422220000Y-270990000D01*
X423420000Y-270990000D02*
X423420000Y-270290000D01*
X439850000Y-256290000D02*
X439150000Y-256290000D01*
X439150000Y-257490000D02*
X439850000Y-257490000D01*
X414190000Y-253850000D02*
X413490000Y-253850000D01*
X413490000Y-255050000D02*
X414190000Y-255050000D01*
X457340000Y-251140000D02*
X456640000Y-251140000D01*
X456640000Y-252340000D02*
X457340000Y-252340000D01*
X436213502Y-263554974D02*
X435718528Y-263060000D01*
X434870000Y-263908528D02*
X435364974Y-264403502D01*
X404450000Y-245520000D02*
X405150000Y-245520000D01*
X405150000Y-244320000D02*
X404450000Y-244320000D01*
X465020000Y-252350000D02*
X465720000Y-252350000D01*
X465720000Y-251150000D02*
X465020000Y-251150000D01*
X432753223Y-237258249D02*
X432258249Y-237753223D01*
X433106777Y-238601751D02*
X433601751Y-238106777D01*
X424420000Y-235410000D02*
X424420000Y-236110000D01*
X425620000Y-236110000D02*
X425620000Y-235410000D01*
D13*
X434090000Y-275593500D02*
X434090000Y-270907200D01*
X430280000Y-275593500D02*
X430280000Y-270907200D01*
X432908900Y-269726100D02*
X434090000Y-270907200D01*
X431461100Y-269726100D02*
X430280000Y-270907200D01*
X431461100Y-269726100D02*
G75*
G02X432908900Y-269726100I723900J-723900D01*
G01*
X431232500Y-276546000D02*
X433137500Y-276546000D01*
X434090000Y-275593500D02*
G75*
G02X433137500Y-276546000I-952500J0D01*
G01*
X431232500Y-276546000D02*
G75*
G02X430280000Y-275593500I0J952500D01*
G01*
D12*
X407590000Y-223740000D02*
X407590000Y-222740000D01*
X406230000Y-222740000D02*
X406230000Y-223740000D01*
X403720000Y-223770000D02*
X403720000Y-222770000D01*
X402360000Y-222770000D02*
X402360000Y-223770000D01*
X406460000Y-228820000D02*
X406460000Y-230620000D01*
X403240000Y-230620000D02*
X403240000Y-228170000D01*
M02*
