M48
INCH,TZ
T1C0.016
T2C0.024
T3C0.058
%
G90
G05
T1
X15.8496Y-8.6614
X15.9354Y-8.7244
X15.9472Y-8.6618
X15.9496Y-9.7933
X15.9654Y-9.7488
X16.0331Y-8.6461
X16.1382Y-8.5921
X16.1625Y-9.6248
X16.1669Y-9.7925
X16.1752Y-10.7283
X16.2831Y-10.5764
X16.3079Y-8.7008
X16.6378Y-9.8016
X16.6413Y-9.963
X16.7685Y-9.6728
X16.7764Y-10.065
X16.7953Y-10.4083
X16.8051Y-10.1661
X16.8547Y-10.1181
X16.8762Y-10.4757
X16.9055Y-9.6028
X16.9055Y-9.6028
X16.9177Y-10.4874
X16.9736Y-10.0764
X16.978Y-10.0303
X16.9961Y-10.1283
X17.0386Y-9.7228
X17.0748Y-10.05
X17.1638Y-9.8496
X17.4004Y-10.3764
X17.4177Y-9.4594
X17.5421Y-9.6114
X18.0437Y-10.6917
X18.0917Y-9.9114
X18.2114Y-9.9106
X21.1638Y-11.4484
T3
X15.4125Y-8.7125
X15.4125Y-9.4625
X15.4125Y-10.2125
X15.4125Y-10.9625
X15.4125Y-11.7125
X15.4641Y-8.655
X15.4641Y-9.405
X15.4641Y-10.155
X15.4641Y-10.905
X15.4641Y-11.655
X15.6609Y-8.6353
X15.6609Y-9.3853
X15.6609Y-10.1353
X15.6609Y-10.8853
X15.6609Y-11.6353
X15.6625Y-8.6125
X15.6625Y-9.3625
X15.6625Y-10.1125
X15.6625Y-10.8625
X15.6625Y-11.6125
X16.1625Y-8.7125
X16.1625Y-9.4625
X16.1625Y-10.2125
X16.1625Y-10.9625
X16.1625Y-11.7125
X16.2141Y-8.655
X16.2141Y-9.405
X16.2141Y-10.155
X16.2141Y-10.905
X16.2141Y-11.655
X16.4109Y-8.6353
X16.4109Y-9.3853
X16.4109Y-10.1353
X16.4109Y-10.8853
X16.4109Y-11.6353
X16.4125Y-8.6125
X16.4125Y-9.3625
X16.4125Y-10.1125
X16.4125Y-10.8625
X16.4125Y-11.6125
X17.1Y-8.7125
X17.1516Y-8.655
X17.2875Y-9.4625
X17.2875Y-11.7125
X17.3391Y-9.405
X17.3391Y-11.655
X17.3484Y-8.6353
X17.35Y-8.6125
X17.3812Y-10.2125
X17.4328Y-10.155
X17.5359Y-9.3853
X17.5359Y-11.6353
X17.5375Y-9.3625
X17.5375Y-11.6125
X17.5687Y-10.9625
X17.6203Y-10.905
X17.6297Y-10.1353
X17.6312Y-10.1125
X17.8172Y-10.8853
X17.8187Y-10.8625
X17.85Y-8.7125
X17.9016Y-8.655
X18.0984Y-8.6353
X18.1Y-8.6125
X18.225Y-9.4625
X18.2766Y-9.405
X18.4125Y-10.2125
X18.4641Y-10.155
X18.4734Y-9.3853
X18.475Y-9.3625
X18.6Y-8.7125
X18.6516Y-8.655
X18.6609Y-10.1353
X18.6625Y-10.1125
X18.7875Y-10.9625
X18.8391Y-10.905
X18.8484Y-8.6353
X18.85Y-8.6125
X18.975Y-9.4625
X19.0266Y-9.405
X19.0359Y-10.8853
X19.0375Y-10.8625
X19.1625Y-10.2125
X19.1625Y-11.7125
X19.2141Y-10.155
X19.2141Y-11.655
X19.2234Y-9.3853
X19.225Y-9.3625
X19.35Y-8.7125
X19.4016Y-8.655
X19.4109Y-10.1353
X19.4109Y-11.6353
X19.4125Y-10.1125
X19.4125Y-11.6125
X19.5375Y-10.9625
X19.5891Y-10.905
X19.5984Y-8.6353
X19.6Y-8.6125
X19.725Y-9.4625
X19.7766Y-9.405
X19.7859Y-10.8853
X19.7875Y-10.8625
X19.9125Y-10.2125
X19.9641Y-10.155
X19.9734Y-9.3853
X19.975Y-9.3625
X20.1Y-8.7125
X20.1516Y-8.655
X20.1609Y-10.1353
X20.1625Y-10.1125
X20.2875Y-10.9625
X20.3391Y-10.905
X20.3484Y-8.6353
X20.35Y-8.6125
X20.475Y-9.4625
X20.5266Y-9.405
X20.5359Y-10.8853
X20.5375Y-10.8625
X20.6625Y-10.2125
X20.7141Y-10.155
X20.7234Y-9.3853
X20.725Y-9.3625
X20.85Y-8.7125
X20.85Y-11.7125
X20.9016Y-8.655
X20.9016Y-11.655
X20.9109Y-10.1353
X20.9125Y-10.1125
X21.0375Y-10.9625
X21.0891Y-10.905
X21.0984Y-8.6353
X21.0984Y-11.6353
X21.1Y-8.6125
X21.1Y-11.6125
X21.225Y-9.4625
X21.2766Y-9.405
X21.2859Y-10.8853
X21.2875Y-10.8625
X21.4125Y-10.2125
X21.4641Y-10.155
X21.4734Y-9.3853
X21.475Y-9.3625
X21.6Y-8.7125
X21.6516Y-8.655
X21.6609Y-10.1353
X21.6625Y-10.1125
X21.7875Y-10.9625
X21.8391Y-10.905
X21.8484Y-8.6353
X21.85Y-8.6125
X21.975Y-9.4625
X22.0266Y-9.405
X22.0359Y-10.8853
X22.0375Y-10.8625
X22.1625Y-10.2125
X22.2141Y-10.155
X22.2234Y-9.3853
X22.225Y-9.3625
X22.35Y-8.7125
X22.35Y-11.7125
X22.4016Y-8.655
X22.4016Y-11.655
X22.4109Y-10.1353
X22.4125Y-10.1125
X22.5375Y-10.9625
X22.5891Y-10.905
X22.5984Y-8.6353
X22.5984Y-11.6353
X22.6Y-8.6125
X22.6Y-11.6125
X22.725Y-9.4625
X22.7766Y-9.405
X22.7859Y-10.8853
X22.7875Y-10.8625
X22.9125Y-10.2125
X22.9641Y-10.155
X22.9734Y-9.3853
X22.975Y-9.3625
X23.1Y-8.7125
X23.1Y-11.7125
X23.1516Y-8.655
X23.1516Y-11.655
X23.1609Y-10.1353
X23.1625Y-10.1125
X23.2875Y-10.9625
X23.3391Y-10.905
X23.3484Y-8.6353
X23.3484Y-11.6353
X23.35Y-8.6125
X23.35Y-11.6125
X23.475Y-9.4625
X23.5266Y-9.405
X23.5359Y-10.8853
X23.5375Y-10.8625
X23.6625Y-10.2125
X23.7141Y-10.155
X23.7234Y-9.3853
X23.725Y-9.3625
X23.85Y-8.7125
X23.85Y-11.7125
X23.9016Y-8.655
X23.9016Y-11.655
X23.9109Y-10.1353
X23.9125Y-10.1125
X24.0375Y-10.9625
X24.0891Y-10.905
X24.0984Y-8.6353
X24.0984Y-11.6353
X24.1Y-8.6125
X24.1Y-11.6125
X24.225Y-9.4625
X24.2766Y-9.405
X24.2859Y-10.8853
X24.2875Y-10.8625
X24.4125Y-10.2125
X24.4641Y-10.155
X24.4734Y-9.3853
X24.475Y-9.3625
X24.6Y-8.7125
X24.6Y-11.7125
X24.6516Y-8.655
X24.6516Y-11.655
X24.6609Y-10.1353
X24.6625Y-10.1125
X24.7875Y-10.9625
X24.8391Y-10.905
X24.8484Y-8.6353
X24.8484Y-11.6353
X24.85Y-8.6125
X24.85Y-11.6125
X24.975Y-9.4625
X25.0266Y-9.405
X25.0359Y-10.8853
X25.0375Y-10.8625
X25.1625Y-10.2125
X25.2141Y-10.155
X25.2234Y-9.3853
X25.225Y-9.3625
X25.35Y-8.7125
X25.4016Y-8.655
X25.4109Y-10.1353
X25.4125Y-10.1125
X25.5375Y-10.9625
X25.5375Y-11.7125
X25.5891Y-10.905
X25.5891Y-11.655
X25.5984Y-8.6353
X25.6Y-8.6125
X25.725Y-9.4625
X25.7766Y-9.405
X25.7859Y-10.8853
X25.7859Y-11.6353
X25.7875Y-10.8625
X25.7875Y-11.6125
X25.9125Y-10.2125
X25.9641Y-10.155
X25.9734Y-9.3853
X25.975Y-9.3625
X26.1Y-8.7125
X26.1516Y-8.655
X26.1609Y-10.1353
X26.1625Y-10.1125
X26.3484Y-8.6353
X26.35Y-8.6125
X26.475Y-9.4625
X26.5266Y-9.405
X26.5687Y-10.9625
X26.6203Y-10.905
X26.7234Y-9.3853
X26.725Y-9.3625
X26.8172Y-10.8853
X26.8187Y-10.8625
X26.85Y-8.7125
X26.85Y-11.7125
X26.9016Y-8.655
X26.9016Y-11.655
X27.0984Y-8.6353
X27.0984Y-11.6353
X27.1Y-8.6125
X27.1Y-11.6125
X27.1312Y-10.2125
X27.1828Y-10.155
X27.225Y-8.7125
X27.2766Y-8.655
X27.3797Y-10.1353
X27.3812Y-10.1125
X27.4125Y-9.4625
X27.4641Y-9.405
X27.4734Y-8.6353
X27.475Y-8.6125
X27.6Y-8.7125
X27.6Y-10.9625
X27.6Y-11.7125
X27.6516Y-8.655
X27.6516Y-10.905
X27.6516Y-11.655
X27.6609Y-9.3853
X27.6625Y-9.3625
X27.8484Y-8.6353
X27.8484Y-10.8853
X27.8484Y-11.6353
X27.85Y-8.6125
X27.85Y-10.8625
X27.85Y-11.6125
X28.35Y-9.4625
X28.35Y-10.2125
X28.35Y-10.9625
X28.35Y-11.7125
X28.4016Y-9.405
X28.4016Y-10.155
X28.4016Y-10.905
X28.4016Y-11.655
X28.5984Y-9.3853
X28.5984Y-10.1353
X28.5984Y-10.8853
X28.5984Y-11.6353
X28.6Y-9.3625
X28.6Y-10.1125
X28.6Y-10.8625
X28.6Y-11.6125
T2
X15.7674Y-8.3406G85X15.7674Y-8.3642
G05
X15.7674Y-8.4953G85X15.7674Y-8.5386
G05
X16.1076Y-8.3406G85X16.1076Y-8.3642
G05
X16.1076Y-8.4953G85X16.1076Y-8.5386
G05
T0
M30
