M48
;DRILL file {KiCad (5.0.0-rc2-dev-733-g23a9fcd91)} date 05/31/18 02:42:50
;FORMAT={-:-/ absolute / metric / decimal}
FMAT,2
METRIC,TZ
T1C0.650
T2C0.986
T3C0.988
T4C1.750
T5C2.000
T6C3.048
T7C3.988
%
G90
G05
M71
T1
X92.284Y-82.099
X98.064Y-82.099
T2
X104.97Y-132.709
X104.97Y-134.741
T3
X110.05Y-133.725
T4
X287.814Y-147.637
X297.974Y-147.637
X78.264Y-147.637
X88.424Y-147.637
X321.151Y-128.588
X331.311Y-128.588
X183.039Y-166.688
X193.199Y-166.688
X113.983Y-166.688
X124.142Y-166.688
X368.776Y-166.688
X378.936Y-166.688
X59.214Y-128.588
X69.374Y-128.588
X59.214Y-147.637
X69.374Y-147.637
X292.576Y-185.737
X302.736Y-185.737
X449.739Y-109.537
X459.899Y-109.537
X259.239Y-166.688
X269.399Y-166.688
X387.826Y-109.537
X397.986Y-109.537
X278.289Y-166.688
X288.449Y-166.688
X187.801Y-90.487
X197.961Y-90.487
X449.739Y-90.487
X459.899Y-90.487
X302.101Y-90.487
X312.261Y-90.487
X187.801Y-128.588
X197.961Y-128.588
X216.376Y-109.537
X226.536Y-109.537
X421.164Y-185.737
X431.324Y-185.737
X369.094Y-133.032
X369.094Y-143.192
X249.714Y-147.637
X259.874Y-147.637
X430.689Y-128.588
X440.849Y-128.588
X349.726Y-185.737
X359.886Y-185.737
X109.22Y-147.796
X119.38Y-147.796
X411.639Y-128.588
X421.799Y-128.588
X368.776Y-185.737
X378.936Y-185.737
X104.457Y-166.688
X114.617Y-166.688
X240.189Y-166.688
X250.349Y-166.688
X430.689Y-90.487
X440.849Y-90.487
X473.869Y-133.032
X473.869Y-143.192
X221.139Y-166.688
X231.299Y-166.688
X411.639Y-109.537
X421.799Y-109.537
X430.689Y-185.737
X440.849Y-185.737
X216.376Y-90.487
X226.536Y-90.487
X349.726Y-109.537
X359.886Y-109.537
X163.989Y-166.688
X174.149Y-166.688
X78.264Y-90.487
X88.424Y-90.487
X225.901Y-128.588
X236.061Y-128.588
X168.751Y-128.588
X178.911Y-128.588
X359.251Y-109.537
X369.411Y-109.537
X387.826Y-128.588
X397.986Y-128.588
X468.789Y-128.588
X478.949Y-128.588
X78.264Y-185.737
X88.424Y-185.737
X340.201Y-109.537
X350.361Y-109.537
X340.201Y-128.588
X350.361Y-128.588
X449.739Y-166.688
X459.899Y-166.688
X268.764Y-147.637
X278.924Y-147.637
X59.214Y-185.737
X69.374Y-185.737
X130.651Y-128.588
X140.811Y-128.588
X468.789Y-147.637
X478.949Y-147.637
X202.089Y-166.688
X212.249Y-166.688
X159.226Y-109.537
X169.386Y-109.537
X411.639Y-185.737
X421.799Y-185.737
X168.751Y-90.487
X178.911Y-90.487
X273.526Y-109.537
X283.686Y-109.537
X368.776Y-109.537
X378.936Y-109.537
X149.701Y-128.588
X159.861Y-128.588
X387.826Y-147.637
X397.986Y-147.637
X154.464Y-147.637
X164.624Y-147.637
X468.789Y-166.688
X478.949Y-166.688
X356.87Y-147.637
X367.03Y-147.637
X364.014Y-128.588
X374.174Y-128.588
X197.326Y-185.737
X207.486Y-185.737
X78.264Y-166.688
X88.424Y-166.688
X411.639Y-166.688
X421.799Y-166.688
X330.676Y-109.537
X340.836Y-109.537
X449.739Y-147.637
X459.899Y-147.637
X387.826Y-90.487
X397.986Y-90.487
X316.389Y-185.737
X326.549Y-185.737
X340.201Y-90.487
X350.361Y-90.487
X235.426Y-109.537
X245.586Y-109.537
X102.076Y-90.487
X112.236Y-90.487
X78.264Y-128.588
X88.424Y-128.588
X311.626Y-109.537
X321.786Y-109.537
X325.914Y-147.637
X336.074Y-147.637
X283.051Y-128.588
X293.211Y-128.588
X235.426Y-185.737
X245.586Y-185.737
X244.951Y-128.588
X255.111Y-128.588
X254.476Y-185.737
X264.636Y-185.737
X230.664Y-147.637
X240.824Y-147.637
X273.526Y-185.737
X283.686Y-185.737
X140.176Y-109.537
X150.336Y-109.537
X264.001Y-128.588
X274.161Y-128.588
X468.789Y-185.737
X478.949Y-185.737
X130.651Y-90.487
X140.811Y-90.487
X178.276Y-109.537
X188.436Y-109.537
X106.839Y-185.737
X116.999Y-185.737
X273.526Y-90.487
X283.686Y-90.487
X59.214Y-109.537
X69.374Y-109.537
X359.251Y-90.487
X369.411Y-90.487
X254.476Y-109.537
X264.636Y-109.537
X78.264Y-109.537
X88.424Y-109.537
X211.614Y-147.637
X221.774Y-147.637
X135.414Y-147.637
X145.574Y-147.637
X342.582Y-166.688
X352.743Y-166.688
X144.939Y-166.688
X155.099Y-166.688
X473.869Y-171.132
X473.869Y-181.292
X59.214Y-166.688
X69.374Y-166.688
X154.464Y-185.737
X164.624Y-185.737
X121.126Y-109.537
X131.286Y-109.537
X411.639Y-147.637
X421.799Y-147.637
X449.739Y-185.737
X459.899Y-185.737
X254.476Y-90.487
X264.636Y-90.487
X102.076Y-109.537
X112.236Y-109.537
X430.689Y-166.688
X440.849Y-166.688
X235.426Y-90.487
X245.586Y-90.487
X411.639Y-90.487
X421.799Y-90.487
X321.151Y-90.487
X331.311Y-90.487
X206.851Y-128.588
X217.011Y-128.588
X468.789Y-90.487
X478.949Y-90.487
X173.514Y-147.637
X183.674Y-147.637
X302.101Y-128.588
X312.261Y-128.588
X449.739Y-128.588
X459.899Y-128.588
X297.339Y-166.688
X307.499Y-166.688
X192.564Y-147.637
X202.724Y-147.637
X387.826Y-166.688
X397.986Y-166.688
X306.864Y-147.637
X317.024Y-147.637
X387.826Y-185.737
X397.986Y-185.737
X106.839Y-128.588
X116.999Y-128.588
X430.689Y-147.637
X440.849Y-147.637
X125.889Y-166.688
X136.049Y-166.688
X149.701Y-90.487
X159.861Y-90.487
X430.689Y-109.537
X440.849Y-109.537
X316.389Y-166.688
X326.549Y-166.688
X197.326Y-109.537
X207.486Y-109.537
X59.214Y-90.487
X69.374Y-90.487
X292.576Y-109.537
X302.736Y-109.537
X468.789Y-109.537
X478.949Y-109.537
T6
X107.124Y-159.702
X131.Y-159.702
X414.306Y-178.752
X438.182Y-178.752
X362.109Y-126.174
X362.109Y-150.05
X480.854Y-126.174
X480.854Y-150.05
X352.393Y-102.552
X376.269Y-102.552
X333.343Y-102.552
X357.219Y-102.552
X350.012Y-140.653
X373.888Y-140.653
X183.356Y-178.752
X221.456Y-178.752
X278.606Y-178.752
X183.356Y-178.752
X297.656Y-178.752
X240.506Y-178.752
X278.606Y-178.752
X259.556Y-178.752
X297.656Y-178.752
X480.854Y-164.274
X480.854Y-188.15
T7
X154.781Y-128.588
X392.906Y-147.637
X159.544Y-147.637
X473.869Y-166.688
X350.012Y-155.892
X361.95Y-147.637
X373.888Y-155.892
X369.094Y-128.588
X183.356Y-193.992
X202.406Y-185.737
X221.456Y-193.992
X83.344Y-166.688
X416.719Y-166.688
X335.756Y-109.537
X454.819Y-147.637
X278.606Y-193.992
X392.906Y-90.487
X321.469Y-185.737
X345.281Y-90.487
X240.506Y-109.537
X107.156Y-90.487
X83.344Y-128.588
X316.706Y-109.537
X330.994Y-147.637
X288.131Y-128.588
X183.356Y-193.992
X240.506Y-185.737
X297.656Y-193.992
X250.031Y-128.588
X240.506Y-193.992
X259.556Y-185.737
X278.606Y-193.992
X235.744Y-147.637
X259.556Y-193.992
X278.606Y-185.737
X297.656Y-193.992
X145.256Y-109.537
X269.081Y-128.588
X473.869Y-185.737
X135.731Y-90.487
X183.356Y-109.537
X111.919Y-185.737
X278.606Y-90.487
X64.294Y-109.537
X364.331Y-90.487
X259.556Y-109.537
X83.344Y-109.537
X216.694Y-147.637
X140.494Y-147.637
X347.662Y-166.688
X150.019Y-166.688
X465.614Y-164.274
X465.614Y-188.15
X473.869Y-176.213
X64.294Y-166.688
X159.544Y-185.737
X126.206Y-109.537
X416.719Y-147.637
X454.819Y-185.737
X259.556Y-90.487
X107.156Y-109.537
X435.769Y-166.688
X240.506Y-90.487
X416.719Y-90.487
X326.231Y-90.487
X211.931Y-128.588
X473.869Y-90.487
X178.594Y-147.637
X307.181Y-128.588
X454.819Y-128.588
X302.419Y-166.688
X197.644Y-147.637
X392.906Y-166.688
X311.944Y-147.637
X392.906Y-185.737
X111.919Y-128.588
X435.769Y-147.637
X130.969Y-166.688
X154.781Y-90.487
X435.769Y-109.537
X321.469Y-166.688
X202.406Y-109.537
X64.294Y-90.487
X297.656Y-109.537
X473.869Y-109.537
X292.894Y-147.637
X83.344Y-147.637
X326.231Y-128.588
X188.119Y-166.688
X107.124Y-174.942
X119.062Y-166.688
X131.Y-174.942
X373.856Y-166.688
X64.294Y-128.588
X64.294Y-147.637
X297.656Y-185.737
X454.819Y-109.537
X264.319Y-166.688
X392.906Y-109.537
X283.369Y-166.688
X192.881Y-90.487
X454.819Y-90.487
X307.181Y-90.487
X192.881Y-128.588
X221.456Y-109.537
X414.306Y-193.992
X426.244Y-185.737
X438.182Y-193.992
X369.094Y-138.112
X377.349Y-126.174
X377.349Y-150.05
X254.794Y-147.637
X435.769Y-128.588
X354.806Y-185.737
X114.3Y-147.796
X416.719Y-128.588
X373.856Y-185.737
X109.537Y-166.688
X245.269Y-166.688
X435.769Y-90.487
X465.614Y-126.174
X465.614Y-150.05
X473.869Y-138.112
X226.219Y-166.688
X416.719Y-109.537
X435.769Y-185.737
X221.456Y-90.487
X354.806Y-109.537
X169.069Y-166.688
X83.344Y-90.487
X230.981Y-128.588
X173.831Y-128.588
X352.393Y-117.792
X364.331Y-109.537
X376.269Y-117.792
X392.906Y-128.588
X473.869Y-128.588
X83.344Y-185.737
X333.343Y-117.792
X345.281Y-109.537
X357.219Y-117.792
X345.281Y-128.588
X454.819Y-166.688
X273.844Y-147.637
X64.294Y-185.737
X135.731Y-128.588
X473.869Y-147.637
X207.169Y-166.688
X164.306Y-109.537
X416.719Y-185.737
X173.831Y-90.487
X278.606Y-109.537
X373.856Y-109.537
T5
X404.812Y-185.119G85X404.812Y-191.119
G05
X404.812Y-99.394G85X404.812Y-105.394
G05
X404.812Y-170.831G85X404.812Y-176.831
G05
X404.812Y-85.106G85X404.812Y-91.106
G05
X404.812Y-113.681G85X404.812Y-119.681
G05
X404.812Y-127.969G85X404.812Y-133.969
G05
X404.812Y-142.256G85X404.812Y-148.256
G05
X404.812Y-156.544G85X404.812Y-162.544
G05
T0
M30
