G04 #@! TF.GenerationSoftware,KiCad,Pcbnew,(5.0.0-rc2-dev-733-g23a9fcd91)*
G04 #@! TF.CreationDate,2018-05-31T02:42:35-04:00*
G04 #@! TF.ProjectId,100plus,313030706C75732E6B696361645F7063,rev?*
G04 #@! TF.SameCoordinates,Original*
G04 #@! TF.FileFunction,Paste,Bot*
G04 #@! TF.FilePolarity,Positive*
%FSLAX45Y45*%
G04 Gerber Fmt 4.5, Leading zero omitted, Abs format (unit mm)*
G04 Created by KiCad (PCBNEW (5.0.0-rc2-dev-733-g23a9fcd91)) date 05/31/18 02:42:35*
%MOMM*%
%LPD*%
G01*
G04 APERTURE LIST*
%ADD10R,1.200000X0.900000*%
%ADD11R,0.900000X1.200000*%
%ADD12R,0.300000X1.150000*%
%ADD13R,0.600000X1.150000*%
%ADD14R,1.000000X0.995000*%
%ADD15R,0.650000X1.560000*%
%ADD16C,0.550000*%
%ADD17C,0.100000*%
G04 APERTURE END LIST*
D10*
X11700000Y-15235000D03*
X11700000Y-15565000D03*
X32900000Y-13335000D03*
X32900000Y-13665000D03*
D11*
X9763125Y-10600000D03*
X9433125Y-10600000D03*
X9763125Y-11100000D03*
X9433125Y-11100000D03*
D10*
X6776250Y-9865000D03*
X6776250Y-9535000D03*
X8676250Y-9535000D03*
X8676250Y-9865000D03*
X11000000Y-9865000D03*
X11000000Y-9535000D03*
X13900000Y-9535000D03*
X13900000Y-9865000D03*
X15800000Y-9865000D03*
X15800000Y-9535000D03*
X17700000Y-9535000D03*
X17700000Y-9865000D03*
X19600000Y-9865000D03*
X19600000Y-9535000D03*
X22500000Y-9535000D03*
X22500000Y-9865000D03*
X24400000Y-9865000D03*
X24400000Y-9535000D03*
X26300000Y-9865000D03*
X26300000Y-9535000D03*
X28200000Y-9865000D03*
X28200000Y-9535000D03*
X31100000Y-9535000D03*
X31100000Y-9865000D03*
X33000000Y-9865000D03*
X33000000Y-9535000D03*
X34900000Y-9535000D03*
X34900000Y-9865000D03*
X36800000Y-9865000D03*
X36800000Y-9535000D03*
X39600000Y-9535000D03*
X39600000Y-9865000D03*
X42023750Y-9865000D03*
X42023750Y-9535000D03*
X43923750Y-9535000D03*
X43923750Y-9865000D03*
X45823750Y-9865000D03*
X45823750Y-9535000D03*
X47723750Y-9535000D03*
X47723750Y-9865000D03*
X6776250Y-11765000D03*
X6776250Y-11435000D03*
X8676250Y-11435000D03*
X8676250Y-11765000D03*
X11100000Y-11765000D03*
X11100000Y-11435000D03*
X13000000Y-11435000D03*
X13000000Y-11765000D03*
X14900000Y-11765000D03*
X14900000Y-11435000D03*
X16800000Y-11435000D03*
X16800000Y-11765000D03*
X18700000Y-11765000D03*
X18700000Y-11435000D03*
X20600000Y-11435000D03*
X20600000Y-11765000D03*
X22500000Y-11765000D03*
X22500000Y-11435000D03*
X24400000Y-11435000D03*
X24400000Y-11765000D03*
X26300000Y-11435000D03*
X26300000Y-11765000D03*
X28200000Y-11435000D03*
X28200000Y-11765000D03*
X30100000Y-11765000D03*
X30100000Y-11435000D03*
X32000000Y-11435000D03*
X32000000Y-11765000D03*
X33900000Y-11765000D03*
X33900000Y-11435000D03*
X36200000Y-11435000D03*
X36200000Y-11765000D03*
X38300000Y-11465000D03*
X38300000Y-11135000D03*
X39600000Y-11435000D03*
X39600000Y-11765000D03*
X42023750Y-11765000D03*
X42023750Y-11435000D03*
X43923750Y-11435000D03*
X43923750Y-11765000D03*
X45823750Y-11435000D03*
X45823750Y-11765000D03*
X47723750Y-11435000D03*
X47723750Y-11765000D03*
X6776250Y-13665000D03*
X6776250Y-13335000D03*
X8676250Y-13335000D03*
X8676250Y-13665000D03*
X11600000Y-13665000D03*
X11600000Y-13335000D03*
X13900000Y-13335000D03*
X13900000Y-13665000D03*
X15800000Y-13665000D03*
X15800000Y-13335000D03*
X17700000Y-13335000D03*
X17700000Y-13665000D03*
X19600000Y-13665000D03*
X19600000Y-13335000D03*
X21500000Y-13335000D03*
X21500000Y-13665000D03*
X23400000Y-13665000D03*
X23400000Y-13335000D03*
X25300000Y-13335000D03*
X25300000Y-13665000D03*
X27200000Y-13665000D03*
X27200000Y-13335000D03*
X29100000Y-13335000D03*
X29100000Y-13665000D03*
X31000000Y-13665000D03*
X31000000Y-13335000D03*
X34900000Y-13665000D03*
X34900000Y-13335000D03*
X37497000Y-13326000D03*
X37497000Y-13656000D03*
X39600000Y-13665000D03*
X39600000Y-13335000D03*
X42023750Y-13335000D03*
X42023750Y-13665000D03*
X43923750Y-13665000D03*
X43923750Y-13335000D03*
X45823750Y-13335000D03*
X45823750Y-13665000D03*
X48023750Y-13565000D03*
X48023750Y-13235000D03*
X6776250Y-15235000D03*
X6776250Y-15565000D03*
X8676250Y-15565000D03*
X8676250Y-15235000D03*
X14400000Y-15565000D03*
X14400000Y-15235000D03*
X16300000Y-15235000D03*
X16300000Y-15565000D03*
X18200000Y-15565000D03*
X18200000Y-15235000D03*
X20100000Y-15235000D03*
X20100000Y-15565000D03*
X22000000Y-15565000D03*
X22000000Y-15235000D03*
X23900000Y-15235000D03*
X23900000Y-15565000D03*
X25800000Y-15565000D03*
X25800000Y-15235000D03*
X27700000Y-15565000D03*
X27700000Y-15235000D03*
X29600000Y-15565000D03*
X29600000Y-15235000D03*
X31500000Y-15235000D03*
X31500000Y-15565000D03*
X33400000Y-15565000D03*
X33400000Y-15235000D03*
X36500000Y-15235000D03*
X36500000Y-15565000D03*
X39600000Y-15565000D03*
X39600000Y-15235000D03*
X42023750Y-15235000D03*
X42023750Y-15565000D03*
X43923750Y-15565000D03*
X43923750Y-15235000D03*
X45823750Y-15235000D03*
X45823750Y-15565000D03*
X47723750Y-15565000D03*
X47723750Y-15235000D03*
X6776250Y-17465000D03*
X6776250Y-17135000D03*
X8676250Y-17465000D03*
X8676250Y-17135000D03*
X11300000Y-17465000D03*
X11300000Y-17135000D03*
X12300000Y-17135000D03*
X12300000Y-17465000D03*
X15300000Y-17465000D03*
X15300000Y-17135000D03*
X17200000Y-17135000D03*
X17200000Y-17465000D03*
X19100000Y-17135000D03*
X19100000Y-17465000D03*
X21100000Y-17465000D03*
X21100000Y-17135000D03*
X22900000Y-17135000D03*
X22900000Y-17465000D03*
X24800000Y-17135000D03*
X24800000Y-17465000D03*
X26700000Y-17135000D03*
X26700000Y-17465000D03*
X28600000Y-17135000D03*
X28600000Y-17465000D03*
X30600000Y-17135000D03*
X30600000Y-17465000D03*
X32500000Y-17135000D03*
X32500000Y-17465000D03*
X35100000Y-17465000D03*
X35100000Y-17135000D03*
X37700000Y-17465000D03*
X37700000Y-17135000D03*
X39600000Y-17135000D03*
X39600000Y-17465000D03*
X42023750Y-17135000D03*
X42023750Y-17465000D03*
X43923750Y-17135000D03*
X43923750Y-17465000D03*
X45823750Y-17135000D03*
X45823750Y-17465000D03*
X47873750Y-17365000D03*
X47873750Y-17035000D03*
X6726250Y-19365000D03*
X6726250Y-19035000D03*
X8626250Y-19365000D03*
X8626250Y-19035000D03*
X11500000Y-19035000D03*
X11500000Y-19365000D03*
X16300000Y-19035000D03*
X16300000Y-19365000D03*
X20600000Y-19365000D03*
X20600000Y-19035000D03*
X25000000Y-19365000D03*
X25000000Y-19035000D03*
X28800000Y-19365000D03*
X28800000Y-19035000D03*
X32500000Y-19035000D03*
X32500000Y-19365000D03*
X35800000Y-19365000D03*
X35800000Y-19035000D03*
X37700000Y-19365000D03*
X37700000Y-19035000D03*
X39600000Y-19365000D03*
X39600000Y-19035000D03*
X42923750Y-19365000D03*
X42923750Y-19035000D03*
X44523750Y-19365000D03*
X44523750Y-19035000D03*
X45823750Y-19035000D03*
X45823750Y-19365000D03*
X47723750Y-19365000D03*
X47723750Y-19035000D03*
D12*
X9492380Y-8326400D03*
D13*
X9837380Y-8326400D03*
X9757380Y-8326400D03*
X9277380Y-8326400D03*
X9197380Y-8326400D03*
D12*
X9542380Y-8326400D03*
X9592380Y-8326400D03*
X9642380Y-8326400D03*
X9692380Y-8326400D03*
X9442380Y-8326400D03*
X9392380Y-8326400D03*
X9342380Y-8326400D03*
D14*
X9763125Y-8810625D03*
X9763125Y-8988125D03*
X9286875Y-8988750D03*
X9286875Y-8811250D03*
D15*
X9430000Y-9630000D03*
X9525000Y-9630000D03*
X9620000Y-9630000D03*
X9620000Y-9900000D03*
X9430000Y-9900000D03*
D16*
X9642917Y-14973394D03*
D17*
G36*
X9609329Y-15045872D02*
X9570438Y-15006981D01*
X9676504Y-14900915D01*
X9715395Y-14939806D01*
X9609329Y-15045872D01*
X9609329Y-15045872D01*
G37*
D16*
X9586348Y-14916825D03*
D17*
G36*
X9552761Y-14989303D02*
X9513870Y-14950413D01*
X9619936Y-14844347D01*
X9658827Y-14883237D01*
X9552761Y-14989303D01*
X9552761Y-14989303D01*
G37*
D16*
X9529780Y-14860256D03*
D17*
G36*
X9496192Y-14932735D02*
X9457301Y-14893844D01*
X9563367Y-14787778D01*
X9602258Y-14826669D01*
X9496192Y-14932735D01*
X9496192Y-14932735D01*
G37*
D16*
X9473211Y-14803688D03*
D17*
G36*
X9439624Y-14876166D02*
X9400733Y-14837276D01*
X9506799Y-14731210D01*
X9545690Y-14770100D01*
X9439624Y-14876166D01*
X9439624Y-14876166D01*
G37*
D16*
X9416643Y-14747119D03*
D17*
G36*
X9383055Y-14819598D02*
X9344164Y-14780707D01*
X9450230Y-14674641D01*
X9489121Y-14713532D01*
X9383055Y-14819598D01*
X9383055Y-14819598D01*
G37*
D16*
X9360074Y-14690551D03*
D17*
G36*
X9326487Y-14763029D02*
X9287596Y-14724138D01*
X9393662Y-14618072D01*
X9432553Y-14656963D01*
X9326487Y-14763029D01*
X9326487Y-14763029D01*
G37*
D16*
X9303506Y-14633982D03*
D17*
G36*
X9269918Y-14706461D02*
X9231027Y-14667570D01*
X9337093Y-14561504D01*
X9375984Y-14600395D01*
X9269918Y-14706461D01*
X9269918Y-14706461D01*
G37*
D16*
X9246937Y-14577414D03*
D17*
G36*
X9213349Y-14649892D02*
X9174459Y-14611001D01*
X9280525Y-14504935D01*
X9319415Y-14543826D01*
X9213349Y-14649892D01*
X9213349Y-14649892D01*
G37*
D16*
X9190369Y-14520845D03*
D17*
G36*
X9156781Y-14593324D02*
X9117890Y-14554433D01*
X9223956Y-14448367D01*
X9262847Y-14487258D01*
X9156781Y-14593324D01*
X9156781Y-14593324D01*
G37*
D16*
X9133800Y-14464277D03*
D17*
G36*
X9100212Y-14536755D02*
X9061322Y-14497864D01*
X9167388Y-14391798D01*
X9206278Y-14430689D01*
X9100212Y-14536755D01*
X9100212Y-14536755D01*
G37*
D16*
X9077231Y-14407708D03*
D17*
G36*
X9043644Y-14480187D02*
X9004753Y-14441296D01*
X9110819Y-14335230D01*
X9149710Y-14374121D01*
X9043644Y-14480187D01*
X9043644Y-14480187D01*
G37*
D16*
X9077231Y-14167292D03*
D17*
G36*
X9004753Y-14133704D02*
X9043644Y-14094813D01*
X9149710Y-14200879D01*
X9110819Y-14239770D01*
X9004753Y-14133704D01*
X9004753Y-14133704D01*
G37*
D16*
X9133800Y-14110723D03*
D17*
G36*
X9061322Y-14077136D02*
X9100212Y-14038245D01*
X9206278Y-14144311D01*
X9167388Y-14183202D01*
X9061322Y-14077136D01*
X9061322Y-14077136D01*
G37*
D16*
X9190369Y-14054155D03*
D17*
G36*
X9117890Y-14020567D02*
X9156781Y-13981676D01*
X9262847Y-14087742D01*
X9223956Y-14126633D01*
X9117890Y-14020567D01*
X9117890Y-14020567D01*
G37*
D16*
X9246937Y-13997586D03*
D17*
G36*
X9174459Y-13963999D02*
X9213349Y-13925108D01*
X9319415Y-14031174D01*
X9280525Y-14070065D01*
X9174459Y-13963999D01*
X9174459Y-13963999D01*
G37*
D16*
X9303506Y-13941018D03*
D17*
G36*
X9231027Y-13907430D02*
X9269918Y-13868539D01*
X9375984Y-13974605D01*
X9337093Y-14013496D01*
X9231027Y-13907430D01*
X9231027Y-13907430D01*
G37*
D16*
X9360074Y-13884449D03*
D17*
G36*
X9287596Y-13850861D02*
X9326487Y-13811971D01*
X9432553Y-13918037D01*
X9393662Y-13956927D01*
X9287596Y-13850861D01*
X9287596Y-13850861D01*
G37*
D16*
X9416643Y-13827881D03*
D17*
G36*
X9344164Y-13794293D02*
X9383055Y-13755402D01*
X9489121Y-13861468D01*
X9450230Y-13900359D01*
X9344164Y-13794293D01*
X9344164Y-13794293D01*
G37*
D16*
X9473211Y-13771312D03*
D17*
G36*
X9400733Y-13737724D02*
X9439624Y-13698834D01*
X9545690Y-13804900D01*
X9506799Y-13843790D01*
X9400733Y-13737724D01*
X9400733Y-13737724D01*
G37*
D16*
X9529780Y-13714743D03*
D17*
G36*
X9457301Y-13681156D02*
X9496192Y-13642265D01*
X9602258Y-13748331D01*
X9563367Y-13787222D01*
X9457301Y-13681156D01*
X9457301Y-13681156D01*
G37*
D16*
X9586348Y-13658175D03*
D17*
G36*
X9513870Y-13624587D02*
X9552761Y-13585697D01*
X9658827Y-13691763D01*
X9619936Y-13730653D01*
X9513870Y-13624587D01*
X9513870Y-13624587D01*
G37*
D16*
X9642917Y-13601606D03*
D17*
G36*
X9570438Y-13568019D02*
X9609329Y-13529128D01*
X9715395Y-13635194D01*
X9676504Y-13674085D01*
X9570438Y-13568019D01*
X9570438Y-13568019D01*
G37*
D16*
X9883333Y-13601606D03*
D17*
G36*
X9849746Y-13674085D02*
X9810855Y-13635194D01*
X9916921Y-13529128D01*
X9955812Y-13568019D01*
X9849746Y-13674085D01*
X9849746Y-13674085D01*
G37*
D16*
X9939902Y-13658175D03*
D17*
G36*
X9906314Y-13730653D02*
X9867423Y-13691763D01*
X9973489Y-13585697D01*
X10012380Y-13624587D01*
X9906314Y-13730653D01*
X9906314Y-13730653D01*
G37*
D16*
X9996470Y-13714743D03*
D17*
G36*
X9962883Y-13787222D02*
X9923992Y-13748331D01*
X10030058Y-13642265D01*
X10068949Y-13681156D01*
X9962883Y-13787222D01*
X9962883Y-13787222D01*
G37*
D16*
X10053039Y-13771312D03*
D17*
G36*
X10019451Y-13843790D02*
X9980560Y-13804900D01*
X10086626Y-13698834D01*
X10125517Y-13737724D01*
X10019451Y-13843790D01*
X10019451Y-13843790D01*
G37*
D16*
X10109607Y-13827881D03*
D17*
G36*
X10076020Y-13900359D02*
X10037129Y-13861468D01*
X10143195Y-13755402D01*
X10182086Y-13794293D01*
X10076020Y-13900359D01*
X10076020Y-13900359D01*
G37*
D16*
X10166176Y-13884449D03*
D17*
G36*
X10132588Y-13956927D02*
X10093698Y-13918037D01*
X10199764Y-13811971D01*
X10238654Y-13850861D01*
X10132588Y-13956927D01*
X10132588Y-13956927D01*
G37*
D16*
X10222744Y-13941018D03*
D17*
G36*
X10189157Y-14013496D02*
X10150266Y-13974605D01*
X10256332Y-13868539D01*
X10295223Y-13907430D01*
X10189157Y-14013496D01*
X10189157Y-14013496D01*
G37*
D16*
X10279313Y-13997586D03*
D17*
G36*
X10245725Y-14070065D02*
X10206835Y-14031174D01*
X10312901Y-13925108D01*
X10351791Y-13963999D01*
X10245725Y-14070065D01*
X10245725Y-14070065D01*
G37*
D16*
X10335882Y-14054155D03*
D17*
G36*
X10302294Y-14126633D02*
X10263403Y-14087742D01*
X10369469Y-13981676D01*
X10408360Y-14020567D01*
X10302294Y-14126633D01*
X10302294Y-14126633D01*
G37*
D16*
X10392450Y-14110723D03*
D17*
G36*
X10358862Y-14183202D02*
X10319972Y-14144311D01*
X10426038Y-14038245D01*
X10464928Y-14077136D01*
X10358862Y-14183202D01*
X10358862Y-14183202D01*
G37*
D16*
X10449019Y-14167292D03*
D17*
G36*
X10415431Y-14239770D02*
X10376540Y-14200879D01*
X10482606Y-14094813D01*
X10521497Y-14133704D01*
X10415431Y-14239770D01*
X10415431Y-14239770D01*
G37*
D16*
X10449019Y-14407708D03*
D17*
G36*
X10376540Y-14374121D02*
X10415431Y-14335230D01*
X10521497Y-14441296D01*
X10482606Y-14480187D01*
X10376540Y-14374121D01*
X10376540Y-14374121D01*
G37*
D16*
X10392450Y-14464277D03*
D17*
G36*
X10319972Y-14430689D02*
X10358862Y-14391798D01*
X10464928Y-14497864D01*
X10426038Y-14536755D01*
X10319972Y-14430689D01*
X10319972Y-14430689D01*
G37*
D16*
X10335882Y-14520845D03*
D17*
G36*
X10263403Y-14487258D02*
X10302294Y-14448367D01*
X10408360Y-14554433D01*
X10369469Y-14593324D01*
X10263403Y-14487258D01*
X10263403Y-14487258D01*
G37*
D16*
X10279313Y-14577414D03*
D17*
G36*
X10206835Y-14543826D02*
X10245725Y-14504935D01*
X10351791Y-14611001D01*
X10312901Y-14649892D01*
X10206835Y-14543826D01*
X10206835Y-14543826D01*
G37*
D16*
X10222744Y-14633982D03*
D17*
G36*
X10150266Y-14600395D02*
X10189157Y-14561504D01*
X10295223Y-14667570D01*
X10256332Y-14706461D01*
X10150266Y-14600395D01*
X10150266Y-14600395D01*
G37*
D16*
X10166176Y-14690551D03*
D17*
G36*
X10093698Y-14656963D02*
X10132588Y-14618072D01*
X10238654Y-14724138D01*
X10199764Y-14763029D01*
X10093698Y-14656963D01*
X10093698Y-14656963D01*
G37*
D16*
X10109607Y-14747119D03*
D17*
G36*
X10037129Y-14713532D02*
X10076020Y-14674641D01*
X10182086Y-14780707D01*
X10143195Y-14819598D01*
X10037129Y-14713532D01*
X10037129Y-14713532D01*
G37*
D16*
X10053039Y-14803688D03*
D17*
G36*
X9980560Y-14770100D02*
X10019451Y-14731210D01*
X10125517Y-14837276D01*
X10086626Y-14876166D01*
X9980560Y-14770100D01*
X9980560Y-14770100D01*
G37*
D16*
X9996470Y-14860256D03*
D17*
G36*
X9923992Y-14826669D02*
X9962883Y-14787778D01*
X10068949Y-14893844D01*
X10030058Y-14932735D01*
X9923992Y-14826669D01*
X9923992Y-14826669D01*
G37*
D16*
X9939902Y-14916825D03*
D17*
G36*
X9867423Y-14883237D02*
X9906314Y-14844347D01*
X10012380Y-14950413D01*
X9973489Y-14989303D01*
X9867423Y-14883237D01*
X9867423Y-14883237D01*
G37*
D16*
X9883333Y-14973394D03*
D17*
G36*
X9810855Y-14939806D02*
X9849746Y-14900915D01*
X9955812Y-15006981D01*
X9916921Y-15045872D01*
X9810855Y-14939806D01*
X9810855Y-14939806D01*
G37*
M02*
