M48
INCH,TZ
T1C0.026
T2C0.039
T3C0.039
T4C0.069
T5C0.120
T6C0.157
%
G90
G05
T1
X15.8237Y-8.4972
X16.0513Y-8.4972
T2
X16.9752Y-10.8476
X17.0552Y-10.8476
T3
X17.0152Y-10.6476
T4
X15.3625Y-8.8125
X15.3625Y-9.5625
X15.3625Y-10.3125
X15.3625Y-11.0625
X15.3625Y-11.8125
X15.7625Y-8.8125
X15.7625Y-9.5625
X15.7625Y-10.3125
X15.7625Y-11.0625
X15.7625Y-11.8125
X16.1125Y-8.8125
X16.1125Y-9.5625
X16.1125Y-10.3125
X16.1125Y-11.0625
X16.1125Y-11.8125
X16.5125Y-8.8125
X16.5125Y-9.5625
X16.5125Y-10.3125
X16.5125Y-11.0625
X16.5125Y-11.8125
X17.05Y-8.8125
X17.2375Y-9.5625
X17.2375Y-11.8125
X17.3313Y-10.3125
X17.45Y-8.8125
X17.5188Y-11.0625
X17.6375Y-9.5625
X17.6375Y-11.8125
X17.7312Y-10.3125
X17.8Y-8.8125
X17.9187Y-11.0625
X18.175Y-9.5625
X18.2Y-8.8125
X18.3625Y-10.3125
X18.55Y-8.8125
X18.575Y-9.5625
X18.7375Y-11.0625
X18.7625Y-10.3125
X18.925Y-9.5625
X18.95Y-8.8125
X19.1125Y-10.3125
X19.1125Y-11.8125
X19.1375Y-11.0625
X19.3Y-8.8125
X19.325Y-9.5625
X19.4875Y-11.0625
X19.5125Y-10.3125
X19.5125Y-11.8125
X19.675Y-9.5625
X19.7Y-8.8125
X19.8625Y-10.3125
X19.8875Y-11.0625
X20.05Y-8.8125
X20.075Y-9.5625
X20.2375Y-11.0625
X20.2625Y-10.3125
X20.425Y-9.5625
X20.45Y-8.8125
X20.6125Y-10.3125
X20.6375Y-11.0625
X20.8Y-8.8125
X20.8Y-11.8125
X20.825Y-9.5625
X20.9875Y-11.0625
X21.0125Y-10.3125
X21.175Y-9.5625
X21.2Y-8.8125
X21.2Y-11.8125
X21.3625Y-10.3125
X21.3875Y-11.0625
X21.55Y-8.8125
X21.575Y-9.5625
X21.7375Y-11.0625
X21.7625Y-10.3125
X21.925Y-9.5625
X21.95Y-8.8125
X22.1125Y-10.3125
X22.1375Y-11.0625
X22.3Y-8.8125
X22.3Y-11.8125
X22.325Y-9.5625
X22.4875Y-11.0625
X22.5125Y-10.3125
X22.675Y-9.5625
X22.7Y-8.8125
X22.7Y-11.8125
X22.8625Y-10.3125
X22.8875Y-11.0625
X23.05Y-8.8125
X23.05Y-11.8125
X23.075Y-9.5625
X23.2375Y-11.0625
X23.2625Y-10.3125
X23.425Y-9.5625
X23.45Y-8.8125
X23.45Y-11.8125
X23.6125Y-10.3125
X23.6375Y-11.0625
X23.8Y-8.8125
X23.8Y-11.8125
X23.825Y-9.5625
X23.9875Y-11.0625
X24.0125Y-10.3125
X24.175Y-9.5625
X24.2Y-8.8125
X24.2Y-11.8125
X24.3625Y-10.3125
X24.3875Y-11.0625
X24.55Y-8.8125
X24.55Y-11.8125
X24.575Y-9.5625
X24.7375Y-11.0625
X24.7625Y-10.3125
X24.925Y-9.5625
X24.95Y-8.8125
X24.95Y-11.8125
X25.1125Y-10.3125
X25.1375Y-11.0625
X25.3Y-8.8125
X25.325Y-9.5625
X25.4875Y-11.0625
X25.4875Y-11.8125
X25.5125Y-10.3125
X25.675Y-9.5625
X25.7Y-8.8125
X25.8625Y-10.3125
X25.8875Y-11.0625
X25.8875Y-11.8125
X26.05Y-8.8125
X26.075Y-9.5625
X26.2625Y-10.3125
X26.425Y-9.5625
X26.45Y-8.8125
X26.5188Y-11.0625
X26.8Y-8.8125
X26.8Y-11.8125
X26.825Y-9.5625
X26.9187Y-11.0625
X27.0813Y-10.3125
X27.175Y-8.8125
X27.2Y-8.8125
X27.2Y-11.8125
X27.3625Y-9.5625
X27.4812Y-10.3125
X27.55Y-8.8125
X27.55Y-11.0625
X27.55Y-11.8125
X27.575Y-8.8125
X27.7625Y-9.5625
X27.95Y-8.8125
X27.95Y-11.0625
X27.95Y-11.8125
X28.3Y-9.5625
X28.3Y-10.3125
X28.3Y-11.0625
X28.3Y-11.8125
X28.7Y-9.5625
X28.7Y-10.3125
X28.7Y-11.0625
X28.7Y-11.8125
T5
X17.2488Y-11.3375
X18.1887Y-11.3375
X20.25Y-12.0875
X20.25Y-12.0875
X21.75Y-12.0875
X22.5Y-12.0875
X23.25Y-12.0875
X24.Y-12.0875
X24.Y-12.0875
X24.75Y-12.0875
X24.75Y-12.0875
X26.8113Y-10.5875
X26.905Y-9.0875
X27.7512Y-10.5875
X27.845Y-9.0875
T6
X15.5625Y-8.8125
X15.5625Y-9.5625
X15.5625Y-10.3125
X15.5625Y-11.0625
X15.5625Y-11.8125
X16.3125Y-8.8125
X16.3125Y-9.5625
X16.3125Y-10.3125
X16.3125Y-11.0625
X16.3125Y-11.8125
X17.2488Y-10.7375
X17.25Y-8.8125
X17.4375Y-9.5625
X17.4375Y-11.8125
X17.5312Y-10.3125
X17.7188Y-11.0625
X18.Y-8.8125
X18.1887Y-10.7375
X18.375Y-9.5625
X18.5625Y-10.3125
X18.75Y-8.8125
X18.9375Y-11.0625
X19.125Y-9.5625
X19.3125Y-10.3125
X19.3125Y-11.8125
X19.5Y-8.8125
X19.6875Y-11.0625
X19.875Y-9.5625
X20.0625Y-10.3125
X20.25Y-8.8125
X20.25Y-11.4875
X20.25Y-11.4875
X20.4375Y-11.0625
X20.625Y-9.5625
X20.8125Y-10.3125
X21.Y-8.8125
X21.Y-11.8125
X21.1875Y-11.0625
X21.375Y-9.5625
X21.5625Y-10.3125
X21.75Y-8.8125
X21.75Y-11.4875
X21.9375Y-11.0625
X22.125Y-9.5625
X22.3125Y-10.3125
X22.5Y-8.8125
X22.5Y-11.4875
X22.5Y-11.8125
X22.6875Y-11.0625
X22.875Y-9.5625
X23.0625Y-10.3125
X23.25Y-8.8125
X23.25Y-11.4875
X23.25Y-11.8125
X23.4375Y-11.0625
X23.625Y-9.5625
X23.8125Y-10.3125
X24.Y-8.8125
X24.Y-11.4875
X24.Y-11.4875
X24.Y-11.8125
X24.1875Y-11.0625
X24.375Y-9.5625
X24.5625Y-10.3125
X24.75Y-8.8125
X24.75Y-11.4875
X24.75Y-11.4875
X24.75Y-11.8125
X24.9375Y-11.0625
X25.125Y-9.5625
X25.3125Y-10.3125
X25.5Y-8.8125
X25.6875Y-11.0625
X25.6875Y-11.8125
X25.875Y-9.5625
X26.0625Y-10.3125
X26.25Y-8.8125
X26.625Y-9.5625
X26.7188Y-11.0625
X26.8113Y-9.9875
X26.905Y-8.4875
X27.Y-8.8125
X27.Y-11.8125
X27.2812Y-10.3125
X27.375Y-8.8125
X27.5625Y-9.5625
X27.75Y-8.8125
X27.75Y-11.0625
X27.75Y-11.8125
X27.7512Y-9.9875
X27.845Y-8.4875
X28.5Y-9.5625
X28.5Y-10.3125
X28.5Y-11.0625
X28.5Y-11.8125
T0
M30
