G04 #@! TF.FileFunction,Soldermask,Bot*
%FSLAX46Y46*%
G04 Gerber Fmt 4.6, Leading zero omitted, Abs format (unit mm)*
G04 Created by KiCad (PCBNEW 4.0.7) date 05/14/18 18:10:09*
%MOMM*%
%LPD*%
G01*
G04 APERTURE LIST*
%ADD10C,0.100000*%
%ADD11C,2.290000*%
%ADD12C,2.290000*%
%ADD13C,4.027800*%
%ADD14C,1.790000*%
%ADD15R,1.540000X1.290000*%
%ADD16R,0.790000X1.240000*%
%ADD17R,1.240000X0.790000*%
%ADD18C,0.824860*%
%ADD19C,1.028060*%
%ADD20C,1.025520*%
%ADD21R,0.340000X1.190000*%
%ADD22R,0.640000X1.190000*%
%ADD23O,1.040000X2.140000*%
%ADD24C,0.690000*%
%ADD25O,1.040000X1.640000*%
%ADD26C,3.088000*%
%ADD27R,0.940000X1.240000*%
%ADD28R,0.690000X1.600000*%
G04 APERTURE END LIST*
D10*
D11*
X707350000Y-276487500D02*
X707390000Y-275907500D01*
D12*
X707390000Y-275907500D03*
D11*
X701040000Y-278447500D02*
X702350002Y-276987500D01*
D13*
X704850000Y-280987500D03*
D12*
X702350000Y-276987500D03*
D14*
X699770000Y-280987500D03*
X709930000Y-280987500D03*
D11*
X597812500Y-276487500D02*
X597852500Y-275907500D01*
D12*
X597852500Y-275907500D03*
D11*
X591502500Y-278447500D02*
X592812502Y-276987500D01*
D13*
X595312500Y-280987500D03*
D12*
X592812500Y-276987500D03*
D14*
X590232500Y-280987500D03*
X600392500Y-280987500D03*
D11*
X578762500Y-276487500D02*
X578802500Y-275907500D01*
D12*
X578802500Y-275907500D03*
D11*
X572452500Y-278447500D02*
X573762502Y-276987500D01*
D13*
X576262500Y-280987500D03*
D12*
X573762500Y-276987500D03*
D14*
X571182500Y-280987500D03*
X581342500Y-280987500D03*
D10*
G36*
X427273654Y-261902043D02*
X427033238Y-261661627D01*
X428122182Y-260572683D01*
X428362598Y-260813099D01*
X427273654Y-261902043D01*
X427273654Y-261902043D01*
G37*
G36*
X426920101Y-261548490D02*
X426679685Y-261308074D01*
X427768629Y-260219130D01*
X428009045Y-260459546D01*
X426920101Y-261548490D01*
X426920101Y-261548490D01*
G37*
G36*
X426566548Y-261194936D02*
X426326132Y-260954520D01*
X427415076Y-259865576D01*
X427655492Y-260105992D01*
X426566548Y-261194936D01*
X426566548Y-261194936D01*
G37*
G36*
X426212994Y-260841383D02*
X425972578Y-260600967D01*
X427061522Y-259512023D01*
X427301938Y-259752439D01*
X426212994Y-260841383D01*
X426212994Y-260841383D01*
G37*
G36*
X425859441Y-260487829D02*
X425619025Y-260247413D01*
X426707969Y-259158469D01*
X426948385Y-259398885D01*
X425859441Y-260487829D01*
X425859441Y-260487829D01*
G37*
G36*
X425505888Y-260134276D02*
X425265472Y-259893860D01*
X426354416Y-258804916D01*
X426594832Y-259045332D01*
X425505888Y-260134276D01*
X425505888Y-260134276D01*
G37*
G36*
X425152334Y-259780723D02*
X424911918Y-259540307D01*
X426000862Y-258451363D01*
X426241278Y-258691779D01*
X425152334Y-259780723D01*
X425152334Y-259780723D01*
G37*
G36*
X424798781Y-259427169D02*
X424558365Y-259186753D01*
X425647309Y-258097809D01*
X425887725Y-258338225D01*
X424798781Y-259427169D01*
X424798781Y-259427169D01*
G37*
G36*
X424445227Y-259073616D02*
X424204811Y-258833200D01*
X425293755Y-257744256D01*
X425534171Y-257984672D01*
X424445227Y-259073616D01*
X424445227Y-259073616D01*
G37*
G36*
X424091674Y-258720062D02*
X423851258Y-258479646D01*
X424940202Y-257390702D01*
X425180618Y-257631118D01*
X424091674Y-258720062D01*
X424091674Y-258720062D01*
G37*
G36*
X423738121Y-258366509D02*
X423497705Y-258126093D01*
X424586649Y-257037149D01*
X424827065Y-257277565D01*
X423738121Y-258366509D01*
X423738121Y-258366509D01*
G37*
G36*
X423384567Y-258012956D02*
X423144151Y-257772540D01*
X424233095Y-256683596D01*
X424473511Y-256924012D01*
X423384567Y-258012956D01*
X423384567Y-258012956D01*
G37*
G36*
X423031014Y-257659402D02*
X422790598Y-257418986D01*
X423879542Y-256330042D01*
X424119958Y-256570458D01*
X423031014Y-257659402D01*
X423031014Y-257659402D01*
G37*
G36*
X422677460Y-257305849D02*
X422437044Y-257065433D01*
X423525988Y-255976489D01*
X423766404Y-256216905D01*
X422677460Y-257305849D01*
X422677460Y-257305849D01*
G37*
G36*
X422323907Y-256952295D02*
X422083491Y-256711879D01*
X423172435Y-255622935D01*
X423412851Y-255863351D01*
X422323907Y-256952295D01*
X422323907Y-256952295D01*
G37*
G36*
X421970354Y-256598742D02*
X421729938Y-256358326D01*
X422818882Y-255269382D01*
X423059298Y-255509798D01*
X421970354Y-256598742D01*
X421970354Y-256598742D01*
G37*
G36*
X421616800Y-256245189D02*
X421376384Y-256004773D01*
X422465328Y-254915829D01*
X422705744Y-255156245D01*
X421616800Y-256245189D01*
X421616800Y-256245189D01*
G37*
G36*
X421263247Y-255891635D02*
X421022831Y-255651219D01*
X422111775Y-254562275D01*
X422352191Y-254802691D01*
X421263247Y-255891635D01*
X421263247Y-255891635D01*
G37*
G36*
X420909693Y-255538082D02*
X420669277Y-255297666D01*
X421758221Y-254208722D01*
X421998637Y-254449138D01*
X420909693Y-255538082D01*
X420909693Y-255538082D01*
G37*
G36*
X420556140Y-255184528D02*
X420315724Y-254944112D01*
X421404668Y-253855168D01*
X421645084Y-254095584D01*
X420556140Y-255184528D01*
X420556140Y-255184528D01*
G37*
G36*
X420202587Y-254830975D02*
X419962171Y-254590559D01*
X421051115Y-253501615D01*
X421291531Y-253742031D01*
X420202587Y-254830975D01*
X420202587Y-254830975D01*
G37*
G36*
X419849033Y-254477422D02*
X419608617Y-254237006D01*
X420697561Y-253148062D01*
X420937977Y-253388478D01*
X419849033Y-254477422D01*
X419849033Y-254477422D01*
G37*
G36*
X419495480Y-254123868D02*
X419255064Y-253883452D01*
X420344008Y-252794508D01*
X420584424Y-253034924D01*
X419495480Y-254123868D01*
X419495480Y-254123868D01*
G37*
G36*
X419141926Y-253770315D02*
X418901510Y-253529899D01*
X419990454Y-252440955D01*
X420230870Y-252681371D01*
X419141926Y-253770315D01*
X419141926Y-253770315D01*
G37*
G36*
X418788373Y-253416762D02*
X418547957Y-253176346D01*
X419636901Y-252087402D01*
X419877317Y-252327818D01*
X418788373Y-253416762D01*
X418788373Y-253416762D01*
G37*
G36*
X418547957Y-249923654D02*
X418788373Y-249683238D01*
X419877317Y-250772182D01*
X419636901Y-251012598D01*
X418547957Y-249923654D01*
X418547957Y-249923654D01*
G37*
G36*
X418901510Y-249570101D02*
X419141926Y-249329685D01*
X420230870Y-250418629D01*
X419990454Y-250659045D01*
X418901510Y-249570101D01*
X418901510Y-249570101D01*
G37*
G36*
X419255064Y-249216548D02*
X419495480Y-248976132D01*
X420584424Y-250065076D01*
X420344008Y-250305492D01*
X419255064Y-249216548D01*
X419255064Y-249216548D01*
G37*
G36*
X419608617Y-248862994D02*
X419849033Y-248622578D01*
X420937977Y-249711522D01*
X420697561Y-249951938D01*
X419608617Y-248862994D01*
X419608617Y-248862994D01*
G37*
G36*
X419962171Y-248509441D02*
X420202587Y-248269025D01*
X421291531Y-249357969D01*
X421051115Y-249598385D01*
X419962171Y-248509441D01*
X419962171Y-248509441D01*
G37*
G36*
X420315724Y-248155888D02*
X420556140Y-247915472D01*
X421645084Y-249004416D01*
X421404668Y-249244832D01*
X420315724Y-248155888D01*
X420315724Y-248155888D01*
G37*
G36*
X420669277Y-247802334D02*
X420909693Y-247561918D01*
X421998637Y-248650862D01*
X421758221Y-248891278D01*
X420669277Y-247802334D01*
X420669277Y-247802334D01*
G37*
G36*
X421022831Y-247448781D02*
X421263247Y-247208365D01*
X422352191Y-248297309D01*
X422111775Y-248537725D01*
X421022831Y-247448781D01*
X421022831Y-247448781D01*
G37*
G36*
X421376384Y-247095227D02*
X421616800Y-246854811D01*
X422705744Y-247943755D01*
X422465328Y-248184171D01*
X421376384Y-247095227D01*
X421376384Y-247095227D01*
G37*
G36*
X421729938Y-246741674D02*
X421970354Y-246501258D01*
X423059298Y-247590202D01*
X422818882Y-247830618D01*
X421729938Y-246741674D01*
X421729938Y-246741674D01*
G37*
G36*
X422083491Y-246388121D02*
X422323907Y-246147705D01*
X423412851Y-247236649D01*
X423172435Y-247477065D01*
X422083491Y-246388121D01*
X422083491Y-246388121D01*
G37*
G36*
X422437044Y-246034567D02*
X422677460Y-245794151D01*
X423766404Y-246883095D01*
X423525988Y-247123511D01*
X422437044Y-246034567D01*
X422437044Y-246034567D01*
G37*
G36*
X422790598Y-245681014D02*
X423031014Y-245440598D01*
X424119958Y-246529542D01*
X423879542Y-246769958D01*
X422790598Y-245681014D01*
X422790598Y-245681014D01*
G37*
G36*
X423144151Y-245327460D02*
X423384567Y-245087044D01*
X424473511Y-246175988D01*
X424233095Y-246416404D01*
X423144151Y-245327460D01*
X423144151Y-245327460D01*
G37*
G36*
X423497705Y-244973907D02*
X423738121Y-244733491D01*
X424827065Y-245822435D01*
X424586649Y-246062851D01*
X423497705Y-244973907D01*
X423497705Y-244973907D01*
G37*
G36*
X423851258Y-244620354D02*
X424091674Y-244379938D01*
X425180618Y-245468882D01*
X424940202Y-245709298D01*
X423851258Y-244620354D01*
X423851258Y-244620354D01*
G37*
G36*
X424204811Y-244266800D02*
X424445227Y-244026384D01*
X425534171Y-245115328D01*
X425293755Y-245355744D01*
X424204811Y-244266800D01*
X424204811Y-244266800D01*
G37*
G36*
X424558365Y-243913247D02*
X424798781Y-243672831D01*
X425887725Y-244761775D01*
X425647309Y-245002191D01*
X424558365Y-243913247D01*
X424558365Y-243913247D01*
G37*
G36*
X424911918Y-243559693D02*
X425152334Y-243319277D01*
X426241278Y-244408221D01*
X426000862Y-244648637D01*
X424911918Y-243559693D01*
X424911918Y-243559693D01*
G37*
G36*
X425265472Y-243206140D02*
X425505888Y-242965724D01*
X426594832Y-244054668D01*
X426354416Y-244295084D01*
X425265472Y-243206140D01*
X425265472Y-243206140D01*
G37*
G36*
X425619025Y-242852587D02*
X425859441Y-242612171D01*
X426948385Y-243701115D01*
X426707969Y-243941531D01*
X425619025Y-242852587D01*
X425619025Y-242852587D01*
G37*
G36*
X425972578Y-242499033D02*
X426212994Y-242258617D01*
X427301938Y-243347561D01*
X427061522Y-243587977D01*
X425972578Y-242499033D01*
X425972578Y-242499033D01*
G37*
G36*
X426326132Y-242145480D02*
X426566548Y-241905064D01*
X427655492Y-242994008D01*
X427415076Y-243234424D01*
X426326132Y-242145480D01*
X426326132Y-242145480D01*
G37*
G36*
X426679685Y-241791926D02*
X426920101Y-241551510D01*
X428009045Y-242640454D01*
X427768629Y-242880870D01*
X426679685Y-241791926D01*
X426679685Y-241791926D01*
G37*
G36*
X427033238Y-241438373D02*
X427273654Y-241197957D01*
X428362598Y-242286901D01*
X428122182Y-242527317D01*
X427033238Y-241438373D01*
X427033238Y-241438373D01*
G37*
G36*
X429677818Y-242527317D02*
X429437402Y-242286901D01*
X430526346Y-241197957D01*
X430766762Y-241438373D01*
X429677818Y-242527317D01*
X429677818Y-242527317D01*
G37*
G36*
X430031371Y-242880870D02*
X429790955Y-242640454D01*
X430879899Y-241551510D01*
X431120315Y-241791926D01*
X430031371Y-242880870D01*
X430031371Y-242880870D01*
G37*
G36*
X430384924Y-243234424D02*
X430144508Y-242994008D01*
X431233452Y-241905064D01*
X431473868Y-242145480D01*
X430384924Y-243234424D01*
X430384924Y-243234424D01*
G37*
G36*
X430738478Y-243587977D02*
X430498062Y-243347561D01*
X431587006Y-242258617D01*
X431827422Y-242499033D01*
X430738478Y-243587977D01*
X430738478Y-243587977D01*
G37*
G36*
X431092031Y-243941531D02*
X430851615Y-243701115D01*
X431940559Y-242612171D01*
X432180975Y-242852587D01*
X431092031Y-243941531D01*
X431092031Y-243941531D01*
G37*
G36*
X431445584Y-244295084D02*
X431205168Y-244054668D01*
X432294112Y-242965724D01*
X432534528Y-243206140D01*
X431445584Y-244295084D01*
X431445584Y-244295084D01*
G37*
G36*
X431799138Y-244648637D02*
X431558722Y-244408221D01*
X432647666Y-243319277D01*
X432888082Y-243559693D01*
X431799138Y-244648637D01*
X431799138Y-244648637D01*
G37*
G36*
X432152691Y-245002191D02*
X431912275Y-244761775D01*
X433001219Y-243672831D01*
X433241635Y-243913247D01*
X432152691Y-245002191D01*
X432152691Y-245002191D01*
G37*
G36*
X432506245Y-245355744D02*
X432265829Y-245115328D01*
X433354773Y-244026384D01*
X433595189Y-244266800D01*
X432506245Y-245355744D01*
X432506245Y-245355744D01*
G37*
G36*
X432859798Y-245709298D02*
X432619382Y-245468882D01*
X433708326Y-244379938D01*
X433948742Y-244620354D01*
X432859798Y-245709298D01*
X432859798Y-245709298D01*
G37*
G36*
X433213351Y-246062851D02*
X432972935Y-245822435D01*
X434061879Y-244733491D01*
X434302295Y-244973907D01*
X433213351Y-246062851D01*
X433213351Y-246062851D01*
G37*
G36*
X433566905Y-246416404D02*
X433326489Y-246175988D01*
X434415433Y-245087044D01*
X434655849Y-245327460D01*
X433566905Y-246416404D01*
X433566905Y-246416404D01*
G37*
G36*
X433920458Y-246769958D02*
X433680042Y-246529542D01*
X434768986Y-245440598D01*
X435009402Y-245681014D01*
X433920458Y-246769958D01*
X433920458Y-246769958D01*
G37*
G36*
X434274012Y-247123511D02*
X434033596Y-246883095D01*
X435122540Y-245794151D01*
X435362956Y-246034567D01*
X434274012Y-247123511D01*
X434274012Y-247123511D01*
G37*
G36*
X434627565Y-247477065D02*
X434387149Y-247236649D01*
X435476093Y-246147705D01*
X435716509Y-246388121D01*
X434627565Y-247477065D01*
X434627565Y-247477065D01*
G37*
G36*
X434981118Y-247830618D02*
X434740702Y-247590202D01*
X435829646Y-246501258D01*
X436070062Y-246741674D01*
X434981118Y-247830618D01*
X434981118Y-247830618D01*
G37*
G36*
X435334672Y-248184171D02*
X435094256Y-247943755D01*
X436183200Y-246854811D01*
X436423616Y-247095227D01*
X435334672Y-248184171D01*
X435334672Y-248184171D01*
G37*
G36*
X435688225Y-248537725D02*
X435447809Y-248297309D01*
X436536753Y-247208365D01*
X436777169Y-247448781D01*
X435688225Y-248537725D01*
X435688225Y-248537725D01*
G37*
G36*
X436041779Y-248891278D02*
X435801363Y-248650862D01*
X436890307Y-247561918D01*
X437130723Y-247802334D01*
X436041779Y-248891278D01*
X436041779Y-248891278D01*
G37*
G36*
X436395332Y-249244832D02*
X436154916Y-249004416D01*
X437243860Y-247915472D01*
X437484276Y-248155888D01*
X436395332Y-249244832D01*
X436395332Y-249244832D01*
G37*
G36*
X436748885Y-249598385D02*
X436508469Y-249357969D01*
X437597413Y-248269025D01*
X437837829Y-248509441D01*
X436748885Y-249598385D01*
X436748885Y-249598385D01*
G37*
G36*
X437102439Y-249951938D02*
X436862023Y-249711522D01*
X437950967Y-248622578D01*
X438191383Y-248862994D01*
X437102439Y-249951938D01*
X437102439Y-249951938D01*
G37*
G36*
X437455992Y-250305492D02*
X437215576Y-250065076D01*
X438304520Y-248976132D01*
X438544936Y-249216548D01*
X437455992Y-250305492D01*
X437455992Y-250305492D01*
G37*
G36*
X437809546Y-250659045D02*
X437569130Y-250418629D01*
X438658074Y-249329685D01*
X438898490Y-249570101D01*
X437809546Y-250659045D01*
X437809546Y-250659045D01*
G37*
G36*
X438163099Y-251012598D02*
X437922683Y-250772182D01*
X439011627Y-249683238D01*
X439252043Y-249923654D01*
X438163099Y-251012598D01*
X438163099Y-251012598D01*
G37*
G36*
X437922683Y-252327818D02*
X438163099Y-252087402D01*
X439252043Y-253176346D01*
X439011627Y-253416762D01*
X437922683Y-252327818D01*
X437922683Y-252327818D01*
G37*
G36*
X437569130Y-252681371D02*
X437809546Y-252440955D01*
X438898490Y-253529899D01*
X438658074Y-253770315D01*
X437569130Y-252681371D01*
X437569130Y-252681371D01*
G37*
G36*
X437215576Y-253034924D02*
X437455992Y-252794508D01*
X438544936Y-253883452D01*
X438304520Y-254123868D01*
X437215576Y-253034924D01*
X437215576Y-253034924D01*
G37*
G36*
X436862023Y-253388478D02*
X437102439Y-253148062D01*
X438191383Y-254237006D01*
X437950967Y-254477422D01*
X436862023Y-253388478D01*
X436862023Y-253388478D01*
G37*
G36*
X436508469Y-253742031D02*
X436748885Y-253501615D01*
X437837829Y-254590559D01*
X437597413Y-254830975D01*
X436508469Y-253742031D01*
X436508469Y-253742031D01*
G37*
G36*
X436154916Y-254095584D02*
X436395332Y-253855168D01*
X437484276Y-254944112D01*
X437243860Y-255184528D01*
X436154916Y-254095584D01*
X436154916Y-254095584D01*
G37*
G36*
X435801363Y-254449138D02*
X436041779Y-254208722D01*
X437130723Y-255297666D01*
X436890307Y-255538082D01*
X435801363Y-254449138D01*
X435801363Y-254449138D01*
G37*
G36*
X435447809Y-254802691D02*
X435688225Y-254562275D01*
X436777169Y-255651219D01*
X436536753Y-255891635D01*
X435447809Y-254802691D01*
X435447809Y-254802691D01*
G37*
G36*
X435094256Y-255156245D02*
X435334672Y-254915829D01*
X436423616Y-256004773D01*
X436183200Y-256245189D01*
X435094256Y-255156245D01*
X435094256Y-255156245D01*
G37*
G36*
X434740702Y-255509798D02*
X434981118Y-255269382D01*
X436070062Y-256358326D01*
X435829646Y-256598742D01*
X434740702Y-255509798D01*
X434740702Y-255509798D01*
G37*
G36*
X434387149Y-255863351D02*
X434627565Y-255622935D01*
X435716509Y-256711879D01*
X435476093Y-256952295D01*
X434387149Y-255863351D01*
X434387149Y-255863351D01*
G37*
G36*
X434033596Y-256216905D02*
X434274012Y-255976489D01*
X435362956Y-257065433D01*
X435122540Y-257305849D01*
X434033596Y-256216905D01*
X434033596Y-256216905D01*
G37*
G36*
X433680042Y-256570458D02*
X433920458Y-256330042D01*
X435009402Y-257418986D01*
X434768986Y-257659402D01*
X433680042Y-256570458D01*
X433680042Y-256570458D01*
G37*
G36*
X433326489Y-256924012D02*
X433566905Y-256683596D01*
X434655849Y-257772540D01*
X434415433Y-258012956D01*
X433326489Y-256924012D01*
X433326489Y-256924012D01*
G37*
G36*
X432972935Y-257277565D02*
X433213351Y-257037149D01*
X434302295Y-258126093D01*
X434061879Y-258366509D01*
X432972935Y-257277565D01*
X432972935Y-257277565D01*
G37*
G36*
X432619382Y-257631118D02*
X432859798Y-257390702D01*
X433948742Y-258479646D01*
X433708326Y-258720062D01*
X432619382Y-257631118D01*
X432619382Y-257631118D01*
G37*
G36*
X432265829Y-257984672D02*
X432506245Y-257744256D01*
X433595189Y-258833200D01*
X433354773Y-259073616D01*
X432265829Y-257984672D01*
X432265829Y-257984672D01*
G37*
G36*
X431912275Y-258338225D02*
X432152691Y-258097809D01*
X433241635Y-259186753D01*
X433001219Y-259427169D01*
X431912275Y-258338225D01*
X431912275Y-258338225D01*
G37*
G36*
X431558722Y-258691779D02*
X431799138Y-258451363D01*
X432888082Y-259540307D01*
X432647666Y-259780723D01*
X431558722Y-258691779D01*
X431558722Y-258691779D01*
G37*
G36*
X431205168Y-259045332D02*
X431445584Y-258804916D01*
X432534528Y-259893860D01*
X432294112Y-260134276D01*
X431205168Y-259045332D01*
X431205168Y-259045332D01*
G37*
G36*
X430851615Y-259398885D02*
X431092031Y-259158469D01*
X432180975Y-260247413D01*
X431940559Y-260487829D01*
X430851615Y-259398885D01*
X430851615Y-259398885D01*
G37*
G36*
X430498062Y-259752439D02*
X430738478Y-259512023D01*
X431827422Y-260600967D01*
X431587006Y-260841383D01*
X430498062Y-259752439D01*
X430498062Y-259752439D01*
G37*
G36*
X430144508Y-260105992D02*
X430384924Y-259865576D01*
X431473868Y-260954520D01*
X431233452Y-261194936D01*
X430144508Y-260105992D01*
X430144508Y-260105992D01*
G37*
G36*
X429790955Y-260459546D02*
X430031371Y-260219130D01*
X431120315Y-261308074D01*
X430879899Y-261548490D01*
X429790955Y-260459546D01*
X429790955Y-260459546D01*
G37*
G36*
X429437402Y-260813099D02*
X429677818Y-260572683D01*
X430766762Y-261661627D01*
X430526346Y-261902043D01*
X429437402Y-260813099D01*
X429437402Y-260813099D01*
G37*
D11*
X397787500Y-219337500D02*
X397827500Y-218757500D01*
D12*
X397827500Y-218757500D03*
D11*
X391477500Y-221297500D02*
X392787502Y-219837500D01*
D13*
X395287500Y-223837500D03*
D12*
X392787500Y-219837500D03*
D14*
X390207500Y-223837500D03*
X400367500Y-223837500D03*
D11*
X447793750Y-257437500D02*
X447833750Y-256857500D01*
D12*
X447833750Y-256857500D03*
D11*
X441483750Y-259397500D02*
X442793752Y-257937500D01*
D13*
X445293750Y-261937500D03*
D12*
X442793750Y-257937500D03*
D14*
X440213750Y-261937500D03*
X450373750Y-261937500D03*
D11*
X397787500Y-238387500D02*
X397827500Y-237807500D01*
D12*
X397827500Y-237807500D03*
D11*
X391477500Y-240347500D02*
X392787502Y-238887500D01*
D13*
X395287500Y-242887500D03*
D12*
X392787500Y-238887500D03*
D14*
X390207500Y-242887500D03*
X400367500Y-242887500D03*
D11*
X445412500Y-238387500D02*
X445452500Y-237807500D01*
D12*
X445452500Y-237807500D03*
D11*
X439102500Y-240347500D02*
X440412502Y-238887500D01*
D13*
X442912500Y-242887500D03*
D12*
X440412500Y-238887500D03*
D14*
X437832500Y-242887500D03*
X447992500Y-242887500D03*
D15*
X406050000Y-234080000D03*
X403550000Y-234080000D03*
D16*
X428660000Y-269720000D03*
X428660000Y-271620000D03*
X422820000Y-269690000D03*
X422820000Y-271590000D03*
D17*
X440450000Y-256890000D03*
X438550000Y-256890000D03*
X414790000Y-254450000D03*
X412890000Y-254450000D03*
X457940000Y-251740000D03*
X456040000Y-251740000D03*
D10*
G36*
X436931215Y-264562601D02*
X436372601Y-265121215D01*
X435495789Y-264244403D01*
X436054403Y-263685789D01*
X436931215Y-264562601D01*
X436931215Y-264562601D01*
G37*
G36*
X435587713Y-263219099D02*
X435029099Y-263777713D01*
X434152287Y-262900901D01*
X434710901Y-262342287D01*
X435587713Y-263219099D01*
X435587713Y-263219099D01*
G37*
D17*
X403850000Y-244920000D03*
X405750000Y-244920000D03*
X464420000Y-251750000D03*
X466320000Y-251750000D03*
D10*
G36*
X433760850Y-236540536D02*
X434319464Y-237099150D01*
X433442652Y-237975962D01*
X432884038Y-237417348D01*
X433760850Y-236540536D01*
X433760850Y-236540536D01*
G37*
G36*
X432417348Y-237884038D02*
X432975962Y-238442652D01*
X432099150Y-239319464D01*
X431540536Y-238760850D01*
X432417348Y-237884038D01*
X432417348Y-237884038D01*
G37*
D16*
X425020000Y-234810000D03*
X425020000Y-236710000D03*
D18*
X432820000Y-271720000D03*
X431550000Y-271720000D03*
X432820000Y-272990000D03*
X431550000Y-272990000D03*
X432820000Y-274260000D03*
X431550000Y-274260000D03*
D19*
X432185000Y-270450000D03*
D20*
X431169000Y-275530000D03*
X433201000Y-275530000D03*
D21*
X404562500Y-216995000D03*
D22*
X408012500Y-216995000D03*
X407212500Y-216995000D03*
X402412500Y-216995000D03*
D23*
X400492500Y-216330000D03*
D24*
X401922500Y-215830000D03*
D23*
X409132500Y-216330000D03*
D25*
X400492500Y-212150000D03*
X409132500Y-212150000D03*
D22*
X401612500Y-216995000D03*
D24*
X407702500Y-215830000D03*
D21*
X405062500Y-216995000D03*
X405562500Y-216995000D03*
X406062500Y-216995000D03*
X406562500Y-216995000D03*
X404062500Y-216995000D03*
X403562500Y-216995000D03*
X403062500Y-216995000D03*
D11*
X416837500Y-219337500D02*
X416877500Y-218757500D01*
D12*
X416877500Y-218757500D03*
D11*
X410527500Y-221297500D02*
X411837502Y-219837500D01*
D13*
X414337500Y-223837500D03*
D12*
X411837500Y-219837500D03*
D14*
X409257500Y-223837500D03*
X419417500Y-223837500D03*
D11*
X440650000Y-219337500D02*
X440690000Y-218757500D01*
D12*
X440690000Y-218757500D03*
D11*
X434340000Y-221297500D02*
X435650002Y-219837500D01*
D13*
X438150000Y-223837500D03*
D12*
X435650000Y-219837500D03*
D14*
X433070000Y-223837500D03*
X443230000Y-223837500D03*
D11*
X459700000Y-219337500D02*
X459740000Y-218757500D01*
D12*
X459740000Y-218757500D03*
D11*
X453390000Y-221297500D02*
X454700002Y-219837500D01*
D13*
X457200000Y-223837500D03*
D12*
X454700000Y-219837500D03*
D14*
X452120000Y-223837500D03*
X462280000Y-223837500D03*
D11*
X478750000Y-219337500D02*
X478790000Y-218757500D01*
D12*
X478790000Y-218757500D03*
D11*
X472440000Y-221297500D02*
X473750002Y-219837500D01*
D13*
X476250000Y-223837500D03*
D12*
X473750000Y-219837500D03*
D14*
X471170000Y-223837500D03*
X481330000Y-223837500D03*
D11*
X497800000Y-219337500D02*
X497840000Y-218757500D01*
D12*
X497840000Y-218757500D03*
D11*
X491490000Y-221297500D02*
X492800002Y-219837500D01*
D13*
X495300000Y-223837500D03*
D12*
X492800000Y-219837500D03*
D14*
X490220000Y-223837500D03*
X500380000Y-223837500D03*
D11*
X516850000Y-219337500D02*
X516890000Y-218757500D01*
D12*
X516890000Y-218757500D03*
D11*
X510540000Y-221297500D02*
X511850002Y-219837500D01*
D13*
X514350000Y-223837500D03*
D12*
X511850000Y-219837500D03*
D14*
X509270000Y-223837500D03*
X519430000Y-223837500D03*
D11*
X535900000Y-219337500D02*
X535940000Y-218757500D01*
D12*
X535940000Y-218757500D03*
D11*
X529590000Y-221297500D02*
X530900002Y-219837500D01*
D13*
X533400000Y-223837500D03*
D12*
X530900000Y-219837500D03*
D14*
X528320000Y-223837500D03*
X538480000Y-223837500D03*
D11*
X554950000Y-219337500D02*
X554990000Y-218757500D01*
D12*
X554990000Y-218757500D03*
D11*
X548640000Y-221297500D02*
X549950002Y-219837500D01*
D13*
X552450000Y-223837500D03*
D12*
X549950000Y-219837500D03*
D14*
X547370000Y-223837500D03*
X557530000Y-223837500D03*
D11*
X574000000Y-219337500D02*
X574040000Y-218757500D01*
D12*
X574040000Y-218757500D03*
D11*
X567690000Y-221297500D02*
X569000002Y-219837500D01*
D13*
X571500000Y-223837500D03*
D12*
X569000000Y-219837500D03*
D14*
X566420000Y-223837500D03*
X576580000Y-223837500D03*
D11*
X593050000Y-219337500D02*
X593090000Y-218757500D01*
D12*
X593090000Y-218757500D03*
D11*
X586740000Y-221297500D02*
X588050002Y-219837500D01*
D13*
X590550000Y-223837500D03*
D12*
X588050000Y-219837500D03*
D14*
X585470000Y-223837500D03*
X595630000Y-223837500D03*
D11*
X612100000Y-219337500D02*
X612140000Y-218757500D01*
D12*
X612140000Y-218757500D03*
D11*
X605790000Y-221297500D02*
X607100002Y-219837500D01*
D13*
X609600000Y-223837500D03*
D12*
X607100000Y-219837500D03*
D14*
X604520000Y-223837500D03*
X614680000Y-223837500D03*
D11*
X631150000Y-219337500D02*
X631190000Y-218757500D01*
D12*
X631190000Y-218757500D03*
D11*
X624840000Y-221297500D02*
X626150002Y-219837500D01*
D13*
X628650000Y-223837500D03*
D12*
X626150000Y-219837500D03*
D14*
X623570000Y-223837500D03*
X633730000Y-223837500D03*
D11*
X650200000Y-219337500D02*
X650240000Y-218757500D01*
D12*
X650240000Y-218757500D03*
D11*
X643890000Y-221297500D02*
X645200002Y-219837500D01*
D13*
X647700000Y-223837500D03*
D12*
X645200000Y-219837500D03*
D14*
X642620000Y-223837500D03*
X652780000Y-223837500D03*
D11*
X669250000Y-219337500D02*
X669290000Y-218757500D01*
D12*
X669290000Y-218757500D03*
D11*
X662940000Y-221297500D02*
X664250002Y-219837500D01*
D13*
X666750000Y-223837500D03*
D12*
X664250000Y-219837500D03*
D14*
X661670000Y-223837500D03*
X671830000Y-223837500D03*
D11*
X688300000Y-219337500D02*
X688340000Y-218757500D01*
D12*
X688340000Y-218757500D03*
D11*
X681990000Y-221297500D02*
X683300002Y-219837500D01*
D13*
X685800000Y-223837500D03*
D12*
X683300000Y-219837500D03*
D14*
X680720000Y-223837500D03*
X690880000Y-223837500D03*
D11*
X707350000Y-219337500D02*
X707390000Y-218757500D01*
D12*
X707390000Y-218757500D03*
D11*
X701040000Y-221297500D02*
X702350002Y-219837500D01*
D13*
X704850000Y-223837500D03*
D12*
X702350000Y-219837500D03*
D14*
X699770000Y-223837500D03*
X709930000Y-223837500D03*
D11*
X697825000Y-219337500D02*
X697865000Y-218757500D01*
D12*
X697865000Y-218757500D03*
D11*
X691515000Y-221297500D02*
X692825002Y-219837500D01*
D13*
X695325000Y-223837500D03*
D12*
X692825000Y-219837500D03*
D14*
X690245000Y-223837500D03*
X700405000Y-223837500D03*
D26*
X683387000Y-230822500D03*
X707263000Y-230822500D03*
D13*
X683387000Y-215582500D03*
X707263000Y-215582500D03*
D11*
X416837500Y-238387500D02*
X416877500Y-237807500D01*
D12*
X416877500Y-237807500D03*
D11*
X410527500Y-240347500D02*
X411837502Y-238887500D01*
D13*
X414337500Y-242887500D03*
D12*
X411837500Y-238887500D03*
D14*
X409257500Y-242887500D03*
X419417500Y-242887500D03*
D11*
X469225000Y-238387500D02*
X469265000Y-237807500D01*
D12*
X469265000Y-237807500D03*
D11*
X462915000Y-240347500D02*
X464225002Y-238887500D01*
D13*
X466725000Y-242887500D03*
D12*
X464225000Y-238887500D03*
D14*
X461645000Y-242887500D03*
X471805000Y-242887500D03*
D11*
X488275000Y-238387500D02*
X488315000Y-237807500D01*
D12*
X488315000Y-237807500D03*
D11*
X481965000Y-240347500D02*
X483275002Y-238887500D01*
D13*
X485775000Y-242887500D03*
D12*
X483275000Y-238887500D03*
D14*
X480695000Y-242887500D03*
X490855000Y-242887500D03*
D11*
X507325000Y-238387500D02*
X507365000Y-237807500D01*
D12*
X507365000Y-237807500D03*
D11*
X501015000Y-240347500D02*
X502325002Y-238887500D01*
D13*
X504825000Y-242887500D03*
D12*
X502325000Y-238887500D03*
D14*
X499745000Y-242887500D03*
X509905000Y-242887500D03*
D11*
X526375000Y-238387500D02*
X526415000Y-237807500D01*
D12*
X526415000Y-237807500D03*
D11*
X520065000Y-240347500D02*
X521375002Y-238887500D01*
D13*
X523875000Y-242887500D03*
D12*
X521375000Y-238887500D03*
D14*
X518795000Y-242887500D03*
X528955000Y-242887500D03*
D11*
X545425000Y-238387500D02*
X545465000Y-237807500D01*
D12*
X545465000Y-237807500D03*
D11*
X539115000Y-240347500D02*
X540425002Y-238887500D01*
D13*
X542925000Y-242887500D03*
D12*
X540425000Y-238887500D03*
D14*
X537845000Y-242887500D03*
X548005000Y-242887500D03*
D11*
X564475000Y-238387500D02*
X564515000Y-237807500D01*
D12*
X564515000Y-237807500D03*
D11*
X558165000Y-240347500D02*
X559475002Y-238887500D01*
D13*
X561975000Y-242887500D03*
D12*
X559475000Y-238887500D03*
D14*
X556895000Y-242887500D03*
X567055000Y-242887500D03*
D11*
X583525000Y-238387500D02*
X583565000Y-237807500D01*
D12*
X583565000Y-237807500D03*
D11*
X577215000Y-240347500D02*
X578525002Y-238887500D01*
D13*
X581025000Y-242887500D03*
D12*
X578525000Y-238887500D03*
D14*
X575945000Y-242887500D03*
X586105000Y-242887500D03*
D11*
X602575000Y-238387500D02*
X602615000Y-237807500D01*
D12*
X602615000Y-237807500D03*
D11*
X596265000Y-240347500D02*
X597575002Y-238887500D01*
D13*
X600075000Y-242887500D03*
D12*
X597575000Y-238887500D03*
D14*
X594995000Y-242887500D03*
X605155000Y-242887500D03*
D11*
X621625000Y-238387500D02*
X621665000Y-237807500D01*
D12*
X621665000Y-237807500D03*
D11*
X615315000Y-240347500D02*
X616625002Y-238887500D01*
D13*
X619125000Y-242887500D03*
D12*
X616625000Y-238887500D03*
D14*
X614045000Y-242887500D03*
X624205000Y-242887500D03*
D11*
X640675000Y-238387500D02*
X640715000Y-237807500D01*
D12*
X640715000Y-237807500D03*
D11*
X634365000Y-240347500D02*
X635675002Y-238887500D01*
D13*
X638175000Y-242887500D03*
D12*
X635675000Y-238887500D03*
D14*
X633095000Y-242887500D03*
X643255000Y-242887500D03*
D11*
X659725000Y-238387500D02*
X659765000Y-237807500D01*
D12*
X659765000Y-237807500D03*
D11*
X653415000Y-240347500D02*
X654725002Y-238887500D01*
D13*
X657225000Y-242887500D03*
D12*
X654725000Y-238887500D03*
D14*
X652145000Y-242887500D03*
X662305000Y-242887500D03*
D11*
X678775000Y-238387500D02*
X678815000Y-237807500D01*
D12*
X678815000Y-237807500D03*
D11*
X672465000Y-240347500D02*
X673775002Y-238887500D01*
D13*
X676275000Y-242887500D03*
D12*
X673775000Y-238887500D03*
D14*
X671195000Y-242887500D03*
X681355000Y-242887500D03*
D11*
X702587500Y-238387500D02*
X702627500Y-237807500D01*
D12*
X702627500Y-237807500D03*
D11*
X696277500Y-240347500D02*
X697587502Y-238887500D01*
D13*
X700087500Y-242887500D03*
D12*
X697587500Y-238887500D03*
D14*
X695007500Y-242887500D03*
X705167500Y-242887500D03*
D11*
X726400000Y-238387500D02*
X726440000Y-237807500D01*
D12*
X726440000Y-237807500D03*
D11*
X720090000Y-240347500D02*
X721400002Y-238887500D01*
D13*
X723900000Y-242887500D03*
D12*
X721400000Y-238887500D03*
D14*
X718820000Y-242887500D03*
X728980000Y-242887500D03*
D11*
X397787500Y-257437500D02*
X397827500Y-256857500D01*
D12*
X397827500Y-256857500D03*
D11*
X391477500Y-259397500D02*
X392787502Y-257937500D01*
D13*
X395287500Y-261937500D03*
D12*
X392787500Y-257937500D03*
D14*
X390207500Y-261937500D03*
X400367500Y-261937500D03*
D11*
X473987500Y-257437500D02*
X474027500Y-256857500D01*
D12*
X474027500Y-256857500D03*
D11*
X467677500Y-259397500D02*
X468987502Y-257937500D01*
D13*
X471487500Y-261937500D03*
D12*
X468987500Y-257937500D03*
D14*
X466407500Y-261937500D03*
X476567500Y-261937500D03*
D11*
X493037500Y-257437500D02*
X493077500Y-256857500D01*
D12*
X493077500Y-256857500D03*
D11*
X486727500Y-259397500D02*
X488037502Y-257937500D01*
D13*
X490537500Y-261937500D03*
D12*
X488037500Y-257937500D03*
D14*
X485457500Y-261937500D03*
X495617500Y-261937500D03*
D11*
X512087500Y-257437500D02*
X512127500Y-256857500D01*
D12*
X512127500Y-256857500D03*
D11*
X505777500Y-259397500D02*
X507087502Y-257937500D01*
D13*
X509587500Y-261937500D03*
D12*
X507087500Y-257937500D03*
D14*
X504507500Y-261937500D03*
X514667500Y-261937500D03*
D11*
X531137500Y-257437500D02*
X531177500Y-256857500D01*
D12*
X531177500Y-256857500D03*
D11*
X524827500Y-259397500D02*
X526137502Y-257937500D01*
D13*
X528637500Y-261937500D03*
D12*
X526137500Y-257937500D03*
D14*
X523557500Y-261937500D03*
X533717500Y-261937500D03*
D11*
X550187500Y-257437500D02*
X550227500Y-256857500D01*
D12*
X550227500Y-256857500D03*
D11*
X543877500Y-259397500D02*
X545187502Y-257937500D01*
D13*
X547687500Y-261937500D03*
D12*
X545187500Y-257937500D03*
D14*
X542607500Y-261937500D03*
X552767500Y-261937500D03*
D11*
X569237500Y-257437500D02*
X569277500Y-256857500D01*
D12*
X569277500Y-256857500D03*
D11*
X562927500Y-259397500D02*
X564237502Y-257937500D01*
D13*
X566737500Y-261937500D03*
D12*
X564237500Y-257937500D03*
D14*
X561657500Y-261937500D03*
X571817500Y-261937500D03*
D11*
X588287500Y-257437500D02*
X588327500Y-256857500D01*
D12*
X588327500Y-256857500D03*
D11*
X581977500Y-259397500D02*
X583287502Y-257937500D01*
D13*
X585787500Y-261937500D03*
D12*
X583287500Y-257937500D03*
D14*
X580707500Y-261937500D03*
X590867500Y-261937500D03*
D11*
X607337500Y-257437500D02*
X607377500Y-256857500D01*
D12*
X607377500Y-256857500D03*
D11*
X601027500Y-259397500D02*
X602337502Y-257937500D01*
D13*
X604837500Y-261937500D03*
D12*
X602337500Y-257937500D03*
D14*
X599757500Y-261937500D03*
X609917500Y-261937500D03*
D11*
X626387500Y-257437500D02*
X626427500Y-256857500D01*
D12*
X626427500Y-256857500D03*
D11*
X620077500Y-259397500D02*
X621387502Y-257937500D01*
D13*
X623887500Y-261937500D03*
D12*
X621387500Y-257937500D03*
D14*
X618807500Y-261937500D03*
X628967500Y-261937500D03*
D11*
X645437500Y-257437500D02*
X645477500Y-256857500D01*
D12*
X645477500Y-256857500D03*
D11*
X639127500Y-259397500D02*
X640437502Y-257937500D01*
D13*
X642937500Y-261937500D03*
D12*
X640437500Y-257937500D03*
D14*
X637857500Y-261937500D03*
X648017500Y-261937500D03*
D11*
X726400000Y-257437500D02*
X726440000Y-256857500D01*
D12*
X726440000Y-256857500D03*
D11*
X720090000Y-259397500D02*
X721400002Y-257937500D01*
D13*
X723900000Y-261937500D03*
D12*
X721400000Y-257937500D03*
D14*
X718820000Y-261937500D03*
X728980000Y-261937500D03*
D11*
X416837500Y-276487500D02*
X416877500Y-275907500D01*
D12*
X416877500Y-275907500D03*
D11*
X410527500Y-278447500D02*
X411837502Y-276987500D01*
D13*
X414337500Y-280987500D03*
D12*
X411837500Y-276987500D03*
D14*
X409257500Y-280987500D03*
X419417500Y-280987500D03*
D11*
X483512500Y-276487500D02*
X483552500Y-275907500D01*
D12*
X483552500Y-275907500D03*
D11*
X477202500Y-278447500D02*
X478512502Y-276987500D01*
D13*
X481012500Y-280987500D03*
D12*
X478512500Y-276987500D03*
D14*
X475932500Y-280987500D03*
X486092500Y-280987500D03*
D11*
X502562500Y-276487500D02*
X502602500Y-275907500D01*
D12*
X502602500Y-275907500D03*
D11*
X496252500Y-278447500D02*
X497562502Y-276987500D01*
D13*
X500062500Y-280987500D03*
D12*
X497562500Y-276987500D03*
D14*
X494982500Y-280987500D03*
X505142500Y-280987500D03*
D11*
X521612500Y-276487500D02*
X521652500Y-275907500D01*
D12*
X521652500Y-275907500D03*
D11*
X515302500Y-278447500D02*
X516612502Y-276987500D01*
D13*
X519112500Y-280987500D03*
D12*
X516612500Y-276987500D03*
D14*
X514032500Y-280987500D03*
X524192500Y-280987500D03*
D11*
X540662500Y-276487500D02*
X540702500Y-275907500D01*
D12*
X540702500Y-275907500D03*
D11*
X534352500Y-278447500D02*
X535662502Y-276987500D01*
D13*
X538162500Y-280987500D03*
D12*
X535662500Y-276987500D03*
D14*
X533082500Y-280987500D03*
X543242500Y-280987500D03*
D11*
X559712500Y-276487500D02*
X559752500Y-275907500D01*
D12*
X559752500Y-275907500D03*
D11*
X553402500Y-278447500D02*
X554712502Y-276987500D01*
D13*
X557212500Y-280987500D03*
D12*
X554712500Y-276987500D03*
D14*
X552132500Y-280987500D03*
X562292500Y-280987500D03*
D11*
X616862500Y-276487500D02*
X616902500Y-275907500D01*
D12*
X616902500Y-275907500D03*
D11*
X610552500Y-278447500D02*
X611862502Y-276987500D01*
D13*
X614362500Y-280987500D03*
D12*
X611862500Y-276987500D03*
D14*
X609282500Y-280987500D03*
X619442500Y-280987500D03*
D11*
X635912500Y-276487500D02*
X635952500Y-275907500D01*
D12*
X635952500Y-275907500D03*
D11*
X629602500Y-278447500D02*
X630912502Y-276987500D01*
D13*
X633412500Y-280987500D03*
D12*
X630912500Y-276987500D03*
D14*
X628332500Y-280987500D03*
X638492500Y-280987500D03*
D11*
X654962500Y-276487500D02*
X655002500Y-275907500D01*
D12*
X655002500Y-275907500D03*
D11*
X648652500Y-278447500D02*
X649962502Y-276987500D01*
D13*
X652462500Y-280987500D03*
D12*
X649962500Y-276987500D03*
D14*
X647382500Y-280987500D03*
X657542500Y-280987500D03*
D11*
X726400000Y-276487500D02*
X726440000Y-275907500D01*
D12*
X726440000Y-275907500D03*
D11*
X720090000Y-278447500D02*
X721400002Y-276987500D01*
D13*
X723900000Y-280987500D03*
D12*
X721400000Y-276987500D03*
D14*
X718820000Y-280987500D03*
X728980000Y-280987500D03*
D11*
X397787500Y-295537500D02*
X397827500Y-294957500D01*
D12*
X397827500Y-294957500D03*
D11*
X391477500Y-297497500D02*
X392787502Y-296037500D01*
D13*
X395287500Y-300037500D03*
D12*
X392787500Y-296037500D03*
D14*
X390207500Y-300037500D03*
X400367500Y-300037500D03*
D11*
X416837500Y-295537500D02*
X416877500Y-294957500D01*
D12*
X416877500Y-294957500D03*
D11*
X410527500Y-297497500D02*
X411837502Y-296037500D01*
D13*
X414337500Y-300037500D03*
D12*
X411837500Y-296037500D03*
D14*
X409257500Y-300037500D03*
X419417500Y-300037500D03*
D11*
X445412500Y-295537500D02*
X445452500Y-294957500D01*
D12*
X445452500Y-294957500D03*
D11*
X439102500Y-297497500D02*
X440412502Y-296037500D01*
D13*
X442912500Y-300037500D03*
D12*
X440412500Y-296037500D03*
D14*
X437832500Y-300037500D03*
X447992500Y-300037500D03*
D27*
X406910000Y-222140000D03*
X406910000Y-224340000D03*
X403040000Y-222170000D03*
X403040000Y-224370000D03*
D28*
X403900000Y-228370000D03*
X404850000Y-228370000D03*
X405800000Y-228370000D03*
X405800000Y-231070000D03*
X403900000Y-231070000D03*
D11*
X416837500Y-257437500D02*
X416877500Y-256857500D01*
D12*
X416877500Y-256857500D03*
D11*
X410527500Y-259397500D02*
X411837502Y-257937500D01*
D13*
X414337500Y-261937500D03*
D12*
X411837500Y-257937500D03*
D14*
X409257500Y-261937500D03*
X419417500Y-261937500D03*
D11*
X664487500Y-257437500D02*
X664527500Y-256857500D01*
D12*
X664527500Y-256857500D03*
D11*
X658177500Y-259397500D02*
X659487502Y-257937500D01*
D13*
X661987500Y-261937500D03*
D12*
X659487500Y-257937500D03*
D14*
X656907500Y-261937500D03*
X667067500Y-261937500D03*
D11*
X695443750Y-257437500D02*
X695483750Y-256857500D01*
D12*
X695483750Y-256857500D03*
D11*
X689133750Y-259397500D02*
X690443752Y-257937500D01*
D13*
X692943750Y-261937500D03*
D12*
X690443750Y-257937500D03*
D14*
X687863750Y-261937500D03*
X698023750Y-261937500D03*
D26*
X681005750Y-268922500D03*
X704881750Y-268922500D03*
D13*
X681005750Y-253682500D03*
X704881750Y-253682500D03*
D11*
X397787500Y-276487500D02*
X397827500Y-275907500D01*
D12*
X397827500Y-275907500D03*
D11*
X391477500Y-278447500D02*
X392787502Y-276987500D01*
D13*
X395287500Y-280987500D03*
D12*
X392787500Y-276987500D03*
D14*
X390207500Y-280987500D03*
X400367500Y-280987500D03*
D11*
X452556250Y-276487500D02*
X452596250Y-275907500D01*
D12*
X452596250Y-275907500D03*
D11*
X446246250Y-278447500D02*
X447556252Y-276987500D01*
D13*
X450056250Y-280987500D03*
D12*
X447556250Y-276987500D03*
D14*
X444976250Y-280987500D03*
X455136250Y-280987500D03*
D26*
X438118250Y-287972500D03*
X461994250Y-287972500D03*
D13*
X438118250Y-272732500D03*
X461994250Y-272732500D03*
D11*
X681156250Y-276487500D02*
X681196250Y-275907500D01*
D12*
X681196250Y-275907500D03*
D11*
X674846250Y-278447500D02*
X676156252Y-276987500D01*
D13*
X678656250Y-280987500D03*
D12*
X676156250Y-276987500D03*
D14*
X673576250Y-280987500D03*
X683736250Y-280987500D03*
D11*
X493037500Y-295537500D02*
X493077500Y-294957500D01*
D12*
X493077500Y-294957500D03*
D11*
X486727500Y-297497500D02*
X488037502Y-296037500D01*
D13*
X490537500Y-300037500D03*
D12*
X488037500Y-296037500D03*
D14*
X485457500Y-300037500D03*
X495617500Y-300037500D03*
D11*
X535900000Y-295537500D02*
X535940000Y-294957500D01*
D12*
X535940000Y-294957500D03*
D11*
X529590000Y-297497500D02*
X530900002Y-296037500D01*
D13*
X533400000Y-300037500D03*
D12*
X530900000Y-296037500D03*
D14*
X528320000Y-300037500D03*
X538480000Y-300037500D03*
D26*
X514350000Y-307022500D03*
X552450000Y-307022500D03*
D13*
X514350000Y-291782500D03*
X552450000Y-291782500D03*
D11*
X707350000Y-295537500D02*
X707390000Y-294957500D01*
D12*
X707390000Y-294957500D03*
D11*
X701040000Y-297497500D02*
X702350002Y-296037500D01*
D13*
X704850000Y-300037500D03*
D12*
X702350000Y-296037500D03*
D14*
X699770000Y-300037500D03*
X709930000Y-300037500D03*
D11*
X726400000Y-295537500D02*
X726440000Y-294957500D01*
D12*
X726440000Y-294957500D03*
D11*
X720090000Y-297497500D02*
X721400002Y-296037500D01*
D13*
X723900000Y-300037500D03*
D12*
X721400000Y-296037500D03*
D14*
X718820000Y-300037500D03*
X728980000Y-300037500D03*
D11*
X593050000Y-295537500D02*
X593090000Y-294957500D01*
D12*
X593090000Y-294957500D03*
D11*
X586740000Y-297497500D02*
X588050002Y-296037500D01*
D13*
X590550000Y-300037500D03*
D12*
X588050000Y-296037500D03*
D14*
X585470000Y-300037500D03*
X595630000Y-300037500D03*
D26*
X571500000Y-307022500D03*
X609600000Y-307022500D03*
D13*
X571500000Y-291782500D03*
X609600000Y-291782500D03*
D11*
X654962500Y-295537500D02*
X655002500Y-294957500D01*
D12*
X655002500Y-294957500D03*
D11*
X648652500Y-297497500D02*
X649962502Y-296037500D01*
D13*
X652462500Y-300037500D03*
D12*
X649962500Y-296037500D03*
D14*
X647382500Y-300037500D03*
X657542500Y-300037500D03*
D11*
X688300000Y-295537500D02*
X688340000Y-294957500D01*
D12*
X688340000Y-294957500D03*
D11*
X681990000Y-297497500D02*
X683300002Y-296037500D01*
D13*
X685800000Y-300037500D03*
D12*
X683300000Y-296037500D03*
D14*
X680720000Y-300037500D03*
X690880000Y-300037500D03*
D11*
X574000000Y-295537500D02*
X574040000Y-294957500D01*
D12*
X574040000Y-294957500D03*
D11*
X567690000Y-297497500D02*
X569000002Y-296037500D01*
D13*
X571500000Y-300037500D03*
D12*
X569000000Y-296037500D03*
D14*
X566420000Y-300037500D03*
X576580000Y-300037500D03*
D26*
X514350000Y-307022500D03*
X628650000Y-307022500D03*
D13*
X514350000Y-291782500D03*
X628650000Y-291782500D03*
D26*
X609600000Y-307022500D03*
D13*
X609600000Y-291782500D03*
D11*
X612100000Y-295537500D02*
X612140000Y-294957500D01*
D12*
X612140000Y-294957500D03*
D11*
X605790000Y-297497500D02*
X607100002Y-296037500D01*
D13*
X609600000Y-300037500D03*
D12*
X607100000Y-296037500D03*
D14*
X604520000Y-300037500D03*
X614680000Y-300037500D03*
D26*
X590550000Y-307022500D03*
X628650000Y-307022500D03*
D13*
X590550000Y-291782500D03*
X628650000Y-291782500D03*
D11*
X631150000Y-295537500D02*
X631190000Y-294957500D01*
D12*
X631190000Y-294957500D03*
D11*
X624840000Y-297497500D02*
X626150002Y-296037500D01*
D13*
X628650000Y-300037500D03*
D12*
X626150000Y-296037500D03*
D14*
X623570000Y-300037500D03*
X633730000Y-300037500D03*
M02*
