G04 #@! TF.FileFunction,Copper,L1,Top,Signal*
%FSLAX46Y46*%
G04 Gerber Fmt 4.6, Leading zero omitted, Abs format (unit mm)*
G04 Created by KiCad (PCBNEW 4.0.7) date 05/14/18 18:10:09*
%MOMM*%
%LPD*%
G01*
G04 APERTURE LIST*
%ADD10C,0.100000*%
%ADD11C,2.250000*%
%ADD12C,2.250000*%
%ADD13O,1.000000X2.100000*%
%ADD14O,1.000000X1.600000*%
%ADD15C,0.600000*%
%ADD16C,0.258000*%
G04 APERTURE END LIST*
D10*
D11*
X707350000Y-276487500D02*
X707390000Y-275907500D01*
D12*
X707390000Y-275907500D03*
D11*
X701040000Y-278447500D02*
X702350002Y-276987500D01*
D12*
X702350000Y-276987500D03*
D11*
X597812500Y-276487500D02*
X597852500Y-275907500D01*
D12*
X597852500Y-275907500D03*
D11*
X591502500Y-278447500D02*
X592812502Y-276987500D01*
D12*
X592812500Y-276987500D03*
D11*
X578762500Y-276487500D02*
X578802500Y-275907500D01*
D12*
X578802500Y-275907500D03*
D11*
X572452500Y-278447500D02*
X573762502Y-276987500D01*
D12*
X573762500Y-276987500D03*
D11*
X397787500Y-219337500D02*
X397827500Y-218757500D01*
D12*
X397827500Y-218757500D03*
D11*
X391477500Y-221297500D02*
X392787502Y-219837500D01*
D12*
X392787500Y-219837500D03*
D11*
X447793750Y-257437500D02*
X447833750Y-256857500D01*
D12*
X447833750Y-256857500D03*
D11*
X441483750Y-259397500D02*
X442793752Y-257937500D01*
D12*
X442793750Y-257937500D03*
D11*
X397787500Y-238387500D02*
X397827500Y-237807500D01*
D12*
X397827500Y-237807500D03*
D11*
X391477500Y-240347500D02*
X392787502Y-238887500D01*
D12*
X392787500Y-238887500D03*
D11*
X445412500Y-238387500D02*
X445452500Y-237807500D01*
D12*
X445452500Y-237807500D03*
D11*
X439102500Y-240347500D02*
X440412502Y-238887500D01*
D12*
X440412500Y-238887500D03*
D13*
X400492500Y-216330000D03*
X409132500Y-216330000D03*
D14*
X400492500Y-212150000D03*
X409132500Y-212150000D03*
D11*
X416837500Y-219337500D02*
X416877500Y-218757500D01*
D12*
X416877500Y-218757500D03*
D11*
X410527500Y-221297500D02*
X411837502Y-219837500D01*
D12*
X411837500Y-219837500D03*
D11*
X440650000Y-219337500D02*
X440690000Y-218757500D01*
D12*
X440690000Y-218757500D03*
D11*
X434340000Y-221297500D02*
X435650002Y-219837500D01*
D12*
X435650000Y-219837500D03*
D11*
X459700000Y-219337500D02*
X459740000Y-218757500D01*
D12*
X459740000Y-218757500D03*
D11*
X453390000Y-221297500D02*
X454700002Y-219837500D01*
D12*
X454700000Y-219837500D03*
D11*
X478750000Y-219337500D02*
X478790000Y-218757500D01*
D12*
X478790000Y-218757500D03*
D11*
X472440000Y-221297500D02*
X473750002Y-219837500D01*
D12*
X473750000Y-219837500D03*
D11*
X497800000Y-219337500D02*
X497840000Y-218757500D01*
D12*
X497840000Y-218757500D03*
D11*
X491490000Y-221297500D02*
X492800002Y-219837500D01*
D12*
X492800000Y-219837500D03*
D11*
X516850000Y-219337500D02*
X516890000Y-218757500D01*
D12*
X516890000Y-218757500D03*
D11*
X510540000Y-221297500D02*
X511850002Y-219837500D01*
D12*
X511850000Y-219837500D03*
D11*
X535900000Y-219337500D02*
X535940000Y-218757500D01*
D12*
X535940000Y-218757500D03*
D11*
X529590000Y-221297500D02*
X530900002Y-219837500D01*
D12*
X530900000Y-219837500D03*
D11*
X554950000Y-219337500D02*
X554990000Y-218757500D01*
D12*
X554990000Y-218757500D03*
D11*
X548640000Y-221297500D02*
X549950002Y-219837500D01*
D12*
X549950000Y-219837500D03*
D11*
X574000000Y-219337500D02*
X574040000Y-218757500D01*
D12*
X574040000Y-218757500D03*
D11*
X567690000Y-221297500D02*
X569000002Y-219837500D01*
D12*
X569000000Y-219837500D03*
D11*
X593050000Y-219337500D02*
X593090000Y-218757500D01*
D12*
X593090000Y-218757500D03*
D11*
X586740000Y-221297500D02*
X588050002Y-219837500D01*
D12*
X588050000Y-219837500D03*
D11*
X612100000Y-219337500D02*
X612140000Y-218757500D01*
D12*
X612140000Y-218757500D03*
D11*
X605790000Y-221297500D02*
X607100002Y-219837500D01*
D12*
X607100000Y-219837500D03*
D11*
X631150000Y-219337500D02*
X631190000Y-218757500D01*
D12*
X631190000Y-218757500D03*
D11*
X624840000Y-221297500D02*
X626150002Y-219837500D01*
D12*
X626150000Y-219837500D03*
D11*
X650200000Y-219337500D02*
X650240000Y-218757500D01*
D12*
X650240000Y-218757500D03*
D11*
X643890000Y-221297500D02*
X645200002Y-219837500D01*
D12*
X645200000Y-219837500D03*
D11*
X669250000Y-219337500D02*
X669290000Y-218757500D01*
D12*
X669290000Y-218757500D03*
D11*
X662940000Y-221297500D02*
X664250002Y-219837500D01*
D12*
X664250000Y-219837500D03*
D11*
X688300000Y-219337500D02*
X688340000Y-218757500D01*
D12*
X688340000Y-218757500D03*
D11*
X681990000Y-221297500D02*
X683300002Y-219837500D01*
D12*
X683300000Y-219837500D03*
D11*
X707350000Y-219337500D02*
X707390000Y-218757500D01*
D12*
X707390000Y-218757500D03*
D11*
X701040000Y-221297500D02*
X702350002Y-219837500D01*
D12*
X702350000Y-219837500D03*
D11*
X697825000Y-219337500D02*
X697865000Y-218757500D01*
D12*
X697865000Y-218757500D03*
D11*
X691515000Y-221297500D02*
X692825002Y-219837500D01*
D12*
X692825000Y-219837500D03*
D11*
X416837500Y-238387500D02*
X416877500Y-237807500D01*
D12*
X416877500Y-237807500D03*
D11*
X410527500Y-240347500D02*
X411837502Y-238887500D01*
D12*
X411837500Y-238887500D03*
D11*
X469225000Y-238387500D02*
X469265000Y-237807500D01*
D12*
X469265000Y-237807500D03*
D11*
X462915000Y-240347500D02*
X464225002Y-238887500D01*
D12*
X464225000Y-238887500D03*
D11*
X488275000Y-238387500D02*
X488315000Y-237807500D01*
D12*
X488315000Y-237807500D03*
D11*
X481965000Y-240347500D02*
X483275002Y-238887500D01*
D12*
X483275000Y-238887500D03*
D11*
X507325000Y-238387500D02*
X507365000Y-237807500D01*
D12*
X507365000Y-237807500D03*
D11*
X501015000Y-240347500D02*
X502325002Y-238887500D01*
D12*
X502325000Y-238887500D03*
D11*
X526375000Y-238387500D02*
X526415000Y-237807500D01*
D12*
X526415000Y-237807500D03*
D11*
X520065000Y-240347500D02*
X521375002Y-238887500D01*
D12*
X521375000Y-238887500D03*
D11*
X545425000Y-238387500D02*
X545465000Y-237807500D01*
D12*
X545465000Y-237807500D03*
D11*
X539115000Y-240347500D02*
X540425002Y-238887500D01*
D12*
X540425000Y-238887500D03*
D11*
X564475000Y-238387500D02*
X564515000Y-237807500D01*
D12*
X564515000Y-237807500D03*
D11*
X558165000Y-240347500D02*
X559475002Y-238887500D01*
D12*
X559475000Y-238887500D03*
D11*
X583525000Y-238387500D02*
X583565000Y-237807500D01*
D12*
X583565000Y-237807500D03*
D11*
X577215000Y-240347500D02*
X578525002Y-238887500D01*
D12*
X578525000Y-238887500D03*
D11*
X602575000Y-238387500D02*
X602615000Y-237807500D01*
D12*
X602615000Y-237807500D03*
D11*
X596265000Y-240347500D02*
X597575002Y-238887500D01*
D12*
X597575000Y-238887500D03*
D11*
X621625000Y-238387500D02*
X621665000Y-237807500D01*
D12*
X621665000Y-237807500D03*
D11*
X615315000Y-240347500D02*
X616625002Y-238887500D01*
D12*
X616625000Y-238887500D03*
D11*
X640675000Y-238387500D02*
X640715000Y-237807500D01*
D12*
X640715000Y-237807500D03*
D11*
X634365000Y-240347500D02*
X635675002Y-238887500D01*
D12*
X635675000Y-238887500D03*
D11*
X659725000Y-238387500D02*
X659765000Y-237807500D01*
D12*
X659765000Y-237807500D03*
D11*
X653415000Y-240347500D02*
X654725002Y-238887500D01*
D12*
X654725000Y-238887500D03*
D11*
X678775000Y-238387500D02*
X678815000Y-237807500D01*
D12*
X678815000Y-237807500D03*
D11*
X672465000Y-240347500D02*
X673775002Y-238887500D01*
D12*
X673775000Y-238887500D03*
D11*
X702587500Y-238387500D02*
X702627500Y-237807500D01*
D12*
X702627500Y-237807500D03*
D11*
X696277500Y-240347500D02*
X697587502Y-238887500D01*
D12*
X697587500Y-238887500D03*
D11*
X726400000Y-238387500D02*
X726440000Y-237807500D01*
D12*
X726440000Y-237807500D03*
D11*
X720090000Y-240347500D02*
X721400002Y-238887500D01*
D12*
X721400000Y-238887500D03*
D11*
X397787500Y-257437500D02*
X397827500Y-256857500D01*
D12*
X397827500Y-256857500D03*
D11*
X391477500Y-259397500D02*
X392787502Y-257937500D01*
D12*
X392787500Y-257937500D03*
D11*
X473987500Y-257437500D02*
X474027500Y-256857500D01*
D12*
X474027500Y-256857500D03*
D11*
X467677500Y-259397500D02*
X468987502Y-257937500D01*
D12*
X468987500Y-257937500D03*
D11*
X493037500Y-257437500D02*
X493077500Y-256857500D01*
D12*
X493077500Y-256857500D03*
D11*
X486727500Y-259397500D02*
X488037502Y-257937500D01*
D12*
X488037500Y-257937500D03*
D11*
X512087500Y-257437500D02*
X512127500Y-256857500D01*
D12*
X512127500Y-256857500D03*
D11*
X505777500Y-259397500D02*
X507087502Y-257937500D01*
D12*
X507087500Y-257937500D03*
D11*
X531137500Y-257437500D02*
X531177500Y-256857500D01*
D12*
X531177500Y-256857500D03*
D11*
X524827500Y-259397500D02*
X526137502Y-257937500D01*
D12*
X526137500Y-257937500D03*
D11*
X550187500Y-257437500D02*
X550227500Y-256857500D01*
D12*
X550227500Y-256857500D03*
D11*
X543877500Y-259397500D02*
X545187502Y-257937500D01*
D12*
X545187500Y-257937500D03*
D11*
X569237500Y-257437500D02*
X569277500Y-256857500D01*
D12*
X569277500Y-256857500D03*
D11*
X562927500Y-259397500D02*
X564237502Y-257937500D01*
D12*
X564237500Y-257937500D03*
D11*
X588287500Y-257437500D02*
X588327500Y-256857500D01*
D12*
X588327500Y-256857500D03*
D11*
X581977500Y-259397500D02*
X583287502Y-257937500D01*
D12*
X583287500Y-257937500D03*
D11*
X607337500Y-257437500D02*
X607377500Y-256857500D01*
D12*
X607377500Y-256857500D03*
D11*
X601027500Y-259397500D02*
X602337502Y-257937500D01*
D12*
X602337500Y-257937500D03*
D11*
X626387500Y-257437500D02*
X626427500Y-256857500D01*
D12*
X626427500Y-256857500D03*
D11*
X620077500Y-259397500D02*
X621387502Y-257937500D01*
D12*
X621387500Y-257937500D03*
D11*
X645437500Y-257437500D02*
X645477500Y-256857500D01*
D12*
X645477500Y-256857500D03*
D11*
X639127500Y-259397500D02*
X640437502Y-257937500D01*
D12*
X640437500Y-257937500D03*
D11*
X726400000Y-257437500D02*
X726440000Y-256857500D01*
D12*
X726440000Y-256857500D03*
D11*
X720090000Y-259397500D02*
X721400002Y-257937500D01*
D12*
X721400000Y-257937500D03*
D11*
X416837500Y-276487500D02*
X416877500Y-275907500D01*
D12*
X416877500Y-275907500D03*
D11*
X410527500Y-278447500D02*
X411837502Y-276987500D01*
D12*
X411837500Y-276987500D03*
D11*
X483512500Y-276487500D02*
X483552500Y-275907500D01*
D12*
X483552500Y-275907500D03*
D11*
X477202500Y-278447500D02*
X478512502Y-276987500D01*
D12*
X478512500Y-276987500D03*
D11*
X502562500Y-276487500D02*
X502602500Y-275907500D01*
D12*
X502602500Y-275907500D03*
D11*
X496252500Y-278447500D02*
X497562502Y-276987500D01*
D12*
X497562500Y-276987500D03*
D11*
X521612500Y-276487500D02*
X521652500Y-275907500D01*
D12*
X521652500Y-275907500D03*
D11*
X515302500Y-278447500D02*
X516612502Y-276987500D01*
D12*
X516612500Y-276987500D03*
D11*
X540662500Y-276487500D02*
X540702500Y-275907500D01*
D12*
X540702500Y-275907500D03*
D11*
X534352500Y-278447500D02*
X535662502Y-276987500D01*
D12*
X535662500Y-276987500D03*
D11*
X559712500Y-276487500D02*
X559752500Y-275907500D01*
D12*
X559752500Y-275907500D03*
D11*
X553402500Y-278447500D02*
X554712502Y-276987500D01*
D12*
X554712500Y-276987500D03*
D11*
X616862500Y-276487500D02*
X616902500Y-275907500D01*
D12*
X616902500Y-275907500D03*
D11*
X610552500Y-278447500D02*
X611862502Y-276987500D01*
D12*
X611862500Y-276987500D03*
D11*
X635912500Y-276487500D02*
X635952500Y-275907500D01*
D12*
X635952500Y-275907500D03*
D11*
X629602500Y-278447500D02*
X630912502Y-276987500D01*
D12*
X630912500Y-276987500D03*
D11*
X654962500Y-276487500D02*
X655002500Y-275907500D01*
D12*
X655002500Y-275907500D03*
D11*
X648652500Y-278447500D02*
X649962502Y-276987500D01*
D12*
X649962500Y-276987500D03*
D11*
X726400000Y-276487500D02*
X726440000Y-275907500D01*
D12*
X726440000Y-275907500D03*
D11*
X720090000Y-278447500D02*
X721400002Y-276987500D01*
D12*
X721400000Y-276987500D03*
D11*
X397787500Y-295537500D02*
X397827500Y-294957500D01*
D12*
X397827500Y-294957500D03*
D11*
X391477500Y-297497500D02*
X392787502Y-296037500D01*
D12*
X392787500Y-296037500D03*
D11*
X416837500Y-295537500D02*
X416877500Y-294957500D01*
D12*
X416877500Y-294957500D03*
D11*
X410527500Y-297497500D02*
X411837502Y-296037500D01*
D12*
X411837500Y-296037500D03*
D11*
X445412500Y-295537500D02*
X445452500Y-294957500D01*
D12*
X445452500Y-294957500D03*
D11*
X439102500Y-297497500D02*
X440412502Y-296037500D01*
D12*
X440412500Y-296037500D03*
D11*
X416837500Y-257437500D02*
X416877500Y-256857500D01*
D12*
X416877500Y-256857500D03*
D11*
X410527500Y-259397500D02*
X411837502Y-257937500D01*
D12*
X411837500Y-257937500D03*
D11*
X664487500Y-257437500D02*
X664527500Y-256857500D01*
D12*
X664527500Y-256857500D03*
D11*
X658177500Y-259397500D02*
X659487502Y-257937500D01*
D12*
X659487500Y-257937500D03*
D11*
X695443750Y-257437500D02*
X695483750Y-256857500D01*
D12*
X695483750Y-256857500D03*
D11*
X689133750Y-259397500D02*
X690443752Y-257937500D01*
D12*
X690443750Y-257937500D03*
D11*
X397787500Y-276487500D02*
X397827500Y-275907500D01*
D12*
X397827500Y-275907500D03*
D11*
X391477500Y-278447500D02*
X392787502Y-276987500D01*
D12*
X392787500Y-276987500D03*
D11*
X452556250Y-276487500D02*
X452596250Y-275907500D01*
D12*
X452596250Y-275907500D03*
D11*
X446246250Y-278447500D02*
X447556252Y-276987500D01*
D12*
X447556250Y-276987500D03*
D11*
X681156250Y-276487500D02*
X681196250Y-275907500D01*
D12*
X681196250Y-275907500D03*
D11*
X674846250Y-278447500D02*
X676156252Y-276987500D01*
D12*
X676156250Y-276987500D03*
D11*
X493037500Y-295537500D02*
X493077500Y-294957500D01*
D12*
X493077500Y-294957500D03*
D11*
X486727500Y-297497500D02*
X488037502Y-296037500D01*
D12*
X488037500Y-296037500D03*
D11*
X535900000Y-295537500D02*
X535940000Y-294957500D01*
D12*
X535940000Y-294957500D03*
D11*
X529590000Y-297497500D02*
X530900002Y-296037500D01*
D12*
X530900000Y-296037500D03*
D11*
X707350000Y-295537500D02*
X707390000Y-294957500D01*
D12*
X707390000Y-294957500D03*
D11*
X701040000Y-297497500D02*
X702350002Y-296037500D01*
D12*
X702350000Y-296037500D03*
D11*
X726400000Y-295537500D02*
X726440000Y-294957500D01*
D12*
X726440000Y-294957500D03*
D11*
X720090000Y-297497500D02*
X721400002Y-296037500D01*
D12*
X721400000Y-296037500D03*
D11*
X593050000Y-295537500D02*
X593090000Y-294957500D01*
D12*
X593090000Y-294957500D03*
D11*
X586740000Y-297497500D02*
X588050002Y-296037500D01*
D12*
X588050000Y-296037500D03*
D11*
X654962500Y-295537500D02*
X655002500Y-294957500D01*
D12*
X655002500Y-294957500D03*
D11*
X648652500Y-297497500D02*
X649962502Y-296037500D01*
D12*
X649962500Y-296037500D03*
D11*
X688300000Y-295537500D02*
X688340000Y-294957500D01*
D12*
X688340000Y-294957500D03*
D11*
X681990000Y-297497500D02*
X683300002Y-296037500D01*
D12*
X683300000Y-296037500D03*
D11*
X574000000Y-295537500D02*
X574040000Y-294957500D01*
D12*
X574040000Y-294957500D03*
D11*
X567690000Y-297497500D02*
X569000002Y-296037500D01*
D12*
X569000000Y-296037500D03*
D11*
X612100000Y-295537500D02*
X612140000Y-294957500D01*
D12*
X612140000Y-294957500D03*
D11*
X605790000Y-297497500D02*
X607100002Y-296037500D01*
D12*
X607100000Y-296037500D03*
D11*
X631150000Y-295537500D02*
X631190000Y-294957500D01*
D12*
X631190000Y-294957500D03*
D11*
X624840000Y-297497500D02*
X626150002Y-296037500D01*
D12*
X626150000Y-296037500D03*
D15*
X407240000Y-219610000D03*
X402580000Y-220000000D03*
X458310000Y-271570000D03*
X441970000Y-263560000D03*
X445570000Y-244130000D03*
X442410000Y-240270000D03*
X537560000Y-290790000D03*
X414220000Y-221000000D03*
X409910000Y-218240000D03*
X413590000Y-268640000D03*
X410850000Y-272500000D03*
X410527500Y-244470000D03*
X410640000Y-248730000D03*
X433700000Y-255270000D03*
X431700000Y-257260000D03*
X426120000Y-255650000D03*
X422690000Y-253060000D03*
X435960000Y-250180000D03*
X432780000Y-246960000D03*
X429400000Y-243910000D03*
X429400000Y-243910000D03*
X425920000Y-245690000D03*
X422600000Y-248960000D03*
X428110000Y-257000000D03*
X459530000Y-251750000D03*
X462570000Y-251730000D03*
X431240000Y-254770000D03*
X428656486Y-266083514D03*
X431130000Y-255940000D03*
X429710000Y-266380000D03*
X405060000Y-220010000D03*
X405520000Y-247620000D03*
X404760000Y-221600000D03*
X405120000Y-248750000D03*
X426600000Y-264370000D03*
X426850000Y-258220000D03*
D16*
X410527500Y-221297500D02*
X408927500Y-221297500D01*
X408927500Y-221297500D02*
X407240000Y-219610000D01*
X391477500Y-221297500D02*
X401282500Y-221297500D01*
X401282500Y-221297500D02*
X402580000Y-220000000D01*
X447556250Y-276987500D02*
X452973750Y-271570000D01*
X452973750Y-271570000D02*
X458310000Y-271570000D01*
X441483750Y-259397500D02*
X441483750Y-263073750D01*
X441483750Y-263073750D02*
X441970000Y-263560000D01*
X446440000Y-240347500D02*
X442487500Y-240347500D01*
X462915000Y-240347500D02*
X446440000Y-240347500D01*
X446440000Y-240347500D02*
X446440000Y-243260000D01*
X446440000Y-243260000D02*
X445570000Y-244130000D01*
X442487500Y-240347500D02*
X442410000Y-240270000D01*
X529732500Y-297497500D02*
X536440000Y-290790000D01*
X536440000Y-290790000D02*
X537560000Y-290790000D01*
X529590000Y-297497500D02*
X529732500Y-297497500D01*
X435960000Y-253010000D02*
X433999999Y-254970001D01*
X433999999Y-254970001D02*
X433700000Y-255270000D01*
X435960000Y-250180000D02*
X435960000Y-253010000D01*
X410850000Y-272500000D02*
X413590000Y-269760000D01*
X413590000Y-269760000D02*
X413590000Y-268640000D01*
X410527500Y-244470000D02*
X410527500Y-248617500D01*
X410527500Y-240347500D02*
X410527500Y-244470000D01*
X410527500Y-248617500D02*
X410640000Y-248730000D01*
X433690000Y-255270000D02*
X433700000Y-255270000D01*
X431700000Y-257260000D02*
X433690000Y-255270000D01*
X425280000Y-255650000D02*
X425695736Y-255650000D01*
X422690000Y-253060000D02*
X425280000Y-255650000D01*
X425695736Y-255650000D02*
X426120000Y-255650000D01*
X426419999Y-255949999D02*
X426120000Y-255650000D01*
X427470000Y-257000000D02*
X426419999Y-255949999D01*
X428110000Y-257000000D02*
X427470000Y-257000000D01*
X422600000Y-252970000D02*
X422690000Y-253060000D01*
X422600000Y-248960000D02*
X422600000Y-252970000D01*
X432780000Y-246960000D02*
X435960000Y-250140000D01*
X435960000Y-250140000D02*
X435960000Y-250180000D01*
X429400000Y-243910000D02*
X432450000Y-246960000D01*
X432450000Y-246960000D02*
X432780000Y-246960000D01*
X425920000Y-245690000D02*
X427620000Y-245690000D01*
X427620000Y-245690000D02*
X429400000Y-243910000D01*
X422600000Y-248960000D02*
X425870000Y-245690000D01*
X425870000Y-245690000D02*
X425920000Y-245690000D01*
X459530000Y-251750000D02*
X462915000Y-248365000D01*
X462915000Y-248365000D02*
X462915000Y-240347500D01*
X462570000Y-251730000D02*
X467677500Y-256837500D01*
X467677500Y-256837500D02*
X467677500Y-259397500D01*
X428656486Y-266083514D02*
X428656486Y-257353514D01*
X428656486Y-257353514D02*
X431240000Y-254770000D01*
X430830001Y-256239999D02*
X431130000Y-255940000D01*
X429710000Y-257360000D02*
X430830001Y-256239999D01*
X429710000Y-266380000D02*
X429710000Y-257360000D01*
X405359999Y-220309999D02*
X405060000Y-220010000D01*
X405520000Y-220470000D02*
X405359999Y-220309999D01*
X405520000Y-247620000D02*
X405520000Y-220470000D01*
X404760000Y-222024264D02*
X404760000Y-221600000D01*
X404760000Y-248390000D02*
X404760000Y-222024264D01*
X405120000Y-248750000D02*
X404760000Y-248390000D01*
X409132500Y-212150000D02*
X409132500Y-213208000D01*
X409132500Y-213208000D02*
X409132500Y-216330000D01*
X400492500Y-212150000D02*
X409132500Y-212150000D01*
X400492500Y-216330000D02*
X400492500Y-215022000D01*
X400492500Y-215022000D02*
X400492500Y-212150000D01*
X426850000Y-264120000D02*
X426600000Y-264370000D01*
X426850000Y-258220000D02*
X426850000Y-264120000D01*
M02*
