M48
;DRILL file {KiCad (5.0.0-rc2-dev-733-g23a9fcd91)} date 05/24/18 07:34:13
;FORMAT={-:-/ absolute / inch / decimal}
FMAT,2
INCH,TZ
T1C0.0157
T2C0.0236
T3C0.0579
%
G90
G05
M72
T1
X2.8567Y-9.7375
X3.0523Y-10.4875
X3.0523Y-11.2375
X3.0523Y-11.9875
X3.0523Y-12.7375
X3.0855Y-11.086
X3.6148Y-9.7375
X3.6988Y-11.69
X3.8023Y-10.4875
X3.8023Y-11.2375
X3.8023Y-11.9875
X3.8023Y-12.7375
X3.8415Y-11.0236
X3.862Y-10.19
X3.8803Y-10.94
X4.0886Y-11.2776
X4.1433Y-10.19
X4.3248Y-10.94
X4.3283Y-10.3071
X4.6665Y-11.69
X4.7398Y-9.7375
X4.9273Y-10.4875
X4.9273Y-12.7375
X5.021Y-10.9839
X5.021Y-11.2375
X5.2085Y-11.9875
X5.4898Y-9.7375
X5.8648Y-10.4875
X5.8648Y-12.7375
X6.0523Y-11.0205
X6.0523Y-11.2375
X6.2398Y-9.7375
X6.4273Y-11.9875
X6.6148Y-10.4875
X6.8023Y-11.2375
X6.8023Y-12.7375
X6.804Y-11.0488
X6.9898Y-9.7375
X7.1773Y-11.9875
X7.3648Y-10.4875
X7.5523Y-11.0811
X7.5523Y-11.2375
X7.7398Y-9.7375
X7.9273Y-11.9875
X8.1148Y-10.4875
X8.3023Y-11.1098
X8.3023Y-11.2375
X8.4898Y-9.7375
X8.6773Y-11.9875
X8.8648Y-10.4875
X9.0523Y-11.2375
X9.1825Y-11.4268
X9.2398Y-9.7375
X9.4273Y-11.9875
X9.6148Y-10.4875
X9.8023Y-11.2375
X9.9596Y-11.4539
X9.9898Y-9.7375
X10.1773Y-11.975
X10.3648Y-10.4875
X10.5523Y-11.2375
X10.6752Y-11.4195
X10.7398Y-9.7375
X10.9273Y-11.975
X11.1148Y-10.4875
X11.3023Y-11.2375
X11.4898Y-9.7375
X11.6773Y-11.7183
X11.6773Y-11.975
X11.8648Y-10.4875
X12.0523Y-11.2375
X12.2398Y-9.7375
X12.4273Y-11.7303
X12.4273Y-11.975
X12.6148Y-10.4875
X12.8023Y-11.2375
X12.8087Y-10.2622
X12.9898Y-9.7375
X13.1773Y-11.7343
X13.1773Y-11.975
X13.1773Y-12.7375
X13.2988Y-11.7575
X13.3648Y-10.4875
X13.5523Y-11.2375
X14.1148Y-10.4875
X14.2085Y-11.7035
X14.2085Y-11.9875
X14.4898Y-12.7375
X14.906Y-11.018
X15.0523Y-10.4875
X15.2398Y-11.9875
X15.2398Y-12.7375
X15.24Y-11.606
X15.24Y-11.7457
X15.9898Y-9.7375
X15.9898Y-10.4875
X15.9898Y-11.2375
X15.9898Y-11.9875
X15.9898Y-12.7375
X16.02Y-11.7276
X16.9273Y-9.7375
X16.9273Y-10.4875
X16.9273Y-11.2375
X16.9273Y-11.9875
X16.9567Y-11.7535
X17.6773Y-9.7375
X17.6773Y-10.4875
X17.6773Y-11.2375
X17.6773Y-11.9875
X17.7154Y-11.748
X18.4273Y-9.7375
X18.4273Y-10.4875
X18.4273Y-11.2375
X18.4273Y-11.9875
X18.4273Y-12.7375
X18.4862Y-12.1933
X19.0665Y-12.2988
X19.1773Y-9.7375
T3
X18.7875Y-11.3375
X18.8391Y-11.28
X19.0359Y-11.2603
X19.0375Y-11.2375
X13.35Y-9.8375
X13.4016Y-9.78
X13.5984Y-9.7603
X13.6Y-9.7375
X14.85Y-9.8375
X14.9016Y-9.78
X15.0984Y-9.7603
X15.1Y-9.7375
X16.9125Y-12.8375
X16.9641Y-12.78
X17.1609Y-12.7603
X17.1625Y-12.7375
X18.7875Y-12.0875
X18.8391Y-12.03
X19.0359Y-12.0103
X19.0375Y-11.9875
X11.85Y-12.8375
X11.9016Y-12.78
X12.0984Y-12.7603
X12.1Y-12.7375
X17.2875Y-12.8375
X17.3391Y-12.78
X17.5359Y-12.7603
X17.5375Y-12.7375
X8.1Y-12.8375
X8.1516Y-12.78
X8.3484Y-12.7603
X8.35Y-12.7375
X9.6Y-12.8375
X9.6516Y-12.78
X9.8484Y-12.7603
X9.85Y-12.7375
X13.725Y-9.8375
X13.7766Y-9.78
X13.9734Y-9.7603
X13.975Y-9.7375
X18.7375Y-12.4625
X18.7603Y-12.4641
X18.78Y-12.6609
X18.8375Y-12.7125
X18.7375Y-10.9625
X18.7603Y-10.9641
X18.78Y-11.1609
X18.8375Y-11.2125
X16.5375Y-12.8375
X16.5891Y-12.78
X16.7859Y-12.7603
X16.7875Y-12.7375
X18.7875Y-10.5875
X18.8391Y-10.53
X19.0359Y-10.5103
X19.0375Y-10.4875
X14.1Y-9.8375
X14.1516Y-9.78
X14.3484Y-9.7603
X14.35Y-9.7375
X14.475Y-9.8375
X14.5266Y-9.78
X14.7234Y-9.7603
X14.725Y-9.7375
X18.7875Y-12.8375
X18.8391Y-12.78
X19.0359Y-12.7603
X19.0375Y-12.7375
X10.35Y-12.8375
X10.4016Y-12.78
X10.5984Y-12.7603
X10.6Y-12.7375
X11.1Y-12.8375
X11.1516Y-12.78
X11.3484Y-12.7603
X11.35Y-12.7375
T2
X3.9087Y-9.4205G85X3.9087Y-9.4441
G05
X3.9087Y-9.5752G85X3.9087Y-9.6185
G05
X4.2488Y-9.4205G85X4.2488Y-9.4441
G05
X4.2488Y-9.5752G85X4.2488Y-9.6185
G05
T0
M30
