G04 #@! TF.GenerationSoftware,KiCad,Pcbnew,(5.0.0-rc2-dev-733-g23a9fcd91)*
G04 #@! TF.CreationDate,2018-09-05T17:39:11-04:00*
G04 #@! TF.ProjectId,comp1800,636F6D70313830302E6B696361645F70,rev?*
G04 #@! TF.SameCoordinates,Original*
G04 #@! TF.FileFunction,Soldermask,Bot*
G04 #@! TF.FilePolarity,Negative*
%FSLAX46Y46*%
G04 Gerber Fmt 4.6, Leading zero omitted, Abs format (unit mm)*
G04 Created by KiCad (PCBNEW (5.0.0-rc2-dev-733-g23a9fcd91)) date 09/05/18 17:39:11*
%MOMM*%
%LPD*%
G01*
G04 APERTURE LIST*
%ADD10C,2.650000*%
%ADD11C,2.650000*%
%ADD12C,4.387800*%
%ADD13C,2.150000*%
%ADD14C,2.000000*%
%ADD15R,2.000000X2.000000*%
%ADD16C,3.448000*%
%ADD17R,1.600000X1.600000*%
%ADD18C,2.082800*%
%ADD19R,2.750000X1.200000*%
%ADD20R,0.900000X1.800000*%
%ADD21O,1.900000X4.400000*%
G04 APERTURE END LIST*
D10*
X254932500Y-128560000D03*
D11*
X254912500Y-128850000D02*
X254952500Y-128270000D01*
D10*
X254952500Y-128270000D03*
X249257501Y-130080000D03*
D11*
X248602500Y-130810000D02*
X249912502Y-129350000D01*
D12*
X252412500Y-133350000D03*
D10*
X249912500Y-129350000D03*
D13*
X247332500Y-133350000D03*
X257492500Y-133350000D03*
X362267500Y-114300000D03*
X352107500Y-114300000D03*
D10*
X354687500Y-110300000D03*
D12*
X357187500Y-114300000D03*
D10*
X354032501Y-111030000D03*
D11*
X353377500Y-111760000D02*
X354687502Y-110300000D01*
D10*
X359727500Y-109220000D03*
X359707500Y-109510000D03*
D11*
X359687500Y-109800000D02*
X359727500Y-109220000D01*
D14*
X353377500Y-100330000D03*
X353377500Y-90170000D03*
X343217500Y-102870000D03*
X345757500Y-102870000D03*
X348297500Y-102870000D03*
X350837500Y-102870000D03*
X353377500Y-102870000D03*
X355917500Y-102870000D03*
X358457500Y-102870000D03*
X360997500Y-102870000D03*
X363537500Y-102870000D03*
X366077500Y-102870000D03*
X368617500Y-102870000D03*
X371157500Y-102870000D03*
X371157500Y-100330000D03*
X371157500Y-97790000D03*
X371157500Y-92710000D03*
X371157500Y-90170000D03*
X371157500Y-87630000D03*
X368617500Y-87630000D03*
X366077500Y-87630000D03*
X363537500Y-87630000D03*
X360997500Y-87630000D03*
X358457500Y-87630000D03*
X355917500Y-87630000D03*
X353377500Y-87630000D03*
X350837500Y-87630000D03*
X348297500Y-87630000D03*
X345757500Y-87630000D03*
D15*
X343217500Y-87630000D03*
D14*
X371157500Y-95250000D03*
D10*
X359707500Y-71410000D03*
D11*
X359687500Y-71700000D02*
X359727500Y-71120000D01*
D10*
X359727500Y-71120000D03*
X354032501Y-72930000D03*
D11*
X353377500Y-73660000D02*
X354687502Y-72200000D01*
D12*
X357187500Y-76200000D03*
D10*
X354687500Y-72200000D03*
D13*
X352107500Y-76200000D03*
X362267500Y-76200000D03*
D10*
X316845000Y-28547500D03*
D11*
X316825000Y-28837500D02*
X316865000Y-28257500D01*
D10*
X316865000Y-28257500D03*
X311170001Y-30067500D03*
D11*
X310515000Y-30797500D02*
X311825002Y-29337500D01*
D12*
X314325000Y-33337500D03*
D10*
X311825000Y-29337500D03*
D13*
X309245000Y-33337500D03*
X319405000Y-33337500D03*
D10*
X212070000Y-28547500D03*
D11*
X212050000Y-28837500D02*
X212090000Y-28257500D01*
D10*
X212090000Y-28257500D03*
X206395001Y-30067500D03*
D11*
X205740000Y-30797500D02*
X207050002Y-29337500D01*
D12*
X209550000Y-33337500D03*
D10*
X207050000Y-29337500D03*
D13*
X204470000Y-33337500D03*
X214630000Y-33337500D03*
D10*
X193020000Y-28547500D03*
D11*
X193000000Y-28837500D02*
X193040000Y-28257500D01*
D10*
X193040000Y-28257500D03*
X187345001Y-30067500D03*
D11*
X186690000Y-30797500D02*
X188000002Y-29337500D01*
D12*
X190500000Y-33337500D03*
D10*
X188000000Y-29337500D03*
D13*
X185420000Y-33337500D03*
X195580000Y-33337500D03*
D10*
X259695000Y-28547500D03*
D11*
X259675000Y-28837500D02*
X259715000Y-28257500D01*
D10*
X259715000Y-28257500D03*
X254020001Y-30067500D03*
D11*
X253365000Y-30797500D02*
X254675002Y-29337500D01*
D12*
X257175000Y-33337500D03*
D10*
X254675000Y-29337500D03*
D13*
X252095000Y-33337500D03*
X262255000Y-33337500D03*
X128905000Y-33337500D03*
X118745000Y-33337500D03*
D10*
X121325000Y-29337500D03*
D12*
X123825000Y-33337500D03*
D10*
X120670001Y-30067500D03*
D11*
X120015000Y-30797500D02*
X121325002Y-29337500D01*
D10*
X126365000Y-28257500D03*
X126345000Y-28547500D03*
D11*
X126325000Y-28837500D02*
X126365000Y-28257500D01*
D10*
X302557500Y-28547500D03*
D11*
X302537500Y-28837500D02*
X302577500Y-28257500D01*
D10*
X302577500Y-28257500D03*
X296882501Y-30067500D03*
D11*
X296227500Y-30797500D02*
X297537502Y-29337500D01*
D12*
X300037500Y-33337500D03*
D10*
X297537500Y-29337500D03*
D13*
X294957500Y-33337500D03*
X305117500Y-33337500D03*
D10*
X112057500Y-28547500D03*
D11*
X112037500Y-28837500D02*
X112077500Y-28257500D01*
D10*
X112077500Y-28257500D03*
X106382501Y-30067500D03*
D11*
X105727500Y-30797500D02*
X107037502Y-29337500D01*
D12*
X109537500Y-33337500D03*
D10*
X107037500Y-29337500D03*
D13*
X104457500Y-33337500D03*
X114617500Y-33337500D03*
D10*
X254932500Y-28547500D03*
D11*
X254912500Y-28837500D02*
X254952500Y-28257500D01*
D10*
X254952500Y-28257500D03*
X249257501Y-30067500D03*
D11*
X248602500Y-30797500D02*
X249912502Y-29337500D01*
D12*
X252412500Y-33337500D03*
D10*
X249912500Y-29337500D03*
D13*
X247332500Y-33337500D03*
X257492500Y-33337500D03*
D10*
X145395000Y-28547500D03*
D11*
X145375000Y-28837500D02*
X145415000Y-28257500D01*
D10*
X145415000Y-28257500D03*
X139720001Y-30067500D03*
D11*
X139065000Y-30797500D02*
X140375002Y-29337500D01*
D12*
X142875000Y-33337500D03*
D10*
X140375000Y-29337500D03*
D13*
X137795000Y-33337500D03*
X147955000Y-33337500D03*
X300355000Y-33337500D03*
X290195000Y-33337500D03*
D10*
X292775000Y-29337500D03*
D12*
X295275000Y-33337500D03*
D10*
X292120001Y-30067500D03*
D11*
X291465000Y-30797500D02*
X292775002Y-29337500D01*
D10*
X297815000Y-28257500D03*
X297795000Y-28547500D03*
D11*
X297775000Y-28837500D02*
X297815000Y-28257500D01*
D10*
X173970000Y-28547500D03*
D11*
X173950000Y-28837500D02*
X173990000Y-28257500D01*
D10*
X173990000Y-28257500D03*
X168295001Y-30067500D03*
D11*
X167640000Y-30797500D02*
X168950002Y-29337500D01*
D12*
X171450000Y-33337500D03*
D10*
X168950000Y-29337500D03*
D13*
X166370000Y-33337500D03*
X176530000Y-33337500D03*
D10*
X278745000Y-28547500D03*
D11*
X278725000Y-28837500D02*
X278765000Y-28257500D01*
D10*
X278765000Y-28257500D03*
X273070001Y-30067500D03*
D11*
X272415000Y-30797500D02*
X273725002Y-29337500D01*
D12*
X276225000Y-33337500D03*
D10*
X273725000Y-29337500D03*
D13*
X271145000Y-33337500D03*
X281305000Y-33337500D03*
X109855000Y-33337500D03*
X99695000Y-33337500D03*
D10*
X102275000Y-29337500D03*
D12*
X104775000Y-33337500D03*
D10*
X101620001Y-30067500D03*
D11*
X100965000Y-30797500D02*
X102275002Y-29337500D01*
D10*
X107315000Y-28257500D03*
X107295000Y-28547500D03*
D11*
X107275000Y-28837500D02*
X107315000Y-28257500D01*
D10*
X88245000Y-28547500D03*
D11*
X88225000Y-28837500D02*
X88265000Y-28257500D01*
D10*
X88265000Y-28257500D03*
X82570001Y-30067500D03*
D11*
X81915000Y-30797500D02*
X83225002Y-29337500D01*
D12*
X85725000Y-33337500D03*
D10*
X83225000Y-29337500D03*
D13*
X80645000Y-33337500D03*
X90805000Y-33337500D03*
X238442500Y-33337500D03*
X228282500Y-33337500D03*
D10*
X230862500Y-29337500D03*
D12*
X233362500Y-33337500D03*
D10*
X230207501Y-30067500D03*
D11*
X229552500Y-30797500D02*
X230862502Y-29337500D01*
D10*
X235902500Y-28257500D03*
X235882500Y-28547500D03*
D11*
X235862500Y-28837500D02*
X235902500Y-28257500D01*
D10*
X93007500Y-28547500D03*
D11*
X92987500Y-28837500D02*
X93027500Y-28257500D01*
D10*
X93027500Y-28257500D03*
X87332501Y-30067500D03*
D11*
X86677500Y-30797500D02*
X87987502Y-29337500D01*
D12*
X90487500Y-33337500D03*
D10*
X87987500Y-29337500D03*
D13*
X85407500Y-33337500D03*
X95567500Y-33337500D03*
X233680000Y-33337500D03*
X223520000Y-33337500D03*
D10*
X226100000Y-29337500D03*
D12*
X228600000Y-33337500D03*
D10*
X225445001Y-30067500D03*
D11*
X224790000Y-30797500D02*
X226100002Y-29337500D01*
D10*
X231140000Y-28257500D03*
X231120000Y-28547500D03*
D11*
X231100000Y-28837500D02*
X231140000Y-28257500D01*
D13*
X133667500Y-33337500D03*
X123507500Y-33337500D03*
D10*
X126087500Y-29337500D03*
D12*
X128587500Y-33337500D03*
D10*
X125432501Y-30067500D03*
D11*
X124777500Y-30797500D02*
X126087502Y-29337500D01*
D10*
X131127500Y-28257500D03*
X131107500Y-28547500D03*
D11*
X131087500Y-28837500D02*
X131127500Y-28257500D01*
D13*
X157480000Y-33337500D03*
X147320000Y-33337500D03*
D10*
X149900000Y-29337500D03*
D12*
X152400000Y-33337500D03*
D10*
X149245001Y-30067500D03*
D11*
X148590000Y-30797500D02*
X149900002Y-29337500D01*
D10*
X154940000Y-28257500D03*
X154920000Y-28547500D03*
D11*
X154900000Y-28837500D02*
X154940000Y-28257500D01*
D10*
X283507500Y-28547500D03*
D11*
X283487500Y-28837500D02*
X283527500Y-28257500D01*
D10*
X283527500Y-28257500D03*
X277832501Y-30067500D03*
D11*
X277177500Y-30797500D02*
X278487502Y-29337500D01*
D12*
X280987500Y-33337500D03*
D10*
X278487500Y-29337500D03*
D13*
X275907500Y-33337500D03*
X286067500Y-33337500D03*
X90805000Y-38100000D03*
X80645000Y-38100000D03*
D10*
X83225000Y-34100000D03*
D12*
X85725000Y-38100000D03*
D10*
X82570001Y-34830000D03*
D11*
X81915000Y-35560000D02*
X83225002Y-34100000D01*
D10*
X88265000Y-33020000D03*
X88245000Y-33310000D03*
D11*
X88225000Y-33600000D02*
X88265000Y-33020000D01*
D10*
X107295000Y-33310000D03*
D11*
X107275000Y-33600000D02*
X107315000Y-33020000D01*
D10*
X107315000Y-33020000D03*
X101620001Y-34830000D03*
D11*
X100965000Y-35560000D02*
X102275002Y-34100000D01*
D12*
X104775000Y-38100000D03*
D10*
X102275000Y-34100000D03*
D13*
X99695000Y-38100000D03*
X109855000Y-38100000D03*
D10*
X126345000Y-33310000D03*
D11*
X126325000Y-33600000D02*
X126365000Y-33020000D01*
D10*
X126365000Y-33020000D03*
X120670001Y-34830000D03*
D11*
X120015000Y-35560000D02*
X121325002Y-34100000D01*
D12*
X123825000Y-38100000D03*
D10*
X121325000Y-34100000D03*
D13*
X118745000Y-38100000D03*
X128905000Y-38100000D03*
X147955000Y-38100000D03*
X137795000Y-38100000D03*
D10*
X140375000Y-34100000D03*
D12*
X142875000Y-38100000D03*
D10*
X139720001Y-34830000D03*
D11*
X139065000Y-35560000D02*
X140375002Y-34100000D01*
D10*
X145415000Y-33020000D03*
X145395000Y-33310000D03*
D11*
X145375000Y-33600000D02*
X145415000Y-33020000D01*
D10*
X154920000Y-33310000D03*
D11*
X154900000Y-33600000D02*
X154940000Y-33020000D01*
D10*
X154940000Y-33020000D03*
X149245001Y-34830000D03*
D11*
X148590000Y-35560000D02*
X149900002Y-34100000D01*
D12*
X152400000Y-38100000D03*
D10*
X149900000Y-34100000D03*
D13*
X147320000Y-38100000D03*
X157480000Y-38100000D03*
X343217500Y-38100000D03*
X333057500Y-38100000D03*
D10*
X335637500Y-34100000D03*
D12*
X338137500Y-38100000D03*
D10*
X334982501Y-34830000D03*
D11*
X334327500Y-35560000D02*
X335637502Y-34100000D01*
D10*
X340677500Y-33020000D03*
X340657500Y-33310000D03*
D11*
X340637500Y-33600000D02*
X340677500Y-33020000D01*
D10*
X378757500Y-33310000D03*
D11*
X378737500Y-33600000D02*
X378777500Y-33020000D01*
D10*
X378777500Y-33020000D03*
X373082501Y-34830000D03*
D11*
X372427500Y-35560000D02*
X373737502Y-34100000D01*
D12*
X376237500Y-38100000D03*
D10*
X373737500Y-34100000D03*
D13*
X371157500Y-38100000D03*
X381317500Y-38100000D03*
D10*
X359707500Y-33310000D03*
D11*
X359687500Y-33600000D02*
X359727500Y-33020000D01*
D10*
X359727500Y-33020000D03*
X354032501Y-34830000D03*
D11*
X353377500Y-35560000D02*
X354687502Y-34100000D01*
D12*
X357187500Y-38100000D03*
D10*
X354687500Y-34100000D03*
D13*
X352107500Y-38100000D03*
X362267500Y-38100000D03*
X286067500Y-38100000D03*
X275907500Y-38100000D03*
D10*
X278487500Y-34100000D03*
D12*
X280987500Y-38100000D03*
D10*
X277832501Y-34830000D03*
D11*
X277177500Y-35560000D02*
X278487502Y-34100000D01*
D10*
X283527500Y-33020000D03*
X283507500Y-33310000D03*
D11*
X283487500Y-33600000D02*
X283527500Y-33020000D01*
D10*
X297795000Y-33310000D03*
D11*
X297775000Y-33600000D02*
X297815000Y-33020000D01*
D10*
X297815000Y-33020000D03*
X292120001Y-34830000D03*
D11*
X291465000Y-35560000D02*
X292775002Y-34100000D01*
D12*
X295275000Y-38100000D03*
D10*
X292775000Y-34100000D03*
D13*
X290195000Y-38100000D03*
X300355000Y-38100000D03*
D10*
X131107500Y-33310000D03*
D11*
X131087500Y-33600000D02*
X131127500Y-33020000D01*
D10*
X131127500Y-33020000D03*
X125432501Y-34830000D03*
D11*
X124777500Y-35560000D02*
X126087502Y-34100000D01*
D12*
X128587500Y-38100000D03*
D10*
X126087500Y-34100000D03*
D13*
X123507500Y-38100000D03*
X133667500Y-38100000D03*
X114617500Y-38100000D03*
X104457500Y-38100000D03*
D10*
X107037500Y-34100000D03*
D12*
X109537500Y-38100000D03*
D10*
X106382501Y-34830000D03*
D11*
X105727500Y-35560000D02*
X107037502Y-34100000D01*
D10*
X112077500Y-33020000D03*
X112057500Y-33310000D03*
D11*
X112037500Y-33600000D02*
X112077500Y-33020000D01*
D13*
X319405000Y-38100000D03*
X309245000Y-38100000D03*
D10*
X311825000Y-34100000D03*
D12*
X314325000Y-38100000D03*
D10*
X311170001Y-34830000D03*
D11*
X310515000Y-35560000D02*
X311825002Y-34100000D01*
D10*
X316865000Y-33020000D03*
X316845000Y-33310000D03*
D11*
X316825000Y-33600000D02*
X316865000Y-33020000D01*
D13*
X305117500Y-38100000D03*
X294957500Y-38100000D03*
D10*
X297537500Y-34100000D03*
D12*
X300037500Y-38100000D03*
D10*
X296882501Y-34830000D03*
D11*
X296227500Y-35560000D02*
X297537502Y-34100000D01*
D10*
X302577500Y-33020000D03*
X302557500Y-33310000D03*
D11*
X302537500Y-33600000D02*
X302577500Y-33020000D01*
D10*
X231120000Y-33310000D03*
D11*
X231100000Y-33600000D02*
X231140000Y-33020000D01*
D10*
X231140000Y-33020000D03*
X225445001Y-34830000D03*
D11*
X224790000Y-35560000D02*
X226100002Y-34100000D01*
D12*
X228600000Y-38100000D03*
D10*
X226100000Y-34100000D03*
D13*
X223520000Y-38100000D03*
X233680000Y-38100000D03*
D10*
X235882500Y-33310000D03*
D11*
X235862500Y-33600000D02*
X235902500Y-33020000D01*
D10*
X235902500Y-33020000D03*
X230207501Y-34830000D03*
D11*
X229552500Y-35560000D02*
X230862502Y-34100000D01*
D12*
X233362500Y-38100000D03*
D10*
X230862500Y-34100000D03*
D13*
X228282500Y-38100000D03*
X238442500Y-38100000D03*
X95567500Y-38100000D03*
X85407500Y-38100000D03*
D10*
X87987500Y-34100000D03*
D12*
X90487500Y-38100000D03*
D10*
X87332501Y-34830000D03*
D11*
X86677500Y-35560000D02*
X87987502Y-34100000D01*
D10*
X93027500Y-33020000D03*
X93007500Y-33310000D03*
D11*
X92987500Y-33600000D02*
X93027500Y-33020000D01*
D13*
X262255000Y-38100000D03*
X252095000Y-38100000D03*
D10*
X254675000Y-34100000D03*
D12*
X257175000Y-38100000D03*
D10*
X254020001Y-34830000D03*
D11*
X253365000Y-35560000D02*
X254675002Y-34100000D01*
D10*
X259715000Y-33020000D03*
X259695000Y-33310000D03*
D11*
X259675000Y-33600000D02*
X259715000Y-33020000D01*
D10*
X73957500Y-33310000D03*
D11*
X73937500Y-33600000D02*
X73977500Y-33020000D01*
D10*
X73977500Y-33020000D03*
X68282501Y-34830000D03*
D11*
X67627500Y-35560000D02*
X68937502Y-34100000D01*
D12*
X71437500Y-38100000D03*
D10*
X68937500Y-34100000D03*
D13*
X66357500Y-38100000D03*
X76517500Y-38100000D03*
X195580000Y-38100000D03*
X185420000Y-38100000D03*
D10*
X188000000Y-34100000D03*
D12*
X190500000Y-38100000D03*
D10*
X187345001Y-34830000D03*
D11*
X186690000Y-35560000D02*
X188000002Y-34100000D01*
D10*
X193040000Y-33020000D03*
X193020000Y-33310000D03*
D11*
X193000000Y-33600000D02*
X193040000Y-33020000D01*
D13*
X281305000Y-38100000D03*
X271145000Y-38100000D03*
D10*
X273725000Y-34100000D03*
D12*
X276225000Y-38100000D03*
D10*
X273070001Y-34830000D03*
D11*
X272415000Y-35560000D02*
X273725002Y-34100000D01*
D10*
X278765000Y-33020000D03*
X278745000Y-33310000D03*
D11*
X278725000Y-33600000D02*
X278765000Y-33020000D01*
D13*
X176530000Y-38100000D03*
X166370000Y-38100000D03*
D10*
X168950000Y-34100000D03*
D12*
X171450000Y-38100000D03*
D10*
X168295001Y-34830000D03*
D11*
X167640000Y-35560000D02*
X168950002Y-34100000D01*
D10*
X173990000Y-33020000D03*
X173970000Y-33310000D03*
D11*
X173950000Y-33600000D02*
X173990000Y-33020000D01*
D13*
X214630000Y-38100000D03*
X204470000Y-38100000D03*
D10*
X207050000Y-34100000D03*
D12*
X209550000Y-38100000D03*
D10*
X206395001Y-34830000D03*
D11*
X205740000Y-35560000D02*
X207050002Y-34100000D01*
D10*
X212090000Y-33020000D03*
X212070000Y-33310000D03*
D11*
X212050000Y-33600000D02*
X212090000Y-33020000D01*
D13*
X257492500Y-38100000D03*
X247332500Y-38100000D03*
D10*
X249912500Y-34100000D03*
D12*
X252412500Y-38100000D03*
D10*
X249257501Y-34830000D03*
D11*
X248602500Y-35560000D02*
X249912502Y-34100000D01*
D10*
X254952500Y-33020000D03*
X254932500Y-33310000D03*
D11*
X254912500Y-33600000D02*
X254952500Y-33020000D01*
D10*
X50145000Y-33310000D03*
D11*
X50125000Y-33600000D02*
X50165000Y-33020000D01*
D10*
X50165000Y-33020000D03*
X44470001Y-34830000D03*
D11*
X43815000Y-35560000D02*
X45125002Y-34100000D01*
D12*
X47625000Y-38100000D03*
D10*
X45125000Y-34100000D03*
D13*
X42545000Y-38100000D03*
X52705000Y-38100000D03*
X181292500Y-133350000D03*
X171132500Y-133350000D03*
D10*
X173712500Y-129350000D03*
D12*
X176212500Y-133350000D03*
D10*
X173057501Y-130080000D03*
D11*
X172402500Y-130810000D02*
X173712502Y-129350000D01*
D10*
X178752500Y-128270000D03*
X178732500Y-128560000D03*
D11*
X178712500Y-128850000D02*
X178752500Y-128270000D01*
D10*
X254932500Y-90460000D03*
D11*
X254912500Y-90750000D02*
X254952500Y-90170000D01*
D10*
X254952500Y-90170000D03*
X249257501Y-91980000D03*
D11*
X248602500Y-92710000D02*
X249912502Y-91250000D01*
D12*
X252412500Y-95250000D03*
D10*
X249912500Y-91250000D03*
D13*
X247332500Y-95250000D03*
X257492500Y-95250000D03*
D10*
X83482500Y-90460000D03*
D11*
X83462500Y-90750000D02*
X83502500Y-90170000D01*
D10*
X83502500Y-90170000D03*
X77807501Y-91980000D03*
D11*
X77152500Y-92710000D02*
X78462502Y-91250000D01*
D12*
X80962500Y-95250000D03*
D10*
X78462500Y-91250000D03*
D13*
X75882500Y-95250000D03*
X86042500Y-95250000D03*
X171767500Y-114300000D03*
X161607500Y-114300000D03*
D10*
X164187500Y-110300000D03*
D12*
X166687500Y-114300000D03*
D10*
X163532501Y-111030000D03*
D11*
X162877500Y-111760000D02*
X164187502Y-110300000D01*
D10*
X169227500Y-109220000D03*
X169207500Y-109510000D03*
D11*
X169187500Y-109800000D02*
X169227500Y-109220000D01*
D10*
X131107500Y-109510000D03*
D11*
X131087500Y-109800000D02*
X131127500Y-109220000D01*
D10*
X131127500Y-109220000D03*
X125432501Y-111030000D03*
D11*
X124777500Y-111760000D02*
X126087502Y-110300000D01*
D12*
X128587500Y-114300000D03*
D10*
X126087500Y-110300000D03*
D13*
X123507500Y-114300000D03*
X133667500Y-114300000D03*
X124142500Y-95250000D03*
X113982500Y-95250000D03*
D10*
X116562500Y-91250000D03*
D12*
X119062500Y-95250000D03*
D10*
X115907501Y-91980000D03*
D11*
X115252500Y-92710000D02*
X116562502Y-91250000D01*
D10*
X121602500Y-90170000D03*
X121582500Y-90460000D03*
D11*
X121562500Y-90750000D02*
X121602500Y-90170000D01*
D13*
X119380000Y-76200000D03*
X109220000Y-76200000D03*
D10*
X111800000Y-72200000D03*
D12*
X114300000Y-76200000D03*
D10*
X111145001Y-72930000D03*
D11*
X110490000Y-73660000D02*
X111800002Y-72200000D01*
D10*
X116840000Y-71120000D03*
X116820000Y-71410000D03*
D11*
X116800000Y-71700000D02*
X116840000Y-71120000D01*
D13*
X143192500Y-95250000D03*
X133032500Y-95250000D03*
D10*
X135612500Y-91250000D03*
D12*
X138112500Y-95250000D03*
D10*
X134957501Y-91980000D03*
D11*
X134302500Y-92710000D02*
X135612502Y-91250000D01*
D10*
X140652500Y-90170000D03*
X140632500Y-90460000D03*
D11*
X140612500Y-90750000D02*
X140652500Y-90170000D01*
D13*
X162242500Y-95250000D03*
X152082500Y-95250000D03*
D10*
X154662500Y-91250000D03*
D12*
X157162500Y-95250000D03*
D10*
X154007501Y-91980000D03*
D11*
X153352500Y-92710000D02*
X154662502Y-91250000D01*
D10*
X159702500Y-90170000D03*
X159682500Y-90460000D03*
D11*
X159662500Y-90750000D02*
X159702500Y-90170000D01*
D13*
X181292500Y-95250000D03*
X171132500Y-95250000D03*
D10*
X173712500Y-91250000D03*
D12*
X176212500Y-95250000D03*
D10*
X173057501Y-91980000D03*
D11*
X172402500Y-92710000D02*
X173712502Y-91250000D01*
D10*
X178752500Y-90170000D03*
X178732500Y-90460000D03*
D11*
X178712500Y-90750000D02*
X178752500Y-90170000D01*
D13*
X214630000Y-76200000D03*
X204470000Y-76200000D03*
D10*
X207050000Y-72200000D03*
D12*
X209550000Y-76200000D03*
D10*
X206395001Y-72930000D03*
D11*
X205740000Y-73660000D02*
X207050002Y-72200000D01*
D10*
X212090000Y-71120000D03*
X212070000Y-71410000D03*
D11*
X212050000Y-71700000D02*
X212090000Y-71120000D01*
D10*
X197782500Y-90460000D03*
D11*
X197762500Y-90750000D02*
X197802500Y-90170000D01*
D10*
X197802500Y-90170000D03*
X192107501Y-91980000D03*
D11*
X191452500Y-92710000D02*
X192762502Y-91250000D01*
D12*
X195262500Y-95250000D03*
D10*
X192762500Y-91250000D03*
D13*
X190182500Y-95250000D03*
X200342500Y-95250000D03*
D10*
X245407500Y-109510000D03*
D11*
X245387500Y-109800000D02*
X245427500Y-109220000D01*
D10*
X245427500Y-109220000D03*
X239732501Y-111030000D03*
D11*
X239077500Y-111760000D02*
X240387502Y-110300000D01*
D12*
X242887500Y-114300000D03*
D10*
X240387500Y-110300000D03*
D13*
X237807500Y-114300000D03*
X247967500Y-114300000D03*
X228917500Y-114300000D03*
X218757500Y-114300000D03*
D10*
X221337500Y-110300000D03*
D12*
X223837500Y-114300000D03*
D10*
X220682501Y-111030000D03*
D11*
X220027500Y-111760000D02*
X221337502Y-110300000D01*
D10*
X226377500Y-109220000D03*
X226357500Y-109510000D03*
D11*
X226337500Y-109800000D02*
X226377500Y-109220000D01*
D10*
X240645000Y-52360000D03*
D11*
X240625000Y-52650000D02*
X240665000Y-52070000D01*
D10*
X240665000Y-52070000D03*
X234970001Y-53880000D03*
D11*
X234315000Y-54610000D02*
X235625002Y-53150000D01*
D12*
X238125000Y-57150000D03*
D10*
X235625000Y-53150000D03*
D13*
X233045000Y-57150000D03*
X243205000Y-57150000D03*
D10*
X69195000Y-52360000D03*
D11*
X69175000Y-52650000D02*
X69215000Y-52070000D01*
D10*
X69215000Y-52070000D03*
X63520001Y-53880000D03*
D11*
X62865000Y-54610000D02*
X64175002Y-53150000D01*
D12*
X66675000Y-57150000D03*
D10*
X64175000Y-53150000D03*
D13*
X61595000Y-57150000D03*
X71755000Y-57150000D03*
X219392500Y-95250000D03*
X209232500Y-95250000D03*
D10*
X211812500Y-91250000D03*
D12*
X214312500Y-95250000D03*
D10*
X211157501Y-91980000D03*
D11*
X210502500Y-92710000D02*
X211812502Y-91250000D01*
D10*
X216852500Y-90170000D03*
X216832500Y-90460000D03*
D11*
X216812500Y-90750000D02*
X216852500Y-90170000D01*
D13*
X90805000Y-57150000D03*
X80645000Y-57150000D03*
D10*
X83225000Y-53150000D03*
D12*
X85725000Y-57150000D03*
D10*
X82570001Y-53880000D03*
D11*
X81915000Y-54610000D02*
X83225002Y-53150000D01*
D10*
X88265000Y-52070000D03*
X88245000Y-52360000D03*
D11*
X88225000Y-52650000D02*
X88265000Y-52070000D01*
D10*
X107295000Y-52360000D03*
D11*
X107275000Y-52650000D02*
X107315000Y-52070000D01*
D10*
X107315000Y-52070000D03*
X101620001Y-53880000D03*
D11*
X100965000Y-54610000D02*
X102275002Y-53150000D01*
D12*
X104775000Y-57150000D03*
D10*
X102275000Y-53150000D03*
D13*
X99695000Y-57150000D03*
X109855000Y-57150000D03*
X128905000Y-57150000D03*
X118745000Y-57150000D03*
D10*
X121325000Y-53150000D03*
D12*
X123825000Y-57150000D03*
D10*
X120670001Y-53880000D03*
D11*
X120015000Y-54610000D02*
X121325002Y-53150000D01*
D10*
X126365000Y-52070000D03*
X126345000Y-52360000D03*
D11*
X126325000Y-52650000D02*
X126365000Y-52070000D01*
D13*
X147955000Y-57150000D03*
X137795000Y-57150000D03*
D10*
X140375000Y-53150000D03*
D12*
X142875000Y-57150000D03*
D10*
X139720001Y-53880000D03*
D11*
X139065000Y-54610000D02*
X140375002Y-53150000D01*
D10*
X145415000Y-52070000D03*
X145395000Y-52360000D03*
D11*
X145375000Y-52650000D02*
X145415000Y-52070000D01*
D13*
X167005000Y-57150000D03*
X156845000Y-57150000D03*
D10*
X159425000Y-53150000D03*
D12*
X161925000Y-57150000D03*
D10*
X158770001Y-53880000D03*
D11*
X158115000Y-54610000D02*
X159425002Y-53150000D01*
D10*
X164465000Y-52070000D03*
X164445000Y-52360000D03*
D11*
X164425000Y-52650000D02*
X164465000Y-52070000D01*
D13*
X186055000Y-57150000D03*
X175895000Y-57150000D03*
D10*
X178475000Y-53150000D03*
D12*
X180975000Y-57150000D03*
D10*
X177820001Y-53880000D03*
D11*
X177165000Y-54610000D02*
X178475002Y-53150000D01*
D10*
X183515000Y-52070000D03*
X183495000Y-52360000D03*
D11*
X183475000Y-52650000D02*
X183515000Y-52070000D01*
D10*
X202545000Y-52360000D03*
D11*
X202525000Y-52650000D02*
X202565000Y-52070000D01*
D10*
X202565000Y-52070000D03*
X196870001Y-53880000D03*
D11*
X196215000Y-54610000D02*
X197525002Y-53150000D01*
D12*
X200025000Y-57150000D03*
D10*
X197525000Y-53150000D03*
D13*
X194945000Y-57150000D03*
X205105000Y-57150000D03*
X224155000Y-57150000D03*
X213995000Y-57150000D03*
D10*
X216575000Y-53150000D03*
D12*
X219075000Y-57150000D03*
D10*
X215920001Y-53880000D03*
D11*
X215265000Y-54610000D02*
X216575002Y-53150000D01*
D10*
X221615000Y-52070000D03*
X221595000Y-52360000D03*
D11*
X221575000Y-52650000D02*
X221615000Y-52070000D01*
D13*
X271780000Y-76200000D03*
X261620000Y-76200000D03*
D10*
X264200000Y-72200000D03*
D12*
X266700000Y-76200000D03*
D10*
X263545001Y-72930000D03*
D11*
X262890000Y-73660000D02*
X264200002Y-72200000D01*
D10*
X269240000Y-71120000D03*
X269220000Y-71410000D03*
D11*
X269200000Y-71700000D02*
X269240000Y-71120000D01*
D10*
X288270000Y-71410000D03*
D11*
X288250000Y-71700000D02*
X288290000Y-71120000D01*
D10*
X288290000Y-71120000D03*
X282595001Y-72930000D03*
D11*
X281940000Y-73660000D02*
X283250002Y-72200000D01*
D12*
X285750000Y-76200000D03*
D10*
X283250000Y-72200000D03*
D13*
X280670000Y-76200000D03*
X290830000Y-76200000D03*
X276542500Y-95250000D03*
X266382500Y-95250000D03*
D10*
X268962500Y-91250000D03*
D12*
X271462500Y-95250000D03*
D10*
X268307501Y-91980000D03*
D11*
X267652500Y-92710000D02*
X268962502Y-91250000D01*
D10*
X274002500Y-90170000D03*
X273982500Y-90460000D03*
D11*
X273962500Y-90750000D02*
X274002500Y-90170000D01*
D10*
X378757500Y-52360000D03*
D11*
X378737500Y-52650000D02*
X378777500Y-52070000D01*
D10*
X378777500Y-52070000D03*
X373082501Y-53880000D03*
D11*
X372427500Y-54610000D02*
X373737502Y-53150000D01*
D12*
X376237500Y-57150000D03*
D10*
X373737500Y-53150000D03*
D13*
X371157500Y-57150000D03*
X381317500Y-57150000D03*
X262255000Y-57150000D03*
X252095000Y-57150000D03*
D10*
X254675000Y-53150000D03*
D12*
X257175000Y-57150000D03*
D10*
X254020001Y-53880000D03*
D11*
X253365000Y-54610000D02*
X254675002Y-53150000D01*
D10*
X259715000Y-52070000D03*
X259695000Y-52360000D03*
D11*
X259675000Y-52650000D02*
X259715000Y-52070000D01*
D13*
X381317500Y-133350000D03*
X371157500Y-133350000D03*
D10*
X373737500Y-129350000D03*
D12*
X376237500Y-133350000D03*
D10*
X373082501Y-130080000D03*
D11*
X372427500Y-130810000D02*
X373737502Y-129350000D01*
D10*
X378777500Y-128270000D03*
X378757500Y-128560000D03*
D11*
X378737500Y-128850000D02*
X378777500Y-128270000D01*
D10*
X264457500Y-109510000D03*
D11*
X264437500Y-109800000D02*
X264477500Y-109220000D01*
D10*
X264477500Y-109220000D03*
X258782501Y-111030000D03*
D11*
X258127500Y-111760000D02*
X259437502Y-110300000D01*
D12*
X261937500Y-114300000D03*
D10*
X259437500Y-110300000D03*
D13*
X256857500Y-114300000D03*
X267017500Y-114300000D03*
D10*
X359707500Y-52360000D03*
D11*
X359687500Y-52650000D02*
X359727500Y-52070000D01*
D10*
X359727500Y-52070000D03*
X354032501Y-53880000D03*
D11*
X353377500Y-54610000D02*
X354687502Y-53150000D01*
D12*
X357187500Y-57150000D03*
D10*
X354687500Y-53150000D03*
D13*
X352107500Y-57150000D03*
X362267500Y-57150000D03*
D10*
X290532500Y-109510000D03*
D11*
X290512500Y-109800000D02*
X290552500Y-109220000D01*
D10*
X290552500Y-109220000D03*
X284857501Y-111030000D03*
D11*
X284202500Y-111760000D02*
X285512502Y-110300000D01*
D12*
X288012500Y-114300000D03*
D10*
X285512500Y-110300000D03*
D13*
X282932500Y-114300000D03*
X293092500Y-114300000D03*
D10*
X340657500Y-128560000D03*
D11*
X340637500Y-128850000D02*
X340677500Y-128270000D01*
D10*
X340677500Y-128270000D03*
X334982501Y-130080000D03*
D11*
X334327500Y-130810000D02*
X335637502Y-129350000D01*
D12*
X338137500Y-133350000D03*
D10*
X335637500Y-129350000D03*
D13*
X333057500Y-133350000D03*
X343217500Y-133350000D03*
X362267500Y-133350000D03*
X352107500Y-133350000D03*
D10*
X354687500Y-129350000D03*
D12*
X357187500Y-133350000D03*
D10*
X354032501Y-130080000D03*
D11*
X353377500Y-130810000D02*
X354687502Y-129350000D01*
D10*
X359727500Y-128270000D03*
X359707500Y-128560000D03*
D11*
X359687500Y-128850000D02*
X359727500Y-128270000D01*
D10*
X340657500Y-71410000D03*
D11*
X340637500Y-71700000D02*
X340677500Y-71120000D01*
D10*
X340677500Y-71120000D03*
X334982501Y-72930000D03*
D11*
X334327500Y-73660000D02*
X335637502Y-72200000D01*
D12*
X338137500Y-76200000D03*
D10*
X335637500Y-72200000D03*
D13*
X333057500Y-76200000D03*
X343217500Y-76200000D03*
D10*
X378757500Y-71410000D03*
D11*
X378737500Y-71700000D02*
X378777500Y-71120000D01*
D10*
X378777500Y-71120000D03*
X373082501Y-72930000D03*
D11*
X372427500Y-73660000D02*
X373737502Y-72200000D01*
D12*
X376237500Y-76200000D03*
D10*
X373737500Y-72200000D03*
D13*
X371157500Y-76200000D03*
X381317500Y-76200000D03*
D10*
X278745000Y-52360000D03*
D11*
X278725000Y-52650000D02*
X278765000Y-52070000D01*
D10*
X278765000Y-52070000D03*
X273070001Y-53880000D03*
D11*
X272415000Y-54610000D02*
X273725002Y-53150000D01*
D12*
X276225000Y-57150000D03*
D10*
X273725000Y-53150000D03*
D13*
X271145000Y-57150000D03*
X281305000Y-57150000D03*
X114617500Y-133350000D03*
X104457500Y-133350000D03*
D10*
X107037500Y-129350000D03*
D12*
X109537500Y-133350000D03*
D10*
X106382501Y-130080000D03*
D11*
X105727500Y-130810000D02*
X107037502Y-129350000D01*
D10*
X112077500Y-128270000D03*
X112057500Y-128560000D03*
D11*
X112037500Y-128850000D02*
X112077500Y-128270000D01*
D10*
X102532500Y-128560000D03*
D11*
X102512500Y-128850000D02*
X102552500Y-128270000D01*
D10*
X102552500Y-128270000D03*
X96857501Y-130080000D03*
D11*
X96202500Y-130810000D02*
X97512502Y-129350000D01*
D12*
X100012500Y-133350000D03*
D10*
X97512500Y-129350000D03*
D13*
X94932500Y-133350000D03*
X105092500Y-133350000D03*
X316865000Y-133350000D03*
X306705000Y-133350000D03*
D10*
X309285000Y-129350000D03*
D12*
X311785000Y-133350000D03*
D10*
X308630001Y-130080000D03*
D11*
X307975000Y-130810000D02*
X309285002Y-129350000D01*
D10*
X314325000Y-128270000D03*
X314305000Y-128560000D03*
D11*
X314285000Y-128850000D02*
X314325000Y-128270000D01*
D13*
X314642500Y-133350000D03*
X304482500Y-133350000D03*
D10*
X307062500Y-129350000D03*
D12*
X309562500Y-133350000D03*
D10*
X306407501Y-130080000D03*
D11*
X305752500Y-130810000D02*
X307062502Y-129350000D01*
D10*
X312102500Y-128270000D03*
X312082500Y-128560000D03*
D11*
X312062500Y-128850000D02*
X312102500Y-128270000D01*
D13*
X319405000Y-57150000D03*
X309245000Y-57150000D03*
D10*
X311825000Y-53150000D03*
D12*
X314325000Y-57150000D03*
D10*
X311170001Y-53880000D03*
D11*
X310515000Y-54610000D02*
X311825002Y-53150000D01*
D10*
X316865000Y-52070000D03*
X316845000Y-52360000D03*
D11*
X316825000Y-52650000D02*
X316865000Y-52070000D01*
D10*
X57170000Y-90460000D03*
D11*
X57150000Y-90750000D02*
X57190000Y-90170000D01*
D10*
X57190000Y-90170000D03*
X51495001Y-91980000D03*
D11*
X50840000Y-92710000D02*
X52150002Y-91250000D01*
D12*
X54650000Y-95250000D03*
D10*
X52150000Y-91250000D03*
D13*
X49570000Y-95250000D03*
X59730000Y-95250000D03*
X54967500Y-133350000D03*
X44807500Y-133350000D03*
D10*
X47387500Y-129350000D03*
D12*
X49887500Y-133350000D03*
D10*
X46732501Y-130080000D03*
D11*
X46077500Y-130810000D02*
X47387502Y-129350000D01*
D10*
X52427500Y-128270000D03*
X52407500Y-128560000D03*
D11*
X52387500Y-128850000D02*
X52427500Y-128270000D01*
D10*
X54907500Y-128560000D03*
D11*
X54887500Y-128850000D02*
X54927500Y-128270000D01*
D10*
X54927500Y-128270000D03*
X49232501Y-130080000D03*
D11*
X48577500Y-130810000D02*
X49887502Y-129350000D01*
D12*
X52387500Y-133350000D03*
D10*
X49887500Y-129350000D03*
D13*
X47307500Y-133350000D03*
X57467500Y-133350000D03*
X267017500Y-133350000D03*
X256857500Y-133350000D03*
D10*
X259437500Y-129350000D03*
D12*
X261937500Y-133350000D03*
D10*
X258782501Y-130080000D03*
D11*
X258127500Y-130810000D02*
X259437502Y-129350000D01*
D10*
X264477500Y-128270000D03*
X264457500Y-128560000D03*
D11*
X264437500Y-128850000D02*
X264477500Y-128270000D01*
D10*
X297795000Y-52360000D03*
D11*
X297775000Y-52650000D02*
X297815000Y-52070000D01*
D10*
X297815000Y-52070000D03*
X292120001Y-53880000D03*
D11*
X291465000Y-54610000D02*
X292775002Y-53150000D01*
D12*
X295275000Y-57150000D03*
D10*
X292775000Y-53150000D03*
D13*
X290195000Y-57150000D03*
X300355000Y-57150000D03*
D10*
X304820000Y-90460000D03*
D11*
X304800000Y-90750000D02*
X304840000Y-90170000D01*
D10*
X304840000Y-90170000D03*
X299145001Y-91980000D03*
D11*
X298490000Y-92710000D02*
X299800002Y-91250000D01*
D12*
X302300000Y-95250000D03*
D10*
X299800000Y-91250000D03*
D13*
X297220000Y-95250000D03*
X307380000Y-95250000D03*
D16*
X290362000Y-88265000D03*
X314238000Y-88265000D03*
D12*
X290362000Y-103505000D03*
X314238000Y-103505000D03*
D13*
X52705000Y-33337500D03*
X42545000Y-33337500D03*
D10*
X45125000Y-29337500D03*
D12*
X47625000Y-33337500D03*
D10*
X44470001Y-30067500D03*
D11*
X43815000Y-30797500D02*
X45125002Y-29337500D01*
D10*
X50165000Y-28257500D03*
X50145000Y-28547500D03*
D11*
X50125000Y-28837500D02*
X50165000Y-28257500D01*
D13*
X76517500Y-33337500D03*
X66357500Y-33337500D03*
D10*
X68937500Y-29337500D03*
D12*
X71437500Y-33337500D03*
D10*
X68282501Y-30067500D03*
D11*
X67627500Y-30797500D02*
X68937502Y-29337500D01*
D10*
X73977500Y-28257500D03*
X73957500Y-28547500D03*
D11*
X73937500Y-28837500D02*
X73977500Y-28257500D01*
D13*
X319405000Y-114300000D03*
X309245000Y-114300000D03*
D10*
X311825000Y-110300000D03*
D12*
X314325000Y-114300000D03*
D10*
X311170001Y-111030000D03*
D11*
X310515000Y-111760000D02*
X311825002Y-110300000D01*
D10*
X316865000Y-109220000D03*
X316845000Y-109510000D03*
D11*
X316825000Y-109800000D02*
X316865000Y-109220000D01*
D13*
X76517500Y-114300000D03*
X66357500Y-114300000D03*
D10*
X68937500Y-110300000D03*
D12*
X71437500Y-114300000D03*
D10*
X68282501Y-111030000D03*
D11*
X67627500Y-111760000D02*
X68937502Y-110300000D01*
D10*
X73977500Y-109220000D03*
X73957500Y-109510000D03*
D11*
X73937500Y-109800000D02*
X73977500Y-109220000D01*
D10*
X340657500Y-52360000D03*
D11*
X340637500Y-52650000D02*
X340677500Y-52070000D01*
D10*
X340677500Y-52070000D03*
X334982501Y-53880000D03*
D11*
X334327500Y-54610000D02*
X335637502Y-53150000D01*
D12*
X338137500Y-57150000D03*
D10*
X335637500Y-53150000D03*
D13*
X333057500Y-57150000D03*
X343217500Y-57150000D03*
X381317500Y-33337500D03*
X371157500Y-33337500D03*
D10*
X373737500Y-29337500D03*
D12*
X376237500Y-33337500D03*
D10*
X373082501Y-30067500D03*
D11*
X372427500Y-30797500D02*
X373737502Y-29337500D01*
D10*
X378777500Y-28257500D03*
X378757500Y-28547500D03*
D11*
X378737500Y-28837500D02*
X378777500Y-28257500D01*
D10*
X340657500Y-28547500D03*
D11*
X340637500Y-28837500D02*
X340677500Y-28257500D01*
D10*
X340677500Y-28257500D03*
X334982501Y-30067500D03*
D11*
X334327500Y-30797500D02*
X335637502Y-29337500D01*
D12*
X338137500Y-33337500D03*
D10*
X335637500Y-29337500D03*
D13*
X333057500Y-33337500D03*
X343217500Y-33337500D03*
X362267500Y-33337500D03*
X352107500Y-33337500D03*
D10*
X354687500Y-29337500D03*
D12*
X357187500Y-33337500D03*
D10*
X354032501Y-30067500D03*
D11*
X353377500Y-30797500D02*
X354687502Y-29337500D01*
D10*
X359727500Y-28257500D03*
X359707500Y-28547500D03*
D11*
X359687500Y-28837500D02*
X359727500Y-28257500D01*
D10*
X61932500Y-109510000D03*
D11*
X61912500Y-109800000D02*
X61952500Y-109220000D01*
D10*
X61952500Y-109220000D03*
X56257501Y-111030000D03*
D11*
X55602500Y-111760000D02*
X56912502Y-110300000D01*
D12*
X59412500Y-114300000D03*
D10*
X56912500Y-110300000D03*
D13*
X54332500Y-114300000D03*
X64492500Y-114300000D03*
D16*
X47474500Y-107315000D03*
X71350500Y-107315000D03*
D12*
X47474500Y-122555000D03*
X71350500Y-122555000D03*
D10*
X52407500Y-109510000D03*
D11*
X52387500Y-109800000D02*
X52427500Y-109220000D01*
D10*
X52427500Y-109220000D03*
X46732501Y-111030000D03*
D11*
X46077500Y-111760000D02*
X47387502Y-110300000D01*
D12*
X49887500Y-114300000D03*
D10*
X47387500Y-110300000D03*
D13*
X44807500Y-114300000D03*
X54967500Y-114300000D03*
D12*
X309475500Y-122555000D03*
X285599500Y-122555000D03*
D16*
X309475500Y-107315000D03*
X285599500Y-107315000D03*
D13*
X302617500Y-114300000D03*
X292457500Y-114300000D03*
D10*
X295037500Y-110300000D03*
D12*
X297537500Y-114300000D03*
D10*
X294382501Y-111030000D03*
D11*
X293727500Y-111760000D02*
X295037502Y-110300000D01*
D10*
X300077500Y-109220000D03*
X300057500Y-109510000D03*
D11*
X300037500Y-109800000D02*
X300077500Y-109220000D01*
D10*
X154920000Y-128560000D03*
D11*
X154900000Y-128850000D02*
X154940000Y-128270000D01*
D10*
X154940000Y-128270000D03*
X149245001Y-130080000D03*
D11*
X148590000Y-130810000D02*
X149900002Y-129350000D01*
D12*
X152400000Y-133350000D03*
D10*
X149900000Y-129350000D03*
D13*
X147320000Y-133350000D03*
X157480000Y-133350000D03*
D16*
X140462000Y-126365000D03*
X164338000Y-126365000D03*
D12*
X140462000Y-141605000D03*
X164338000Y-141605000D03*
D10*
X150157500Y-128560000D03*
D11*
X150137500Y-128850000D02*
X150177500Y-128270000D01*
D10*
X150177500Y-128270000D03*
X144482501Y-130080000D03*
D11*
X143827500Y-130810000D02*
X145137502Y-129350000D01*
D12*
X147637500Y-133350000D03*
D10*
X145137500Y-129350000D03*
D13*
X142557500Y-133350000D03*
X152717500Y-133350000D03*
D16*
X135699500Y-126365000D03*
X159575500Y-126365000D03*
D12*
X135699500Y-141605000D03*
X159575500Y-141605000D03*
D10*
X188257500Y-128560000D03*
D11*
X188237500Y-128850000D02*
X188277500Y-128270000D01*
D10*
X188277500Y-128270000D03*
X182582501Y-130080000D03*
D11*
X181927500Y-130810000D02*
X183237502Y-129350000D01*
D12*
X185737500Y-133350000D03*
D10*
X183237500Y-129350000D03*
D13*
X180657500Y-133350000D03*
X190817500Y-133350000D03*
D10*
X216832500Y-128560000D03*
D11*
X216812500Y-128850000D02*
X216852500Y-128270000D01*
D10*
X216852500Y-128270000D03*
X211157501Y-130080000D03*
D11*
X210502500Y-130810000D02*
X211812502Y-129350000D01*
D12*
X214312500Y-133350000D03*
D10*
X211812500Y-129350000D03*
D13*
X209232500Y-133350000D03*
X219392500Y-133350000D03*
D16*
X202374500Y-126365000D03*
X226250500Y-126365000D03*
D12*
X202374500Y-141605000D03*
X226250500Y-141605000D03*
X231013000Y-141605000D03*
X207137000Y-141605000D03*
D16*
X231013000Y-126365000D03*
X207137000Y-126365000D03*
D13*
X224155000Y-133350000D03*
X213995000Y-133350000D03*
D10*
X216575000Y-129350000D03*
D12*
X219075000Y-133350000D03*
D10*
X215920001Y-130080000D03*
D11*
X215265000Y-130810000D02*
X216575002Y-129350000D01*
D10*
X221615000Y-128270000D03*
X221595000Y-128560000D03*
D11*
X221575000Y-128850000D02*
X221615000Y-128270000D01*
D10*
X54907500Y-71410000D03*
D11*
X54887500Y-71700000D02*
X54927500Y-71120000D01*
D10*
X54927500Y-71120000D03*
X49232501Y-72930000D03*
D11*
X48577500Y-73660000D02*
X49887502Y-72200000D01*
D12*
X52387500Y-76200000D03*
D10*
X49887500Y-72200000D03*
D13*
X47307500Y-76200000D03*
X57467500Y-76200000D03*
D10*
X50145000Y-52360000D03*
D11*
X50125000Y-52650000D02*
X50165000Y-52070000D01*
D10*
X50165000Y-52070000D03*
X44470001Y-53880000D03*
D11*
X43815000Y-54610000D02*
X45125002Y-53150000D01*
D12*
X47625000Y-57150000D03*
D10*
X45125000Y-53150000D03*
D13*
X42545000Y-57150000D03*
X52705000Y-57150000D03*
D10*
X88245000Y-128560000D03*
D11*
X88225000Y-128850000D02*
X88265000Y-128270000D01*
D10*
X88265000Y-128270000D03*
X82570001Y-130080000D03*
D11*
X81915000Y-130810000D02*
X83225002Y-129350000D01*
D12*
X85725000Y-133350000D03*
D10*
X83225000Y-129350000D03*
D13*
X80645000Y-133350000D03*
X90805000Y-133350000D03*
D10*
X78720000Y-128560000D03*
D11*
X78700000Y-128850000D02*
X78740000Y-128270000D01*
D10*
X78740000Y-128270000D03*
X73045001Y-130080000D03*
D11*
X72390000Y-130810000D02*
X73700002Y-129350000D01*
D12*
X76200000Y-133350000D03*
D10*
X73700000Y-129350000D03*
D13*
X71120000Y-133350000D03*
X81280000Y-133350000D03*
D10*
X278745000Y-128560000D03*
D11*
X278725000Y-128850000D02*
X278765000Y-128270000D01*
D10*
X278765000Y-128270000D03*
X273070001Y-130080000D03*
D11*
X272415000Y-130810000D02*
X273725002Y-129350000D01*
D12*
X276225000Y-133350000D03*
D10*
X273725000Y-129350000D03*
D13*
X271145000Y-133350000D03*
X281305000Y-133350000D03*
X290830000Y-133350000D03*
X280670000Y-133350000D03*
D10*
X283250000Y-129350000D03*
D12*
X285750000Y-133350000D03*
D10*
X282595001Y-130080000D03*
D11*
X281940000Y-130810000D02*
X283250002Y-129350000D01*
D10*
X288290000Y-128270000D03*
X288270000Y-128560000D03*
D11*
X288250000Y-128850000D02*
X288290000Y-128270000D01*
D13*
X238442500Y-95250000D03*
X228282500Y-95250000D03*
D10*
X230862500Y-91250000D03*
D12*
X233362500Y-95250000D03*
D10*
X230207501Y-91980000D03*
D11*
X229552500Y-92710000D02*
X230862502Y-91250000D01*
D10*
X235902500Y-90170000D03*
X235882500Y-90460000D03*
D11*
X235862500Y-90750000D02*
X235902500Y-90170000D01*
D10*
X207307500Y-109510000D03*
D11*
X207287500Y-109800000D02*
X207327500Y-109220000D01*
D10*
X207327500Y-109220000D03*
X201632501Y-111030000D03*
D11*
X200977500Y-111760000D02*
X202287502Y-110300000D01*
D12*
X204787500Y-114300000D03*
D10*
X202287500Y-110300000D03*
D13*
X199707500Y-114300000D03*
X209867500Y-114300000D03*
X190817500Y-114300000D03*
X180657500Y-114300000D03*
D10*
X183237500Y-110300000D03*
D12*
X185737500Y-114300000D03*
D10*
X182582501Y-111030000D03*
D11*
X181927500Y-111760000D02*
X183237502Y-110300000D01*
D10*
X188277500Y-109220000D03*
X188257500Y-109510000D03*
D11*
X188237500Y-109800000D02*
X188277500Y-109220000D01*
D10*
X231120000Y-71410000D03*
D11*
X231100000Y-71700000D02*
X231140000Y-71120000D01*
D10*
X231140000Y-71120000D03*
X225445001Y-72930000D03*
D11*
X224790000Y-73660000D02*
X226100002Y-72200000D01*
D12*
X228600000Y-76200000D03*
D10*
X226100000Y-72200000D03*
D13*
X223520000Y-76200000D03*
X233680000Y-76200000D03*
X81280000Y-76200000D03*
X71120000Y-76200000D03*
D10*
X73700000Y-72200000D03*
D12*
X76200000Y-76200000D03*
D10*
X73045001Y-72930000D03*
D11*
X72390000Y-73660000D02*
X73700002Y-72200000D01*
D10*
X78740000Y-71120000D03*
X78720000Y-71410000D03*
D11*
X78700000Y-71700000D02*
X78740000Y-71120000D01*
D13*
X138430000Y-76200000D03*
X128270000Y-76200000D03*
D10*
X130850000Y-72200000D03*
D12*
X133350000Y-76200000D03*
D10*
X130195001Y-72930000D03*
D11*
X129540000Y-73660000D02*
X130850002Y-72200000D01*
D10*
X135890000Y-71120000D03*
X135870000Y-71410000D03*
D11*
X135850000Y-71700000D02*
X135890000Y-71120000D01*
D10*
X102532500Y-90460000D03*
D11*
X102512500Y-90750000D02*
X102552500Y-90170000D01*
D10*
X102552500Y-90170000D03*
X96857501Y-91980000D03*
D11*
X96202500Y-92710000D02*
X97512502Y-91250000D01*
D12*
X100012500Y-95250000D03*
D10*
X97512500Y-91250000D03*
D13*
X94932500Y-95250000D03*
X105092500Y-95250000D03*
X157480000Y-76200000D03*
X147320000Y-76200000D03*
D10*
X149900000Y-72200000D03*
D12*
X152400000Y-76200000D03*
D10*
X149245001Y-72930000D03*
D11*
X148590000Y-73660000D02*
X149900002Y-72200000D01*
D10*
X154940000Y-71120000D03*
X154920000Y-71410000D03*
D11*
X154900000Y-71700000D02*
X154940000Y-71120000D01*
D13*
X195580000Y-76200000D03*
X185420000Y-76200000D03*
D10*
X188000000Y-72200000D03*
D12*
X190500000Y-76200000D03*
D10*
X187345001Y-72930000D03*
D11*
X186690000Y-73660000D02*
X188000002Y-72200000D01*
D10*
X193040000Y-71120000D03*
X193020000Y-71410000D03*
D11*
X193000000Y-71700000D02*
X193040000Y-71120000D01*
D13*
X152717500Y-114300000D03*
X142557500Y-114300000D03*
D10*
X145137500Y-110300000D03*
D12*
X147637500Y-114300000D03*
D10*
X144482501Y-111030000D03*
D11*
X143827500Y-111760000D02*
X145137502Y-110300000D01*
D10*
X150177500Y-109220000D03*
X150157500Y-109510000D03*
D11*
X150137500Y-109800000D02*
X150177500Y-109220000D01*
D13*
X100330000Y-76200000D03*
X90170000Y-76200000D03*
D10*
X92750000Y-72200000D03*
D12*
X95250000Y-76200000D03*
D10*
X92095001Y-72930000D03*
D11*
X91440000Y-73660000D02*
X92750002Y-72200000D01*
D10*
X97790000Y-71120000D03*
X97770000Y-71410000D03*
D11*
X97750000Y-71700000D02*
X97790000Y-71120000D01*
D13*
X114617500Y-114300000D03*
X104457500Y-114300000D03*
D10*
X107037500Y-110300000D03*
D12*
X109537500Y-114300000D03*
D10*
X106382501Y-111030000D03*
D11*
X105727500Y-111760000D02*
X107037502Y-110300000D01*
D10*
X112077500Y-109220000D03*
X112057500Y-109510000D03*
D11*
X112037500Y-109800000D02*
X112077500Y-109220000D01*
D13*
X176530000Y-76200000D03*
X166370000Y-76200000D03*
D10*
X168950000Y-72200000D03*
D12*
X171450000Y-76200000D03*
D10*
X168295001Y-72930000D03*
D11*
X167640000Y-73660000D02*
X168950002Y-72200000D01*
D10*
X173990000Y-71120000D03*
X173970000Y-71410000D03*
D11*
X173950000Y-71700000D02*
X173990000Y-71120000D01*
D10*
X93007500Y-109510000D03*
D11*
X92987500Y-109800000D02*
X93027500Y-109220000D01*
D10*
X93027500Y-109220000D03*
X87332501Y-111030000D03*
D11*
X86677500Y-111760000D02*
X87987502Y-110300000D01*
D12*
X90487500Y-114300000D03*
D10*
X87987500Y-110300000D03*
D13*
X85407500Y-114300000D03*
X95567500Y-114300000D03*
D10*
X250170000Y-71410000D03*
D11*
X250150000Y-71700000D02*
X250190000Y-71120000D01*
D10*
X250190000Y-71120000D03*
X244495001Y-72930000D03*
D11*
X243840000Y-73660000D02*
X245150002Y-72200000D01*
D12*
X247650000Y-76200000D03*
D10*
X245150000Y-72200000D03*
D13*
X242570000Y-76200000D03*
X252730000Y-76200000D03*
D10*
X312082500Y-71410000D03*
D11*
X312062500Y-71700000D02*
X312102500Y-71120000D01*
D10*
X312102500Y-71120000D03*
X306407501Y-72930000D03*
D11*
X305752500Y-73660000D02*
X307062502Y-72200000D01*
D12*
X309562500Y-76200000D03*
D10*
X307062500Y-72200000D03*
D13*
X304482500Y-76200000D03*
X314642500Y-76200000D03*
X252730000Y-95250000D03*
X242570000Y-95250000D03*
D10*
X245150000Y-91250000D03*
D12*
X247650000Y-95250000D03*
D10*
X244495001Y-91980000D03*
D11*
X243840000Y-92710000D02*
X245150002Y-91250000D01*
D10*
X250190000Y-90170000D03*
X250170000Y-90460000D03*
D11*
X250150000Y-90750000D02*
X250190000Y-90170000D01*
D13*
X81280000Y-95250000D03*
X71120000Y-95250000D03*
D10*
X73700000Y-91250000D03*
D12*
X76200000Y-95250000D03*
D10*
X73045001Y-91980000D03*
D11*
X72390000Y-92710000D02*
X73700002Y-91250000D01*
D10*
X78740000Y-90170000D03*
X78720000Y-90460000D03*
D11*
X78700000Y-90750000D02*
X78740000Y-90170000D01*
D13*
X176530000Y-114300000D03*
X166370000Y-114300000D03*
D10*
X168950000Y-110300000D03*
D12*
X171450000Y-114300000D03*
D10*
X168295001Y-111030000D03*
D11*
X167640000Y-111760000D02*
X168950002Y-110300000D01*
D10*
X173990000Y-109220000D03*
X173970000Y-109510000D03*
D11*
X173950000Y-109800000D02*
X173990000Y-109220000D01*
D13*
X138430000Y-114300000D03*
X128270000Y-114300000D03*
D10*
X130850000Y-110300000D03*
D12*
X133350000Y-114300000D03*
D10*
X130195001Y-111030000D03*
D11*
X129540000Y-111760000D02*
X130850002Y-110300000D01*
D10*
X135890000Y-109220000D03*
X135870000Y-109510000D03*
D11*
X135850000Y-109800000D02*
X135890000Y-109220000D01*
D10*
X116820000Y-90460000D03*
D11*
X116800000Y-90750000D02*
X116840000Y-90170000D01*
D10*
X116840000Y-90170000D03*
X111145001Y-91980000D03*
D11*
X110490000Y-92710000D02*
X111800002Y-91250000D01*
D12*
X114300000Y-95250000D03*
D10*
X111800000Y-91250000D03*
D13*
X109220000Y-95250000D03*
X119380000Y-95250000D03*
X138430000Y-95250000D03*
X128270000Y-95250000D03*
D10*
X130850000Y-91250000D03*
D12*
X133350000Y-95250000D03*
D10*
X130195001Y-91980000D03*
D11*
X129540000Y-92710000D02*
X130850002Y-91250000D01*
D10*
X135890000Y-90170000D03*
X135870000Y-90460000D03*
D11*
X135850000Y-90750000D02*
X135890000Y-90170000D01*
D10*
X154920000Y-90460000D03*
D11*
X154900000Y-90750000D02*
X154940000Y-90170000D01*
D10*
X154940000Y-90170000D03*
X149245001Y-91980000D03*
D11*
X148590000Y-92710000D02*
X149900002Y-91250000D01*
D12*
X152400000Y-95250000D03*
D10*
X149900000Y-91250000D03*
D13*
X147320000Y-95250000D03*
X157480000Y-95250000D03*
X176530000Y-95250000D03*
X166370000Y-95250000D03*
D10*
X168950000Y-91250000D03*
D12*
X171450000Y-95250000D03*
D10*
X168295001Y-91980000D03*
D11*
X167640000Y-92710000D02*
X168950002Y-91250000D01*
D10*
X173990000Y-90170000D03*
X173970000Y-90460000D03*
D11*
X173950000Y-90750000D02*
X173990000Y-90170000D01*
D13*
X195580000Y-95250000D03*
X185420000Y-95250000D03*
D10*
X188000000Y-91250000D03*
D12*
X190500000Y-95250000D03*
D10*
X187345001Y-91980000D03*
D11*
X186690000Y-92710000D02*
X188000002Y-91250000D01*
D10*
X193040000Y-90170000D03*
X193020000Y-90460000D03*
D11*
X193000000Y-90750000D02*
X193040000Y-90170000D01*
D10*
X250170000Y-109510000D03*
D11*
X250150000Y-109800000D02*
X250190000Y-109220000D01*
D10*
X250190000Y-109220000D03*
X244495001Y-111030000D03*
D11*
X243840000Y-111760000D02*
X245150002Y-110300000D01*
D12*
X247650000Y-114300000D03*
D10*
X245150000Y-110300000D03*
D13*
X242570000Y-114300000D03*
X252730000Y-114300000D03*
X233680000Y-114300000D03*
X223520000Y-114300000D03*
D10*
X226100000Y-110300000D03*
D12*
X228600000Y-114300000D03*
D10*
X225445001Y-111030000D03*
D11*
X224790000Y-111760000D02*
X226100002Y-110300000D01*
D10*
X231140000Y-109220000D03*
X231120000Y-109510000D03*
D11*
X231100000Y-109800000D02*
X231140000Y-109220000D01*
D10*
X212070000Y-90460000D03*
D11*
X212050000Y-90750000D02*
X212090000Y-90170000D01*
D10*
X212090000Y-90170000D03*
X206395001Y-91980000D03*
D11*
X205740000Y-92710000D02*
X207050002Y-91250000D01*
D12*
X209550000Y-95250000D03*
D10*
X207050000Y-91250000D03*
D13*
X204470000Y-95250000D03*
X214630000Y-95250000D03*
D10*
X78720000Y-52360000D03*
D11*
X78700000Y-52650000D02*
X78740000Y-52070000D01*
D10*
X78740000Y-52070000D03*
X73045001Y-53880000D03*
D11*
X72390000Y-54610000D02*
X73700002Y-53150000D01*
D12*
X76200000Y-57150000D03*
D10*
X73700000Y-53150000D03*
D13*
X71120000Y-57150000D03*
X81280000Y-57150000D03*
X100330000Y-57150000D03*
X90170000Y-57150000D03*
D10*
X92750000Y-53150000D03*
D12*
X95250000Y-57150000D03*
D10*
X92095001Y-53880000D03*
D11*
X91440000Y-54610000D02*
X92750002Y-53150000D01*
D10*
X97790000Y-52070000D03*
X97770000Y-52360000D03*
D11*
X97750000Y-52650000D02*
X97790000Y-52070000D01*
D10*
X116820000Y-52360000D03*
D11*
X116800000Y-52650000D02*
X116840000Y-52070000D01*
D10*
X116840000Y-52070000D03*
X111145001Y-53880000D03*
D11*
X110490000Y-54610000D02*
X111800002Y-53150000D01*
D12*
X114300000Y-57150000D03*
D10*
X111800000Y-53150000D03*
D13*
X109220000Y-57150000D03*
X119380000Y-57150000D03*
X138430000Y-57150000D03*
X128270000Y-57150000D03*
D10*
X130850000Y-53150000D03*
D12*
X133350000Y-57150000D03*
D10*
X130195001Y-53880000D03*
D11*
X129540000Y-54610000D02*
X130850002Y-53150000D01*
D10*
X135890000Y-52070000D03*
X135870000Y-52360000D03*
D11*
X135850000Y-52650000D02*
X135890000Y-52070000D01*
D10*
X154920000Y-52360000D03*
D11*
X154900000Y-52650000D02*
X154940000Y-52070000D01*
D10*
X154940000Y-52070000D03*
X149245001Y-53880000D03*
D11*
X148590000Y-54610000D02*
X149900002Y-53150000D01*
D12*
X152400000Y-57150000D03*
D10*
X149900000Y-53150000D03*
D13*
X147320000Y-57150000D03*
X157480000Y-57150000D03*
X176530000Y-57150000D03*
X166370000Y-57150000D03*
D10*
X168950000Y-53150000D03*
D12*
X171450000Y-57150000D03*
D10*
X168295001Y-53880000D03*
D11*
X167640000Y-54610000D02*
X168950002Y-53150000D01*
D10*
X173990000Y-52070000D03*
X173970000Y-52360000D03*
D11*
X173950000Y-52650000D02*
X173990000Y-52070000D01*
D10*
X193020000Y-52360000D03*
D11*
X193000000Y-52650000D02*
X193040000Y-52070000D01*
D10*
X193040000Y-52070000D03*
X187345001Y-53880000D03*
D11*
X186690000Y-54610000D02*
X188000002Y-53150000D01*
D12*
X190500000Y-57150000D03*
D10*
X188000000Y-53150000D03*
D13*
X185420000Y-57150000D03*
X195580000Y-57150000D03*
X214630000Y-57150000D03*
X204470000Y-57150000D03*
D10*
X207050000Y-53150000D03*
D12*
X209550000Y-57150000D03*
D10*
X206395001Y-53880000D03*
D11*
X205740000Y-54610000D02*
X207050002Y-53150000D01*
D10*
X212090000Y-52070000D03*
X212070000Y-52360000D03*
D11*
X212050000Y-52650000D02*
X212090000Y-52070000D01*
D10*
X231120000Y-52360000D03*
D11*
X231100000Y-52650000D02*
X231140000Y-52070000D01*
D10*
X231140000Y-52070000D03*
X225445001Y-53880000D03*
D11*
X224790000Y-54610000D02*
X226100002Y-53150000D01*
D12*
X228600000Y-57150000D03*
D10*
X226100000Y-53150000D03*
D13*
X223520000Y-57150000D03*
X233680000Y-57150000D03*
X252730000Y-57150000D03*
X242570000Y-57150000D03*
D10*
X245150000Y-53150000D03*
D12*
X247650000Y-57150000D03*
D10*
X244495001Y-53880000D03*
D11*
X243840000Y-54610000D02*
X245150002Y-53150000D01*
D10*
X250190000Y-52070000D03*
X250170000Y-52360000D03*
D11*
X250150000Y-52650000D02*
X250190000Y-52070000D01*
D13*
X271780000Y-95250000D03*
X261620000Y-95250000D03*
D10*
X264200000Y-91250000D03*
D12*
X266700000Y-95250000D03*
D10*
X263545001Y-91980000D03*
D11*
X262890000Y-92710000D02*
X264200002Y-91250000D01*
D10*
X269240000Y-90170000D03*
X269220000Y-90460000D03*
D11*
X269200000Y-90750000D02*
X269240000Y-90170000D01*
D10*
X269220000Y-52360000D03*
D11*
X269200000Y-52650000D02*
X269240000Y-52070000D01*
D10*
X269240000Y-52070000D03*
X263545001Y-53880000D03*
D11*
X262890000Y-54610000D02*
X264200002Y-53150000D01*
D12*
X266700000Y-57150000D03*
D10*
X264200000Y-53150000D03*
D13*
X261620000Y-57150000D03*
X271780000Y-57150000D03*
X271780000Y-114300000D03*
X261620000Y-114300000D03*
D10*
X264200000Y-110300000D03*
D12*
X266700000Y-114300000D03*
D10*
X263545001Y-111030000D03*
D11*
X262890000Y-111760000D02*
X264200002Y-110300000D01*
D10*
X269240000Y-109220000D03*
X269220000Y-109510000D03*
D11*
X269200000Y-109800000D02*
X269240000Y-109220000D01*
D13*
X290830000Y-57150000D03*
X280670000Y-57150000D03*
D10*
X283250000Y-53150000D03*
D12*
X285750000Y-57150000D03*
D10*
X282595001Y-53880000D03*
D11*
X281940000Y-54610000D02*
X283250002Y-53150000D01*
D10*
X288290000Y-52070000D03*
X288270000Y-52360000D03*
D11*
X288250000Y-52650000D02*
X288290000Y-52070000D01*
D10*
X312082500Y-52360000D03*
D11*
X312062500Y-52650000D02*
X312102500Y-52070000D01*
D10*
X312102500Y-52070000D03*
X306407501Y-53880000D03*
D11*
X305752500Y-54610000D02*
X307062502Y-53150000D01*
D12*
X309562500Y-57150000D03*
D10*
X307062500Y-53150000D03*
D13*
X304482500Y-57150000D03*
X314642500Y-57150000D03*
X57467500Y-95250000D03*
X47307500Y-95250000D03*
D10*
X49887500Y-91250000D03*
D12*
X52387500Y-95250000D03*
D10*
X49232501Y-91980000D03*
D11*
X48577500Y-92710000D02*
X49887502Y-91250000D01*
D10*
X54927500Y-90170000D03*
X54907500Y-90460000D03*
D11*
X54887500Y-90750000D02*
X54927500Y-90170000D01*
D13*
X314642500Y-95250000D03*
X304482500Y-95250000D03*
D10*
X307062500Y-91250000D03*
D12*
X309562500Y-95250000D03*
D10*
X306407501Y-91980000D03*
D11*
X305752500Y-92710000D02*
X307062502Y-91250000D01*
D10*
X312102500Y-90170000D03*
X312082500Y-90460000D03*
D11*
X312062500Y-90750000D02*
X312102500Y-90170000D01*
D10*
X288270000Y-109510000D03*
D11*
X288250000Y-109800000D02*
X288290000Y-109220000D01*
D10*
X288290000Y-109220000D03*
X282595001Y-111030000D03*
D11*
X281940000Y-111760000D02*
X283250002Y-110300000D01*
D12*
X285750000Y-114300000D03*
D10*
X283250000Y-110300000D03*
D13*
X280670000Y-114300000D03*
X290830000Y-114300000D03*
D10*
X312082500Y-109510000D03*
D11*
X312062500Y-109800000D02*
X312102500Y-109220000D01*
D10*
X312102500Y-109220000D03*
X306407501Y-111030000D03*
D11*
X305752500Y-111760000D02*
X307062502Y-110300000D01*
D12*
X309562500Y-114300000D03*
D10*
X307062500Y-110300000D03*
D13*
X304482500Y-114300000D03*
X314642500Y-114300000D03*
D10*
X78720000Y-109510000D03*
D11*
X78700000Y-109800000D02*
X78740000Y-109220000D01*
D10*
X78740000Y-109220000D03*
X73045001Y-111030000D03*
D11*
X72390000Y-111760000D02*
X73700002Y-110300000D01*
D12*
X76200000Y-114300000D03*
D10*
X73700000Y-110300000D03*
D13*
X71120000Y-114300000D03*
X81280000Y-114300000D03*
D10*
X49867500Y-119090000D03*
D11*
X49887500Y-118800000D02*
X49847500Y-119380000D01*
D10*
X49847500Y-119380000D03*
X55542499Y-117570000D03*
D11*
X56197500Y-116840000D02*
X54887498Y-118300000D01*
D12*
X52387500Y-114300000D03*
D10*
X54887500Y-118300000D03*
D13*
X57467500Y-114300000D03*
X47307500Y-114300000D03*
X57467500Y-57150000D03*
X47307500Y-57150000D03*
D10*
X49887500Y-53150000D03*
D12*
X52387500Y-57150000D03*
D10*
X49232501Y-53880000D03*
D11*
X48577500Y-54610000D02*
X49887502Y-53150000D01*
D10*
X54927500Y-52070000D03*
X54907500Y-52360000D03*
D11*
X54887500Y-52650000D02*
X54927500Y-52070000D01*
D10*
X231120000Y-90460000D03*
D11*
X231100000Y-90750000D02*
X231140000Y-90170000D01*
D10*
X231140000Y-90170000D03*
X225445001Y-91980000D03*
D11*
X224790000Y-92710000D02*
X226100002Y-91250000D01*
D12*
X228600000Y-95250000D03*
D10*
X226100000Y-91250000D03*
D13*
X223520000Y-95250000D03*
X233680000Y-95250000D03*
X214630000Y-114300000D03*
X204470000Y-114300000D03*
D10*
X207050000Y-110300000D03*
D12*
X209550000Y-114300000D03*
D10*
X206395001Y-111030000D03*
D11*
X205740000Y-111760000D02*
X207050002Y-110300000D01*
D10*
X212090000Y-109220000D03*
X212070000Y-109510000D03*
D11*
X212050000Y-109800000D02*
X212090000Y-109220000D01*
D10*
X193020000Y-109510000D03*
D11*
X193000000Y-109800000D02*
X193040000Y-109220000D01*
D10*
X193040000Y-109220000D03*
X187345001Y-111030000D03*
D11*
X186690000Y-111760000D02*
X188000002Y-110300000D01*
D12*
X190500000Y-114300000D03*
D10*
X188000000Y-110300000D03*
D13*
X185420000Y-114300000D03*
X195580000Y-114300000D03*
D10*
X97770000Y-90460000D03*
D11*
X97750000Y-90750000D02*
X97790000Y-90170000D01*
D10*
X97790000Y-90170000D03*
X92095001Y-91980000D03*
D11*
X91440000Y-92710000D02*
X92750002Y-91250000D01*
D12*
X95250000Y-95250000D03*
D10*
X92750000Y-91250000D03*
D13*
X90170000Y-95250000D03*
X100330000Y-95250000D03*
X157480000Y-114300000D03*
X147320000Y-114300000D03*
D10*
X149900000Y-110300000D03*
D12*
X152400000Y-114300000D03*
D10*
X149245001Y-111030000D03*
D11*
X148590000Y-111760000D02*
X149900002Y-110300000D01*
D10*
X154940000Y-109220000D03*
X154920000Y-109510000D03*
D11*
X154900000Y-109800000D02*
X154940000Y-109220000D01*
D10*
X116820000Y-109510000D03*
D11*
X116800000Y-109800000D02*
X116840000Y-109220000D01*
D10*
X116840000Y-109220000D03*
X111145001Y-111030000D03*
D11*
X110490000Y-111760000D02*
X111800002Y-110300000D01*
D12*
X114300000Y-114300000D03*
D10*
X111800000Y-110300000D03*
D13*
X109220000Y-114300000D03*
X119380000Y-114300000D03*
X100330000Y-114300000D03*
X90170000Y-114300000D03*
D10*
X92750000Y-110300000D03*
D12*
X95250000Y-114300000D03*
D10*
X92095001Y-111030000D03*
D11*
X91440000Y-111760000D02*
X92750002Y-110300000D01*
D10*
X97790000Y-109220000D03*
X97770000Y-109510000D03*
D11*
X97750000Y-109800000D02*
X97790000Y-109220000D01*
D13*
X290830000Y-95250000D03*
X280670000Y-95250000D03*
D10*
X283250000Y-91250000D03*
D12*
X285750000Y-95250000D03*
D10*
X282595001Y-91980000D03*
D11*
X281940000Y-92710000D02*
X283250002Y-91250000D01*
D10*
X288290000Y-90170000D03*
X288270000Y-90460000D03*
D11*
X288250000Y-90750000D02*
X288290000Y-90170000D01*
D14*
X51400000Y-43400000D03*
D15*
X43600000Y-43400000D03*
D17*
X45925000Y-43400000D03*
X49075000Y-43400000D03*
X72675000Y-43300000D03*
X69525000Y-43300000D03*
D15*
X67200000Y-43300000D03*
D14*
X75000000Y-43300000D03*
D17*
X90575000Y-43200000D03*
X87425000Y-43200000D03*
D15*
X85100000Y-43200000D03*
D14*
X92900000Y-43200000D03*
D17*
X108700000Y-43200000D03*
X105550000Y-43200000D03*
D15*
X103225000Y-43200000D03*
D14*
X111025000Y-43200000D03*
X131300000Y-43500000D03*
D15*
X123500000Y-43500000D03*
D17*
X125825000Y-43500000D03*
X128975000Y-43500000D03*
D14*
X155300000Y-43400000D03*
D15*
X147500000Y-43400000D03*
D17*
X149825000Y-43400000D03*
X152975000Y-43400000D03*
D14*
X174100000Y-43400000D03*
D15*
X166300000Y-43400000D03*
D17*
X168625000Y-43400000D03*
X171775000Y-43400000D03*
X190575000Y-44000000D03*
X187425000Y-44000000D03*
D15*
X185100000Y-44000000D03*
D14*
X192900000Y-44000000D03*
D17*
X209875000Y-43400000D03*
X206725000Y-43400000D03*
D15*
X204400000Y-43400000D03*
D14*
X212200000Y-43400000D03*
D17*
X233575000Y-43300000D03*
X230425000Y-43300000D03*
D15*
X228100000Y-43300000D03*
D14*
X235900000Y-43300000D03*
D17*
X257375000Y-43500000D03*
X254225000Y-43500000D03*
D15*
X251900000Y-43500000D03*
D14*
X259700000Y-43500000D03*
D17*
X276675000Y-44000000D03*
X273525000Y-44000000D03*
D15*
X271200000Y-44000000D03*
D14*
X279000000Y-44000000D03*
X297725000Y-43500000D03*
D15*
X289925000Y-43500000D03*
D17*
X292250000Y-43500000D03*
X295400000Y-43500000D03*
X314975000Y-43300000D03*
X311825000Y-43300000D03*
D15*
X309500000Y-43300000D03*
D14*
X317300000Y-43300000D03*
D17*
X338675000Y-44000000D03*
X335525000Y-44000000D03*
D15*
X333200000Y-44000000D03*
D14*
X341000000Y-44000000D03*
X359900000Y-44000000D03*
D15*
X352100000Y-44000000D03*
D17*
X354425000Y-44000000D03*
X357575000Y-44000000D03*
D14*
X378900000Y-44000000D03*
D15*
X371100000Y-44000000D03*
D17*
X373425000Y-44000000D03*
X376575000Y-44000000D03*
D14*
X324000000Y-91100000D03*
D15*
X324000000Y-98900000D03*
D17*
X324000000Y-96575000D03*
X324000000Y-93425000D03*
X52675000Y-63000000D03*
X49525000Y-63000000D03*
D15*
X47200000Y-63000000D03*
D14*
X55000000Y-63000000D03*
X78900000Y-63000000D03*
D15*
X71100000Y-63000000D03*
D17*
X73425000Y-63000000D03*
X76575000Y-63000000D03*
D14*
X97900000Y-62800000D03*
D15*
X90100000Y-62800000D03*
D17*
X92425000Y-62800000D03*
X95575000Y-62800000D03*
X114575000Y-62500000D03*
X111425000Y-62500000D03*
D15*
X109100000Y-62500000D03*
D14*
X116900000Y-62500000D03*
X135900000Y-63000000D03*
D15*
X128100000Y-63000000D03*
D17*
X130425000Y-63000000D03*
X133575000Y-63000000D03*
X152875000Y-63000000D03*
X149725000Y-63000000D03*
D15*
X147400000Y-63000000D03*
D14*
X155200000Y-63000000D03*
X174475000Y-62600000D03*
D15*
X166675000Y-62600000D03*
D17*
X169000000Y-62600000D03*
X172150000Y-62600000D03*
D14*
X193225000Y-62900000D03*
D15*
X185425000Y-62900000D03*
D17*
X187750000Y-62900000D03*
X190900000Y-62900000D03*
X209575000Y-63000000D03*
X206425000Y-63000000D03*
D15*
X204100000Y-63000000D03*
D14*
X211900000Y-63000000D03*
D17*
X228800000Y-62900000D03*
X225650000Y-62900000D03*
D15*
X223325000Y-62900000D03*
D14*
X231125000Y-62900000D03*
D17*
X247875000Y-63000000D03*
X244725000Y-63000000D03*
D15*
X242400000Y-63000000D03*
D14*
X250200000Y-63000000D03*
X269000000Y-63000000D03*
D15*
X261200000Y-63000000D03*
D17*
X263525000Y-63000000D03*
X266675000Y-63000000D03*
D14*
X288900000Y-63000000D03*
D15*
X281100000Y-63000000D03*
D17*
X283425000Y-63000000D03*
X286575000Y-63000000D03*
X324000000Y-55325000D03*
X324000000Y-58475000D03*
D15*
X324000000Y-60800000D03*
D14*
X324000000Y-53000000D03*
D17*
X303750000Y-67400000D03*
X300600000Y-67400000D03*
D15*
X298275000Y-67400000D03*
D14*
X306075000Y-67400000D03*
D17*
X338675000Y-63000000D03*
X335525000Y-63000000D03*
D15*
X333200000Y-63000000D03*
D14*
X341000000Y-63000000D03*
X360000000Y-62900000D03*
D15*
X352200000Y-62900000D03*
D17*
X354525000Y-62900000D03*
X357675000Y-62900000D03*
X376575000Y-63000000D03*
X373425000Y-63000000D03*
D15*
X371100000Y-63000000D03*
D14*
X378900000Y-63000000D03*
D17*
X323700000Y-111750000D03*
X323700000Y-114900000D03*
D15*
X323700000Y-117225000D03*
D14*
X323700000Y-109425000D03*
X54900000Y-82000000D03*
D15*
X47100000Y-82000000D03*
D17*
X49425000Y-82000000D03*
X52575000Y-82000000D03*
D14*
X79800000Y-82000000D03*
D15*
X72000000Y-82000000D03*
D17*
X74325000Y-82000000D03*
X77475000Y-82000000D03*
D14*
X97900000Y-82000000D03*
D15*
X90100000Y-82000000D03*
D17*
X92425000Y-82000000D03*
X95575000Y-82000000D03*
X114575000Y-82000000D03*
X111425000Y-82000000D03*
D15*
X109100000Y-82000000D03*
D14*
X116900000Y-82000000D03*
X136325000Y-82000000D03*
D15*
X128525000Y-82000000D03*
D17*
X130850000Y-82000000D03*
X134000000Y-82000000D03*
X153000000Y-82000000D03*
X149850000Y-82000000D03*
D15*
X147525000Y-82000000D03*
D14*
X155325000Y-82000000D03*
D17*
X172575000Y-82000000D03*
X169425000Y-82000000D03*
D15*
X167100000Y-82000000D03*
D14*
X174900000Y-82000000D03*
D17*
X190875000Y-82200000D03*
X187725000Y-82200000D03*
D15*
X185400000Y-82200000D03*
D14*
X193200000Y-82200000D03*
X212025000Y-82100000D03*
D15*
X204225000Y-82100000D03*
D17*
X206550000Y-82100000D03*
X209700000Y-82100000D03*
X228775000Y-82000000D03*
X225625000Y-82000000D03*
D15*
X223300000Y-82000000D03*
D14*
X231100000Y-82000000D03*
X250475000Y-82000000D03*
D15*
X242675000Y-82000000D03*
D17*
X245000000Y-82000000D03*
X248150000Y-82000000D03*
X267000000Y-82000000D03*
X263850000Y-82000000D03*
D15*
X261525000Y-82000000D03*
D14*
X269325000Y-82000000D03*
X288300000Y-81900000D03*
D15*
X280500000Y-81900000D03*
D17*
X282825000Y-81900000D03*
X285975000Y-81900000D03*
X309675000Y-82000000D03*
X306525000Y-82000000D03*
D15*
X304200000Y-82000000D03*
D14*
X312000000Y-82000000D03*
D17*
X338150000Y-82000000D03*
X335000000Y-82000000D03*
D15*
X332675000Y-82000000D03*
D14*
X340475000Y-82000000D03*
D17*
X357575000Y-82000000D03*
X354425000Y-82000000D03*
D15*
X352100000Y-82000000D03*
D14*
X359900000Y-82000000D03*
X378700000Y-81000000D03*
D15*
X370900000Y-81000000D03*
D17*
X373225000Y-81000000D03*
X376375000Y-81000000D03*
D14*
X60325000Y-101000000D03*
D15*
X52525000Y-101000000D03*
D17*
X54850000Y-101000000D03*
X58000000Y-101000000D03*
D14*
X84325000Y-101000000D03*
D15*
X76525000Y-101000000D03*
D17*
X78850000Y-101000000D03*
X82000000Y-101000000D03*
X100575000Y-101000000D03*
X97425000Y-101000000D03*
D15*
X95100000Y-101000000D03*
D14*
X102900000Y-101000000D03*
X121900000Y-101000000D03*
D15*
X114100000Y-101000000D03*
D17*
X116425000Y-101000000D03*
X119575000Y-101000000D03*
X138475000Y-101000000D03*
X135325000Y-101000000D03*
D15*
X133000000Y-101000000D03*
D14*
X140800000Y-101000000D03*
X159700000Y-100900000D03*
D15*
X151900000Y-100900000D03*
D17*
X154225000Y-100900000D03*
X157375000Y-100900000D03*
D14*
X179325000Y-101000000D03*
D15*
X171525000Y-101000000D03*
D17*
X173850000Y-101000000D03*
X177000000Y-101000000D03*
X195575000Y-101000000D03*
X192425000Y-101000000D03*
D15*
X190100000Y-101000000D03*
D14*
X197900000Y-101000000D03*
D17*
X214575000Y-101000000D03*
X211425000Y-101000000D03*
D15*
X209100000Y-101000000D03*
D14*
X216900000Y-101000000D03*
X235900000Y-101000000D03*
D15*
X228100000Y-101000000D03*
D17*
X230425000Y-101000000D03*
X233575000Y-101000000D03*
D14*
X255325000Y-101000000D03*
D15*
X247525000Y-101000000D03*
D17*
X249850000Y-101000000D03*
X253000000Y-101000000D03*
X271675000Y-101000000D03*
X268525000Y-101000000D03*
D15*
X266200000Y-101000000D03*
D14*
X274000000Y-101000000D03*
X294000000Y-91675000D03*
D15*
X294000000Y-99475000D03*
D17*
X294000000Y-97150000D03*
X294000000Y-94000000D03*
X60625000Y-122525000D03*
X57475000Y-122525000D03*
D15*
X55150000Y-122525000D03*
D14*
X62950000Y-122525000D03*
X82475000Y-120000000D03*
D15*
X74675000Y-120000000D03*
D17*
X77000000Y-120000000D03*
X80150000Y-120000000D03*
D14*
X97900000Y-120000000D03*
D15*
X90100000Y-120000000D03*
D17*
X92425000Y-120000000D03*
X95575000Y-120000000D03*
X114475000Y-120000000D03*
X111325000Y-120000000D03*
D15*
X109000000Y-120000000D03*
D14*
X116800000Y-120000000D03*
D17*
X134150000Y-120000000D03*
X131000000Y-120000000D03*
D15*
X128675000Y-120000000D03*
D14*
X136475000Y-120000000D03*
X154900000Y-120000000D03*
D15*
X147100000Y-120000000D03*
D17*
X149425000Y-120000000D03*
X152575000Y-120000000D03*
D14*
X174900000Y-120000000D03*
D15*
X167100000Y-120000000D03*
D17*
X169425000Y-120000000D03*
X172575000Y-120000000D03*
X190675000Y-119800000D03*
X187525000Y-119800000D03*
D15*
X185200000Y-119800000D03*
D14*
X193000000Y-119800000D03*
X211900000Y-120000000D03*
D15*
X204100000Y-120000000D03*
D17*
X206425000Y-120000000D03*
X209575000Y-120000000D03*
D14*
X231600000Y-120000000D03*
D15*
X223800000Y-120000000D03*
D17*
X226125000Y-120000000D03*
X229275000Y-120000000D03*
X247575000Y-120000000D03*
X244425000Y-120000000D03*
D15*
X242100000Y-120000000D03*
D14*
X249900000Y-120000000D03*
X269900000Y-120000000D03*
D15*
X262100000Y-120000000D03*
D17*
X264425000Y-120000000D03*
X267575000Y-120000000D03*
X297325000Y-120200000D03*
X294175000Y-120200000D03*
D15*
X291850000Y-120200000D03*
D14*
X299650000Y-120200000D03*
X360900000Y-120000000D03*
D15*
X353100000Y-120000000D03*
D17*
X355425000Y-120000000D03*
X358575000Y-120000000D03*
X56575000Y-139000000D03*
X53425000Y-139000000D03*
D15*
X51100000Y-139000000D03*
D14*
X58900000Y-139000000D03*
X88475000Y-139000000D03*
D15*
X80675000Y-139000000D03*
D17*
X83000000Y-139000000D03*
X86150000Y-139000000D03*
D14*
X111900000Y-139000000D03*
D15*
X104100000Y-139000000D03*
D17*
X106425000Y-139000000D03*
X109575000Y-139000000D03*
D14*
X154725000Y-139700000D03*
D15*
X146925000Y-139700000D03*
D17*
X149250000Y-139700000D03*
X152400000Y-139700000D03*
X197500000Y-131725000D03*
X197500000Y-134875000D03*
D15*
X197500000Y-137200000D03*
D14*
X197500000Y-129400000D03*
D17*
X219300000Y-139500000D03*
X216150000Y-139500000D03*
D15*
X213825000Y-139500000D03*
D14*
X221625000Y-139500000D03*
X265325000Y-139000000D03*
D15*
X257525000Y-139000000D03*
D17*
X259850000Y-139000000D03*
X263000000Y-139000000D03*
X287575000Y-139000000D03*
X284425000Y-139000000D03*
D15*
X282100000Y-139000000D03*
D14*
X289900000Y-139000000D03*
X318225000Y-138112500D03*
D15*
X310425000Y-138112500D03*
D17*
X312750000Y-138112500D03*
X315900000Y-138112500D03*
X338575000Y-139000000D03*
X335425000Y-139000000D03*
D15*
X333100000Y-139000000D03*
D14*
X340900000Y-139000000D03*
X360325000Y-139000000D03*
D15*
X352525000Y-139000000D03*
D17*
X354850000Y-139000000D03*
X358000000Y-139000000D03*
X376150000Y-139000000D03*
X373000000Y-139000000D03*
D15*
X370675000Y-139000000D03*
D14*
X378475000Y-139000000D03*
D10*
X178455000Y-138140000D03*
D11*
X178475000Y-137850000D02*
X178435000Y-138430000D01*
D10*
X178435000Y-138430000D03*
X184129999Y-136620000D03*
D11*
X184785000Y-135890000D02*
X183474998Y-137350000D01*
D12*
X180975000Y-133350000D03*
D10*
X183475000Y-137350000D03*
D13*
X186055000Y-133350000D03*
X175895000Y-133350000D03*
D16*
X238125000Y-126365000D03*
X123825000Y-126365000D03*
D12*
X238125000Y-141605000D03*
X123825000Y-141605000D03*
D10*
X302280000Y-61940000D03*
D11*
X302300000Y-61650000D02*
X302260000Y-62230000D01*
D10*
X302260000Y-62230000D03*
X307954999Y-60420000D03*
D11*
X308610000Y-59690000D02*
X307299998Y-61150000D01*
D12*
X304800000Y-57150000D03*
D10*
X307300000Y-61150000D03*
D13*
X309880000Y-57150000D03*
X299720000Y-57150000D03*
D16*
X316738000Y-50165000D03*
X292862000Y-50165000D03*
D12*
X316738000Y-65405000D03*
X292862000Y-65405000D03*
D18*
X327296000Y-40720000D03*
X327550000Y-38180000D03*
X327296000Y-35640000D03*
X327550000Y-33100000D03*
X327296000Y-30560000D03*
D19*
X328875000Y-19930000D03*
X323525000Y-19930000D03*
D20*
X324600000Y-25130000D03*
X325400000Y-25130000D03*
X326200000Y-25130000D03*
X327000000Y-25130000D03*
X327800000Y-25130000D03*
D21*
X322550000Y-22730000D03*
X329850000Y-22730000D03*
M02*
