G04 #@! TF.GenerationSoftware,KiCad,Pcbnew,(5.0.0-rc2-dev-733-g23a9fcd91)*
G04 #@! TF.CreationDate,2018-09-05T17:39:11-04:00*
G04 #@! TF.ProjectId,comp1800,636F6D70313830302E6B696361645F70,rev?*
G04 #@! TF.SameCoordinates,Original*
G04 #@! TF.FileFunction,Paste,Bot*
G04 #@! TF.FilePolarity,Positive*
%FSLAX46Y46*%
G04 Gerber Fmt 4.6, Leading zero omitted, Abs format (unit mm)*
G04 Created by KiCad (PCBNEW (5.0.0-rc2-dev-733-g23a9fcd91)) date 09/05/18 17:39:11*
%MOMM*%
%LPD*%
G01*
G04 APERTURE LIST*
%ADD10R,1.200000X1.200000*%
%ADD11R,2.350000X0.800000*%
%ADD12R,0.500000X1.400000*%
%ADD13O,1.500000X4.000000*%
G04 APERTURE END LIST*
D10*
X45925000Y-43400000D03*
X49075000Y-43400000D03*
X72675000Y-43300000D03*
X69525000Y-43300000D03*
X90575000Y-43200000D03*
X87425000Y-43200000D03*
X108700000Y-43200000D03*
X105550000Y-43200000D03*
X125825000Y-43500000D03*
X128975000Y-43500000D03*
X149825000Y-43400000D03*
X152975000Y-43400000D03*
X168625000Y-43400000D03*
X171775000Y-43400000D03*
X190575000Y-44000000D03*
X187425000Y-44000000D03*
X209875000Y-43400000D03*
X206725000Y-43400000D03*
X233575000Y-43300000D03*
X230425000Y-43300000D03*
X257375000Y-43500000D03*
X254225000Y-43500000D03*
X276675000Y-44000000D03*
X273525000Y-44000000D03*
X292250000Y-43500000D03*
X295400000Y-43500000D03*
X314975000Y-43300000D03*
X311825000Y-43300000D03*
X338675000Y-44000000D03*
X335525000Y-44000000D03*
X354425000Y-44000000D03*
X357575000Y-44000000D03*
X373425000Y-44000000D03*
X376575000Y-44000000D03*
X324000000Y-96575000D03*
X324000000Y-93425000D03*
X52675000Y-63000000D03*
X49525000Y-63000000D03*
X73425000Y-63000000D03*
X76575000Y-63000000D03*
X92425000Y-62800000D03*
X95575000Y-62800000D03*
X114575000Y-62500000D03*
X111425000Y-62500000D03*
X130425000Y-63000000D03*
X133575000Y-63000000D03*
X152875000Y-63000000D03*
X149725000Y-63000000D03*
X169000000Y-62600000D03*
X172150000Y-62600000D03*
X187750000Y-62900000D03*
X190900000Y-62900000D03*
X209575000Y-63000000D03*
X206425000Y-63000000D03*
X228800000Y-62900000D03*
X225650000Y-62900000D03*
X247875000Y-63000000D03*
X244725000Y-63000000D03*
X263525000Y-63000000D03*
X266675000Y-63000000D03*
X283425000Y-63000000D03*
X286575000Y-63000000D03*
X324000000Y-55325000D03*
X324000000Y-58475000D03*
X303750000Y-67400000D03*
X300600000Y-67400000D03*
X338675000Y-63000000D03*
X335525000Y-63000000D03*
X354525000Y-62900000D03*
X357675000Y-62900000D03*
X376575000Y-63000000D03*
X373425000Y-63000000D03*
X323700000Y-111750000D03*
X323700000Y-114900000D03*
X49425000Y-82000000D03*
X52575000Y-82000000D03*
X74325000Y-82000000D03*
X77475000Y-82000000D03*
X92425000Y-82000000D03*
X95575000Y-82000000D03*
X114575000Y-82000000D03*
X111425000Y-82000000D03*
X130850000Y-82000000D03*
X134000000Y-82000000D03*
X153000000Y-82000000D03*
X149850000Y-82000000D03*
X172575000Y-82000000D03*
X169425000Y-82000000D03*
X190875000Y-82200000D03*
X187725000Y-82200000D03*
X206550000Y-82100000D03*
X209700000Y-82100000D03*
X228775000Y-82000000D03*
X225625000Y-82000000D03*
X245000000Y-82000000D03*
X248150000Y-82000000D03*
X267000000Y-82000000D03*
X263850000Y-82000000D03*
X282825000Y-81900000D03*
X285975000Y-81900000D03*
X309675000Y-82000000D03*
X306525000Y-82000000D03*
X338150000Y-82000000D03*
X335000000Y-82000000D03*
X357575000Y-82000000D03*
X354425000Y-82000000D03*
X373225000Y-81000000D03*
X376375000Y-81000000D03*
X54850000Y-101000000D03*
X58000000Y-101000000D03*
X78850000Y-101000000D03*
X82000000Y-101000000D03*
X100575000Y-101000000D03*
X97425000Y-101000000D03*
X116425000Y-101000000D03*
X119575000Y-101000000D03*
X138475000Y-101000000D03*
X135325000Y-101000000D03*
X154225000Y-100900000D03*
X157375000Y-100900000D03*
X173850000Y-101000000D03*
X177000000Y-101000000D03*
X195575000Y-101000000D03*
X192425000Y-101000000D03*
X214575000Y-101000000D03*
X211425000Y-101000000D03*
X230425000Y-101000000D03*
X233575000Y-101000000D03*
X249850000Y-101000000D03*
X253000000Y-101000000D03*
X271675000Y-101000000D03*
X268525000Y-101000000D03*
X294000000Y-97150000D03*
X294000000Y-94000000D03*
X60625000Y-122525000D03*
X57475000Y-122525000D03*
X77000000Y-120000000D03*
X80150000Y-120000000D03*
X92425000Y-120000000D03*
X95575000Y-120000000D03*
X114475000Y-120000000D03*
X111325000Y-120000000D03*
X134150000Y-120000000D03*
X131000000Y-120000000D03*
X149425000Y-120000000D03*
X152575000Y-120000000D03*
X169425000Y-120000000D03*
X172575000Y-120000000D03*
X190675000Y-119800000D03*
X187525000Y-119800000D03*
X206425000Y-120000000D03*
X209575000Y-120000000D03*
X226125000Y-120000000D03*
X229275000Y-120000000D03*
X247575000Y-120000000D03*
X244425000Y-120000000D03*
X264425000Y-120000000D03*
X267575000Y-120000000D03*
X297325000Y-120200000D03*
X294175000Y-120200000D03*
X355425000Y-120000000D03*
X358575000Y-120000000D03*
X56575000Y-139000000D03*
X53425000Y-139000000D03*
X83000000Y-139000000D03*
X86150000Y-139000000D03*
X106425000Y-139000000D03*
X109575000Y-139000000D03*
X149250000Y-139700000D03*
X152400000Y-139700000D03*
X197500000Y-131725000D03*
X197500000Y-134875000D03*
X219300000Y-139500000D03*
X216150000Y-139500000D03*
X259850000Y-139000000D03*
X263000000Y-139000000D03*
X287575000Y-139000000D03*
X284425000Y-139000000D03*
X312750000Y-138112500D03*
X315900000Y-138112500D03*
X338575000Y-139000000D03*
X335425000Y-139000000D03*
X354850000Y-139000000D03*
X358000000Y-139000000D03*
X376150000Y-139000000D03*
X373000000Y-139000000D03*
D11*
X328875000Y-19930000D03*
X323525000Y-19930000D03*
D12*
X324600000Y-25130000D03*
X325400000Y-25130000D03*
X326200000Y-25130000D03*
X327000000Y-25130000D03*
X327800000Y-25130000D03*
D13*
X322550000Y-22730000D03*
X329850000Y-22730000D03*
M02*
