M48
;DRILL file {KiCad (5.0.0-rc2-dev-733-g23a9fcd91)} date 09/05/18 17:39:25
;FORMAT={-:-/ absolute / inch / decimal}
FMAT,2
INCH,TZ
T1C0.0689
T2C0.1200
T3C0.1570
%
G90
G05
M72
T1
X7.4875Y-3.75
X7.8875Y-3.75
X11.9875Y-3.75
X12.3875Y-3.75
X13.8625Y-2.25
X14.2625Y-2.25
X10.3Y-2.25
X10.7Y-2.25
X8.8Y-1.5
X9.2Y-1.5
X3.55Y-2.25
X3.95Y-2.25
X4.1125Y-1.5
X4.5125Y-1.5
X3.55Y-3.
X3.95Y-3.
X2.8Y-3.75
X3.2Y-3.75
X8.8Y-1.3125
X9.2Y-1.3125
X6.55Y-4.5
X6.95Y-4.5
X8.05Y-1.3125
X8.45Y-1.3125
X5.6125Y-5.25
X6.0125Y-5.25
X5.05Y-3.75
X5.45Y-3.75
X7.8625Y-4.5
X8.2625Y-4.5
X4.1125Y-5.25
X4.5125Y-5.25
X11.7016Y-3.75
X12.1016Y-3.75
X13.1125Y-5.25
X13.5125Y-5.25
X3.55Y-3.75
X3.95Y-3.75
X10.4875Y-3.75
X10.8875Y-3.75
X8.05Y-4.5
X8.45Y-4.5
X7.3Y-1.5
X7.7Y-1.5
X10.675Y-1.5
X11.075Y-1.5
X2.425Y-2.25
X2.825Y-2.25
X1.8625Y-2.25
X2.2625Y-2.25
X6.55Y-1.5
X6.95Y-1.5
X1.8625Y-3.75
X2.2625Y-3.75
X14.6125Y-2.25
X15.0125Y-2.25
X8.8Y-2.25
X9.2Y-2.25
X5.425Y-1.5
X5.825Y-1.5
X2.8Y-2.25
X3.2Y-2.25
X10.8625Y-1.5
X11.2625Y-1.5
X1.7641Y-4.5
X2.1641Y-4.5
X5.8Y-1.3125
X6.2Y-1.3125
X11.9875Y-3.
X12.3875Y-3.
X8.9875Y-1.3125
X9.3875Y-1.3125
X9.55Y-3.75
X9.95Y-3.75
X2.8Y-5.25
X3.2Y-5.25
X12.175Y-1.3125
X12.575Y-1.3125
X9.55Y-3.
X9.95Y-3.
X5.8Y-3.
X6.2Y-3.
X13.1125Y-1.3125
X13.5125Y-1.3125
X11.425Y-2.25
X11.825Y-2.25
X11.9875Y-5.25
X12.3875Y-5.25
X6.925Y-5.25
X7.325Y-5.25
X6.925Y-2.25
X7.325Y-2.25
X9.7375Y-3.75
X10.1375Y-3.75
X6.7375Y-5.25
X7.1375Y-5.25
X14.6125Y-5.25
X15.0125Y-5.25
X1.8625Y-4.5
X2.2625Y-4.5
X1.675Y-1.5
X2.075Y-1.5
X11.9875Y-2.25
X12.3875Y-2.25
X11.05Y-3.
X11.45Y-3.
X9.55Y-2.25
X9.95Y-2.25
X2.6125Y-1.5
X3.0125Y-1.5
X8.05Y-3.75
X8.45Y-3.75
X11.425Y-1.5
X11.825Y-1.5
X7.1125Y-4.5
X7.5125Y-4.5
X3.3625Y-1.3125
X3.7625Y-1.3125
X5.05Y-3.
X5.45Y-3.
X3.175Y-1.3125
X3.575Y-1.3125
X3.3625Y-4.5
X3.7625Y-4.5
X1.675Y-2.25
X2.075Y-2.25
X3.175Y-5.25
X3.575Y-5.25
X12.175Y-4.5
X12.575Y-4.5
X9.925Y-1.3125
X10.325Y-1.3125
X14.6125Y-1.3125
X15.0125Y-1.3125
X11.425Y-1.3125
X11.825Y-1.3125
X10.1125Y-5.25
X10.5125Y-5.25
X5.8Y-4.5
X6.2Y-4.5
X12.075Y-5.25
X12.475Y-5.25
X3.55Y-4.5
X3.95Y-4.5
X9.175Y-2.25
X9.575Y-2.25
X8.6125Y-4.5
X9.0125Y-4.5
X3.175Y-2.25
X3.575Y-2.25
X9.925Y-2.25
X10.325Y-2.25
X2.8Y-4.5
X3.2Y-4.5
X2.9875Y-3.75
X3.3875Y-3.75
X11.05Y-2.25
X11.45Y-2.25
X8.05Y-3.
X8.45Y-3.
X8.05Y-2.25
X8.45Y-2.25
X3.3625Y-1.5
X3.7625Y-1.5
X8.8Y-4.5
X9.2Y-4.5
X13.8625Y-1.5
X14.2625Y-1.5
X1.8625Y-3.
X2.2625Y-3.
X13.1125Y-1.5
X13.5125Y-1.5
X5.6125Y-4.5
X6.0125Y-4.5
X3.925Y-1.3125
X4.325Y-1.3125
X4.1125Y-4.5
X4.5125Y-4.5
X13.8625Y-4.5
X14.2625Y-4.5
X5.8Y-5.25
X6.2Y-5.25
X9.7375Y-5.25
X10.1375Y-5.25
X11.5141Y-4.5
X11.9141Y-4.5
X7.3Y-1.3125
X7.7Y-1.3125
X3.7375Y-5.25
X4.1375Y-5.25
X4.1125Y-1.3125
X4.5125Y-1.3125
X13.1125Y-2.25
X13.5125Y-2.25
X1.8625Y-5.25
X2.2625Y-5.25
X14.6125Y-3.
X15.0125Y-3.
X5.2375Y-3.75
X5.6375Y-3.75
X6.3625Y-4.5
X6.7625Y-4.5
X5.9875Y-3.75
X6.3875Y-3.75
X6.175Y-2.25
X6.575Y-2.25
X11.9875Y-4.5
X12.3875Y-4.5
X4.8625Y-4.5
X5.2625Y-4.5
X10.3Y-4.5
X10.7Y-4.5
X4.8625Y-1.5
X5.2625Y-1.5
X5.8Y-2.25
X6.2Y-2.25
X8.9875Y-1.5
X9.3875Y-1.5
X4.3Y-3.75
X4.7Y-3.75
X14.6125Y-1.5
X15.0125Y-1.5
X2.1391Y-4.5
X2.5391Y-4.5
X3.925Y-1.5
X4.325Y-1.5
X8.9875Y-3.75
X9.3875Y-3.75
X6.55Y-1.3125
X6.95Y-1.3125
X7.3Y-3.
X7.7Y-3.
X8.8Y-3.
X9.2Y-3.
X13.8625Y-3.
X14.2625Y-3.
X7.3Y-3.75
X7.7Y-3.75
X13.8625Y-5.25
X14.2625Y-5.25
X2.6125Y-4.5
X3.0125Y-4.5
X10.675Y-1.3125
X11.075Y-1.3125
X1.7641Y-5.25
X2.1641Y-5.25
X13.1125Y-3.
X13.5125Y-3.
X9.3625Y-4.5
X9.7625Y-4.5
X6.7375Y-3.75
X7.1375Y-3.75
X8.425Y-2.25
X8.825Y-2.25
X11.05Y-3.75
X11.45Y-3.75
X5.425Y-2.25
X5.825Y-2.25
X11.05Y-4.5
X11.45Y-4.5
X9.7375Y-1.5
X10.1375Y-1.5
X9.55Y-4.5
X9.95Y-4.5
X9.925Y-1.5
X10.325Y-1.5
X5.05Y-2.25
X5.45Y-2.25
X11.6125Y-1.5
X12.0125Y-1.5
X6.55Y-3.
X6.95Y-3.
X5.8Y-1.5
X6.2Y-1.5
X7.3Y-2.25
X7.7Y-2.25
X10.8625Y-1.3125
X11.2625Y-1.3125
X7.1125Y-5.25
X7.5125Y-5.25
X3.7375Y-3.75
X4.1375Y-3.75
X11.6125Y-1.3125
X12.0125Y-1.3125
X8.425Y-5.25
X8.825Y-5.25
X2.8Y-3.
X3.2Y-3.
X13.8625Y-1.3125
X14.2625Y-1.3125
X2.6125Y-1.3125
X3.0125Y-1.3125
X12.175Y-2.25
X12.575Y-2.25
X11.1391Y-4.5
X11.5391Y-4.5
X11.8Y-2.25
X12.2Y-2.25
X4.3Y-3.
X4.7Y-3.
X10.3Y-3.
X10.7Y-3.
X8.8Y-3.75
X9.2Y-3.75
X8.05Y-1.5
X8.45Y-1.5
X8.2375Y-3.75
X8.6375Y-3.75
X10.3Y-3.75
X10.7Y-3.75
X7.675Y-2.25
X8.075Y-2.25
X6.55Y-2.25
X6.95Y-2.25
X4.3Y-2.25
X4.7Y-2.25
X12.175Y-1.5
X12.575Y-1.5
X5.05Y-4.5
X5.45Y-4.5
X3.175Y-1.5
X3.575Y-1.5
X5.8Y-3.75
X6.2Y-3.75
X4.8625Y-1.3125
X5.2625Y-1.3125
X6.55Y-3.75
X6.95Y-3.75
X9.7375Y-1.3125
X10.1375Y-1.3125
X11.05Y-5.25
X11.45Y-5.25
X4.675Y-1.3125
X5.075Y-1.3125
X8.2375Y-5.25
X8.6375Y-5.25
X5.425Y-1.3125
X5.825Y-1.3125
X10.675Y-5.25
X11.075Y-5.25
X4.675Y-1.5
X5.075Y-1.5
X1.675Y-1.3125
X2.075Y-1.3125
X1.9516Y-3.75
X2.3516Y-3.75
X10.675Y-2.25
X11.075Y-2.25
X4.3Y-4.5
X4.7Y-4.5
X10.1125Y-4.5
X10.5125Y-4.5
X4.4875Y-3.75
X4.8875Y-3.75
X7.3Y-4.5
X7.7Y-4.5
X4.675Y-2.25
X5.075Y-2.25
X3.925Y-2.25
X4.325Y-2.25
T2
X4.875Y-4.975
X9.375Y-4.975
X5.53Y-4.975
X6.47Y-4.975
X11.2441Y-4.225
X12.1841Y-4.225
X1.8691Y-4.225
X2.8091Y-4.225
X8.155Y-4.975
X9.095Y-4.975
X11.53Y-1.975
X12.47Y-1.975
X7.9675Y-4.975
X8.9075Y-4.975
X5.3425Y-4.975
X6.2825Y-4.975
X11.4316Y-3.475
X12.3716Y-3.475
T3
X3.375Y-1.3125
X3.5625Y-4.5
X1.875Y-2.25
X3.375Y-5.25
X12.375Y-4.5
X10.125Y-1.3125
X14.8125Y-1.3125
X11.625Y-1.3125
X10.3125Y-5.25
X6.Y-4.5
X12.275Y-5.25
X3.75Y-4.5
X9.375Y-2.25
X8.8125Y-4.5
X3.375Y-2.25
X10.125Y-2.25
X3.Y-4.5
X3.1875Y-3.75
X11.25Y-2.25
X8.25Y-3.
X8.25Y-2.25
X3.5625Y-1.5
X9.Y-4.5
X14.0625Y-1.5
X2.0625Y-3.
X13.3125Y-1.5
X5.8125Y-4.5
X4.125Y-1.3125
X4.3125Y-4.5
X14.0625Y-4.5
X5.53Y-5.575
X6.Y-5.25
X6.47Y-5.575
X9.9375Y-5.25
X11.2441Y-4.825
X11.7141Y-4.5
X12.1841Y-4.825
X7.5Y-1.3125
X3.9375Y-5.25
X4.3125Y-1.3125
X13.3125Y-2.25
X2.0625Y-5.25
X14.8125Y-3.
X5.4375Y-3.75
X6.5625Y-4.5
X6.1875Y-3.75
X6.375Y-2.25
X12.1875Y-4.5
X5.0625Y-4.5
X10.5Y-4.5
X5.0625Y-1.5
X6.Y-2.25
X9.1875Y-1.5
X4.5Y-3.75
X14.8125Y-1.5
X1.8691Y-4.825
X2.3391Y-4.5
X2.8091Y-4.825
X4.125Y-1.5
X9.1875Y-3.75
X6.75Y-1.3125
X7.5Y-3.
X9.Y-3.
X14.0625Y-3.
X7.5Y-3.75
X14.0625Y-5.25
X2.8125Y-4.5
X10.875Y-1.3125
X1.9641Y-5.25
X13.3125Y-3.
X9.5625Y-4.5
X6.9375Y-3.75
X8.625Y-2.25
X11.25Y-3.75
X5.625Y-2.25
X11.25Y-4.5
X9.9375Y-1.5
X9.75Y-4.5
X10.125Y-1.5
X5.25Y-2.25
X11.8125Y-1.5
X6.75Y-3.
X6.Y-1.5
X7.5Y-2.25
X11.0625Y-1.3125
X7.3125Y-5.25
X3.9375Y-3.75
X11.8125Y-1.3125
X8.155Y-5.575
X8.625Y-5.25
X9.095Y-5.575
X3.Y-3.
X14.0625Y-1.3125
X2.8125Y-1.3125
X12.375Y-2.25
X11.3391Y-4.5
X11.53Y-2.575
X12.Y-2.25
X12.47Y-2.575
X4.5Y-3.
X10.5Y-3.
X9.Y-3.75
X8.25Y-1.5
X8.4375Y-3.75
X10.5Y-3.75
X7.875Y-2.25
X6.75Y-2.25
X4.5Y-2.25
X12.375Y-1.5
X5.25Y-4.5
X3.375Y-1.5
X6.Y-3.75
X5.0625Y-1.3125
X6.75Y-3.75
X9.9375Y-1.3125
X11.25Y-5.25
X4.875Y-1.3125
X7.9675Y-5.575
X8.4375Y-5.25
X8.9075Y-5.575
X5.625Y-1.3125
X10.875Y-5.25
X4.875Y-1.5
X1.875Y-1.3125
X2.1516Y-3.75
X10.875Y-2.25
X4.5Y-4.5
X10.3125Y-4.5
X4.6875Y-3.75
X7.5Y-4.5
X4.875Y-2.25
X4.125Y-2.25
X7.6875Y-3.75
X12.1875Y-3.75
X14.0625Y-2.25
X10.5Y-2.25
X9.Y-1.5
X3.75Y-2.25
X4.3125Y-1.5
X3.75Y-3.
X3.Y-3.75
X9.Y-1.3125
X6.75Y-4.5
X8.25Y-1.3125
X5.3425Y-5.575
X5.8125Y-5.25
X6.2825Y-5.575
X5.25Y-3.75
X8.0625Y-4.5
X4.3125Y-5.25
X11.4316Y-4.075
X11.9016Y-3.75
X12.3716Y-4.075
X13.3125Y-5.25
X3.75Y-3.75
X10.6875Y-3.75
X8.25Y-4.5
X7.5Y-1.5
X10.875Y-1.5
X2.625Y-2.25
X2.0625Y-2.25
X6.75Y-1.5
X2.0625Y-3.75
X14.8125Y-2.25
X9.Y-2.25
X5.625Y-1.5
X3.Y-2.25
X11.0625Y-1.5
X1.9641Y-4.5
X6.Y-1.3125
X12.1875Y-3.
X9.1875Y-1.3125
X9.75Y-3.75
X3.Y-5.25
X12.375Y-1.3125
X9.75Y-3.
X6.Y-3.
X13.3125Y-1.3125
X11.625Y-2.25
X12.1875Y-5.25
X4.875Y-5.575
X7.125Y-5.25
X9.375Y-5.575
X7.125Y-2.25
X9.9375Y-3.75
X6.9375Y-5.25
X14.8125Y-5.25
X2.0625Y-4.5
X1.875Y-1.5
X12.1875Y-2.25
X11.25Y-3.
X9.75Y-2.25
X2.8125Y-1.5
X8.25Y-3.75
X11.625Y-1.5
X7.3125Y-4.5
X3.5625Y-1.3125
X5.25Y-3.
T0
M30
