M48
;DRILL file {KiCad (5.0.0-rc2-dev-733-g23a9fcd91)} date 09/05/18 17:39:25
;FORMAT={-:-/ absolute / inch / decimal}
FMAT,2
INCH,TZ
T1C0.0157
T2C0.0276
T3C0.0400
T4C0.0433
T5C0.0579
%
G90
G05
M72
T1
X2.1713Y-4.8238
X5.6625Y-4.4
X5.7431Y-4.8514
X7.7411Y-4.8425
X8.7638Y-5.3898
X9.5Y-4.8425
X9.6713Y-4.9026
X9.7254Y-3.3238
X10.4734Y-3.3179
X11.2598Y-3.2992
X12.0561Y-3.4075
X12.1053Y-3.3553
X12.1654Y-3.3445
X13.4567Y-4.877
X13.5079Y-4.937
X13.5699Y-4.9695
X14.438Y-5.2205
X14.5846Y-2.7539
T2
X8.2323Y-3.9764
X8.5394Y-3.9764
X2.7992Y-2.4803
X3.1063Y-2.4803
X5.0659Y-4.7244
X5.373Y-4.7244
X12.185Y-1.7047
X12.4921Y-1.7047
X8.7923Y-2.4764
X9.0994Y-2.4764
X5.7913Y-4.7244
X6.0984Y-4.7244
X12.7559Y-3.5866
X12.7559Y-3.8937
X14.6024Y-3.189
X14.9094Y-3.189
X3.3504Y-1.7008
X3.6575Y-1.7008
X13.0974Y-3.2283
X13.4045Y-3.2283
X12.7441Y-4.3081
X12.7441Y-4.6152
X8.0404Y-3.2323
X8.3474Y-3.2323
X13.8661Y-2.4764
X14.1732Y-2.4764
X3.0128Y-3.9764
X3.3199Y-3.9764
X13.8622Y-1.7323
X14.1693Y-1.7323
X14.6102Y-1.7323
X14.9173Y-1.7323
X10.1388Y-5.4724
X10.4459Y-5.4724
X5.8071Y-1.7087
X6.1142Y-1.7087
X9.5315Y-4.7244
X9.8386Y-4.7244
X8.0354Y-2.4803
X8.3425Y-2.4803
X2.1713Y-4.8238
X2.4783Y-4.8238
X13.1181Y-1.7323
X13.4252Y-1.7323
X7.2992Y-3.2362
X7.6063Y-3.2362
X8.7913Y-3.2283
X9.0984Y-3.2283
X13.1181Y-2.4803
X13.4252Y-2.4803
X4.2913Y-4.7244
X4.5984Y-4.7244
X9.5541Y-3.2283
X9.8612Y-3.2283
X10.6772Y-1.7323
X10.9843Y-1.7323
X11.1063Y-5.4724
X11.4134Y-5.4724
X8.9803Y-1.7047
X9.2874Y-1.7047
X7.7756Y-5.0945
X7.7756Y-5.4016
X4.8622Y-1.7126
X5.1693Y-1.7126
X13.9016Y-4.7244
X14.2087Y-4.7244
X6.5472Y-1.7087
X6.8543Y-1.7087
X13.1142Y-5.4724
X13.4213Y-5.4724
X11.5748Y-3.6093
X11.5748Y-3.9163
X1.8543Y-3.2283
X2.1614Y-3.2283
X7.4843Y-3.9764
X7.7913Y-3.9764
X3.7441Y-3.9764
X4.0512Y-3.9764
X2.0679Y-3.9764
X2.375Y-3.9764
X11.0433Y-3.2244
X11.3504Y-3.2244
X6.5787Y-3.2283
X6.8858Y-3.2283
X9.9173Y-1.7126
X10.2244Y-1.7126
X13.8789Y-5.4724
X14.186Y-5.4724
X3.1762Y-5.4724
X3.4833Y-5.4724
X4.064Y-1.7008
X4.3711Y-1.7008
X11.4902Y-4.7323
X11.7972Y-4.7323
X2.6457Y-1.7047
X2.9528Y-1.7047
X12.7559Y-2.0866
X12.7559Y-2.3937
X1.7165Y-1.7087
X2.0236Y-1.7087
X5.2362Y-3.9764
X5.5433Y-3.9764
X13.8622Y-3.2283
X14.1693Y-3.2283
X3.5472Y-4.7244
X3.8543Y-4.7244
X10.4803Y-3.9764
X10.7874Y-3.9764
X8.0472Y-1.7087
X8.3543Y-1.7087
X8.4183Y-5.4921
X8.7254Y-5.4921
X8.0354Y-4.7244
X8.3425Y-4.7244
X14.5935Y-5.4724
X14.9006Y-5.4724
X10.3189Y-4.7244
X10.626Y-4.7244
X7.3002Y-2.4764
X7.6073Y-2.4764
X11.4144Y-1.7126
X11.7215Y-1.7126
X11.9764Y-3.2283
X12.2835Y-3.2283
X6.753Y-3.9764
X7.06Y-3.9764
X2.8346Y-3.2283
X3.1417Y-3.2283
X5.06Y-3.2283
X5.3671Y-3.2283
X14.6102Y-2.4803
X14.9173Y-2.4803
X7.2874Y-1.7323
X7.5945Y-1.7323
X2.0118Y-5.4724
X2.3189Y-5.4724
X5.0433Y-2.4803
X5.3504Y-2.4803
X5.7844Y-5.5
X6.0915Y-5.5
X10.2835Y-2.4803
X10.5906Y-2.4803
X6.5787Y-4.7244
X6.8858Y-4.7244
X6.562Y-2.4646
X6.8691Y-2.4646
X8.9803Y-3.9764
X9.2874Y-3.9764
X5.8031Y-2.4803
X6.1102Y-2.4803
X5.8081Y-3.2283
X6.1152Y-3.2283
X11.0669Y-2.4803
X11.374Y-2.4803
X11.7431Y-2.6535
X12.0502Y-2.6535
X4.4921Y-3.9764
X4.7992Y-3.9764
X9.7451Y-3.9764
X10.0522Y-3.9764
X3.5472Y-2.4724
X3.8543Y-2.4724
X8.811Y-4.7244
X9.1181Y-4.7244
X4.0984Y-5.4724
X4.4055Y-5.4724
X9.5433Y-2.4803
X9.8504Y-2.4803
X7.2913Y-4.7165
X7.5984Y-4.7165
X1.8583Y-2.4803
X2.1654Y-2.4803
X12.2215Y-5.4375
X12.5285Y-5.4375
X5.9803Y-3.9724
X6.2874Y-3.9724
X4.2953Y-2.4606
X4.6024Y-2.4606
X10.2963Y-3.2283
X10.6033Y-3.2283
X3.5472Y-3.2283
X3.8543Y-3.2283
X4.2953Y-3.2283
X4.6024Y-3.2283
X2.94Y-4.7244
X3.247Y-4.7244
T3
X12.8857Y-1.2031
X12.8857Y-1.4031
X12.8857Y-1.6031
X12.8957Y-1.3031
X12.8957Y-1.5031
T4
X13.5125Y-3.45
X13.5125Y-4.05
X13.6125Y-3.45
X13.6125Y-4.05
X13.7125Y-3.45
X13.7125Y-4.05
X13.8125Y-3.45
X13.8125Y-4.05
X13.9125Y-3.45
X13.9125Y-3.55
X13.9125Y-3.95
X13.9125Y-4.05
X14.0125Y-3.45
X14.0125Y-4.05
X14.1125Y-3.45
X14.1125Y-4.05
X14.2125Y-3.45
X14.2125Y-4.05
X14.3125Y-3.45
X14.3125Y-4.05
X14.4125Y-3.45
X14.4125Y-4.05
X14.5125Y-3.45
X14.5125Y-4.05
X14.6125Y-3.45
X14.6125Y-3.55
X14.6125Y-3.65
X14.6125Y-3.75
X14.6125Y-3.85
X14.6125Y-3.95
X14.6125Y-4.05
T5
X4.9125Y-4.4
X4.9641Y-4.3425
X5.1609Y-4.3228
X5.1625Y-4.3
X10.35Y-4.4
X10.4016Y-4.3425
X10.5984Y-4.3228
X10.6Y-4.3
X4.9125Y-1.4
X4.9641Y-1.3425
X5.1609Y-1.3228
X5.1625Y-1.3
X5.85Y-2.15
X5.9016Y-2.0925
X6.0984Y-2.0728
X6.1Y-2.05
X9.0375Y-1.4
X9.0891Y-1.3425
X9.2859Y-1.3228
X9.2875Y-1.3
X4.35Y-3.65
X4.4016Y-3.5925
X4.5984Y-3.5728
X4.6Y-3.55
X14.6625Y-1.4
X14.7141Y-1.3425
X14.9109Y-1.3228
X14.9125Y-1.3
X2.1891Y-4.4
X2.2406Y-4.3425
X2.4375Y-4.3228
X2.4391Y-4.3
X3.975Y-1.4
X4.0266Y-1.3425
X4.2234Y-1.3228
X4.225Y-1.3
X9.0375Y-3.65
X9.0891Y-3.5925
X9.2859Y-3.5728
X9.2875Y-3.55
X6.6Y-1.2125
X6.6516Y-1.155
X6.8484Y-1.1353
X6.85Y-1.1125
X7.35Y-2.9
X7.4016Y-2.8425
X7.5984Y-2.8228
X7.6Y-2.8
X8.85Y-2.9
X8.9016Y-2.8425
X9.0984Y-2.8228
X9.1Y-2.8
X13.9125Y-2.9
X13.9641Y-2.8425
X14.1609Y-2.8228
X14.1625Y-2.8
X7.35Y-3.65
X7.4016Y-3.5925
X7.5984Y-3.5728
X7.6Y-3.55
X13.9125Y-5.15
X13.9641Y-5.0925
X14.1609Y-5.0728
X14.1625Y-5.05
X2.6625Y-4.4
X2.7141Y-4.3425
X2.9109Y-4.3228
X2.9125Y-4.3
X10.725Y-1.2125
X10.7766Y-1.155
X10.9734Y-1.1353
X10.975Y-1.1125
X1.8141Y-5.15
X1.8656Y-5.0925
X2.0625Y-5.0728
X2.0641Y-5.05
X13.1625Y-2.9
X13.2141Y-2.8425
X13.4109Y-2.8228
X13.4125Y-2.8
X9.4125Y-4.4
X9.4641Y-4.3425
X9.6609Y-4.3228
X9.6625Y-4.3
X6.7875Y-3.65
X6.8391Y-3.5925
X7.0359Y-3.5728
X7.0375Y-3.55
X8.475Y-2.15
X8.5266Y-2.0925
X8.7234Y-2.0728
X8.725Y-2.05
X11.1Y-3.65
X11.1516Y-3.5925
X11.3484Y-3.5728
X11.35Y-3.55
X5.475Y-2.15
X5.5266Y-2.0925
X5.7234Y-2.0728
X5.725Y-2.05
X11.1Y-4.4
X11.1516Y-4.3425
X11.3484Y-4.3228
X11.35Y-4.3
X9.7875Y-1.4
X9.8391Y-1.3425
X10.0359Y-1.3228
X10.0375Y-1.3
X9.6Y-4.4
X9.6516Y-4.3425
X9.8484Y-4.3228
X9.85Y-4.3
X9.975Y-1.4
X10.0266Y-1.3425
X10.2234Y-1.3228
X10.225Y-1.3
X5.1Y-2.15
X5.1516Y-2.0925
X5.3484Y-2.0728
X5.35Y-2.05
X11.6625Y-1.4
X11.7141Y-1.3425
X11.9109Y-1.3228
X11.9125Y-1.3
X6.6Y-2.9
X6.6516Y-2.8425
X6.8484Y-2.8228
X6.85Y-2.8
X5.85Y-1.4
X5.9016Y-1.3425
X6.0984Y-1.3228
X6.1Y-1.3
X7.35Y-2.15
X7.4016Y-2.0925
X7.5984Y-2.0728
X7.6Y-2.05
X10.9125Y-1.2125
X10.9641Y-1.155
X11.1609Y-1.1353
X11.1625Y-1.1125
X7.1625Y-5.15
X7.2141Y-5.0925
X7.4109Y-5.0728
X7.4125Y-5.05
X3.7875Y-3.65
X3.8391Y-3.5925
X4.0359Y-3.5728
X4.0375Y-3.55
X11.6625Y-1.2125
X11.7141Y-1.155
X11.9109Y-1.1353
X11.9125Y-1.1125
X8.475Y-5.15
X8.5266Y-5.0925
X8.7234Y-5.0728
X8.725Y-5.05
X2.85Y-2.9
X2.9016Y-2.8425
X3.0984Y-2.8228
X3.1Y-2.8
X13.9125Y-1.2125
X13.9641Y-1.155
X14.1609Y-1.1353
X14.1625Y-1.1125
X2.6625Y-1.2125
X2.7141Y-1.155
X2.9109Y-1.1353
X2.9125Y-1.1125
X12.225Y-2.15
X12.2766Y-2.0925
X12.4734Y-2.0728
X12.475Y-2.05
X11.1891Y-4.4
X11.2406Y-4.3425
X11.4375Y-4.3228
X11.4391Y-4.3
X11.9Y-2.45
X11.9016Y-2.4272
X12.0984Y-2.4075
X12.15Y-2.35
X4.35Y-2.9
X4.4016Y-2.8425
X4.5984Y-2.8228
X4.6Y-2.8
X10.35Y-2.9
X10.4016Y-2.8425
X10.5984Y-2.8228
X10.6Y-2.8
X8.85Y-3.65
X8.9016Y-3.5925
X9.0984Y-3.5728
X9.1Y-3.55
X8.1Y-1.4
X8.1516Y-1.3425
X8.3484Y-1.3228
X8.35Y-1.3
X8.2875Y-3.65
X8.3391Y-3.5925
X8.5359Y-3.5728
X8.5375Y-3.55
X10.35Y-3.65
X10.4016Y-3.5925
X10.5984Y-3.5728
X10.6Y-3.55
X7.725Y-2.15
X7.7766Y-2.0925
X7.9734Y-2.0728
X7.975Y-2.05
X6.6Y-2.15
X6.6516Y-2.0925
X6.8484Y-2.0728
X6.85Y-2.05
X4.35Y-2.15
X4.4016Y-2.0925
X4.5984Y-2.0728
X4.6Y-2.05
X12.225Y-1.4
X12.2766Y-1.3425
X12.4734Y-1.3228
X12.475Y-1.3
X5.1Y-4.4
X5.1516Y-4.3425
X5.3484Y-4.3228
X5.35Y-4.3
X3.225Y-1.4
X3.2766Y-1.3425
X3.4734Y-1.3228
X3.475Y-1.3
X5.85Y-3.65
X5.9016Y-3.5925
X6.0984Y-3.5728
X6.1Y-3.55
X4.9125Y-1.2125
X4.9641Y-1.155
X5.1609Y-1.1353
X5.1625Y-1.1125
X6.6Y-3.65
X6.6516Y-3.5925
X6.8484Y-3.5728
X6.85Y-3.55
X9.7875Y-1.2125
X9.8391Y-1.155
X10.0359Y-1.1353
X10.0375Y-1.1125
X11.1Y-5.15
X11.1516Y-5.0925
X11.3484Y-5.0728
X11.35Y-5.05
X4.725Y-1.2125
X4.7766Y-1.155
X4.9734Y-1.1353
X4.975Y-1.1125
X8.2875Y-5.15
X8.3391Y-5.0925
X8.5359Y-5.0728
X8.5375Y-5.05
X5.475Y-1.2125
X5.5266Y-1.155
X5.7234Y-1.1353
X5.725Y-1.1125
X10.725Y-5.15
X10.7766Y-5.0925
X10.9734Y-5.0728
X10.975Y-5.05
X4.725Y-1.4
X4.7766Y-1.3425
X4.9734Y-1.3228
X4.975Y-1.3
X1.725Y-1.2125
X1.7766Y-1.155
X1.9734Y-1.1353
X1.975Y-1.1125
X2.0016Y-3.65
X2.0531Y-3.5925
X2.25Y-3.5728
X2.2516Y-3.55
X10.725Y-2.15
X10.7766Y-2.0925
X10.9734Y-2.0728
X10.975Y-2.05
X4.35Y-4.4
X4.4016Y-4.3425
X4.5984Y-4.3228
X4.6Y-4.3
X10.1625Y-4.4
X10.2141Y-4.3425
X10.4109Y-4.3228
X10.4125Y-4.3
X4.5375Y-3.65
X4.5891Y-3.5925
X4.7859Y-3.5728
X4.7875Y-3.55
X7.35Y-4.4
X7.4016Y-4.3425
X7.5984Y-4.3228
X7.6Y-4.3
X4.725Y-2.15
X4.7766Y-2.0925
X4.9734Y-2.0728
X4.975Y-2.05
X3.975Y-2.15
X4.0266Y-2.0925
X4.2234Y-2.0728
X4.225Y-2.05
X7.5375Y-3.65
X7.5891Y-3.5925
X7.7859Y-3.5728
X7.7875Y-3.55
X12.0375Y-3.65
X12.0891Y-3.5925
X12.2859Y-3.5728
X12.2875Y-3.55
X13.9125Y-2.15
X13.9641Y-2.0925
X14.1609Y-2.0728
X14.1625Y-2.05
X10.35Y-2.15
X10.4016Y-2.0925
X10.5984Y-2.0728
X10.6Y-2.05
X8.85Y-1.4
X8.9016Y-1.3425
X9.0984Y-1.3228
X9.1Y-1.3
X3.6Y-2.15
X3.6516Y-2.0925
X3.8484Y-2.0728
X3.85Y-2.05
X4.1625Y-1.4
X4.2141Y-1.3425
X4.4109Y-1.3228
X4.4125Y-1.3
X3.6Y-2.9
X3.6516Y-2.8425
X3.8484Y-2.8228
X3.85Y-2.8
X2.85Y-3.65
X2.9016Y-3.5925
X3.0984Y-3.5728
X3.1Y-3.55
X8.85Y-1.2125
X8.9016Y-1.155
X9.0984Y-1.1353
X9.1Y-1.1125
X6.6Y-4.4
X6.6516Y-4.3425
X6.8484Y-4.3228
X6.85Y-4.3
X8.1Y-1.2125
X8.1516Y-1.155
X8.3484Y-1.1353
X8.35Y-1.1125
X5.6625Y-5.15
X5.7141Y-5.0925
X5.9109Y-5.0728
X5.9125Y-5.05
X5.1Y-3.65
X5.1516Y-3.5925
X5.3484Y-3.5728
X5.35Y-3.55
X7.9125Y-4.4
X7.9641Y-4.3425
X8.1609Y-4.3228
X8.1625Y-4.3
X4.1625Y-5.15
X4.2141Y-5.0925
X4.4109Y-5.0728
X4.4125Y-5.05
X11.7516Y-3.65
X11.8031Y-3.5925
X12.Y-3.5728
X12.0016Y-3.55
X13.1625Y-5.15
X13.2141Y-5.0925
X13.4109Y-5.0728
X13.4125Y-5.05
X3.6Y-3.65
X3.6516Y-3.5925
X3.8484Y-3.5728
X3.85Y-3.55
X10.5375Y-3.65
X10.5891Y-3.5925
X10.7859Y-3.5728
X10.7875Y-3.55
X8.1Y-4.4
X8.1516Y-4.3425
X8.3484Y-4.3228
X8.35Y-4.3
X7.35Y-1.4
X7.4016Y-1.3425
X7.5984Y-1.3228
X7.6Y-1.3
X10.725Y-1.4
X10.7766Y-1.3425
X10.9734Y-1.3228
X10.975Y-1.3
X2.475Y-2.15
X2.5266Y-2.0925
X2.7234Y-2.0728
X2.725Y-2.05
X1.9125Y-2.15
X1.9641Y-2.0925
X2.1609Y-2.0728
X2.1625Y-2.05
X6.6Y-1.4
X6.6516Y-1.3425
X6.8484Y-1.3228
X6.85Y-1.3
X1.9125Y-3.65
X1.9641Y-3.5925
X2.1609Y-3.5728
X2.1625Y-3.55
X14.6625Y-2.15
X14.7141Y-2.0925
X14.9109Y-2.0728
X14.9125Y-2.05
X8.85Y-2.15
X8.9016Y-2.0925
X9.0984Y-2.0728
X9.1Y-2.05
X5.475Y-1.4
X5.5266Y-1.3425
X5.7234Y-1.3228
X5.725Y-1.3
X2.85Y-2.15
X2.9016Y-2.0925
X3.0984Y-2.0728
X3.1Y-2.05
X10.9125Y-1.4
X10.9641Y-1.3425
X11.1609Y-1.3228
X11.1625Y-1.3
X1.8141Y-4.4
X1.8656Y-4.3425
X2.0625Y-4.3228
X2.0641Y-4.3
X5.85Y-1.2125
X5.9016Y-1.155
X6.0984Y-1.1353
X6.1Y-1.1125
X12.0375Y-2.9
X12.0891Y-2.8425
X12.2859Y-2.8228
X12.2875Y-2.8
X9.0375Y-1.2125
X9.0891Y-1.155
X9.2859Y-1.1353
X9.2875Y-1.1125
X9.6Y-3.65
X9.6516Y-3.5925
X9.8484Y-3.5728
X9.85Y-3.55
X2.85Y-5.15
X2.9016Y-5.0925
X3.0984Y-5.0728
X3.1Y-5.05
X12.225Y-1.2125
X12.2766Y-1.155
X12.4734Y-1.1353
X12.475Y-1.1125
X9.6Y-2.9
X9.6516Y-2.8425
X9.8484Y-2.8228
X9.85Y-2.8
X5.85Y-2.9
X5.9016Y-2.8425
X6.0984Y-2.8228
X6.1Y-2.8
X13.1625Y-1.2125
X13.2141Y-1.155
X13.4109Y-1.1353
X13.4125Y-1.1125
X11.475Y-2.15
X11.5266Y-2.0925
X11.7234Y-2.0728
X11.725Y-2.05
X12.0375Y-5.15
X12.0891Y-5.0925
X12.2859Y-5.0728
X12.2875Y-5.05
X7.025Y-5.45
X7.0266Y-5.4272
X7.2234Y-5.4075
X7.275Y-5.35
X6.975Y-2.15
X7.0266Y-2.0925
X7.2234Y-2.0728
X7.225Y-2.05
X9.7875Y-3.65
X9.8391Y-3.5925
X10.0359Y-3.5728
X10.0375Y-3.55
X6.7875Y-5.15
X6.8391Y-5.0925
X7.0359Y-5.0728
X7.0375Y-5.05
X14.6625Y-5.15
X14.7141Y-5.0925
X14.9109Y-5.0728
X14.9125Y-5.05
X1.9625Y-4.7
X1.9641Y-4.6772
X2.1609Y-4.6575
X2.2125Y-4.6
X1.725Y-1.4
X1.7766Y-1.3425
X1.9734Y-1.3228
X1.975Y-1.3
X12.0375Y-2.15
X12.0891Y-2.0925
X12.2859Y-2.0728
X12.2875Y-2.05
X11.1Y-2.9
X11.1516Y-2.8425
X11.3484Y-2.8228
X11.35Y-2.8
X9.6Y-2.15
X9.6516Y-2.0925
X9.8484Y-2.0728
X9.85Y-2.05
X2.6625Y-1.4
X2.7141Y-1.3425
X2.9109Y-1.3228
X2.9125Y-1.3
X8.1Y-3.65
X8.1516Y-3.5925
X8.3484Y-3.5728
X8.35Y-3.55
X11.475Y-1.4
X11.5266Y-1.3425
X11.7234Y-1.3228
X11.725Y-1.3
X7.1625Y-4.4
X7.2141Y-4.3425
X7.4109Y-4.3228
X7.4125Y-4.3
X3.4125Y-1.2125
X3.4641Y-1.155
X3.6609Y-1.1353
X3.6625Y-1.1125
X5.1Y-2.9
X5.1516Y-2.8425
X5.3484Y-2.8228
X5.35Y-2.8
X3.225Y-1.2125
X3.2766Y-1.155
X3.4734Y-1.1353
X3.475Y-1.1125
X3.4125Y-4.4
X3.4641Y-4.3425
X3.6609Y-4.3228
X3.6625Y-4.3
X1.725Y-2.15
X1.7766Y-2.0925
X1.9734Y-2.0728
X1.975Y-2.05
X3.225Y-5.15
X3.2766Y-5.0925
X3.4734Y-5.0728
X3.475Y-5.05
X12.225Y-4.4
X12.2766Y-4.3425
X12.4734Y-4.3228
X12.475Y-4.3
X9.975Y-1.2125
X10.0266Y-1.155
X10.2234Y-1.1353
X10.225Y-1.1125
X14.6625Y-1.2125
X14.7141Y-1.155
X14.9109Y-1.1353
X14.9125Y-1.1125
X11.475Y-1.2125
X11.5266Y-1.155
X11.7234Y-1.1353
X11.725Y-1.1125
X10.1625Y-5.15
X10.2141Y-5.0925
X10.4109Y-5.0728
X10.4125Y-5.05
X5.85Y-4.4
X5.9016Y-4.3425
X6.0984Y-4.3228
X6.1Y-4.3
X12.125Y-5.15
X12.1766Y-5.0925
X12.3734Y-5.0728
X12.375Y-5.05
X3.6Y-4.4
X3.6516Y-4.3425
X3.8484Y-4.3228
X3.85Y-4.3
X9.225Y-2.15
X9.2766Y-2.0925
X9.4734Y-2.0728
X9.475Y-2.05
X8.6625Y-4.4
X8.7141Y-4.3425
X8.9109Y-4.3228
X8.9125Y-4.3
X3.225Y-2.15
X3.2766Y-2.0925
X3.4734Y-2.0728
X3.475Y-2.05
X9.975Y-2.15
X10.0266Y-2.0925
X10.2234Y-2.0728
X10.225Y-2.05
X2.85Y-4.4
X2.9016Y-4.3425
X3.0984Y-4.3228
X3.1Y-4.3
X3.0375Y-3.65
X3.0891Y-3.5925
X3.2859Y-3.5728
X3.2875Y-3.55
X11.1Y-2.15
X11.1516Y-2.0925
X11.3484Y-2.0728
X11.35Y-2.05
X8.1Y-2.9
X8.1516Y-2.8425
X8.3484Y-2.8228
X8.35Y-2.8
X8.1Y-2.15
X8.1516Y-2.0925
X8.3484Y-2.0728
X8.35Y-2.05
X3.4125Y-1.4
X3.4641Y-1.3425
X3.6609Y-1.3228
X3.6625Y-1.3
X8.85Y-4.4
X8.9016Y-4.3425
X9.0984Y-4.3228
X9.1Y-4.3
X13.9125Y-1.4
X13.9641Y-1.3425
X14.1609Y-1.3228
X14.1625Y-1.3
X1.9125Y-2.9
X1.9641Y-2.8425
X2.1609Y-2.8228
X2.1625Y-2.8
X13.1625Y-1.4
X13.2141Y-1.3425
X13.4109Y-1.3228
X13.4125Y-1.3
X5.6625Y-4.4
X5.7141Y-4.3425
X5.9109Y-4.3228
X5.9125Y-4.3
X3.975Y-1.2125
X4.0266Y-1.155
X4.2234Y-1.1353
X4.225Y-1.1125
X4.1625Y-4.4
X4.2141Y-4.3425
X4.4109Y-4.3228
X4.4125Y-4.3
X13.9125Y-4.4
X13.9641Y-4.3425
X14.1609Y-4.3228
X14.1625Y-4.3
X5.85Y-5.15
X5.9016Y-5.0925
X6.0984Y-5.0728
X6.1Y-5.05
X9.7875Y-5.15
X9.8391Y-5.0925
X10.0359Y-5.0728
X10.0375Y-5.05
X11.5641Y-4.4
X11.6156Y-4.3425
X11.8125Y-4.3228
X11.8141Y-4.3
X7.35Y-1.2125
X7.4016Y-1.155
X7.5984Y-1.1353
X7.6Y-1.1125
X3.7875Y-5.15
X3.8391Y-5.0925
X4.0359Y-5.0728
X4.0375Y-5.05
X4.1625Y-1.2125
X4.2141Y-1.155
X4.4109Y-1.1353
X4.4125Y-1.1125
X13.1625Y-2.15
X13.2141Y-2.0925
X13.4109Y-2.0728
X13.4125Y-2.05
X1.9125Y-5.15
X1.9641Y-5.0925
X2.1609Y-5.0728
X2.1625Y-5.05
X14.6625Y-2.9
X14.7141Y-2.8425
X14.9109Y-2.8228
X14.9125Y-2.8
X5.2875Y-3.65
X5.3391Y-3.5925
X5.5359Y-3.5728
X5.5375Y-3.55
X6.4125Y-4.4
X6.4641Y-4.3425
X6.6609Y-4.3228
X6.6625Y-4.3
X6.0375Y-3.65
X6.0891Y-3.5925
X6.2859Y-3.5728
X6.2875Y-3.55
X6.225Y-2.15
X6.2766Y-2.0925
X6.4734Y-2.0728
X6.475Y-2.05
X12.0375Y-4.4
X12.0891Y-4.3425
X12.2859Y-4.3228
X12.2875Y-4.3
T2
X12.6988Y-0.8457G85X12.6988Y-0.9441
G05
X12.9862Y-0.8457G85X12.9862Y-0.9441
G05
T0
M30
