G04 #@! TF.GenerationSoftware,KiCad,Pcbnew,(5.0.0-rc2-dev-733-g23a9fcd91)*
G04 #@! TF.CreationDate,2018-09-05T17:39:11-04:00*
G04 #@! TF.ProjectId,comp1800,636F6D70313830302E6B696361645F70,rev?*
G04 #@! TF.SameCoordinates,Original*
G04 #@! TF.FileFunction,Copper,L2,Bot,Signal*
G04 #@! TF.FilePolarity,Positive*
%FSLAX46Y46*%
G04 Gerber Fmt 4.6, Leading zero omitted, Abs format (unit mm)*
G04 Created by KiCad (PCBNEW (5.0.0-rc2-dev-733-g23a9fcd91)) date 09/05/18 17:39:11*
%MOMM*%
%LPD*%
G01*
G04 APERTURE LIST*
%ADD10C,2.250000*%
%ADD11C,2.250000*%
%ADD12C,1.600000*%
%ADD13R,1.600000X1.600000*%
%ADD14R,2.500000X0.500000*%
%ADD15R,1.200000X1.200000*%
%ADD16R,0.500000X2.500000*%
%ADD17C,1.879600*%
%ADD18R,2.350000X0.800000*%
%ADD19R,0.500000X1.400000*%
%ADD20O,1.500000X4.000000*%
%ADD21C,0.800000*%
%ADD22C,0.250000*%
%ADD23C,0.254000*%
G04 APERTURE END LIST*
D10*
X254932500Y-128560000D03*
D11*
X254912500Y-128850000D02*
X254952500Y-128270000D01*
D10*
X254952500Y-128270000D03*
X249257501Y-130080000D03*
D11*
X248602500Y-130810000D02*
X249912502Y-129350000D01*
D10*
X249912500Y-129350000D03*
X354687500Y-110300000D03*
X354032501Y-111030000D03*
D11*
X353377500Y-111760000D02*
X354687502Y-110300000D01*
D10*
X359727500Y-109220000D03*
X359707500Y-109510000D03*
D11*
X359687500Y-109800000D02*
X359727500Y-109220000D01*
D12*
X353377500Y-100330000D03*
X353377500Y-90170000D03*
X343217500Y-102870000D03*
X345757500Y-102870000D03*
X348297500Y-102870000D03*
X350837500Y-102870000D03*
X353377500Y-102870000D03*
X355917500Y-102870000D03*
X358457500Y-102870000D03*
X360997500Y-102870000D03*
X363537500Y-102870000D03*
X366077500Y-102870000D03*
X368617500Y-102870000D03*
X371157500Y-102870000D03*
X371157500Y-100330000D03*
X371157500Y-97790000D03*
X371157500Y-92710000D03*
X371157500Y-90170000D03*
X371157500Y-87630000D03*
X368617500Y-87630000D03*
X366077500Y-87630000D03*
X363537500Y-87630000D03*
X360997500Y-87630000D03*
X358457500Y-87630000D03*
X355917500Y-87630000D03*
X353377500Y-87630000D03*
X350837500Y-87630000D03*
X348297500Y-87630000D03*
X345757500Y-87630000D03*
D13*
X343217500Y-87630000D03*
D12*
X371157500Y-95250000D03*
D10*
X359707500Y-71410000D03*
D11*
X359687500Y-71700000D02*
X359727500Y-71120000D01*
D10*
X359727500Y-71120000D03*
X354032501Y-72930000D03*
D11*
X353377500Y-73660000D02*
X354687502Y-72200000D01*
D10*
X354687500Y-72200000D03*
X316845000Y-28547500D03*
D11*
X316825000Y-28837500D02*
X316865000Y-28257500D01*
D10*
X316865000Y-28257500D03*
X311170001Y-30067500D03*
D11*
X310515000Y-30797500D02*
X311825002Y-29337500D01*
D10*
X311825000Y-29337500D03*
X212070000Y-28547500D03*
D11*
X212050000Y-28837500D02*
X212090000Y-28257500D01*
D10*
X212090000Y-28257500D03*
X206395001Y-30067500D03*
D11*
X205740000Y-30797500D02*
X207050002Y-29337500D01*
D10*
X207050000Y-29337500D03*
X193020000Y-28547500D03*
D11*
X193000000Y-28837500D02*
X193040000Y-28257500D01*
D10*
X193040000Y-28257500D03*
X187345001Y-30067500D03*
D11*
X186690000Y-30797500D02*
X188000002Y-29337500D01*
D10*
X188000000Y-29337500D03*
X259695000Y-28547500D03*
D11*
X259675000Y-28837500D02*
X259715000Y-28257500D01*
D10*
X259715000Y-28257500D03*
X254020001Y-30067500D03*
D11*
X253365000Y-30797500D02*
X254675002Y-29337500D01*
D10*
X254675000Y-29337500D03*
X121325000Y-29337500D03*
X120670001Y-30067500D03*
D11*
X120015000Y-30797500D02*
X121325002Y-29337500D01*
D10*
X126365000Y-28257500D03*
X126345000Y-28547500D03*
D11*
X126325000Y-28837500D02*
X126365000Y-28257500D01*
D10*
X302557500Y-28547500D03*
D11*
X302537500Y-28837500D02*
X302577500Y-28257500D01*
D10*
X302577500Y-28257500D03*
X296882501Y-30067500D03*
D11*
X296227500Y-30797500D02*
X297537502Y-29337500D01*
D10*
X297537500Y-29337500D03*
X112057500Y-28547500D03*
D11*
X112037500Y-28837500D02*
X112077500Y-28257500D01*
D10*
X112077500Y-28257500D03*
X106382501Y-30067500D03*
D11*
X105727500Y-30797500D02*
X107037502Y-29337500D01*
D10*
X107037500Y-29337500D03*
X254932500Y-28547500D03*
D11*
X254912500Y-28837500D02*
X254952500Y-28257500D01*
D10*
X254952500Y-28257500D03*
X249257501Y-30067500D03*
D11*
X248602500Y-30797500D02*
X249912502Y-29337500D01*
D10*
X249912500Y-29337500D03*
X145395000Y-28547500D03*
D11*
X145375000Y-28837500D02*
X145415000Y-28257500D01*
D10*
X145415000Y-28257500D03*
X139720001Y-30067500D03*
D11*
X139065000Y-30797500D02*
X140375002Y-29337500D01*
D10*
X140375000Y-29337500D03*
X292775000Y-29337500D03*
X292120001Y-30067500D03*
D11*
X291465000Y-30797500D02*
X292775002Y-29337500D01*
D10*
X297815000Y-28257500D03*
X297795000Y-28547500D03*
D11*
X297775000Y-28837500D02*
X297815000Y-28257500D01*
D10*
X173970000Y-28547500D03*
D11*
X173950000Y-28837500D02*
X173990000Y-28257500D01*
D10*
X173990000Y-28257500D03*
X168295001Y-30067500D03*
D11*
X167640000Y-30797500D02*
X168950002Y-29337500D01*
D10*
X168950000Y-29337500D03*
X278745000Y-28547500D03*
D11*
X278725000Y-28837500D02*
X278765000Y-28257500D01*
D10*
X278765000Y-28257500D03*
X273070001Y-30067500D03*
D11*
X272415000Y-30797500D02*
X273725002Y-29337500D01*
D10*
X273725000Y-29337500D03*
X102275000Y-29337500D03*
X101620001Y-30067500D03*
D11*
X100965000Y-30797500D02*
X102275002Y-29337500D01*
D10*
X107315000Y-28257500D03*
X107295000Y-28547500D03*
D11*
X107275000Y-28837500D02*
X107315000Y-28257500D01*
D10*
X88245000Y-28547500D03*
D11*
X88225000Y-28837500D02*
X88265000Y-28257500D01*
D10*
X88265000Y-28257500D03*
X82570001Y-30067500D03*
D11*
X81915000Y-30797500D02*
X83225002Y-29337500D01*
D10*
X83225000Y-29337500D03*
X230862500Y-29337500D03*
X230207501Y-30067500D03*
D11*
X229552500Y-30797500D02*
X230862502Y-29337500D01*
D10*
X235902500Y-28257500D03*
X235882500Y-28547500D03*
D11*
X235862500Y-28837500D02*
X235902500Y-28257500D01*
D10*
X93007500Y-28547500D03*
D11*
X92987500Y-28837500D02*
X93027500Y-28257500D01*
D10*
X93027500Y-28257500D03*
X87332501Y-30067500D03*
D11*
X86677500Y-30797500D02*
X87987502Y-29337500D01*
D10*
X87987500Y-29337500D03*
X226100000Y-29337500D03*
X225445001Y-30067500D03*
D11*
X224790000Y-30797500D02*
X226100002Y-29337500D01*
D10*
X231140000Y-28257500D03*
X231120000Y-28547500D03*
D11*
X231100000Y-28837500D02*
X231140000Y-28257500D01*
D10*
X126087500Y-29337500D03*
X125432501Y-30067500D03*
D11*
X124777500Y-30797500D02*
X126087502Y-29337500D01*
D10*
X131127500Y-28257500D03*
X131107500Y-28547500D03*
D11*
X131087500Y-28837500D02*
X131127500Y-28257500D01*
D10*
X149900000Y-29337500D03*
X149245001Y-30067500D03*
D11*
X148590000Y-30797500D02*
X149900002Y-29337500D01*
D10*
X154940000Y-28257500D03*
X154920000Y-28547500D03*
D11*
X154900000Y-28837500D02*
X154940000Y-28257500D01*
D10*
X283507500Y-28547500D03*
D11*
X283487500Y-28837500D02*
X283527500Y-28257500D01*
D10*
X283527500Y-28257500D03*
X277832501Y-30067500D03*
D11*
X277177500Y-30797500D02*
X278487502Y-29337500D01*
D10*
X278487500Y-29337500D03*
X83225000Y-34100000D03*
X82570001Y-34830000D03*
D11*
X81915000Y-35560000D02*
X83225002Y-34100000D01*
D10*
X88265000Y-33020000D03*
X88245000Y-33310000D03*
D11*
X88225000Y-33600000D02*
X88265000Y-33020000D01*
D10*
X107295000Y-33310000D03*
D11*
X107275000Y-33600000D02*
X107315000Y-33020000D01*
D10*
X107315000Y-33020000D03*
X101620001Y-34830000D03*
D11*
X100965000Y-35560000D02*
X102275002Y-34100000D01*
D10*
X102275000Y-34100000D03*
X126345000Y-33310000D03*
D11*
X126325000Y-33600000D02*
X126365000Y-33020000D01*
D10*
X126365000Y-33020000D03*
X120670001Y-34830000D03*
D11*
X120015000Y-35560000D02*
X121325002Y-34100000D01*
D10*
X121325000Y-34100000D03*
X140375000Y-34100000D03*
X139720001Y-34830000D03*
D11*
X139065000Y-35560000D02*
X140375002Y-34100000D01*
D10*
X145415000Y-33020000D03*
X145395000Y-33310000D03*
D11*
X145375000Y-33600000D02*
X145415000Y-33020000D01*
D10*
X154920000Y-33310000D03*
D11*
X154900000Y-33600000D02*
X154940000Y-33020000D01*
D10*
X154940000Y-33020000D03*
X149245001Y-34830000D03*
D11*
X148590000Y-35560000D02*
X149900002Y-34100000D01*
D10*
X149900000Y-34100000D03*
X335637500Y-34100000D03*
X334982501Y-34830000D03*
D11*
X334327500Y-35560000D02*
X335637502Y-34100000D01*
D10*
X340677500Y-33020000D03*
X340657500Y-33310000D03*
D11*
X340637500Y-33600000D02*
X340677500Y-33020000D01*
D10*
X378757500Y-33310000D03*
D11*
X378737500Y-33600000D02*
X378777500Y-33020000D01*
D10*
X378777500Y-33020000D03*
X373082501Y-34830000D03*
D11*
X372427500Y-35560000D02*
X373737502Y-34100000D01*
D10*
X373737500Y-34100000D03*
X359707500Y-33310000D03*
D11*
X359687500Y-33600000D02*
X359727500Y-33020000D01*
D10*
X359727500Y-33020000D03*
X354032501Y-34830000D03*
D11*
X353377500Y-35560000D02*
X354687502Y-34100000D01*
D10*
X354687500Y-34100000D03*
X278487500Y-34100000D03*
X277832501Y-34830000D03*
D11*
X277177500Y-35560000D02*
X278487502Y-34100000D01*
D10*
X283527500Y-33020000D03*
X283507500Y-33310000D03*
D11*
X283487500Y-33600000D02*
X283527500Y-33020000D01*
D10*
X297795000Y-33310000D03*
D11*
X297775000Y-33600000D02*
X297815000Y-33020000D01*
D10*
X297815000Y-33020000D03*
X292120001Y-34830000D03*
D11*
X291465000Y-35560000D02*
X292775002Y-34100000D01*
D10*
X292775000Y-34100000D03*
X131107500Y-33310000D03*
D11*
X131087500Y-33600000D02*
X131127500Y-33020000D01*
D10*
X131127500Y-33020000D03*
X125432501Y-34830000D03*
D11*
X124777500Y-35560000D02*
X126087502Y-34100000D01*
D10*
X126087500Y-34100000D03*
X107037500Y-34100000D03*
X106382501Y-34830000D03*
D11*
X105727500Y-35560000D02*
X107037502Y-34100000D01*
D10*
X112077500Y-33020000D03*
X112057500Y-33310000D03*
D11*
X112037500Y-33600000D02*
X112077500Y-33020000D01*
D10*
X311825000Y-34100000D03*
X311170001Y-34830000D03*
D11*
X310515000Y-35560000D02*
X311825002Y-34100000D01*
D10*
X316865000Y-33020000D03*
X316845000Y-33310000D03*
D11*
X316825000Y-33600000D02*
X316865000Y-33020000D01*
D10*
X297537500Y-34100000D03*
X296882501Y-34830000D03*
D11*
X296227500Y-35560000D02*
X297537502Y-34100000D01*
D10*
X302577500Y-33020000D03*
X302557500Y-33310000D03*
D11*
X302537500Y-33600000D02*
X302577500Y-33020000D01*
D10*
X231120000Y-33310000D03*
D11*
X231100000Y-33600000D02*
X231140000Y-33020000D01*
D10*
X231140000Y-33020000D03*
X225445001Y-34830000D03*
D11*
X224790000Y-35560000D02*
X226100002Y-34100000D01*
D10*
X226100000Y-34100000D03*
X235882500Y-33310000D03*
D11*
X235862500Y-33600000D02*
X235902500Y-33020000D01*
D10*
X235902500Y-33020000D03*
X230207501Y-34830000D03*
D11*
X229552500Y-35560000D02*
X230862502Y-34100000D01*
D10*
X230862500Y-34100000D03*
X87987500Y-34100000D03*
X87332501Y-34830000D03*
D11*
X86677500Y-35560000D02*
X87987502Y-34100000D01*
D10*
X93027500Y-33020000D03*
X93007500Y-33310000D03*
D11*
X92987500Y-33600000D02*
X93027500Y-33020000D01*
D10*
X254675000Y-34100000D03*
X254020001Y-34830000D03*
D11*
X253365000Y-35560000D02*
X254675002Y-34100000D01*
D10*
X259715000Y-33020000D03*
X259695000Y-33310000D03*
D11*
X259675000Y-33600000D02*
X259715000Y-33020000D01*
D10*
X73957500Y-33310000D03*
D11*
X73937500Y-33600000D02*
X73977500Y-33020000D01*
D10*
X73977500Y-33020000D03*
X68282501Y-34830000D03*
D11*
X67627500Y-35560000D02*
X68937502Y-34100000D01*
D10*
X68937500Y-34100000D03*
X188000000Y-34100000D03*
X187345001Y-34830000D03*
D11*
X186690000Y-35560000D02*
X188000002Y-34100000D01*
D10*
X193040000Y-33020000D03*
X193020000Y-33310000D03*
D11*
X193000000Y-33600000D02*
X193040000Y-33020000D01*
D10*
X273725000Y-34100000D03*
X273070001Y-34830000D03*
D11*
X272415000Y-35560000D02*
X273725002Y-34100000D01*
D10*
X278765000Y-33020000D03*
X278745000Y-33310000D03*
D11*
X278725000Y-33600000D02*
X278765000Y-33020000D01*
D10*
X168950000Y-34100000D03*
X168295001Y-34830000D03*
D11*
X167640000Y-35560000D02*
X168950002Y-34100000D01*
D10*
X173990000Y-33020000D03*
X173970000Y-33310000D03*
D11*
X173950000Y-33600000D02*
X173990000Y-33020000D01*
D10*
X207050000Y-34100000D03*
X206395001Y-34830000D03*
D11*
X205740000Y-35560000D02*
X207050002Y-34100000D01*
D10*
X212090000Y-33020000D03*
X212070000Y-33310000D03*
D11*
X212050000Y-33600000D02*
X212090000Y-33020000D01*
D10*
X249912500Y-34100000D03*
X249257501Y-34830000D03*
D11*
X248602500Y-35560000D02*
X249912502Y-34100000D01*
D10*
X254952500Y-33020000D03*
X254932500Y-33310000D03*
D11*
X254912500Y-33600000D02*
X254952500Y-33020000D01*
D10*
X50145000Y-33310000D03*
D11*
X50125000Y-33600000D02*
X50165000Y-33020000D01*
D10*
X50165000Y-33020000D03*
X44470001Y-34830000D03*
D11*
X43815000Y-35560000D02*
X45125002Y-34100000D01*
D10*
X45125000Y-34100000D03*
X173712500Y-129350000D03*
X173057501Y-130080000D03*
D11*
X172402500Y-130810000D02*
X173712502Y-129350000D01*
D10*
X178752500Y-128270000D03*
X178732500Y-128560000D03*
D11*
X178712500Y-128850000D02*
X178752500Y-128270000D01*
D10*
X254932500Y-90460000D03*
D11*
X254912500Y-90750000D02*
X254952500Y-90170000D01*
D10*
X254952500Y-90170000D03*
X249257501Y-91980000D03*
D11*
X248602500Y-92710000D02*
X249912502Y-91250000D01*
D10*
X249912500Y-91250000D03*
X83482500Y-90460000D03*
D11*
X83462500Y-90750000D02*
X83502500Y-90170000D01*
D10*
X83502500Y-90170000D03*
X77807501Y-91980000D03*
D11*
X77152500Y-92710000D02*
X78462502Y-91250000D01*
D10*
X78462500Y-91250000D03*
X164187500Y-110300000D03*
X163532501Y-111030000D03*
D11*
X162877500Y-111760000D02*
X164187502Y-110300000D01*
D10*
X169227500Y-109220000D03*
X169207500Y-109510000D03*
D11*
X169187500Y-109800000D02*
X169227500Y-109220000D01*
D10*
X131107500Y-109510000D03*
D11*
X131087500Y-109800000D02*
X131127500Y-109220000D01*
D10*
X131127500Y-109220000D03*
X125432501Y-111030000D03*
D11*
X124777500Y-111760000D02*
X126087502Y-110300000D01*
D10*
X126087500Y-110300000D03*
X116562500Y-91250000D03*
X115907501Y-91980000D03*
D11*
X115252500Y-92710000D02*
X116562502Y-91250000D01*
D10*
X121602500Y-90170000D03*
X121582500Y-90460000D03*
D11*
X121562500Y-90750000D02*
X121602500Y-90170000D01*
D10*
X111800000Y-72200000D03*
X111145001Y-72930000D03*
D11*
X110490000Y-73660000D02*
X111800002Y-72200000D01*
D10*
X116840000Y-71120000D03*
X116820000Y-71410000D03*
D11*
X116800000Y-71700000D02*
X116840000Y-71120000D01*
D10*
X135612500Y-91250000D03*
X134957501Y-91980000D03*
D11*
X134302500Y-92710000D02*
X135612502Y-91250000D01*
D10*
X140652500Y-90170000D03*
X140632500Y-90460000D03*
D11*
X140612500Y-90750000D02*
X140652500Y-90170000D01*
D10*
X154662500Y-91250000D03*
X154007501Y-91980000D03*
D11*
X153352500Y-92710000D02*
X154662502Y-91250000D01*
D10*
X159702500Y-90170000D03*
X159682500Y-90460000D03*
D11*
X159662500Y-90750000D02*
X159702500Y-90170000D01*
D10*
X173712500Y-91250000D03*
X173057501Y-91980000D03*
D11*
X172402500Y-92710000D02*
X173712502Y-91250000D01*
D10*
X178752500Y-90170000D03*
X178732500Y-90460000D03*
D11*
X178712500Y-90750000D02*
X178752500Y-90170000D01*
D10*
X207050000Y-72200000D03*
X206395001Y-72930000D03*
D11*
X205740000Y-73660000D02*
X207050002Y-72200000D01*
D10*
X212090000Y-71120000D03*
X212070000Y-71410000D03*
D11*
X212050000Y-71700000D02*
X212090000Y-71120000D01*
D10*
X197782500Y-90460000D03*
D11*
X197762500Y-90750000D02*
X197802500Y-90170000D01*
D10*
X197802500Y-90170000D03*
X192107501Y-91980000D03*
D11*
X191452500Y-92710000D02*
X192762502Y-91250000D01*
D10*
X192762500Y-91250000D03*
X245407500Y-109510000D03*
D11*
X245387500Y-109800000D02*
X245427500Y-109220000D01*
D10*
X245427500Y-109220000D03*
X239732501Y-111030000D03*
D11*
X239077500Y-111760000D02*
X240387502Y-110300000D01*
D10*
X240387500Y-110300000D03*
X221337500Y-110300000D03*
X220682501Y-111030000D03*
D11*
X220027500Y-111760000D02*
X221337502Y-110300000D01*
D10*
X226377500Y-109220000D03*
X226357500Y-109510000D03*
D11*
X226337500Y-109800000D02*
X226377500Y-109220000D01*
D10*
X240645000Y-52360000D03*
D11*
X240625000Y-52650000D02*
X240665000Y-52070000D01*
D10*
X240665000Y-52070000D03*
X234970001Y-53880000D03*
D11*
X234315000Y-54610000D02*
X235625002Y-53150000D01*
D10*
X235625000Y-53150000D03*
X69195000Y-52360000D03*
D11*
X69175000Y-52650000D02*
X69215000Y-52070000D01*
D10*
X69215000Y-52070000D03*
X63520001Y-53880000D03*
D11*
X62865000Y-54610000D02*
X64175002Y-53150000D01*
D10*
X64175000Y-53150000D03*
X211812500Y-91250000D03*
X211157501Y-91980000D03*
D11*
X210502500Y-92710000D02*
X211812502Y-91250000D01*
D10*
X216852500Y-90170000D03*
X216832500Y-90460000D03*
D11*
X216812500Y-90750000D02*
X216852500Y-90170000D01*
D10*
X83225000Y-53150000D03*
X82570001Y-53880000D03*
D11*
X81915000Y-54610000D02*
X83225002Y-53150000D01*
D10*
X88265000Y-52070000D03*
X88245000Y-52360000D03*
D11*
X88225000Y-52650000D02*
X88265000Y-52070000D01*
D10*
X107295000Y-52360000D03*
D11*
X107275000Y-52650000D02*
X107315000Y-52070000D01*
D10*
X107315000Y-52070000D03*
X101620001Y-53880000D03*
D11*
X100965000Y-54610000D02*
X102275002Y-53150000D01*
D10*
X102275000Y-53150000D03*
X121325000Y-53150000D03*
X120670001Y-53880000D03*
D11*
X120015000Y-54610000D02*
X121325002Y-53150000D01*
D10*
X126365000Y-52070000D03*
X126345000Y-52360000D03*
D11*
X126325000Y-52650000D02*
X126365000Y-52070000D01*
D10*
X140375000Y-53150000D03*
X139720001Y-53880000D03*
D11*
X139065000Y-54610000D02*
X140375002Y-53150000D01*
D10*
X145415000Y-52070000D03*
X145395000Y-52360000D03*
D11*
X145375000Y-52650000D02*
X145415000Y-52070000D01*
D10*
X159425000Y-53150000D03*
X158770001Y-53880000D03*
D11*
X158115000Y-54610000D02*
X159425002Y-53150000D01*
D10*
X164465000Y-52070000D03*
X164445000Y-52360000D03*
D11*
X164425000Y-52650000D02*
X164465000Y-52070000D01*
D10*
X178475000Y-53150000D03*
X177820001Y-53880000D03*
D11*
X177165000Y-54610000D02*
X178475002Y-53150000D01*
D10*
X183515000Y-52070000D03*
X183495000Y-52360000D03*
D11*
X183475000Y-52650000D02*
X183515000Y-52070000D01*
D10*
X202545000Y-52360000D03*
D11*
X202525000Y-52650000D02*
X202565000Y-52070000D01*
D10*
X202565000Y-52070000D03*
X196870001Y-53880000D03*
D11*
X196215000Y-54610000D02*
X197525002Y-53150000D01*
D10*
X197525000Y-53150000D03*
X216575000Y-53150000D03*
X215920001Y-53880000D03*
D11*
X215265000Y-54610000D02*
X216575002Y-53150000D01*
D10*
X221615000Y-52070000D03*
X221595000Y-52360000D03*
D11*
X221575000Y-52650000D02*
X221615000Y-52070000D01*
D10*
X264200000Y-72200000D03*
X263545001Y-72930000D03*
D11*
X262890000Y-73660000D02*
X264200002Y-72200000D01*
D10*
X269240000Y-71120000D03*
X269220000Y-71410000D03*
D11*
X269200000Y-71700000D02*
X269240000Y-71120000D01*
D10*
X288270000Y-71410000D03*
D11*
X288250000Y-71700000D02*
X288290000Y-71120000D01*
D10*
X288290000Y-71120000D03*
X282595001Y-72930000D03*
D11*
X281940000Y-73660000D02*
X283250002Y-72200000D01*
D10*
X283250000Y-72200000D03*
X268962500Y-91250000D03*
X268307501Y-91980000D03*
D11*
X267652500Y-92710000D02*
X268962502Y-91250000D01*
D10*
X274002500Y-90170000D03*
X273982500Y-90460000D03*
D11*
X273962500Y-90750000D02*
X274002500Y-90170000D01*
D10*
X378757500Y-52360000D03*
D11*
X378737500Y-52650000D02*
X378777500Y-52070000D01*
D10*
X378777500Y-52070000D03*
X373082501Y-53880000D03*
D11*
X372427500Y-54610000D02*
X373737502Y-53150000D01*
D10*
X373737500Y-53150000D03*
X254675000Y-53150000D03*
X254020001Y-53880000D03*
D11*
X253365000Y-54610000D02*
X254675002Y-53150000D01*
D10*
X259715000Y-52070000D03*
X259695000Y-52360000D03*
D11*
X259675000Y-52650000D02*
X259715000Y-52070000D01*
D10*
X373737500Y-129350000D03*
X373082501Y-130080000D03*
D11*
X372427500Y-130810000D02*
X373737502Y-129350000D01*
D10*
X378777500Y-128270000D03*
X378757500Y-128560000D03*
D11*
X378737500Y-128850000D02*
X378777500Y-128270000D01*
D10*
X264457500Y-109510000D03*
D11*
X264437500Y-109800000D02*
X264477500Y-109220000D01*
D10*
X264477500Y-109220000D03*
X258782501Y-111030000D03*
D11*
X258127500Y-111760000D02*
X259437502Y-110300000D01*
D10*
X259437500Y-110300000D03*
X359707500Y-52360000D03*
D11*
X359687500Y-52650000D02*
X359727500Y-52070000D01*
D10*
X359727500Y-52070000D03*
X354032501Y-53880000D03*
D11*
X353377500Y-54610000D02*
X354687502Y-53150000D01*
D10*
X354687500Y-53150000D03*
X290532500Y-109510000D03*
D11*
X290512500Y-109800000D02*
X290552500Y-109220000D01*
D10*
X290552500Y-109220000D03*
X284857501Y-111030000D03*
D11*
X284202500Y-111760000D02*
X285512502Y-110300000D01*
D10*
X285512500Y-110300000D03*
X340657500Y-128560000D03*
D11*
X340637500Y-128850000D02*
X340677500Y-128270000D01*
D10*
X340677500Y-128270000D03*
X334982501Y-130080000D03*
D11*
X334327500Y-130810000D02*
X335637502Y-129350000D01*
D10*
X335637500Y-129350000D03*
X354687500Y-129350000D03*
X354032501Y-130080000D03*
D11*
X353377500Y-130810000D02*
X354687502Y-129350000D01*
D10*
X359727500Y-128270000D03*
X359707500Y-128560000D03*
D11*
X359687500Y-128850000D02*
X359727500Y-128270000D01*
D10*
X340657500Y-71410000D03*
D11*
X340637500Y-71700000D02*
X340677500Y-71120000D01*
D10*
X340677500Y-71120000D03*
X334982501Y-72930000D03*
D11*
X334327500Y-73660000D02*
X335637502Y-72200000D01*
D10*
X335637500Y-72200000D03*
X378757500Y-71410000D03*
D11*
X378737500Y-71700000D02*
X378777500Y-71120000D01*
D10*
X378777500Y-71120000D03*
X373082501Y-72930000D03*
D11*
X372427500Y-73660000D02*
X373737502Y-72200000D01*
D10*
X373737500Y-72200000D03*
X278745000Y-52360000D03*
D11*
X278725000Y-52650000D02*
X278765000Y-52070000D01*
D10*
X278765000Y-52070000D03*
X273070001Y-53880000D03*
D11*
X272415000Y-54610000D02*
X273725002Y-53150000D01*
D10*
X273725000Y-53150000D03*
X107037500Y-129350000D03*
X106382501Y-130080000D03*
D11*
X105727500Y-130810000D02*
X107037502Y-129350000D01*
D10*
X112077500Y-128270000D03*
X112057500Y-128560000D03*
D11*
X112037500Y-128850000D02*
X112077500Y-128270000D01*
D10*
X102532500Y-128560000D03*
D11*
X102512500Y-128850000D02*
X102552500Y-128270000D01*
D10*
X102552500Y-128270000D03*
X96857501Y-130080000D03*
D11*
X96202500Y-130810000D02*
X97512502Y-129350000D01*
D10*
X97512500Y-129350000D03*
X309285000Y-129350000D03*
X308630001Y-130080000D03*
D11*
X307975000Y-130810000D02*
X309285002Y-129350000D01*
D10*
X314325000Y-128270000D03*
X314305000Y-128560000D03*
D11*
X314285000Y-128850000D02*
X314325000Y-128270000D01*
D10*
X307062500Y-129350000D03*
X306407501Y-130080000D03*
D11*
X305752500Y-130810000D02*
X307062502Y-129350000D01*
D10*
X312102500Y-128270000D03*
X312082500Y-128560000D03*
D11*
X312062500Y-128850000D02*
X312102500Y-128270000D01*
D10*
X311825000Y-53150000D03*
X311170001Y-53880000D03*
D11*
X310515000Y-54610000D02*
X311825002Y-53150000D01*
D10*
X316865000Y-52070000D03*
X316845000Y-52360000D03*
D11*
X316825000Y-52650000D02*
X316865000Y-52070000D01*
D10*
X57170000Y-90460000D03*
D11*
X57150000Y-90750000D02*
X57190000Y-90170000D01*
D10*
X57190000Y-90170000D03*
X51495001Y-91980000D03*
D11*
X50840000Y-92710000D02*
X52150002Y-91250000D01*
D10*
X52150000Y-91250000D03*
X47387500Y-129350000D03*
X46732501Y-130080000D03*
D11*
X46077500Y-130810000D02*
X47387502Y-129350000D01*
D10*
X52427500Y-128270000D03*
X52407500Y-128560000D03*
D11*
X52387500Y-128850000D02*
X52427500Y-128270000D01*
D10*
X54907500Y-128560000D03*
D11*
X54887500Y-128850000D02*
X54927500Y-128270000D01*
D10*
X54927500Y-128270000D03*
X49232501Y-130080000D03*
D11*
X48577500Y-130810000D02*
X49887502Y-129350000D01*
D10*
X49887500Y-129350000D03*
X259437500Y-129350000D03*
X258782501Y-130080000D03*
D11*
X258127500Y-130810000D02*
X259437502Y-129350000D01*
D10*
X264477500Y-128270000D03*
X264457500Y-128560000D03*
D11*
X264437500Y-128850000D02*
X264477500Y-128270000D01*
D10*
X297795000Y-52360000D03*
D11*
X297775000Y-52650000D02*
X297815000Y-52070000D01*
D10*
X297815000Y-52070000D03*
X292120001Y-53880000D03*
D11*
X291465000Y-54610000D02*
X292775002Y-53150000D01*
D10*
X292775000Y-53150000D03*
X304820000Y-90460000D03*
D11*
X304800000Y-90750000D02*
X304840000Y-90170000D01*
D10*
X304840000Y-90170000D03*
X299145001Y-91980000D03*
D11*
X298490000Y-92710000D02*
X299800002Y-91250000D01*
D10*
X299800000Y-91250000D03*
X45125000Y-29337500D03*
X44470001Y-30067500D03*
D11*
X43815000Y-30797500D02*
X45125002Y-29337500D01*
D10*
X50165000Y-28257500D03*
X50145000Y-28547500D03*
D11*
X50125000Y-28837500D02*
X50165000Y-28257500D01*
D10*
X68937500Y-29337500D03*
X68282501Y-30067500D03*
D11*
X67627500Y-30797500D02*
X68937502Y-29337500D01*
D10*
X73977500Y-28257500D03*
X73957500Y-28547500D03*
D11*
X73937500Y-28837500D02*
X73977500Y-28257500D01*
D10*
X311825000Y-110300000D03*
X311170001Y-111030000D03*
D11*
X310515000Y-111760000D02*
X311825002Y-110300000D01*
D10*
X316865000Y-109220000D03*
X316845000Y-109510000D03*
D11*
X316825000Y-109800000D02*
X316865000Y-109220000D01*
D10*
X68937500Y-110300000D03*
X68282501Y-111030000D03*
D11*
X67627500Y-111760000D02*
X68937502Y-110300000D01*
D10*
X73977500Y-109220000D03*
X73957500Y-109510000D03*
D11*
X73937500Y-109800000D02*
X73977500Y-109220000D01*
D10*
X340657500Y-52360000D03*
D11*
X340637500Y-52650000D02*
X340677500Y-52070000D01*
D10*
X340677500Y-52070000D03*
X334982501Y-53880000D03*
D11*
X334327500Y-54610000D02*
X335637502Y-53150000D01*
D10*
X335637500Y-53150000D03*
X373737500Y-29337500D03*
X373082501Y-30067500D03*
D11*
X372427500Y-30797500D02*
X373737502Y-29337500D01*
D10*
X378777500Y-28257500D03*
X378757500Y-28547500D03*
D11*
X378737500Y-28837500D02*
X378777500Y-28257500D01*
D10*
X340657500Y-28547500D03*
D11*
X340637500Y-28837500D02*
X340677500Y-28257500D01*
D10*
X340677500Y-28257500D03*
X334982501Y-30067500D03*
D11*
X334327500Y-30797500D02*
X335637502Y-29337500D01*
D10*
X335637500Y-29337500D03*
X354687500Y-29337500D03*
X354032501Y-30067500D03*
D11*
X353377500Y-30797500D02*
X354687502Y-29337500D01*
D10*
X359727500Y-28257500D03*
X359707500Y-28547500D03*
D11*
X359687500Y-28837500D02*
X359727500Y-28257500D01*
D10*
X61932500Y-109510000D03*
D11*
X61912500Y-109800000D02*
X61952500Y-109220000D01*
D10*
X61952500Y-109220000D03*
X56257501Y-111030000D03*
D11*
X55602500Y-111760000D02*
X56912502Y-110300000D01*
D10*
X56912500Y-110300000D03*
X52407500Y-109510000D03*
D11*
X52387500Y-109800000D02*
X52427500Y-109220000D01*
D10*
X52427500Y-109220000D03*
X46732501Y-111030000D03*
D11*
X46077500Y-111760000D02*
X47387502Y-110300000D01*
D10*
X47387500Y-110300000D03*
X295037500Y-110300000D03*
X294382501Y-111030000D03*
D11*
X293727500Y-111760000D02*
X295037502Y-110300000D01*
D10*
X300077500Y-109220000D03*
X300057500Y-109510000D03*
D11*
X300037500Y-109800000D02*
X300077500Y-109220000D01*
D10*
X154920000Y-128560000D03*
D11*
X154900000Y-128850000D02*
X154940000Y-128270000D01*
D10*
X154940000Y-128270000D03*
X149245001Y-130080000D03*
D11*
X148590000Y-130810000D02*
X149900002Y-129350000D01*
D10*
X149900000Y-129350000D03*
X150157500Y-128560000D03*
D11*
X150137500Y-128850000D02*
X150177500Y-128270000D01*
D10*
X150177500Y-128270000D03*
X144482501Y-130080000D03*
D11*
X143827500Y-130810000D02*
X145137502Y-129350000D01*
D10*
X145137500Y-129350000D03*
X188257500Y-128560000D03*
D11*
X188237500Y-128850000D02*
X188277500Y-128270000D01*
D10*
X188277500Y-128270000D03*
X182582501Y-130080000D03*
D11*
X181927500Y-130810000D02*
X183237502Y-129350000D01*
D10*
X183237500Y-129350000D03*
X216832500Y-128560000D03*
D11*
X216812500Y-128850000D02*
X216852500Y-128270000D01*
D10*
X216852500Y-128270000D03*
X211157501Y-130080000D03*
D11*
X210502500Y-130810000D02*
X211812502Y-129350000D01*
D10*
X211812500Y-129350000D03*
X216575000Y-129350000D03*
X215920001Y-130080000D03*
D11*
X215265000Y-130810000D02*
X216575002Y-129350000D01*
D10*
X221615000Y-128270000D03*
X221595000Y-128560000D03*
D11*
X221575000Y-128850000D02*
X221615000Y-128270000D01*
D10*
X54907500Y-71410000D03*
D11*
X54887500Y-71700000D02*
X54927500Y-71120000D01*
D10*
X54927500Y-71120000D03*
X49232501Y-72930000D03*
D11*
X48577500Y-73660000D02*
X49887502Y-72200000D01*
D10*
X49887500Y-72200000D03*
X50145000Y-52360000D03*
D11*
X50125000Y-52650000D02*
X50165000Y-52070000D01*
D10*
X50165000Y-52070000D03*
X44470001Y-53880000D03*
D11*
X43815000Y-54610000D02*
X45125002Y-53150000D01*
D10*
X45125000Y-53150000D03*
X88245000Y-128560000D03*
D11*
X88225000Y-128850000D02*
X88265000Y-128270000D01*
D10*
X88265000Y-128270000D03*
X82570001Y-130080000D03*
D11*
X81915000Y-130810000D02*
X83225002Y-129350000D01*
D10*
X83225000Y-129350000D03*
X78720000Y-128560000D03*
D11*
X78700000Y-128850000D02*
X78740000Y-128270000D01*
D10*
X78740000Y-128270000D03*
X73045001Y-130080000D03*
D11*
X72390000Y-130810000D02*
X73700002Y-129350000D01*
D10*
X73700000Y-129350000D03*
X278745000Y-128560000D03*
D11*
X278725000Y-128850000D02*
X278765000Y-128270000D01*
D10*
X278765000Y-128270000D03*
X273070001Y-130080000D03*
D11*
X272415000Y-130810000D02*
X273725002Y-129350000D01*
D10*
X273725000Y-129350000D03*
X283250000Y-129350000D03*
X282595001Y-130080000D03*
D11*
X281940000Y-130810000D02*
X283250002Y-129350000D01*
D10*
X288290000Y-128270000D03*
X288270000Y-128560000D03*
D11*
X288250000Y-128850000D02*
X288290000Y-128270000D01*
D10*
X230862500Y-91250000D03*
X230207501Y-91980000D03*
D11*
X229552500Y-92710000D02*
X230862502Y-91250000D01*
D10*
X235902500Y-90170000D03*
X235882500Y-90460000D03*
D11*
X235862500Y-90750000D02*
X235902500Y-90170000D01*
D10*
X207307500Y-109510000D03*
D11*
X207287500Y-109800000D02*
X207327500Y-109220000D01*
D10*
X207327500Y-109220000D03*
X201632501Y-111030000D03*
D11*
X200977500Y-111760000D02*
X202287502Y-110300000D01*
D10*
X202287500Y-110300000D03*
X183237500Y-110300000D03*
X182582501Y-111030000D03*
D11*
X181927500Y-111760000D02*
X183237502Y-110300000D01*
D10*
X188277500Y-109220000D03*
X188257500Y-109510000D03*
D11*
X188237500Y-109800000D02*
X188277500Y-109220000D01*
D10*
X231120000Y-71410000D03*
D11*
X231100000Y-71700000D02*
X231140000Y-71120000D01*
D10*
X231140000Y-71120000D03*
X225445001Y-72930000D03*
D11*
X224790000Y-73660000D02*
X226100002Y-72200000D01*
D10*
X226100000Y-72200000D03*
X73700000Y-72200000D03*
X73045001Y-72930000D03*
D11*
X72390000Y-73660000D02*
X73700002Y-72200000D01*
D10*
X78740000Y-71120000D03*
X78720000Y-71410000D03*
D11*
X78700000Y-71700000D02*
X78740000Y-71120000D01*
D10*
X130850000Y-72200000D03*
X130195001Y-72930000D03*
D11*
X129540000Y-73660000D02*
X130850002Y-72200000D01*
D10*
X135890000Y-71120000D03*
X135870000Y-71410000D03*
D11*
X135850000Y-71700000D02*
X135890000Y-71120000D01*
D10*
X102532500Y-90460000D03*
D11*
X102512500Y-90750000D02*
X102552500Y-90170000D01*
D10*
X102552500Y-90170000D03*
X96857501Y-91980000D03*
D11*
X96202500Y-92710000D02*
X97512502Y-91250000D01*
D10*
X97512500Y-91250000D03*
X149900000Y-72200000D03*
X149245001Y-72930000D03*
D11*
X148590000Y-73660000D02*
X149900002Y-72200000D01*
D10*
X154940000Y-71120000D03*
X154920000Y-71410000D03*
D11*
X154900000Y-71700000D02*
X154940000Y-71120000D01*
D10*
X188000000Y-72200000D03*
X187345001Y-72930000D03*
D11*
X186690000Y-73660000D02*
X188000002Y-72200000D01*
D10*
X193040000Y-71120000D03*
X193020000Y-71410000D03*
D11*
X193000000Y-71700000D02*
X193040000Y-71120000D01*
D10*
X145137500Y-110300000D03*
X144482501Y-111030000D03*
D11*
X143827500Y-111760000D02*
X145137502Y-110300000D01*
D10*
X150177500Y-109220000D03*
X150157500Y-109510000D03*
D11*
X150137500Y-109800000D02*
X150177500Y-109220000D01*
D10*
X92750000Y-72200000D03*
X92095001Y-72930000D03*
D11*
X91440000Y-73660000D02*
X92750002Y-72200000D01*
D10*
X97790000Y-71120000D03*
X97770000Y-71410000D03*
D11*
X97750000Y-71700000D02*
X97790000Y-71120000D01*
D10*
X107037500Y-110300000D03*
X106382501Y-111030000D03*
D11*
X105727500Y-111760000D02*
X107037502Y-110300000D01*
D10*
X112077500Y-109220000D03*
X112057500Y-109510000D03*
D11*
X112037500Y-109800000D02*
X112077500Y-109220000D01*
D10*
X168950000Y-72200000D03*
X168295001Y-72930000D03*
D11*
X167640000Y-73660000D02*
X168950002Y-72200000D01*
D10*
X173990000Y-71120000D03*
X173970000Y-71410000D03*
D11*
X173950000Y-71700000D02*
X173990000Y-71120000D01*
D10*
X93007500Y-109510000D03*
D11*
X92987500Y-109800000D02*
X93027500Y-109220000D01*
D10*
X93027500Y-109220000D03*
X87332501Y-111030000D03*
D11*
X86677500Y-111760000D02*
X87987502Y-110300000D01*
D10*
X87987500Y-110300000D03*
X250170000Y-71410000D03*
D11*
X250150000Y-71700000D02*
X250190000Y-71120000D01*
D10*
X250190000Y-71120000D03*
X244495001Y-72930000D03*
D11*
X243840000Y-73660000D02*
X245150002Y-72200000D01*
D10*
X245150000Y-72200000D03*
X312082500Y-71410000D03*
D11*
X312062500Y-71700000D02*
X312102500Y-71120000D01*
D10*
X312102500Y-71120000D03*
X306407501Y-72930000D03*
D11*
X305752500Y-73660000D02*
X307062502Y-72200000D01*
D10*
X307062500Y-72200000D03*
X245150000Y-91250000D03*
X244495001Y-91980000D03*
D11*
X243840000Y-92710000D02*
X245150002Y-91250000D01*
D10*
X250190000Y-90170000D03*
X250170000Y-90460000D03*
D11*
X250150000Y-90750000D02*
X250190000Y-90170000D01*
D10*
X73700000Y-91250000D03*
X73045001Y-91980000D03*
D11*
X72390000Y-92710000D02*
X73700002Y-91250000D01*
D10*
X78740000Y-90170000D03*
X78720000Y-90460000D03*
D11*
X78700000Y-90750000D02*
X78740000Y-90170000D01*
D10*
X168950000Y-110300000D03*
X168295001Y-111030000D03*
D11*
X167640000Y-111760000D02*
X168950002Y-110300000D01*
D10*
X173990000Y-109220000D03*
X173970000Y-109510000D03*
D11*
X173950000Y-109800000D02*
X173990000Y-109220000D01*
D10*
X130850000Y-110300000D03*
X130195001Y-111030000D03*
D11*
X129540000Y-111760000D02*
X130850002Y-110300000D01*
D10*
X135890000Y-109220000D03*
X135870000Y-109510000D03*
D11*
X135850000Y-109800000D02*
X135890000Y-109220000D01*
D10*
X116820000Y-90460000D03*
D11*
X116800000Y-90750000D02*
X116840000Y-90170000D01*
D10*
X116840000Y-90170000D03*
X111145001Y-91980000D03*
D11*
X110490000Y-92710000D02*
X111800002Y-91250000D01*
D10*
X111800000Y-91250000D03*
X130850000Y-91250000D03*
X130195001Y-91980000D03*
D11*
X129540000Y-92710000D02*
X130850002Y-91250000D01*
D10*
X135890000Y-90170000D03*
X135870000Y-90460000D03*
D11*
X135850000Y-90750000D02*
X135890000Y-90170000D01*
D10*
X154920000Y-90460000D03*
D11*
X154900000Y-90750000D02*
X154940000Y-90170000D01*
D10*
X154940000Y-90170000D03*
X149245001Y-91980000D03*
D11*
X148590000Y-92710000D02*
X149900002Y-91250000D01*
D10*
X149900000Y-91250000D03*
X168950000Y-91250000D03*
X168295001Y-91980000D03*
D11*
X167640000Y-92710000D02*
X168950002Y-91250000D01*
D10*
X173990000Y-90170000D03*
X173970000Y-90460000D03*
D11*
X173950000Y-90750000D02*
X173990000Y-90170000D01*
D10*
X188000000Y-91250000D03*
X187345001Y-91980000D03*
D11*
X186690000Y-92710000D02*
X188000002Y-91250000D01*
D10*
X193040000Y-90170000D03*
X193020000Y-90460000D03*
D11*
X193000000Y-90750000D02*
X193040000Y-90170000D01*
D10*
X250170000Y-109510000D03*
D11*
X250150000Y-109800000D02*
X250190000Y-109220000D01*
D10*
X250190000Y-109220000D03*
X244495001Y-111030000D03*
D11*
X243840000Y-111760000D02*
X245150002Y-110300000D01*
D10*
X245150000Y-110300000D03*
X226100000Y-110300000D03*
X225445001Y-111030000D03*
D11*
X224790000Y-111760000D02*
X226100002Y-110300000D01*
D10*
X231140000Y-109220000D03*
X231120000Y-109510000D03*
D11*
X231100000Y-109800000D02*
X231140000Y-109220000D01*
D10*
X212070000Y-90460000D03*
D11*
X212050000Y-90750000D02*
X212090000Y-90170000D01*
D10*
X212090000Y-90170000D03*
X206395001Y-91980000D03*
D11*
X205740000Y-92710000D02*
X207050002Y-91250000D01*
D10*
X207050000Y-91250000D03*
X78720000Y-52360000D03*
D11*
X78700000Y-52650000D02*
X78740000Y-52070000D01*
D10*
X78740000Y-52070000D03*
X73045001Y-53880000D03*
D11*
X72390000Y-54610000D02*
X73700002Y-53150000D01*
D10*
X73700000Y-53150000D03*
X92750000Y-53150000D03*
X92095001Y-53880000D03*
D11*
X91440000Y-54610000D02*
X92750002Y-53150000D01*
D10*
X97790000Y-52070000D03*
X97770000Y-52360000D03*
D11*
X97750000Y-52650000D02*
X97790000Y-52070000D01*
D10*
X116820000Y-52360000D03*
D11*
X116800000Y-52650000D02*
X116840000Y-52070000D01*
D10*
X116840000Y-52070000D03*
X111145001Y-53880000D03*
D11*
X110490000Y-54610000D02*
X111800002Y-53150000D01*
D10*
X111800000Y-53150000D03*
X130850000Y-53150000D03*
X130195001Y-53880000D03*
D11*
X129540000Y-54610000D02*
X130850002Y-53150000D01*
D10*
X135890000Y-52070000D03*
X135870000Y-52360000D03*
D11*
X135850000Y-52650000D02*
X135890000Y-52070000D01*
D10*
X154920000Y-52360000D03*
D11*
X154900000Y-52650000D02*
X154940000Y-52070000D01*
D10*
X154940000Y-52070000D03*
X149245001Y-53880000D03*
D11*
X148590000Y-54610000D02*
X149900002Y-53150000D01*
D10*
X149900000Y-53150000D03*
X168950000Y-53150000D03*
X168295001Y-53880000D03*
D11*
X167640000Y-54610000D02*
X168950002Y-53150000D01*
D10*
X173990000Y-52070000D03*
X173970000Y-52360000D03*
D11*
X173950000Y-52650000D02*
X173990000Y-52070000D01*
D10*
X193020000Y-52360000D03*
D11*
X193000000Y-52650000D02*
X193040000Y-52070000D01*
D10*
X193040000Y-52070000D03*
X187345001Y-53880000D03*
D11*
X186690000Y-54610000D02*
X188000002Y-53150000D01*
D10*
X188000000Y-53150000D03*
X207050000Y-53150000D03*
X206395001Y-53880000D03*
D11*
X205740000Y-54610000D02*
X207050002Y-53150000D01*
D10*
X212090000Y-52070000D03*
X212070000Y-52360000D03*
D11*
X212050000Y-52650000D02*
X212090000Y-52070000D01*
D10*
X231120000Y-52360000D03*
D11*
X231100000Y-52650000D02*
X231140000Y-52070000D01*
D10*
X231140000Y-52070000D03*
X225445001Y-53880000D03*
D11*
X224790000Y-54610000D02*
X226100002Y-53150000D01*
D10*
X226100000Y-53150000D03*
X245150000Y-53150000D03*
X244495001Y-53880000D03*
D11*
X243840000Y-54610000D02*
X245150002Y-53150000D01*
D10*
X250190000Y-52070000D03*
X250170000Y-52360000D03*
D11*
X250150000Y-52650000D02*
X250190000Y-52070000D01*
D10*
X264200000Y-91250000D03*
X263545001Y-91980000D03*
D11*
X262890000Y-92710000D02*
X264200002Y-91250000D01*
D10*
X269240000Y-90170000D03*
X269220000Y-90460000D03*
D11*
X269200000Y-90750000D02*
X269240000Y-90170000D01*
D10*
X269220000Y-52360000D03*
D11*
X269200000Y-52650000D02*
X269240000Y-52070000D01*
D10*
X269240000Y-52070000D03*
X263545001Y-53880000D03*
D11*
X262890000Y-54610000D02*
X264200002Y-53150000D01*
D10*
X264200000Y-53150000D03*
X264200000Y-110300000D03*
X263545001Y-111030000D03*
D11*
X262890000Y-111760000D02*
X264200002Y-110300000D01*
D10*
X269240000Y-109220000D03*
X269220000Y-109510000D03*
D11*
X269200000Y-109800000D02*
X269240000Y-109220000D01*
D10*
X283250000Y-53150000D03*
X282595001Y-53880000D03*
D11*
X281940000Y-54610000D02*
X283250002Y-53150000D01*
D10*
X288290000Y-52070000D03*
X288270000Y-52360000D03*
D11*
X288250000Y-52650000D02*
X288290000Y-52070000D01*
D10*
X312082500Y-52360000D03*
D11*
X312062500Y-52650000D02*
X312102500Y-52070000D01*
D10*
X312102500Y-52070000D03*
X306407501Y-53880000D03*
D11*
X305752500Y-54610000D02*
X307062502Y-53150000D01*
D10*
X307062500Y-53150000D03*
X49887500Y-91250000D03*
X49232501Y-91980000D03*
D11*
X48577500Y-92710000D02*
X49887502Y-91250000D01*
D10*
X54927500Y-90170000D03*
X54907500Y-90460000D03*
D11*
X54887500Y-90750000D02*
X54927500Y-90170000D01*
D10*
X307062500Y-91250000D03*
X306407501Y-91980000D03*
D11*
X305752500Y-92710000D02*
X307062502Y-91250000D01*
D10*
X312102500Y-90170000D03*
X312082500Y-90460000D03*
D11*
X312062500Y-90750000D02*
X312102500Y-90170000D01*
D10*
X288270000Y-109510000D03*
D11*
X288250000Y-109800000D02*
X288290000Y-109220000D01*
D10*
X288290000Y-109220000D03*
X282595001Y-111030000D03*
D11*
X281940000Y-111760000D02*
X283250002Y-110300000D01*
D10*
X283250000Y-110300000D03*
X312082500Y-109510000D03*
D11*
X312062500Y-109800000D02*
X312102500Y-109220000D01*
D10*
X312102500Y-109220000D03*
X306407501Y-111030000D03*
D11*
X305752500Y-111760000D02*
X307062502Y-110300000D01*
D10*
X307062500Y-110300000D03*
X78720000Y-109510000D03*
D11*
X78700000Y-109800000D02*
X78740000Y-109220000D01*
D10*
X78740000Y-109220000D03*
X73045001Y-111030000D03*
D11*
X72390000Y-111760000D02*
X73700002Y-110300000D01*
D10*
X73700000Y-110300000D03*
X49867500Y-119090000D03*
D11*
X49887500Y-118800000D02*
X49847500Y-119380000D01*
D10*
X49847500Y-119380000D03*
X55542499Y-117570000D03*
D11*
X56197500Y-116840000D02*
X54887498Y-118300000D01*
D10*
X54887500Y-118300000D03*
X49887500Y-53150000D03*
X49232501Y-53880000D03*
D11*
X48577500Y-54610000D02*
X49887502Y-53150000D01*
D10*
X54927500Y-52070000D03*
X54907500Y-52360000D03*
D11*
X54887500Y-52650000D02*
X54927500Y-52070000D01*
D10*
X231120000Y-90460000D03*
D11*
X231100000Y-90750000D02*
X231140000Y-90170000D01*
D10*
X231140000Y-90170000D03*
X225445001Y-91980000D03*
D11*
X224790000Y-92710000D02*
X226100002Y-91250000D01*
D10*
X226100000Y-91250000D03*
X207050000Y-110300000D03*
X206395001Y-111030000D03*
D11*
X205740000Y-111760000D02*
X207050002Y-110300000D01*
D10*
X212090000Y-109220000D03*
X212070000Y-109510000D03*
D11*
X212050000Y-109800000D02*
X212090000Y-109220000D01*
D10*
X193020000Y-109510000D03*
D11*
X193000000Y-109800000D02*
X193040000Y-109220000D01*
D10*
X193040000Y-109220000D03*
X187345001Y-111030000D03*
D11*
X186690000Y-111760000D02*
X188000002Y-110300000D01*
D10*
X188000000Y-110300000D03*
X97770000Y-90460000D03*
D11*
X97750000Y-90750000D02*
X97790000Y-90170000D01*
D10*
X97790000Y-90170000D03*
X92095001Y-91980000D03*
D11*
X91440000Y-92710000D02*
X92750002Y-91250000D01*
D10*
X92750000Y-91250000D03*
X149900000Y-110300000D03*
X149245001Y-111030000D03*
D11*
X148590000Y-111760000D02*
X149900002Y-110300000D01*
D10*
X154940000Y-109220000D03*
X154920000Y-109510000D03*
D11*
X154900000Y-109800000D02*
X154940000Y-109220000D01*
D10*
X116820000Y-109510000D03*
D11*
X116800000Y-109800000D02*
X116840000Y-109220000D01*
D10*
X116840000Y-109220000D03*
X111145001Y-111030000D03*
D11*
X110490000Y-111760000D02*
X111800002Y-110300000D01*
D10*
X111800000Y-110300000D03*
X92750000Y-110300000D03*
X92095001Y-111030000D03*
D11*
X91440000Y-111760000D02*
X92750002Y-110300000D01*
D10*
X97790000Y-109220000D03*
X97770000Y-109510000D03*
D11*
X97750000Y-109800000D02*
X97790000Y-109220000D01*
D10*
X283250000Y-91250000D03*
X282595001Y-91980000D03*
D11*
X281940000Y-92710000D02*
X283250002Y-91250000D01*
D10*
X288290000Y-90170000D03*
X288270000Y-90460000D03*
D11*
X288250000Y-90750000D02*
X288290000Y-90170000D01*
D14*
X50200000Y-43400000D03*
X44800000Y-43400000D03*
D12*
X51400000Y-43400000D03*
D13*
X43600000Y-43400000D03*
D15*
X45925000Y-43400000D03*
X49075000Y-43400000D03*
X72675000Y-43300000D03*
X69525000Y-43300000D03*
D13*
X67200000Y-43300000D03*
D12*
X75000000Y-43300000D03*
D14*
X68400000Y-43300000D03*
X73800000Y-43300000D03*
D15*
X90575000Y-43200000D03*
X87425000Y-43200000D03*
D13*
X85100000Y-43200000D03*
D12*
X92900000Y-43200000D03*
D14*
X86300000Y-43200000D03*
X91700000Y-43200000D03*
D15*
X108700000Y-43200000D03*
X105550000Y-43200000D03*
D13*
X103225000Y-43200000D03*
D12*
X111025000Y-43200000D03*
D14*
X104425000Y-43200000D03*
X109825000Y-43200000D03*
X130100000Y-43500000D03*
X124700000Y-43500000D03*
D12*
X131300000Y-43500000D03*
D13*
X123500000Y-43500000D03*
D15*
X125825000Y-43500000D03*
X128975000Y-43500000D03*
D14*
X154100000Y-43400000D03*
X148700000Y-43400000D03*
D12*
X155300000Y-43400000D03*
D13*
X147500000Y-43400000D03*
D15*
X149825000Y-43400000D03*
X152975000Y-43400000D03*
D14*
X172900000Y-43400000D03*
X167500000Y-43400000D03*
D12*
X174100000Y-43400000D03*
D13*
X166300000Y-43400000D03*
D15*
X168625000Y-43400000D03*
X171775000Y-43400000D03*
X190575000Y-44000000D03*
X187425000Y-44000000D03*
D13*
X185100000Y-44000000D03*
D12*
X192900000Y-44000000D03*
D14*
X186300000Y-44000000D03*
X191700000Y-44000000D03*
D15*
X209875000Y-43400000D03*
X206725000Y-43400000D03*
D13*
X204400000Y-43400000D03*
D12*
X212200000Y-43400000D03*
D14*
X205600000Y-43400000D03*
X211000000Y-43400000D03*
D15*
X233575000Y-43300000D03*
X230425000Y-43300000D03*
D13*
X228100000Y-43300000D03*
D12*
X235900000Y-43300000D03*
D14*
X229300000Y-43300000D03*
X234700000Y-43300000D03*
D15*
X257375000Y-43500000D03*
X254225000Y-43500000D03*
D13*
X251900000Y-43500000D03*
D12*
X259700000Y-43500000D03*
D14*
X253100000Y-43500000D03*
X258500000Y-43500000D03*
D15*
X276675000Y-44000000D03*
X273525000Y-44000000D03*
D13*
X271200000Y-44000000D03*
D12*
X279000000Y-44000000D03*
D14*
X272400000Y-44000000D03*
X277800000Y-44000000D03*
X296525000Y-43500000D03*
X291125000Y-43500000D03*
D12*
X297725000Y-43500000D03*
D13*
X289925000Y-43500000D03*
D15*
X292250000Y-43500000D03*
X295400000Y-43500000D03*
X314975000Y-43300000D03*
X311825000Y-43300000D03*
D13*
X309500000Y-43300000D03*
D12*
X317300000Y-43300000D03*
D14*
X310700000Y-43300000D03*
X316100000Y-43300000D03*
D15*
X338675000Y-44000000D03*
X335525000Y-44000000D03*
D13*
X333200000Y-44000000D03*
D12*
X341000000Y-44000000D03*
D14*
X334400000Y-44000000D03*
X339800000Y-44000000D03*
X358700000Y-44000000D03*
X353300000Y-44000000D03*
D12*
X359900000Y-44000000D03*
D13*
X352100000Y-44000000D03*
D15*
X354425000Y-44000000D03*
X357575000Y-44000000D03*
D14*
X377700000Y-44000000D03*
X372300000Y-44000000D03*
D12*
X378900000Y-44000000D03*
D13*
X371100000Y-44000000D03*
D15*
X373425000Y-44000000D03*
X376575000Y-44000000D03*
D16*
X324000000Y-92300000D03*
X324000000Y-97700000D03*
D12*
X324000000Y-91100000D03*
D13*
X324000000Y-98900000D03*
D15*
X324000000Y-96575000D03*
X324000000Y-93425000D03*
X52675000Y-63000000D03*
X49525000Y-63000000D03*
D13*
X47200000Y-63000000D03*
D12*
X55000000Y-63000000D03*
D14*
X48400000Y-63000000D03*
X53800000Y-63000000D03*
X77700000Y-63000000D03*
X72300000Y-63000000D03*
D12*
X78900000Y-63000000D03*
D13*
X71100000Y-63000000D03*
D15*
X73425000Y-63000000D03*
X76575000Y-63000000D03*
D14*
X96700000Y-62800000D03*
X91300000Y-62800000D03*
D12*
X97900000Y-62800000D03*
D13*
X90100000Y-62800000D03*
D15*
X92425000Y-62800000D03*
X95575000Y-62800000D03*
X114575000Y-62500000D03*
X111425000Y-62500000D03*
D13*
X109100000Y-62500000D03*
D12*
X116900000Y-62500000D03*
D14*
X110300000Y-62500000D03*
X115700000Y-62500000D03*
X134700000Y-63000000D03*
X129300000Y-63000000D03*
D12*
X135900000Y-63000000D03*
D13*
X128100000Y-63000000D03*
D15*
X130425000Y-63000000D03*
X133575000Y-63000000D03*
X152875000Y-63000000D03*
X149725000Y-63000000D03*
D13*
X147400000Y-63000000D03*
D12*
X155200000Y-63000000D03*
D14*
X148600000Y-63000000D03*
X154000000Y-63000000D03*
X173275000Y-62600000D03*
X167875000Y-62600000D03*
D12*
X174475000Y-62600000D03*
D13*
X166675000Y-62600000D03*
D15*
X169000000Y-62600000D03*
X172150000Y-62600000D03*
D14*
X192025000Y-62900000D03*
X186625000Y-62900000D03*
D12*
X193225000Y-62900000D03*
D13*
X185425000Y-62900000D03*
D15*
X187750000Y-62900000D03*
X190900000Y-62900000D03*
X209575000Y-63000000D03*
X206425000Y-63000000D03*
D13*
X204100000Y-63000000D03*
D12*
X211900000Y-63000000D03*
D14*
X205300000Y-63000000D03*
X210700000Y-63000000D03*
D15*
X228800000Y-62900000D03*
X225650000Y-62900000D03*
D13*
X223325000Y-62900000D03*
D12*
X231125000Y-62900000D03*
D14*
X224525000Y-62900000D03*
X229925000Y-62900000D03*
D15*
X247875000Y-63000000D03*
X244725000Y-63000000D03*
D13*
X242400000Y-63000000D03*
D12*
X250200000Y-63000000D03*
D14*
X243600000Y-63000000D03*
X249000000Y-63000000D03*
X267800000Y-63000000D03*
X262400000Y-63000000D03*
D12*
X269000000Y-63000000D03*
D13*
X261200000Y-63000000D03*
D15*
X263525000Y-63000000D03*
X266675000Y-63000000D03*
D14*
X287700000Y-63000000D03*
X282300000Y-63000000D03*
D12*
X288900000Y-63000000D03*
D13*
X281100000Y-63000000D03*
D15*
X283425000Y-63000000D03*
X286575000Y-63000000D03*
X324000000Y-55325000D03*
X324000000Y-58475000D03*
D13*
X324000000Y-60800000D03*
D12*
X324000000Y-53000000D03*
D16*
X324000000Y-59600000D03*
X324000000Y-54200000D03*
D15*
X303750000Y-67400000D03*
X300600000Y-67400000D03*
D13*
X298275000Y-67400000D03*
D12*
X306075000Y-67400000D03*
D14*
X299475000Y-67400000D03*
X304875000Y-67400000D03*
D15*
X338675000Y-63000000D03*
X335525000Y-63000000D03*
D13*
X333200000Y-63000000D03*
D12*
X341000000Y-63000000D03*
D14*
X334400000Y-63000000D03*
X339800000Y-63000000D03*
X358800000Y-62900000D03*
X353400000Y-62900000D03*
D12*
X360000000Y-62900000D03*
D13*
X352200000Y-62900000D03*
D15*
X354525000Y-62900000D03*
X357675000Y-62900000D03*
X376575000Y-63000000D03*
X373425000Y-63000000D03*
D13*
X371100000Y-63000000D03*
D12*
X378900000Y-63000000D03*
D14*
X372300000Y-63000000D03*
X377700000Y-63000000D03*
D15*
X323700000Y-111750000D03*
X323700000Y-114900000D03*
D13*
X323700000Y-117225000D03*
D12*
X323700000Y-109425000D03*
D16*
X323700000Y-116025000D03*
X323700000Y-110625000D03*
D14*
X53700000Y-82000000D03*
X48300000Y-82000000D03*
D12*
X54900000Y-82000000D03*
D13*
X47100000Y-82000000D03*
D15*
X49425000Y-82000000D03*
X52575000Y-82000000D03*
D14*
X78600000Y-82000000D03*
X73200000Y-82000000D03*
D12*
X79800000Y-82000000D03*
D13*
X72000000Y-82000000D03*
D15*
X74325000Y-82000000D03*
X77475000Y-82000000D03*
D14*
X96700000Y-82000000D03*
X91300000Y-82000000D03*
D12*
X97900000Y-82000000D03*
D13*
X90100000Y-82000000D03*
D15*
X92425000Y-82000000D03*
X95575000Y-82000000D03*
X114575000Y-82000000D03*
X111425000Y-82000000D03*
D13*
X109100000Y-82000000D03*
D12*
X116900000Y-82000000D03*
D14*
X110300000Y-82000000D03*
X115700000Y-82000000D03*
X135125000Y-82000000D03*
X129725000Y-82000000D03*
D12*
X136325000Y-82000000D03*
D13*
X128525000Y-82000000D03*
D15*
X130850000Y-82000000D03*
X134000000Y-82000000D03*
X153000000Y-82000000D03*
X149850000Y-82000000D03*
D13*
X147525000Y-82000000D03*
D12*
X155325000Y-82000000D03*
D14*
X148725000Y-82000000D03*
X154125000Y-82000000D03*
D15*
X172575000Y-82000000D03*
X169425000Y-82000000D03*
D13*
X167100000Y-82000000D03*
D12*
X174900000Y-82000000D03*
D14*
X168300000Y-82000000D03*
X173700000Y-82000000D03*
D15*
X190875000Y-82200000D03*
X187725000Y-82200000D03*
D13*
X185400000Y-82200000D03*
D12*
X193200000Y-82200000D03*
D14*
X186600000Y-82200000D03*
X192000000Y-82200000D03*
X210825000Y-82100000D03*
X205425000Y-82100000D03*
D12*
X212025000Y-82100000D03*
D13*
X204225000Y-82100000D03*
D15*
X206550000Y-82100000D03*
X209700000Y-82100000D03*
X228775000Y-82000000D03*
X225625000Y-82000000D03*
D13*
X223300000Y-82000000D03*
D12*
X231100000Y-82000000D03*
D14*
X224500000Y-82000000D03*
X229900000Y-82000000D03*
X249275000Y-82000000D03*
X243875000Y-82000000D03*
D12*
X250475000Y-82000000D03*
D13*
X242675000Y-82000000D03*
D15*
X245000000Y-82000000D03*
X248150000Y-82000000D03*
X267000000Y-82000000D03*
X263850000Y-82000000D03*
D13*
X261525000Y-82000000D03*
D12*
X269325000Y-82000000D03*
D14*
X262725000Y-82000000D03*
X268125000Y-82000000D03*
X287100000Y-81900000D03*
X281700000Y-81900000D03*
D12*
X288300000Y-81900000D03*
D13*
X280500000Y-81900000D03*
D15*
X282825000Y-81900000D03*
X285975000Y-81900000D03*
X309675000Y-82000000D03*
X306525000Y-82000000D03*
D13*
X304200000Y-82000000D03*
D12*
X312000000Y-82000000D03*
D14*
X305400000Y-82000000D03*
X310800000Y-82000000D03*
D15*
X338150000Y-82000000D03*
X335000000Y-82000000D03*
D13*
X332675000Y-82000000D03*
D12*
X340475000Y-82000000D03*
D14*
X333875000Y-82000000D03*
X339275000Y-82000000D03*
D15*
X357575000Y-82000000D03*
X354425000Y-82000000D03*
D13*
X352100000Y-82000000D03*
D12*
X359900000Y-82000000D03*
D14*
X353300000Y-82000000D03*
X358700000Y-82000000D03*
X377500000Y-81000000D03*
X372100000Y-81000000D03*
D12*
X378700000Y-81000000D03*
D13*
X370900000Y-81000000D03*
D15*
X373225000Y-81000000D03*
X376375000Y-81000000D03*
D14*
X59125000Y-101000000D03*
X53725000Y-101000000D03*
D12*
X60325000Y-101000000D03*
D13*
X52525000Y-101000000D03*
D15*
X54850000Y-101000000D03*
X58000000Y-101000000D03*
D14*
X83125000Y-101000000D03*
X77725000Y-101000000D03*
D12*
X84325000Y-101000000D03*
D13*
X76525000Y-101000000D03*
D15*
X78850000Y-101000000D03*
X82000000Y-101000000D03*
X100575000Y-101000000D03*
X97425000Y-101000000D03*
D13*
X95100000Y-101000000D03*
D12*
X102900000Y-101000000D03*
D14*
X96300000Y-101000000D03*
X101700000Y-101000000D03*
X120700000Y-101000000D03*
X115300000Y-101000000D03*
D12*
X121900000Y-101000000D03*
D13*
X114100000Y-101000000D03*
D15*
X116425000Y-101000000D03*
X119575000Y-101000000D03*
X138475000Y-101000000D03*
X135325000Y-101000000D03*
D13*
X133000000Y-101000000D03*
D12*
X140800000Y-101000000D03*
D14*
X134200000Y-101000000D03*
X139600000Y-101000000D03*
X158500000Y-100900000D03*
X153100000Y-100900000D03*
D12*
X159700000Y-100900000D03*
D13*
X151900000Y-100900000D03*
D15*
X154225000Y-100900000D03*
X157375000Y-100900000D03*
D14*
X178125000Y-101000000D03*
X172725000Y-101000000D03*
D12*
X179325000Y-101000000D03*
D13*
X171525000Y-101000000D03*
D15*
X173850000Y-101000000D03*
X177000000Y-101000000D03*
X195575000Y-101000000D03*
X192425000Y-101000000D03*
D13*
X190100000Y-101000000D03*
D12*
X197900000Y-101000000D03*
D14*
X191300000Y-101000000D03*
X196700000Y-101000000D03*
D15*
X214575000Y-101000000D03*
X211425000Y-101000000D03*
D13*
X209100000Y-101000000D03*
D12*
X216900000Y-101000000D03*
D14*
X210300000Y-101000000D03*
X215700000Y-101000000D03*
X234700000Y-101000000D03*
X229300000Y-101000000D03*
D12*
X235900000Y-101000000D03*
D13*
X228100000Y-101000000D03*
D15*
X230425000Y-101000000D03*
X233575000Y-101000000D03*
D14*
X254125000Y-101000000D03*
X248725000Y-101000000D03*
D12*
X255325000Y-101000000D03*
D13*
X247525000Y-101000000D03*
D15*
X249850000Y-101000000D03*
X253000000Y-101000000D03*
X271675000Y-101000000D03*
X268525000Y-101000000D03*
D13*
X266200000Y-101000000D03*
D12*
X274000000Y-101000000D03*
D14*
X267400000Y-101000000D03*
X272800000Y-101000000D03*
D16*
X294000000Y-92875000D03*
X294000000Y-98275000D03*
D12*
X294000000Y-91675000D03*
D13*
X294000000Y-99475000D03*
D15*
X294000000Y-97150000D03*
X294000000Y-94000000D03*
X60625000Y-122525000D03*
X57475000Y-122525000D03*
D13*
X55150000Y-122525000D03*
D12*
X62950000Y-122525000D03*
D14*
X56350000Y-122525000D03*
X61750000Y-122525000D03*
X81275000Y-120000000D03*
X75875000Y-120000000D03*
D12*
X82475000Y-120000000D03*
D13*
X74675000Y-120000000D03*
D15*
X77000000Y-120000000D03*
X80150000Y-120000000D03*
D14*
X96700000Y-120000000D03*
X91300000Y-120000000D03*
D12*
X97900000Y-120000000D03*
D13*
X90100000Y-120000000D03*
D15*
X92425000Y-120000000D03*
X95575000Y-120000000D03*
X114475000Y-120000000D03*
X111325000Y-120000000D03*
D13*
X109000000Y-120000000D03*
D12*
X116800000Y-120000000D03*
D14*
X110200000Y-120000000D03*
X115600000Y-120000000D03*
D15*
X134150000Y-120000000D03*
X131000000Y-120000000D03*
D13*
X128675000Y-120000000D03*
D12*
X136475000Y-120000000D03*
D14*
X129875000Y-120000000D03*
X135275000Y-120000000D03*
X153700000Y-120000000D03*
X148300000Y-120000000D03*
D12*
X154900000Y-120000000D03*
D13*
X147100000Y-120000000D03*
D15*
X149425000Y-120000000D03*
X152575000Y-120000000D03*
D14*
X173700000Y-120000000D03*
X168300000Y-120000000D03*
D12*
X174900000Y-120000000D03*
D13*
X167100000Y-120000000D03*
D15*
X169425000Y-120000000D03*
X172575000Y-120000000D03*
X190675000Y-119800000D03*
X187525000Y-119800000D03*
D13*
X185200000Y-119800000D03*
D12*
X193000000Y-119800000D03*
D14*
X186400000Y-119800000D03*
X191800000Y-119800000D03*
X210700000Y-120000000D03*
X205300000Y-120000000D03*
D12*
X211900000Y-120000000D03*
D13*
X204100000Y-120000000D03*
D15*
X206425000Y-120000000D03*
X209575000Y-120000000D03*
D14*
X230400000Y-120000000D03*
X225000000Y-120000000D03*
D12*
X231600000Y-120000000D03*
D13*
X223800000Y-120000000D03*
D15*
X226125000Y-120000000D03*
X229275000Y-120000000D03*
X247575000Y-120000000D03*
X244425000Y-120000000D03*
D13*
X242100000Y-120000000D03*
D12*
X249900000Y-120000000D03*
D14*
X243300000Y-120000000D03*
X248700000Y-120000000D03*
X268700000Y-120000000D03*
X263300000Y-120000000D03*
D12*
X269900000Y-120000000D03*
D13*
X262100000Y-120000000D03*
D15*
X264425000Y-120000000D03*
X267575000Y-120000000D03*
X297325000Y-120200000D03*
X294175000Y-120200000D03*
D13*
X291850000Y-120200000D03*
D12*
X299650000Y-120200000D03*
D14*
X293050000Y-120200000D03*
X298450000Y-120200000D03*
X359700000Y-120000000D03*
X354300000Y-120000000D03*
D12*
X360900000Y-120000000D03*
D13*
X353100000Y-120000000D03*
D15*
X355425000Y-120000000D03*
X358575000Y-120000000D03*
X56575000Y-139000000D03*
X53425000Y-139000000D03*
D13*
X51100000Y-139000000D03*
D12*
X58900000Y-139000000D03*
D14*
X52300000Y-139000000D03*
X57700000Y-139000000D03*
X87275000Y-139000000D03*
X81875000Y-139000000D03*
D12*
X88475000Y-139000000D03*
D13*
X80675000Y-139000000D03*
D15*
X83000000Y-139000000D03*
X86150000Y-139000000D03*
D14*
X110700000Y-139000000D03*
X105300000Y-139000000D03*
D12*
X111900000Y-139000000D03*
D13*
X104100000Y-139000000D03*
D15*
X106425000Y-139000000D03*
X109575000Y-139000000D03*
D14*
X153525000Y-139700000D03*
X148125000Y-139700000D03*
D12*
X154725000Y-139700000D03*
D13*
X146925000Y-139700000D03*
D15*
X149250000Y-139700000D03*
X152400000Y-139700000D03*
X197500000Y-131725000D03*
X197500000Y-134875000D03*
D13*
X197500000Y-137200000D03*
D12*
X197500000Y-129400000D03*
D16*
X197500000Y-136000000D03*
X197500000Y-130600000D03*
D15*
X219300000Y-139500000D03*
X216150000Y-139500000D03*
D13*
X213825000Y-139500000D03*
D12*
X221625000Y-139500000D03*
D14*
X215025000Y-139500000D03*
X220425000Y-139500000D03*
X264125000Y-139000000D03*
X258725000Y-139000000D03*
D12*
X265325000Y-139000000D03*
D13*
X257525000Y-139000000D03*
D15*
X259850000Y-139000000D03*
X263000000Y-139000000D03*
X287575000Y-139000000D03*
X284425000Y-139000000D03*
D13*
X282100000Y-139000000D03*
D12*
X289900000Y-139000000D03*
D14*
X283300000Y-139000000D03*
X288700000Y-139000000D03*
X317025000Y-138112500D03*
X311625000Y-138112500D03*
D12*
X318225000Y-138112500D03*
D13*
X310425000Y-138112500D03*
D15*
X312750000Y-138112500D03*
X315900000Y-138112500D03*
X338575000Y-139000000D03*
X335425000Y-139000000D03*
D13*
X333100000Y-139000000D03*
D12*
X340900000Y-139000000D03*
D14*
X334300000Y-139000000D03*
X339700000Y-139000000D03*
X359125000Y-139000000D03*
X353725000Y-139000000D03*
D12*
X360325000Y-139000000D03*
D13*
X352525000Y-139000000D03*
D15*
X354850000Y-139000000D03*
X358000000Y-139000000D03*
X376150000Y-139000000D03*
X373000000Y-139000000D03*
D13*
X370675000Y-139000000D03*
D12*
X378475000Y-139000000D03*
D14*
X371875000Y-139000000D03*
X377275000Y-139000000D03*
D10*
X178455000Y-138140000D03*
D11*
X178475000Y-137850000D02*
X178435000Y-138430000D01*
D10*
X178435000Y-138430000D03*
X184129999Y-136620000D03*
D11*
X184785000Y-135890000D02*
X183474998Y-137350000D01*
D10*
X183475000Y-137350000D03*
X302280000Y-61940000D03*
D11*
X302300000Y-61650000D02*
X302260000Y-62230000D01*
D10*
X302260000Y-62230000D03*
X307954999Y-60420000D03*
D11*
X308610000Y-59690000D02*
X307299998Y-61150000D01*
D10*
X307300000Y-61150000D03*
D17*
X327296000Y-40720000D03*
X327550000Y-38180000D03*
X327296000Y-35640000D03*
X327550000Y-33100000D03*
X327296000Y-30560000D03*
D18*
X328875000Y-19930000D03*
X323525000Y-19930000D03*
D19*
X324600000Y-25130000D03*
X325400000Y-25130000D03*
X326200000Y-25130000D03*
X327000000Y-25130000D03*
X327800000Y-25130000D03*
D20*
X322550000Y-22730000D03*
X329850000Y-22730000D03*
D21*
X306225000Y-86550000D03*
X247025000Y-84425000D03*
X370450000Y-69950000D03*
X55150000Y-122525000D03*
X366725000Y-132600000D03*
X222600000Y-136900000D03*
X145875000Y-123225000D03*
X143827500Y-111760000D03*
X343100000Y-125400000D03*
X245650000Y-124525000D03*
X196625000Y-123000000D03*
X344675000Y-126225000D03*
X241300000Y-123000000D03*
X341800000Y-123875000D03*
X307475000Y-85225000D03*
X266025000Y-84275000D03*
X309000000Y-84949990D03*
X286000000Y-83799990D03*
D22*
X248119999Y-107769999D02*
X250150000Y-109800000D01*
X243067501Y-107769999D02*
X248119999Y-107769999D01*
X239077500Y-111760000D02*
X243067501Y-107769999D01*
X243333998Y-92710000D02*
X243840000Y-92710000D01*
X239077500Y-96966498D02*
X243333998Y-92710000D01*
X239077500Y-111760000D02*
X239077500Y-96966498D01*
X252882499Y-88719999D02*
X254912500Y-90750000D01*
X247830001Y-88719999D02*
X252882499Y-88719999D01*
X243840000Y-92710000D02*
X247830001Y-88719999D01*
X243840000Y-75821974D02*
X243840000Y-73660000D01*
X245925001Y-77906975D02*
X243840000Y-75821974D01*
X243840000Y-92710000D02*
X245925001Y-90624999D01*
X235625000Y-55920000D02*
X234315000Y-54610000D01*
X235625000Y-65445000D02*
X235625000Y-55920000D01*
X243840000Y-73660000D02*
X235625000Y-65445000D01*
X234315000Y-54610000D02*
X243840000Y-54610000D01*
X248096498Y-35560000D02*
X248602500Y-35560000D01*
X234315000Y-49341498D02*
X248096498Y-35560000D01*
X234315000Y-54610000D02*
X234315000Y-49341498D01*
X248602500Y-35560000D02*
X248602500Y-30797500D01*
X258590001Y-27132501D02*
X259715000Y-28257500D01*
X258264999Y-26807499D02*
X258590001Y-27132501D01*
X252592501Y-26807499D02*
X258264999Y-26807499D01*
X248602500Y-30797500D02*
X252592501Y-26807499D01*
X259715000Y-33560000D02*
X259675000Y-33600000D01*
X259715000Y-28877500D02*
X259715000Y-33560000D01*
X259675000Y-28837500D02*
X259715000Y-28877500D01*
X306359001Y-86415999D02*
X306225000Y-86550000D01*
X348297500Y-87630000D02*
X347083499Y-86415999D01*
X347083499Y-86415999D02*
X306359001Y-86415999D01*
X246459315Y-84425000D02*
X246184315Y-84150000D01*
X247025000Y-84425000D02*
X246459315Y-84425000D01*
X246184315Y-84134314D02*
X245925001Y-83875000D01*
X246184315Y-84150000D02*
X246184315Y-84134314D01*
X245925001Y-90624999D02*
X245925001Y-83875000D01*
X245925001Y-83875000D02*
X245925001Y-77906975D01*
X83525001Y-100200001D02*
X84325000Y-101000000D01*
X82480527Y-100200001D02*
X83525001Y-100200001D01*
X78643599Y-96363073D02*
X82480527Y-100200001D01*
X78643599Y-90806401D02*
X78643599Y-96363073D01*
X78700000Y-90750000D02*
X78643599Y-90806401D01*
X72390000Y-130810000D02*
X81915000Y-130810000D01*
X67627500Y-126047500D02*
X67627500Y-111760000D01*
X72390000Y-130810000D02*
X67627500Y-126047500D01*
X72390000Y-95756002D02*
X72390000Y-92710000D01*
X67627500Y-100518502D02*
X72390000Y-95756002D01*
X67627500Y-111760000D02*
X67627500Y-100518502D01*
X72390000Y-79424998D02*
X72390000Y-73660000D01*
X70874999Y-80939999D02*
X72390000Y-79424998D01*
X70874999Y-91194999D02*
X70874999Y-80939999D01*
X72390000Y-92710000D02*
X70874999Y-91194999D01*
X71883998Y-54610000D02*
X72390000Y-54610000D01*
X69919999Y-56573999D02*
X71883998Y-54610000D01*
X69919999Y-71189999D02*
X69919999Y-56573999D01*
X72390000Y-73660000D02*
X69919999Y-71189999D01*
X62865000Y-54610000D02*
X72390000Y-54610000D01*
X67627500Y-32790000D02*
X67627500Y-35560000D01*
X67627500Y-30797500D02*
X67627500Y-32790000D01*
X62865000Y-39816498D02*
X62865000Y-54610000D01*
X67121498Y-35560000D02*
X62865000Y-39816498D01*
X67627500Y-35560000D02*
X67121498Y-35560000D01*
X76380001Y-88719999D02*
X72390000Y-92710000D01*
X81432499Y-88719999D02*
X76380001Y-88719999D01*
X83462500Y-90750000D02*
X81432499Y-88719999D01*
X67627500Y-108301478D02*
X67627500Y-111760000D01*
X70462979Y-105465999D02*
X67627500Y-108301478D01*
X74365999Y-105465999D02*
X70462979Y-105465999D01*
X78700000Y-109800000D02*
X74365999Y-105465999D01*
X347259244Y-144899989D02*
X80893987Y-144899989D01*
X348275033Y-143884200D02*
X347259244Y-144899989D01*
X354480011Y-107319989D02*
X348275033Y-113524967D01*
X359087511Y-107319989D02*
X354480011Y-107319989D01*
X72390000Y-136396002D02*
X72390000Y-130810000D01*
X363537500Y-102870000D02*
X359087511Y-107319989D01*
X348275033Y-113524967D02*
X348275033Y-143884200D01*
X80893987Y-144899989D02*
X72390000Y-136396002D01*
X167640000Y-35560000D02*
X167640000Y-30797500D01*
X160885000Y-54610000D02*
X158115000Y-54610000D01*
X167640000Y-54610000D02*
X160885000Y-54610000D01*
X158680001Y-55175001D02*
X158115000Y-54610000D01*
X158680001Y-64700001D02*
X158680001Y-55175001D01*
X167640000Y-73660000D02*
X158680001Y-64700001D01*
X167640000Y-38606002D02*
X167640000Y-35560000D01*
X158115000Y-48131002D02*
X167640000Y-38606002D01*
X158115000Y-54610000D02*
X158115000Y-48131002D01*
X170074999Y-90125001D02*
X168950000Y-91250000D01*
X170350001Y-89849999D02*
X170074999Y-90125001D01*
X170350001Y-81139999D02*
X170350001Y-89849999D01*
X167640000Y-78429998D02*
X170350001Y-81139999D01*
X167640000Y-73660000D02*
X167640000Y-78429998D01*
X176682499Y-88719999D02*
X178712500Y-90750000D01*
X171630001Y-88719999D02*
X176682499Y-88719999D01*
X167640000Y-92710000D02*
X171630001Y-88719999D01*
X167640000Y-102870000D02*
X173990000Y-109220000D01*
X167640000Y-92710000D02*
X167640000Y-102870000D01*
X165312499Y-109175001D02*
X164187500Y-110300000D01*
X166717501Y-107769999D02*
X165312499Y-109175001D01*
X171919999Y-107769999D02*
X166717501Y-107769999D01*
X173950000Y-109800000D02*
X171919999Y-107769999D01*
X171649999Y-130057499D02*
X172402500Y-130810000D01*
X171649999Y-120439997D02*
X171649999Y-130057499D01*
X170085001Y-118874999D02*
X171649999Y-120439997D01*
X166874999Y-118874999D02*
X170085001Y-118874999D01*
X162877500Y-114877500D02*
X166874999Y-118874999D01*
X162877500Y-111760000D02*
X162877500Y-114877500D01*
X185065990Y-137350000D02*
X183475000Y-137350000D01*
X188056401Y-134359589D02*
X185065990Y-137350000D01*
X188056401Y-132364903D02*
X188056401Y-134359589D01*
X186501498Y-130810000D02*
X188056401Y-132364903D01*
X181927500Y-130810000D02*
X186501498Y-130810000D01*
X188575000Y-142450000D02*
X183475000Y-137350000D01*
X197300000Y-142450000D02*
X188575000Y-142450000D01*
X208611410Y-138650000D02*
X201100000Y-138650000D01*
X221400000Y-141900000D02*
X211861410Y-141900000D01*
X201100000Y-138650000D02*
X197300000Y-142450000D01*
X211861410Y-141900000D02*
X208611410Y-138650000D01*
X224550000Y-138750000D02*
X221400000Y-141900000D01*
X241050000Y-138750000D02*
X224550000Y-138750000D01*
X346275000Y-111876090D02*
X346275000Y-142125000D01*
X346275000Y-142125000D02*
X345625000Y-142775000D01*
X353377500Y-104773590D02*
X346275000Y-111876090D01*
X353377500Y-102870000D02*
X353377500Y-104773590D01*
X345625000Y-142775000D02*
X245075000Y-142775000D01*
X245075000Y-142775000D02*
X241050000Y-138750000D01*
X169006401Y-113126401D02*
X167640000Y-111760000D01*
X169006401Y-115237771D02*
X169006401Y-113126401D01*
X173768630Y-120000000D02*
X169006401Y-115237771D01*
X174900000Y-120000000D02*
X173768630Y-120000000D01*
X130906401Y-113126401D02*
X129540000Y-111760000D01*
X130906401Y-115288375D02*
X130906401Y-113126401D01*
X134818027Y-119200001D02*
X130906401Y-115288375D01*
X135675001Y-119200001D02*
X134818027Y-119200001D01*
X136475000Y-120000000D02*
X135675001Y-119200001D01*
X120200001Y-52025001D02*
X121325000Y-53150000D01*
X120015000Y-51840000D02*
X120200001Y-52025001D01*
X120015000Y-35560000D02*
X120015000Y-51840000D01*
X126415356Y-54610000D02*
X129540000Y-54610000D01*
X120015000Y-54610000D02*
X126415356Y-54610000D01*
X120580001Y-64700001D02*
X129540000Y-73660000D01*
X120580001Y-55175001D02*
X120580001Y-64700001D01*
X120015000Y-54610000D02*
X120580001Y-55175001D01*
X127399999Y-90569999D02*
X129540000Y-92710000D01*
X127399999Y-80939999D02*
X127399999Y-90569999D01*
X129650001Y-78689997D02*
X127399999Y-80939999D01*
X129650001Y-73770001D02*
X129650001Y-78689997D01*
X129540000Y-73660000D02*
X129650001Y-73770001D01*
X138582499Y-88719999D02*
X140612500Y-90750000D01*
X133530001Y-88719999D02*
X138582499Y-88719999D01*
X129540000Y-92710000D02*
X133530001Y-88719999D01*
X124777500Y-96966498D02*
X124777500Y-111760000D01*
X129033998Y-92710000D02*
X124777500Y-96966498D01*
X129540000Y-92710000D02*
X129033998Y-92710000D01*
X135890000Y-108890000D02*
X135890000Y-109220000D01*
X134769999Y-107769999D02*
X135890000Y-108890000D01*
X124777500Y-111760000D02*
X128767501Y-107769999D01*
X128767501Y-107769999D02*
X134769999Y-107769999D01*
X143546510Y-129350000D02*
X145137500Y-129350000D01*
X135839998Y-129350000D02*
X143546510Y-129350000D01*
X124777500Y-118287502D02*
X135839998Y-129350000D01*
X124777500Y-111760000D02*
X124777500Y-118287502D01*
X153815001Y-127145001D02*
X154940000Y-128270000D01*
X153489999Y-126819999D02*
X153815001Y-127145001D01*
X147817501Y-126819999D02*
X153489999Y-126819999D01*
X143827500Y-130810000D02*
X147817501Y-126819999D01*
X346925000Y-111862500D02*
X355917500Y-102870000D01*
X346925000Y-143050000D02*
X346925000Y-111862500D01*
X346650000Y-143325000D02*
X346925000Y-143050000D01*
X244700000Y-143325000D02*
X346650000Y-143325000D01*
X240661099Y-139286099D02*
X244700000Y-143325000D01*
X225137427Y-139286099D02*
X240661099Y-139286099D01*
X221948526Y-142475000D02*
X225137427Y-139286099D01*
X211800000Y-142475000D02*
X221948526Y-142475000D01*
X155275000Y-128850000D02*
X169650000Y-143225000D01*
X154900000Y-128850000D02*
X155275000Y-128850000D01*
X169650000Y-143225000D02*
X197322526Y-143225000D01*
X197322526Y-143225000D02*
X201261427Y-139286099D01*
X201261427Y-139286099D02*
X208611099Y-139286099D01*
X208611099Y-139286099D02*
X211800000Y-142475000D01*
X131127500Y-29848490D02*
X131127500Y-28257500D01*
X120015000Y-30647500D02*
X121325000Y-29337500D01*
X120015000Y-35560000D02*
X120015000Y-30647500D01*
X130002501Y-27132501D02*
X131127500Y-28257500D01*
X129677499Y-26807499D02*
X130002501Y-27132501D01*
X124005001Y-26807499D02*
X129677499Y-26807499D01*
X120015000Y-30797500D02*
X124005001Y-26807499D01*
X131127500Y-28877500D02*
X131127500Y-33020000D01*
X131087500Y-28837500D02*
X131127500Y-28877500D01*
X370050000Y-44000000D02*
X371100000Y-44000000D01*
X368617500Y-45432500D02*
X370050000Y-44000000D01*
X368617500Y-87630000D02*
X368617500Y-45432500D01*
X51400000Y-34255000D02*
X50165000Y-33020000D01*
X51400000Y-43400000D02*
X51400000Y-34255000D01*
X50165000Y-28877500D02*
X50165000Y-33020000D01*
X50125000Y-28837500D02*
X50165000Y-28877500D01*
X114769999Y-107769999D02*
X116800000Y-109800000D01*
X109717501Y-107769999D02*
X114769999Y-107769999D01*
X105727500Y-111760000D02*
X109717501Y-107769999D01*
X111800000Y-105687500D02*
X111800000Y-91250000D01*
X105727500Y-111760000D02*
X111800000Y-105687500D01*
X119532499Y-88719999D02*
X121562500Y-90750000D01*
X114330001Y-88719999D02*
X119532499Y-88719999D01*
X111800000Y-91250000D02*
X114330001Y-88719999D01*
X110490000Y-92710000D02*
X110490000Y-85490000D01*
X107974999Y-82974999D02*
X107974999Y-74025001D01*
X110490000Y-85490000D02*
X107974999Y-82974999D01*
X108340000Y-73660000D02*
X110490000Y-73660000D01*
X107974999Y-74025001D02*
X108340000Y-73660000D01*
X102275000Y-55920000D02*
X100965000Y-54610000D01*
X102275000Y-65445000D02*
X102275000Y-55920000D01*
X110490000Y-73660000D02*
X102275000Y-65445000D01*
X100965000Y-54610000D02*
X110490000Y-54610000D01*
X100965000Y-54610000D02*
X100965000Y-35560000D01*
X102275000Y-32107500D02*
X100965000Y-30797500D01*
X102275000Y-34100000D02*
X102275000Y-32107500D01*
X110007499Y-26807499D02*
X112037500Y-28837500D01*
X104955001Y-26807499D02*
X110007499Y-26807499D01*
X100965000Y-30797500D02*
X104955001Y-26807499D01*
X112077500Y-33560000D02*
X112037500Y-33600000D01*
X112077500Y-28257500D02*
X112077500Y-33560000D01*
X134586427Y-143923901D02*
X118179999Y-127517473D01*
X358457500Y-102870000D02*
X355252500Y-106075000D01*
X118179999Y-111179999D02*
X116800000Y-109800000D01*
X118179999Y-127517473D02*
X118179999Y-111179999D01*
X346962510Y-143923901D02*
X134586427Y-143923901D01*
X347375011Y-112524989D02*
X347375011Y-143511400D01*
X353825000Y-106075000D02*
X347375011Y-112524989D01*
X355252500Y-106075000D02*
X353825000Y-106075000D01*
X347375011Y-143511400D02*
X346962510Y-143923901D01*
X120768630Y-101000000D02*
X121900000Y-101000000D01*
X116618901Y-96850271D02*
X120768630Y-101000000D01*
X116618901Y-94076401D02*
X116618901Y-96850271D01*
X115252500Y-92710000D02*
X116618901Y-94076401D01*
X73977500Y-28877500D02*
X73977500Y-33020000D01*
X73937500Y-28837500D02*
X73977500Y-28877500D01*
X75000000Y-34042500D02*
X73977500Y-33020000D01*
X75000000Y-43300000D02*
X75000000Y-34042500D01*
X88043901Y-32163901D02*
X86677500Y-30797500D01*
X88043901Y-39043901D02*
X88043901Y-32163901D01*
X91700000Y-42700000D02*
X88043901Y-39043901D01*
X91700000Y-43200000D02*
X91700000Y-42700000D01*
X105984474Y-35560000D02*
X105727500Y-35560000D01*
X107093901Y-34450573D02*
X105984474Y-35560000D01*
X107093901Y-32163901D02*
X107093901Y-34450573D01*
X105727500Y-30797500D02*
X107093901Y-32163901D01*
X109825000Y-42700000D02*
X109825000Y-43200000D01*
X107093901Y-39968901D02*
X109825000Y-42700000D01*
X107093901Y-36926401D02*
X107093901Y-39968901D01*
X105727500Y-35560000D02*
X107093901Y-36926401D01*
X126365000Y-28257500D02*
X126365000Y-32128026D01*
X126143901Y-36926401D02*
X124777500Y-35560000D01*
X126143901Y-39475271D02*
X126143901Y-36926401D01*
X130168630Y-43500000D02*
X126143901Y-39475271D01*
X131300000Y-43500000D02*
X130168630Y-43500000D01*
X155300000Y-34000000D02*
X154900000Y-33600000D01*
X155300000Y-43400000D02*
X155300000Y-34000000D01*
X147282500Y-26930000D02*
X145375000Y-28837500D01*
X152992500Y-26930000D02*
X147282500Y-26930000D01*
X154900000Y-28837500D02*
X152992500Y-26930000D01*
X155300000Y-28617500D02*
X154940000Y-28257500D01*
X155300000Y-43400000D02*
X155300000Y-28617500D01*
X145415000Y-33560000D02*
X145375000Y-33600000D01*
X145415000Y-28877500D02*
X145415000Y-33020000D01*
X145375000Y-28837500D02*
X145415000Y-28877500D01*
X174100000Y-33750000D02*
X173950000Y-33600000D01*
X174100000Y-43400000D02*
X174100000Y-33750000D01*
X173990000Y-33560000D02*
X173990000Y-28257500D01*
X173950000Y-33600000D02*
X173990000Y-33560000D01*
X173990000Y-28877500D02*
X173990000Y-33020000D01*
X173950000Y-28837500D02*
X173990000Y-28877500D01*
X192900000Y-33160000D02*
X193040000Y-33020000D01*
X192900000Y-44000000D02*
X192900000Y-33160000D01*
X193040000Y-28877500D02*
X193040000Y-33020000D01*
X193040000Y-33560000D02*
X193000000Y-33600000D01*
X193040000Y-28877500D02*
X193040000Y-33560000D01*
X193000000Y-28837500D02*
X193040000Y-28877500D01*
X212200000Y-33130000D02*
X212090000Y-33020000D01*
X212200000Y-43400000D02*
X212200000Y-33130000D01*
X212090000Y-33560000D02*
X212050000Y-33600000D01*
X212090000Y-28877500D02*
X212090000Y-33560000D01*
X212050000Y-28837500D02*
X212090000Y-28877500D01*
X229552500Y-30858026D02*
X229552500Y-30797500D01*
X230918901Y-32224427D02*
X229552500Y-30858026D01*
X230918901Y-39450271D02*
X230918901Y-32224427D01*
X234768630Y-43300000D02*
X230918901Y-39450271D01*
X235900000Y-43300000D02*
X234768630Y-43300000D01*
X254731401Y-32163901D02*
X253365000Y-30797500D01*
X254731401Y-39662771D02*
X254731401Y-32163901D01*
X258568630Y-43500000D02*
X254731401Y-39662771D01*
X259700000Y-43500000D02*
X258568630Y-43500000D01*
X278543901Y-33418901D02*
X278668599Y-33543599D01*
X278543901Y-29018599D02*
X278543901Y-33418901D01*
X278725000Y-28837500D02*
X278543901Y-29018599D01*
X279000000Y-42868630D02*
X279000000Y-44000000D01*
X278543901Y-42412531D02*
X279000000Y-42868630D01*
X278543901Y-36926401D02*
X278543901Y-42412531D01*
X277177500Y-35560000D02*
X278543901Y-36926401D01*
X297718599Y-37051099D02*
X296227500Y-35560000D01*
X297718599Y-42362229D02*
X297718599Y-37051099D01*
X297725000Y-42368630D02*
X297718599Y-42362229D01*
X297725000Y-43500000D02*
X297725000Y-42368630D01*
X297718599Y-33918901D02*
X297537500Y-34100000D01*
X297718599Y-28893901D02*
X297718599Y-33918901D01*
X297775000Y-28837500D02*
X297718599Y-28893901D01*
X317300000Y-33455000D02*
X316865000Y-33020000D01*
X317300000Y-43300000D02*
X317300000Y-33455000D01*
X316865000Y-28877500D02*
X316825000Y-28837500D01*
X316865000Y-33020000D02*
X316865000Y-28877500D01*
X341000000Y-33962500D02*
X340637500Y-33600000D01*
X341000000Y-44000000D02*
X341000000Y-33962500D01*
X340677500Y-33560000D02*
X340677500Y-28257500D01*
X340637500Y-33600000D02*
X340677500Y-33560000D01*
X359900000Y-33812500D02*
X359687500Y-33600000D01*
X359900000Y-44000000D02*
X359900000Y-33812500D01*
X359727500Y-33560000D02*
X359727500Y-28257500D01*
X359687500Y-33600000D02*
X359727500Y-33560000D01*
X378900000Y-33762500D02*
X378737500Y-33600000D01*
X378900000Y-44000000D02*
X378900000Y-33762500D01*
X378777500Y-28877500D02*
X378737500Y-28837500D01*
X378777500Y-33560000D02*
X378777500Y-28877500D01*
X378737500Y-33600000D02*
X378777500Y-33560000D01*
X306265156Y-92197344D02*
X305752500Y-92710000D01*
X322902656Y-92197344D02*
X306265156Y-92197344D01*
X324000000Y-91100000D02*
X322902656Y-92197344D01*
X304800000Y-91757500D02*
X305752500Y-92710000D01*
X304800000Y-90750000D02*
X304800000Y-91757500D01*
X371100000Y-64050000D02*
X371100000Y-63000000D01*
X371100000Y-69300000D02*
X371100000Y-64050000D01*
X370450000Y-69950000D02*
X371100000Y-69300000D01*
X50125000Y-53062500D02*
X48577500Y-54610000D01*
X50125000Y-52650000D02*
X50125000Y-53062500D01*
X53800000Y-62500000D02*
X53800000Y-63000000D01*
X49943901Y-58643901D02*
X53800000Y-62500000D01*
X49943901Y-55976401D02*
X49943901Y-58643901D01*
X48577500Y-54610000D02*
X49943901Y-55976401D01*
X78900000Y-52850000D02*
X78700000Y-52650000D01*
X78900000Y-63000000D02*
X78900000Y-52850000D01*
X70879999Y-50945001D02*
X69175000Y-52650000D01*
X76995001Y-50945001D02*
X70879999Y-50945001D01*
X78700000Y-52650000D02*
X76995001Y-50945001D01*
X97900000Y-52800000D02*
X97750000Y-52650000D01*
X97900000Y-62800000D02*
X97900000Y-52800000D01*
X89929999Y-50945001D02*
X88225000Y-52650000D01*
X96045001Y-50945001D02*
X89929999Y-50945001D01*
X97750000Y-52650000D02*
X96045001Y-50945001D01*
X116800000Y-60900000D02*
X116800000Y-52650000D01*
X115700000Y-62000000D02*
X116800000Y-60900000D01*
X115700000Y-62500000D02*
X115700000Y-62000000D01*
X108439999Y-50945001D02*
X107315000Y-52070000D01*
X115095001Y-50945001D02*
X108439999Y-50945001D01*
X116800000Y-52650000D02*
X115095001Y-50945001D01*
X135900000Y-52080000D02*
X135890000Y-52070000D01*
X135900000Y-63000000D02*
X135900000Y-52080000D01*
X128029999Y-50945001D02*
X126325000Y-52650000D01*
X134145001Y-50945001D02*
X128029999Y-50945001D01*
X135850000Y-52650000D02*
X134145001Y-50945001D01*
X155200000Y-52330000D02*
X154940000Y-52070000D01*
X155200000Y-63000000D02*
X155200000Y-52330000D01*
X146539999Y-50945001D02*
X145415000Y-52070000D01*
X153195001Y-50945001D02*
X146539999Y-50945001D01*
X154900000Y-52650000D02*
X153195001Y-50945001D01*
X174475000Y-53175000D02*
X173950000Y-52650000D01*
X174475000Y-62600000D02*
X174475000Y-53175000D01*
X165589999Y-50945001D02*
X164465000Y-52070000D01*
X172245001Y-50945001D02*
X165589999Y-50945001D01*
X173950000Y-52650000D02*
X172245001Y-50945001D01*
X193225000Y-52875000D02*
X193000000Y-52650000D01*
X193225000Y-62900000D02*
X193225000Y-52875000D01*
X185179999Y-50945001D02*
X183475000Y-52650000D01*
X191295001Y-50945001D02*
X185179999Y-50945001D01*
X193000000Y-52650000D02*
X191295001Y-50945001D01*
X212090000Y-53660990D02*
X212090000Y-52070000D01*
X212090000Y-55878026D02*
X212090000Y-53660990D01*
X211900000Y-56068026D02*
X212090000Y-55878026D01*
X211900000Y-63000000D02*
X211900000Y-56068026D01*
X203689999Y-50945001D02*
X202565000Y-52070000D01*
X210345001Y-50945001D02*
X203689999Y-50945001D01*
X212050000Y-52650000D02*
X210345001Y-50945001D01*
X231125000Y-52085000D02*
X231140000Y-52070000D01*
X231125000Y-62900000D02*
X231125000Y-52085000D01*
X223279999Y-50945001D02*
X221575000Y-52650000D01*
X229395001Y-50945001D02*
X223279999Y-50945001D01*
X231100000Y-52650000D02*
X229395001Y-50945001D01*
X242329999Y-50945001D02*
X240625000Y-52650000D01*
X248445001Y-50945001D02*
X242329999Y-50945001D01*
X250150000Y-52650000D02*
X248445001Y-50945001D01*
X250190000Y-53660990D02*
X250190000Y-52070000D01*
X250190000Y-56258026D02*
X250190000Y-53660990D01*
X250200000Y-56268026D02*
X250190000Y-56258026D01*
X250200000Y-63000000D02*
X250200000Y-56268026D01*
X269200000Y-58081974D02*
X269200000Y-52650000D01*
X269000000Y-58281974D02*
X269200000Y-58081974D01*
X269000000Y-63000000D02*
X269000000Y-58281974D01*
X260839999Y-50945001D02*
X259715000Y-52070000D01*
X267495001Y-50945001D02*
X260839999Y-50945001D01*
X269200000Y-52650000D02*
X267495001Y-50945001D01*
X288100001Y-52799999D02*
X288250000Y-52650000D01*
X288100001Y-62200001D02*
X288100001Y-52799999D01*
X288900000Y-63000000D02*
X288100001Y-62200001D01*
X280429999Y-50945001D02*
X278725000Y-52650000D01*
X287165001Y-50945001D02*
X280429999Y-50945001D01*
X288290000Y-52070000D02*
X287165001Y-50945001D01*
X370900000Y-82050000D02*
X370900000Y-81000000D01*
X372282501Y-83432501D02*
X370900000Y-82050000D01*
X372282501Y-89044999D02*
X372282501Y-83432501D01*
X371157500Y-90170000D02*
X372282501Y-89044999D01*
X310850001Y-54274999D02*
X310515000Y-54610000D01*
X322725001Y-54274999D02*
X310850001Y-54274999D01*
X324000000Y-53000000D02*
X322725001Y-54274999D01*
X312006099Y-56101099D02*
X310515000Y-54610000D01*
X312006099Y-58138375D02*
X312006099Y-56101099D01*
X310454474Y-59690000D02*
X312006099Y-58138375D01*
X308610000Y-59690000D02*
X310454474Y-59690000D01*
X305275001Y-66600001D02*
X306075000Y-67400000D01*
X304575001Y-66600001D02*
X305275001Y-66600001D01*
X297775000Y-59800000D02*
X304575001Y-66600001D01*
X297775000Y-52650000D02*
X297775000Y-59800000D01*
X341000000Y-53012500D02*
X340637500Y-52650000D01*
X341000000Y-63000000D02*
X341000000Y-53012500D01*
X360000000Y-52962500D02*
X359687500Y-52650000D01*
X360000000Y-62900000D02*
X360000000Y-52962500D01*
X378900000Y-52192500D02*
X378777500Y-52070000D01*
X378900000Y-63000000D02*
X378900000Y-52192500D01*
X377700000Y-63000000D02*
X378900000Y-63000000D01*
X314092501Y-107769999D02*
X312062500Y-109800000D01*
X322044999Y-107769999D02*
X314092501Y-107769999D01*
X323700000Y-109425000D02*
X322044999Y-107769999D01*
X301742499Y-108095001D02*
X300037500Y-109800000D01*
X307003503Y-108095001D02*
X301742499Y-108095001D01*
X308083503Y-109175001D02*
X307003503Y-108095001D01*
X310700001Y-109175001D02*
X308083503Y-109175001D01*
X311825000Y-110300000D02*
X310700001Y-109175001D01*
X54900000Y-71147500D02*
X54927500Y-71120000D01*
X54900000Y-82000000D02*
X54900000Y-71147500D01*
X79800000Y-72180000D02*
X78740000Y-71120000D01*
X79800000Y-82000000D02*
X79800000Y-72180000D01*
X97900000Y-71850000D02*
X97750000Y-71700000D01*
X97900000Y-82000000D02*
X97900000Y-71850000D01*
X116900000Y-71180000D02*
X116840000Y-71120000D01*
X116900000Y-82000000D02*
X116900000Y-71180000D01*
X136325000Y-72175000D02*
X135850000Y-71700000D01*
X136325000Y-82000000D02*
X136325000Y-72175000D01*
X155325000Y-71505000D02*
X154940000Y-71120000D01*
X155325000Y-82000000D02*
X155325000Y-71505000D01*
X174900000Y-72650000D02*
X173950000Y-71700000D01*
X174900000Y-82000000D02*
X174900000Y-72650000D01*
X193200000Y-71900000D02*
X193000000Y-71700000D01*
X193200000Y-82200000D02*
X193200000Y-71900000D01*
X212025000Y-71725000D02*
X212050000Y-71700000D01*
X212025000Y-82100000D02*
X212025000Y-71725000D01*
X231100000Y-82000000D02*
X231100000Y-71700000D01*
X250475000Y-71405000D02*
X250190000Y-71120000D01*
X250475000Y-82000000D02*
X250475000Y-71405000D01*
X269325000Y-71205000D02*
X269240000Y-71120000D01*
X269325000Y-82000000D02*
X269325000Y-71205000D01*
X288300000Y-71130000D02*
X288290000Y-71120000D01*
X288300000Y-81900000D02*
X288300000Y-71130000D01*
X324000000Y-97850000D02*
X324000000Y-98900000D01*
X328375000Y-93475000D02*
X324000000Y-97850000D01*
X364302500Y-93475000D02*
X328375000Y-93475000D01*
X371157500Y-100330000D02*
X364302500Y-93475000D01*
X312000000Y-71222500D02*
X312102500Y-71120000D01*
X312000000Y-82000000D02*
X312000000Y-71222500D01*
X340475000Y-71322500D02*
X340677500Y-71120000D01*
X340475000Y-82000000D02*
X340475000Y-71322500D01*
X359900000Y-71912500D02*
X359687500Y-71700000D01*
X359900000Y-82000000D02*
X359900000Y-71912500D01*
X378700000Y-71737500D02*
X378737500Y-71700000D01*
X378700000Y-81000000D02*
X378700000Y-71737500D01*
X58314999Y-91294999D02*
X57190000Y-90170000D01*
X60930001Y-93910001D02*
X58314999Y-91294999D01*
X60930001Y-99263629D02*
X60930001Y-93910001D01*
X60325000Y-99868630D02*
X60930001Y-99263629D01*
X60325000Y-101000000D02*
X60325000Y-99868630D01*
X55467500Y-90170000D02*
X57190000Y-90170000D01*
X54887500Y-90750000D02*
X55467500Y-90170000D01*
X102100001Y-100200001D02*
X102900000Y-101000000D01*
X101400001Y-100200001D02*
X102100001Y-100200001D01*
X97568901Y-96368901D02*
X101400001Y-100200001D01*
X97568901Y-94076401D02*
X97568901Y-96368901D01*
X96202500Y-92710000D02*
X97568901Y-94076401D01*
X140000001Y-100200001D02*
X140800000Y-101000000D01*
X139300001Y-100200001D02*
X140000001Y-100200001D01*
X135793599Y-96693599D02*
X139300001Y-100200001D01*
X135793599Y-91857391D02*
X135793599Y-96693599D01*
X135890000Y-91760990D02*
X135793599Y-91857391D01*
X135890000Y-90170000D02*
X135890000Y-91760990D01*
X158500000Y-100400000D02*
X158500000Y-100900000D01*
X154718901Y-96618901D02*
X158500000Y-100400000D01*
X154718901Y-94076401D02*
X154718901Y-96618901D01*
X153352500Y-92710000D02*
X154718901Y-94076401D01*
X173893599Y-94201099D02*
X172402500Y-92710000D01*
X173893599Y-96699969D02*
X173893599Y-94201099D01*
X178193630Y-101000000D02*
X173893599Y-96699969D01*
X179325000Y-101000000D02*
X178193630Y-101000000D01*
X196700000Y-100500000D02*
X196700000Y-101000000D01*
X192818901Y-96618901D02*
X196700000Y-100500000D01*
X192818901Y-94076401D02*
X192818901Y-96618901D01*
X191452500Y-92710000D02*
X192818901Y-94076401D01*
X211812500Y-92840990D02*
X211812500Y-91250000D01*
X211993599Y-93022089D02*
X211812500Y-92840990D01*
X211993599Y-96363073D02*
X211993599Y-93022089D01*
X215705525Y-100074999D02*
X211993599Y-96363073D01*
X215974999Y-100074999D02*
X215705525Y-100074999D01*
X216900000Y-101000000D02*
X215974999Y-100074999D01*
X231043599Y-97274969D02*
X231043599Y-92931099D01*
X235900000Y-101000000D02*
X234768630Y-101000000D01*
X234768630Y-101000000D02*
X231043599Y-97274969D01*
X230822500Y-92710000D02*
X229552500Y-92710000D01*
X231043599Y-92931099D02*
X230822500Y-92710000D01*
X269143599Y-94201099D02*
X267652500Y-92710000D01*
X269143599Y-97274969D02*
X269143599Y-94201099D01*
X272868630Y-101000000D02*
X269143599Y-97274969D01*
X274000000Y-101000000D02*
X272868630Y-101000000D01*
X289795000Y-91675000D02*
X288290000Y-90170000D01*
X294000000Y-91675000D02*
X289795000Y-91675000D01*
X49887500Y-119340000D02*
X49847500Y-119380000D01*
X49887500Y-118800000D02*
X49887500Y-119340000D01*
X61912500Y-115231974D02*
X61912500Y-109800000D01*
X56894474Y-120250000D02*
X61912500Y-115231974D01*
X51337500Y-120250000D02*
X56894474Y-120250000D01*
X49887500Y-118800000D02*
X51337500Y-120250000D01*
X53552499Y-108095001D02*
X52427500Y-109220000D01*
X60207501Y-108095001D02*
X53552499Y-108095001D01*
X61912500Y-109800000D02*
X60207501Y-108095001D01*
X61912500Y-121487500D02*
X61912500Y-115231974D01*
X62950000Y-122525000D02*
X61912500Y-121487500D01*
X355800000Y-120000000D02*
X354300000Y-120000000D01*
X356925001Y-121125001D02*
X355800000Y-120000000D01*
X361440001Y-121125001D02*
X356925001Y-121125001D01*
X371957499Y-110607503D02*
X361440001Y-121125001D01*
X371957499Y-103669999D02*
X371957499Y-110607503D01*
X371157500Y-102870000D02*
X371957499Y-103669999D01*
X73756401Y-113126401D02*
X72390000Y-111760000D01*
X73756401Y-115413073D02*
X73756401Y-113126401D01*
X77418327Y-119074999D02*
X73756401Y-115413073D01*
X81549999Y-119074999D02*
X77418327Y-119074999D01*
X82475000Y-120000000D02*
X81549999Y-119074999D01*
X92806401Y-113126401D02*
X91440000Y-111760000D01*
X92806401Y-115413073D02*
X92806401Y-113126401D01*
X96593329Y-119200001D02*
X92806401Y-115413073D01*
X97100001Y-119200001D02*
X96593329Y-119200001D01*
X97900000Y-120000000D02*
X97100001Y-119200001D01*
X111981099Y-113251099D02*
X110490000Y-111760000D01*
X111981099Y-115881099D02*
X111981099Y-113251099D01*
X115600000Y-119500000D02*
X111981099Y-115881099D01*
X115600000Y-120000000D02*
X115600000Y-119500000D01*
X149956401Y-113126401D02*
X148590000Y-111760000D01*
X149956401Y-116187771D02*
X149956401Y-113126401D01*
X153768630Y-120000000D02*
X149956401Y-116187771D01*
X154900000Y-120000000D02*
X153768630Y-120000000D01*
X188056401Y-113126401D02*
X186690000Y-111760000D01*
X188056401Y-115987771D02*
X188056401Y-113126401D01*
X191868630Y-119800000D02*
X188056401Y-115987771D01*
X193000000Y-119800000D02*
X191868630Y-119800000D01*
X207231099Y-113251099D02*
X205740000Y-111760000D01*
X207231099Y-115331099D02*
X207231099Y-113251099D01*
X211900000Y-120000000D02*
X207231099Y-115331099D01*
X230800001Y-119200001D02*
X231600000Y-120000000D01*
X230068027Y-119200001D02*
X230800001Y-119200001D01*
X226156401Y-115288375D02*
X230068027Y-119200001D01*
X226156401Y-113126401D02*
X226156401Y-115288375D01*
X224790000Y-111760000D02*
X226156401Y-113126401D01*
X245150000Y-111890990D02*
X245150000Y-110300000D01*
X245206401Y-111947391D02*
X245150000Y-111890990D01*
X245206401Y-115306401D02*
X245206401Y-111947391D01*
X249900000Y-120000000D02*
X245206401Y-115306401D01*
X264200000Y-111890990D02*
X264200000Y-110300000D01*
X264256401Y-111947391D02*
X264200000Y-111890990D01*
X264256401Y-115487771D02*
X264256401Y-111947391D01*
X268768630Y-120000000D02*
X264256401Y-115487771D01*
X269900000Y-120000000D02*
X268768630Y-120000000D01*
X289414999Y-108095001D02*
X288290000Y-109220000D01*
X294978503Y-108095001D02*
X289414999Y-108095001D01*
X299856401Y-112972899D02*
X294978503Y-108095001D01*
X299650000Y-120200000D02*
X299856401Y-119993599D01*
X299856401Y-119993599D02*
X299856401Y-112972899D01*
X290512500Y-109800000D02*
X288250000Y-109800000D01*
X360900000Y-110392500D02*
X359727500Y-109220000D01*
X360900000Y-120000000D02*
X360900000Y-110392500D01*
X55507500Y-128850000D02*
X52387500Y-128850000D01*
X58900000Y-132242500D02*
X55507500Y-128850000D01*
X58900000Y-139000000D02*
X58900000Y-132242500D01*
X370675000Y-136550000D02*
X370675000Y-139000000D01*
X366725000Y-132600000D02*
X370675000Y-136550000D01*
X88475000Y-128480000D02*
X88265000Y-128270000D01*
X88475000Y-139000000D02*
X88475000Y-128480000D01*
X80404999Y-127145001D02*
X78700000Y-128850000D01*
X87140001Y-127145001D02*
X80404999Y-127145001D01*
X88265000Y-128270000D02*
X87140001Y-127145001D01*
X111900000Y-128987500D02*
X112037500Y-128850000D01*
X111900000Y-139000000D02*
X111900000Y-128987500D01*
X104217499Y-127145001D02*
X102512500Y-128850000D01*
X110952501Y-127145001D02*
X104217499Y-127145001D01*
X112077500Y-128270000D02*
X110952501Y-127145001D01*
X153925001Y-138900001D02*
X154725000Y-139700000D01*
X149956401Y-134931401D02*
X153925001Y-138900001D01*
X149956401Y-132176401D02*
X149956401Y-134931401D01*
X148590000Y-130810000D02*
X149956401Y-132176401D01*
X188857500Y-128850000D02*
X188237500Y-128850000D01*
X189407500Y-129400000D02*
X188857500Y-128850000D01*
X197500000Y-129400000D02*
X189407500Y-129400000D01*
X179877499Y-127145001D02*
X178752500Y-128270000D01*
X181672500Y-125350000D02*
X179877499Y-127145001D01*
X184737500Y-125350000D02*
X181672500Y-125350000D01*
X188237500Y-128850000D02*
X184737500Y-125350000D01*
X178435000Y-136839010D02*
X178435000Y-138430000D01*
X178531401Y-136742609D02*
X178435000Y-136839010D01*
X178531401Y-132368599D02*
X178531401Y-136742609D01*
X178712500Y-132187500D02*
X178531401Y-132368599D01*
X178712500Y-128850000D02*
X178712500Y-132187500D01*
X215265000Y-130810000D02*
X215265000Y-131031099D01*
X216631401Y-132176401D02*
X215265000Y-130810000D01*
X216631401Y-135206401D02*
X216631401Y-132176401D01*
X220425000Y-139000000D02*
X216631401Y-135206401D01*
X220425000Y-139500000D02*
X220425000Y-139000000D01*
X265325000Y-129117500D02*
X264477500Y-128270000D01*
X265325000Y-139000000D02*
X265325000Y-129117500D01*
X256077499Y-127145001D02*
X254952500Y-128270000D01*
X256822500Y-126400000D02*
X256077499Y-127145001D01*
X261987500Y-126400000D02*
X256822500Y-126400000D01*
X264437500Y-128850000D02*
X261987500Y-126400000D01*
X288290000Y-128890000D02*
X288250000Y-128850000D01*
X288290000Y-137390000D02*
X288290000Y-128890000D01*
X289900000Y-139000000D02*
X288290000Y-137390000D01*
X280429999Y-127145001D02*
X278725000Y-128850000D01*
X286545001Y-127145001D02*
X280429999Y-127145001D01*
X288250000Y-128850000D02*
X286545001Y-127145001D01*
X315449999Y-129394999D02*
X314325000Y-128270000D01*
X318225000Y-132170000D02*
X315449999Y-129394999D01*
X318225000Y-138112500D02*
X318225000Y-132170000D01*
X314285000Y-128850000D02*
X312062500Y-128850000D01*
X314285000Y-128310000D02*
X314325000Y-128270000D01*
X314285000Y-128850000D02*
X314285000Y-128310000D01*
X340900000Y-128492500D02*
X340677500Y-128270000D01*
X340900000Y-139000000D02*
X340900000Y-128492500D01*
X360325000Y-128867500D02*
X359727500Y-128270000D01*
X360325000Y-139000000D02*
X360325000Y-128867500D01*
X378737500Y-134281974D02*
X378737500Y-128850000D01*
X378475000Y-134544474D02*
X378737500Y-134281974D01*
X378475000Y-139000000D02*
X378475000Y-134544474D01*
X153815001Y-108095001D02*
X154940000Y-109220000D01*
X153489999Y-107769999D02*
X153815001Y-108095001D01*
X147817501Y-107769999D02*
X153489999Y-107769999D01*
X143827500Y-111760000D02*
X147817501Y-107769999D01*
X158577501Y-89045001D02*
X159702500Y-90170000D01*
X158252499Y-88719999D02*
X158577501Y-89045001D01*
X152580001Y-88719999D02*
X158252499Y-88719999D01*
X148590000Y-92710000D02*
X152580001Y-88719999D01*
X148590000Y-95756002D02*
X148590000Y-92710000D01*
X143827500Y-100518502D02*
X148590000Y-95756002D01*
X143827500Y-111760000D02*
X143827500Y-100518502D01*
X148590000Y-78749998D02*
X148590000Y-73660000D01*
X146399999Y-80939999D02*
X148590000Y-78749998D01*
X146399999Y-90519999D02*
X146399999Y-80939999D01*
X148590000Y-92710000D02*
X146399999Y-90519999D01*
X148440000Y-54610000D02*
X148590000Y-54610000D01*
X139065000Y-54610000D02*
X148440000Y-54610000D01*
X149900000Y-54740990D02*
X149900000Y-53150000D01*
X149900000Y-58081974D02*
X149900000Y-54740990D01*
X150650001Y-58831975D02*
X149900000Y-58081974D01*
X150650001Y-71599999D02*
X150650001Y-58831975D01*
X148590000Y-73660000D02*
X150650001Y-71599999D01*
X149155001Y-36125001D02*
X148590000Y-35560000D01*
X149155001Y-38676001D02*
X149155001Y-36125001D01*
X143927656Y-43903346D02*
X149155001Y-38676001D01*
X143927656Y-53253012D02*
X143927656Y-43903346D01*
X144949643Y-54274999D02*
X143927656Y-53253012D01*
X148775001Y-54274999D02*
X144949643Y-54274999D01*
X149900000Y-53150000D02*
X148775001Y-54274999D01*
X140375000Y-29337500D02*
X140375000Y-34100000D01*
X150000000Y-32207500D02*
X148590000Y-30797500D01*
X150000000Y-34150000D02*
X150000000Y-32207500D01*
X148590000Y-35560000D02*
X150000000Y-34150000D01*
X144700000Y-112632500D02*
X143827500Y-111760000D01*
X144700000Y-122050000D02*
X144700000Y-112632500D01*
X145875000Y-123225000D02*
X144700000Y-122050000D01*
X350037501Y-103669999D02*
X350837500Y-102870000D01*
X222600000Y-136900000D02*
X239836410Y-136900000D01*
X239836410Y-136900000D02*
X245261400Y-142324990D01*
X245261400Y-142324990D02*
X344175010Y-142324990D01*
X344175010Y-142324990D02*
X345824990Y-140675010D01*
X345824990Y-140675010D02*
X345824990Y-107882510D01*
X345824990Y-107882510D02*
X350037501Y-103669999D01*
X205740000Y-32790000D02*
X205740000Y-35560000D01*
X205740000Y-30797500D02*
X205740000Y-32790000D01*
X196215000Y-44578998D02*
X196215000Y-54610000D01*
X205233998Y-35560000D02*
X196215000Y-44578998D01*
X205740000Y-35560000D02*
X205233998Y-35560000D01*
X196215000Y-54610000D02*
X205740000Y-54610000D01*
X205925001Y-71075001D02*
X207050000Y-72200000D01*
X196780001Y-61930001D02*
X205925001Y-71075001D01*
X196780001Y-55175001D02*
X196780001Y-61930001D01*
X196215000Y-54610000D02*
X196780001Y-55175001D01*
X207475001Y-90974999D02*
X205740000Y-92710000D01*
X207475001Y-78441003D02*
X207475001Y-90974999D01*
X205740000Y-76706002D02*
X207475001Y-78441003D01*
X205740000Y-73660000D02*
X205740000Y-76706002D01*
X215727501Y-89045001D02*
X216852500Y-90170000D01*
X215402499Y-88719999D02*
X215727501Y-89045001D01*
X209730001Y-88719999D02*
X215402499Y-88719999D01*
X205740000Y-92710000D02*
X209730001Y-88719999D01*
X205740000Y-106997500D02*
X200977500Y-111760000D01*
X205740000Y-92710000D02*
X205740000Y-106997500D01*
X210019999Y-107769999D02*
X212050000Y-109800000D01*
X204967501Y-107769999D02*
X210019999Y-107769999D01*
X200977500Y-111760000D02*
X204967501Y-107769999D01*
X220490001Y-127145001D02*
X221615000Y-128270000D01*
X220164999Y-126819999D02*
X220490001Y-127145001D01*
X214492501Y-126819999D02*
X220164999Y-126819999D01*
X210502500Y-130810000D02*
X214492501Y-126819999D01*
X211000000Y-128537500D02*
X211812500Y-129350000D01*
X211000000Y-124000000D02*
X211000000Y-128537500D01*
X205914998Y-124000000D02*
X211000000Y-124000000D01*
X200977500Y-111760000D02*
X200977500Y-119062502D01*
X200977500Y-119062502D02*
X205914998Y-124000000D01*
X345757500Y-102870000D02*
X343925000Y-104702500D01*
X343925000Y-104702500D02*
X343925000Y-124575000D01*
X343925000Y-124575000D02*
X343100000Y-125400000D01*
X222155000Y-128270000D02*
X221575000Y-128850000D01*
X241905000Y-128270000D02*
X222155000Y-128270000D01*
X245650000Y-124525000D02*
X241905000Y-128270000D01*
X186690000Y-32790000D02*
X186690000Y-35560000D01*
X186690000Y-30797500D02*
X186690000Y-32790000D01*
X186690000Y-40224998D02*
X179000000Y-47914998D01*
X186690000Y-35560000D02*
X186690000Y-40224998D01*
X179000000Y-52775000D02*
X177165000Y-54610000D01*
X179000000Y-47914998D02*
X179000000Y-52775000D01*
X177165000Y-54610000D02*
X186690000Y-54610000D01*
X177730001Y-64700001D02*
X186690000Y-73660000D01*
X177730001Y-55175001D02*
X177730001Y-64700001D01*
X177165000Y-54610000D02*
X177730001Y-55175001D01*
X189124999Y-90275001D02*
X186690000Y-92710000D01*
X189124999Y-81814997D02*
X189124999Y-90275001D01*
X186690000Y-79379998D02*
X189124999Y-81814997D01*
X186690000Y-73660000D02*
X186690000Y-79379998D01*
X195732499Y-88719999D02*
X197762500Y-90750000D01*
X190680001Y-88719999D02*
X195732499Y-88719999D01*
X186690000Y-92710000D02*
X190680001Y-88719999D01*
X184362499Y-109175001D02*
X183237500Y-110300000D01*
X186690000Y-106847500D02*
X184362499Y-109175001D01*
X186690000Y-92710000D02*
X186690000Y-106847500D01*
X191915001Y-108095001D02*
X193040000Y-109220000D01*
X191589999Y-107769999D02*
X191915001Y-108095001D01*
X185917501Y-107769999D02*
X191589999Y-107769999D01*
X181927500Y-111760000D02*
X185917501Y-107769999D01*
X194125001Y-120500001D02*
X196625000Y-123000000D01*
X193000000Y-109800000D02*
X194125001Y-110925001D01*
X194125001Y-110925001D02*
X194125001Y-120500001D01*
X344675000Y-122050000D02*
X344675000Y-125659315D01*
X344675000Y-125659315D02*
X344675000Y-126225000D01*
X344675000Y-106492500D02*
X348297500Y-102870000D01*
X344675000Y-126225000D02*
X344675000Y-106492500D01*
X224790000Y-32790000D02*
X224790000Y-35560000D01*
X224790000Y-30797500D02*
X224790000Y-32790000D01*
X234777501Y-27132501D02*
X235902500Y-28257500D01*
X233645000Y-26000000D02*
X234777501Y-27132501D01*
X229587500Y-26000000D02*
X233645000Y-26000000D01*
X224790000Y-30797500D02*
X229587500Y-26000000D01*
X235902500Y-28257500D02*
X235902500Y-33020000D01*
X224790000Y-44935000D02*
X216575000Y-53150000D01*
X224790000Y-35560000D02*
X224790000Y-44935000D01*
X221665356Y-54610000D02*
X224790000Y-54610000D01*
X215265000Y-54610000D02*
X221665356Y-54610000D01*
X215830001Y-64700001D02*
X224790000Y-73660000D01*
X215830001Y-55175001D02*
X215830001Y-64700001D01*
X215265000Y-54610000D02*
X215830001Y-55175001D01*
X227224999Y-90275001D02*
X224790000Y-92710000D01*
X227224999Y-81814997D02*
X227224999Y-90275001D01*
X224720001Y-79309999D02*
X227224999Y-81814997D01*
X224720001Y-73729999D02*
X224720001Y-79309999D01*
X224790000Y-73660000D02*
X224720001Y-73729999D01*
X233832499Y-88719999D02*
X235862500Y-90750000D01*
X228780001Y-88719999D02*
X233832499Y-88719999D01*
X224790000Y-92710000D02*
X228780001Y-88719999D01*
X220027500Y-111610000D02*
X220027500Y-111760000D01*
X224790000Y-106847500D02*
X220027500Y-111610000D01*
X224790000Y-92710000D02*
X224790000Y-106847500D01*
X230015001Y-108095001D02*
X231140000Y-109220000D01*
X229689999Y-107769999D02*
X230015001Y-108095001D01*
X224017501Y-107769999D02*
X229689999Y-107769999D01*
X220027500Y-111760000D02*
X224017501Y-107769999D01*
X231100000Y-109800000D02*
X231100000Y-113600000D01*
X231100000Y-113600000D02*
X240500000Y-123000000D01*
X240500000Y-123000000D02*
X241300000Y-123000000D01*
X344092498Y-100330000D02*
X353377500Y-100330000D01*
X341800000Y-123875000D02*
X341800000Y-102622498D01*
X341800000Y-102622498D02*
X344092498Y-100330000D01*
X82100001Y-32975001D02*
X83225000Y-34100000D01*
X81915000Y-32790000D02*
X82100001Y-32975001D01*
X81915000Y-30797500D02*
X81915000Y-32790000D01*
X81915000Y-51840000D02*
X83225000Y-53150000D01*
X81915000Y-35560000D02*
X81915000Y-51840000D01*
X91902501Y-27132501D02*
X93027500Y-28257500D01*
X91577499Y-26807499D02*
X91902501Y-27132501D01*
X85905001Y-26807499D02*
X91577499Y-26807499D01*
X81915000Y-30797500D02*
X85905001Y-26807499D01*
X93027500Y-28877500D02*
X92987500Y-28837500D01*
X93027500Y-33560000D02*
X93027500Y-28877500D01*
X92987500Y-33600000D02*
X93027500Y-33560000D01*
X81915000Y-54610000D02*
X91440000Y-54610000D01*
X82480001Y-64700001D02*
X91440000Y-73660000D01*
X82480001Y-55175001D02*
X82480001Y-64700001D01*
X81915000Y-54610000D02*
X82480001Y-55175001D01*
X88974999Y-90244999D02*
X91440000Y-92710000D01*
X88974999Y-80939999D02*
X88974999Y-90244999D01*
X91440000Y-78474998D02*
X88974999Y-80939999D01*
X91440000Y-73660000D02*
X91440000Y-78474998D01*
X86677500Y-96966498D02*
X86677500Y-111760000D01*
X90933998Y-92710000D02*
X86677500Y-96966498D01*
X91440000Y-92710000D02*
X90933998Y-92710000D01*
X95921510Y-129350000D02*
X97512500Y-129350000D01*
X86677500Y-120105990D02*
X95921510Y-129350000D01*
X86677500Y-111760000D02*
X86677500Y-120105990D01*
X96202500Y-130810000D02*
X105727500Y-130810000D01*
X90667501Y-107769999D02*
X86677500Y-111760000D01*
X95719999Y-107769999D02*
X90667501Y-107769999D01*
X97750000Y-109800000D02*
X95719999Y-107769999D01*
X95430001Y-88719999D02*
X91440000Y-92710000D01*
X100482499Y-88719999D02*
X95430001Y-88719999D01*
X102512500Y-90750000D02*
X100482499Y-88719999D01*
X357292500Y-106575000D02*
X354250000Y-106575000D01*
X354250000Y-106575000D02*
X347825022Y-112999978D01*
X347825022Y-143697800D02*
X347072844Y-144449978D01*
X96202500Y-133287502D02*
X96202500Y-130810000D01*
X347072844Y-144449978D02*
X107364976Y-144449978D01*
X107364976Y-144449978D02*
X96202500Y-133287502D01*
X347825022Y-112999978D02*
X347825022Y-143697800D01*
X360997500Y-102870000D02*
X357292500Y-106575000D01*
X283487500Y-33600000D02*
X283527500Y-33560000D01*
X253365000Y-54610000D02*
X262890000Y-54610000D01*
X253930001Y-64700001D02*
X262890000Y-73660000D01*
X253930001Y-55175001D02*
X253930001Y-64700001D01*
X253365000Y-54610000D02*
X253930001Y-55175001D01*
X264775001Y-90824999D02*
X262890000Y-92710000D01*
X262890000Y-79254998D02*
X264775001Y-81139999D01*
X262890000Y-73660000D02*
X262890000Y-79254998D01*
X271932499Y-88719999D02*
X273962500Y-90750000D01*
X266880001Y-88719999D02*
X271932499Y-88719999D01*
X262890000Y-92710000D02*
X266880001Y-88719999D01*
X262890000Y-106847500D02*
X259437500Y-110300000D01*
X262890000Y-92710000D02*
X262890000Y-106847500D01*
X267169999Y-107769999D02*
X269200000Y-109800000D01*
X262117501Y-107769999D02*
X267169999Y-107769999D01*
X258127500Y-111760000D02*
X262117501Y-107769999D01*
X248602500Y-130660000D02*
X248602500Y-130810000D01*
X258127500Y-121135000D02*
X248602500Y-130660000D01*
X258127500Y-111760000D02*
X258127500Y-121135000D01*
X248602500Y-130810000D02*
X258127500Y-130810000D01*
X264775001Y-83590686D02*
X264775001Y-83375000D01*
X265459315Y-84275000D02*
X264775001Y-83590686D01*
X266025000Y-84275000D02*
X265459315Y-84275000D01*
X264775001Y-81139999D02*
X264775001Y-83375000D01*
X264775001Y-83375000D02*
X264775001Y-90824999D01*
X350837500Y-87630000D02*
X348882500Y-85675000D01*
X307925000Y-85675000D02*
X307475000Y-85225000D01*
X348882500Y-85675000D02*
X307925000Y-85675000D01*
X272415000Y-35560000D02*
X272415000Y-40599998D01*
X272415000Y-40599998D02*
X262520007Y-50494991D01*
X255799999Y-52025001D02*
X254675000Y-53150000D01*
X257330009Y-50494991D02*
X255799999Y-52025001D01*
X262520007Y-50494991D02*
X257330009Y-50494991D01*
X272415000Y-35560000D02*
X272415000Y-30797500D01*
X282402501Y-27132501D02*
X283527500Y-28257500D01*
X282077499Y-26807499D02*
X282402501Y-27132501D01*
X276405001Y-26807499D02*
X282077499Y-26807499D01*
X272415000Y-30797500D02*
X276405001Y-26807499D01*
X283527500Y-28877500D02*
X283527500Y-33020000D01*
X283487500Y-28837500D02*
X283527500Y-28877500D01*
X278190000Y-130810000D02*
X281940000Y-130810000D01*
X272415000Y-130810000D02*
X278190000Y-130810000D01*
X281433998Y-111760000D02*
X281940000Y-111760000D01*
X272415000Y-120778998D02*
X281433998Y-111760000D01*
X272415000Y-130810000D02*
X272415000Y-120778998D01*
X281940000Y-111760000D02*
X281940000Y-92710000D01*
X283750001Y-77631975D02*
X281940000Y-75821974D01*
X283750001Y-90899999D02*
X283750001Y-77631975D01*
X281940000Y-92710000D02*
X283750001Y-90899999D01*
X272980001Y-55175001D02*
X272415000Y-54610000D01*
X272980001Y-64700001D02*
X272980001Y-55175001D01*
X281940000Y-73660000D02*
X272980001Y-64700001D01*
X272415000Y-54610000D02*
X281940000Y-54610000D01*
X291650001Y-35224999D02*
X292775000Y-34100000D01*
X291293999Y-35224999D02*
X291650001Y-35224999D01*
X284650001Y-41868997D02*
X291293999Y-35224999D01*
X284650001Y-42374999D02*
X284650001Y-41868997D01*
X272415000Y-54610000D02*
X284650001Y-42374999D01*
X291650001Y-30462499D02*
X292775000Y-29337500D01*
X291465000Y-30647500D02*
X291650001Y-30462499D01*
X291465000Y-35560000D02*
X291465000Y-30647500D01*
X300507499Y-26807499D02*
X302537500Y-28837500D01*
X295455001Y-26807499D02*
X300507499Y-26807499D01*
X291465000Y-30797500D02*
X295455001Y-26807499D01*
X302537500Y-28837500D02*
X302537500Y-33600000D01*
X281940000Y-75821974D02*
X281940000Y-73660000D01*
X350697490Y-84949990D02*
X309565685Y-84949990D01*
X309565685Y-84949990D02*
X309000000Y-84949990D01*
X353377500Y-87630000D02*
X350697490Y-84949990D01*
X285600001Y-83399991D02*
X286000000Y-83799990D01*
X285049999Y-82849989D02*
X285600001Y-83399991D01*
X285049999Y-78931973D02*
X285049999Y-82849989D01*
X281940000Y-75821974D02*
X285049999Y-78931973D01*
X284202500Y-111252500D02*
X283250000Y-110300000D01*
X284202500Y-111760000D02*
X284202500Y-111252500D01*
X372427500Y-56771974D02*
X372427500Y-54610000D01*
X374350001Y-58694475D02*
X372427500Y-56771974D01*
X374350001Y-71737499D02*
X374350001Y-58694475D01*
X372427500Y-73660000D02*
X374350001Y-71737499D01*
X372427500Y-37593998D02*
X372427500Y-35560000D01*
X374350001Y-39516499D02*
X372427500Y-37593998D01*
X374350001Y-52687499D02*
X374350001Y-39516499D01*
X372427500Y-54610000D02*
X374350001Y-52687499D01*
X372427500Y-76427500D02*
X372427500Y-73660000D01*
X372427500Y-130810000D02*
X374400000Y-128837500D01*
X374400000Y-128837500D02*
X374400000Y-78400000D01*
X372427500Y-30797500D02*
X372427500Y-35560000D01*
X371714998Y-78000000D02*
X374000000Y-78000000D01*
X369774999Y-79939999D02*
X371714998Y-78000000D01*
X369774999Y-88137503D02*
X369774999Y-79939999D01*
X369157501Y-88755001D02*
X369774999Y-88137503D01*
X366077500Y-87630000D02*
X367202501Y-88755001D01*
X367202501Y-88755001D02*
X369157501Y-88755001D01*
X374000000Y-78000000D02*
X372427500Y-76427500D01*
X374400000Y-78400000D02*
X374000000Y-78000000D01*
X355812499Y-52175001D02*
X353377500Y-54610000D01*
X355812499Y-43602497D02*
X355812499Y-52175001D01*
X353377500Y-41167498D02*
X355812499Y-43602497D01*
X353377500Y-35560000D02*
X353377500Y-41167498D01*
X355812499Y-71225001D02*
X353377500Y-73660000D01*
X355812499Y-62402497D02*
X355812499Y-71225001D01*
X353377500Y-59967498D02*
X355812499Y-62402497D01*
X353377500Y-54610000D02*
X353377500Y-59967498D01*
X353377500Y-32790000D02*
X353377500Y-35560000D01*
X353377500Y-30797500D02*
X353377500Y-32790000D01*
X355812499Y-71075001D02*
X354687500Y-72200000D01*
X357217501Y-69669999D02*
X355812499Y-71075001D01*
X360423501Y-69669999D02*
X357217501Y-69669999D01*
X363537500Y-72783998D02*
X360423501Y-69669999D01*
X363537500Y-87630000D02*
X363537500Y-72783998D01*
X335637500Y-54740990D02*
X335637500Y-53150000D01*
X335637500Y-58081974D02*
X335637500Y-54740990D01*
X336450001Y-58894475D02*
X335637500Y-58081974D01*
X336450001Y-71537499D02*
X336450001Y-58894475D01*
X334327500Y-73660000D02*
X336450001Y-71537499D01*
X335637500Y-35690990D02*
X335637500Y-34100000D01*
X335637500Y-39031974D02*
X335637500Y-35690990D01*
X336450001Y-39844475D02*
X335637500Y-39031974D01*
X336450001Y-50746509D02*
X336450001Y-39844475D01*
X335637500Y-51559010D02*
X336450001Y-50746509D01*
X335637500Y-53150000D02*
X335637500Y-51559010D01*
X334327500Y-32790000D02*
X334327500Y-35560000D01*
X334327500Y-30797500D02*
X334327500Y-32790000D01*
X338317501Y-69669999D02*
X334327500Y-73660000D01*
X343880001Y-69669999D02*
X338317501Y-69669999D01*
X355350001Y-81139999D02*
X343880001Y-69669999D01*
X355350001Y-81982501D02*
X355350001Y-81139999D01*
X360997500Y-87630000D02*
X355350001Y-81982501D01*
X315274010Y-52070000D02*
X316865000Y-52070000D01*
X313824009Y-50619999D02*
X315274010Y-52070000D01*
X309742501Y-50619999D02*
X313824009Y-50619999D01*
X305752500Y-54610000D02*
X309742501Y-50619999D01*
X303908026Y-54610000D02*
X305752500Y-54610000D01*
X302300000Y-56218026D02*
X303908026Y-54610000D01*
X302300000Y-61650000D02*
X302300000Y-56218026D01*
X316825000Y-52650000D02*
X317600001Y-51874999D01*
X303850990Y-62230000D02*
X302260000Y-62230000D01*
X306233998Y-62230000D02*
X303850990Y-62230000D01*
X327553998Y-83550000D02*
X306233998Y-62230000D01*
X358457500Y-87630000D02*
X354377500Y-83550000D01*
X354377500Y-83550000D02*
X327553998Y-83550000D01*
X43815000Y-32790000D02*
X43815000Y-35560000D01*
X43815000Y-30797500D02*
X43815000Y-32790000D01*
X42474999Y-53269999D02*
X43815000Y-54610000D01*
X42474999Y-42339999D02*
X42474999Y-53269999D01*
X43815000Y-40999998D02*
X42474999Y-42339999D01*
X43815000Y-35560000D02*
X43815000Y-40999998D01*
X43815000Y-68897500D02*
X48577500Y-73660000D01*
X43815000Y-54610000D02*
X43815000Y-68897500D01*
X45974999Y-90107499D02*
X48577500Y-92710000D01*
X45974999Y-80939999D02*
X45974999Y-90107499D01*
X48577500Y-78337498D02*
X45974999Y-80939999D01*
X48577500Y-73660000D02*
X48577500Y-78337498D01*
X48577500Y-92710000D02*
X50840000Y-92710000D01*
X45625499Y-111307999D02*
X46077500Y-111760000D01*
X45625499Y-95155999D02*
X45625499Y-111307999D01*
X48071498Y-92710000D02*
X45625499Y-95155999D01*
X48577500Y-92710000D02*
X48071498Y-92710000D01*
X45155599Y-129888099D02*
X46077500Y-130810000D01*
X45155599Y-115727903D02*
X45155599Y-129888099D01*
X46077500Y-114806002D02*
X45155599Y-115727903D01*
X46077500Y-111760000D02*
X46077500Y-114806002D01*
X46077500Y-130810000D02*
X48577500Y-130810000D01*
X55264998Y-145350000D02*
X46077500Y-136162502D01*
X347445644Y-145350000D02*
X55264998Y-145350000D01*
X46077500Y-136162502D02*
X46077500Y-130810000D01*
X348725044Y-144070600D02*
X347445644Y-145350000D01*
X355071498Y-107770000D02*
X348725044Y-114116454D01*
X366077500Y-102870000D02*
X361177501Y-107769999D01*
X348725044Y-114116454D02*
X348725044Y-144070600D01*
X361177501Y-107769999D02*
X355071498Y-107770000D01*
X43815000Y-54610000D02*
X43815000Y-52835000D01*
X52857499Y-50619999D02*
X54887500Y-52650000D01*
X46030001Y-50619999D02*
X52857499Y-50619999D01*
X43815000Y-52835000D02*
X46030001Y-50619999D01*
X46077500Y-111760000D02*
X55602500Y-111760000D01*
X56250000Y-116787500D02*
X56197500Y-116840000D01*
X56250000Y-112407500D02*
X56250000Y-116787500D01*
X55602500Y-111760000D02*
X56250000Y-112407500D01*
X310515000Y-30797500D02*
X310515000Y-35560000D01*
X300924999Y-90125001D02*
X299800000Y-91250000D01*
X307450001Y-83599999D02*
X300924999Y-90125001D01*
X307450001Y-81139999D02*
X307450001Y-83599999D01*
X305752500Y-79442498D02*
X307450001Y-81139999D01*
X305752500Y-73660000D02*
X305752500Y-79442498D01*
X310977501Y-89045001D02*
X312102500Y-90170000D01*
X310652499Y-88719999D02*
X310977501Y-89045001D01*
X302480001Y-88719999D02*
X310652499Y-88719999D01*
X298490000Y-92710000D02*
X302480001Y-88719999D01*
X305000000Y-112512500D02*
X305752500Y-111760000D01*
X305000000Y-113041498D02*
X305000000Y-112512500D01*
X308577403Y-116618901D02*
X305000000Y-113041498D01*
X315438073Y-116618901D02*
X308577403Y-116618901D01*
X316825000Y-115231974D02*
X315438073Y-116618901D01*
X316825000Y-109800000D02*
X316825000Y-115231974D01*
X295100001Y-120157501D02*
X305752500Y-130810000D01*
X295100001Y-113132501D02*
X295100001Y-120157501D01*
X293727500Y-111760000D02*
X295100001Y-113132501D01*
X299947144Y-111760000D02*
X305752500Y-111760000D01*
X298490000Y-110302856D02*
X299947144Y-111760000D01*
X298490000Y-92710000D02*
X298490000Y-110302856D01*
X310833205Y-38287797D02*
X310833205Y-35878205D01*
X308246002Y-40875000D02*
X310833205Y-38287797D01*
X305200000Y-40875000D02*
X308246002Y-40875000D01*
X291465000Y-54610000D02*
X305200000Y-40875000D01*
X302824999Y-70732499D02*
X305752500Y-73660000D01*
X302824999Y-67839997D02*
X302824999Y-70732499D01*
X301460001Y-66474999D02*
X302824999Y-67839997D01*
X299774999Y-66474999D02*
X301460001Y-66474999D01*
X292030001Y-58730001D02*
X299774999Y-66474999D01*
X292030001Y-55175001D02*
X292030001Y-58730001D01*
X291465000Y-54610000D02*
X292030001Y-55175001D01*
X327128513Y-84000011D02*
X312798501Y-69669999D01*
X308187499Y-71075001D02*
X307062500Y-72200000D01*
X312798501Y-69669999D02*
X309592501Y-69669999D01*
X352287511Y-84000011D02*
X327128513Y-84000011D01*
X355917500Y-87630000D02*
X352287511Y-84000011D01*
X309592501Y-69669999D02*
X308187499Y-71075001D01*
X307975000Y-130810000D02*
X305752500Y-130810000D01*
X308160001Y-130474999D02*
X309285000Y-129350000D01*
X307825000Y-130810000D02*
X308160001Y-130474999D01*
X305752500Y-130810000D02*
X307825000Y-130810000D01*
X250093599Y-94201099D02*
X248602500Y-92710000D01*
X250093599Y-96363073D02*
X250093599Y-94201099D01*
X253805525Y-100074999D02*
X250093599Y-96363073D01*
X254399999Y-100074999D02*
X253805525Y-100074999D01*
X255325000Y-101000000D02*
X254399999Y-100074999D01*
X324600000Y-25580000D02*
X324600000Y-25130000D01*
X324100000Y-26080000D02*
X324600000Y-25580000D01*
X324100000Y-37524000D02*
X324100000Y-26080000D01*
X327296000Y-40720000D02*
X324100000Y-37524000D01*
X325400000Y-26080000D02*
X325400000Y-25130000D01*
X324959991Y-26520009D02*
X325400000Y-26080000D01*
X324959991Y-35589991D02*
X324959991Y-26520009D01*
X327550000Y-38180000D02*
X324959991Y-35589991D01*
X326200000Y-26080000D02*
X326200000Y-25130000D01*
X325410000Y-26870000D02*
X326200000Y-26080000D01*
X325410000Y-33754000D02*
X325410000Y-26870000D01*
X327296000Y-35640000D02*
X325410000Y-33754000D01*
X327000000Y-26080000D02*
X327000000Y-25130000D01*
X326031199Y-27048801D02*
X327000000Y-26080000D01*
X326031199Y-31581199D02*
X326031199Y-27048801D01*
X327550000Y-33100000D02*
X326031199Y-31581199D01*
X328235799Y-25565799D02*
X327800000Y-25130000D01*
X328235799Y-29620201D02*
X328235799Y-25565799D01*
X327296000Y-30560000D02*
X328235799Y-29620201D01*
D23*
G36*
X352160966Y-101142862D02*
X352564638Y-101546534D01*
X352693716Y-101600000D01*
X352564638Y-101653466D01*
X352160966Y-102057138D01*
X352107500Y-102186216D01*
X352054034Y-102057138D01*
X351650362Y-101653466D01*
X351122939Y-101435000D01*
X350552061Y-101435000D01*
X350024638Y-101653466D01*
X349620966Y-102057138D01*
X349567500Y-102186216D01*
X349514034Y-102057138D01*
X349110362Y-101653466D01*
X348582939Y-101435000D01*
X348012061Y-101435000D01*
X347484638Y-101653466D01*
X347080966Y-102057138D01*
X347027500Y-102186216D01*
X346974034Y-102057138D01*
X346570362Y-101653466D01*
X346042939Y-101435000D01*
X345472061Y-101435000D01*
X344944638Y-101653466D01*
X344540966Y-102057138D01*
X344493975Y-102170583D01*
X344471364Y-102115995D01*
X344225245Y-102041861D01*
X343397105Y-102870000D01*
X343411248Y-102884142D01*
X343231642Y-103063748D01*
X343217500Y-103049605D01*
X343203358Y-103063748D01*
X343023752Y-102884142D01*
X343037895Y-102870000D01*
X343023753Y-102855858D01*
X343203358Y-102676253D01*
X343217500Y-102690395D01*
X344045639Y-101862255D01*
X343971505Y-101616136D01*
X343905050Y-101592250D01*
X344407300Y-101090000D01*
X352139070Y-101090000D01*
X352160966Y-101142862D01*
X352160966Y-101142862D01*
G37*
X352160966Y-101142862D02*
X352564638Y-101546534D01*
X352693716Y-101600000D01*
X352564638Y-101653466D01*
X352160966Y-102057138D01*
X352107500Y-102186216D01*
X352054034Y-102057138D01*
X351650362Y-101653466D01*
X351122939Y-101435000D01*
X350552061Y-101435000D01*
X350024638Y-101653466D01*
X349620966Y-102057138D01*
X349567500Y-102186216D01*
X349514034Y-102057138D01*
X349110362Y-101653466D01*
X348582939Y-101435000D01*
X348012061Y-101435000D01*
X347484638Y-101653466D01*
X347080966Y-102057138D01*
X347027500Y-102186216D01*
X346974034Y-102057138D01*
X346570362Y-101653466D01*
X346042939Y-101435000D01*
X345472061Y-101435000D01*
X344944638Y-101653466D01*
X344540966Y-102057138D01*
X344493975Y-102170583D01*
X344471364Y-102115995D01*
X344225245Y-102041861D01*
X343397105Y-102870000D01*
X343411248Y-102884142D01*
X343231642Y-103063748D01*
X343217500Y-103049605D01*
X343203358Y-103063748D01*
X343023752Y-102884142D01*
X343037895Y-102870000D01*
X343023753Y-102855858D01*
X343203358Y-102676253D01*
X343217500Y-102690395D01*
X344045639Y-101862255D01*
X343971505Y-101616136D01*
X343905050Y-101592250D01*
X344407300Y-101090000D01*
X352139070Y-101090000D01*
X352160966Y-101142862D01*
M02*
