G04 #@! TF.GenerationSoftware,KiCad,Pcbnew,(5.0.0-rc2-dev-733-g23a9fcd91)*
G04 #@! TF.CreationDate,2018-09-05T17:39:11-04:00*
G04 #@! TF.ProjectId,comp1800,636F6D70313830302E6B696361645F70,rev?*
G04 #@! TF.SameCoordinates,Original*
G04 #@! TF.FileFunction,Soldermask,Top*
G04 #@! TF.FilePolarity,Negative*
%FSLAX46Y46*%
G04 Gerber Fmt 4.6, Leading zero omitted, Abs format (unit mm)*
G04 Created by KiCad (PCBNEW (5.0.0-rc2-dev-733-g23a9fcd91)) date 09/05/18 17:39:11*
%MOMM*%
%LPD*%
G01*
G04 APERTURE LIST*
%ADD10C,4.387800*%
%ADD11C,2.150000*%
%ADD12C,2.000000*%
%ADD13R,2.000000X2.000000*%
%ADD14C,3.448000*%
%ADD15C,2.082800*%
%ADD16O,1.900000X4.400000*%
G04 APERTURE END LIST*
D10*
X252412500Y-133350000D03*
D11*
X247332500Y-133350000D03*
X257492500Y-133350000D03*
X362267500Y-114300000D03*
X352107500Y-114300000D03*
D10*
X357187500Y-114300000D03*
D12*
X353377500Y-100330000D03*
X353377500Y-90170000D03*
X343217500Y-102870000D03*
X345757500Y-102870000D03*
X348297500Y-102870000D03*
X350837500Y-102870000D03*
X353377500Y-102870000D03*
X355917500Y-102870000D03*
X358457500Y-102870000D03*
X360997500Y-102870000D03*
X363537500Y-102870000D03*
X366077500Y-102870000D03*
X368617500Y-102870000D03*
X371157500Y-102870000D03*
X371157500Y-100330000D03*
X371157500Y-97790000D03*
X371157500Y-92710000D03*
X371157500Y-90170000D03*
X371157500Y-87630000D03*
X368617500Y-87630000D03*
X366077500Y-87630000D03*
X363537500Y-87630000D03*
X360997500Y-87630000D03*
X358457500Y-87630000D03*
X355917500Y-87630000D03*
X353377500Y-87630000D03*
X350837500Y-87630000D03*
X348297500Y-87630000D03*
X345757500Y-87630000D03*
D13*
X343217500Y-87630000D03*
D12*
X371157500Y-95250000D03*
D10*
X357187500Y-76200000D03*
D11*
X352107500Y-76200000D03*
X362267500Y-76200000D03*
D10*
X314325000Y-33337500D03*
D11*
X309245000Y-33337500D03*
X319405000Y-33337500D03*
D10*
X209550000Y-33337500D03*
D11*
X204470000Y-33337500D03*
X214630000Y-33337500D03*
D10*
X190500000Y-33337500D03*
D11*
X185420000Y-33337500D03*
X195580000Y-33337500D03*
D10*
X257175000Y-33337500D03*
D11*
X252095000Y-33337500D03*
X262255000Y-33337500D03*
X128905000Y-33337500D03*
X118745000Y-33337500D03*
D10*
X123825000Y-33337500D03*
X300037500Y-33337500D03*
D11*
X294957500Y-33337500D03*
X305117500Y-33337500D03*
D10*
X109537500Y-33337500D03*
D11*
X104457500Y-33337500D03*
X114617500Y-33337500D03*
D10*
X252412500Y-33337500D03*
D11*
X247332500Y-33337500D03*
X257492500Y-33337500D03*
D10*
X142875000Y-33337500D03*
D11*
X137795000Y-33337500D03*
X147955000Y-33337500D03*
X300355000Y-33337500D03*
X290195000Y-33337500D03*
D10*
X295275000Y-33337500D03*
X171450000Y-33337500D03*
D11*
X166370000Y-33337500D03*
X176530000Y-33337500D03*
D10*
X276225000Y-33337500D03*
D11*
X271145000Y-33337500D03*
X281305000Y-33337500D03*
X109855000Y-33337500D03*
X99695000Y-33337500D03*
D10*
X104775000Y-33337500D03*
X85725000Y-33337500D03*
D11*
X80645000Y-33337500D03*
X90805000Y-33337500D03*
X238442500Y-33337500D03*
X228282500Y-33337500D03*
D10*
X233362500Y-33337500D03*
X90487500Y-33337500D03*
D11*
X85407500Y-33337500D03*
X95567500Y-33337500D03*
X233680000Y-33337500D03*
X223520000Y-33337500D03*
D10*
X228600000Y-33337500D03*
D11*
X133667500Y-33337500D03*
X123507500Y-33337500D03*
D10*
X128587500Y-33337500D03*
D11*
X157480000Y-33337500D03*
X147320000Y-33337500D03*
D10*
X152400000Y-33337500D03*
X280987500Y-33337500D03*
D11*
X275907500Y-33337500D03*
X286067500Y-33337500D03*
X90805000Y-38100000D03*
X80645000Y-38100000D03*
D10*
X85725000Y-38100000D03*
X104775000Y-38100000D03*
D11*
X99695000Y-38100000D03*
X109855000Y-38100000D03*
D10*
X123825000Y-38100000D03*
D11*
X118745000Y-38100000D03*
X128905000Y-38100000D03*
X147955000Y-38100000D03*
X137795000Y-38100000D03*
D10*
X142875000Y-38100000D03*
X152400000Y-38100000D03*
D11*
X147320000Y-38100000D03*
X157480000Y-38100000D03*
X343217500Y-38100000D03*
X333057500Y-38100000D03*
D10*
X338137500Y-38100000D03*
X376237500Y-38100000D03*
D11*
X371157500Y-38100000D03*
X381317500Y-38100000D03*
D10*
X357187500Y-38100000D03*
D11*
X352107500Y-38100000D03*
X362267500Y-38100000D03*
X286067500Y-38100000D03*
X275907500Y-38100000D03*
D10*
X280987500Y-38100000D03*
X295275000Y-38100000D03*
D11*
X290195000Y-38100000D03*
X300355000Y-38100000D03*
D10*
X128587500Y-38100000D03*
D11*
X123507500Y-38100000D03*
X133667500Y-38100000D03*
X114617500Y-38100000D03*
X104457500Y-38100000D03*
D10*
X109537500Y-38100000D03*
D11*
X319405000Y-38100000D03*
X309245000Y-38100000D03*
D10*
X314325000Y-38100000D03*
D11*
X305117500Y-38100000D03*
X294957500Y-38100000D03*
D10*
X300037500Y-38100000D03*
X228600000Y-38100000D03*
D11*
X223520000Y-38100000D03*
X233680000Y-38100000D03*
D10*
X233362500Y-38100000D03*
D11*
X228282500Y-38100000D03*
X238442500Y-38100000D03*
X95567500Y-38100000D03*
X85407500Y-38100000D03*
D10*
X90487500Y-38100000D03*
D11*
X262255000Y-38100000D03*
X252095000Y-38100000D03*
D10*
X257175000Y-38100000D03*
X71437500Y-38100000D03*
D11*
X66357500Y-38100000D03*
X76517500Y-38100000D03*
X195580000Y-38100000D03*
X185420000Y-38100000D03*
D10*
X190500000Y-38100000D03*
D11*
X281305000Y-38100000D03*
X271145000Y-38100000D03*
D10*
X276225000Y-38100000D03*
D11*
X176530000Y-38100000D03*
X166370000Y-38100000D03*
D10*
X171450000Y-38100000D03*
D11*
X214630000Y-38100000D03*
X204470000Y-38100000D03*
D10*
X209550000Y-38100000D03*
D11*
X257492500Y-38100000D03*
X247332500Y-38100000D03*
D10*
X252412500Y-38100000D03*
X47625000Y-38100000D03*
D11*
X42545000Y-38100000D03*
X52705000Y-38100000D03*
X181292500Y-133350000D03*
X171132500Y-133350000D03*
D10*
X176212500Y-133350000D03*
X252412500Y-95250000D03*
D11*
X247332500Y-95250000D03*
X257492500Y-95250000D03*
D10*
X80962500Y-95250000D03*
D11*
X75882500Y-95250000D03*
X86042500Y-95250000D03*
X171767500Y-114300000D03*
X161607500Y-114300000D03*
D10*
X166687500Y-114300000D03*
X128587500Y-114300000D03*
D11*
X123507500Y-114300000D03*
X133667500Y-114300000D03*
X124142500Y-95250000D03*
X113982500Y-95250000D03*
D10*
X119062500Y-95250000D03*
D11*
X119380000Y-76200000D03*
X109220000Y-76200000D03*
D10*
X114300000Y-76200000D03*
D11*
X143192500Y-95250000D03*
X133032500Y-95250000D03*
D10*
X138112500Y-95250000D03*
D11*
X162242500Y-95250000D03*
X152082500Y-95250000D03*
D10*
X157162500Y-95250000D03*
D11*
X181292500Y-95250000D03*
X171132500Y-95250000D03*
D10*
X176212500Y-95250000D03*
D11*
X214630000Y-76200000D03*
X204470000Y-76200000D03*
D10*
X209550000Y-76200000D03*
X195262500Y-95250000D03*
D11*
X190182500Y-95250000D03*
X200342500Y-95250000D03*
D10*
X242887500Y-114300000D03*
D11*
X237807500Y-114300000D03*
X247967500Y-114300000D03*
X228917500Y-114300000D03*
X218757500Y-114300000D03*
D10*
X223837500Y-114300000D03*
X238125000Y-57150000D03*
D11*
X233045000Y-57150000D03*
X243205000Y-57150000D03*
D10*
X66675000Y-57150000D03*
D11*
X61595000Y-57150000D03*
X71755000Y-57150000D03*
X219392500Y-95250000D03*
X209232500Y-95250000D03*
D10*
X214312500Y-95250000D03*
D11*
X90805000Y-57150000D03*
X80645000Y-57150000D03*
D10*
X85725000Y-57150000D03*
X104775000Y-57150000D03*
D11*
X99695000Y-57150000D03*
X109855000Y-57150000D03*
X128905000Y-57150000D03*
X118745000Y-57150000D03*
D10*
X123825000Y-57150000D03*
D11*
X147955000Y-57150000D03*
X137795000Y-57150000D03*
D10*
X142875000Y-57150000D03*
D11*
X167005000Y-57150000D03*
X156845000Y-57150000D03*
D10*
X161925000Y-57150000D03*
D11*
X186055000Y-57150000D03*
X175895000Y-57150000D03*
D10*
X180975000Y-57150000D03*
X200025000Y-57150000D03*
D11*
X194945000Y-57150000D03*
X205105000Y-57150000D03*
X224155000Y-57150000D03*
X213995000Y-57150000D03*
D10*
X219075000Y-57150000D03*
D11*
X271780000Y-76200000D03*
X261620000Y-76200000D03*
D10*
X266700000Y-76200000D03*
X285750000Y-76200000D03*
D11*
X280670000Y-76200000D03*
X290830000Y-76200000D03*
X276542500Y-95250000D03*
X266382500Y-95250000D03*
D10*
X271462500Y-95250000D03*
X376237500Y-57150000D03*
D11*
X371157500Y-57150000D03*
X381317500Y-57150000D03*
X262255000Y-57150000D03*
X252095000Y-57150000D03*
D10*
X257175000Y-57150000D03*
D11*
X381317500Y-133350000D03*
X371157500Y-133350000D03*
D10*
X376237500Y-133350000D03*
X261937500Y-114300000D03*
D11*
X256857500Y-114300000D03*
X267017500Y-114300000D03*
D10*
X357187500Y-57150000D03*
D11*
X352107500Y-57150000D03*
X362267500Y-57150000D03*
D10*
X288012500Y-114300000D03*
D11*
X282932500Y-114300000D03*
X293092500Y-114300000D03*
D10*
X338137500Y-133350000D03*
D11*
X333057500Y-133350000D03*
X343217500Y-133350000D03*
X362267500Y-133350000D03*
X352107500Y-133350000D03*
D10*
X357187500Y-133350000D03*
X338137500Y-76200000D03*
D11*
X333057500Y-76200000D03*
X343217500Y-76200000D03*
D10*
X376237500Y-76200000D03*
D11*
X371157500Y-76200000D03*
X381317500Y-76200000D03*
D10*
X276225000Y-57150000D03*
D11*
X271145000Y-57150000D03*
X281305000Y-57150000D03*
X114617500Y-133350000D03*
X104457500Y-133350000D03*
D10*
X109537500Y-133350000D03*
X100012500Y-133350000D03*
D11*
X94932500Y-133350000D03*
X105092500Y-133350000D03*
X316865000Y-133350000D03*
X306705000Y-133350000D03*
D10*
X311785000Y-133350000D03*
D11*
X314642500Y-133350000D03*
X304482500Y-133350000D03*
D10*
X309562500Y-133350000D03*
D11*
X319405000Y-57150000D03*
X309245000Y-57150000D03*
D10*
X314325000Y-57150000D03*
X54650000Y-95250000D03*
D11*
X49570000Y-95250000D03*
X59730000Y-95250000D03*
X54967500Y-133350000D03*
X44807500Y-133350000D03*
D10*
X49887500Y-133350000D03*
X52387500Y-133350000D03*
D11*
X47307500Y-133350000D03*
X57467500Y-133350000D03*
X267017500Y-133350000D03*
X256857500Y-133350000D03*
D10*
X261937500Y-133350000D03*
X295275000Y-57150000D03*
D11*
X290195000Y-57150000D03*
X300355000Y-57150000D03*
D10*
X302300000Y-95250000D03*
D11*
X297220000Y-95250000D03*
X307380000Y-95250000D03*
D14*
X290362000Y-88265000D03*
X314238000Y-88265000D03*
D10*
X290362000Y-103505000D03*
X314238000Y-103505000D03*
D11*
X52705000Y-33337500D03*
X42545000Y-33337500D03*
D10*
X47625000Y-33337500D03*
D11*
X76517500Y-33337500D03*
X66357500Y-33337500D03*
D10*
X71437500Y-33337500D03*
D11*
X319405000Y-114300000D03*
X309245000Y-114300000D03*
D10*
X314325000Y-114300000D03*
D11*
X76517500Y-114300000D03*
X66357500Y-114300000D03*
D10*
X71437500Y-114300000D03*
X338137500Y-57150000D03*
D11*
X333057500Y-57150000D03*
X343217500Y-57150000D03*
X381317500Y-33337500D03*
X371157500Y-33337500D03*
D10*
X376237500Y-33337500D03*
X338137500Y-33337500D03*
D11*
X333057500Y-33337500D03*
X343217500Y-33337500D03*
X362267500Y-33337500D03*
X352107500Y-33337500D03*
D10*
X357187500Y-33337500D03*
X59412500Y-114300000D03*
D11*
X54332500Y-114300000D03*
X64492500Y-114300000D03*
D14*
X47474500Y-107315000D03*
X71350500Y-107315000D03*
D10*
X47474500Y-122555000D03*
X71350500Y-122555000D03*
X49887500Y-114300000D03*
D11*
X44807500Y-114300000D03*
X54967500Y-114300000D03*
D10*
X309475500Y-122555000D03*
X285599500Y-122555000D03*
D14*
X309475500Y-107315000D03*
X285599500Y-107315000D03*
D11*
X302617500Y-114300000D03*
X292457500Y-114300000D03*
D10*
X297537500Y-114300000D03*
X152400000Y-133350000D03*
D11*
X147320000Y-133350000D03*
X157480000Y-133350000D03*
D14*
X140462000Y-126365000D03*
X164338000Y-126365000D03*
D10*
X140462000Y-141605000D03*
X164338000Y-141605000D03*
X147637500Y-133350000D03*
D11*
X142557500Y-133350000D03*
X152717500Y-133350000D03*
D14*
X135699500Y-126365000D03*
X159575500Y-126365000D03*
D10*
X135699500Y-141605000D03*
X159575500Y-141605000D03*
X185737500Y-133350000D03*
D11*
X180657500Y-133350000D03*
X190817500Y-133350000D03*
D10*
X214312500Y-133350000D03*
D11*
X209232500Y-133350000D03*
X219392500Y-133350000D03*
D14*
X202374500Y-126365000D03*
X226250500Y-126365000D03*
D10*
X202374500Y-141605000D03*
X226250500Y-141605000D03*
X231013000Y-141605000D03*
X207137000Y-141605000D03*
D14*
X231013000Y-126365000D03*
X207137000Y-126365000D03*
D11*
X224155000Y-133350000D03*
X213995000Y-133350000D03*
D10*
X219075000Y-133350000D03*
X52387500Y-76200000D03*
D11*
X47307500Y-76200000D03*
X57467500Y-76200000D03*
D10*
X47625000Y-57150000D03*
D11*
X42545000Y-57150000D03*
X52705000Y-57150000D03*
D10*
X85725000Y-133350000D03*
D11*
X80645000Y-133350000D03*
X90805000Y-133350000D03*
D10*
X76200000Y-133350000D03*
D11*
X71120000Y-133350000D03*
X81280000Y-133350000D03*
D10*
X276225000Y-133350000D03*
D11*
X271145000Y-133350000D03*
X281305000Y-133350000D03*
X290830000Y-133350000D03*
X280670000Y-133350000D03*
D10*
X285750000Y-133350000D03*
D11*
X238442500Y-95250000D03*
X228282500Y-95250000D03*
D10*
X233362500Y-95250000D03*
X204787500Y-114300000D03*
D11*
X199707500Y-114300000D03*
X209867500Y-114300000D03*
X190817500Y-114300000D03*
X180657500Y-114300000D03*
D10*
X185737500Y-114300000D03*
X228600000Y-76200000D03*
D11*
X223520000Y-76200000D03*
X233680000Y-76200000D03*
X81280000Y-76200000D03*
X71120000Y-76200000D03*
D10*
X76200000Y-76200000D03*
D11*
X138430000Y-76200000D03*
X128270000Y-76200000D03*
D10*
X133350000Y-76200000D03*
X100012500Y-95250000D03*
D11*
X94932500Y-95250000D03*
X105092500Y-95250000D03*
X157480000Y-76200000D03*
X147320000Y-76200000D03*
D10*
X152400000Y-76200000D03*
D11*
X195580000Y-76200000D03*
X185420000Y-76200000D03*
D10*
X190500000Y-76200000D03*
D11*
X152717500Y-114300000D03*
X142557500Y-114300000D03*
D10*
X147637500Y-114300000D03*
D11*
X100330000Y-76200000D03*
X90170000Y-76200000D03*
D10*
X95250000Y-76200000D03*
D11*
X114617500Y-114300000D03*
X104457500Y-114300000D03*
D10*
X109537500Y-114300000D03*
D11*
X176530000Y-76200000D03*
X166370000Y-76200000D03*
D10*
X171450000Y-76200000D03*
X90487500Y-114300000D03*
D11*
X85407500Y-114300000D03*
X95567500Y-114300000D03*
D10*
X247650000Y-76200000D03*
D11*
X242570000Y-76200000D03*
X252730000Y-76200000D03*
D10*
X309562500Y-76200000D03*
D11*
X304482500Y-76200000D03*
X314642500Y-76200000D03*
X252730000Y-95250000D03*
X242570000Y-95250000D03*
D10*
X247650000Y-95250000D03*
D11*
X81280000Y-95250000D03*
X71120000Y-95250000D03*
D10*
X76200000Y-95250000D03*
D11*
X176530000Y-114300000D03*
X166370000Y-114300000D03*
D10*
X171450000Y-114300000D03*
D11*
X138430000Y-114300000D03*
X128270000Y-114300000D03*
D10*
X133350000Y-114300000D03*
X114300000Y-95250000D03*
D11*
X109220000Y-95250000D03*
X119380000Y-95250000D03*
X138430000Y-95250000D03*
X128270000Y-95250000D03*
D10*
X133350000Y-95250000D03*
X152400000Y-95250000D03*
D11*
X147320000Y-95250000D03*
X157480000Y-95250000D03*
X176530000Y-95250000D03*
X166370000Y-95250000D03*
D10*
X171450000Y-95250000D03*
D11*
X195580000Y-95250000D03*
X185420000Y-95250000D03*
D10*
X190500000Y-95250000D03*
X247650000Y-114300000D03*
D11*
X242570000Y-114300000D03*
X252730000Y-114300000D03*
X233680000Y-114300000D03*
X223520000Y-114300000D03*
D10*
X228600000Y-114300000D03*
X209550000Y-95250000D03*
D11*
X204470000Y-95250000D03*
X214630000Y-95250000D03*
D10*
X76200000Y-57150000D03*
D11*
X71120000Y-57150000D03*
X81280000Y-57150000D03*
X100330000Y-57150000D03*
X90170000Y-57150000D03*
D10*
X95250000Y-57150000D03*
X114300000Y-57150000D03*
D11*
X109220000Y-57150000D03*
X119380000Y-57150000D03*
X138430000Y-57150000D03*
X128270000Y-57150000D03*
D10*
X133350000Y-57150000D03*
X152400000Y-57150000D03*
D11*
X147320000Y-57150000D03*
X157480000Y-57150000D03*
X176530000Y-57150000D03*
X166370000Y-57150000D03*
D10*
X171450000Y-57150000D03*
X190500000Y-57150000D03*
D11*
X185420000Y-57150000D03*
X195580000Y-57150000D03*
X214630000Y-57150000D03*
X204470000Y-57150000D03*
D10*
X209550000Y-57150000D03*
X228600000Y-57150000D03*
D11*
X223520000Y-57150000D03*
X233680000Y-57150000D03*
X252730000Y-57150000D03*
X242570000Y-57150000D03*
D10*
X247650000Y-57150000D03*
D11*
X271780000Y-95250000D03*
X261620000Y-95250000D03*
D10*
X266700000Y-95250000D03*
X266700000Y-57150000D03*
D11*
X261620000Y-57150000D03*
X271780000Y-57150000D03*
X271780000Y-114300000D03*
X261620000Y-114300000D03*
D10*
X266700000Y-114300000D03*
D11*
X290830000Y-57150000D03*
X280670000Y-57150000D03*
D10*
X285750000Y-57150000D03*
X309562500Y-57150000D03*
D11*
X304482500Y-57150000D03*
X314642500Y-57150000D03*
X57467500Y-95250000D03*
X47307500Y-95250000D03*
D10*
X52387500Y-95250000D03*
D11*
X314642500Y-95250000D03*
X304482500Y-95250000D03*
D10*
X309562500Y-95250000D03*
X285750000Y-114300000D03*
D11*
X280670000Y-114300000D03*
X290830000Y-114300000D03*
D10*
X309562500Y-114300000D03*
D11*
X304482500Y-114300000D03*
X314642500Y-114300000D03*
D10*
X76200000Y-114300000D03*
D11*
X71120000Y-114300000D03*
X81280000Y-114300000D03*
D10*
X52387500Y-114300000D03*
D11*
X57467500Y-114300000D03*
X47307500Y-114300000D03*
X57467500Y-57150000D03*
X47307500Y-57150000D03*
D10*
X52387500Y-57150000D03*
X228600000Y-95250000D03*
D11*
X223520000Y-95250000D03*
X233680000Y-95250000D03*
X214630000Y-114300000D03*
X204470000Y-114300000D03*
D10*
X209550000Y-114300000D03*
X190500000Y-114300000D03*
D11*
X185420000Y-114300000D03*
X195580000Y-114300000D03*
D10*
X95250000Y-95250000D03*
D11*
X90170000Y-95250000D03*
X100330000Y-95250000D03*
X157480000Y-114300000D03*
X147320000Y-114300000D03*
D10*
X152400000Y-114300000D03*
X114300000Y-114300000D03*
D11*
X109220000Y-114300000D03*
X119380000Y-114300000D03*
X100330000Y-114300000D03*
X90170000Y-114300000D03*
D10*
X95250000Y-114300000D03*
D11*
X290830000Y-95250000D03*
X280670000Y-95250000D03*
D10*
X285750000Y-95250000D03*
D12*
X51400000Y-43400000D03*
D13*
X43600000Y-43400000D03*
X67200000Y-43300000D03*
D12*
X75000000Y-43300000D03*
D13*
X85100000Y-43200000D03*
D12*
X92900000Y-43200000D03*
D13*
X103225000Y-43200000D03*
D12*
X111025000Y-43200000D03*
X131300000Y-43500000D03*
D13*
X123500000Y-43500000D03*
D12*
X155300000Y-43400000D03*
D13*
X147500000Y-43400000D03*
D12*
X174100000Y-43400000D03*
D13*
X166300000Y-43400000D03*
X185100000Y-44000000D03*
D12*
X192900000Y-44000000D03*
D13*
X204400000Y-43400000D03*
D12*
X212200000Y-43400000D03*
D13*
X228100000Y-43300000D03*
D12*
X235900000Y-43300000D03*
D13*
X251900000Y-43500000D03*
D12*
X259700000Y-43500000D03*
D13*
X271200000Y-44000000D03*
D12*
X279000000Y-44000000D03*
X297725000Y-43500000D03*
D13*
X289925000Y-43500000D03*
X309500000Y-43300000D03*
D12*
X317300000Y-43300000D03*
D13*
X333200000Y-44000000D03*
D12*
X341000000Y-44000000D03*
X359900000Y-44000000D03*
D13*
X352100000Y-44000000D03*
D12*
X378900000Y-44000000D03*
D13*
X371100000Y-44000000D03*
D12*
X324000000Y-91100000D03*
D13*
X324000000Y-98900000D03*
X47200000Y-63000000D03*
D12*
X55000000Y-63000000D03*
X78900000Y-63000000D03*
D13*
X71100000Y-63000000D03*
D12*
X97900000Y-62800000D03*
D13*
X90100000Y-62800000D03*
X109100000Y-62500000D03*
D12*
X116900000Y-62500000D03*
X135900000Y-63000000D03*
D13*
X128100000Y-63000000D03*
X147400000Y-63000000D03*
D12*
X155200000Y-63000000D03*
X174475000Y-62600000D03*
D13*
X166675000Y-62600000D03*
D12*
X193225000Y-62900000D03*
D13*
X185425000Y-62900000D03*
X204100000Y-63000000D03*
D12*
X211900000Y-63000000D03*
D13*
X223325000Y-62900000D03*
D12*
X231125000Y-62900000D03*
D13*
X242400000Y-63000000D03*
D12*
X250200000Y-63000000D03*
X269000000Y-63000000D03*
D13*
X261200000Y-63000000D03*
D12*
X288900000Y-63000000D03*
D13*
X281100000Y-63000000D03*
X324000000Y-60800000D03*
D12*
X324000000Y-53000000D03*
D13*
X298275000Y-67400000D03*
D12*
X306075000Y-67400000D03*
D13*
X333200000Y-63000000D03*
D12*
X341000000Y-63000000D03*
X360000000Y-62900000D03*
D13*
X352200000Y-62900000D03*
X371100000Y-63000000D03*
D12*
X378900000Y-63000000D03*
D13*
X323700000Y-117225000D03*
D12*
X323700000Y-109425000D03*
X54900000Y-82000000D03*
D13*
X47100000Y-82000000D03*
D12*
X79800000Y-82000000D03*
D13*
X72000000Y-82000000D03*
D12*
X97900000Y-82000000D03*
D13*
X90100000Y-82000000D03*
X109100000Y-82000000D03*
D12*
X116900000Y-82000000D03*
X136325000Y-82000000D03*
D13*
X128525000Y-82000000D03*
X147525000Y-82000000D03*
D12*
X155325000Y-82000000D03*
D13*
X167100000Y-82000000D03*
D12*
X174900000Y-82000000D03*
D13*
X185400000Y-82200000D03*
D12*
X193200000Y-82200000D03*
X212025000Y-82100000D03*
D13*
X204225000Y-82100000D03*
X223300000Y-82000000D03*
D12*
X231100000Y-82000000D03*
X250475000Y-82000000D03*
D13*
X242675000Y-82000000D03*
X261525000Y-82000000D03*
D12*
X269325000Y-82000000D03*
X288300000Y-81900000D03*
D13*
X280500000Y-81900000D03*
X304200000Y-82000000D03*
D12*
X312000000Y-82000000D03*
D13*
X332675000Y-82000000D03*
D12*
X340475000Y-82000000D03*
D13*
X352100000Y-82000000D03*
D12*
X359900000Y-82000000D03*
X378700000Y-81000000D03*
D13*
X370900000Y-81000000D03*
D12*
X60325000Y-101000000D03*
D13*
X52525000Y-101000000D03*
D12*
X84325000Y-101000000D03*
D13*
X76525000Y-101000000D03*
X95100000Y-101000000D03*
D12*
X102900000Y-101000000D03*
X121900000Y-101000000D03*
D13*
X114100000Y-101000000D03*
X133000000Y-101000000D03*
D12*
X140800000Y-101000000D03*
X159700000Y-100900000D03*
D13*
X151900000Y-100900000D03*
D12*
X179325000Y-101000000D03*
D13*
X171525000Y-101000000D03*
X190100000Y-101000000D03*
D12*
X197900000Y-101000000D03*
D13*
X209100000Y-101000000D03*
D12*
X216900000Y-101000000D03*
X235900000Y-101000000D03*
D13*
X228100000Y-101000000D03*
D12*
X255325000Y-101000000D03*
D13*
X247525000Y-101000000D03*
X266200000Y-101000000D03*
D12*
X274000000Y-101000000D03*
X294000000Y-91675000D03*
D13*
X294000000Y-99475000D03*
X55150000Y-122525000D03*
D12*
X62950000Y-122525000D03*
X82475000Y-120000000D03*
D13*
X74675000Y-120000000D03*
D12*
X97900000Y-120000000D03*
D13*
X90100000Y-120000000D03*
X109000000Y-120000000D03*
D12*
X116800000Y-120000000D03*
D13*
X128675000Y-120000000D03*
D12*
X136475000Y-120000000D03*
X154900000Y-120000000D03*
D13*
X147100000Y-120000000D03*
D12*
X174900000Y-120000000D03*
D13*
X167100000Y-120000000D03*
X185200000Y-119800000D03*
D12*
X193000000Y-119800000D03*
X211900000Y-120000000D03*
D13*
X204100000Y-120000000D03*
D12*
X231600000Y-120000000D03*
D13*
X223800000Y-120000000D03*
X242100000Y-120000000D03*
D12*
X249900000Y-120000000D03*
X269900000Y-120000000D03*
D13*
X262100000Y-120000000D03*
X291850000Y-120200000D03*
D12*
X299650000Y-120200000D03*
X360900000Y-120000000D03*
D13*
X353100000Y-120000000D03*
X51100000Y-139000000D03*
D12*
X58900000Y-139000000D03*
X88475000Y-139000000D03*
D13*
X80675000Y-139000000D03*
D12*
X111900000Y-139000000D03*
D13*
X104100000Y-139000000D03*
D12*
X154725000Y-139700000D03*
D13*
X146925000Y-139700000D03*
X197500000Y-137200000D03*
D12*
X197500000Y-129400000D03*
D13*
X213825000Y-139500000D03*
D12*
X221625000Y-139500000D03*
X265325000Y-139000000D03*
D13*
X257525000Y-139000000D03*
X282100000Y-139000000D03*
D12*
X289900000Y-139000000D03*
X318225000Y-138112500D03*
D13*
X310425000Y-138112500D03*
X333100000Y-139000000D03*
D12*
X340900000Y-139000000D03*
X360325000Y-139000000D03*
D13*
X352525000Y-139000000D03*
X370675000Y-139000000D03*
D12*
X378475000Y-139000000D03*
D10*
X180975000Y-133350000D03*
D11*
X186055000Y-133350000D03*
X175895000Y-133350000D03*
D14*
X238125000Y-126365000D03*
X123825000Y-126365000D03*
D10*
X238125000Y-141605000D03*
X123825000Y-141605000D03*
X304800000Y-57150000D03*
D11*
X309880000Y-57150000D03*
X299720000Y-57150000D03*
D14*
X316738000Y-50165000D03*
X292862000Y-50165000D03*
D10*
X316738000Y-65405000D03*
X292862000Y-65405000D03*
D15*
X327296000Y-40720000D03*
X327550000Y-38180000D03*
X327296000Y-35640000D03*
X327550000Y-33100000D03*
X327296000Y-30560000D03*
D16*
X322550000Y-22730000D03*
X329850000Y-22730000D03*
M02*
