G04 #@! TF.GenerationSoftware,KiCad,Pcbnew,(5.0.0-rc2-dev-733-g23a9fcd91)*
G04 #@! TF.CreationDate,2018-09-05T17:39:11-04:00*
G04 #@! TF.ProjectId,comp1800,636F6D70313830302E6B696361645F70,rev?*
G04 #@! TF.SameCoordinates,Original*
G04 #@! TF.FileFunction,Legend,Top*
G04 #@! TF.FilePolarity,Positive*
%FSLAX46Y46*%
G04 Gerber Fmt 4.6, Leading zero omitted, Abs format (unit mm)*
G04 Created by KiCad (PCBNEW (5.0.0-rc2-dev-733-g23a9fcd91)) date 09/05/18 17:39:11*
%MOMM*%
%LPD*%
G01*
G04 APERTURE LIST*
%ADD10C,0.203200*%
%ADD11C,0.127000*%
G04 APERTURE END LIST*
D10*
X326153000Y-33735000D02*
X326153000Y-32465000D01*
X326153000Y-32465000D02*
X326788000Y-31830000D01*
X328058000Y-31830000D02*
X328693000Y-32465000D01*
X326788000Y-31830000D02*
X326153000Y-31195000D01*
X326153000Y-31195000D02*
X326153000Y-29925000D01*
X326153000Y-29925000D02*
X326788000Y-29290000D01*
X328058000Y-29290000D02*
X328693000Y-29925000D01*
X328693000Y-29925000D02*
X328693000Y-31195000D01*
X328693000Y-31195000D02*
X328058000Y-31830000D01*
X326788000Y-36910000D02*
X326153000Y-36275000D01*
X326153000Y-36275000D02*
X326153000Y-35005000D01*
X326153000Y-35005000D02*
X326788000Y-34370000D01*
X328058000Y-34370000D02*
X328693000Y-35005000D01*
X328693000Y-35005000D02*
X328693000Y-36275000D01*
X328693000Y-36275000D02*
X328058000Y-36910000D01*
X326153000Y-33735000D02*
X326788000Y-34370000D01*
X328058000Y-34370000D02*
X328693000Y-33735000D01*
X328693000Y-32465000D02*
X328693000Y-33735000D01*
X326153000Y-41355000D02*
X326153000Y-40085000D01*
X326153000Y-40085000D02*
X326788000Y-39450000D01*
X328058000Y-39450000D02*
X328693000Y-40085000D01*
X326788000Y-39450000D02*
X326153000Y-38815000D01*
X326153000Y-38815000D02*
X326153000Y-37545000D01*
X326153000Y-37545000D02*
X326788000Y-36910000D01*
X328058000Y-36910000D02*
X328693000Y-37545000D01*
X328693000Y-37545000D02*
X328693000Y-38815000D01*
X328693000Y-38815000D02*
X328058000Y-39450000D01*
X326788000Y-41990000D02*
X328058000Y-41990000D01*
X326153000Y-41355000D02*
X326788000Y-41990000D01*
X328058000Y-41990000D02*
X328693000Y-41355000D01*
X328693000Y-40085000D02*
X328693000Y-41355000D01*
X326788000Y-29290000D02*
X328058000Y-29290000D01*
D11*
X325184171Y-40923200D02*
X325619600Y-40923200D01*
X325706685Y-40952228D01*
X325764742Y-41010285D01*
X325793771Y-41097371D01*
X325793771Y-41155428D01*
X325242228Y-40661942D02*
X325213200Y-40632914D01*
X325184171Y-40574857D01*
X325184171Y-40429714D01*
X325213200Y-40371657D01*
X325242228Y-40342628D01*
X325300285Y-40313600D01*
X325358342Y-40313600D01*
X325445428Y-40342628D01*
X325793771Y-40690971D01*
X325793771Y-40313600D01*
X329545714Y-43477714D02*
X329574742Y-43506742D01*
X329603771Y-43593828D01*
X329603771Y-43651885D01*
X329574742Y-43738971D01*
X329516685Y-43797028D01*
X329458628Y-43826057D01*
X329342514Y-43855085D01*
X329255428Y-43855085D01*
X329139314Y-43826057D01*
X329081257Y-43797028D01*
X329023200Y-43738971D01*
X328994171Y-43651885D01*
X328994171Y-43593828D01*
X329023200Y-43506742D01*
X329052228Y-43477714D01*
X328994171Y-43100342D02*
X328994171Y-42984228D01*
X329023200Y-42926171D01*
X329081257Y-42868114D01*
X329197371Y-42839085D01*
X329400571Y-42839085D01*
X329516685Y-42868114D01*
X329574742Y-42926171D01*
X329603771Y-42984228D01*
X329603771Y-43100342D01*
X329574742Y-43158400D01*
X329516685Y-43216457D01*
X329400571Y-43245485D01*
X329197371Y-43245485D01*
X329081257Y-43216457D01*
X329023200Y-43158400D01*
X328994171Y-43100342D01*
X329603771Y-42577828D02*
X328994171Y-42577828D01*
X329603771Y-42229485D01*
X328994171Y-42229485D01*
X329603771Y-41939200D02*
X328994171Y-41939200D01*
X329603771Y-41590857D01*
X328994171Y-41590857D01*
X329661828Y-41445714D02*
X329661828Y-40981257D01*
X328994171Y-40720000D02*
X328994171Y-40661942D01*
X329023200Y-40603885D01*
X329052228Y-40574857D01*
X329110285Y-40545828D01*
X329226400Y-40516800D01*
X329371542Y-40516800D01*
X329487657Y-40545828D01*
X329545714Y-40574857D01*
X329574742Y-40603885D01*
X329603771Y-40661942D01*
X329603771Y-40720000D01*
X329574742Y-40778057D01*
X329545714Y-40807085D01*
X329487657Y-40836114D01*
X329371542Y-40865142D01*
X329226400Y-40865142D01*
X329110285Y-40836114D01*
X329052228Y-40807085D01*
X329023200Y-40778057D01*
X328994171Y-40720000D01*
X328994171Y-39965257D02*
X328994171Y-40255542D01*
X329284457Y-40284571D01*
X329255428Y-40255542D01*
X329226400Y-40197485D01*
X329226400Y-40052342D01*
X329255428Y-39994285D01*
X329284457Y-39965257D01*
X329342514Y-39936228D01*
X329487657Y-39936228D01*
X329545714Y-39965257D01*
X329574742Y-39994285D01*
X329603771Y-40052342D01*
X329603771Y-40197485D01*
X329574742Y-40255542D01*
X329545714Y-40284571D01*
X329603771Y-39384685D02*
X329603771Y-39674971D01*
X328994171Y-39674971D01*
X328994171Y-39065371D02*
X328994171Y-38949257D01*
X329023200Y-38891200D01*
X329081257Y-38833142D01*
X329197371Y-38804114D01*
X329400571Y-38804114D01*
X329516685Y-38833142D01*
X329574742Y-38891200D01*
X329603771Y-38949257D01*
X329603771Y-39065371D01*
X329574742Y-39123428D01*
X329516685Y-39181485D01*
X329400571Y-39210514D01*
X329197371Y-39210514D01*
X329081257Y-39181485D01*
X329023200Y-39123428D01*
X328994171Y-39065371D01*
X329545714Y-38194514D02*
X329574742Y-38223542D01*
X329603771Y-38310628D01*
X329603771Y-38368685D01*
X329574742Y-38455771D01*
X329516685Y-38513828D01*
X329458628Y-38542857D01*
X329342514Y-38571885D01*
X329255428Y-38571885D01*
X329139314Y-38542857D01*
X329081257Y-38513828D01*
X329023200Y-38455771D01*
X328994171Y-38368685D01*
X328994171Y-38310628D01*
X329023200Y-38223542D01*
X329052228Y-38194514D01*
X329603771Y-37933257D02*
X328994171Y-37933257D01*
X329603771Y-37584914D02*
X329255428Y-37846171D01*
X328994171Y-37584914D02*
X329342514Y-37933257D01*
M02*
