M48
;DRILL file {KiCad (5.0.0-rc2-dev-733-g23a9fcd91)} date 06/11/18 13:16:20
;FORMAT={-:-/ absolute / metric / decimal}
FMAT,2
METRIC,TZ
T1C0.650
T2C0.986
T3C0.988
T4C1.000
T5C1.750
T6C3.048
T7C3.988
%
G90
G05
M71
T1
X118.554Y-80.099
X124.334Y-80.099
T2
X266.62Y-101.639
X266.62Y-103.671
T3
X271.7Y-102.655
T5
X125.889Y-166.688
X136.049Y-166.688
X273.526Y-185.737
X283.686Y-185.737
X316.389Y-185.737
X326.549Y-185.737
X430.689Y-128.588
X440.849Y-128.588
X240.189Y-166.688
X250.349Y-166.688
X264.001Y-128.588
X274.161Y-128.588
X430.689Y-147.637
X440.849Y-147.637
X140.176Y-109.537
X150.336Y-109.537
X163.989Y-166.688
X174.149Y-166.688
X349.726Y-109.537
X359.886Y-109.537
X387.826Y-147.637
X397.986Y-147.637
X130.651Y-128.588
X140.811Y-128.588
X202.089Y-166.688
X212.249Y-166.688
X59.214Y-109.537
X69.374Y-109.537
X359.251Y-109.537
X369.411Y-109.537
X321.151Y-90.487
X331.311Y-90.487
X254.476Y-185.737
X264.636Y-185.737
X449.739Y-90.487
X459.899Y-90.487
X468.789Y-166.688
X478.949Y-166.688
X78.264Y-185.737
X88.424Y-185.737
X292.576Y-185.737
X302.736Y-185.737
X235.426Y-185.737
X245.586Y-185.737
X340.201Y-128.588
X350.361Y-128.588
X468.789Y-147.637
X478.949Y-147.637
X244.951Y-128.588
X255.111Y-128.588
X411.639Y-166.688
X421.799Y-166.688
X294.959Y-185.738
X305.119Y-185.738
X449.739Y-109.537
X459.899Y-109.537
X325.914Y-147.637
X336.074Y-147.637
X159.226Y-109.537
X169.386Y-109.537
X316.389Y-166.688
X326.549Y-166.688
X318.771Y-185.738
X328.931Y-185.738
X225.901Y-128.588
X236.061Y-128.588
X449.739Y-147.637
X459.899Y-147.637
X340.201Y-90.487
X350.361Y-90.487
X430.689Y-185.737
X440.849Y-185.737
X387.826Y-90.487
X397.986Y-90.487
X106.839Y-128.588
X116.999Y-128.588
X430.689Y-90.487
X440.849Y-90.487
X411.639Y-147.637
X421.799Y-147.637
X168.751Y-128.588
X178.911Y-128.588
X249.714Y-147.637
X259.874Y-147.637
X152.083Y-185.738
X162.243Y-185.738
X187.801Y-128.588
X197.961Y-128.588
X387.826Y-166.688
X397.986Y-166.688
X128.271Y-185.738
X138.431Y-185.738
X368.776Y-109.537
X378.936Y-109.537
X211.614Y-147.637
X221.774Y-147.637
X430.689Y-109.537
X440.849Y-109.537
X135.414Y-147.637
X145.574Y-147.637
X273.526Y-109.537
X283.686Y-109.537
X183.039Y-166.688
X193.199Y-166.688
X104.458Y-185.738
X114.618Y-185.738
X187.801Y-90.487
X197.961Y-90.487
X216.376Y-90.487
X226.536Y-90.487
X59.214Y-185.737
X69.374Y-185.737
X421.164Y-185.737
X431.324Y-185.737
X173.514Y-147.637
X183.674Y-147.637
X216.376Y-109.537
X226.536Y-109.537
X192.564Y-147.637
X202.724Y-147.637
X149.701Y-128.588
X159.861Y-128.588
X59.214Y-166.688
X69.374Y-166.688
X235.426Y-109.537
X245.586Y-109.537
X144.939Y-166.688
X155.099Y-166.688
X306.864Y-147.637
X317.024Y-147.637
X121.126Y-109.537
X131.286Y-109.537
X230.664Y-147.637
X240.824Y-147.637
X449.739Y-128.588
X459.899Y-128.588
X302.101Y-90.487
X312.261Y-90.487
X368.776Y-185.737
X378.936Y-185.737
X168.751Y-90.487
X178.911Y-90.487
X78.264Y-90.487
X88.424Y-90.487
X387.826Y-185.737
X397.986Y-185.737
X197.326Y-185.737
X207.486Y-185.737
X449.739Y-185.737
X459.899Y-185.737
X342.582Y-166.688
X352.743Y-166.688
X387.826Y-128.588
X397.986Y-128.588
X154.464Y-147.637
X164.624Y-147.637
X78.264Y-128.588
X88.424Y-128.588
X292.576Y-109.537
X302.736Y-109.537
X268.764Y-147.637
X278.924Y-147.637
X311.626Y-109.537
X321.786Y-109.537
X254.476Y-90.487
X264.636Y-90.487
X78.264Y-166.688
X88.424Y-166.688
X468.789Y-128.588
X478.949Y-128.588
X297.339Y-166.688
X307.499Y-166.688
X364.014Y-128.588
X374.174Y-128.588
X468.789Y-90.487
X478.949Y-90.487
X78.264Y-147.637
X88.424Y-147.637
X359.251Y-90.487
X369.411Y-90.487
X254.476Y-109.537
X264.636Y-109.537
X59.214Y-90.487
X69.374Y-90.487
X106.839Y-185.737
X116.999Y-185.737
X449.739Y-166.688
X459.899Y-166.688
X411.639Y-185.737
X421.799Y-185.737
X283.051Y-128.588
X293.211Y-128.588
X104.457Y-166.688
X114.617Y-166.688
X223.521Y-185.738
X233.681Y-185.738
X321.151Y-128.588
X331.311Y-128.588
X287.814Y-147.637
X297.974Y-147.637
X59.214Y-128.588
X69.374Y-128.588
X368.776Y-166.688
X378.936Y-166.688
X411.639Y-109.537
X421.799Y-109.537
X59.214Y-147.637
X69.374Y-147.637
X178.276Y-109.537
X188.436Y-109.537
X259.239Y-166.688
X269.399Y-166.688
X411.639Y-128.588
X421.799Y-128.588
X102.076Y-109.537
X112.236Y-109.537
X149.701Y-90.487
X159.861Y-90.487
X273.526Y-90.487
X283.686Y-90.487
X468.789Y-185.737
X478.949Y-185.737
X356.87Y-147.637
X367.03Y-147.637
X473.869Y-171.132
X473.869Y-181.292
X130.651Y-90.487
X140.811Y-90.487
X349.726Y-185.737
X359.886Y-185.737
X197.326Y-109.537
X207.486Y-109.537
X113.983Y-166.688
X124.142Y-166.688
X302.101Y-128.588
X312.261Y-128.588
X102.076Y-90.487
X112.236Y-90.487
X430.689Y-166.688
X440.849Y-166.688
X468.789Y-109.537
X478.949Y-109.537
X387.826Y-109.537
X397.986Y-109.537
X278.289Y-166.688
X288.449Y-166.688
X330.676Y-109.537
X340.836Y-109.537
X473.869Y-133.032
X473.869Y-143.192
X206.851Y-128.588
X217.011Y-128.588
X221.139Y-166.688
X231.299Y-166.688
X78.264Y-109.537
X88.424Y-109.537
X411.639Y-90.487
X421.799Y-90.487
X109.22Y-147.796
X119.38Y-147.796
X130.651Y-185.737
X140.811Y-185.737
X235.426Y-90.487
X245.586Y-90.487
X154.464Y-185.737
X164.624Y-185.737
T6
X183.356Y-178.752
X221.456Y-178.752
X178.601Y-178.753
X278.601Y-178.753
X350.012Y-140.653
X373.888Y-140.653
X480.854Y-164.274
X480.854Y-188.15
X107.124Y-159.702
X131.Y-159.702
X480.854Y-126.174
X480.854Y-150.05
X259.556Y-178.752
X297.656Y-178.752
X352.393Y-102.552
X376.269Y-102.552
X240.506Y-178.752
X278.606Y-178.752
X183.356Y-178.752
X297.656Y-178.752
X278.606Y-178.752
X414.306Y-178.752
X438.182Y-178.752
T7
X307.181Y-128.588
X107.156Y-90.487
X435.769Y-166.688
X473.869Y-109.537
X392.906Y-109.537
X283.369Y-166.688
X335.756Y-109.537
X465.614Y-126.174
X465.614Y-150.05
X473.869Y-138.112
X211.931Y-128.588
X226.219Y-166.688
X83.344Y-109.537
X416.719Y-90.487
X114.3Y-147.796
X135.731Y-185.737
X240.506Y-90.487
X159.544Y-185.737
X130.969Y-166.688
X259.556Y-193.992
X278.606Y-185.737
X297.656Y-193.992
X321.469Y-185.737
X435.769Y-128.588
X245.269Y-166.688
X269.081Y-128.588
X435.769Y-147.637
X145.256Y-109.537
X169.069Y-166.688
X354.806Y-109.537
X392.906Y-147.637
X135.731Y-128.588
X207.169Y-166.688
X64.294Y-109.537
X352.393Y-117.792
X364.331Y-109.537
X376.269Y-117.792
X326.231Y-90.487
X240.506Y-193.992
X259.556Y-185.737
X278.606Y-193.992
X454.819Y-90.487
X473.869Y-166.688
X83.344Y-185.737
X297.656Y-185.737
X183.356Y-193.992
X240.506Y-185.737
X297.656Y-193.992
X345.281Y-128.588
X473.869Y-147.637
X250.031Y-128.588
X416.719Y-166.688
X300.039Y-185.738
X454.819Y-109.537
X330.994Y-147.637
X164.306Y-109.537
X321.469Y-166.688
X323.851Y-185.738
X230.981Y-128.588
X454.819Y-147.637
X345.281Y-90.487
X435.769Y-185.737
X392.906Y-90.487
X111.919Y-128.588
X435.769Y-90.487
X416.719Y-147.637
X173.831Y-128.588
X254.794Y-147.637
X157.163Y-185.738
X192.881Y-128.588
X392.906Y-166.688
X133.351Y-185.738
X373.856Y-109.537
X216.694Y-147.637
X435.769Y-109.537
X140.494Y-147.637
X278.606Y-109.537
X188.119Y-166.688
X109.538Y-185.738
X192.881Y-90.487
X221.456Y-90.487
X64.294Y-185.737
X278.606Y-193.992
X414.306Y-193.992
X426.244Y-185.737
X438.182Y-193.992
X178.594Y-147.637
X221.456Y-109.537
X197.644Y-147.637
X154.781Y-128.588
X64.294Y-166.688
X240.506Y-109.537
X150.019Y-166.688
X311.944Y-147.637
X126.206Y-109.537
X235.744Y-147.637
X454.819Y-128.588
X307.181Y-90.487
X373.856Y-185.737
X173.831Y-90.487
X83.344Y-90.487
X392.906Y-185.737
X183.356Y-193.992
X202.406Y-185.737
X221.456Y-193.992
X454.819Y-185.737
X347.662Y-166.688
X392.906Y-128.588
X159.544Y-147.637
X83.344Y-128.588
X297.656Y-109.537
X273.844Y-147.637
X316.706Y-109.537
X259.556Y-90.487
X83.344Y-166.688
X473.869Y-128.588
X302.419Y-166.688
X369.094Y-128.588
X473.869Y-90.487
X83.344Y-147.637
X364.331Y-90.487
X259.556Y-109.537
X64.294Y-90.487
X111.919Y-185.737
X454.819Y-166.688
X416.719Y-185.737
X288.131Y-128.588
X109.537Y-166.688
X178.601Y-193.993
X228.601Y-185.738
X278.601Y-193.993
X326.231Y-128.588
X292.894Y-147.637
X64.294Y-128.588
X373.856Y-166.688
X416.719Y-109.537
X64.294Y-147.637
X183.356Y-109.537
X264.319Y-166.688
X416.719Y-128.588
X107.156Y-109.537
X154.781Y-90.487
X278.606Y-90.487
X473.869Y-185.737
X350.012Y-155.892
X361.95Y-147.637
X373.888Y-155.892
X465.614Y-164.274
X465.614Y-188.15
X473.869Y-176.213
X135.731Y-90.487
X354.806Y-185.737
X202.406Y-109.537
X107.124Y-174.942
X119.062Y-166.688
X131.Y-174.942
T4
X95.43Y-141.42G85X95.43Y-148.42
G05
X404.76Y-84.41G85X404.76Y-91.41
G05
X95.27Y-84.09G85X95.27Y-91.09
G05
X404.86Y-170.43G85X404.86Y-177.43
G05
X404.92Y-156.76G85X404.92Y-163.76
G05
X95.48Y-126.87G85X95.48Y-133.87
G05
X95.37Y-170.11G85X95.37Y-177.11
G05
X405.02Y-184.57G85X405.02Y-191.57
G05
X404.92Y-98.99G85X404.92Y-105.99
G05
X95.43Y-156.44G85X95.43Y-163.44
G05
X95.43Y-98.67G85X95.43Y-105.67
G05
X404.92Y-113.08G85X404.92Y-120.08
G05
X95.43Y-112.76G85X95.43Y-119.76
G05
X404.92Y-141.74G85X404.92Y-148.74
G05
X404.97Y-127.19G85X404.97Y-134.19
G05
X95.53Y-184.25G85X95.53Y-191.25
G05
T0
M30
