G04 #@! TF.GenerationSoftware,KiCad,Pcbnew,(5.0.0-rc2-dev-733-g23a9fcd91)*
G04 #@! TF.CreationDate,2018-06-11T13:16:23-04:00*
G04 #@! TF.ProjectId,100plus-2,313030706C75732D322E6B696361645F,rev?*
G04 #@! TF.SameCoordinates,Original*
G04 #@! TF.FileFunction,Paste,Bot*
G04 #@! TF.FilePolarity,Positive*
%FSLAX45Y45*%
G04 Gerber Fmt 4.5, Leading zero omitted, Abs format (unit mm)*
G04 Created by KiCad (PCBNEW (5.0.0-rc2-dev-733-g23a9fcd91)) date 06/11/18 13:16:23*
%MOMM*%
%LPD*%
G01*
G04 APERTURE LIST*
%ADD10R,1.000000X0.995000*%
%ADD11R,1.200000X0.900000*%
%ADD12R,0.300000X1.150000*%
%ADD13R,0.600000X1.150000*%
%ADD14R,0.650000X1.560000*%
%ADD15C,0.550000*%
%ADD16C,0.100000*%
G04 APERTURE END LIST*
D10*
X12701000Y-8927750D03*
X12701000Y-8750250D03*
X11587000Y-8735000D03*
X11587000Y-8912500D03*
D11*
X11700000Y-15235000D03*
X11700000Y-15565000D03*
X32900000Y-13335000D03*
X32900000Y-13665000D03*
X25018000Y-8347000D03*
X25018000Y-8677000D03*
X25282000Y-8346000D03*
X25282000Y-8676000D03*
X6776250Y-9865000D03*
X6776250Y-9535000D03*
X8676250Y-9535000D03*
X8676250Y-9865000D03*
X11000000Y-9865000D03*
X11000000Y-9535000D03*
X13900000Y-9535000D03*
X13900000Y-9865000D03*
X15800000Y-9865000D03*
X15800000Y-9535000D03*
X17700000Y-9535000D03*
X17700000Y-9865000D03*
X19600000Y-9865000D03*
X19600000Y-9535000D03*
X22500000Y-9535000D03*
X22500000Y-9865000D03*
X23173000Y-9862000D03*
X23173000Y-9532000D03*
X26300000Y-9865000D03*
X26300000Y-9535000D03*
X28200000Y-9865000D03*
X28200000Y-9535000D03*
X31100000Y-9535000D03*
X31100000Y-9865000D03*
X33000000Y-9865000D03*
X33000000Y-9535000D03*
X34900000Y-9535000D03*
X34900000Y-9865000D03*
X36800000Y-9865000D03*
X36800000Y-9535000D03*
X39600000Y-9535000D03*
X39600000Y-9865000D03*
X42023750Y-9865000D03*
X42023750Y-9535000D03*
X43923750Y-9535000D03*
X43923750Y-9865000D03*
X45823750Y-9865000D03*
X45823750Y-9535000D03*
X47723750Y-9535000D03*
X47723750Y-9865000D03*
X6776250Y-11765000D03*
X6776250Y-11435000D03*
X8676250Y-11265000D03*
X8676250Y-11595000D03*
X11100000Y-11765000D03*
X11100000Y-11435000D03*
X13000000Y-11435000D03*
X13000000Y-11765000D03*
X14900000Y-11765000D03*
X14900000Y-11435000D03*
X16800000Y-11435000D03*
X16800000Y-11765000D03*
X18700000Y-11765000D03*
X18700000Y-11435000D03*
X20600000Y-11435000D03*
X20600000Y-11765000D03*
X22500000Y-11765000D03*
X22500000Y-11435000D03*
X24400000Y-11435000D03*
X24400000Y-11765000D03*
X26300000Y-11435000D03*
X26300000Y-11765000D03*
X28200000Y-11435000D03*
X28200000Y-11765000D03*
X30100000Y-11765000D03*
X30100000Y-11435000D03*
X32000000Y-11435000D03*
X32000000Y-11765000D03*
X33900000Y-11765000D03*
X33900000Y-11435000D03*
X36200000Y-11435000D03*
X36200000Y-11765000D03*
X38300000Y-11465000D03*
X38300000Y-11135000D03*
X39600000Y-11435000D03*
X39600000Y-11765000D03*
X42023750Y-11765000D03*
X42023750Y-11435000D03*
X43923750Y-11435000D03*
X43923750Y-11765000D03*
X45823750Y-11435000D03*
X45823750Y-11765000D03*
X47723750Y-11435000D03*
X47723750Y-11765000D03*
X6776250Y-13665000D03*
X6776250Y-13335000D03*
X8676250Y-13335000D03*
X8676250Y-13665000D03*
X11600000Y-13665000D03*
X11600000Y-13335000D03*
X13900000Y-13335000D03*
X13900000Y-13665000D03*
X15800000Y-13665000D03*
X15800000Y-13335000D03*
X17700000Y-13335000D03*
X17700000Y-13665000D03*
X19600000Y-13665000D03*
X19600000Y-13335000D03*
X21500000Y-13335000D03*
X21500000Y-13665000D03*
X23400000Y-13665000D03*
X23400000Y-13335000D03*
X25300000Y-13335000D03*
X25300000Y-13665000D03*
X27200000Y-13665000D03*
X27200000Y-13335000D03*
X29100000Y-13335000D03*
X29100000Y-13665000D03*
X31000000Y-13665000D03*
X31000000Y-13335000D03*
X34900000Y-13665000D03*
X34900000Y-13335000D03*
X37497000Y-13326000D03*
X37497000Y-13656000D03*
X39600000Y-13665000D03*
X39600000Y-13335000D03*
X42023750Y-13335000D03*
X42023750Y-13665000D03*
X43923750Y-13665000D03*
X43923750Y-13335000D03*
X45823750Y-13335000D03*
X45823750Y-13665000D03*
X48023750Y-13565000D03*
X48023750Y-13235000D03*
X6776250Y-15235000D03*
X6776250Y-15565000D03*
X8676250Y-15565000D03*
X8676250Y-15235000D03*
X14400000Y-15565000D03*
X14400000Y-15235000D03*
X16300000Y-15235000D03*
X16300000Y-15565000D03*
X18200000Y-15565000D03*
X18200000Y-15235000D03*
X20100000Y-15235000D03*
X20100000Y-15565000D03*
X22000000Y-15565000D03*
X22000000Y-15235000D03*
X23900000Y-15235000D03*
X23900000Y-15565000D03*
X25800000Y-15565000D03*
X25800000Y-15235000D03*
X27700000Y-15565000D03*
X27700000Y-15235000D03*
X29600000Y-15565000D03*
X29600000Y-15235000D03*
X31500000Y-15235000D03*
X31500000Y-15565000D03*
X33400000Y-15565000D03*
X33400000Y-15235000D03*
X36500000Y-15235000D03*
X36500000Y-15565000D03*
X39600000Y-15565000D03*
X39600000Y-15235000D03*
X42023750Y-15235000D03*
X42023750Y-15565000D03*
X43923750Y-15565000D03*
X43923750Y-15235000D03*
X45823750Y-15235000D03*
X45823750Y-15565000D03*
X47723750Y-15565000D03*
X47723750Y-15235000D03*
X6776250Y-17465000D03*
X6776250Y-17135000D03*
X8676250Y-17465000D03*
X8676250Y-17135000D03*
X11300000Y-17465000D03*
X11300000Y-17135000D03*
X12300000Y-17135000D03*
X12300000Y-17465000D03*
X15300000Y-17465000D03*
X15300000Y-17135000D03*
X17200000Y-17135000D03*
X17200000Y-17465000D03*
X19100000Y-17135000D03*
X19100000Y-17465000D03*
X21100000Y-17465000D03*
X21100000Y-17135000D03*
X22900000Y-17135000D03*
X22900000Y-17465000D03*
X24800000Y-17135000D03*
X24800000Y-17465000D03*
X26700000Y-17135000D03*
X26700000Y-17465000D03*
X28600000Y-17135000D03*
X28600000Y-17465000D03*
X30600000Y-17135000D03*
X30600000Y-17465000D03*
X32500000Y-17135000D03*
X32500000Y-17465000D03*
X35100000Y-17465000D03*
X35100000Y-17135000D03*
X37700000Y-17465000D03*
X37700000Y-17135000D03*
X39600000Y-17135000D03*
X39600000Y-17465000D03*
X42023750Y-17135000D03*
X42023750Y-17465000D03*
X43923750Y-17135000D03*
X43923750Y-17465000D03*
X45823750Y-17135000D03*
X45823750Y-17465000D03*
X47873750Y-17365000D03*
X47873750Y-17035000D03*
X6726250Y-19365000D03*
X6726250Y-19035000D03*
X8626250Y-19365000D03*
X8626250Y-19035000D03*
X11500000Y-19035000D03*
X11500000Y-19365000D03*
X16300000Y-19035000D03*
X16300000Y-19365000D03*
X20600000Y-19365000D03*
X20600000Y-19035000D03*
X25000000Y-19365000D03*
X25000000Y-19035000D03*
X28800000Y-19365000D03*
X28800000Y-19035000D03*
X32500000Y-19035000D03*
X32500000Y-19365000D03*
X35800000Y-19365000D03*
X35800000Y-19035000D03*
X37700000Y-19365000D03*
X37700000Y-19035000D03*
X39600000Y-19365000D03*
X39600000Y-19035000D03*
X42923750Y-19365000D03*
X42923750Y-19035000D03*
X44523750Y-19365000D03*
X44523750Y-19035000D03*
X45823750Y-19035000D03*
X45823750Y-19365000D03*
X47723750Y-19365000D03*
X47723750Y-19035000D03*
D12*
X12119375Y-8126375D03*
D13*
X12464375Y-8126375D03*
X12384375Y-8126375D03*
X11904375Y-8126375D03*
X11824375Y-8126375D03*
D12*
X12169375Y-8126375D03*
X12219375Y-8126375D03*
X12269375Y-8126375D03*
X12319375Y-8126375D03*
X12069375Y-8126375D03*
X12019375Y-8126375D03*
X11969375Y-8126375D03*
D14*
X24588000Y-8345000D03*
X24683000Y-8345000D03*
X24778000Y-8345000D03*
X24778000Y-8615000D03*
X24588000Y-8615000D03*
D15*
X24933792Y-10515894D03*
D16*
G36*
X24900204Y-10588372D02*
X24861313Y-10549481D01*
X24967379Y-10443415D01*
X25006270Y-10482306D01*
X24900204Y-10588372D01*
X24900204Y-10588372D01*
G37*
D15*
X24877223Y-10459325D03*
D16*
G36*
X24843636Y-10531803D02*
X24804745Y-10492913D01*
X24910811Y-10386847D01*
X24949702Y-10425737D01*
X24843636Y-10531803D01*
X24843636Y-10531803D01*
G37*
D15*
X24820655Y-10402757D03*
D16*
G36*
X24787067Y-10475235D02*
X24748176Y-10436344D01*
X24854242Y-10330278D01*
X24893133Y-10369169D01*
X24787067Y-10475235D01*
X24787067Y-10475235D01*
G37*
D15*
X24764086Y-10346188D03*
D16*
G36*
X24730499Y-10418666D02*
X24691608Y-10379776D01*
X24797674Y-10273710D01*
X24836565Y-10312600D01*
X24730499Y-10418666D01*
X24730499Y-10418666D01*
G37*
D15*
X24707518Y-10289619D03*
D16*
G36*
X24673930Y-10362098D02*
X24635039Y-10323207D01*
X24741105Y-10217141D01*
X24779996Y-10256032D01*
X24673930Y-10362098D01*
X24673930Y-10362098D01*
G37*
D15*
X24650949Y-10233051D03*
D16*
G36*
X24617361Y-10305529D02*
X24578471Y-10266639D01*
X24684537Y-10160573D01*
X24723427Y-10199463D01*
X24617361Y-10305529D01*
X24617361Y-10305529D01*
G37*
D15*
X24594381Y-10176482D03*
D16*
G36*
X24560793Y-10248961D02*
X24521902Y-10210070D01*
X24627968Y-10104004D01*
X24666859Y-10142895D01*
X24560793Y-10248961D01*
X24560793Y-10248961D01*
G37*
D15*
X24537812Y-10119914D03*
D16*
G36*
X24504224Y-10192392D02*
X24465334Y-10153501D01*
X24571400Y-10047435D01*
X24610290Y-10086326D01*
X24504224Y-10192392D01*
X24504224Y-10192392D01*
G37*
D15*
X24481243Y-10063345D03*
D16*
G36*
X24447656Y-10135824D02*
X24408765Y-10096933D01*
X24514831Y-9990867D01*
X24553722Y-10029758D01*
X24447656Y-10135824D01*
X24447656Y-10135824D01*
G37*
D15*
X24424675Y-10006777D03*
D16*
G36*
X24391087Y-10079255D02*
X24352197Y-10040364D01*
X24458263Y-9934298D01*
X24497153Y-9973189D01*
X24391087Y-10079255D01*
X24391087Y-10079255D01*
G37*
D15*
X24368106Y-9950208D03*
D16*
G36*
X24334519Y-10022687D02*
X24295628Y-9983796D01*
X24401694Y-9877730D01*
X24440585Y-9916621D01*
X24334519Y-10022687D01*
X24334519Y-10022687D01*
G37*
D15*
X24368106Y-9709792D03*
D16*
G36*
X24295628Y-9676204D02*
X24334519Y-9637313D01*
X24440585Y-9743379D01*
X24401694Y-9782270D01*
X24295628Y-9676204D01*
X24295628Y-9676204D01*
G37*
D15*
X24424675Y-9653223D03*
D16*
G36*
X24352197Y-9619636D02*
X24391087Y-9580745D01*
X24497153Y-9686811D01*
X24458263Y-9725702D01*
X24352197Y-9619636D01*
X24352197Y-9619636D01*
G37*
D15*
X24481243Y-9596655D03*
D16*
G36*
X24408765Y-9563067D02*
X24447656Y-9524176D01*
X24553722Y-9630242D01*
X24514831Y-9669133D01*
X24408765Y-9563067D01*
X24408765Y-9563067D01*
G37*
D15*
X24537812Y-9540086D03*
D16*
G36*
X24465334Y-9506499D02*
X24504224Y-9467608D01*
X24610290Y-9573674D01*
X24571400Y-9612565D01*
X24465334Y-9506499D01*
X24465334Y-9506499D01*
G37*
D15*
X24594381Y-9483518D03*
D16*
G36*
X24521902Y-9449930D02*
X24560793Y-9411039D01*
X24666859Y-9517105D01*
X24627968Y-9555996D01*
X24521902Y-9449930D01*
X24521902Y-9449930D01*
G37*
D15*
X24650949Y-9426949D03*
D16*
G36*
X24578471Y-9393362D02*
X24617361Y-9354471D01*
X24723427Y-9460537D01*
X24684537Y-9499428D01*
X24578471Y-9393362D01*
X24578471Y-9393362D01*
G37*
D15*
X24707518Y-9370381D03*
D16*
G36*
X24635039Y-9336793D02*
X24673930Y-9297902D01*
X24779996Y-9403968D01*
X24741105Y-9442859D01*
X24635039Y-9336793D01*
X24635039Y-9336793D01*
G37*
D15*
X24764086Y-9313812D03*
D16*
G36*
X24691608Y-9280224D02*
X24730499Y-9241334D01*
X24836565Y-9347400D01*
X24797674Y-9386290D01*
X24691608Y-9280224D01*
X24691608Y-9280224D01*
G37*
D15*
X24820655Y-9257244D03*
D16*
G36*
X24748176Y-9223656D02*
X24787067Y-9184765D01*
X24893133Y-9290831D01*
X24854242Y-9329722D01*
X24748176Y-9223656D01*
X24748176Y-9223656D01*
G37*
D15*
X24877223Y-9200675D03*
D16*
G36*
X24804745Y-9167087D02*
X24843636Y-9128197D01*
X24949702Y-9234263D01*
X24910811Y-9273153D01*
X24804745Y-9167087D01*
X24804745Y-9167087D01*
G37*
D15*
X24933792Y-9144106D03*
D16*
G36*
X24861313Y-9110519D02*
X24900204Y-9071628D01*
X25006270Y-9177694D01*
X24967379Y-9216585D01*
X24861313Y-9110519D01*
X24861313Y-9110519D01*
G37*
D15*
X25174208Y-9144106D03*
D16*
G36*
X25140621Y-9216585D02*
X25101730Y-9177694D01*
X25207796Y-9071628D01*
X25246687Y-9110519D01*
X25140621Y-9216585D01*
X25140621Y-9216585D01*
G37*
D15*
X25230777Y-9200675D03*
D16*
G36*
X25197189Y-9273153D02*
X25158298Y-9234263D01*
X25264364Y-9128197D01*
X25303255Y-9167087D01*
X25197189Y-9273153D01*
X25197189Y-9273153D01*
G37*
D15*
X25287345Y-9257244D03*
D16*
G36*
X25253758Y-9329722D02*
X25214867Y-9290831D01*
X25320933Y-9184765D01*
X25359824Y-9223656D01*
X25253758Y-9329722D01*
X25253758Y-9329722D01*
G37*
D15*
X25343914Y-9313812D03*
D16*
G36*
X25310326Y-9386290D02*
X25271435Y-9347400D01*
X25377501Y-9241334D01*
X25416392Y-9280224D01*
X25310326Y-9386290D01*
X25310326Y-9386290D01*
G37*
D15*
X25400482Y-9370381D03*
D16*
G36*
X25366895Y-9442859D02*
X25328004Y-9403968D01*
X25434070Y-9297902D01*
X25472961Y-9336793D01*
X25366895Y-9442859D01*
X25366895Y-9442859D01*
G37*
D15*
X25457051Y-9426949D03*
D16*
G36*
X25423463Y-9499428D02*
X25384572Y-9460537D01*
X25490638Y-9354471D01*
X25529529Y-9393362D01*
X25423463Y-9499428D01*
X25423463Y-9499428D01*
G37*
D15*
X25513619Y-9483518D03*
D16*
G36*
X25480032Y-9555996D02*
X25441141Y-9517105D01*
X25547207Y-9411039D01*
X25586098Y-9449930D01*
X25480032Y-9555996D01*
X25480032Y-9555996D01*
G37*
D15*
X25570188Y-9540086D03*
D16*
G36*
X25536600Y-9612565D02*
X25497710Y-9573674D01*
X25603776Y-9467608D01*
X25642666Y-9506499D01*
X25536600Y-9612565D01*
X25536600Y-9612565D01*
G37*
D15*
X25626756Y-9596655D03*
D16*
G36*
X25593169Y-9669133D02*
X25554278Y-9630242D01*
X25660344Y-9524176D01*
X25699235Y-9563067D01*
X25593169Y-9669133D01*
X25593169Y-9669133D01*
G37*
D15*
X25683325Y-9653223D03*
D16*
G36*
X25649737Y-9725702D02*
X25610847Y-9686811D01*
X25716913Y-9580745D01*
X25755803Y-9619636D01*
X25649737Y-9725702D01*
X25649737Y-9725702D01*
G37*
D15*
X25739894Y-9709792D03*
D16*
G36*
X25706306Y-9782270D02*
X25667415Y-9743379D01*
X25773481Y-9637313D01*
X25812372Y-9676204D01*
X25706306Y-9782270D01*
X25706306Y-9782270D01*
G37*
D15*
X25739894Y-9950208D03*
D16*
G36*
X25667415Y-9916621D02*
X25706306Y-9877730D01*
X25812372Y-9983796D01*
X25773481Y-10022687D01*
X25667415Y-9916621D01*
X25667415Y-9916621D01*
G37*
D15*
X25683325Y-10006777D03*
D16*
G36*
X25610847Y-9973189D02*
X25649737Y-9934298D01*
X25755803Y-10040364D01*
X25716913Y-10079255D01*
X25610847Y-9973189D01*
X25610847Y-9973189D01*
G37*
D15*
X25626756Y-10063345D03*
D16*
G36*
X25554278Y-10029758D02*
X25593169Y-9990867D01*
X25699235Y-10096933D01*
X25660344Y-10135824D01*
X25554278Y-10029758D01*
X25554278Y-10029758D01*
G37*
D15*
X25570188Y-10119914D03*
D16*
G36*
X25497710Y-10086326D02*
X25536600Y-10047435D01*
X25642666Y-10153501D01*
X25603776Y-10192392D01*
X25497710Y-10086326D01*
X25497710Y-10086326D01*
G37*
D15*
X25513619Y-10176482D03*
D16*
G36*
X25441141Y-10142895D02*
X25480032Y-10104004D01*
X25586098Y-10210070D01*
X25547207Y-10248961D01*
X25441141Y-10142895D01*
X25441141Y-10142895D01*
G37*
D15*
X25457051Y-10233051D03*
D16*
G36*
X25384572Y-10199463D02*
X25423463Y-10160573D01*
X25529529Y-10266639D01*
X25490638Y-10305529D01*
X25384572Y-10199463D01*
X25384572Y-10199463D01*
G37*
D15*
X25400482Y-10289619D03*
D16*
G36*
X25328004Y-10256032D02*
X25366895Y-10217141D01*
X25472961Y-10323207D01*
X25434070Y-10362098D01*
X25328004Y-10256032D01*
X25328004Y-10256032D01*
G37*
D15*
X25343914Y-10346188D03*
D16*
G36*
X25271435Y-10312600D02*
X25310326Y-10273710D01*
X25416392Y-10379776D01*
X25377501Y-10418666D01*
X25271435Y-10312600D01*
X25271435Y-10312600D01*
G37*
D15*
X25287345Y-10402757D03*
D16*
G36*
X25214867Y-10369169D02*
X25253758Y-10330278D01*
X25359824Y-10436344D01*
X25320933Y-10475235D01*
X25214867Y-10369169D01*
X25214867Y-10369169D01*
G37*
D15*
X25230777Y-10459325D03*
D16*
G36*
X25158298Y-10425737D02*
X25197189Y-10386847D01*
X25303255Y-10492913D01*
X25264364Y-10531803D01*
X25158298Y-10425737D01*
X25158298Y-10425737D01*
G37*
D15*
X25174208Y-10515894D03*
D16*
G36*
X25101730Y-10482306D02*
X25140621Y-10443415D01*
X25246687Y-10549481D01*
X25207796Y-10588372D01*
X25101730Y-10482306D01*
X25101730Y-10482306D01*
G37*
D11*
X13924000Y-19356000D03*
X13924000Y-19026000D03*
M02*
