G04 #@! TF.GenerationSoftware,KiCad,Pcbnew,(5.0.0-rc2-dev-733-g23a9fcd91)*
G04 #@! TF.CreationDate,2018-06-11T13:16:23-04:00*
G04 #@! TF.ProjectId,100plus-2,313030706C75732D322E6B696361645F,rev?*
G04 #@! TF.SameCoordinates,Original*
G04 #@! TF.FileFunction,Soldermask,Top*
G04 #@! TF.FilePolarity,Negative*
%FSLAX45Y45*%
G04 Gerber Fmt 4.5, Leading zero omitted, Abs format (unit mm)*
G04 Created by KiCad (PCBNEW (5.0.0-rc2-dev-733-g23a9fcd91)) date 06/11/18 13:16:23*
%MOMM*%
%LPD*%
G01*
G04 APERTURE LIST*
%ADD10C,4.387800*%
%ADD11C,2.150000*%
%ADD12O,1.400000X8.400000*%
%ADD13C,3.448000*%
%ADD14O,1.400000X2.500000*%
%ADD15C,1.050000*%
%ADD16O,1.400000X2.000000*%
%ADD17C,1.388060*%
%ADD18C,1.385520*%
%ADD19C,1.400000*%
%ADD20C,6.400000*%
%ADD21C,2.082800*%
G04 APERTURE END LIST*
D10*
X15001875Y-16668750D03*
D11*
X14493875Y-16668750D03*
X15509875Y-16668750D03*
X26463625Y-9048750D03*
X25447625Y-9048750D03*
D10*
X25955625Y-9048750D03*
X10715625Y-9048750D03*
D11*
X10207625Y-9048750D03*
X11223625Y-9048750D03*
D12*
X9553000Y-18775000D03*
X9543000Y-14492000D03*
X9548000Y-13037000D03*
X9543000Y-15994000D03*
X9527000Y-8759000D03*
X9537000Y-17361000D03*
X9543000Y-11626000D03*
X9543000Y-10217000D03*
D10*
X39290625Y-10953750D03*
D11*
X38782625Y-10953750D03*
X39798625Y-10953750D03*
X30273625Y-10953750D03*
X29257625Y-10953750D03*
D10*
X29765625Y-10953750D03*
X25955625Y-10953750D03*
D11*
X25447625Y-10953750D03*
X26463625Y-10953750D03*
D10*
X11191875Y-12858750D03*
D11*
X10683875Y-12858750D03*
X11699875Y-12858750D03*
D10*
X8334375Y-14763750D03*
D11*
X7826375Y-14763750D03*
X8842375Y-14763750D03*
D12*
X40476000Y-8791000D03*
X40492000Y-10249000D03*
X40492000Y-11658000D03*
D10*
X11430000Y-14779625D03*
D11*
X10922000Y-14779625D03*
X11938000Y-14779625D03*
D10*
X37388800Y-15589250D03*
X35001200Y-15589250D03*
D13*
X37388800Y-14065250D03*
X35001200Y-14065250D03*
D11*
X36703000Y-14763750D03*
X35687000Y-14763750D03*
D10*
X36195000Y-14763750D03*
D12*
X40486000Y-17393000D03*
D14*
X11712375Y-8059875D03*
D15*
X11855375Y-8009875D03*
D14*
X12576375Y-8059875D03*
D16*
X11712375Y-7641875D03*
X12576375Y-7641875D03*
D15*
X12433375Y-8009875D03*
D11*
X6937375Y-9048750D03*
X5921375Y-9048750D03*
D10*
X6429375Y-9048750D03*
D11*
X8842375Y-9048750D03*
X7826375Y-9048750D03*
D10*
X8334375Y-9048750D03*
D11*
X14081125Y-9048750D03*
X13065125Y-9048750D03*
D10*
X13573125Y-9048750D03*
D11*
X15986125Y-9048750D03*
X14970125Y-9048750D03*
D10*
X15478125Y-9048750D03*
X17383125Y-9048750D03*
D11*
X16875125Y-9048750D03*
X17891125Y-9048750D03*
D10*
X19288125Y-9048750D03*
D11*
X18780125Y-9048750D03*
X19796125Y-9048750D03*
X22653625Y-9048750D03*
X21637625Y-9048750D03*
D10*
X22145625Y-9048750D03*
X24050625Y-9048750D03*
D11*
X23542625Y-9048750D03*
X24558625Y-9048750D03*
X28368625Y-9048750D03*
X27352625Y-9048750D03*
D10*
X27860625Y-9048750D03*
X30718125Y-9048750D03*
D11*
X30210125Y-9048750D03*
X31226125Y-9048750D03*
X33131125Y-9048750D03*
X32115125Y-9048750D03*
D10*
X32623125Y-9048750D03*
X34528125Y-9048750D03*
D11*
X34020125Y-9048750D03*
X35036125Y-9048750D03*
D10*
X36433125Y-9048750D03*
D11*
X35925125Y-9048750D03*
X36941125Y-9048750D03*
X39798625Y-9048750D03*
X38782625Y-9048750D03*
D10*
X39290625Y-9048750D03*
D11*
X42179875Y-9048750D03*
X41163875Y-9048750D03*
D10*
X41671875Y-9048750D03*
D11*
X44084875Y-9048750D03*
X43068875Y-9048750D03*
D10*
X43576875Y-9048750D03*
X45481875Y-9048750D03*
D11*
X44973875Y-9048750D03*
X45989875Y-9048750D03*
D10*
X47386875Y-9048750D03*
D11*
X46878875Y-9048750D03*
X47894875Y-9048750D03*
D10*
X6429375Y-10953750D03*
D11*
X5921375Y-10953750D03*
X6937375Y-10953750D03*
X8842375Y-10953750D03*
X7826375Y-10953750D03*
D10*
X8334375Y-10953750D03*
X10715625Y-10953750D03*
D11*
X10207625Y-10953750D03*
X11223625Y-10953750D03*
X13128625Y-10953750D03*
X12112625Y-10953750D03*
D10*
X12620625Y-10953750D03*
D11*
X15033625Y-10953750D03*
X14017625Y-10953750D03*
D10*
X14525625Y-10953750D03*
X16430625Y-10953750D03*
D11*
X15922625Y-10953750D03*
X16938625Y-10953750D03*
D10*
X18335625Y-10953750D03*
D11*
X17827625Y-10953750D03*
X18843625Y-10953750D03*
X20748625Y-10953750D03*
X19732625Y-10953750D03*
D10*
X20240625Y-10953750D03*
X22145625Y-10953750D03*
D11*
X21637625Y-10953750D03*
X22653625Y-10953750D03*
X24558625Y-10953750D03*
X23542625Y-10953750D03*
D10*
X24050625Y-10953750D03*
X27860625Y-10953750D03*
D11*
X27352625Y-10953750D03*
X28368625Y-10953750D03*
D10*
X31670625Y-10953750D03*
D11*
X31162625Y-10953750D03*
X32178625Y-10953750D03*
X34083625Y-10953750D03*
X33067625Y-10953750D03*
D10*
X33575625Y-10953750D03*
D11*
X35988625Y-10953750D03*
X34972625Y-10953750D03*
D10*
X35480625Y-10953750D03*
D11*
X37893625Y-10953750D03*
X36877625Y-10953750D03*
D10*
X37385625Y-10953750D03*
X41671875Y-10953750D03*
D11*
X41163875Y-10953750D03*
X42179875Y-10953750D03*
X44084875Y-10953750D03*
X43068875Y-10953750D03*
D10*
X43576875Y-10953750D03*
D11*
X45989875Y-10953750D03*
X44973875Y-10953750D03*
D10*
X45481875Y-10953750D03*
D11*
X47894875Y-10953750D03*
X46878875Y-10953750D03*
D10*
X47386875Y-10953750D03*
X6429375Y-12858750D03*
D11*
X5921375Y-12858750D03*
X6937375Y-12858750D03*
X8842375Y-12858750D03*
X7826375Y-12858750D03*
D10*
X8334375Y-12858750D03*
D11*
X14081125Y-12858750D03*
X13065125Y-12858750D03*
D10*
X13573125Y-12858750D03*
D11*
X15986125Y-12858750D03*
X14970125Y-12858750D03*
D10*
X15478125Y-12858750D03*
X17383125Y-12858750D03*
D11*
X16875125Y-12858750D03*
X17891125Y-12858750D03*
D10*
X19288125Y-12858750D03*
D11*
X18780125Y-12858750D03*
X19796125Y-12858750D03*
X21701125Y-12858750D03*
X20685125Y-12858750D03*
D10*
X21193125Y-12858750D03*
D11*
X23606125Y-12858750D03*
X22590125Y-12858750D03*
D10*
X23098125Y-12858750D03*
D11*
X25511125Y-12858750D03*
X24495125Y-12858750D03*
D10*
X25003125Y-12858750D03*
X26908125Y-12858750D03*
D11*
X26400125Y-12858750D03*
X27416125Y-12858750D03*
D10*
X28813125Y-12858750D03*
D11*
X28305125Y-12858750D03*
X29321125Y-12858750D03*
X31226125Y-12858750D03*
X30210125Y-12858750D03*
D10*
X30718125Y-12858750D03*
D11*
X33131125Y-12858750D03*
X32115125Y-12858750D03*
D10*
X32623125Y-12858750D03*
X34528125Y-12858750D03*
D11*
X34020125Y-12858750D03*
X35036125Y-12858750D03*
D10*
X36909375Y-12858750D03*
D11*
X36401375Y-12858750D03*
X37417375Y-12858750D03*
D10*
X39290625Y-12858750D03*
D11*
X38782625Y-12858750D03*
X39798625Y-12858750D03*
X42179875Y-12858750D03*
X41163875Y-12858750D03*
D10*
X41671875Y-12858750D03*
D11*
X44084875Y-12858750D03*
X43068875Y-12858750D03*
D10*
X43576875Y-12858750D03*
X45481875Y-12858750D03*
D11*
X44973875Y-12858750D03*
X45989875Y-12858750D03*
X47894875Y-12858750D03*
X46878875Y-12858750D03*
D10*
X47386875Y-12858750D03*
X46561375Y-12617450D03*
X46561375Y-15005050D03*
D13*
X48085375Y-12617450D03*
X48085375Y-15005050D03*
D11*
X47386875Y-13303250D03*
X47386875Y-14319250D03*
D10*
X47386875Y-13811250D03*
D11*
X6937375Y-14763750D03*
X5921375Y-14763750D03*
D10*
X6429375Y-14763750D03*
X14049375Y-14763750D03*
D11*
X13541375Y-14763750D03*
X14557375Y-14763750D03*
X16462375Y-14763750D03*
X15446375Y-14763750D03*
D10*
X15954375Y-14763750D03*
D11*
X18367375Y-14763750D03*
X17351375Y-14763750D03*
D10*
X17859375Y-14763750D03*
X19764375Y-14763750D03*
D11*
X19256375Y-14763750D03*
X20272375Y-14763750D03*
X22177375Y-14763750D03*
X21161375Y-14763750D03*
D10*
X21669375Y-14763750D03*
D11*
X24082375Y-14763750D03*
X23066375Y-14763750D03*
D10*
X23574375Y-14763750D03*
D11*
X25987375Y-14763750D03*
X24971375Y-14763750D03*
D10*
X25479375Y-14763750D03*
X27384375Y-14763750D03*
D11*
X26876375Y-14763750D03*
X27892375Y-14763750D03*
D10*
X29289375Y-14763750D03*
D11*
X28781375Y-14763750D03*
X29797375Y-14763750D03*
X31702375Y-14763750D03*
X30686375Y-14763750D03*
D10*
X31194375Y-14763750D03*
X33099375Y-14763750D03*
D11*
X32591375Y-14763750D03*
X33607375Y-14763750D03*
X39798625Y-14763750D03*
X38782625Y-14763750D03*
D10*
X39290625Y-14763750D03*
X41671875Y-14763750D03*
D11*
X41163875Y-14763750D03*
X42179875Y-14763750D03*
X44084875Y-14763750D03*
X43068875Y-14763750D03*
D10*
X43576875Y-14763750D03*
X45481875Y-14763750D03*
D11*
X44973875Y-14763750D03*
X45989875Y-14763750D03*
X47894875Y-14763750D03*
X46878875Y-14763750D03*
D10*
X47386875Y-14763750D03*
X6429375Y-16668750D03*
D11*
X5921375Y-16668750D03*
X6937375Y-16668750D03*
X8842375Y-16668750D03*
X7826375Y-16668750D03*
D10*
X8334375Y-16668750D03*
X10953750Y-16668750D03*
D11*
X10445750Y-16668750D03*
X11461750Y-16668750D03*
D10*
X11906250Y-16668750D03*
D11*
X11398250Y-16668750D03*
X12414250Y-16668750D03*
D13*
X10712450Y-15970250D03*
X13100050Y-15970250D03*
D10*
X10712450Y-17494250D03*
X13100050Y-17494250D03*
X16906875Y-16668750D03*
D11*
X16398875Y-16668750D03*
X17414875Y-16668750D03*
X19319875Y-16668750D03*
X18303875Y-16668750D03*
D10*
X18811875Y-16668750D03*
X20716875Y-16668750D03*
D11*
X20208875Y-16668750D03*
X21224875Y-16668750D03*
X23129875Y-16668750D03*
X22113875Y-16668750D03*
D10*
X22621875Y-16668750D03*
X24526875Y-16668750D03*
D11*
X24018875Y-16668750D03*
X25034875Y-16668750D03*
X26939875Y-16668750D03*
X25923875Y-16668750D03*
D10*
X26431875Y-16668750D03*
X28336875Y-16668750D03*
D11*
X27828875Y-16668750D03*
X28844875Y-16668750D03*
X30749875Y-16668750D03*
X29733875Y-16668750D03*
D10*
X30241875Y-16668750D03*
D11*
X32654875Y-16668750D03*
X31638875Y-16668750D03*
D10*
X32146875Y-16668750D03*
X34766250Y-16668750D03*
D11*
X34258250Y-16668750D03*
X35274250Y-16668750D03*
D10*
X37385625Y-16668750D03*
D11*
X36877625Y-16668750D03*
X37893625Y-16668750D03*
X39798625Y-16668750D03*
X38782625Y-16668750D03*
D10*
X39290625Y-16668750D03*
X41671875Y-16668750D03*
D11*
X41163875Y-16668750D03*
X42179875Y-16668750D03*
X44084875Y-16668750D03*
X43068875Y-16668750D03*
D10*
X43576875Y-16668750D03*
X45481875Y-16668750D03*
D11*
X44973875Y-16668750D03*
X45989875Y-16668750D03*
D10*
X47386875Y-16668750D03*
D11*
X46878875Y-16668750D03*
X47894875Y-16668750D03*
D10*
X13096875Y-16668750D03*
D11*
X12588875Y-16668750D03*
X13604875Y-16668750D03*
D10*
X47386875Y-17621250D03*
D11*
X47386875Y-18129250D03*
X47386875Y-17113250D03*
D13*
X48085375Y-18815050D03*
X48085375Y-16427450D03*
D10*
X46561375Y-18815050D03*
X46561375Y-16427450D03*
X24050625Y-18573750D03*
D11*
X23542625Y-18573750D03*
X24558625Y-18573750D03*
D13*
X18335625Y-17875250D03*
X29765625Y-17875250D03*
D10*
X18335625Y-19399250D03*
X29765625Y-19399250D03*
D11*
X6937375Y-18573750D03*
X5921375Y-18573750D03*
D10*
X6429375Y-18573750D03*
D11*
X8842375Y-18573750D03*
X7826375Y-18573750D03*
D10*
X8334375Y-18573750D03*
X11191875Y-18573750D03*
D11*
X10683875Y-18573750D03*
X11699875Y-18573750D03*
X16462375Y-18573750D03*
X15446375Y-18573750D03*
D10*
X15954375Y-18573750D03*
X20240625Y-18573750D03*
D11*
X19732625Y-18573750D03*
X20748625Y-18573750D03*
D13*
X18335625Y-17875250D03*
X22145625Y-17875250D03*
D10*
X18335625Y-19399250D03*
X22145625Y-19399250D03*
X25955625Y-18573750D03*
D11*
X25447625Y-18573750D03*
X26463625Y-18573750D03*
D13*
X24050625Y-17875250D03*
X27860625Y-17875250D03*
D10*
X24050625Y-19399250D03*
X27860625Y-19399250D03*
X29765625Y-18573750D03*
D11*
X29257625Y-18573750D03*
X30273625Y-18573750D03*
D10*
X32146875Y-18573750D03*
D11*
X31638875Y-18573750D03*
X32654875Y-18573750D03*
D10*
X35480625Y-18573750D03*
D11*
X34972625Y-18573750D03*
X35988625Y-18573750D03*
D10*
X37385625Y-18573750D03*
D11*
X36877625Y-18573750D03*
X37893625Y-18573750D03*
D10*
X39290625Y-18573750D03*
D11*
X38782625Y-18573750D03*
X39798625Y-18573750D03*
D10*
X41671875Y-18573750D03*
D11*
X41163875Y-18573750D03*
X42179875Y-18573750D03*
D10*
X43576875Y-18573750D03*
D11*
X43068875Y-18573750D03*
X44084875Y-18573750D03*
X45989875Y-18573750D03*
X44973875Y-18573750D03*
D10*
X45481875Y-18573750D03*
X47386875Y-18573750D03*
D11*
X46878875Y-18573750D03*
X47894875Y-18573750D03*
D13*
X27860625Y-17875250D03*
D10*
X27860625Y-19399250D03*
X29765625Y-19399250D03*
X25955625Y-19399250D03*
D13*
X29765625Y-17875250D03*
X25955625Y-17875250D03*
D11*
X28368625Y-18573750D03*
X27352625Y-18573750D03*
D10*
X27860625Y-18573750D03*
X42624375Y-18573750D03*
D11*
X42116375Y-18573750D03*
X43132375Y-18573750D03*
D13*
X41430575Y-17875250D03*
X43818175Y-17875250D03*
D10*
X41430575Y-19399250D03*
X43818175Y-19399250D03*
D17*
X27170000Y-10265500D03*
D18*
X26662000Y-10163900D03*
X26662000Y-10367100D03*
D10*
X36433125Y-10953750D03*
D11*
X35925125Y-10953750D03*
X36941125Y-10953750D03*
D13*
X35239325Y-10255250D03*
X37626925Y-10255250D03*
D10*
X35239325Y-11779250D03*
X37626925Y-11779250D03*
D12*
X40492000Y-14524000D03*
X40502000Y-18807000D03*
X40492000Y-16026000D03*
X40497000Y-13069000D03*
D10*
X13573125Y-18573750D03*
D11*
X13065125Y-18573750D03*
X14081125Y-18573750D03*
D19*
X12019375Y-8985625D03*
X12269375Y-8985625D03*
X12144375Y-8985625D03*
X12019375Y-8635625D03*
X12269375Y-8635625D03*
X12144375Y-8635625D03*
D20*
X12144375Y-8810625D03*
D19*
X20591875Y-8985625D03*
X20841875Y-8985625D03*
X20716875Y-8985625D03*
X20591875Y-8635625D03*
X20841875Y-8635625D03*
X20716875Y-8635625D03*
D20*
X20716875Y-8810625D03*
D19*
X29164375Y-8985625D03*
X29414375Y-8985625D03*
X29289375Y-8985625D03*
X29164375Y-8635625D03*
X29414375Y-8635625D03*
X29289375Y-8635625D03*
D20*
X29289375Y-8810625D03*
D19*
X37736875Y-8985625D03*
X37986875Y-8985625D03*
X37861875Y-8985625D03*
X37736875Y-8635625D03*
X37986875Y-8635625D03*
X37861875Y-8635625D03*
D20*
X37861875Y-8810625D03*
D19*
X33926875Y-18748750D03*
X34176875Y-18748750D03*
X34051875Y-18748750D03*
X33926875Y-18398750D03*
X34176875Y-18398750D03*
X34051875Y-18398750D03*
D20*
X34051875Y-18573750D03*
D19*
X17258125Y-18748750D03*
X17508125Y-18748750D03*
X17383125Y-18748750D03*
X17258125Y-18398750D03*
X17508125Y-18398750D03*
X17383125Y-18398750D03*
D20*
X17383125Y-18573750D03*
D19*
X7256875Y-15891250D03*
X7506875Y-15891250D03*
X7381875Y-15891250D03*
X7256875Y-15541250D03*
X7506875Y-15541250D03*
X7381875Y-15541250D03*
D20*
X7381875Y-15716250D03*
D19*
X7256875Y-12081250D03*
X7506875Y-12081250D03*
X7381875Y-12081250D03*
X7256875Y-11731250D03*
X7506875Y-11731250D03*
X7381875Y-11731250D03*
D20*
X7381875Y-11906250D03*
D19*
X42499375Y-12081250D03*
X42749375Y-12081250D03*
X42624375Y-12081250D03*
X42499375Y-11731250D03*
X42749375Y-11731250D03*
X42624375Y-11731250D03*
D20*
X42624375Y-11906250D03*
D19*
X46309375Y-12081250D03*
X46559375Y-12081250D03*
X46434375Y-12081250D03*
X46309375Y-11731250D03*
X46559375Y-11731250D03*
X46434375Y-11731250D03*
D20*
X46434375Y-11906250D03*
D19*
X44404375Y-15891250D03*
X44654375Y-15891250D03*
X44529375Y-15891250D03*
X44404375Y-15541250D03*
X44654375Y-15541250D03*
X44529375Y-15541250D03*
D20*
X44529375Y-15716250D03*
D19*
X25932000Y-13869000D03*
X26182000Y-13869000D03*
X26057000Y-13869000D03*
X25932000Y-13519000D03*
X26182000Y-13519000D03*
X26057000Y-13519000D03*
D20*
X26057000Y-13694000D03*
D19*
X38213125Y-13986250D03*
X38463125Y-13986250D03*
X38338125Y-13986250D03*
X38213125Y-13636250D03*
X38463125Y-13636250D03*
X38338125Y-13636250D03*
D20*
X38338125Y-13811250D03*
D19*
X12495625Y-13986250D03*
X12745625Y-13986250D03*
X12620625Y-13986250D03*
X12495625Y-13636250D03*
X12745625Y-13636250D03*
X12620625Y-13636250D03*
D20*
X12620625Y-13811250D03*
D21*
X44338875Y-8255000D03*
X44338875Y-8509000D03*
X44338875Y-8763000D03*
X44338875Y-9017000D03*
X44338875Y-9271000D03*
X44338875Y-9525000D03*
X44338875Y-9779000D03*
X44338875Y-10033000D03*
X44338875Y-10287000D03*
X44338875Y-10541000D03*
X44338875Y-10795000D03*
X44338875Y-11049000D03*
X42814875Y-11049000D03*
X42814875Y-10795000D03*
X42814875Y-10541000D03*
X42814875Y-10287000D03*
X42814875Y-10033000D03*
X42814875Y-9779000D03*
X42814875Y-9525000D03*
X42814875Y-9271000D03*
X42814875Y-9017000D03*
X42814875Y-8763000D03*
X42814875Y-8509000D03*
X42814875Y-8255000D03*
D11*
X11461796Y-18573828D03*
X10445796Y-18573828D03*
D10*
X10953796Y-18573828D03*
X13335056Y-18573828D03*
D11*
X12827056Y-18573828D03*
X13843056Y-18573828D03*
D10*
X15716316Y-18573828D03*
D11*
X15208316Y-18573828D03*
X16224316Y-18573828D03*
D10*
X22860096Y-18573828D03*
D11*
X22352096Y-18573828D03*
X23368096Y-18573828D03*
D13*
X17860106Y-17875328D03*
X27860086Y-17875328D03*
D10*
X17860106Y-19399328D03*
X27860086Y-19399328D03*
D11*
X30511876Y-18573828D03*
X29495876Y-18573828D03*
D10*
X30003876Y-18573828D03*
X32385136Y-18573828D03*
D11*
X31877136Y-18573828D03*
X32893136Y-18573828D03*
M02*
