G04 #@! TF.GenerationSoftware,KiCad,Pcbnew,(5.0.0-rc2-dev-733-g23a9fcd91)*
G04 #@! TF.CreationDate,2018-06-11T13:16:23-04:00*
G04 #@! TF.ProjectId,100plus-2,313030706C75732D322E6B696361645F,rev?*
G04 #@! TF.SameCoordinates,Original*
G04 #@! TF.FileFunction,Legend,Top*
G04 #@! TF.FilePolarity,Positive*
%FSLAX45Y45*%
G04 Gerber Fmt 4.5, Leading zero omitted, Abs format (unit mm)*
G04 Created by KiCad (PCBNEW (5.0.0-rc2-dev-733-g23a9fcd91)) date 06/11/18 13:16:23*
%MOMM*%
%LPD*%
G01*
G04 APERTURE LIST*
%ADD10C,0.600000*%
%ADD11C,0.500000*%
G04 APERTURE END LIST*
D10*
X11939286Y-11625714D02*
X11939286Y-11325714D01*
X12053571Y-11325714D01*
X12082143Y-11340000D01*
X12096428Y-11354286D01*
X12110714Y-11382857D01*
X12110714Y-11425714D01*
X12096428Y-11454286D01*
X12082143Y-11468571D01*
X12053571Y-11482857D01*
X11939286Y-11482857D01*
X12410714Y-11597143D02*
X12396428Y-11611428D01*
X12353571Y-11625714D01*
X12325000Y-11625714D01*
X12282143Y-11611428D01*
X12253571Y-11582857D01*
X12239286Y-11554286D01*
X12225000Y-11497143D01*
X12225000Y-11454286D01*
X12239286Y-11397143D01*
X12253571Y-11368571D01*
X12282143Y-11340000D01*
X12325000Y-11325714D01*
X12353571Y-11325714D01*
X12396428Y-11340000D01*
X12410714Y-11354286D01*
X12639286Y-11468571D02*
X12682143Y-11482857D01*
X12696428Y-11497143D01*
X12710714Y-11525714D01*
X12710714Y-11568571D01*
X12696428Y-11597143D01*
X12682143Y-11611428D01*
X12653571Y-11625714D01*
X12539286Y-11625714D01*
X12539286Y-11325714D01*
X12639286Y-11325714D01*
X12667857Y-11340000D01*
X12682143Y-11354286D01*
X12696428Y-11382857D01*
X12696428Y-11411428D01*
X12682143Y-11440000D01*
X12667857Y-11454286D01*
X12639286Y-11468571D01*
X12539286Y-11468571D01*
X13067857Y-11625714D02*
X13067857Y-11325714D01*
X13067857Y-11440000D02*
X13096428Y-11425714D01*
X13153571Y-11425714D01*
X13182143Y-11440000D01*
X13196428Y-11454286D01*
X13210714Y-11482857D01*
X13210714Y-11568571D01*
X13196428Y-11597143D01*
X13182143Y-11611428D01*
X13153571Y-11625714D01*
X13096428Y-11625714D01*
X13067857Y-11611428D01*
X13310714Y-11425714D02*
X13382143Y-11625714D01*
X13453571Y-11425714D02*
X13382143Y-11625714D01*
X13353571Y-11697143D01*
X13339286Y-11711428D01*
X13310714Y-11725714D01*
X13925000Y-11625714D02*
X13925000Y-11468571D01*
X13910714Y-11440000D01*
X13882143Y-11425714D01*
X13825000Y-11425714D01*
X13796428Y-11440000D01*
X13925000Y-11611428D02*
X13896428Y-11625714D01*
X13825000Y-11625714D01*
X13796428Y-11611428D01*
X13782143Y-11582857D01*
X13782143Y-11554286D01*
X13796428Y-11525714D01*
X13825000Y-11511428D01*
X13896428Y-11511428D01*
X13925000Y-11497143D01*
X14067857Y-11625714D02*
X14067857Y-11425714D01*
X14067857Y-11454286D02*
X14082143Y-11440000D01*
X14110714Y-11425714D01*
X14153571Y-11425714D01*
X14182143Y-11440000D01*
X14196428Y-11468571D01*
X14196428Y-11625714D01*
X14196428Y-11468571D02*
X14210714Y-11440000D01*
X14239286Y-11425714D01*
X14282143Y-11425714D01*
X14310714Y-11440000D01*
X14325000Y-11468571D01*
X14325000Y-11625714D01*
X14582143Y-11611428D02*
X14553571Y-11625714D01*
X14496428Y-11625714D01*
X14467857Y-11611428D01*
X14453571Y-11582857D01*
X14453571Y-11468571D01*
X14467857Y-11440000D01*
X14496428Y-11425714D01*
X14553571Y-11425714D01*
X14582143Y-11440000D01*
X14596428Y-11468571D01*
X14596428Y-11497143D01*
X14453571Y-11525714D01*
X14710714Y-11611428D02*
X14739286Y-11625714D01*
X14796428Y-11625714D01*
X14825000Y-11611428D01*
X14839286Y-11582857D01*
X14839286Y-11568571D01*
X14825000Y-11540000D01*
X14796428Y-11525714D01*
X14753571Y-11525714D01*
X14725000Y-11511428D01*
X14710714Y-11482857D01*
X14710714Y-11468571D01*
X14725000Y-11440000D01*
X14753571Y-11425714D01*
X14796428Y-11425714D01*
X14825000Y-11440000D01*
X15096428Y-11625714D02*
X15096428Y-11468571D01*
X15082143Y-11440000D01*
X15053571Y-11425714D01*
X14996428Y-11425714D01*
X14967857Y-11440000D01*
X15096428Y-11611428D02*
X15067857Y-11625714D01*
X14996428Y-11625714D01*
X14967857Y-11611428D01*
X14953571Y-11582857D01*
X14953571Y-11554286D01*
X14967857Y-11525714D01*
X14996428Y-11511428D01*
X15067857Y-11511428D01*
X15096428Y-11497143D01*
X15296428Y-11325714D02*
X15325000Y-11325714D01*
X15353571Y-11340000D01*
X15367857Y-11354286D01*
X15382143Y-11382857D01*
X15396428Y-11440000D01*
X15396428Y-11511428D01*
X15382143Y-11568571D01*
X15367857Y-11597143D01*
X15353571Y-11611428D01*
X15325000Y-11625714D01*
X15296428Y-11625714D01*
X15267857Y-11611428D01*
X15253571Y-11597143D01*
X15239286Y-11568571D01*
X15225000Y-11511428D01*
X15225000Y-11440000D01*
X15239286Y-11382857D01*
X15253571Y-11354286D01*
X15267857Y-11340000D01*
X15296428Y-11325714D01*
X15839286Y-11740000D02*
X15825000Y-11725714D01*
X15796428Y-11682857D01*
X15782143Y-11654286D01*
X15767857Y-11611428D01*
X15753571Y-11540000D01*
X15753571Y-11482857D01*
X15767857Y-11411428D01*
X15782143Y-11368571D01*
X15796428Y-11340000D01*
X15825000Y-11297143D01*
X15839286Y-11282857D01*
X15953571Y-11625714D02*
X15953571Y-11325714D01*
X15953571Y-11468571D02*
X16125000Y-11468571D01*
X16125000Y-11625714D02*
X16125000Y-11325714D01*
X16382143Y-11611428D02*
X16353571Y-11625714D01*
X16296428Y-11625714D01*
X16267857Y-11611428D01*
X16253571Y-11582857D01*
X16253571Y-11468571D01*
X16267857Y-11440000D01*
X16296428Y-11425714D01*
X16353571Y-11425714D01*
X16382143Y-11440000D01*
X16396428Y-11468571D01*
X16396428Y-11497143D01*
X16253571Y-11525714D01*
X16567857Y-11625714D02*
X16539286Y-11611428D01*
X16525000Y-11582857D01*
X16525000Y-11325714D01*
X16682143Y-11425714D02*
X16682143Y-11725714D01*
X16682143Y-11440000D02*
X16710714Y-11425714D01*
X16767857Y-11425714D01*
X16796429Y-11440000D01*
X16810714Y-11454286D01*
X16825000Y-11482857D01*
X16825000Y-11568571D01*
X16810714Y-11597143D01*
X16796429Y-11611428D01*
X16767857Y-11625714D01*
X16710714Y-11625714D01*
X16682143Y-11611428D01*
X16910714Y-11425714D02*
X17025000Y-11425714D01*
X16953571Y-11625714D02*
X16953571Y-11368571D01*
X16967857Y-11340000D01*
X16996429Y-11325714D01*
X17025000Y-11325714D01*
X17253571Y-11425714D02*
X17253571Y-11625714D01*
X17125000Y-11425714D02*
X17125000Y-11582857D01*
X17139286Y-11611428D01*
X17167857Y-11625714D01*
X17210714Y-11625714D01*
X17239286Y-11611428D01*
X17253571Y-11597143D01*
X17439286Y-11625714D02*
X17410714Y-11611428D01*
X17396429Y-11582857D01*
X17396429Y-11325714D01*
X17525000Y-11740000D02*
X17539286Y-11725714D01*
X17567857Y-11682857D01*
X17582143Y-11654286D01*
X17596429Y-11611428D01*
X17610714Y-11540000D01*
X17610714Y-11482857D01*
X17596429Y-11411428D01*
X17582143Y-11368571D01*
X17567857Y-11340000D01*
X17539286Y-11297143D01*
X17525000Y-11282857D01*
X17982143Y-11511428D02*
X18210714Y-11511428D01*
X18753571Y-11625714D02*
X18653571Y-11482857D01*
X18582143Y-11625714D02*
X18582143Y-11325714D01*
X18696429Y-11325714D01*
X18725000Y-11340000D01*
X18739286Y-11354286D01*
X18753571Y-11382857D01*
X18753571Y-11425714D01*
X18739286Y-11454286D01*
X18725000Y-11468571D01*
X18696429Y-11482857D01*
X18582143Y-11482857D01*
X18996429Y-11611428D02*
X18967857Y-11625714D01*
X18910714Y-11625714D01*
X18882143Y-11611428D01*
X18867857Y-11582857D01*
X18867857Y-11468571D01*
X18882143Y-11440000D01*
X18910714Y-11425714D01*
X18967857Y-11425714D01*
X18996429Y-11440000D01*
X19010714Y-11468571D01*
X19010714Y-11497143D01*
X18867857Y-11525714D01*
X19110714Y-11425714D02*
X19182143Y-11625714D01*
X19253571Y-11425714D01*
X19367857Y-11625714D02*
X19367857Y-11425714D01*
X19367857Y-11325714D02*
X19353571Y-11340000D01*
X19367857Y-11354286D01*
X19382143Y-11340000D01*
X19367857Y-11325714D01*
X19367857Y-11354286D01*
X19496429Y-11611428D02*
X19525000Y-11625714D01*
X19582143Y-11625714D01*
X19610714Y-11611428D01*
X19625000Y-11582857D01*
X19625000Y-11568571D01*
X19610714Y-11540000D01*
X19582143Y-11525714D01*
X19539286Y-11525714D01*
X19510714Y-11511428D01*
X19496429Y-11482857D01*
X19496429Y-11468571D01*
X19510714Y-11440000D01*
X19539286Y-11425714D01*
X19582143Y-11425714D01*
X19610714Y-11440000D01*
X19753571Y-11625714D02*
X19753571Y-11425714D01*
X19753571Y-11325714D02*
X19739286Y-11340000D01*
X19753571Y-11354286D01*
X19767857Y-11340000D01*
X19753571Y-11325714D01*
X19753571Y-11354286D01*
X19939286Y-11625714D02*
X19910714Y-11611428D01*
X19896429Y-11597143D01*
X19882143Y-11568571D01*
X19882143Y-11482857D01*
X19896429Y-11454286D01*
X19910714Y-11440000D01*
X19939286Y-11425714D01*
X19982143Y-11425714D01*
X20010714Y-11440000D01*
X20025000Y-11454286D01*
X20039286Y-11482857D01*
X20039286Y-11568571D01*
X20025000Y-11597143D01*
X20010714Y-11611428D01*
X19982143Y-11625714D01*
X19939286Y-11625714D01*
X20167857Y-11425714D02*
X20167857Y-11625714D01*
X20167857Y-11454286D02*
X20182143Y-11440000D01*
X20210714Y-11425714D01*
X20253571Y-11425714D01*
X20282143Y-11440000D01*
X20296429Y-11468571D01*
X20296429Y-11625714D01*
X20653571Y-11354286D02*
X20667857Y-11340000D01*
X20696429Y-11325714D01*
X20767857Y-11325714D01*
X20796429Y-11340000D01*
X20810714Y-11354286D01*
X20825000Y-11382857D01*
X20825000Y-11411428D01*
X20810714Y-11454286D01*
X20639286Y-11625714D01*
X20825000Y-11625714D01*
D11*
X11950952Y-12023476D02*
X11950952Y-11823476D01*
X11998571Y-11823476D01*
X12027143Y-11833000D01*
X12046190Y-11852048D01*
X12055714Y-11871095D01*
X12065238Y-11909190D01*
X12065238Y-11937762D01*
X12055714Y-11975857D01*
X12046190Y-11994905D01*
X12027143Y-12013952D01*
X11998571Y-12023476D01*
X11950952Y-12023476D01*
X12227143Y-12013952D02*
X12208095Y-12023476D01*
X12170000Y-12023476D01*
X12150952Y-12013952D01*
X12141428Y-11994905D01*
X12141428Y-11918714D01*
X12150952Y-11899667D01*
X12170000Y-11890143D01*
X12208095Y-11890143D01*
X12227143Y-11899667D01*
X12236667Y-11918714D01*
X12236667Y-11937762D01*
X12141428Y-11956809D01*
X12312857Y-12013952D02*
X12331905Y-12023476D01*
X12370000Y-12023476D01*
X12389048Y-12013952D01*
X12398571Y-11994905D01*
X12398571Y-11985381D01*
X12389048Y-11966333D01*
X12370000Y-11956809D01*
X12341428Y-11956809D01*
X12322381Y-11947286D01*
X12312857Y-11928238D01*
X12312857Y-11918714D01*
X12322381Y-11899667D01*
X12341428Y-11890143D01*
X12370000Y-11890143D01*
X12389048Y-11899667D01*
X12484286Y-12023476D02*
X12484286Y-11890143D01*
X12484286Y-11823476D02*
X12474762Y-11833000D01*
X12484286Y-11842524D01*
X12493809Y-11833000D01*
X12484286Y-11823476D01*
X12484286Y-11842524D01*
X12665238Y-11890143D02*
X12665238Y-12052048D01*
X12655714Y-12071095D01*
X12646190Y-12080619D01*
X12627143Y-12090143D01*
X12598571Y-12090143D01*
X12579524Y-12080619D01*
X12665238Y-12013952D02*
X12646190Y-12023476D01*
X12608095Y-12023476D01*
X12589048Y-12013952D01*
X12579524Y-12004428D01*
X12570000Y-11985381D01*
X12570000Y-11928238D01*
X12579524Y-11909190D01*
X12589048Y-11899667D01*
X12608095Y-11890143D01*
X12646190Y-11890143D01*
X12665238Y-11899667D01*
X12760476Y-11890143D02*
X12760476Y-12023476D01*
X12760476Y-11909190D02*
X12770000Y-11899667D01*
X12789048Y-11890143D01*
X12817619Y-11890143D01*
X12836667Y-11899667D01*
X12846190Y-11918714D01*
X12846190Y-12023476D01*
X13179524Y-11890143D02*
X13179524Y-12052048D01*
X13170000Y-12071095D01*
X13160476Y-12080619D01*
X13141428Y-12090143D01*
X13112857Y-12090143D01*
X13093809Y-12080619D01*
X13179524Y-12013952D02*
X13160476Y-12023476D01*
X13122381Y-12023476D01*
X13103333Y-12013952D01*
X13093809Y-12004428D01*
X13084286Y-11985381D01*
X13084286Y-11928238D01*
X13093809Y-11909190D01*
X13103333Y-11899667D01*
X13122381Y-11890143D01*
X13160476Y-11890143D01*
X13179524Y-11899667D01*
X13360476Y-11890143D02*
X13360476Y-12023476D01*
X13274762Y-11890143D02*
X13274762Y-11994905D01*
X13284286Y-12013952D01*
X13303333Y-12023476D01*
X13331905Y-12023476D01*
X13350952Y-12013952D01*
X13360476Y-12004428D01*
X13455714Y-12023476D02*
X13455714Y-11890143D01*
X13455714Y-11823476D02*
X13446190Y-11833000D01*
X13455714Y-11842524D01*
X13465238Y-11833000D01*
X13455714Y-11823476D01*
X13455714Y-11842524D01*
X13636667Y-12023476D02*
X13636667Y-11823476D01*
X13636667Y-12013952D02*
X13617619Y-12023476D01*
X13579524Y-12023476D01*
X13560476Y-12013952D01*
X13550952Y-12004428D01*
X13541428Y-11985381D01*
X13541428Y-11928238D01*
X13550952Y-11909190D01*
X13560476Y-11899667D01*
X13579524Y-11890143D01*
X13617619Y-11890143D01*
X13636667Y-11899667D01*
X13817619Y-12023476D02*
X13817619Y-11918714D01*
X13808095Y-11899667D01*
X13789048Y-11890143D01*
X13750952Y-11890143D01*
X13731905Y-11899667D01*
X13817619Y-12013952D02*
X13798571Y-12023476D01*
X13750952Y-12023476D01*
X13731905Y-12013952D01*
X13722381Y-11994905D01*
X13722381Y-11975857D01*
X13731905Y-11956809D01*
X13750952Y-11947286D01*
X13798571Y-11947286D01*
X13817619Y-11937762D01*
X13912857Y-11890143D02*
X13912857Y-12023476D01*
X13912857Y-11909190D02*
X13922381Y-11899667D01*
X13941428Y-11890143D01*
X13970000Y-11890143D01*
X13989048Y-11899667D01*
X13998571Y-11918714D01*
X13998571Y-12023476D01*
X14179524Y-12013952D02*
X14160476Y-12023476D01*
X14122381Y-12023476D01*
X14103333Y-12013952D01*
X14093809Y-12004428D01*
X14084286Y-11985381D01*
X14084286Y-11928238D01*
X14093809Y-11909190D01*
X14103333Y-11899667D01*
X14122381Y-11890143D01*
X14160476Y-11890143D01*
X14179524Y-11899667D01*
X14341428Y-12013952D02*
X14322381Y-12023476D01*
X14284286Y-12023476D01*
X14265238Y-12013952D01*
X14255714Y-11994905D01*
X14255714Y-11918714D01*
X14265238Y-11899667D01*
X14284286Y-11890143D01*
X14322381Y-11890143D01*
X14341428Y-11899667D01*
X14350952Y-11918714D01*
X14350952Y-11937762D01*
X14255714Y-11956809D01*
X14560476Y-11890143D02*
X14636667Y-11890143D01*
X14589048Y-12023476D02*
X14589048Y-11852048D01*
X14598571Y-11833000D01*
X14617619Y-11823476D01*
X14636667Y-11823476D01*
X14703333Y-12023476D02*
X14703333Y-11890143D01*
X14703333Y-11928238D02*
X14712857Y-11909190D01*
X14722381Y-11899667D01*
X14741428Y-11890143D01*
X14760476Y-11890143D01*
X14855714Y-12023476D02*
X14836667Y-12013952D01*
X14827143Y-12004428D01*
X14817619Y-11985381D01*
X14817619Y-11928238D01*
X14827143Y-11909190D01*
X14836667Y-11899667D01*
X14855714Y-11890143D01*
X14884286Y-11890143D01*
X14903333Y-11899667D01*
X14912857Y-11909190D01*
X14922381Y-11928238D01*
X14922381Y-11985381D01*
X14912857Y-12004428D01*
X14903333Y-12013952D01*
X14884286Y-12023476D01*
X14855714Y-12023476D01*
X15008095Y-12023476D02*
X15008095Y-11890143D01*
X15008095Y-11909190D02*
X15017619Y-11899667D01*
X15036667Y-11890143D01*
X15065238Y-11890143D01*
X15084286Y-11899667D01*
X15093809Y-11918714D01*
X15093809Y-12023476D01*
X15093809Y-11918714D02*
X15103333Y-11899667D01*
X15122381Y-11890143D01*
X15150952Y-11890143D01*
X15170000Y-11899667D01*
X15179524Y-11918714D01*
X15179524Y-12023476D01*
X15417619Y-11966333D02*
X15512857Y-11966333D01*
X15398571Y-12023476D02*
X15465238Y-11823476D01*
X15531905Y-12023476D01*
X15598571Y-12023476D02*
X15598571Y-11890143D01*
X15598571Y-11909190D02*
X15608095Y-11899667D01*
X15627143Y-11890143D01*
X15655714Y-11890143D01*
X15674762Y-11899667D01*
X15684286Y-11918714D01*
X15684286Y-12023476D01*
X15684286Y-11918714D02*
X15693809Y-11899667D01*
X15712857Y-11890143D01*
X15741428Y-11890143D01*
X15760476Y-11899667D01*
X15770000Y-11918714D01*
X15770000Y-12023476D01*
X15836667Y-11890143D02*
X15912857Y-11890143D01*
X15865238Y-11823476D02*
X15865238Y-11994905D01*
X15874762Y-12013952D01*
X15893809Y-12023476D01*
X15912857Y-12023476D01*
X15979524Y-12023476D02*
X15979524Y-11890143D01*
X15979524Y-11928238D02*
X15989048Y-11909190D01*
X15998571Y-11899667D01*
X16017619Y-11890143D01*
X16036667Y-11890143D01*
X16189048Y-12023476D02*
X16189048Y-11918714D01*
X16179524Y-11899667D01*
X16160476Y-11890143D01*
X16122381Y-11890143D01*
X16103333Y-11899667D01*
X16189048Y-12013952D02*
X16170000Y-12023476D01*
X16122381Y-12023476D01*
X16103333Y-12013952D01*
X16093809Y-11994905D01*
X16093809Y-11975857D01*
X16103333Y-11956809D01*
X16122381Y-11947286D01*
X16170000Y-11947286D01*
X16189048Y-11937762D01*
X16379524Y-11823476D02*
X16284286Y-11823476D01*
X16274762Y-11918714D01*
X16284286Y-11909190D01*
X16303333Y-11899667D01*
X16350952Y-11899667D01*
X16370000Y-11909190D01*
X16379524Y-11918714D01*
X16389048Y-11937762D01*
X16389048Y-11985381D01*
X16379524Y-12004428D01*
X16370000Y-12013952D01*
X16350952Y-12023476D01*
X16303333Y-12023476D01*
X16284286Y-12013952D01*
X16274762Y-12004428D01*
X16484286Y-12013952D02*
X16484286Y-12023476D01*
X16474762Y-12042524D01*
X16465238Y-12052048D01*
X16674762Y-12042524D02*
X16827143Y-12042524D01*
X16865238Y-12013952D02*
X16884286Y-12023476D01*
X16922381Y-12023476D01*
X16941429Y-12013952D01*
X16950952Y-11994905D01*
X16950952Y-11985381D01*
X16941429Y-11966333D01*
X16922381Y-11956809D01*
X16893810Y-11956809D01*
X16874762Y-11947286D01*
X16865238Y-11928238D01*
X16865238Y-11918714D01*
X16874762Y-11899667D01*
X16893810Y-11890143D01*
X16922381Y-11890143D01*
X16941429Y-11899667D01*
X17036667Y-11890143D02*
X17036667Y-12090143D01*
X17036667Y-11899667D02*
X17055714Y-11890143D01*
X17093810Y-11890143D01*
X17112857Y-11899667D01*
X17122381Y-11909190D01*
X17131905Y-11928238D01*
X17131905Y-11985381D01*
X17122381Y-12004428D01*
X17112857Y-12013952D01*
X17093810Y-12023476D01*
X17055714Y-12023476D01*
X17036667Y-12013952D01*
X17217619Y-12023476D02*
X17217619Y-11890143D01*
X17217619Y-11823476D02*
X17208095Y-11833000D01*
X17217619Y-11842524D01*
X17227143Y-11833000D01*
X17217619Y-11823476D01*
X17217619Y-11842524D01*
X17312857Y-11890143D02*
X17312857Y-12023476D01*
X17312857Y-11909190D02*
X17322381Y-11899667D01*
X17341429Y-11890143D01*
X17370000Y-11890143D01*
X17389048Y-11899667D01*
X17398571Y-11918714D01*
X17398571Y-12023476D01*
X17579524Y-12023476D02*
X17579524Y-11823476D01*
X17579524Y-12013952D02*
X17560476Y-12023476D01*
X17522381Y-12023476D01*
X17503333Y-12013952D01*
X17493810Y-12004428D01*
X17484286Y-11985381D01*
X17484286Y-11928238D01*
X17493810Y-11909190D01*
X17503333Y-11899667D01*
X17522381Y-11890143D01*
X17560476Y-11890143D01*
X17579524Y-11899667D01*
X17703333Y-12023476D02*
X17684286Y-12013952D01*
X17674762Y-11994905D01*
X17674762Y-11823476D01*
X17855714Y-12013952D02*
X17836667Y-12023476D01*
X17798571Y-12023476D01*
X17779524Y-12013952D01*
X17770000Y-11994905D01*
X17770000Y-11918714D01*
X17779524Y-11899667D01*
X17798571Y-11890143D01*
X17836667Y-11890143D01*
X17855714Y-11899667D01*
X17865238Y-11918714D01*
X17865238Y-11937762D01*
X17770000Y-11956809D01*
X17960476Y-12013952D02*
X17960476Y-12023476D01*
X17950952Y-12042524D01*
X17941429Y-12052048D01*
X18179524Y-11890143D02*
X18217619Y-12023476D01*
X18255714Y-11928238D01*
X18293810Y-12023476D01*
X18331905Y-11890143D01*
X18436667Y-12023476D02*
X18417619Y-12013952D01*
X18408095Y-12004428D01*
X18398571Y-11985381D01*
X18398571Y-11928238D01*
X18408095Y-11909190D01*
X18417619Y-11899667D01*
X18436667Y-11890143D01*
X18465238Y-11890143D01*
X18484286Y-11899667D01*
X18493810Y-11909190D01*
X18503333Y-11928238D01*
X18503333Y-11985381D01*
X18493810Y-12004428D01*
X18484286Y-12013952D01*
X18465238Y-12023476D01*
X18436667Y-12023476D01*
X18617619Y-12023476D02*
X18598571Y-12013952D01*
X18589048Y-12004428D01*
X18579524Y-11985381D01*
X18579524Y-11928238D01*
X18589048Y-11909190D01*
X18598571Y-11899667D01*
X18617619Y-11890143D01*
X18646190Y-11890143D01*
X18665238Y-11899667D01*
X18674762Y-11909190D01*
X18684286Y-11928238D01*
X18684286Y-11985381D01*
X18674762Y-12004428D01*
X18665238Y-12013952D01*
X18646190Y-12023476D01*
X18617619Y-12023476D01*
X18855714Y-12023476D02*
X18855714Y-11823476D01*
X18855714Y-12013952D02*
X18836667Y-12023476D01*
X18798571Y-12023476D01*
X18779524Y-12013952D01*
X18770000Y-12004428D01*
X18760476Y-11985381D01*
X18760476Y-11928238D01*
X18770000Y-11909190D01*
X18779524Y-11899667D01*
X18798571Y-11890143D01*
X18836667Y-11890143D01*
X18855714Y-11899667D01*
X18950952Y-12023476D02*
X18950952Y-11823476D01*
X18970000Y-11947286D02*
X19027143Y-12023476D01*
X19027143Y-11890143D02*
X18950952Y-11966333D01*
X19189048Y-12013952D02*
X19170000Y-12023476D01*
X19131905Y-12023476D01*
X19112857Y-12013952D01*
X19103333Y-11994905D01*
X19103333Y-11918714D01*
X19112857Y-11899667D01*
X19131905Y-11890143D01*
X19170000Y-11890143D01*
X19189048Y-11899667D01*
X19198571Y-11918714D01*
X19198571Y-11937762D01*
X19103333Y-11956809D01*
X19265238Y-11890143D02*
X19312857Y-12023476D01*
X19360476Y-11890143D02*
X19312857Y-12023476D01*
X19293810Y-12071095D01*
X19284286Y-12080619D01*
X19265238Y-12090143D01*
X19427143Y-12013952D02*
X19446190Y-12023476D01*
X19484286Y-12023476D01*
X19503333Y-12013952D01*
X19512857Y-11994905D01*
X19512857Y-11985381D01*
X19503333Y-11966333D01*
X19484286Y-11956809D01*
X19455714Y-11956809D01*
X19436667Y-11947286D01*
X19427143Y-11928238D01*
X19427143Y-11918714D01*
X19436667Y-11899667D01*
X19455714Y-11890143D01*
X19484286Y-11890143D01*
X19503333Y-11899667D01*
X19608095Y-12013952D02*
X19608095Y-12023476D01*
X19598571Y-12042524D01*
X19589048Y-12052048D01*
X19846190Y-12023476D02*
X19846190Y-11823476D01*
X19931905Y-12023476D02*
X19931905Y-11918714D01*
X19922381Y-11899667D01*
X19903333Y-11890143D01*
X19874762Y-11890143D01*
X19855714Y-11899667D01*
X19846190Y-11909190D01*
X20027143Y-12023476D02*
X20027143Y-11890143D01*
X20027143Y-11823476D02*
X20017619Y-11833000D01*
X20027143Y-11842524D01*
X20036667Y-11833000D01*
X20027143Y-11823476D01*
X20027143Y-11842524D01*
X20122381Y-11890143D02*
X20122381Y-12023476D01*
X20122381Y-11909190D02*
X20131905Y-11899667D01*
X20150952Y-11890143D01*
X20179524Y-11890143D01*
X20198571Y-11899667D01*
X20208095Y-11918714D01*
X20208095Y-12023476D01*
X20379524Y-12013952D02*
X20360476Y-12023476D01*
X20322381Y-12023476D01*
X20303333Y-12013952D01*
X20293810Y-11994905D01*
X20293810Y-11918714D01*
X20303333Y-11899667D01*
X20322381Y-11890143D01*
X20360476Y-11890143D01*
X20379524Y-11899667D01*
X20389048Y-11918714D01*
X20389048Y-11937762D01*
X20293810Y-11956809D01*
X20455714Y-11890143D02*
X20503333Y-12023476D01*
X20550952Y-11890143D02*
X20503333Y-12023476D01*
X20484286Y-12071095D01*
X20474762Y-12080619D01*
X20455714Y-12090143D01*
X20636667Y-12013952D02*
X20636667Y-12023476D01*
X20627143Y-12042524D01*
X20617619Y-12052048D01*
X20960476Y-12023476D02*
X20960476Y-11918714D01*
X20950952Y-11899667D01*
X20931905Y-11890143D01*
X20893810Y-11890143D01*
X20874762Y-11899667D01*
X20960476Y-12013952D02*
X20941429Y-12023476D01*
X20893810Y-12023476D01*
X20874762Y-12013952D01*
X20865238Y-11994905D01*
X20865238Y-11975857D01*
X20874762Y-11956809D01*
X20893810Y-11947286D01*
X20941429Y-11947286D01*
X20960476Y-11937762D01*
X21055714Y-12023476D02*
X21055714Y-11890143D01*
X21055714Y-11823476D02*
X21046190Y-11833000D01*
X21055714Y-11842524D01*
X21065238Y-11833000D01*
X21055714Y-11823476D01*
X21055714Y-11842524D01*
X21189048Y-11823476D02*
X21208095Y-11823476D01*
X21227143Y-11833000D01*
X21236667Y-11842524D01*
X21246190Y-11861571D01*
X21255714Y-11899667D01*
X21255714Y-11947286D01*
X21246190Y-11985381D01*
X21236667Y-12004428D01*
X21227143Y-12013952D01*
X21208095Y-12023476D01*
X21189048Y-12023476D01*
X21170000Y-12013952D01*
X21160476Y-12004428D01*
X21150952Y-11985381D01*
X21141429Y-11947286D01*
X21141429Y-11899667D01*
X21150952Y-11861571D01*
X21160476Y-11842524D01*
X21170000Y-11833000D01*
X21189048Y-11823476D01*
X21322381Y-11823476D02*
X21446190Y-11823476D01*
X21379524Y-11899667D01*
X21408095Y-11899667D01*
X21427143Y-11909190D01*
X21436667Y-11918714D01*
X21446190Y-11937762D01*
X21446190Y-11985381D01*
X21436667Y-12004428D01*
X21427143Y-12013952D01*
X21408095Y-12023476D01*
X21350952Y-12023476D01*
X21331905Y-12013952D01*
X21322381Y-12004428D01*
M02*
