G04 #@! TF.GenerationSoftware,KiCad,Pcbnew,(5.0.0-rc2-dev-733-g23a9fcd91)*
G04 #@! TF.CreationDate,2018-05-24T07:34:15-04:00*
G04 #@! TF.ProjectId,90plus_col2row,3930706C75735F636F6C32726F772E6B,rev?*
G04 #@! TF.SameCoordinates,Original*
G04 #@! TF.FileFunction,Soldermask,Top*
G04 #@! TF.FilePolarity,Negative*
%FSLAX46Y46*%
G04 Gerber Fmt 4.6, Leading zero omitted, Abs format (unit mm)*
G04 Created by KiCad (PCBNEW (5.0.0-rc2-dev-733-g23a9fcd91)) date 05/24/18 07:34:15*
%MOMM*%
%LPD*%
G01*
G04 APERTURE LIST*
%ADD10O,2.400000X18.400000*%
%ADD11C,1.050000*%
%ADD12O,1.400000X2.000000*%
%ADD13O,1.400000X2.500000*%
%ADD14C,4.387800*%
%ADD15C,3.448000*%
%ADD16C,4.380180*%
%ADD17C,3.350000*%
%ADD18C,2.100000*%
%ADD19C,1.385520*%
%ADD20C,1.388060*%
%ADD21C,2.150000*%
G04 APERTURE END LIST*
D10*
X411956250Y-261937500D03*
X411956250Y-292417500D03*
X410990000Y-323020000D03*
D11*
X106490000Y-243260000D03*
D12*
X107920000Y-239580000D03*
X99280000Y-239580000D03*
D13*
X107920000Y-243760000D03*
D11*
X100710000Y-243260000D03*
D13*
X99280000Y-243760000D03*
D14*
X381031750Y-298767500D03*
X357155750Y-298767500D03*
D15*
X381031750Y-283527500D03*
X357155750Y-283527500D03*
D16*
X71437500Y-290512500D03*
D17*
X73977500Y-285432500D03*
X67627500Y-287972500D03*
D18*
X76517500Y-290512500D03*
X66357500Y-290512500D03*
D19*
X108900000Y-329554000D03*
X108900000Y-331586000D03*
D20*
X103820000Y-330570000D03*
D18*
X66152500Y-252412500D03*
X76312500Y-252412500D03*
D17*
X67422500Y-249872500D03*
X73772500Y-247332500D03*
D16*
X71232500Y-252412500D03*
D18*
X85407500Y-252412500D03*
X95567500Y-252412500D03*
D17*
X86677500Y-249872500D03*
X93027500Y-247332500D03*
D16*
X90487500Y-252412500D03*
X114300000Y-252412500D03*
D17*
X116840000Y-247332500D03*
X110490000Y-249872500D03*
D18*
X119380000Y-252412500D03*
X109220000Y-252412500D03*
D16*
X133350000Y-252412500D03*
D17*
X135890000Y-247332500D03*
X129540000Y-249872500D03*
D18*
X138430000Y-252412500D03*
X128270000Y-252412500D03*
D16*
X152400000Y-252412500D03*
D17*
X154940000Y-247332500D03*
X148590000Y-249872500D03*
D18*
X157480000Y-252412500D03*
X147320000Y-252412500D03*
D16*
X171450000Y-252412500D03*
D17*
X173990000Y-247332500D03*
X167640000Y-249872500D03*
D18*
X176530000Y-252412500D03*
X166370000Y-252412500D03*
D16*
X190500000Y-252412500D03*
D17*
X193040000Y-247332500D03*
X186690000Y-249872500D03*
D18*
X195580000Y-252412500D03*
X185420000Y-252412500D03*
D16*
X209550000Y-252412500D03*
D17*
X212090000Y-247332500D03*
X205740000Y-249872500D03*
D18*
X214630000Y-252412500D03*
X204470000Y-252412500D03*
D16*
X228600000Y-252412500D03*
D17*
X231140000Y-247332500D03*
X224790000Y-249872500D03*
D18*
X233680000Y-252412500D03*
X223520000Y-252412500D03*
D16*
X247650000Y-252412500D03*
D17*
X250190000Y-247332500D03*
X243840000Y-249872500D03*
D18*
X252730000Y-252412500D03*
X242570000Y-252412500D03*
D16*
X266700000Y-252412500D03*
D17*
X269240000Y-247332500D03*
X262890000Y-249872500D03*
D18*
X271780000Y-252412500D03*
X261620000Y-252412500D03*
D16*
X285750000Y-252412500D03*
D17*
X288290000Y-247332500D03*
X281940000Y-249872500D03*
D18*
X290830000Y-252412500D03*
X280670000Y-252412500D03*
D16*
X304800000Y-252412500D03*
D17*
X307340000Y-247332500D03*
X300990000Y-249872500D03*
D18*
X309880000Y-252412500D03*
X299720000Y-252412500D03*
D16*
X323850000Y-252412500D03*
D17*
X326390000Y-247332500D03*
X320040000Y-249872500D03*
D18*
X328930000Y-252412500D03*
X318770000Y-252412500D03*
D14*
X342900000Y-252412500D03*
D21*
X337820000Y-252412500D03*
X347980000Y-252412500D03*
D14*
X352425000Y-252412500D03*
D21*
X347345000Y-252412500D03*
X357505000Y-252412500D03*
D15*
X340487000Y-245427500D03*
X364363000Y-245427500D03*
D14*
X340487000Y-260667500D03*
X364363000Y-260667500D03*
X383413000Y-260667500D03*
X359537000Y-260667500D03*
D15*
X383413000Y-245427500D03*
X359537000Y-245427500D03*
D21*
X376555000Y-252412500D03*
X366395000Y-252412500D03*
D14*
X371475000Y-252412500D03*
D16*
X400050000Y-252412500D03*
D17*
X402590000Y-247332500D03*
X396240000Y-249872500D03*
D18*
X405130000Y-252412500D03*
X394970000Y-252412500D03*
D14*
X381000000Y-252412500D03*
D21*
X375920000Y-252412500D03*
X386080000Y-252412500D03*
X367030000Y-252412500D03*
X356870000Y-252412500D03*
D14*
X361950000Y-252412500D03*
D16*
X71437500Y-271462500D03*
D17*
X73977500Y-266382500D03*
X67627500Y-268922500D03*
D18*
X76517500Y-271462500D03*
X66357500Y-271462500D03*
X85407500Y-271462500D03*
X95567500Y-271462500D03*
D17*
X86677500Y-268922500D03*
X93027500Y-266382500D03*
D16*
X90487500Y-271462500D03*
X119062500Y-271462500D03*
D17*
X121602500Y-266382500D03*
X115252500Y-268922500D03*
D18*
X124142500Y-271462500D03*
X113982500Y-271462500D03*
D16*
X142875000Y-271462500D03*
D17*
X145415000Y-266382500D03*
X139065000Y-268922500D03*
D18*
X147955000Y-271462500D03*
X137795000Y-271462500D03*
D16*
X161925000Y-271462500D03*
D17*
X164465000Y-266382500D03*
X158115000Y-268922500D03*
D18*
X167005000Y-271462500D03*
X156845000Y-271462500D03*
D16*
X180975000Y-271462500D03*
D17*
X183515000Y-266382500D03*
X177165000Y-268922500D03*
D18*
X186055000Y-271462500D03*
X175895000Y-271462500D03*
X194945000Y-271462500D03*
X205105000Y-271462500D03*
D17*
X196215000Y-268922500D03*
X202565000Y-266382500D03*
D16*
X200025000Y-271462500D03*
D18*
X213995000Y-271462500D03*
X224155000Y-271462500D03*
D17*
X215265000Y-268922500D03*
X221615000Y-266382500D03*
D16*
X219075000Y-271462500D03*
D18*
X233045000Y-271462500D03*
X243205000Y-271462500D03*
D17*
X234315000Y-268922500D03*
X240665000Y-266382500D03*
D16*
X238125000Y-271462500D03*
D18*
X252095000Y-271462500D03*
X262255000Y-271462500D03*
D17*
X253365000Y-268922500D03*
X259715000Y-266382500D03*
D16*
X257175000Y-271462500D03*
D18*
X271145000Y-271462500D03*
X281305000Y-271462500D03*
D17*
X272415000Y-268922500D03*
X278765000Y-266382500D03*
D16*
X276225000Y-271462500D03*
D18*
X290195000Y-271462500D03*
X300355000Y-271462500D03*
D17*
X291465000Y-268922500D03*
X297815000Y-266382500D03*
D16*
X295275000Y-271462500D03*
X314325000Y-271462500D03*
D17*
X316865000Y-266382500D03*
X310515000Y-268922500D03*
D18*
X319405000Y-271462500D03*
X309245000Y-271462500D03*
D16*
X333375000Y-271462500D03*
D17*
X335915000Y-266382500D03*
X329565000Y-268922500D03*
D18*
X338455000Y-271462500D03*
X328295000Y-271462500D03*
D16*
X352425000Y-271462500D03*
D17*
X354965000Y-266382500D03*
X348615000Y-268922500D03*
D18*
X357505000Y-271462500D03*
X347345000Y-271462500D03*
D16*
X376237500Y-271462500D03*
D17*
X378777500Y-266382500D03*
X372427500Y-268922500D03*
D18*
X381317500Y-271462500D03*
X371157500Y-271462500D03*
D16*
X400050000Y-271462500D03*
D17*
X402590000Y-266382500D03*
X396240000Y-268922500D03*
D18*
X405130000Y-271462500D03*
X394970000Y-271462500D03*
D16*
X90487500Y-290512500D03*
D17*
X93027500Y-285432500D03*
X86677500Y-287972500D03*
D18*
X95567500Y-290512500D03*
X85407500Y-290512500D03*
D16*
X121443750Y-290512500D03*
D17*
X123983750Y-285432500D03*
X117633750Y-287972500D03*
D18*
X126523750Y-290512500D03*
X116363750Y-290512500D03*
X142557500Y-290512500D03*
X152717500Y-290512500D03*
D17*
X143827500Y-287972500D03*
X150177500Y-285432500D03*
D16*
X147637500Y-290512500D03*
D18*
X161607500Y-290512500D03*
X171767500Y-290512500D03*
D17*
X162877500Y-287972500D03*
X169227500Y-285432500D03*
D16*
X166687500Y-290512500D03*
D18*
X180657500Y-290512500D03*
X190817500Y-290512500D03*
D17*
X181927500Y-287972500D03*
X188277500Y-285432500D03*
D16*
X185737500Y-290512500D03*
X204787500Y-290512500D03*
D17*
X207327500Y-285432500D03*
X200977500Y-287972500D03*
D18*
X209867500Y-290512500D03*
X199707500Y-290512500D03*
D16*
X223837500Y-290512500D03*
D17*
X226377500Y-285432500D03*
X220027500Y-287972500D03*
D18*
X228917500Y-290512500D03*
X218757500Y-290512500D03*
D16*
X242887500Y-290512500D03*
D17*
X245427500Y-285432500D03*
X239077500Y-287972500D03*
D18*
X247967500Y-290512500D03*
X237807500Y-290512500D03*
X256857500Y-290512500D03*
X267017500Y-290512500D03*
D17*
X258127500Y-287972500D03*
X264477500Y-285432500D03*
D16*
X261937500Y-290512500D03*
D18*
X275907500Y-290512500D03*
X286067500Y-290512500D03*
D17*
X277177500Y-287972500D03*
X283527500Y-285432500D03*
D16*
X280987500Y-290512500D03*
D18*
X294957500Y-290512500D03*
X305117500Y-290512500D03*
D17*
X296227500Y-287972500D03*
X302577500Y-285432500D03*
D16*
X300037500Y-290512500D03*
X319087500Y-290512500D03*
D17*
X321627500Y-285432500D03*
X315277500Y-287972500D03*
D18*
X324167500Y-290512500D03*
X314007500Y-290512500D03*
D16*
X338137500Y-290512500D03*
D17*
X340677500Y-285432500D03*
X334327500Y-287972500D03*
D18*
X343217500Y-290512500D03*
X333057500Y-290512500D03*
D16*
X369093750Y-290512500D03*
D17*
X371633750Y-285432500D03*
X365283750Y-287972500D03*
D18*
X374173750Y-290512500D03*
X364013750Y-290512500D03*
X394970000Y-290512500D03*
X405130000Y-290512500D03*
D17*
X396240000Y-287972500D03*
X402590000Y-285432500D03*
D16*
X400050000Y-290512500D03*
D18*
X66357500Y-309562500D03*
X76517500Y-309562500D03*
D17*
X67627500Y-307022500D03*
X73977500Y-304482500D03*
D16*
X71437500Y-309562500D03*
D18*
X85407500Y-309562500D03*
X95567500Y-309562500D03*
D17*
X86677500Y-307022500D03*
X93027500Y-304482500D03*
D16*
X90487500Y-309562500D03*
D18*
X121126250Y-309562500D03*
X131286250Y-309562500D03*
D17*
X122396250Y-307022500D03*
X128746250Y-304482500D03*
D16*
X126206250Y-309562500D03*
D18*
X152082500Y-309562500D03*
X162242500Y-309562500D03*
D17*
X153352500Y-307022500D03*
X159702500Y-304482500D03*
D16*
X157162500Y-309562500D03*
D18*
X171132500Y-309562500D03*
X181292500Y-309562500D03*
D17*
X172402500Y-307022500D03*
X178752500Y-304482500D03*
D16*
X176212500Y-309562500D03*
D18*
X190182500Y-309562500D03*
X200342500Y-309562500D03*
D17*
X191452500Y-307022500D03*
X197802500Y-304482500D03*
D16*
X195262500Y-309562500D03*
X214312500Y-309562500D03*
D17*
X216852500Y-304482500D03*
X210502500Y-307022500D03*
D18*
X219392500Y-309562500D03*
X209232500Y-309562500D03*
X228282500Y-309562500D03*
X238442500Y-309562500D03*
D17*
X229552500Y-307022500D03*
X235902500Y-304482500D03*
D16*
X233362500Y-309562500D03*
D18*
X247332500Y-309245000D03*
X257492500Y-309245000D03*
D17*
X248602500Y-306705000D03*
X254952500Y-304165000D03*
D16*
X252412500Y-309245000D03*
D18*
X266382500Y-309245000D03*
X276542500Y-309245000D03*
D17*
X267652500Y-306705000D03*
X274002500Y-304165000D03*
D16*
X271462500Y-309245000D03*
D18*
X285432500Y-309245000D03*
X295592500Y-309245000D03*
D17*
X286702500Y-306705000D03*
X293052500Y-304165000D03*
D16*
X290512500Y-309245000D03*
D18*
X304482500Y-309245000D03*
X314642500Y-309245000D03*
D17*
X305752500Y-306705000D03*
X312102500Y-304165000D03*
D16*
X309562500Y-309245000D03*
D18*
X323532500Y-309245000D03*
X333692500Y-309245000D03*
D17*
X324802500Y-306705000D03*
X331152500Y-304165000D03*
D16*
X328612500Y-309245000D03*
X354806250Y-309562500D03*
D17*
X357346250Y-304482500D03*
X350996250Y-307022500D03*
D18*
X359886250Y-309562500D03*
X349726250Y-309562500D03*
X375920000Y-309562500D03*
X386080000Y-309562500D03*
D17*
X377190000Y-307022500D03*
X383540000Y-304482500D03*
D16*
X381000000Y-309562500D03*
D18*
X394970000Y-309562500D03*
X405130000Y-309562500D03*
D17*
X396240000Y-307022500D03*
X402590000Y-304482500D03*
D16*
X400050000Y-309562500D03*
D18*
X66357500Y-328612500D03*
X76517500Y-328612500D03*
D17*
X67627500Y-326072500D03*
X73977500Y-323532500D03*
D16*
X71437500Y-328612500D03*
X90487500Y-328612500D03*
D17*
X93027500Y-323532500D03*
X86677500Y-326072500D03*
D18*
X95567500Y-328612500D03*
X85407500Y-328612500D03*
X113982500Y-328612500D03*
X124142500Y-328612500D03*
D17*
X115252500Y-326072500D03*
X121602500Y-323532500D03*
D16*
X119062500Y-328612500D03*
D18*
X137795000Y-328612500D03*
X147955000Y-328612500D03*
D17*
X139065000Y-326072500D03*
X145415000Y-323532500D03*
D16*
X142875000Y-328612500D03*
X166687500Y-328612500D03*
D17*
X169227500Y-323532500D03*
X162877500Y-326072500D03*
D18*
X171767500Y-328612500D03*
X161607500Y-328612500D03*
D14*
X228600000Y-336867500D03*
X190500000Y-336867500D03*
D15*
X228600000Y-321627500D03*
X190500000Y-321627500D03*
D21*
X214630000Y-328612500D03*
X204470000Y-328612500D03*
D14*
X209550000Y-328612500D03*
X247650000Y-328612500D03*
D21*
X242570000Y-328612500D03*
X252730000Y-328612500D03*
D15*
X190500000Y-321627500D03*
X304800000Y-321627500D03*
D14*
X190500000Y-336867500D03*
X304800000Y-336867500D03*
X285750000Y-328612500D03*
D21*
X280670000Y-328612500D03*
X290830000Y-328612500D03*
D15*
X266700000Y-321627500D03*
X304800000Y-321627500D03*
D14*
X266700000Y-336867500D03*
X304800000Y-336867500D03*
D21*
X309880000Y-328612500D03*
X299720000Y-328612500D03*
D14*
X304800000Y-328612500D03*
D18*
X323532500Y-328612500D03*
X333692500Y-328612500D03*
D17*
X324802500Y-326072500D03*
X331152500Y-323532500D03*
D16*
X328612500Y-328612500D03*
D18*
X356870000Y-328612500D03*
X367030000Y-328612500D03*
D17*
X358140000Y-326072500D03*
X364490000Y-323532500D03*
D16*
X361950000Y-328612500D03*
D18*
X375920000Y-328612500D03*
X386080000Y-328612500D03*
D17*
X377190000Y-326072500D03*
X383540000Y-323532500D03*
D16*
X381000000Y-328612500D03*
D18*
X394970000Y-328612500D03*
X405130000Y-328612500D03*
D17*
X396240000Y-326072500D03*
X402590000Y-323532500D03*
D16*
X400050000Y-328612500D03*
D15*
X285750000Y-321627500D03*
D14*
X285750000Y-336867500D03*
X266700000Y-328612500D03*
D21*
X261620000Y-328612500D03*
X271780000Y-328612500D03*
D15*
X247650000Y-321627500D03*
X285750000Y-321627500D03*
D14*
X247650000Y-336867500D03*
X285750000Y-336867500D03*
X138144250Y-317817500D03*
X114268250Y-317817500D03*
D15*
X138144250Y-302577500D03*
X114268250Y-302577500D03*
D16*
X423862500Y-252412500D03*
D17*
X426402500Y-247332500D03*
X420052500Y-249872500D03*
D18*
X428942500Y-252412500D03*
X418782500Y-252412500D03*
X437832500Y-252412500D03*
X447992500Y-252412500D03*
D17*
X439102500Y-249872500D03*
X445452500Y-247332500D03*
D16*
X442912500Y-252412500D03*
X461962500Y-252412500D03*
D17*
X464502500Y-247332500D03*
X458152500Y-249872500D03*
D18*
X467042500Y-252412500D03*
X456882500Y-252412500D03*
X475932500Y-252412500D03*
X486092500Y-252412500D03*
D17*
X477202500Y-249872500D03*
X483552500Y-247332500D03*
D16*
X481012500Y-252412500D03*
D18*
X418782500Y-271462500D03*
X428942500Y-271462500D03*
D17*
X420052500Y-268922500D03*
X426402500Y-266382500D03*
D16*
X423862500Y-271462500D03*
X442912500Y-271462500D03*
D17*
X445452500Y-266382500D03*
X439102500Y-268922500D03*
D18*
X447992500Y-271462500D03*
X437832500Y-271462500D03*
X456882500Y-271462500D03*
X467042500Y-271462500D03*
D17*
X458152500Y-268922500D03*
X464502500Y-266382500D03*
D16*
X461962500Y-271462500D03*
D21*
X486092500Y-271462500D03*
X475932500Y-271462500D03*
D14*
X481012500Y-271462500D03*
D16*
X423862500Y-290512500D03*
D17*
X426402500Y-285432500D03*
X420052500Y-287972500D03*
D18*
X428942500Y-290512500D03*
X418782500Y-290512500D03*
X437832500Y-290512500D03*
X447992500Y-290512500D03*
D17*
X439102500Y-287972500D03*
X445452500Y-285432500D03*
D16*
X442912500Y-290512500D03*
D18*
X456882500Y-290512500D03*
X467042500Y-290512500D03*
D17*
X458152500Y-287972500D03*
X464502500Y-285432500D03*
D16*
X461962500Y-290512500D03*
D14*
X481012500Y-290512500D03*
D21*
X475932500Y-290512500D03*
X486092500Y-290512500D03*
D16*
X423862500Y-309562500D03*
D17*
X426402500Y-304482500D03*
X420052500Y-307022500D03*
D18*
X428942500Y-309562500D03*
X418782500Y-309562500D03*
X437832500Y-309562500D03*
X447992500Y-309562500D03*
D17*
X439102500Y-307022500D03*
X445452500Y-304482500D03*
D16*
X442912500Y-309562500D03*
X461962500Y-309562500D03*
D17*
X464502500Y-304482500D03*
X458152500Y-307022500D03*
D18*
X467042500Y-309562500D03*
X456882500Y-309562500D03*
D14*
X481012500Y-309562500D03*
D21*
X475932500Y-309562500D03*
X486092500Y-309562500D03*
D14*
X423862500Y-328612500D03*
D21*
X418782500Y-328612500D03*
X428942500Y-328612500D03*
X447992500Y-328612500D03*
X437832500Y-328612500D03*
D14*
X442912500Y-328612500D03*
D16*
X461962500Y-328612500D03*
D17*
X464502500Y-323532500D03*
X458152500Y-326072500D03*
D18*
X467042500Y-328612500D03*
X456882500Y-328612500D03*
D21*
X486092500Y-328612500D03*
X475932500Y-328612500D03*
D14*
X481012500Y-328612500D03*
X433387500Y-328612500D03*
D21*
X428307500Y-328612500D03*
X438467500Y-328612500D03*
D15*
X421449500Y-321627500D03*
X445325500Y-321627500D03*
D14*
X421449500Y-336867500D03*
X445325500Y-336867500D03*
X481012500Y-280987500D03*
D21*
X481012500Y-286067500D03*
X481012500Y-275907500D03*
D15*
X487997500Y-292925500D03*
X487997500Y-269049500D03*
D14*
X472757500Y-292925500D03*
X472757500Y-269049500D03*
X472757500Y-307149500D03*
X472757500Y-331025500D03*
D15*
X487997500Y-307149500D03*
X487997500Y-331025500D03*
D21*
X481012500Y-314007500D03*
X481012500Y-324167500D03*
D14*
X481012500Y-319087500D03*
M02*
