G04 #@! TF.GenerationSoftware,KiCad,Pcbnew,(5.0.0-rc2-dev-733-g23a9fcd91)*
G04 #@! TF.CreationDate,2018-05-24T07:34:15-04:00*
G04 #@! TF.ProjectId,90plus_col2row,3930706C75735F636F6C32726F772E6B,rev?*
G04 #@! TF.SameCoordinates,Original*
G04 #@! TF.FileFunction,Paste,Bot*
G04 #@! TF.FilePolarity,Positive*
%FSLAX46Y46*%
G04 Gerber Fmt 4.6, Leading zero omitted, Abs format (unit mm)*
G04 Created by KiCad (PCBNEW (5.0.0-rc2-dev-733-g23a9fcd91)) date 05/24/18 07:34:15*
%MOMM*%
%LPD*%
G01*
G04 APERTURE LIST*
%ADD10R,0.300000X1.150000*%
%ADD11R,0.600000X1.150000*%
%ADD12R,2.550000X2.500000*%
%ADD13R,1.295000X1.400000*%
%ADD14R,0.995000X1.000000*%
%ADD15R,1.200000X0.900000*%
%ADD16R,0.650000X1.560000*%
%ADD17C,0.550000*%
%ADD18C,0.100000*%
G04 APERTURE END LIST*
D10*
X101850000Y-244425000D03*
X102350000Y-244425000D03*
X102850000Y-244425000D03*
X105350000Y-244425000D03*
X104850000Y-244425000D03*
X104350000Y-244425000D03*
X103850000Y-244425000D03*
D11*
X100400000Y-244425000D03*
X101200000Y-244425000D03*
X106000000Y-244425000D03*
X106800000Y-244425000D03*
D10*
X103350000Y-244425000D03*
D12*
X64077500Y-287972500D03*
X77527500Y-285432500D03*
D13*
X100632500Y-258730000D03*
X102567500Y-258730000D03*
D14*
X99920000Y-328820000D03*
X101695000Y-328820000D03*
X101855000Y-326410000D03*
X100080000Y-326410000D03*
X100205000Y-319410000D03*
X101980000Y-319410000D03*
X101665000Y-321765000D03*
X99890000Y-321765000D03*
D15*
X64293750Y-255525000D03*
X64293750Y-258825000D03*
X83343750Y-258825000D03*
X83343750Y-255525000D03*
X107156250Y-255525000D03*
X107156250Y-258825000D03*
X126206250Y-258825000D03*
X126206250Y-255525000D03*
X145256250Y-255525000D03*
X145256250Y-258825000D03*
X164306250Y-258825000D03*
X164306250Y-255525000D03*
X183356250Y-255525000D03*
X183356250Y-258825000D03*
X202406250Y-258825000D03*
X202406250Y-255525000D03*
X221456250Y-255525000D03*
X221456250Y-258825000D03*
X240506250Y-258825000D03*
X240506250Y-255525000D03*
X259556250Y-255525000D03*
X259556250Y-258825000D03*
X278606250Y-258825000D03*
X278606250Y-255525000D03*
X297656250Y-255525000D03*
X297656250Y-258825000D03*
X316706250Y-258825000D03*
X316706250Y-255525000D03*
X333375000Y-255525000D03*
X333375000Y-258825000D03*
X350043750Y-261206250D03*
X350043750Y-257906250D03*
X376237500Y-257906250D03*
X376237500Y-261206250D03*
X392906250Y-258825000D03*
X392906250Y-255525000D03*
X64293750Y-274575000D03*
X64293750Y-277875000D03*
X83343750Y-277875000D03*
X83343750Y-274575000D03*
X111918750Y-274575000D03*
X111918750Y-277875000D03*
X135731250Y-277875000D03*
X135731250Y-274575000D03*
X154781250Y-274575000D03*
X154781250Y-277875000D03*
X173831250Y-277875000D03*
X173831250Y-274575000D03*
X192881250Y-274575000D03*
X192881250Y-277875000D03*
X211931250Y-277875000D03*
X211931250Y-274575000D03*
X230981250Y-274575000D03*
X230981250Y-277875000D03*
X250031250Y-277875000D03*
X250031250Y-274575000D03*
X269081250Y-274575000D03*
X269081250Y-277875000D03*
X288131250Y-277875000D03*
X288131250Y-274575000D03*
X307181250Y-274575000D03*
X307181250Y-277875000D03*
X326231250Y-277875000D03*
X326231250Y-274575000D03*
X345281250Y-277875000D03*
X345281250Y-274575000D03*
X369093750Y-277875000D03*
X369093750Y-274575000D03*
X392906250Y-274575000D03*
X392906250Y-277875000D03*
X64293750Y-296925000D03*
X64293750Y-293625000D03*
X83343750Y-293625000D03*
X83343750Y-296925000D03*
X129700000Y-296880000D03*
X129700000Y-293580000D03*
X140493750Y-293625000D03*
X140493750Y-296925000D03*
X159543750Y-296925000D03*
X159543750Y-293625000D03*
X178593750Y-293625000D03*
X178593750Y-296925000D03*
X197643750Y-293625000D03*
X197643750Y-296925000D03*
X216693750Y-293625000D03*
X216693750Y-296925000D03*
X235743750Y-293625000D03*
X235743750Y-296925000D03*
X254793750Y-296925000D03*
X254793750Y-293625000D03*
X273843750Y-293625000D03*
X273843750Y-296925000D03*
X292893750Y-296925000D03*
X292893750Y-293625000D03*
X311943750Y-293625000D03*
X311943750Y-296925000D03*
X330993750Y-296925000D03*
X330993750Y-293625000D03*
X347662500Y-293625000D03*
X347662500Y-296925000D03*
X392906250Y-296925000D03*
X392906250Y-293625000D03*
X64293750Y-312675000D03*
X64293750Y-315975000D03*
X83343750Y-315975000D03*
X83343750Y-312675000D03*
X104775000Y-312675000D03*
X104775000Y-315975000D03*
X150018750Y-315975000D03*
X150018750Y-312675000D03*
X169068750Y-312675000D03*
X169068750Y-315975000D03*
X188118750Y-315975000D03*
X188118750Y-312675000D03*
X207168750Y-315975000D03*
X207168750Y-312675000D03*
X226218750Y-315975000D03*
X226218750Y-312675000D03*
X245268750Y-315975000D03*
X245268750Y-312675000D03*
X264318750Y-312675000D03*
X264318750Y-315975000D03*
X283368750Y-312675000D03*
X283368750Y-315975000D03*
X302418750Y-315975000D03*
X302418750Y-312675000D03*
X321468750Y-315975000D03*
X321468750Y-312675000D03*
X347662500Y-312675000D03*
X347662500Y-315975000D03*
X373856250Y-312675000D03*
X373856250Y-315975000D03*
X392906250Y-312675000D03*
X392906250Y-315975000D03*
X64293750Y-335025000D03*
X64293750Y-331725000D03*
X83343750Y-331725000D03*
X83343750Y-335025000D03*
X111918750Y-335025000D03*
X111918750Y-331725000D03*
X135731250Y-335025000D03*
X135731250Y-331725000D03*
X159543750Y-331725000D03*
X159543750Y-335025000D03*
X180975000Y-331725000D03*
X180975000Y-335025000D03*
X238125000Y-335025000D03*
X238125000Y-331725000D03*
X257175000Y-331725000D03*
X257175000Y-335025000D03*
X295275000Y-331725000D03*
X295275000Y-335025000D03*
X321468750Y-335025000D03*
X321468750Y-331725000D03*
X354806250Y-335025000D03*
X354806250Y-331725000D03*
X373856250Y-331725000D03*
X373856250Y-335025000D03*
X392906250Y-335025000D03*
X392906250Y-331725000D03*
D14*
X101505000Y-331270000D03*
X99730000Y-331270000D03*
X99770000Y-324310000D03*
X101545000Y-324310000D03*
D12*
X77322500Y-247332500D03*
X63872500Y-249872500D03*
X96577500Y-247332500D03*
X83127500Y-249872500D03*
X106940000Y-249872500D03*
X120390000Y-247332500D03*
X125990000Y-249872500D03*
X139440000Y-247332500D03*
X145040000Y-249872500D03*
X158490000Y-247332500D03*
X164090000Y-249872500D03*
X177540000Y-247332500D03*
X183140000Y-249872500D03*
X196590000Y-247332500D03*
X202190000Y-249872500D03*
X215640000Y-247332500D03*
X221240000Y-249872500D03*
X234690000Y-247332500D03*
X240290000Y-249872500D03*
X253740000Y-247332500D03*
X259340000Y-249872500D03*
X272790000Y-247332500D03*
X278390000Y-249872500D03*
X291840000Y-247332500D03*
X297440000Y-249872500D03*
X310890000Y-247332500D03*
X316490000Y-249872500D03*
X329940000Y-247332500D03*
X392690000Y-249872500D03*
X406140000Y-247332500D03*
X64077500Y-268922500D03*
X77527500Y-266382500D03*
X96577500Y-266382500D03*
X83127500Y-268922500D03*
X111702500Y-268922500D03*
X125152500Y-266382500D03*
X135515000Y-268922500D03*
X148965000Y-266382500D03*
X154565000Y-268922500D03*
X168015000Y-266382500D03*
X173615000Y-268922500D03*
X187065000Y-266382500D03*
X206115000Y-266382500D03*
X192665000Y-268922500D03*
X225165000Y-266382500D03*
X211715000Y-268922500D03*
X244215000Y-266382500D03*
X230765000Y-268922500D03*
X263265000Y-266382500D03*
X249815000Y-268922500D03*
X282315000Y-266382500D03*
X268865000Y-268922500D03*
X301365000Y-266382500D03*
X287915000Y-268922500D03*
X306965000Y-268922500D03*
X320415000Y-266382500D03*
X326015000Y-268922500D03*
X339465000Y-266382500D03*
X345065000Y-268922500D03*
X358515000Y-266382500D03*
X368877500Y-268922500D03*
X382327500Y-266382500D03*
X392690000Y-268922500D03*
X406140000Y-266382500D03*
X83127500Y-287972500D03*
X96577500Y-285432500D03*
X114083750Y-287972500D03*
X127533750Y-285432500D03*
X153727500Y-285432500D03*
X140277500Y-287972500D03*
X172777500Y-285432500D03*
X159327500Y-287972500D03*
X191827500Y-285432500D03*
X178377500Y-287972500D03*
X197427500Y-287972500D03*
X210877500Y-285432500D03*
X216477500Y-287972500D03*
X229927500Y-285432500D03*
X235527500Y-287972500D03*
X248977500Y-285432500D03*
X268027500Y-285432500D03*
X254577500Y-287972500D03*
X287077500Y-285432500D03*
X273627500Y-287972500D03*
X306127500Y-285432500D03*
X292677500Y-287972500D03*
X311727500Y-287972500D03*
X325177500Y-285432500D03*
X330777500Y-287972500D03*
X344227500Y-285432500D03*
X361733750Y-287972500D03*
X375183750Y-285432500D03*
X406140000Y-285432500D03*
X392690000Y-287972500D03*
X77527500Y-304482500D03*
X64077500Y-307022500D03*
X96577500Y-304482500D03*
X83127500Y-307022500D03*
X132296250Y-304482500D03*
X118846250Y-307022500D03*
X163252500Y-304482500D03*
X149802500Y-307022500D03*
X182302500Y-304482500D03*
X168852500Y-307022500D03*
X201352500Y-304482500D03*
X187902500Y-307022500D03*
X206952500Y-307022500D03*
X220402500Y-304482500D03*
X239452500Y-304482500D03*
X226002500Y-307022500D03*
X258502500Y-304165000D03*
X245052500Y-306705000D03*
X277552500Y-304165000D03*
X264102500Y-306705000D03*
X296602500Y-304165000D03*
X283152500Y-306705000D03*
X315652500Y-304165000D03*
X302202500Y-306705000D03*
X334702500Y-304165000D03*
X321252500Y-306705000D03*
X347446250Y-307022500D03*
X360896250Y-304482500D03*
X387090000Y-304482500D03*
X373640000Y-307022500D03*
X406140000Y-304482500D03*
X392690000Y-307022500D03*
X77527500Y-323532500D03*
X64077500Y-326072500D03*
X83127500Y-326072500D03*
X96577500Y-323532500D03*
X125152500Y-323532500D03*
X111702500Y-326072500D03*
X148965000Y-323532500D03*
X135515000Y-326072500D03*
X159327500Y-326072500D03*
X172777500Y-323532500D03*
X334702500Y-323532500D03*
X321252500Y-326072500D03*
X368040000Y-323532500D03*
X354590000Y-326072500D03*
X387090000Y-323532500D03*
X373640000Y-326072500D03*
X406140000Y-323532500D03*
X392690000Y-326072500D03*
D16*
X100810000Y-250260000D03*
X101760000Y-250260000D03*
X102710000Y-250260000D03*
X102710000Y-252960000D03*
X100810000Y-252960000D03*
D17*
X106932082Y-287921064D03*
D18*
G36*
X107267958Y-287196280D02*
X107656866Y-287585188D01*
X106596206Y-288645848D01*
X106207298Y-288256940D01*
X107267958Y-287196280D01*
X107267958Y-287196280D01*
G37*
D17*
X107497767Y-288486750D03*
D18*
G36*
X107833643Y-287761966D02*
X108222551Y-288150874D01*
X107161891Y-289211534D01*
X106772983Y-288822626D01*
X107833643Y-287761966D01*
X107833643Y-287761966D01*
G37*
D17*
X108063452Y-289052435D03*
D18*
G36*
X108399328Y-288327651D02*
X108788236Y-288716559D01*
X107727576Y-289777219D01*
X107338668Y-289388311D01*
X108399328Y-288327651D01*
X108399328Y-288327651D01*
G37*
D17*
X108629138Y-289618120D03*
D18*
G36*
X108965014Y-288893336D02*
X109353922Y-289282244D01*
X108293262Y-290342904D01*
X107904354Y-289953996D01*
X108965014Y-288893336D01*
X108965014Y-288893336D01*
G37*
D17*
X109194823Y-290183806D03*
D18*
G36*
X109530699Y-289459022D02*
X109919607Y-289847930D01*
X108858947Y-290908590D01*
X108470039Y-290519682D01*
X109530699Y-289459022D01*
X109530699Y-289459022D01*
G37*
D17*
X109760509Y-290749491D03*
D18*
G36*
X110096385Y-290024707D02*
X110485293Y-290413615D01*
X109424633Y-291474275D01*
X109035725Y-291085367D01*
X110096385Y-290024707D01*
X110096385Y-290024707D01*
G37*
D17*
X110326194Y-291315177D03*
D18*
G36*
X110662070Y-290590393D02*
X111050978Y-290979301D01*
X109990318Y-292039961D01*
X109601410Y-291651053D01*
X110662070Y-290590393D01*
X110662070Y-290590393D01*
G37*
D17*
X110891880Y-291880862D03*
D18*
G36*
X111227756Y-291156078D02*
X111616664Y-291544986D01*
X110556004Y-292605646D01*
X110167096Y-292216738D01*
X111227756Y-291156078D01*
X111227756Y-291156078D01*
G37*
D17*
X111457565Y-292446548D03*
D18*
G36*
X111793441Y-291721764D02*
X112182349Y-292110672D01*
X111121689Y-293171332D01*
X110732781Y-292782424D01*
X111793441Y-291721764D01*
X111793441Y-291721764D01*
G37*
D17*
X112023250Y-293012233D03*
D18*
G36*
X112359126Y-292287449D02*
X112748034Y-292676357D01*
X111687374Y-293737017D01*
X111298466Y-293348109D01*
X112359126Y-292287449D01*
X112359126Y-292287449D01*
G37*
D17*
X112588936Y-293577918D03*
D18*
G36*
X112924812Y-292853134D02*
X113313720Y-293242042D01*
X112253060Y-294302702D01*
X111864152Y-293913794D01*
X112924812Y-292853134D01*
X112924812Y-292853134D01*
G37*
D17*
X112588936Y-295982082D03*
D18*
G36*
X113313720Y-296317958D02*
X112924812Y-296706866D01*
X111864152Y-295646206D01*
X112253060Y-295257298D01*
X113313720Y-296317958D01*
X113313720Y-296317958D01*
G37*
D17*
X112023250Y-296547767D03*
D18*
G36*
X112748034Y-296883643D02*
X112359126Y-297272551D01*
X111298466Y-296211891D01*
X111687374Y-295822983D01*
X112748034Y-296883643D01*
X112748034Y-296883643D01*
G37*
D17*
X111457565Y-297113452D03*
D18*
G36*
X112182349Y-297449328D02*
X111793441Y-297838236D01*
X110732781Y-296777576D01*
X111121689Y-296388668D01*
X112182349Y-297449328D01*
X112182349Y-297449328D01*
G37*
D17*
X110891880Y-297679138D03*
D18*
G36*
X111616664Y-298015014D02*
X111227756Y-298403922D01*
X110167096Y-297343262D01*
X110556004Y-296954354D01*
X111616664Y-298015014D01*
X111616664Y-298015014D01*
G37*
D17*
X110326194Y-298244823D03*
D18*
G36*
X111050978Y-298580699D02*
X110662070Y-298969607D01*
X109601410Y-297908947D01*
X109990318Y-297520039D01*
X111050978Y-298580699D01*
X111050978Y-298580699D01*
G37*
D17*
X109760509Y-298810509D03*
D18*
G36*
X110485293Y-299146385D02*
X110096385Y-299535293D01*
X109035725Y-298474633D01*
X109424633Y-298085725D01*
X110485293Y-299146385D01*
X110485293Y-299146385D01*
G37*
D17*
X109194823Y-299376194D03*
D18*
G36*
X109919607Y-299712070D02*
X109530699Y-300100978D01*
X108470039Y-299040318D01*
X108858947Y-298651410D01*
X109919607Y-299712070D01*
X109919607Y-299712070D01*
G37*
D17*
X108629138Y-299941880D03*
D18*
G36*
X109353922Y-300277756D02*
X108965014Y-300666664D01*
X107904354Y-299606004D01*
X108293262Y-299217096D01*
X109353922Y-300277756D01*
X109353922Y-300277756D01*
G37*
D17*
X108063452Y-300507565D03*
D18*
G36*
X108788236Y-300843441D02*
X108399328Y-301232349D01*
X107338668Y-300171689D01*
X107727576Y-299782781D01*
X108788236Y-300843441D01*
X108788236Y-300843441D01*
G37*
D17*
X107497767Y-301073250D03*
D18*
G36*
X108222551Y-301409126D02*
X107833643Y-301798034D01*
X106772983Y-300737374D01*
X107161891Y-300348466D01*
X108222551Y-301409126D01*
X108222551Y-301409126D01*
G37*
D17*
X106932082Y-301638936D03*
D18*
G36*
X107656866Y-301974812D02*
X107267958Y-302363720D01*
X106207298Y-301303060D01*
X106596206Y-300914152D01*
X107656866Y-301974812D01*
X107656866Y-301974812D01*
G37*
D17*
X104527918Y-301638936D03*
D18*
G36*
X104863794Y-300914152D02*
X105252702Y-301303060D01*
X104192042Y-302363720D01*
X103803134Y-301974812D01*
X104863794Y-300914152D01*
X104863794Y-300914152D01*
G37*
D17*
X103962233Y-301073250D03*
D18*
G36*
X104298109Y-300348466D02*
X104687017Y-300737374D01*
X103626357Y-301798034D01*
X103237449Y-301409126D01*
X104298109Y-300348466D01*
X104298109Y-300348466D01*
G37*
D17*
X103396548Y-300507565D03*
D18*
G36*
X103732424Y-299782781D02*
X104121332Y-300171689D01*
X103060672Y-301232349D01*
X102671764Y-300843441D01*
X103732424Y-299782781D01*
X103732424Y-299782781D01*
G37*
D17*
X102830862Y-299941880D03*
D18*
G36*
X103166738Y-299217096D02*
X103555646Y-299606004D01*
X102494986Y-300666664D01*
X102106078Y-300277756D01*
X103166738Y-299217096D01*
X103166738Y-299217096D01*
G37*
D17*
X102265177Y-299376194D03*
D18*
G36*
X102601053Y-298651410D02*
X102989961Y-299040318D01*
X101929301Y-300100978D01*
X101540393Y-299712070D01*
X102601053Y-298651410D01*
X102601053Y-298651410D01*
G37*
D17*
X101699491Y-298810509D03*
D18*
G36*
X102035367Y-298085725D02*
X102424275Y-298474633D01*
X101363615Y-299535293D01*
X100974707Y-299146385D01*
X102035367Y-298085725D01*
X102035367Y-298085725D01*
G37*
D17*
X101133806Y-298244823D03*
D18*
G36*
X101469682Y-297520039D02*
X101858590Y-297908947D01*
X100797930Y-298969607D01*
X100409022Y-298580699D01*
X101469682Y-297520039D01*
X101469682Y-297520039D01*
G37*
D17*
X100568120Y-297679138D03*
D18*
G36*
X100903996Y-296954354D02*
X101292904Y-297343262D01*
X100232244Y-298403922D01*
X99843336Y-298015014D01*
X100903996Y-296954354D01*
X100903996Y-296954354D01*
G37*
D17*
X100002435Y-297113452D03*
D18*
G36*
X100338311Y-296388668D02*
X100727219Y-296777576D01*
X99666559Y-297838236D01*
X99277651Y-297449328D01*
X100338311Y-296388668D01*
X100338311Y-296388668D01*
G37*
D17*
X99436750Y-296547767D03*
D18*
G36*
X99772626Y-295822983D02*
X100161534Y-296211891D01*
X99100874Y-297272551D01*
X98711966Y-296883643D01*
X99772626Y-295822983D01*
X99772626Y-295822983D01*
G37*
D17*
X98871064Y-295982082D03*
D18*
G36*
X99206940Y-295257298D02*
X99595848Y-295646206D01*
X98535188Y-296706866D01*
X98146280Y-296317958D01*
X99206940Y-295257298D01*
X99206940Y-295257298D01*
G37*
D17*
X98871064Y-293577918D03*
D18*
G36*
X99595848Y-293913794D02*
X99206940Y-294302702D01*
X98146280Y-293242042D01*
X98535188Y-292853134D01*
X99595848Y-293913794D01*
X99595848Y-293913794D01*
G37*
D17*
X99436750Y-293012233D03*
D18*
G36*
X100161534Y-293348109D02*
X99772626Y-293737017D01*
X98711966Y-292676357D01*
X99100874Y-292287449D01*
X100161534Y-293348109D01*
X100161534Y-293348109D01*
G37*
D17*
X100002435Y-292446548D03*
D18*
G36*
X100727219Y-292782424D02*
X100338311Y-293171332D01*
X99277651Y-292110672D01*
X99666559Y-291721764D01*
X100727219Y-292782424D01*
X100727219Y-292782424D01*
G37*
D17*
X100568120Y-291880862D03*
D18*
G36*
X101292904Y-292216738D02*
X100903996Y-292605646D01*
X99843336Y-291544986D01*
X100232244Y-291156078D01*
X101292904Y-292216738D01*
X101292904Y-292216738D01*
G37*
D17*
X101133806Y-291315177D03*
D18*
G36*
X101858590Y-291651053D02*
X101469682Y-292039961D01*
X100409022Y-290979301D01*
X100797930Y-290590393D01*
X101858590Y-291651053D01*
X101858590Y-291651053D01*
G37*
D17*
X101699491Y-290749491D03*
D18*
G36*
X102424275Y-291085367D02*
X102035367Y-291474275D01*
X100974707Y-290413615D01*
X101363615Y-290024707D01*
X102424275Y-291085367D01*
X102424275Y-291085367D01*
G37*
D17*
X102265177Y-290183806D03*
D18*
G36*
X102989961Y-290519682D02*
X102601053Y-290908590D01*
X101540393Y-289847930D01*
X101929301Y-289459022D01*
X102989961Y-290519682D01*
X102989961Y-290519682D01*
G37*
D17*
X102830862Y-289618120D03*
D18*
G36*
X103555646Y-289953996D02*
X103166738Y-290342904D01*
X102106078Y-289282244D01*
X102494986Y-288893336D01*
X103555646Y-289953996D01*
X103555646Y-289953996D01*
G37*
D17*
X103396548Y-289052435D03*
D18*
G36*
X104121332Y-289388311D02*
X103732424Y-289777219D01*
X102671764Y-288716559D01*
X103060672Y-288327651D01*
X104121332Y-289388311D01*
X104121332Y-289388311D01*
G37*
D17*
X103962233Y-288486750D03*
D18*
G36*
X104687017Y-288822626D02*
X104298109Y-289211534D01*
X103237449Y-288150874D01*
X103626357Y-287761966D01*
X104687017Y-288822626D01*
X104687017Y-288822626D01*
G37*
D17*
X104527918Y-287921064D03*
D18*
G36*
X105252702Y-288256940D02*
X104863794Y-288645848D01*
X103803134Y-287585188D01*
X104192042Y-287196280D01*
X105252702Y-288256940D01*
X105252702Y-288256940D01*
G37*
D15*
X416718750Y-255525000D03*
X416718750Y-258825000D03*
X435768750Y-258825000D03*
X435768750Y-255525000D03*
X454818750Y-255525000D03*
X454818750Y-258825000D03*
X473868750Y-258825000D03*
X473868750Y-255525000D03*
X416718750Y-274575000D03*
X416718750Y-277875000D03*
X435768750Y-277875000D03*
X435768750Y-274575000D03*
X454818750Y-274575000D03*
X454818750Y-277875000D03*
X471487500Y-277875000D03*
X471487500Y-274575000D03*
X416718750Y-293625000D03*
X416718750Y-296925000D03*
X435768750Y-296925000D03*
X435768750Y-293625000D03*
X454818750Y-293625000D03*
X454818750Y-296925000D03*
X469106250Y-296925000D03*
X469106250Y-293625000D03*
X416718750Y-312675000D03*
X416718750Y-315975000D03*
X435768750Y-312675000D03*
X435768750Y-315975000D03*
X454818750Y-315975000D03*
X454818750Y-312675000D03*
X469106250Y-315975000D03*
X469106250Y-312675000D03*
X416718750Y-335025000D03*
X416718750Y-331725000D03*
X438150000Y-331725000D03*
X438150000Y-335025000D03*
X454818750Y-335025000D03*
X454818750Y-331725000D03*
X469106250Y-331725000D03*
X469106250Y-335025000D03*
D12*
X416502500Y-249872500D03*
X429952500Y-247332500D03*
X449002500Y-247332500D03*
X435552500Y-249872500D03*
X454602500Y-249872500D03*
X468052500Y-247332500D03*
X487102500Y-247332500D03*
X473652500Y-249872500D03*
X429952500Y-266382500D03*
X416502500Y-268922500D03*
X435552500Y-268922500D03*
X449002500Y-266382500D03*
X468052500Y-266382500D03*
X454602500Y-268922500D03*
X416502500Y-287972500D03*
X429952500Y-285432500D03*
X449002500Y-285432500D03*
X435552500Y-287972500D03*
X468052500Y-285432500D03*
X454602500Y-287972500D03*
X416502500Y-307022500D03*
X429952500Y-304482500D03*
X449002500Y-304482500D03*
X435552500Y-307022500D03*
X454602500Y-307022500D03*
X468052500Y-304482500D03*
X454602500Y-326072500D03*
X468052500Y-323532500D03*
M02*
