M48
;DRILL file {KiCad (5.0.0-rc2-dev-733-g23a9fcd91)} date 05/24/18 07:34:13
;FORMAT={-:-/ absolute / inch / decimal}
FMAT,2
INCH,TZ
T1C0.0256
T2C0.0388
T3C0.0389
T4C0.0669
T5C0.0689
T6C0.0787
T7C0.1161
T8C0.1200
T9C0.1567
T10C0.1570
%
G90
G05
M72
T1
X3.965Y-9.5772
X4.1925Y-9.5772
T2
X4.2874Y-12.9746
X4.2874Y-13.0546
T3
X4.0874Y-13.0146
T4
X7.675Y-10.6875
X8.075Y-10.6875
X17.9875Y-11.4375
X18.3875Y-11.4375
X6.925Y-10.6875
X7.325Y-10.6875
X16.4875Y-9.9375
X16.8875Y-9.9375
X3.3625Y-12.1875
X3.7625Y-12.1875
X5.6125Y-11.4375
X6.0125Y-11.4375
X14.3312Y-11.4375
X14.7312Y-11.4375
X3.3625Y-11.4375
X3.7625Y-11.4375
X5.9875Y-12.1875
X6.3875Y-12.1875
X11.05Y-9.9375
X11.45Y-9.9375
X5.8Y-9.9375
X6.2Y-9.9375
X5.05Y-9.9375
X5.45Y-9.9375
X17.9875Y-12.1875
X18.3875Y-12.1875
X9.925Y-10.6875
X10.325Y-10.6875
X17.2375Y-11.4375
X17.6375Y-11.4375
X5.425Y-10.6875
X5.825Y-10.6875
X11.9875Y-12.175
X12.3875Y-12.175
X14.6125Y-10.6875
X15.0125Y-10.6875
X14.8Y-12.9375
X15.2Y-12.9375
X10.8625Y-11.4375
X11.2625Y-11.4375
X4.7687Y-12.1875
X5.1688Y-12.1875
X6.3625Y-12.9375
X6.7625Y-12.9375
X8.8Y-9.9375
X9.2Y-9.9375
X9.55Y-9.9375
X9.95Y-9.9375
X17.2375Y-12.1875
X17.6375Y-12.1875
X16.4875Y-11.4375
X16.8875Y-11.4375
X3.3625Y-10.6875
X3.7625Y-10.6875
X17.9875Y-12.9375
X18.3875Y-12.9375
X2.6125Y-12.9375
X3.0125Y-12.9375
X9.7375Y-12.175
X10.1375Y-12.175
X11.425Y-10.6875
X11.825Y-10.6875
X12.175Y-10.6875
X12.575Y-10.6875
X13.7687Y-12.1875
X14.1687Y-12.1875
X9.3625Y-11.4375
X9.7625Y-11.4375
X4.4875Y-12.9375
X4.8875Y-12.9375
X6.55Y-9.9375
X6.95Y-9.9375
X16.4875Y-12.1875
X16.8875Y-12.1875
X15.55Y-9.9375
X15.95Y-9.9375
X9.175Y-10.6875
X9.575Y-10.6875
X8.9875Y-12.1875
X9.3875Y-12.1875
X8.2375Y-12.1875
X8.6375Y-12.1875
X11.6125Y-11.4375
X12.0125Y-11.4375
X14.05Y-12.9375
X14.45Y-12.9375
X10.1125Y-11.4375
X10.5125Y-11.4375
X10.4875Y-12.175
X10.8875Y-12.175
X7.8625Y-11.4375
X8.2625Y-11.4375
X12.7375Y-12.9375
X13.1375Y-12.9375
X10.3Y-9.9375
X10.7Y-9.9375
X3.3625Y-9.9375
X3.7625Y-9.9375
X16.4875Y-10.6875
X16.8875Y-10.6875
X17.9875Y-10.6875
X18.3875Y-10.6875
X4.4875Y-10.6875
X4.8875Y-10.6875
X17.9875Y-9.9375
X18.3875Y-9.9375
X12.55Y-9.9375
X12.95Y-9.9375
X13.1125Y-11.4375
X13.5125Y-11.4375
X6.7375Y-12.1875
X7.1375Y-12.1875
X8.6125Y-11.4375
X9.0125Y-11.4375
X12.7375Y-12.175
X13.1375Y-12.175
X7.1125Y-11.4375
X7.5125Y-11.4375
X15.55Y-11.4375
X15.95Y-11.4375
X12.925Y-10.6875
X13.325Y-10.6875
X7.4875Y-12.1875
X7.8875Y-12.1875
X2.6044Y-9.9375
X3.0044Y-9.9375
X18.7375Y-9.9375
X19.1375Y-9.9375
X6.175Y-10.6875
X6.575Y-10.6875
X8.425Y-10.6875
X8.825Y-10.6875
X2.6125Y-10.6875
X3.0125Y-10.6875
X11.2375Y-12.175
X11.6375Y-12.175
X2.6125Y-12.1875
X3.0125Y-12.1875
X6.3625Y-11.4375
X6.7625Y-11.4375
X4.5812Y-11.4375
X4.9813Y-11.4375
X5.425Y-12.9375
X5.825Y-12.9375
X12.3625Y-11.4375
X12.7625Y-11.4375
X2.6125Y-11.4375
X3.0125Y-11.4375
X4.3Y-9.9375
X4.7Y-9.9375
X8.05Y-9.9375
X8.45Y-9.9375
X17.2375Y-9.9375
X17.6375Y-9.9375
X10.675Y-10.6875
X11.075Y-10.6875
X14.8Y-12.1875
X15.2Y-12.1875
X15.55Y-10.6875
X15.95Y-10.6875
X15.55Y-12.9375
X15.95Y-12.9375
X13.675Y-10.6875
X14.075Y-10.6875
X3.3625Y-12.9375
X3.7625Y-12.9375
X15.55Y-12.1875
X15.95Y-12.1875
X11.8Y-9.9375
X12.2Y-9.9375
X17.2375Y-10.6875
X17.6375Y-10.6875
X7.3Y-9.9375
X7.7Y-9.9375
T5
X17.2375Y-12.9375
X17.6375Y-12.9375
X8.05Y-12.9375
X8.45Y-12.9375
X9.55Y-12.9375
X9.95Y-12.9375
X13.675Y-9.9375
X14.075Y-9.9375
X18.9375Y-12.3625
X18.9375Y-12.7625
X18.9375Y-10.8625
X18.9375Y-11.2625
X16.4875Y-12.9375
X16.8875Y-12.9375
X18.7375Y-10.6875
X19.1375Y-10.6875
X14.05Y-9.9375
X14.45Y-9.9375
X14.425Y-9.9375
X14.825Y-9.9375
X18.7375Y-12.9375
X19.1375Y-12.9375
X10.3Y-12.9375
X10.7Y-12.9375
X11.05Y-12.9375
X11.45Y-12.9375
X18.7375Y-11.4375
X19.1375Y-11.4375
X13.3Y-9.9375
X13.7Y-9.9375
X14.8Y-9.9375
X15.2Y-9.9375
X16.8625Y-12.9375
X17.2625Y-12.9375
X18.7375Y-12.1875
X19.1375Y-12.1875
X11.8Y-12.9375
X12.2Y-12.9375
T7
X5.475Y-10.5875
X5.725Y-10.4875
X12.0375Y-12.075
X12.2875Y-11.975
X14.6625Y-10.5875
X14.9125Y-10.4875
X14.85Y-12.8375
X15.1Y-12.7375
X10.9125Y-11.3375
X11.1625Y-11.2375
X4.8187Y-12.0875
X5.0687Y-11.9875
X6.4125Y-12.8375
X6.6625Y-12.7375
X8.85Y-9.8375
X9.1Y-9.7375
X9.6Y-9.8375
X9.85Y-9.7375
X17.2875Y-12.0875
X17.5375Y-11.9875
X16.5375Y-11.3375
X16.7875Y-11.2375
X3.4125Y-10.5875
X3.6625Y-10.4875
X18.0375Y-12.8375
X18.2875Y-12.7375
X2.6625Y-12.8375
X2.9125Y-12.7375
X9.7875Y-12.075
X10.0375Y-11.975
X11.475Y-10.5875
X11.725Y-10.4875
X12.225Y-10.5875
X12.475Y-10.4875
X13.8187Y-12.0875
X14.0687Y-11.9875
X9.4125Y-11.3375
X9.6625Y-11.2375
X4.5375Y-12.8375
X4.7875Y-12.7375
X6.6Y-9.8375
X6.85Y-9.7375
X16.5375Y-12.0875
X16.7875Y-11.9875
X15.6Y-9.8375
X15.85Y-9.7375
X9.225Y-10.5875
X9.475Y-10.4875
X9.0375Y-12.0875
X9.2875Y-11.9875
X8.2875Y-12.0875
X8.5375Y-11.9875
X11.6625Y-11.3375
X11.9125Y-11.2375
X14.1Y-12.8375
X14.35Y-12.7375
X10.1625Y-11.3375
X10.4125Y-11.2375
X10.5375Y-12.075
X10.7875Y-11.975
X7.9125Y-11.3375
X8.1625Y-11.2375
X12.7875Y-12.8375
X13.0375Y-12.7375
X10.35Y-9.8375
X10.6Y-9.7375
X3.4125Y-9.8375
X3.6625Y-9.7375
X16.5375Y-10.5875
X16.7875Y-10.4875
X18.0375Y-10.5875
X18.2875Y-10.4875
X4.5375Y-10.5875
X4.7875Y-10.4875
X18.0375Y-9.8375
X18.2875Y-9.7375
X12.6Y-9.8375
X12.85Y-9.7375
X13.1625Y-11.3375
X13.4125Y-11.2375
X6.7875Y-12.0875
X7.0375Y-11.9875
X8.6625Y-11.3375
X8.9125Y-11.2375
X12.7875Y-12.075
X13.0375Y-11.975
X7.1625Y-11.3375
X7.4125Y-11.2375
X15.6Y-11.3375
X15.85Y-11.2375
X12.975Y-10.5875
X13.225Y-10.4875
X7.5375Y-12.0875
X7.7875Y-11.9875
X2.6544Y-9.8375
X2.9044Y-9.7375
X18.7875Y-9.8375
X19.0375Y-9.7375
X6.225Y-10.5875
X6.475Y-10.4875
X8.475Y-10.5875
X8.725Y-10.4875
X2.6625Y-10.5875
X2.9125Y-10.4875
X11.2875Y-12.075
X11.5375Y-11.975
X2.6625Y-12.0875
X2.9125Y-11.9875
X6.4125Y-11.3375
X6.6625Y-11.2375
X4.6312Y-11.3375
X4.8812Y-11.2375
X5.475Y-12.8375
X5.725Y-12.7375
X12.4125Y-11.3375
X12.6625Y-11.2375
X2.6625Y-11.3375
X2.9125Y-11.2375
X4.35Y-9.8375
X4.6Y-9.7375
X8.1Y-9.8375
X8.35Y-9.7375
X17.2875Y-9.8375
X17.5375Y-9.7375
X10.725Y-10.5875
X10.975Y-10.4875
X14.85Y-12.0875
X15.1Y-11.9875
X15.6Y-10.5875
X15.85Y-10.4875
X15.6Y-12.8375
X15.85Y-12.7375
X13.725Y-10.5875
X13.975Y-10.4875
X3.4125Y-12.8375
X3.6625Y-12.7375
X15.6Y-12.0875
X15.85Y-11.9875
X11.85Y-9.8375
X12.1Y-9.7375
X17.2875Y-10.5875
X17.5375Y-10.4875
X7.35Y-9.8375
X7.6Y-9.7375
X7.725Y-10.5875
X7.975Y-10.4875
X18.0375Y-11.3375
X18.2875Y-11.2375
X6.975Y-10.5875
X7.225Y-10.4875
X16.5375Y-9.8375
X16.7875Y-9.7375
X3.4125Y-12.0875
X3.6625Y-11.9875
X5.6625Y-11.3375
X5.9125Y-11.2375
X14.3812Y-11.3375
X14.6312Y-11.2375
X3.4125Y-11.3375
X3.6625Y-11.2375
X6.0375Y-12.0875
X6.2875Y-11.9875
X11.1Y-9.8375
X11.35Y-9.7375
X5.85Y-9.8375
X6.1Y-9.7375
X5.1Y-9.8375
X5.35Y-9.7375
X18.0375Y-12.0875
X18.2875Y-11.9875
X9.975Y-10.5875
X10.225Y-10.4875
X17.2875Y-11.3375
X17.5375Y-11.2375
T8
X19.2125Y-10.5925
X19.2125Y-11.5325
X11.25Y-12.6625
X14.155Y-9.6625
X15.095Y-9.6625
X9.75Y-12.6625
X11.25Y-12.6625
X10.5Y-12.6625
X12.Y-12.6625
X14.0612Y-11.1625
X15.0012Y-11.1625
X4.4988Y-11.9125
X5.4387Y-11.9125
X16.5925Y-12.6625
X17.5325Y-12.6625
X7.5Y-12.6625
X9.Y-12.6625
X7.5Y-12.6625
X12.Y-12.6625
X13.405Y-9.6625
X14.345Y-9.6625
X19.2125Y-12.0925
X19.2125Y-13.0325
T9
X8.0625Y-11.4375
X12.9375Y-12.9375
X10.5Y-9.9375
X3.5625Y-9.9375
X16.6875Y-10.6875
X18.1875Y-10.6875
X4.6875Y-10.6875
X18.1875Y-9.9375
X12.75Y-9.9375
X13.3125Y-11.4375
X6.9375Y-12.1875
X8.8125Y-11.4375
X12.9375Y-12.175
X7.3125Y-11.4375
X15.75Y-11.4375
X13.125Y-10.6875
X7.6875Y-12.1875
X2.8044Y-9.9375
X18.9375Y-9.9375
X6.375Y-10.6875
X8.625Y-10.6875
X2.8125Y-10.6875
X11.4375Y-12.175
X2.8125Y-12.1875
X6.5625Y-11.4375
X4.7812Y-11.4375
X5.625Y-12.9375
X12.5625Y-11.4375
X2.8125Y-11.4375
X4.5Y-9.9375
X8.25Y-9.9375
X17.4375Y-9.9375
X10.875Y-10.6875
X15.Y-12.1875
X15.75Y-10.6875
X15.75Y-12.9375
X13.875Y-10.6875
X3.5625Y-12.9375
X15.75Y-12.1875
X12.Y-9.9375
X17.4375Y-10.6875
X7.5Y-9.9375
X7.875Y-10.6875
X18.1875Y-11.4375
X7.125Y-10.6875
X16.6875Y-9.9375
X3.5625Y-12.1875
X5.8125Y-11.4375
X14.5312Y-11.4375
X3.5625Y-11.4375
X6.1875Y-12.1875
X11.25Y-9.9375
X6.Y-9.9375
X5.25Y-9.9375
X18.1875Y-12.1875
X10.125Y-10.6875
X17.4375Y-11.4375
X5.625Y-10.6875
X12.1875Y-12.175
X14.8125Y-10.6875
X15.Y-12.9375
X11.0625Y-11.4375
X4.9688Y-12.1875
X6.5625Y-12.9375
X9.Y-9.9375
X9.75Y-9.9375
X17.4375Y-12.1875
X16.6875Y-11.4375
X3.5625Y-10.6875
X18.1875Y-12.9375
X2.8125Y-12.9375
X9.9375Y-12.175
X11.625Y-10.6875
X12.375Y-10.6875
X13.9688Y-12.1875
X9.5625Y-11.4375
X4.6875Y-12.9375
X6.75Y-9.9375
X16.6875Y-12.1875
X15.75Y-9.9375
X9.375Y-10.6875
X9.1875Y-12.1875
X8.4375Y-12.1875
X11.8125Y-11.4375
X14.25Y-12.9375
X10.3125Y-11.4375
X10.6875Y-12.175
T10
X18.9375Y-12.9375
X9.75Y-13.2625
X10.5Y-12.9375
X11.25Y-13.2625
X10.5Y-13.2625
X11.25Y-12.9375
X12.Y-13.2625
X14.0612Y-11.7625
X15.0012Y-11.7625
X4.4988Y-12.5125
X5.4387Y-12.5125
X18.9375Y-11.4375
X13.5Y-9.9375
X15.Y-9.9375
X16.5925Y-13.2625
X17.0625Y-12.9375
X17.5325Y-13.2625
X18.9375Y-12.1875
X12.Y-12.9375
X17.4375Y-12.9375
X7.5Y-13.2625
X8.25Y-12.9375
X9.Y-13.2625
X7.5Y-13.2625
X9.75Y-12.9375
X12.Y-13.2625
X13.405Y-10.2625
X13.875Y-9.9375
X14.345Y-10.2625
X18.6125Y-12.0925
X18.6125Y-13.0325
X18.9375Y-12.5625
X18.6125Y-10.5925
X18.6125Y-11.5325
X18.9375Y-11.0625
X16.6875Y-12.9375
X11.25Y-13.2625
X18.9375Y-10.6875
X14.25Y-9.9375
X14.155Y-10.2625
X14.625Y-9.9375
X15.095Y-10.2625
T6
X16.2188Y-9.9975G85X16.2188Y-10.6275
G05
X16.1807Y-12.4024G85X16.1807Y-13.0323
G05
X16.2188Y-11.1975G85X16.2188Y-11.8275
G05
T0
M30
