M48
;DRILL file {KiCad (5.0.0-rc2-dev-733-g23a9fcd91)} date 06/09/18 19:11:26
;FORMAT={-:-/ absolute / metric / decimal}
FMAT,2
METRIC,TZ
T1C0.400
T2C0.600
T3C1.016
T4C1.470
T5C2.200
%
G90
G05
M71
T1
X62.Y-120.59
X62.08Y-116.75
X72.91Y-151.98
X81.36Y-153.02
X105.61Y-116.78
X116.03Y-116.485
X119.38Y-78.99
X122.84Y-79.14
X123.85Y-78.21
X125.48Y-85.62
X203.84Y-96.26
X228.34Y-80.18
X232.49Y-84.64
X232.88Y-93.43
X232.98Y-81.695
X235.32Y-93.28
X237.83Y-91.93
X238.31Y-98.55
X243.15Y-92.21
X244.12Y-91.52
X245.83Y-81.23
X247.31Y-89.66
X248.28Y-96.99
X250.32Y-101.93
X252.41Y-96.82
X252.41Y-96.82
X252.61Y-107.52
X252.96Y-88.89
X253.05Y-99.07
X253.86Y-100.67
X254.6Y-83.16
X257.28Y-94.1
X262.98Y-112.98
X267.88Y-100.35
X270.35Y-95.64
X270.36Y-100.18
X330.89Y-174.65
X330.89Y-174.65
X334.52Y-136.65
X334.97Y-193.65
X337.13Y-155.65
X339.02Y-113.16
X340.73Y-174.65
X341.471Y-97.975
X343.38Y-155.65
X343.61Y-136.65
X344.08Y-193.65
X352.07Y-95.23
X352.16Y-96.88
X356.84Y-97.25
X356.86Y-98.65
X383.1Y-109.66
X401.58Y-155.65
X407.91Y-155.65
X442.42Y-117.65
X447.01Y-114.12
X448.07Y-117.65
T2
X124.956Y-136.362
X124.956Y-139.862
X126.206Y-136.362
X126.206Y-139.862
X127.456Y-136.362
X127.456Y-139.862
X172.581Y-183.987
X172.581Y-187.487
X173.831Y-183.987
X173.831Y-187.487
X175.081Y-183.987
X175.081Y-187.487
X291.644Y-86.356
X291.644Y-89.856
X292.894Y-86.356
X292.894Y-89.856
X294.144Y-86.356
X294.144Y-89.856
X382.131Y-136.362
X382.131Y-139.862
X383.381Y-136.362
X383.381Y-139.862
X384.631Y-136.362
X384.631Y-139.862
X205.919Y-86.356
X205.919Y-89.856
X207.169Y-86.356
X207.169Y-89.856
X208.419Y-86.356
X208.419Y-89.856
X444.044Y-155.412
X444.044Y-158.912
X445.294Y-155.412
X445.294Y-158.912
X446.544Y-155.412
X446.544Y-158.912
X259.32Y-135.19
X259.32Y-138.69
X260.57Y-135.19
X260.57Y-138.69
X261.82Y-135.19
X261.82Y-138.69
X424.994Y-117.312
X424.994Y-120.812
X426.244Y-117.312
X426.244Y-120.812
X427.494Y-117.312
X427.494Y-120.812
X120.194Y-86.356
X120.194Y-89.856
X121.444Y-86.356
X121.444Y-89.856
X122.694Y-86.356
X122.694Y-89.856
X463.094Y-117.312
X463.094Y-120.812
X464.344Y-117.312
X464.344Y-120.812
X465.594Y-117.312
X465.594Y-120.812
X72.569Y-117.312
X72.569Y-120.812
X73.819Y-117.312
X73.819Y-120.812
X75.069Y-117.312
X75.069Y-120.812
X72.569Y-155.412
X72.569Y-158.912
X73.819Y-155.412
X73.819Y-158.912
X75.069Y-155.412
X75.069Y-158.912
X339.269Y-183.987
X339.269Y-187.487
X340.519Y-183.987
X340.519Y-187.487
X341.769Y-183.987
X341.769Y-187.487
X377.369Y-86.356
X377.369Y-89.856
X378.619Y-86.356
X378.619Y-89.856
X379.869Y-86.356
X379.869Y-89.856
T3
X428.149Y-82.55
X428.149Y-85.09
X428.149Y-87.63
X428.149Y-90.17
X428.149Y-92.71
X428.149Y-95.25
X428.149Y-97.79
X428.149Y-100.33
X428.149Y-102.87
X428.149Y-105.41
X428.149Y-107.95
X428.149Y-110.49
X443.389Y-82.55
X443.389Y-85.09
X443.389Y-87.63
X443.389Y-90.17
X443.389Y-92.71
X443.389Y-95.25
X443.389Y-97.79
X443.389Y-100.33
X443.389Y-102.87
X443.389Y-105.41
X443.389Y-107.95
X443.389Y-110.49
T4
X470.059Y-87.947
X471.369Y-86.487
X476.369Y-85.987
X476.409Y-85.407
X358.14Y-145.097
X359.45Y-143.637
X364.45Y-143.137
X364.49Y-142.558
X341.471Y-87.947
X342.781Y-86.487
X347.781Y-85.987
X347.821Y-85.407
X470.059Y-183.197
X471.369Y-181.737
X476.369Y-181.237
X476.409Y-180.657
X274.796Y-106.997
X276.106Y-105.537
X281.106Y-105.037
X281.146Y-104.457
X146.209Y-164.147
X147.519Y-162.688
X152.519Y-162.188
X152.559Y-161.607
X60.484Y-164.147
X61.794Y-162.688
X66.794Y-162.188
X66.834Y-161.607
X255.746Y-87.947
X257.056Y-86.487
X262.056Y-85.987
X262.096Y-85.407
X451.009Y-145.097
X452.319Y-143.637
X457.319Y-143.137
X457.359Y-142.558
X60.484Y-183.197
X61.794Y-181.737
X66.794Y-181.237
X66.834Y-180.657
X105.727Y-164.147
X107.037Y-162.688
X112.037Y-162.188
X112.078Y-161.607
X279.559Y-164.147
X280.869Y-162.688
X285.869Y-162.188
X285.909Y-161.607
X296.229Y-183.198
X297.539Y-181.738
X302.539Y-181.238
X302.579Y-180.658
X327.184Y-145.097
X328.494Y-143.637
X333.494Y-143.137
X333.534Y-142.558
X136.684Y-145.097
X137.994Y-143.637
X142.994Y-143.137
X143.034Y-142.558
X79.534Y-126.047
X80.844Y-124.587
X85.844Y-124.087
X85.884Y-123.507
X365.284Y-126.047
X366.594Y-124.587
X371.594Y-124.087
X371.634Y-123.507
X208.121Y-126.047
X209.431Y-124.587
X214.431Y-124.087
X214.471Y-123.507
X79.534Y-106.997
X80.844Y-105.537
X85.844Y-105.037
X85.884Y-104.457
X431.959Y-87.947
X433.269Y-86.487
X438.269Y-85.987
X438.309Y-85.407
X389.096Y-87.947
X390.406Y-86.487
X395.406Y-85.987
X395.446Y-85.407
X412.909Y-183.197
X414.219Y-181.737
X419.219Y-181.237
X419.259Y-180.657
X189.071Y-87.947
X190.381Y-86.487
X195.381Y-85.987
X195.421Y-85.407
X422.434Y-183.197
X423.744Y-181.737
X428.744Y-181.237
X428.784Y-180.657
X179.546Y-106.997
X180.856Y-105.537
X185.856Y-105.037
X185.896Y-104.457
X293.846Y-183.197
X295.156Y-181.737
X300.156Y-181.237
X300.196Y-180.657
X115.252Y-164.147
X116.562Y-162.688
X121.562Y-162.188
X121.602Y-161.607
X317.659Y-183.197
X318.969Y-181.737
X323.969Y-181.237
X324.009Y-180.657
X236.696Y-183.197
X238.006Y-181.737
X243.006Y-181.237
X243.046Y-180.657
X298.609Y-164.147
X299.919Y-162.688
X304.919Y-162.188
X304.959Y-161.607
X212.884Y-145.097
X214.194Y-143.637
X219.194Y-143.137
X219.234Y-142.558
X155.734Y-145.097
X157.044Y-143.637
X162.044Y-143.137
X162.084Y-142.558
X60.484Y-145.097
X61.794Y-143.637
X66.794Y-143.137
X66.834Y-142.558
X431.959Y-126.047
X433.269Y-124.587
X438.269Y-124.087
X438.309Y-123.507
X341.471Y-126.047
X342.781Y-124.587
X347.781Y-124.087
X347.821Y-123.507
X150.971Y-126.047
X152.281Y-124.587
X157.281Y-124.087
X157.321Y-123.507
X274.796Y-87.947
X276.106Y-86.487
X281.106Y-85.987
X281.146Y-85.407
X360.521Y-87.947
X361.831Y-86.487
X366.831Y-85.987
X366.871Y-85.407
X312.896Y-106.997
X314.206Y-105.537
X319.206Y-105.037
X319.246Y-104.457
X322.421Y-87.947
X323.731Y-86.487
X328.731Y-85.987
X328.771Y-85.407
X236.696Y-87.947
X238.006Y-86.487
X243.006Y-85.987
X243.046Y-85.407
X79.534Y-183.197
X80.844Y-181.737
X85.844Y-181.237
X85.884Y-180.657
X255.746Y-106.997
X257.056Y-105.537
X262.056Y-105.037
X262.096Y-104.457
X241.459Y-164.147
X242.769Y-162.688
X247.769Y-162.188
X247.809Y-161.607
X255.746Y-183.197
X257.056Y-181.737
X262.056Y-181.237
X262.096Y-180.657
X468.789Y-173.672
X469.369Y-173.713
X469.869Y-178.713
X471.329Y-180.022
X184.309Y-164.147
X185.619Y-162.688
X190.619Y-162.188
X190.659Y-161.607
X270.034Y-145.097
X271.344Y-143.637
X276.344Y-143.137
X276.384Y-142.558
X174.784Y-145.097
X176.094Y-143.637
X181.094Y-143.137
X181.134Y-142.558
X170.021Y-126.047
X171.331Y-124.587
X176.331Y-124.087
X176.371Y-123.507
X60.484Y-126.047
X61.794Y-124.587
X66.794Y-124.087
X66.834Y-123.507
X322.421Y-126.047
X323.731Y-124.587
X328.731Y-124.087
X328.771Y-123.507
X470.059Y-106.997
X471.369Y-105.537
X476.369Y-105.037
X476.409Y-104.457
X60.484Y-87.947
X61.794Y-86.487
X66.794Y-85.987
X66.834Y-85.407
X60.484Y-106.997
X61.794Y-105.537
X66.794Y-105.037
X66.834Y-104.457
X236.696Y-106.997
X238.006Y-105.537
X243.006Y-105.037
X243.046Y-104.457
X451.009Y-87.947
X452.319Y-86.487
X457.319Y-85.987
X457.359Y-85.407
X150.971Y-87.947
X152.281Y-86.487
X157.281Y-85.987
X157.321Y-85.407
X360.521Y-106.997
X361.831Y-105.537
X366.831Y-105.037
X366.871Y-104.457
X155.734Y-183.197
X157.044Y-181.737
X162.044Y-181.237
X162.084Y-180.657
X79.534Y-164.147
X80.844Y-162.688
X85.844Y-162.188
X85.884Y-161.607
X198.596Y-183.197
X199.906Y-181.737
X204.906Y-181.237
X204.946Y-180.657
X451.009Y-164.147
X452.319Y-162.688
X457.319Y-162.188
X457.359Y-161.607
X470.059Y-145.097
X471.369Y-143.637
X476.369Y-143.137
X476.409Y-142.558
X231.934Y-145.097
X233.244Y-143.637
X238.244Y-143.137
X238.284Y-142.558
X320.041Y-183.198
X321.351Y-181.738
X326.351Y-181.238
X326.391Y-180.658
X308.134Y-145.097
X309.444Y-143.637
X314.444Y-143.137
X314.484Y-142.558
X468.789Y-135.572
X469.369Y-135.612
X469.869Y-140.612
X471.329Y-141.922
X412.909Y-126.047
X414.219Y-124.587
X419.219Y-124.087
X419.259Y-123.507
X303.371Y-126.047
X304.681Y-124.587
X309.681Y-124.087
X309.721Y-123.507
X431.959Y-106.997
X433.269Y-105.537
X438.269Y-105.037
X438.309Y-104.457
X105.728Y-183.198
X107.038Y-181.738
X112.038Y-181.238
X112.078Y-180.658
X303.371Y-87.947
X304.681Y-86.487
X309.681Y-85.987
X309.721Y-85.407
X160.496Y-106.997
X161.806Y-105.537
X166.806Y-105.037
X166.846Y-104.457
X274.796Y-183.197
X276.106Y-181.737
X281.106Y-181.237
X281.146Y-180.657
X412.909Y-87.947
X414.219Y-86.487
X419.219Y-85.987
X419.259Y-85.407
X451.009Y-106.997
X452.319Y-105.537
X457.319Y-105.037
X457.359Y-104.457
X412.909Y-164.147
X414.219Y-162.688
X419.219Y-162.188
X419.259Y-161.607
X108.109Y-126.047
X109.419Y-124.587
X114.419Y-124.087
X114.459Y-123.507
X317.659Y-164.147
X318.969Y-162.688
X323.969Y-162.188
X324.009Y-161.607
X108.109Y-183.197
X109.419Y-181.737
X114.419Y-181.237
X114.459Y-180.657
X470.059Y-164.147
X471.369Y-162.688
X476.369Y-162.188
X476.409Y-161.607
X343.852Y-164.147
X345.162Y-162.688
X350.162Y-162.188
X350.202Y-161.607
X431.959Y-145.097
X433.269Y-143.637
X438.269Y-143.137
X438.309Y-142.558
X193.834Y-145.097
X195.144Y-143.637
X200.144Y-143.137
X200.184Y-142.558
X470.059Y-126.047
X471.369Y-124.587
X476.369Y-124.087
X476.409Y-123.507
X389.096Y-126.047
X390.406Y-124.587
X395.406Y-124.087
X395.446Y-123.507
X284.321Y-126.047
X285.631Y-124.587
X290.631Y-124.087
X290.671Y-123.507
X370.046Y-106.997
X371.356Y-105.537
X376.356Y-105.037
X376.396Y-104.457
X153.353Y-183.198
X154.663Y-181.738
X159.663Y-181.238
X159.703Y-180.658
X198.596Y-106.997
X199.906Y-105.537
X204.906Y-105.037
X204.946Y-104.457
X131.921Y-183.197
X133.231Y-181.737
X138.231Y-181.237
X138.271Y-180.657
X131.921Y-87.947
X133.231Y-86.487
X138.231Y-85.987
X138.271Y-85.407
X122.396Y-106.997
X123.706Y-105.537
X128.706Y-105.037
X128.746Y-104.457
X217.646Y-87.947
X218.956Y-86.487
X223.956Y-85.987
X223.996Y-85.407
X412.909Y-106.997
X414.219Y-105.537
X419.219Y-105.037
X419.259Y-104.457
X370.046Y-183.197
X371.356Y-181.737
X376.356Y-181.237
X376.396Y-180.657
X222.409Y-164.147
X223.719Y-162.688
X228.719Y-162.188
X228.759Y-161.607
X350.996Y-183.197
X352.306Y-181.737
X357.306Y-181.237
X357.346Y-180.657
X103.346Y-87.947
X104.656Y-86.487
X109.656Y-85.987
X109.696Y-85.407
X127.159Y-164.147
X128.469Y-162.688
X133.469Y-162.188
X133.509Y-161.607
X203.359Y-164.147
X204.669Y-162.688
X209.669Y-162.188
X209.709Y-161.607
X110.49Y-145.256
X111.8Y-143.796
X116.8Y-143.296
X116.84Y-142.716
X389.096Y-183.197
X390.406Y-181.737
X395.406Y-181.237
X395.446Y-180.657
X412.909Y-145.097
X414.219Y-143.637
X419.219Y-143.137
X419.259Y-142.558
X289.084Y-145.097
X290.394Y-143.637
X295.394Y-143.137
X295.434Y-142.558
X451.009Y-126.047
X452.319Y-124.587
X457.319Y-124.087
X457.359Y-123.507
X227.171Y-126.047
X228.481Y-124.587
X233.481Y-124.087
X233.521Y-123.507
X265.271Y-126.047
X266.581Y-124.587
X271.581Y-124.087
X271.621Y-123.507
X331.946Y-106.997
X333.256Y-105.537
X338.256Y-105.037
X338.296Y-104.457
X129.541Y-183.198
X130.851Y-181.738
X135.851Y-181.238
X135.891Y-180.658
X141.446Y-106.997
X142.756Y-105.537
X147.756Y-105.037
X147.796Y-104.457
X451.009Y-183.197
X452.319Y-181.737
X457.319Y-181.237
X457.359Y-180.657
X79.534Y-87.947
X80.844Y-86.487
X85.844Y-85.987
X85.884Y-85.407
X103.346Y-106.997
X104.656Y-105.537
X109.656Y-105.037
X109.696Y-104.457
X341.471Y-106.997
X342.781Y-105.537
X347.781Y-105.037
X347.821Y-104.457
X350.996Y-106.997
X352.306Y-105.537
X357.306Y-105.037
X357.346Y-104.457
X431.959Y-164.147
X433.269Y-162.688
X438.269Y-162.188
X438.309Y-161.607
X165.259Y-164.147
X166.569Y-162.688
X171.569Y-162.188
X171.609Y-161.607
X293.846Y-106.997
X295.156Y-105.537
X300.156Y-105.037
X300.196Y-104.457
X370.046Y-164.147
X371.356Y-162.688
X376.356Y-162.188
X376.396Y-161.607
X79.534Y-145.097
X80.844Y-143.637
X85.844Y-143.137
X85.884Y-142.558
X260.509Y-164.147
X261.819Y-162.688
X266.819Y-162.188
X266.859Y-161.607
X389.096Y-164.147
X390.406Y-162.688
X395.406Y-162.188
X395.446Y-161.607
X389.096Y-106.997
X390.406Y-105.537
X395.406Y-105.037
X395.446Y-104.457
X389.096Y-145.097
X390.406Y-143.637
X395.406Y-143.137
X395.446Y-142.558
X224.791Y-183.198
X226.101Y-181.738
X231.101Y-181.238
X231.141Y-180.658
X250.984Y-145.097
X252.294Y-143.637
X257.294Y-143.137
X257.334Y-142.558
X131.921Y-126.047
X133.231Y-124.587
X138.231Y-124.087
X138.271Y-123.507
X189.071Y-126.047
X190.381Y-124.587
X195.381Y-124.087
X195.421Y-123.507
X246.221Y-126.047
X247.531Y-124.587
X252.531Y-124.087
X252.571Y-123.507
X217.646Y-106.997
X218.956Y-105.537
X223.956Y-105.037
X223.996Y-104.457
X170.021Y-87.947
X171.331Y-86.487
X176.331Y-85.987
X176.371Y-85.407
X431.959Y-183.197
X433.269Y-181.737
X438.269Y-181.237
X438.309Y-180.657
T2
X117.124Y-76.119G85X117.124Y-76.719
G05
X117.124Y-80.049G85X117.124Y-81.149
G05
X125.764Y-76.119G85X125.764Y-76.719
G05
X125.764Y-80.049G85X125.764Y-81.149
G05
T5
X72.419Y-157.162G85X75.219Y-157.162
G05
X339.119Y-185.737G85X341.919Y-185.737
G05
X377.219Y-88.106G85X380.019Y-88.106
G05
X124.806Y-138.112G85X127.606Y-138.112
G05
X172.431Y-185.737G85X175.231Y-185.737
G05
X291.494Y-88.106G85X294.294Y-88.106
G05
X381.981Y-138.112G85X384.781Y-138.112
G05
X205.769Y-88.106G85X208.569Y-88.106
G05
X443.894Y-157.162G85X446.694Y-157.162
G05
X259.17Y-136.94G85X261.97Y-136.94
G05
X424.844Y-119.062G85X427.644Y-119.062
G05
X120.044Y-88.106G85X122.844Y-88.106
G05
X462.944Y-119.062G85X465.744Y-119.062
G05
X72.419Y-119.062G85X75.219Y-119.062
G05
T0
M30
