M48
;DRILL file {KiCad (5.0.0-rc2-dev-733-g23a9fcd91)} date 05/31/18 02:42:50
;FORMAT={-:-/ absolute / metric / decimal}
FMAT,2
METRIC,TZ
T1C0.400
T2C0.600
T3C1.470
%
G90
G05
M71
T1
X86.763Y-98.65
X86.763Y-117.65
X86.763Y-136.65
X90.09Y-154.4
X90.896Y-153.13
X91.Y-170.91
X91.58Y-152.26
X91.81Y-170.08
X92.12Y-173.16
X92.65Y-168.73
X93.57Y-154.52
X93.57Y-167.03
X94.76Y-142.21
X95.25Y-93.016
X95.28Y-145.6
X96.44Y-94.34
X97.6Y-125.72
X97.72Y-91.26
X97.93Y-146.84
X99.09Y-92.01
X100.16Y-133.5
X100.24Y-144.12
X100.33Y-140.18
X100.51Y-134.85
X100.91Y-142.68
X105.18Y-139.76
X105.27Y-137.91
X109.91Y-137.71
X110.Y-98.65
X110.09Y-142.51
X111.Y-117.65
X112.06Y-151.035
X113.6Y-151.76
X113.81Y-141.36
X115.09Y-152.55
X116.Y-136.65
X118.54Y-150.18
X123.61Y-151.005
X125.14Y-150.02
X125.54Y-151.73
X127.95Y-151.14
X128.74Y-135.14
X170.021Y-137.41
X189.071Y-138.37
X227.171Y-139.135
X246.151Y-139.06
X265.271Y-140.335
X370.046Y-150.66
T3
X327.184Y-145.097
X328.494Y-143.637
X333.494Y-143.137
X333.534Y-142.558
X284.321Y-126.047
X285.631Y-124.587
X290.631Y-124.087
X290.671Y-123.507
X236.696Y-183.197
X238.006Y-181.737
X243.006Y-181.237
X243.046Y-180.657
X246.221Y-126.047
X247.531Y-124.587
X252.531Y-124.087
X252.571Y-123.507
X255.746Y-183.197
X257.056Y-181.737
X262.056Y-181.237
X262.096Y-180.657
X231.934Y-145.097
X233.244Y-143.637
X238.244Y-143.137
X238.284Y-142.558
X274.796Y-183.197
X276.106Y-181.737
X281.106Y-181.237
X281.146Y-180.657
X141.446Y-106.997
X142.756Y-105.537
X147.756Y-105.037
X147.796Y-104.457
X265.271Y-126.047
X266.581Y-124.587
X271.581Y-124.087
X271.621Y-123.507
X470.059Y-183.197
X471.369Y-181.737
X476.369Y-181.237
X476.409Y-180.657
X131.921Y-87.947
X133.231Y-86.487
X138.231Y-85.987
X138.271Y-85.407
X179.546Y-106.997
X180.856Y-105.537
X185.856Y-105.037
X185.896Y-104.457
X108.109Y-183.197
X109.419Y-181.737
X114.419Y-181.237
X114.459Y-180.657
X274.796Y-87.947
X276.106Y-86.487
X281.106Y-85.987
X281.146Y-85.407
X60.484Y-106.997
X61.794Y-105.537
X66.794Y-105.037
X66.834Y-104.457
X360.521Y-87.947
X361.831Y-86.487
X366.831Y-85.987
X366.871Y-85.407
X255.746Y-106.997
X257.056Y-105.537
X262.056Y-105.037
X262.096Y-104.457
X79.534Y-106.997
X80.844Y-105.537
X85.844Y-105.037
X85.884Y-104.457
X212.884Y-145.097
X214.194Y-143.637
X219.194Y-143.137
X219.234Y-142.558
X136.684Y-145.097
X137.994Y-143.637
X142.994Y-143.137
X143.034Y-142.558
X343.852Y-164.147
X345.162Y-162.688
X350.162Y-162.188
X350.202Y-161.607
X146.209Y-164.147
X147.519Y-162.688
X152.519Y-162.188
X152.559Y-161.607
X468.789Y-173.672
X469.369Y-173.713
X469.869Y-178.713
X471.329Y-180.022
X60.484Y-164.147
X61.794Y-162.688
X66.794Y-162.188
X66.834Y-161.607
X155.734Y-183.197
X157.044Y-181.737
X162.044Y-181.237
X162.084Y-180.657
X122.396Y-106.997
X123.706Y-105.537
X128.706Y-105.037
X128.746Y-104.457
X412.909Y-145.097
X414.219Y-143.637
X419.219Y-143.137
X419.259Y-142.558
X451.009Y-183.197
X452.319Y-181.737
X457.319Y-181.237
X457.359Y-180.657
X255.746Y-87.947
X257.056Y-86.487
X262.056Y-85.987
X262.096Y-85.407
X103.346Y-106.997
X104.656Y-105.537
X109.656Y-105.037
X109.696Y-104.457
X431.959Y-164.147
X433.269Y-162.688
X438.269Y-162.188
X438.309Y-161.607
X236.696Y-87.947
X238.006Y-86.487
X243.006Y-85.987
X243.046Y-85.407
X412.909Y-87.947
X414.219Y-86.487
X419.219Y-85.987
X419.259Y-85.407
X322.421Y-87.947
X323.731Y-86.487
X328.731Y-85.987
X328.771Y-85.407
X208.121Y-126.047
X209.431Y-124.587
X214.431Y-124.087
X214.471Y-123.507
X470.059Y-87.947
X471.369Y-86.487
X476.369Y-85.987
X476.409Y-85.407
X174.784Y-145.097
X176.094Y-143.637
X181.094Y-143.137
X181.134Y-142.558
X303.371Y-126.047
X304.681Y-124.587
X309.681Y-124.087
X309.721Y-123.507
X451.009Y-126.047
X452.319Y-124.587
X457.319Y-124.087
X457.359Y-123.507
X298.609Y-164.147
X299.919Y-162.688
X304.919Y-162.188
X304.959Y-161.607
X193.834Y-145.097
X195.144Y-143.637
X200.144Y-143.137
X200.184Y-142.558
X389.096Y-164.147
X390.406Y-162.688
X395.406Y-162.188
X395.446Y-161.607
X308.134Y-145.097
X309.444Y-143.637
X314.444Y-143.137
X314.484Y-142.558
X389.096Y-183.197
X390.406Y-181.737
X395.406Y-181.237
X395.446Y-180.657
X108.109Y-126.047
X109.419Y-124.587
X114.419Y-124.087
X114.459Y-123.507
X431.959Y-145.097
X433.269Y-143.637
X438.269Y-143.137
X438.309Y-142.558
X127.159Y-164.147
X128.469Y-162.688
X133.469Y-162.188
X133.509Y-161.607
X150.971Y-87.947
X152.281Y-86.487
X157.281Y-85.987
X157.321Y-85.407
X431.959Y-106.997
X433.269Y-105.537
X438.269Y-105.037
X438.309Y-104.457
X317.659Y-164.147
X318.969Y-162.688
X323.969Y-162.188
X324.009Y-161.607
X198.596Y-106.997
X199.906Y-105.537
X204.906Y-105.037
X204.946Y-104.457
X60.484Y-87.947
X61.794Y-86.487
X66.794Y-85.987
X66.834Y-85.407
X293.846Y-106.997
X295.156Y-105.537
X300.156Y-105.037
X300.196Y-104.457
X470.059Y-106.997
X471.369Y-105.537
X476.369Y-105.037
X476.409Y-104.457
X289.084Y-145.097
X290.394Y-143.637
X295.394Y-143.137
X295.434Y-142.558
X79.534Y-145.097
X80.844Y-143.637
X85.844Y-143.137
X85.884Y-142.558
X322.421Y-126.047
X323.731Y-124.587
X328.731Y-124.087
X328.771Y-123.507
X184.309Y-164.147
X185.619Y-162.688
X190.619Y-162.188
X190.659Y-161.607
X115.252Y-164.147
X116.562Y-162.688
X121.562Y-162.188
X121.602Y-161.607
X370.046Y-164.147
X371.356Y-162.688
X376.356Y-162.188
X376.396Y-161.607
X60.484Y-126.047
X61.794Y-124.587
X66.794Y-124.087
X66.834Y-123.507
X60.484Y-145.097
X61.794Y-143.637
X66.794Y-143.137
X66.834Y-142.558
X293.846Y-183.197
X295.156Y-181.737
X300.156Y-181.237
X300.196Y-180.657
X451.009Y-106.997
X452.319Y-105.537
X457.319Y-105.037
X457.359Y-104.457
X260.509Y-164.147
X261.819Y-162.688
X266.819Y-162.188
X266.859Y-161.607
X389.096Y-106.997
X390.406Y-105.537
X395.406Y-105.037
X395.446Y-104.457
X279.559Y-164.147
X280.869Y-162.688
X285.869Y-162.188
X285.909Y-161.607
X189.071Y-87.947
X190.381Y-86.487
X195.381Y-85.987
X195.421Y-85.407
X451.009Y-87.947
X452.319Y-86.487
X457.319Y-85.987
X457.359Y-85.407
X303.371Y-87.947
X304.681Y-86.487
X309.681Y-85.987
X309.721Y-85.407
X189.071Y-126.047
X190.381Y-124.587
X195.381Y-124.087
X195.421Y-123.507
X217.646Y-106.997
X218.956Y-105.537
X223.956Y-105.037
X223.996Y-104.457
X422.434Y-183.197
X423.744Y-181.737
X428.744Y-181.237
X428.784Y-180.657
X364.014Y-135.572
X364.594Y-135.612
X365.094Y-140.612
X366.554Y-141.922
X250.984Y-145.097
X252.294Y-143.637
X257.294Y-143.137
X257.334Y-142.558
X431.959Y-126.047
X433.269Y-124.587
X438.269Y-124.087
X438.309Y-123.507
X350.996Y-183.197
X352.306Y-181.737
X357.306Y-181.237
X357.346Y-180.657
X110.49Y-145.256
X111.8Y-143.796
X116.8Y-143.296
X116.84Y-142.716
X412.909Y-126.047
X414.219Y-124.587
X419.219Y-124.087
X419.259Y-123.507
X370.046Y-183.197
X371.356Y-181.737
X376.356Y-181.237
X376.396Y-180.657
X105.727Y-164.147
X107.037Y-162.688
X112.037Y-162.188
X112.078Y-161.607
X241.459Y-164.147
X242.769Y-162.688
X247.769Y-162.188
X247.809Y-161.607
X431.959Y-87.947
X433.269Y-86.487
X438.269Y-85.987
X438.309Y-85.407
X468.789Y-135.572
X469.369Y-135.612
X469.869Y-140.612
X471.329Y-141.922
X222.409Y-164.147
X223.719Y-162.688
X228.719Y-162.188
X228.759Y-161.607
X412.909Y-106.997
X414.219Y-105.537
X419.219Y-105.037
X419.259Y-104.457
X431.959Y-183.197
X433.269Y-181.737
X438.269Y-181.237
X438.309Y-180.657
X217.646Y-87.947
X218.956Y-86.487
X223.956Y-85.987
X223.996Y-85.407
X350.996Y-106.997
X352.306Y-105.537
X357.306Y-105.037
X357.346Y-104.457
X165.259Y-164.147
X166.569Y-162.688
X171.569Y-162.188
X171.609Y-161.607
X79.534Y-87.947
X80.844Y-86.487
X85.844Y-85.987
X85.884Y-85.407
X227.171Y-126.047
X228.481Y-124.587
X233.481Y-124.087
X233.521Y-123.507
X170.021Y-126.047
X171.331Y-124.587
X176.331Y-124.087
X176.371Y-123.507
X360.521Y-106.997
X361.831Y-105.537
X366.831Y-105.037
X366.871Y-104.457
X389.096Y-126.047
X390.406Y-124.587
X395.406Y-124.087
X395.446Y-123.507
X470.059Y-126.047
X471.369Y-124.587
X476.369Y-124.087
X476.409Y-123.507
X79.534Y-183.197
X80.844Y-181.737
X85.844Y-181.237
X85.884Y-180.657
X341.471Y-106.997
X342.781Y-105.537
X347.781Y-105.037
X347.821Y-104.457
X341.471Y-126.047
X342.781Y-124.587
X347.781Y-124.087
X347.821Y-123.507
X451.009Y-164.147
X452.319Y-162.688
X457.319Y-162.188
X457.359Y-161.607
X270.034Y-145.097
X271.344Y-143.637
X276.344Y-143.137
X276.384Y-142.558
X60.484Y-183.197
X61.794Y-181.737
X66.794Y-181.237
X66.834Y-180.657
X131.921Y-126.047
X133.231Y-124.587
X138.231Y-124.087
X138.271Y-123.507
X470.059Y-145.097
X471.369Y-143.637
X476.369Y-143.137
X476.409Y-142.558
X203.359Y-164.147
X204.669Y-162.688
X209.669Y-162.188
X209.709Y-161.607
X160.496Y-106.997
X161.806Y-105.537
X166.806Y-105.037
X166.846Y-104.457
X412.909Y-183.197
X414.219Y-181.737
X419.219Y-181.237
X419.259Y-180.657
X170.021Y-87.947
X171.331Y-86.487
X176.331Y-85.987
X176.371Y-85.407
X274.796Y-106.997
X276.106Y-105.537
X281.106Y-105.037
X281.146Y-104.457
X370.046Y-106.997
X371.356Y-105.537
X376.356Y-105.037
X376.396Y-104.457
X150.971Y-126.047
X152.281Y-124.587
X157.281Y-124.087
X157.321Y-123.507
X389.096Y-145.097
X390.406Y-143.637
X395.406Y-143.137
X395.446Y-142.558
X155.734Y-145.097
X157.044Y-143.637
X162.044Y-143.137
X162.084Y-142.558
X470.059Y-164.147
X471.369Y-162.688
X476.369Y-162.188
X476.409Y-161.607
X358.14Y-145.097
X359.45Y-143.637
X364.45Y-143.137
X364.49Y-142.558
X365.284Y-126.047
X366.594Y-124.587
X371.594Y-124.087
X371.634Y-123.507
X198.596Y-183.197
X199.906Y-181.737
X204.906Y-181.237
X204.946Y-180.657
X79.534Y-164.147
X80.844Y-162.688
X85.844Y-162.188
X85.884Y-161.607
X412.909Y-164.147
X414.219Y-162.688
X419.219Y-162.188
X419.259Y-161.607
X331.946Y-106.997
X333.256Y-105.537
X338.256Y-105.037
X338.296Y-104.457
X451.009Y-145.097
X452.319Y-143.637
X457.319Y-143.137
X457.359Y-142.558
X389.096Y-87.947
X390.406Y-86.487
X395.406Y-85.987
X395.446Y-85.407
X317.659Y-183.197
X318.969Y-181.737
X323.969Y-181.237
X324.009Y-180.657
X341.471Y-87.947
X342.781Y-86.487
X347.781Y-85.987
X347.821Y-85.407
X236.696Y-106.997
X238.006Y-105.537
X243.006Y-105.037
X243.046Y-104.457
X103.346Y-87.947
X104.656Y-86.487
X109.656Y-85.987
X109.696Y-85.407
X79.534Y-126.047
X80.844Y-124.587
X85.844Y-124.087
X85.884Y-123.507
X312.896Y-106.997
X314.206Y-105.537
X319.206Y-105.037
X319.246Y-104.457
T2
X90.854Y-78.119G85X90.854Y-78.719
G05
X90.854Y-82.049G85X90.854Y-83.149
G05
X99.494Y-78.119G85X99.494Y-78.719
G05
X99.494Y-82.049G85X99.494Y-83.149
G05
T0
M30
