M48
;DRILL file {KiCad (5.0.0-rc2-dev-733-g23a9fcd91)} date 06/01/18 02:38:53
;FORMAT={-:-/ absolute / metric / decimal}
FMAT,2
METRIC,TZ
T1C0.600
T2C2.200
%
G90
G05
M71
T1
X339.269Y-183.987
X339.269Y-187.487
X340.519Y-183.987
X340.519Y-187.487
X341.769Y-183.987
X341.769Y-187.487
X172.581Y-183.987
X172.581Y-187.487
X173.831Y-183.987
X173.831Y-187.487
X175.081Y-183.987
X175.081Y-187.487
X205.919Y-86.356
X205.919Y-89.856
X207.169Y-86.356
X207.169Y-89.856
X208.419Y-86.356
X208.419Y-89.856
X424.994Y-117.312
X424.994Y-120.812
X426.244Y-117.312
X426.244Y-120.812
X427.494Y-117.312
X427.494Y-120.812
X72.569Y-117.312
X72.569Y-120.812
X73.819Y-117.312
X73.819Y-120.812
X75.069Y-117.312
X75.069Y-120.812
X377.369Y-86.356
X377.369Y-89.856
X378.619Y-86.356
X378.619Y-89.856
X379.869Y-86.356
X379.869Y-89.856
X72.569Y-155.412
X72.569Y-158.912
X73.819Y-155.412
X73.819Y-158.912
X75.069Y-155.412
X75.069Y-158.912
X120.194Y-86.356
X120.194Y-89.856
X121.444Y-86.356
X121.444Y-89.856
X122.694Y-86.356
X122.694Y-89.856
X444.044Y-155.412
X444.044Y-158.912
X445.294Y-155.412
X445.294Y-158.912
X446.544Y-155.412
X446.544Y-158.912
X291.644Y-86.356
X291.644Y-89.856
X292.894Y-86.356
X292.894Y-89.856
X294.144Y-86.356
X294.144Y-89.856
X463.094Y-117.312
X463.094Y-120.812
X464.344Y-117.312
X464.344Y-120.812
X465.594Y-117.312
X465.594Y-120.812
X124.956Y-136.362
X124.956Y-139.862
X126.206Y-136.362
X126.206Y-139.862
X127.456Y-136.362
X127.456Y-139.862
X382.131Y-136.362
X382.131Y-139.862
X383.381Y-136.362
X383.381Y-139.862
X384.631Y-136.362
X384.631Y-139.862
X317.837Y-136.362
X317.837Y-139.862
X319.087Y-136.362
X319.087Y-139.862
X320.337Y-136.362
X320.337Y-139.862
T2
X120.044Y-88.106G85X122.844Y-88.106
G05
X443.894Y-157.162G85X446.694Y-157.162
G05
X291.494Y-88.106G85X294.294Y-88.106
G05
X462.944Y-119.062G85X465.744Y-119.062
G05
X124.806Y-138.112G85X127.606Y-138.112
G05
X381.981Y-138.112G85X384.781Y-138.112
G05
X317.688Y-138.112G85X320.488Y-138.112
G05
X339.119Y-185.737G85X341.919Y-185.737
G05
X172.431Y-185.737G85X175.231Y-185.737
G05
X205.769Y-88.106G85X208.569Y-88.106
G05
X424.844Y-119.062G85X427.644Y-119.062
G05
X72.419Y-119.062G85X75.219Y-119.062
G05
X377.219Y-88.106G85X380.019Y-88.106
G05
X72.419Y-157.162G85X75.219Y-157.162
G05
T0
M30
